<svg version="1.1" id="Layer_1" xmlns="http://www.w3.org/2000/svg" xmlns:xlink="http://www.w3.org/1999/xlink" x="0px" y="0px"
	 width="100%" viewBox="0 0 2365 2097" enable-background="new 0 0 2365 2097" xml:space="preserve">
<path fill="none" opacity="1.000000" stroke="none"
	d="
M2368.000000,720.000000 
	C2368.000000,1180.666626 2368.000000,1640.333374 2368.000000,2100.000000 
	C1579.333374,2100.000000 790.666687,2100.000000 2.000000,2100.000000 
	C2.000000,1400.666626 2.000000,701.333313 2.000000,2.000000 
	C790.666687,2.000000 1579.333374,2.000000 2368.000000,2.000000 
	C2368.000000,241.000000 2368.000000,480.000000 2368.000000,720.000000 
M374.510193,1048.745605 
	C379.663422,1064.212891 384.666595,1079.731934 389.993896,1095.139038 
	C429.064789,1208.135498 478.370422,1316.387329 541.329346,1418.150757 
	C630.568909,1562.392578 740.419617,1689.095825 868.966675,1799.560425 
	C936.629211,1857.704712 1009.462891,1908.506104 1089.020996,1949.245728 
	C1121.317383,1965.783936 1154.340576,1980.678833 1189.308838,1990.877319 
	C1194.007446,1992.247681 1198.292480,1992.570312 1202.922241,1990.905762 
	C1212.616577,1987.420288 1222.547974,1984.560059 1232.128784,1980.797974 
	C1296.938110,1955.350098 1356.624756,1920.489746 1413.742310,1881.055176 
	C1503.568970,1819.037720 1583.537109,1745.842896 1657.797363,1666.071411 
	C1792.565063,1521.301392 1896.411987,1357.133179 1969.140259,1173.192017 
	C2041.918945,989.123047 2083.424072,797.834534 2101.696289,601.173645 
	C2107.710693,536.437927 2110.786377,471.531830 2110.922852,406.503815 
	C2110.985596,376.546631 2110.933594,346.589142 2110.933594,316.210114 
	C2100.448242,311.166901 2090.700439,306.216644 2080.743896,301.729218 
	C1956.519775,245.741776 1827.022705,205.888824 1694.319946,175.995544 
	C1608.171265,156.589279 1521.144165,142.481552 1433.281372,133.395325 
	C1381.218384,128.011261 1329.056152,124.012642 1276.763672,122.667282 
	C1175.092529,120.051529 1073.512329,121.508675 972.171509,131.589264 
	C914.809753,137.295166 857.695190,144.710205 800.923218,154.588806 
	C719.572021,168.744293 639.168579,187.139557 559.856140,210.186218 
	C473.527344,235.271683 388.783722,264.750916 306.824371,301.891388 
	C296.870605,306.402008 287.080963,311.274719 277.586121,315.802765 
	C277.315674,317.688507 277.068024,318.650055 277.055054,319.614746 
	C276.054138,393.945221 276.392273,468.235413 281.515594,542.458801 
	C286.152222,609.631531 293.327637,676.487305 303.622772,743.032288 
	C319.580505,846.178589 342.810852,947.618286 374.510193,1048.745605 
z"/>
<path fill="#F8F9F9" opacity="1.000000" stroke="none" 
	d="
M374.291260,1047.977295 
	C342.810852,947.618286 319.580505,846.178589 303.622772,743.032288 
	C293.327637,676.487305 286.152222,609.631531 281.515594,542.458801 
	C276.392273,468.235413 276.054138,393.945221 277.055054,319.614746 
	C277.068024,318.650055 277.315674,317.688507 277.586121,315.802765 
	C287.080963,311.274719 296.870605,306.402008 306.824371,301.891388 
	C388.783722,264.750916 473.527344,235.271683 559.856140,210.186218 
	C639.168579,187.139557 719.572021,168.744293 800.923218,154.588806 
	C857.695190,144.710205 914.809753,137.295166 972.171509,131.589264 
	C1073.512329,121.508675 1175.092529,120.051529 1276.763672,122.667282 
	C1329.056152,124.012642 1381.218384,128.011261 1433.281372,133.395325 
	C1521.144165,142.481552 1608.171265,156.589279 1694.319946,175.995544 
	C1827.022705,205.888824 1956.519775,245.741776 2080.743896,301.729218 
	C2090.700439,306.216644 2100.448242,311.166901 2110.933594,316.210114 
	C2110.933594,346.589142 2110.985596,376.546631 2110.922852,406.503815 
	C2110.786377,471.531830 2107.710693,536.437927 2101.696289,601.173645 
	C2083.424072,797.834534 2041.918945,989.123047 1969.140259,1173.192017 
	C1896.411987,1357.133179 1792.565063,1521.301392 1657.797363,1666.071411 
	C1583.537109,1745.842896 1503.568970,1819.037720 1413.742310,1881.055176 
	C1356.624756,1920.489746 1296.938110,1955.350098 1232.128784,1980.797974 
	C1222.547974,1984.560059 1212.616577,1987.420288 1202.922241,1990.905762 
	C1198.292480,1992.570312 1194.007446,1992.247681 1189.308838,1990.877319 
	C1154.340576,1980.678833 1121.317383,1965.783936 1089.020996,1949.245728 
	C1009.462891,1908.506104 936.629211,1857.704712 868.966675,1799.560425 
	C740.419617,1689.095825 630.568909,1562.392578 541.329346,1418.150757 
	C478.370422,1316.387329 429.064789,1208.135498 389.993896,1095.139038 
	C384.666595,1079.731934 379.663422,1064.212891 374.291260,1047.977295 
M304.649445,336.688171 
	C304.553009,352.020966 304.490723,367.354065 304.354553,382.686493 
	C303.613708,466.090118 307.899597,549.265625 316.452850,632.201721 
	C323.220093,697.820129 332.984467,763.013611 345.674957,827.776489 
	C364.716309,924.949524 390.323486,1020.292480 423.819458,1113.504272 
	C458.923035,1211.189819 502.369019,1304.933350 555.403687,1394.223267 
	C612.675293,1490.646362 681.394775,1578.324951 757.966003,1659.995972 
	C835.760071,1742.971191 920.848022,1817.400757 1016.758118,1878.981689 
	C1065.875977,1910.518799 1116.816162,1938.723389 1171.733643,1958.875000 
	C1203.197998,1970.420532 1191.466919,1970.522461 1222.715454,1958.623047 
	C1291.282227,1932.513550 1353.732422,1895.071045 1413.463867,1852.914062 
	C1496.039795,1794.634155 1570.287109,1726.927612 1638.804199,1652.808105 
	C1720.510254,1564.421021 1793.036987,1469.255737 1852.312256,1364.233398 
	C1946.147705,1197.978271 2006.868164,1019.808044 2044.045898,833.129883 
	C2056.411621,771.039124 2066.548584,708.569519 2072.462646,645.528015 
	C2077.004639,597.111511 2081.524170,548.618896 2083.506592,500.056183 
	C2085.652588,447.474335 2084.693848,394.769623 2085.497314,342.124695 
	C2085.609619,334.775391 2082.787354,331.604279 2076.441162,328.874756 
	C1963.754639,280.407623 1847.921021,241.324448 1728.841064,211.891541 
	C1629.480957,187.332718 1528.895508,169.867508 1427.054199,159.474884 
	C1368.006470,153.449219 1308.832275,149.675705 1249.515747,148.488617 
	C1160.156616,146.700317 1070.890747,148.762894 981.913330,157.866806 
	C945.476807,161.594879 909.027039,165.491226 872.774414,170.653290 
	C804.546936,180.368286 736.955566,193.563202 669.956299,209.822464 
	C547.484009,239.543854 428.464783,279.506439 312.800476,329.496307 
	C309.922943,330.739960 307.552185,333.156250 304.649445,336.688171 
z"/>
<path fill="#010101" opacity="1.000000" stroke="none" 
	d="
M304.797241,335.856903 
	C307.552185,333.156250 309.922943,330.739960 312.800476,329.496307 
	C428.464783,279.506439 547.484009,239.543854 669.956299,209.822464 
	C736.955566,193.563202 804.546936,180.368286 872.774414,170.653290 
	C909.027039,165.491226 945.476807,161.594879 981.913330,157.866806 
	C1070.890747,148.762894 1160.156616,146.700317 1249.515747,148.488617 
	C1308.832275,149.675705 1368.006470,153.449219 1427.054199,159.474884 
	C1528.895508,169.867508 1629.480957,187.332718 1728.841064,211.891541 
	C1847.921021,241.324448 1963.754639,280.407623 2076.441162,328.874756 
	C2082.787354,331.604279 2085.609619,334.775391 2085.497314,342.124695 
	C2084.693848,394.769623 2085.652588,447.474335 2083.506592,500.056183 
	C2081.524170,548.618896 2077.004639,597.111511 2072.462646,645.528015 
	C2066.548584,708.569519 2056.411621,771.039124 2044.045898,833.129883 
	C2006.868164,1019.808044 1946.147705,1197.978271 1852.312256,1364.233398 
	C1793.036987,1469.255737 1720.510254,1564.421021 1638.804199,1652.808105 
	C1570.287109,1726.927612 1496.039795,1794.634155 1413.463867,1852.914062 
	C1353.732422,1895.071045 1291.282227,1932.513550 1222.715454,1958.623047 
	C1191.466919,1970.522461 1203.197998,1970.420532 1171.733643,1958.875000 
	C1116.816162,1938.723389 1065.875977,1910.518799 1016.758118,1878.981689 
	C920.848022,1817.400757 835.760071,1742.971191 757.966003,1659.995972 
	C681.394775,1578.324951 612.675293,1490.646362 555.403687,1394.223267 
	C502.369019,1304.933350 458.923035,1211.189819 423.819458,1113.504272 
	C390.323486,1020.292480 364.716309,924.949524 345.674957,827.776489 
	C332.984467,763.013611 323.220093,697.820129 316.452850,632.201721 
	C307.899597,549.265625 303.613708,466.090118 304.354553,382.686493 
	C304.490723,367.354065 304.553009,352.020966 304.797241,335.856903 
M1057.176147,1780.680664 
	C1054.742188,1780.407837 1052.308105,1780.135010 1049.874023,1779.862183 
	C1049.735718,1780.380615 1049.597290,1780.899048 1049.458862,1781.417480 
	C1051.714722,1782.166870 1053.970581,1782.916260 1057.540527,1784.033569 
	C1059.703857,1784.530273 1061.867065,1785.027100 1065.514526,1786.010864 
	C1126.335693,1804.231079 1188.332397,1809.237915 1251.253296,1801.568115 
	C1317.026733,1793.550293 1377.676147,1770.961792 1433.576538,1735.493652 
	C1435.819824,1734.070312 1438.040039,1732.567383 1440.078613,1730.870361 
	C1477.628174,1699.609131 1505.884888,1661.453125 1524.760620,1616.384277 
	C1525.544556,1614.512573 1525.567383,1612.322266 1526.192383,1608.940430 
	C1523.068481,1610.496338 1521.277466,1611.208862 1519.670532,1612.215210 
	C1484.424805,1634.288818 1449.366089,1656.666016 1413.931030,1678.430542 
	C1361.970215,1710.345459 1308.216797,1738.771118 1250.500977,1759.017456 
	C1213.030029,1772.161987 1174.758179,1782.437744 1134.956421,1784.715698 
	C1115.412109,1785.834351 1095.718506,1784.340454 1074.630737,1783.397705 
	C1069.166138,1782.777100 1063.701660,1782.156494 1057.176147,1780.680664 
M1524.642578,1650.430298 
	C1522.581299,1653.825439 1520.519897,1657.220459 1518.458496,1660.615601 
	C1518.973755,1660.937378 1519.489014,1661.259155 1520.004272,1661.580933 
	C1522.614624,1658.358276 1525.225098,1655.135498 1528.767456,1650.962402 
	C1546.289185,1631.316406 1561.492676,1609.998413 1574.706787,1587.247314 
	C1576.663940,1583.877686 1579.665649,1580.620728 1575.488037,1575.816528 
	C1566.406616,1577.523926 1559.201904,1581.171509 1554.752441,1590.953369 
	C1545.705078,1610.843384 1535.512207,1630.212524 1524.642578,1650.430298 
M1632.053955,1428.940796 
	C1631.880127,1427.256592 1631.706299,1425.572388 1631.312012,1421.753296 
	C1629.710327,1425.902344 1628.906860,1427.983643 1627.393188,1431.217163 
	C1617.922241,1448.526855 1603.588867,1461.383179 1588.252563,1473.154053 
	C1584.412109,1476.101562 1582.583740,1479.102905 1582.191406,1483.744263 
	C1580.282959,1506.316895 1575.420654,1528.345215 1569.566284,1550.178711 
	C1568.930664,1552.548950 1568.468140,1554.965454 1567.684448,1558.422485 
	C1576.336792,1556.386230 1583.656250,1556.509277 1589.038208,1564.104370 
	C1611.046997,1521.084351 1624.954224,1476.676147 1632.053955,1428.940796 
M1062.031616,1765.131470 
	C1123.727539,1769.040039 1182.923828,1758.092896 1239.034790,1732.714844 
	C1272.327759,1717.656860 1304.586182,1700.251587 1336.959229,1683.234863 
	C1376.127075,1662.646729 1414.973877,1641.444824 1453.864868,1620.334106 
	C1479.600342,1606.364502 1505.129761,1592.015747 1530.844971,1578.008789 
	C1536.192871,1575.095825 1539.369019,1571.389648 1540.430176,1565.124023 
	C1542.373413,1553.650024 1545.505615,1542.377686 1547.455566,1530.904785 
	C1549.430542,1519.284790 1550.574341,1507.523560 1552.267090,1494.390015 
	C1492.748169,1521.869629 1431.615601,1538.261353 1368.974365,1552.807983 
	C1368.974365,1541.746338 1368.974365,1531.927490 1368.974365,1521.563354 
	C1432.264893,1507.283691 1493.923218,1488.895386 1552.916870,1461.021240 
	C1552.816895,1430.120239 1550.239746,1399.836792 1543.732910,1369.310303 
	C1540.519897,1370.829102 1538.127563,1371.926758 1535.763916,1373.082642 
	C1519.318726,1381.124390 1501.892822,1384.981934 1483.641724,1384.919922 
	C1438.931274,1384.768066 1395.817749,1374.951904 1353.088257,1362.973755 
	C1350.621948,1362.282349 1347.764038,1361.250854 1346.189453,1359.427002 
	C1340.574951,1352.923828 1335.436157,1346.009644 1330.462402,1339.689697 
	C1334.000000,1332.005127 1337.315918,1324.801636 1340.869629,1317.082031 
	C1344.692261,1318.501343 1348.320679,1319.990967 1352.039307,1321.204224 
	C1368.467529,1326.564697 1384.725220,1332.589111 1401.408203,1336.997559 
	C1434.192505,1345.660889 1467.519043,1349.456299 1501.335938,1343.950317 
	C1513.702271,1341.936768 1525.928345,1339.116333 1536.920166,1332.378296 
	C1530.044312,1302.841309 1520.333618,1274.947632 1507.885254,1248.019897 
	C1469.872437,1165.793579 1417.961670,1093.968506 1347.460815,1036.481567 
	C1277.134277,979.136597 1197.190430,946.384338 1105.618042,945.131531 
	C1090.724487,944.927734 1075.459229,943.817871 1060.982910,948.298035 
	C968.928162,976.786804 894.169861,1029.817749 836.802368,1107.282715 
	C835.370300,1109.216675 834.284790,1111.407227 832.774414,1113.915039 
	C834.669373,1113.915039 835.707458,1114.126587 836.625732,1113.884277 
	C858.374207,1108.142822 880.088257,1109.285278 901.972290,1113.415161 
	C950.193726,1122.515259 994.788269,1141.351318 1038.249023,1163.350342 
	C1038.791260,1163.624634 1039.110718,1164.338867 1039.483398,1164.786743 
	C1039.483398,1174.759521 1039.483398,1184.666016 1039.483398,1195.622925 
	C1035.610718,1193.829102 1032.364746,1192.391846 1029.175415,1190.838135 
	C979.869019,1166.818359 929.080383,1147.147217 874.096680,1141.207764 
	C857.630737,1139.429077 840.849426,1140.407593 824.213501,1140.454346 
	C818.401123,1140.470703 814.078674,1142.599121 810.717896,1148.555054 
	C771.179260,1218.623413 751.645325,1293.715820 753.119568,1374.183594 
	C753.515320,1395.785889 753.676331,1395.841064 769.422791,1411.289062 
	C795.640320,1437.009644 826.387878,1456.078857 859.241028,1471.981689 
	C901.048523,1492.219238 945.341064,1505.477661 989.852661,1518.040039 
	C1006.395447,1522.708740 1023.136230,1526.676025 1040.306763,1531.097168 
	C1039.981445,1544.127319 1040.783447,1556.853516 1039.906982,1569.951416 
	C1035.690674,1569.158447 1032.755005,1568.624878 1029.827026,1568.052979 
	C975.027832,1557.351196 922.172974,1540.603638 872.144348,1515.718506 
	C827.356384,1493.439941 788.528442,1463.694824 759.909424,1421.898315 
	C759.194336,1420.854004 758.065430,1420.093140 756.445984,1418.547852 
	C757.779968,1427.618286 758.890015,1435.794556 760.214294,1443.936157 
	C761.015381,1448.861206 762.048096,1453.754883 763.147461,1458.624146 
	C784.761719,1554.355957 832.970886,1634.238037 906.599182,1698.899048 
	C925.396790,1715.406982 945.447083,1730.118042 967.895142,1741.486450 
	C996.965759,1756.208984 1028.181763,1762.019653 1062.031616,1765.131470 
M506.142639,509.000000 
	C506.142639,488.931274 506.142639,468.862549 506.142639,448.793823 
	C508.710815,451.717407 510.187744,454.875671 511.451324,458.117065 
	C536.945679,523.517761 562.325745,588.963257 587.913513,654.327393 
	C618.231201,731.774353 648.721008,809.153931 679.142761,886.560181 
	C684.081055,899.125183 684.675598,899.355164 698.450012,896.359375 
	C724.453247,890.704041 750.470276,885.111938 776.489624,879.531372 
	C789.389526,876.764526 790.587158,875.417419 790.587952,862.309509 
	C790.599854,669.362671 790.596680,476.415771 790.589050,283.468903 
	C790.588928,281.138428 790.682861,278.782196 790.387451,276.482361 
	C789.542419,269.903259 787.059265,267.678650 780.605164,267.744751 
	C778.289368,267.768494 775.937439,268.084076 773.672058,268.584076 
	C757.433594,272.168243 741.187439,275.723938 724.995544,279.510284 
	C712.740601,282.376007 712.167908,283.183197 712.317322,295.645844 
	C712.700623,327.634369 713.195801,359.621490 713.600891,391.609772 
	C715.271973,523.558655 716.927856,655.507751 718.563843,787.457092 
	C718.580139,788.774719 718.249390,790.096619 718.080627,791.416565 
	C715.644287,789.058777 714.707703,786.679871 713.780396,784.297363 
	C693.750122,732.833740 673.923950,681.289551 653.647400,629.923157 
	C616.025513,534.615967 578.155640,439.406647 540.345581,344.173828 
	C535.876038,332.916351 532.788086,331.393463 521.347900,335.452606 
	C496.914124,344.121948 472.513702,352.895264 448.235168,361.987976 
	C434.852051,367.000183 434.682983,367.718811 434.682556,381.565063 
	C434.676910,573.512207 434.678467,765.459351 434.682953,957.406494 
	C434.683014,960.071472 434.440979,962.781982 434.834106,965.392639 
	C435.930725,972.674988 441.721497,976.307007 448.724884,973.774536 
	C465.917694,967.557434 482.951111,960.897400 500.169891,954.755554 
	C506.102631,952.639343 508.842133,949.107910 508.407104,942.872009 
	C508.198822,939.886292 508.342224,936.876099 508.326721,933.876953 
	C507.598694,792.917969 506.870697,651.958984 506.142639,509.000000 
M1881.859009,745.318237 
	C1899.833496,776.868286 1903.163818,810.853516 1897.600708,845.948425 
	C1893.747681,870.254944 1881.165161,880.125793 1856.353516,880.277893 
	C1854.687866,880.288086 1853.021362,880.245117 1851.356079,880.196411 
	C1821.884277,879.334961 1794.512817,870.074219 1767.669434,858.956482 
	C1750.364868,851.789429 1734.229980,842.517761 1719.927856,830.273071 
	C1705.072876,817.555298 1694.289062,802.228577 1690.775879,782.691040 
	C1689.249390,774.202576 1688.390991,765.499207 1688.243042,756.875977 
	C1687.848633,733.887878 1688.055908,710.890137 1687.916870,687.896790 
	C1687.857178,678.018555 1686.629272,676.499390 1677.003296,674.456482 
	C1659.104980,670.657959 1641.182617,666.971497 1623.250610,663.335327 
	C1615.374390,661.738159 1611.139160,664.643860 1609.923950,672.340332 
	C1609.614868,674.298157 1609.723389,676.329712 1609.722900,678.327393 
	C1609.716309,704.320740 1609.799194,730.314392 1609.709839,756.307434 
	C1609.604858,786.817810 1619.671753,813.728638 1638.261719,837.629456 
	C1657.028076,861.757263 1681.213501,879.260620 1707.833496,893.581055 
	C1742.615112,912.291931 1779.781616,924.730835 1817.974121,934.227478 
	C1843.648682,940.611511 1869.737427,943.678650 1896.217163,941.967651 
	C1936.950562,939.335693 1963.880005,916.179626 1972.129150,876.332092 
	C1977.728882,849.282166 1977.295532,822.025818 1972.880127,794.845154 
	C1967.693115,762.913818 1954.079712,734.448486 1934.675415,709.017700 
	C1919.342163,688.922180 1903.053345,669.439148 1885.905396,650.869263 
	C1850.190063,612.192261 1813.214111,574.677490 1777.591431,535.917603 
	C1761.178955,518.059753 1746.097046,498.871338 1731.540283,479.440857 
	C1709.789673,450.407684 1706.088745,417.113129 1712.107300,382.377197 
	C1716.220581,358.636627 1729.492798,347.387024 1753.462891,347.604156 
	C1790.430908,347.939056 1824.235840,359.158936 1854.412231,380.395020 
	C1872.633911,393.218201 1883.732178,411.225647 1887.271484,433.298218 
	C1888.846924,443.123291 1889.306152,453.189362 1889.496704,463.160858 
	C1889.840576,481.149811 1889.520386,499.150391 1889.640137,517.145020 
	C1889.698975,525.992981 1890.879883,527.433105 1898.892456,530.248108 
	C1915.829712,536.198730 1932.769409,542.142090 1949.706909,548.092041 
	C1959.360229,551.483215 1965.625366,547.650452 1965.524780,537.420166 
	C1965.256348,510.109100 1965.690063,482.708527 1963.584961,455.518494 
	C1960.823364,419.849823 1946.461670,388.757294 1921.000732,363.121765 
	C1906.062378,348.081146 1888.870483,336.175049 1870.186890,326.400940 
	C1841.720947,311.509369 1811.573608,301.072388 1780.228760,294.351959 
	C1757.727783,289.527649 1735.024902,286.439453 1711.816650,289.477997 
	C1671.022705,294.819031 1645.469116,316.391846 1635.686035,356.388184 
	C1623.071167,407.962158 1631.574219,456.134155 1661.355591,500.358643 
	C1676.124390,522.289795 1693.533447,542.012085 1712.074951,560.730774 
	C1750.064453,599.083191 1788.523682,636.972656 1826.311768,675.521179 
	C1846.843628,696.466125 1866.153442,718.564819 1881.859009,745.318237 
M855.261047,776.999512 
	C855.261108,800.664795 855.213440,824.330200 855.280090,847.995300 
	C855.316650,860.973145 858.804810,864.025024 871.550232,862.305054 
	C897.945190,858.743164 924.252869,854.349609 950.734680,851.657043 
	C995.461548,847.109375 1040.261108,843.143188 1085.097900,839.859131 
	C1112.000732,837.888794 1139.033936,837.721008 1166.005005,836.650940 
	C1175.883423,836.258972 1178.496338,833.685669 1178.699341,823.973572 
	C1178.901245,814.311646 1178.808716,804.641785 1178.734985,794.976318 
	C1178.633911,781.723145 1175.868164,778.858459 1162.788208,779.380371 
	C1125.167114,780.881470 1087.493408,781.729370 1049.954224,784.421387 
	C1014.428467,786.968994 979.047913,791.537476 943.600342,795.186584 
	C940.463379,795.509521 937.303223,795.605835 934.421021,795.790344 
	C934.421021,717.408630 934.421021,639.937805 934.421021,561.208801 
	C978.160583,557.263855 1021.251831,553.146484 1064.389526,549.590759 
	C1083.972778,547.976624 1103.647827,547.475281 1123.281250,546.469910 
	C1133.063843,545.969055 1134.866333,544.266602 1135.007568,534.451660 
	C1135.161133,523.787964 1135.269897,513.113220 1134.955322,502.456329 
	C1134.687012,493.360046 1132.432739,491.358429 1123.444824,491.492218 
	C1073.762207,492.231903 1024.258911,495.753906 974.888489,501.260040 
	C961.438171,502.760101 947.995056,504.324646 934.564514,505.857758 
	C932.638489,490.209900 933.297974,305.880402 935.298523,298.654755 
	C938.801636,298.238525 942.426636,297.875305 946.031494,297.369263 
	C994.561279,290.557068 1043.317017,286.119019 1092.264282,283.963013 
	C1117.229858,282.863342 1142.227295,282.492462 1167.209351,281.761230 
	C1176.797729,281.480591 1179.790771,278.611786 1179.927368,269.246185 
	C1180.068359,259.582153 1179.992798,249.914352 1179.955444,240.248413 
	C1179.909058,228.248886 1177.052612,225.214874 1165.362549,225.502243 
	C1143.376587,226.042694 1121.386475,226.583466 1099.414551,227.511505 
	C1023.106934,230.734497 947.332031,239.045258 872.018311,251.680588 
	C855.284119,254.488083 855.262146,254.391022 855.262024,271.029572 
	C855.260559,439.019531 855.261047,607.009521 855.261047,776.999512 
M1442.584595,236.318130 
	C1434.296875,235.521423 1426.019287,234.595291 1417.719727,233.950958 
	C1386.176147,231.502121 1354.654175,228.610107 1323.068970,226.906113 
	C1292.806152,225.273453 1262.476929,224.833328 1232.172363,224.042084 
	C1224.660278,223.845947 1221.692383,226.260757 1221.566528,232.808899 
	C1221.323242,245.463608 1221.342285,258.134644 1221.715576,270.785248 
	C1221.908569,277.323853 1225.874878,280.908905 1232.487671,281.682007 
	C1234.461792,281.912811 1236.483887,281.699158 1238.480469,281.777039 
	C1279.750610,283.386536 1321.020996,284.987549 1362.288208,286.669830 
	C1365.475464,286.799744 1368.638428,287.519379 1372.217163,288.021637 
	C1372.217163,292.359039 1372.217163,295.992584 1372.217163,299.626129 
	C1372.217163,473.885101 1372.217163,648.144104 1372.217285,822.403076 
	C1372.217285,825.068604 1372.158569,827.735840 1372.231445,830.399414 
	C1372.486938,839.743225 1375.465942,843.039062 1384.503174,843.908081 
	C1402.730469,845.660828 1420.960693,847.382690 1439.191650,849.097412 
	C1446.424683,849.777710 1451.279297,845.715942 1451.817871,838.427002 
	C1452.013672,835.775635 1451.859985,833.098267 1451.859985,830.432739 
	C1451.860352,656.173767 1451.860229,481.914734 1451.860229,307.655731 
	C1451.860229,303.769470 1451.860229,299.883240 1451.860229,295.055145 
	C1477.934326,298.453094 1502.727905,301.351379 1527.409912,305.003204 
	C1548.140869,308.070404 1568.737915,312.038086 1589.401978,315.562653 
	C1600.349243,317.429932 1604.629517,314.158813 1604.872925,303.333252 
	C1605.105103,293.009552 1605.104370,282.672455 1604.869995,272.348877 
	C1604.673950,263.714447 1601.118530,259.529388 1592.573486,258.054596 
	C1572.244385,254.545990 1551.918945,250.958221 1531.501221,248.037537 
	C1502.507080,243.890045 1473.431274,240.312759 1442.584595,236.318130 
M1216.312134,930.850952 
	C1198.511353,929.996399 1180.725098,929.502869 1163.043701,932.397522 
	C1203.819214,936.846375 1242.549805,947.958679 1279.576050,965.162964 
	C1345.419434,995.757263 1399.891968,1040.907593 1446.257812,1096.221924 
	C1497.786377,1157.695435 1534.955444,1227.132812 1559.919800,1303.232056 
	C1560.982910,1306.472900 1562.057251,1309.709961 1563.566772,1314.282959 
	C1574.296509,1300.985718 1581.577881,1287.981445 1585.985840,1273.584595 
	C1600.762573,1225.320801 1592.682251,1179.315552 1567.161255,1137.325806 
	C1526.513794,1070.448853 1470.236450,1019.245178 1401.202759,982.330383 
	C1344.021240,951.753418 1282.925415,934.783813 1216.312134,930.850952 
M1572.017090,1349.767822 
	C1579.472046,1380.498413 1582.760010,1411.780518 1583.239746,1444.979370 
	C1607.630371,1426.239014 1623.666504,1403.961914 1632.452515,1376.558960 
	C1633.846802,1372.210449 1634.659912,1367.471680 1634.661133,1362.913086 
	C1634.670654,1329.447754 1629.718140,1296.606567 1621.556519,1264.211914 
	C1621.182495,1262.727783 1620.281616,1261.376465 1619.184937,1259.011841 
	C1618.571411,1261.062622 1618.211304,1261.914062 1618.066895,1262.800537 
	C1612.917603,1294.381470 1598.898438,1321.349976 1576.063965,1343.758057 
	C1574.661377,1345.134277 1573.463501,1346.718872 1572.017090,1349.767822 
z"/>
<path fill="#FDFEFE" opacity="1.000000" stroke="none" 
	d="
M1061.118896,1764.987427 
	C1028.181763,1762.019653 996.965759,1756.208984 967.895142,1741.486450 
	C945.447083,1730.118042 925.396790,1715.406982 906.599182,1698.899048 
	C832.970886,1634.238037 784.761719,1554.355957 763.147461,1458.624146 
	C762.048096,1453.754883 761.015381,1448.861206 760.214294,1443.936157 
	C758.890015,1435.794556 757.779968,1427.618286 756.445984,1418.547852 
	C758.065430,1420.093140 759.194336,1420.854004 759.909424,1421.898315 
	C788.528442,1463.694824 827.356384,1493.439941 872.144348,1515.718506 
	C922.172974,1540.603638 975.027832,1557.351196 1029.827026,1568.052979 
	C1032.755005,1568.624878 1035.690674,1569.158447 1039.906982,1569.951416 
	C1040.783447,1556.853516 1039.981445,1544.127319 1040.306763,1531.097168 
	C1023.136230,1526.676025 1006.395447,1522.708740 989.852661,1518.040039 
	C945.341064,1505.477661 901.048523,1492.219238 859.241028,1471.981689 
	C826.387878,1456.078857 795.640320,1437.009644 769.422791,1411.289062 
	C753.676331,1395.841064 753.515320,1395.785889 753.119568,1374.183594 
	C751.645325,1293.715820 771.179260,1218.623413 810.717896,1148.555054 
	C814.078674,1142.599121 818.401123,1140.470703 824.213501,1140.454346 
	C840.849426,1140.407593 857.630737,1139.429077 874.096680,1141.207764 
	C929.080383,1147.147217 979.869019,1166.818359 1029.175415,1190.838135 
	C1032.364746,1192.391846 1035.610718,1193.829102 1039.483398,1195.622925 
	C1039.483398,1184.666016 1039.483398,1174.759521 1039.483398,1164.786743 
	C1039.110718,1164.338867 1038.791260,1163.624634 1038.249023,1163.350342 
	C994.788269,1141.351318 950.193726,1122.515259 901.972290,1113.415161 
	C880.088257,1109.285278 858.374207,1108.142822 836.625732,1113.884277 
	C835.707458,1114.126587 834.669373,1113.915039 832.774414,1113.915039 
	C834.284790,1111.407227 835.370300,1109.216675 836.802368,1107.282715 
	C894.169861,1029.817749 968.928162,976.786804 1060.982910,948.298035 
	C1075.459229,943.817871 1090.724487,944.927734 1105.618042,945.131531 
	C1197.190430,946.384338 1277.134277,979.136597 1347.460815,1036.481567 
	C1417.961670,1093.968506 1469.872437,1165.793579 1507.885254,1248.019897 
	C1520.333618,1274.947632 1530.044312,1302.841309 1536.920166,1332.378296 
	C1525.928345,1339.116333 1513.702271,1341.936768 1501.335938,1343.950317 
	C1467.519043,1349.456299 1434.192505,1345.660889 1401.408203,1336.997559 
	C1384.725220,1332.589111 1368.467529,1326.564697 1352.039307,1321.204224 
	C1348.320679,1319.990967 1344.692261,1318.501343 1340.869629,1317.082031 
	C1337.315918,1324.801636 1334.000000,1332.005127 1330.462402,1339.689697 
	C1335.436157,1346.009644 1340.574951,1352.923828 1346.189453,1359.427002 
	C1347.764038,1361.250854 1350.621948,1362.282349 1353.088257,1362.973755 
	C1395.817749,1374.951904 1438.931274,1384.768066 1483.641724,1384.919922 
	C1501.892822,1384.981934 1519.318726,1381.124390 1535.763916,1373.082642 
	C1538.127563,1371.926758 1540.519897,1370.829102 1543.732910,1369.310303 
	C1550.239746,1399.836792 1552.816895,1430.120239 1552.916870,1461.021240 
	C1493.923218,1488.895386 1432.264893,1507.283691 1368.974365,1521.563354 
	C1368.974365,1531.927490 1368.974365,1541.746338 1368.974365,1552.807983 
	C1431.615601,1538.261353 1492.748169,1521.869629 1552.267090,1494.390015 
	C1550.574341,1507.523560 1549.430542,1519.284790 1547.455566,1530.904785 
	C1545.505615,1542.377686 1542.373413,1553.650024 1540.430176,1565.124023 
	C1539.369019,1571.389648 1536.192871,1575.095825 1530.844971,1578.008789 
	C1505.129761,1592.015747 1479.600342,1606.364502 1453.864868,1620.334106 
	C1414.973877,1641.444824 1376.127075,1662.646729 1336.959229,1683.234863 
	C1304.586182,1700.251587 1272.327759,1717.656860 1239.034790,1732.714844 
	C1182.923828,1758.092896 1123.727539,1769.040039 1061.118896,1764.987427 
M1071.293823,1680.840210 
	C1073.943359,1689.561157 1080.128052,1692.349121 1088.835693,1692.316895 
	C1132.488770,1692.155762 1176.143066,1692.376465 1219.796387,1692.250488 
	C1245.807007,1692.175415 1269.529907,1684.338989 1291.300049,1670.247314 
	C1310.909546,1657.554077 1324.024536,1639.821533 1329.816895,1617.433960 
	C1333.208496,1604.325439 1335.565430,1590.593140 1335.816650,1577.093506 
	C1336.634888,1533.122925 1336.410400,1489.129761 1336.250854,1445.146484 
	C1336.215942,1435.527588 1335.404053,1425.815552 1333.888794,1416.315674 
	C1329.062378,1386.054565 1313.270386,1363.411011 1285.784790,1349.268433 
	C1283.605103,1348.147095 1281.555298,1346.773193 1278.890747,1345.186646 
	C1295.342651,1332.843262 1306.538330,1317.692383 1310.932983,1298.493286 
	C1313.589478,1286.887939 1315.501343,1274.873535 1315.747925,1263.001343 
	C1316.398315,1231.690796 1316.332520,1200.350952 1315.769409,1169.036743 
	C1315.536987,1156.114380 1314.363281,1143.010864 1311.774658,1130.367310 
	C1304.930298,1096.937744 1284.953491,1074.584351 1252.305420,1063.979126 
	C1238.895386,1059.623047 1225.078369,1057.862427 1210.985718,1057.882324 
	C1171.997070,1057.937622 1133.008545,1057.895996 1094.019897,1057.894653 
	C1073.218384,1057.893799 1070.435059,1060.661377 1070.434692,1081.411133 
	C1070.432251,1277.020630 1070.431274,1472.630249 1070.448364,1668.239746 
	C1070.448730,1671.897583 1070.675537,1675.555420 1071.293823,1680.840210 
z"/>
<path fill="#FCFCFC" opacity="1.000000" stroke="none" 
	d="
M506.142670,510.000000 
	C506.870697,651.958984 507.598694,792.917969 508.326721,933.876953 
	C508.342224,936.876099 508.198822,939.886292 508.407104,942.872009 
	C508.842133,949.107910 506.102631,952.639343 500.169891,954.755554 
	C482.951111,960.897400 465.917694,967.557434 448.724884,973.774536 
	C441.721497,976.307007 435.930725,972.674988 434.834106,965.392639 
	C434.440979,962.781982 434.683014,960.071472 434.682953,957.406494 
	C434.678467,765.459351 434.676910,573.512207 434.682556,381.565063 
	C434.682983,367.718811 434.852051,367.000183 448.235168,361.987976 
	C472.513702,352.895264 496.914124,344.121948 521.347900,335.452606 
	C532.788086,331.393463 535.876038,332.916351 540.345581,344.173828 
	C578.155640,439.406647 616.025513,534.615967 653.647400,629.923157 
	C673.923950,681.289551 693.750122,732.833740 713.780396,784.297363 
	C714.707703,786.679871 715.644287,789.058777 718.080627,791.416565 
	C718.249390,790.096619 718.580139,788.774719 718.563843,787.457092 
	C716.927856,655.507751 715.271973,523.558655 713.600891,391.609772 
	C713.195801,359.621490 712.700623,327.634369 712.317322,295.645844 
	C712.167908,283.183197 712.740601,282.376007 724.995544,279.510284 
	C741.187439,275.723938 757.433594,272.168243 773.672058,268.584076 
	C775.937439,268.084076 778.289368,267.768494 780.605164,267.744751 
	C787.059265,267.678650 789.542419,269.903259 790.387451,276.482361 
	C790.682861,278.782196 790.588928,281.138428 790.589050,283.468903 
	C790.596680,476.415771 790.599854,669.362671 790.587952,862.309509 
	C790.587158,875.417419 789.389526,876.764526 776.489624,879.531372 
	C750.470276,885.111938 724.453247,890.704041 698.450012,896.359375 
	C684.675598,899.355164 684.081055,899.125183 679.142761,886.560181 
	C648.721008,809.153931 618.231201,731.774353 587.913513,654.327393 
	C562.325745,588.963257 536.945679,523.517761 511.451324,458.117065 
	C510.187744,454.875671 508.710815,451.717407 506.142639,448.793823 
	C506.142639,468.862549 506.142639,488.931274 506.142670,510.000000 
z"/>
<path fill="#FCFDFD" opacity="1.000000" stroke="none" 
	d="
M1881.499512,744.675049 
	C1866.153442,718.564819 1846.843628,696.466125 1826.311768,675.521179 
	C1788.523682,636.972656 1750.064453,599.083191 1712.074951,560.730774 
	C1693.533447,542.012085 1676.124390,522.289795 1661.355591,500.358643 
	C1631.574219,456.134155 1623.071167,407.962158 1635.686035,356.388184 
	C1645.469116,316.391846 1671.022705,294.819031 1711.816650,289.477997 
	C1735.024902,286.439453 1757.727783,289.527649 1780.228760,294.351959 
	C1811.573608,301.072388 1841.720947,311.509369 1870.186890,326.400940 
	C1888.870483,336.175049 1906.062378,348.081146 1921.000732,363.121765 
	C1946.461670,388.757294 1960.823364,419.849823 1963.584961,455.518494 
	C1965.690063,482.708527 1965.256348,510.109100 1965.524780,537.420166 
	C1965.625366,547.650452 1959.360229,551.483215 1949.706909,548.092041 
	C1932.769409,542.142090 1915.829712,536.198730 1898.892456,530.248108 
	C1890.879883,527.433105 1889.698975,525.992981 1889.640137,517.145020 
	C1889.520386,499.150391 1889.840576,481.149811 1889.496704,463.160858 
	C1889.306152,453.189362 1888.846924,443.123291 1887.271484,433.298218 
	C1883.732178,411.225647 1872.633911,393.218201 1854.412231,380.395020 
	C1824.235840,359.158936 1790.430908,347.939056 1753.462891,347.604156 
	C1729.492798,347.387024 1716.220581,358.636627 1712.107300,382.377197 
	C1706.088745,417.113129 1709.789673,450.407684 1731.540283,479.440857 
	C1746.097046,498.871338 1761.178955,518.059753 1777.591431,535.917603 
	C1813.214111,574.677490 1850.190063,612.192261 1885.905396,650.869263 
	C1903.053345,669.439148 1919.342163,688.922180 1934.675415,709.017700 
	C1954.079712,734.448486 1967.693115,762.913818 1972.880127,794.845154 
	C1977.295532,822.025818 1977.728882,849.282166 1972.129150,876.332092 
	C1963.880005,916.179626 1936.950562,939.335693 1896.217163,941.967651 
	C1869.737427,943.678650 1843.648682,940.611511 1817.974121,934.227478 
	C1779.781616,924.730835 1742.615112,912.291931 1707.833496,893.581055 
	C1681.213501,879.260620 1657.028076,861.757263 1638.261719,837.629456 
	C1619.671753,813.728638 1609.604858,786.817810 1609.709839,756.307434 
	C1609.799194,730.314392 1609.716309,704.320740 1609.722900,678.327393 
	C1609.723389,676.329712 1609.614868,674.298157 1609.923950,672.340332 
	C1611.139160,664.643860 1615.374390,661.738159 1623.250610,663.335327 
	C1641.182617,666.971497 1659.104980,670.657959 1677.003296,674.456482 
	C1686.629272,676.499390 1687.857178,678.018555 1687.916870,687.896790 
	C1688.055908,710.890137 1687.848633,733.887878 1688.243042,756.875977 
	C1688.390991,765.499207 1689.249390,774.202576 1690.775879,782.691040 
	C1694.289062,802.228577 1705.072876,817.555298 1719.927856,830.273071 
	C1734.229980,842.517761 1750.364868,851.789429 1767.669434,858.956482 
	C1794.512817,870.074219 1821.884277,879.334961 1851.356079,880.196411 
	C1853.021362,880.245117 1854.687866,880.288086 1856.353516,880.277893 
	C1881.165161,880.125793 1893.747681,870.254944 1897.600708,845.948425 
	C1903.163818,810.853516 1899.833496,776.868286 1881.499512,744.675049 
z"/>
<path fill="#FDFDFD" opacity="1.000000" stroke="none" 
	d="
M855.261047,775.999512 
	C855.261047,607.009521 855.260559,439.019531 855.262024,271.029572 
	C855.262146,254.391022 855.284119,254.488083 872.018311,251.680588 
	C947.332031,239.045258 1023.106934,230.734497 1099.414551,227.511505 
	C1121.386475,226.583466 1143.376587,226.042694 1165.362549,225.502243 
	C1177.052612,225.214874 1179.909058,228.248886 1179.955444,240.248413 
	C1179.992798,249.914352 1180.068359,259.582153 1179.927368,269.246185 
	C1179.790771,278.611786 1176.797729,281.480591 1167.209351,281.761230 
	C1142.227295,282.492462 1117.229858,282.863342 1092.264282,283.963013 
	C1043.317017,286.119019 994.561279,290.557068 946.031494,297.369263 
	C942.426636,297.875305 938.801636,298.238525 935.298523,298.654755 
	C933.297974,305.880402 932.638489,490.209900 934.564514,505.857758 
	C947.995056,504.324646 961.438171,502.760101 974.888489,501.260040 
	C1024.258911,495.753906 1073.762207,492.231903 1123.444824,491.492218 
	C1132.432739,491.358429 1134.687012,493.360046 1134.955322,502.456329 
	C1135.269897,513.113220 1135.161133,523.787964 1135.007568,534.451660 
	C1134.866333,544.266602 1133.063843,545.969055 1123.281250,546.469910 
	C1103.647827,547.475281 1083.972778,547.976624 1064.389526,549.590759 
	C1021.251831,553.146484 978.160583,557.263855 934.421021,561.208801 
	C934.421021,639.937805 934.421021,717.408630 934.421021,795.790344 
	C937.303223,795.605835 940.463379,795.509521 943.600342,795.186584 
	C979.047913,791.537476 1014.428467,786.968994 1049.954224,784.421387 
	C1087.493408,781.729370 1125.167114,780.881470 1162.788208,779.380371 
	C1175.868164,778.858459 1178.633911,781.723145 1178.734985,794.976318 
	C1178.808716,804.641785 1178.901245,814.311646 1178.699341,823.973572 
	C1178.496338,833.685669 1175.883423,836.258972 1166.005005,836.650940 
	C1139.033936,837.721008 1112.000732,837.888794 1085.097900,839.859131 
	C1040.261108,843.143188 995.461548,847.109375 950.734680,851.657043 
	C924.252869,854.349609 897.945190,858.743164 871.550232,862.305054 
	C858.804810,864.025024 855.316650,860.973145 855.280090,847.995300 
	C855.213440,824.330200 855.261108,800.664795 855.261047,775.999512 
z"/>
<path fill="#FCFCFC" opacity="1.000000" stroke="none" 
	d="
M1443.487549,236.404968 
	C1473.431274,240.312759 1502.507080,243.890045 1531.501221,248.037537 
	C1551.918945,250.958221 1572.244385,254.545990 1592.573486,258.054596 
	C1601.118530,259.529388 1604.673950,263.714447 1604.869995,272.348877 
	C1605.104370,282.672455 1605.105103,293.009552 1604.872925,303.333252 
	C1604.629517,314.158813 1600.349243,317.429932 1589.401978,315.562653 
	C1568.737915,312.038086 1548.140869,308.070404 1527.409912,305.003204 
	C1502.727905,301.351379 1477.934326,298.453094 1451.860229,295.055145 
	C1451.860229,299.883240 1451.860229,303.769470 1451.860229,307.655731 
	C1451.860229,481.914734 1451.860352,656.173767 1451.859985,830.432739 
	C1451.859985,833.098267 1452.013672,835.775635 1451.817871,838.427002 
	C1451.279297,845.715942 1446.424683,849.777710 1439.191650,849.097412 
	C1420.960693,847.382690 1402.730469,845.660828 1384.503174,843.908081 
	C1375.465942,843.039062 1372.486938,839.743225 1372.231445,830.399414 
	C1372.158569,827.735840 1372.217285,825.068604 1372.217285,822.403076 
	C1372.217163,648.144104 1372.217163,473.885101 1372.217163,299.626129 
	C1372.217163,295.992584 1372.217163,292.359039 1372.217163,288.021637 
	C1368.638428,287.519379 1365.475464,286.799744 1362.288208,286.669830 
	C1321.020996,284.987549 1279.750610,283.386536 1238.480469,281.777039 
	C1236.483887,281.699158 1234.461792,281.912811 1232.487671,281.682007 
	C1225.874878,280.908905 1221.908569,277.323853 1221.715576,270.785248 
	C1221.342285,258.134644 1221.323242,245.463608 1221.566528,232.808899 
	C1221.692383,226.260757 1224.660278,223.845947 1232.172363,224.042084 
	C1262.476929,224.833328 1292.806152,225.273453 1323.068970,226.906113 
	C1354.654175,228.610107 1386.176147,231.502121 1417.719727,233.950958 
	C1426.019287,234.595291 1434.296875,235.521423 1443.487549,236.404968 
z"/>
<path fill="#FBFCFC" opacity="1.000000" stroke="none" 
	d="
M1217.245850,930.928223 
	C1282.925415,934.783813 1344.021240,951.753418 1401.202759,982.330383 
	C1470.236450,1019.245178 1526.513794,1070.448853 1567.161255,1137.325806 
	C1592.682251,1179.315552 1600.762573,1225.320801 1585.985840,1273.584595 
	C1581.577881,1287.981445 1574.296509,1300.985718 1563.566772,1314.282959 
	C1562.057251,1309.709961 1560.982910,1306.472900 1559.919800,1303.232056 
	C1534.955444,1227.132812 1497.786377,1157.695435 1446.257812,1096.221924 
	C1399.891968,1040.907593 1345.419434,995.757263 1279.576050,965.162964 
	C1242.549805,947.958679 1203.819214,936.846375 1163.043701,932.397522 
	C1180.725098,929.502869 1198.511353,929.996399 1217.245850,930.928223 
z"/>
<path fill="#FAFBFB" opacity="1.000000" stroke="none" 
	d="
M1076.092407,1784.028931 
	C1095.718506,1784.340454 1115.412109,1785.834351 1134.956421,1784.715698 
	C1174.758179,1782.437744 1213.030029,1772.161987 1250.500977,1759.017456 
	C1308.216797,1738.771118 1361.970215,1710.345459 1413.931030,1678.430542 
	C1449.366089,1656.666016 1484.424805,1634.288818 1519.670532,1612.215210 
	C1521.277466,1611.208862 1523.068481,1610.496338 1526.192383,1608.940430 
	C1525.567383,1612.322266 1525.544556,1614.512573 1524.760620,1616.384277 
	C1505.884888,1661.453125 1477.628174,1699.609131 1440.078613,1730.870361 
	C1438.040039,1732.567383 1435.819824,1734.070312 1433.576538,1735.493652 
	C1377.676147,1770.961792 1317.026733,1793.550293 1251.253296,1801.568115 
	C1188.332397,1809.237915 1126.335693,1804.231079 1065.399170,1785.340454 
	C1068.886597,1784.456299 1072.489502,1784.242554 1076.092407,1784.028931 
z"/>
<path fill="#F9FAFA" opacity="1.000000" stroke="none" 
	d="
M1572.093750,1348.987183 
	C1573.463501,1346.718872 1574.661377,1345.134277 1576.063965,1343.758057 
	C1598.898438,1321.349976 1612.917603,1294.381470 1618.066895,1262.800537 
	C1618.211304,1261.914062 1618.571411,1261.062622 1619.184937,1259.011841 
	C1620.281616,1261.376465 1621.182495,1262.727783 1621.556519,1264.211914 
	C1629.718140,1296.606567 1634.670654,1329.447754 1634.661133,1362.913086 
	C1634.659912,1367.471680 1633.846802,1372.210449 1632.452515,1376.558960 
	C1623.666504,1403.961914 1607.630371,1426.239014 1583.239746,1444.979370 
	C1582.760010,1411.780518 1579.472046,1380.498413 1572.093750,1348.987183 
z"/>
<path fill="#F7F7F7" opacity="1.000000" stroke="none" 
	d="
M1631.439575,1429.916504 
	C1624.954224,1476.676147 1611.046997,1521.084351 1589.038208,1564.104370 
	C1583.656250,1556.509277 1576.336792,1556.386230 1567.684448,1558.422485 
	C1568.468140,1554.965454 1568.930664,1552.548950 1569.566284,1550.178711 
	C1575.420654,1528.345215 1580.282959,1506.316895 1582.191406,1483.744263 
	C1582.583740,1479.102905 1584.412109,1476.101562 1588.252563,1473.154053 
	C1603.588867,1461.383179 1617.922241,1448.526855 1628.584961,1430.660889 
	C1630.331055,1430.041870 1630.885376,1429.979126 1631.439575,1429.916504 
z"/>
<path fill="#EDEFEF" opacity="1.000000" stroke="none" 
	d="
M1525.791382,1649.796265 
	C1535.512207,1630.212524 1545.705078,1610.843384 1554.752441,1590.953369 
	C1559.201904,1581.171509 1566.406616,1577.523926 1575.488037,1575.816528 
	C1579.665649,1580.620728 1576.663940,1583.877686 1574.706787,1587.247314 
	C1561.492676,1609.998413 1546.289185,1631.316406 1527.844238,1651.219238 
	C1526.544556,1650.916138 1526.167969,1650.356201 1525.791382,1649.796265 
z"/>
<path fill="#9CBBBB" opacity="1.000000" stroke="none" 
	d="
M1075.361572,1783.713379 
	C1072.489502,1784.242554 1068.886597,1784.456299 1064.656982,1785.096924 
	C1061.867065,1785.027100 1059.703857,1784.530273 1057.116699,1783.410889 
	C1057.230347,1782.399048 1057.745117,1781.981567 1058.237061,1781.535889 
	C1063.701660,1782.156494 1069.166138,1782.777100 1075.361572,1783.713379 
z"/>
<path fill="#A2A1A1" opacity="1.000000" stroke="none" 
	d="
M1525.217041,1650.113281 
	C1526.167969,1650.356201 1526.544556,1650.916138 1527.378296,1651.694458 
	C1525.225098,1655.135498 1522.614624,1658.358276 1520.004272,1661.580933 
	C1519.489014,1661.259155 1518.973755,1660.937378 1518.458496,1660.615601 
	C1520.519897,1657.220459 1522.581299,1653.825439 1525.217041,1650.113281 
z"/>
<path fill="#506262" opacity="1.000000" stroke="none" 
	d="
M1057.706543,1781.108276 
	C1057.745117,1781.981567 1057.230347,1782.399048 1056.459595,1783.226807 
	C1053.970581,1782.916260 1051.714722,1782.166870 1049.458862,1781.417480 
	C1049.597290,1780.899048 1049.735718,1780.380615 1049.874023,1779.862183 
	C1052.308105,1780.135010 1054.742188,1780.407837 1057.706543,1781.108276 
z"/>
<path fill="#A5AAAA" opacity="1.000000" stroke="none" 
	d="
M1631.746826,1429.428711 
	C1630.885376,1429.979126 1630.331055,1430.041870 1628.939941,1430.084717 
	C1628.906860,1427.983643 1629.710327,1425.902344 1631.312012,1421.753296 
	C1631.706299,1425.572388 1631.880127,1427.256592 1631.746826,1429.428711 
z"/>
<path fill="#030202" opacity="1.000000" stroke="none" 
	d="
M1071.045166,1680.026733 
	C1070.675537,1675.555420 1070.448730,1671.897583 1070.448364,1668.239746 
	C1070.431274,1472.630249 1070.432251,1277.020630 1070.434692,1081.411133 
	C1070.435059,1060.661377 1073.218384,1057.893799 1094.019897,1057.894653 
	C1133.008545,1057.895996 1171.997070,1057.937622 1210.985718,1057.882324 
	C1225.078369,1057.862427 1238.895386,1059.623047 1252.305420,1063.979126 
	C1284.953491,1074.584351 1304.930298,1096.937744 1311.774658,1130.367310 
	C1314.363281,1143.010864 1315.536987,1156.114380 1315.769409,1169.036743 
	C1316.332520,1200.350952 1316.398315,1231.690796 1315.747925,1263.001343 
	C1315.501343,1274.873535 1313.589478,1286.887939 1310.932983,1298.493286 
	C1306.538330,1317.692383 1295.342651,1332.843262 1278.890747,1345.186646 
	C1281.555298,1346.773193 1283.605103,1348.147095 1285.784790,1349.268433 
	C1313.270386,1363.411011 1329.062378,1386.054565 1333.888794,1416.315674 
	C1335.404053,1425.815552 1336.215942,1435.527588 1336.250854,1445.146484 
	C1336.410400,1489.129761 1336.634888,1533.122925 1335.816650,1577.093506 
	C1335.565430,1590.593140 1333.208496,1604.325439 1329.816895,1617.433960 
	C1324.024536,1639.821533 1310.909546,1657.554077 1291.300049,1670.247314 
	C1269.529907,1684.338989 1245.807007,1692.175415 1219.796387,1692.250488 
	C1176.143066,1692.376465 1132.488770,1692.155762 1088.835693,1692.316895 
	C1080.128052,1692.349121 1073.943359,1689.561157 1071.045166,1680.026733 
M1175.022705,1625.655884 
	C1182.683838,1625.654297 1190.375610,1626.087402 1197.998657,1625.547241 
	C1208.929321,1624.772705 1219.968018,1624.078125 1230.677368,1621.934937 
	C1250.484497,1617.971069 1261.265015,1605.908081 1263.852661,1585.842163 
	C1264.914307,1577.609253 1265.441406,1569.253784 1265.473511,1560.951172 
	C1265.601074,1527.976318 1265.529053,1494.999756 1265.312744,1462.025391 
	C1265.262573,1454.385742 1264.752075,1446.699463 1263.764771,1439.124390 
	C1260.043457,1410.569458 1244.901733,1394.185059 1216.677734,1388.343262 
	C1208.226318,1386.593872 1199.582886,1385.179321 1190.982422,1384.872437 
	C1175.465576,1384.318848 1159.914795,1384.715942 1143.636841,1384.715942 
	C1143.484985,1388.160156 1143.218750,1391.398682 1143.217651,1394.637207 
	C1143.193970,1466.917847 1143.199707,1539.198486 1143.199829,1611.479126 
	C1143.199829,1612.811523 1143.164795,1614.145142 1143.210205,1615.475952 
	C1143.500000,1623.982178 1144.805542,1625.427246 1153.053589,1625.620972 
	C1159.711792,1625.777466 1166.376465,1625.654663 1175.022705,1625.655884 
M1159.225464,1122.206055 
	C1153.739746,1122.399048 1148.254150,1122.591919 1142.875977,1122.781128 
	C1142.409424,1125.525146 1141.997192,1126.820190 1141.996704,1128.115479 
	C1141.975952,1189.726807 1141.988037,1251.338257 1142.025513,1312.949585 
	C1142.026123,1313.922241 1142.354126,1314.903809 1142.603760,1315.861816 
	C1142.678345,1316.148193 1142.995361,1316.379150 1143.221313,1316.616333 
	C1143.450806,1316.857178 1143.705078,1317.074341 1145.459961,1318.714844 
	C1161.879272,1317.834473 1180.060425,1318.538086 1197.604370,1315.527710 
	C1224.270630,1310.952393 1238.536377,1296.997192 1243.538086,1272.105713 
	C1244.972046,1264.969238 1245.569946,1257.564453 1245.643921,1250.273438 
	C1245.893555,1225.631348 1246.106079,1200.976685 1245.552002,1176.344360 
	C1245.329346,1166.447144 1243.525391,1156.509155 1241.629395,1146.747437 
	C1239.787109,1137.263306 1234.068359,1130.582397 1224.381958,1127.963623 
	C1218.938232,1126.492188 1213.516968,1124.263306 1207.987671,1123.910767 
	C1192.408081,1122.917358 1176.777710,1122.718262 1159.225464,1122.206055 
z"/>
<path fill="#FDFDFD" opacity="1.000000" stroke="none" 
	d="
M1174.030518,1625.655884 
	C1166.376465,1625.654663 1159.711792,1625.777466 1153.053589,1625.620972 
	C1144.805542,1625.427246 1143.500000,1623.982178 1143.210205,1615.475952 
	C1143.164795,1614.145142 1143.199829,1612.811523 1143.199829,1611.479126 
	C1143.199707,1539.198486 1143.193970,1466.917847 1143.217651,1394.637207 
	C1143.218750,1391.398682 1143.484985,1388.160156 1143.636841,1384.715942 
	C1159.914795,1384.715942 1175.465576,1384.318848 1190.982422,1384.872437 
	C1199.582886,1385.179321 1208.226318,1386.593872 1216.677734,1388.343262 
	C1244.901733,1394.185059 1260.043457,1410.569458 1263.764771,1439.124390 
	C1264.752075,1446.699463 1265.262573,1454.385742 1265.312744,1462.025391 
	C1265.529053,1494.999756 1265.601074,1527.976318 1265.473511,1560.951172 
	C1265.441406,1569.253784 1264.914307,1577.609253 1263.852661,1585.842163 
	C1261.265015,1605.908081 1250.484497,1617.971069 1230.677368,1621.934937 
	C1219.968018,1624.078125 1208.929321,1624.772705 1197.998657,1625.547241 
	C1190.375610,1626.087402 1182.683838,1625.654297 1174.030518,1625.655884 
z"/>
<path fill="#FDFDFD" opacity="1.000000" stroke="none" 
	d="
M1160.196411,1122.206055 
	C1176.777710,1122.718262 1192.408081,1122.917358 1207.987671,1123.910767 
	C1213.516968,1124.263306 1218.938232,1126.492188 1224.381958,1127.963623 
	C1234.068359,1130.582397 1239.787109,1137.263306 1241.629395,1146.747437 
	C1243.525391,1156.509155 1245.329346,1166.447144 1245.552002,1176.344360 
	C1246.106079,1200.976685 1245.893555,1225.631348 1245.643921,1250.273438 
	C1245.569946,1257.564453 1244.972046,1264.969238 1243.538086,1272.105713 
	C1238.536377,1296.997192 1224.270630,1310.952393 1197.604370,1315.527710 
	C1180.060425,1318.538086 1161.879272,1317.834473 1145.459961,1318.714844 
	C1143.705078,1317.074341 1143.450806,1316.857178 1143.221313,1316.616333 
	C1142.995361,1316.379150 1142.678345,1316.148193 1142.603760,1315.861816 
	C1142.354126,1314.903809 1142.026123,1313.922241 1142.025513,1312.949585 
	C1141.988037,1251.338257 1141.975952,1189.726807 1141.996704,1128.115479 
	C1141.997192,1126.820190 1142.409424,1125.525146 1142.875977,1122.781128 
	C1148.254150,1122.591919 1153.739746,1122.399048 1160.196411,1122.206055 
z"/>
</svg>