<svg version="1.1" id="Layer_1" xmlns="http://www.w3.org/2000/svg" xmlns:xlink="http://www.w3.org/1999/xlink" x="0px" y="0px"
	 width="100%" viewBox="0 0 2194 1759" enable-background="new 0 0 2194 1759" xml:space="preserve">
<path fill="#000000" opacity="1.000000" stroke="none" 
	d="
M1533.000000,1760.000000 
	C1022.000000,1760.000000 511.500000,1760.000000 1.000000,1760.000000 
	C1.000000,1173.666626 1.000000,587.333313 1.000000,1.000000 
	C732.333313,1.000000 1463.666626,1.000000 2195.000000,1.000000 
	C2195.000000,587.333313 2195.000000,1173.666626 2195.000000,1760.000000 
	C1974.500000,1760.000000 1754.000000,1760.000000 1533.000000,1760.000000 
M1300.879761,1435.419800 
	C1301.054932,1435.352173 1301.230225,1435.284546 1301.405396,1435.216919 
	C1301.276245,1435.139648 1301.147217,1435.062500 1301.082153,1434.205200 
	C1300.870972,1433.402954 1300.701538,1432.587036 1300.442749,1431.800415 
	C1285.971802,1387.827026 1276.848145,1342.737183 1273.270020,1296.617310 
	C1270.224609,1257.366211 1270.566406,1218.106812 1274.784546,1178.891846 
	C1279.158569,1138.228271 1287.419434,1098.427002 1299.918457,1059.496704 
	C1301.932861,1053.222290 1304.011353,1046.968384 1306.299683,1039.973389 
	C1304.207886,1040.826172 1302.899414,1041.388184 1301.570435,1041.897095 
	C1285.276855,1048.136597 1269.243408,1055.205200 1252.629150,1060.425293 
	C1219.462402,1070.846191 1185.620239,1076.259888 1150.767090,1070.029297 
	C1115.460938,1063.717773 1085.346924,1048.087402 1061.878174,1020.583191 
	C1057.383789,1015.315979 1053.382690,1009.627808 1048.828857,1003.711365 
	C1045.718506,1007.004272 1042.690308,1010.053833 1039.840820,1013.262146 
	C1035.088989,1018.612549 1030.820923,1024.445312 1025.704712,1029.410889 
	C996.152161,1058.094238 959.678650,1070.442627 919.471069,1072.866577 
	C877.938599,1075.370117 837.937012,1067.928833 799.437439,1052.241821 
	C798.501709,1051.860596 797.461975,1051.734375 796.397644,1051.471191 
	C840.875610,1175.221436 851.856934,1299.595215 807.471558,1425.839233 
	C810.048584,1425.243530 811.670349,1424.488525 813.297546,1423.745361 
	C825.551025,1418.148926 837.603516,1412.050049 850.094482,1407.045898 
	C909.181763,1383.374390 970.878052,1372.680420 1034.286255,1371.311890 
	C1068.307129,1370.577637 1102.129395,1373.188232 1135.744873,1378.751343 
	C1189.564453,1387.658203 1240.654419,1404.337280 1288.417358,1430.937622 
	C1292.185547,1433.036255 1296.742310,1433.719238 1300.879761,1435.419800 
M1119.485474,969.026306 
	C1135.973267,981.430786 1154.823120,987.555847 1175.142212,988.906189 
	C1217.877197,991.745972 1256.052856,979.563416 1288.076050,951.091980 
	C1313.957031,928.081665 1338.495972,903.567017 1363.827759,879.931274 
	C1374.655273,869.828674 1385.446533,859.559204 1397.191162,850.592834 
	C1426.518921,828.202820 1458.929321,814.464661 1496.886719,819.030579 
	C1527.749268,822.743042 1537.263428,835.184387 1541.594849,859.059570 
	C1544.258667,873.743042 1537.569824,883.331055 1522.893677,886.138916 
	C1519.627075,886.763916 1516.375977,887.500061 1513.087036,887.970581 
	C1507.950195,888.705566 1505.702759,891.395203 1504.939575,896.704651 
	C1502.067749,916.679688 1497.316040,936.244873 1489.780273,955.008362 
	C1481.274780,976.186340 1469.696777,995.259827 1450.655640,1008.798950 
	C1429.128540,1024.105835 1404.555664,1031.499878 1378.922363,1035.975220 
	C1372.159058,1037.156006 1365.312012,1037.857178 1357.072998,1038.972290 
	C1363.013794,1044.554565 1367.487793,1050.203125 1373.225464,1053.879517 
	C1390.567627,1064.991089 1409.629517,1068.345215 1429.683228,1063.026489 
	C1460.217041,1054.927979 1484.730713,1039.010132 1497.893311,1008.876099 
	C1502.155762,999.117859 1506.765015,989.509338 1510.937378,979.713806 
	C1523.060303,951.252258 1535.037964,922.728760 1547.094971,894.238953 
	C1547.585693,893.079590 1548.303101,892.016113 1548.945801,890.852173 
	C1560.871338,895.969482 1572.319946,901.338318 1584.097778,905.847290 
	C1614.438477,917.462891 1645.958252,924.133972 1678.297729,926.784363 
	C1700.602661,928.612427 1722.826782,928.645081 1744.832520,923.261292 
	C1786.903931,912.968567 1824.059448,893.158691 1856.860718,865.228943 
	C1866.652344,856.891602 1875.004639,846.863892 1884.810669,836.795166 
	C1760.035278,785.328613 1631.576294,759.118774 1498.200928,755.052002 
	C1497.698730,748.743103 1497.456055,742.935852 1496.743652,737.186768 
	C1491.548218,695.253479 1486.966064,653.227417 1480.798462,611.436096 
	C1474.693359,570.068787 1464.183228,529.641113 1450.659180,490.028564 
	C1449.604126,486.938019 1448.081665,486.067230 1444.965210,485.932220 
	C1419.009399,484.808197 1393.068604,483.322388 1367.109863,482.281342 
	C1321.004761,480.432343 1274.892822,478.747009 1228.778809,477.132050 
	C1198.145508,476.059326 1167.509399,474.901215 1136.864502,474.369476 
	C1096.380737,473.666992 1055.873779,472.724060 1015.401306,473.385773 
	C971.276306,474.107239 927.176270,476.469238 883.071655,478.270721 
	C863.437744,479.072723 843.814575,480.169006 824.194824,481.279388 
	C779.138611,483.829346 734.086365,486.450775 689.034973,489.085663 
	C675.737854,489.863403 662.453735,490.874207 649.152710,491.568420 
	C646.155396,491.724854 644.908020,492.940735 643.932434,495.655396 
	C630.641357,532.636353 619.331787,570.213745 610.102478,608.403137 
	C598.324951,657.137146 589.616394,706.410583 584.894043,756.351807 
	C584.602356,759.436523 583.745850,760.937744 580.175293,761.161072 
	C570.379333,761.773743 560.566528,762.567871 550.851013,763.934875 
	C510.502014,769.611816 469.999451,774.474182 429.902191,781.599121 
	C368.913879,792.436157 309.160919,808.556580 250.381927,828.140442 
	C233.886963,833.636230 217.051819,838.393738 201.448166,847.745850 
	C202.399185,849.226685 203.048767,850.763428 204.141296,851.858337 
	C215.534698,863.277405 226.148132,875.672363 238.602966,885.797668 
	C276.672699,916.747192 320.575470,933.706848 369.672577,936.006714 
	C385.582458,936.751953 401.630432,936.014465 417.542572,934.909058 
	C442.493561,933.175903 467.231842,929.253601 490.993805,921.359924 
	C508.004852,915.708923 524.494019,908.426819 541.012939,901.395264 
	C545.344604,899.551392 547.207703,900.312195 548.865967,904.304565 
	C550.778870,908.909851 553.372192,913.251953 555.057373,917.929077 
	C563.458984,941.247498 571.500671,964.696106 579.979309,987.986023 
	C587.113037,1007.581726 594.992065,1026.858643 608.955688,1042.874878 
	C624.755615,1060.997314 644.877258,1070.868896 668.731812,1070.206299 
	C694.369568,1069.494141 715.280029,1057.660400 731.510315,1037.764038 
	C732.043152,1037.110718 732.245361,1036.187622 732.083618,1036.549561 
	C715.365356,1033.371216 698.461304,1031.225220 682.162781,1026.832397 
	C650.216064,1018.221985 624.603760,1000.351929 607.790710,971.174744 
	C595.935242,950.600830 590.280762,928.115417 588.142334,904.693726 
	C587.742737,900.317383 586.264954,898.729248 582.144592,898.155762 
	C576.893372,897.424866 571.669739,896.281128 566.547974,894.894836 
	C561.213867,893.451294 557.670105,889.938782 556.107544,884.465759 
	C547.686157,854.969238 572.174561,827.001831 592.163208,822.783203 
	C603.897583,820.306641 615.338318,821.032654 626.801025,823.525879 
	C650.360718,828.650269 670.697327,840.615967 690.332886,853.963196 
	C708.793457,866.511719 723.837708,882.895020 739.779541,898.266968 
	C762.094543,919.784119 784.297363,941.470459 809.430359,959.747864 
	C839.656433,981.729309 873.232239,994.631958 910.995728,995.235901 
	C936.435425,995.642700 959.441406,988.617126 978.680237,971.581299 
	C1000.601074,952.170715 1017.133972,928.813049 1027.986816,901.533020 
	C1033.223999,888.368652 1037.042603,874.834778 1039.108765,860.003845 
	C1036.224976,860.003845 1033.771973,860.090576 1031.326538,859.989929 
	C1013.352112,859.250427 995.346741,858.918152 977.413208,857.608459 
	C947.367188,855.414368 917.334961,852.913635 887.358521,849.924011 
	C864.848145,847.678955 842.426880,844.523315 819.987671,841.605957 
	C817.255859,841.250854 814.437683,840.240601 812.047119,838.861877 
	C807.522583,836.252319 807.004761,831.233582 811.194153,828.207947 
	C813.559937,826.499329 817.064209,825.188843 819.877441,825.471680 
	C836.427185,827.135620 852.898621,829.572449 869.445251,831.274170 
	C896.431519,834.049500 923.439270,836.649353 950.469116,838.958008 
	C968.714294,840.516418 987.000183,841.736816 1005.292603,842.556152 
	C1017.374451,843.097290 1029.500122,842.658630 1042.424316,842.658630 
	C1042.424316,826.183899 1042.424316,809.146545 1042.424316,791.936096 
	C1040.084106,791.719849 1037.606567,791.332153 1035.122437,791.285156 
	C994.966248,790.524231 954.908875,788.007568 915.075134,782.970520 
	C882.077942,778.797974 849.203003,773.642517 816.312317,768.668396 
	C813.213562,768.199829 810.081482,766.315796 807.518677,764.362366 
	C804.469055,762.037842 803.275879,757.924438 805.534607,755.013123 
	C807.200012,752.866455 811.248108,751.091736 813.933716,751.444214 
	C837.678711,754.560242 861.303162,758.621948 885.068726,761.546753 
	C909.509094,764.554626 934.049927,766.799438 958.580688,769.000977 
	C975.989380,770.563477 993.441528,771.758728 1010.898865,772.619202 
	C1021.501343,773.141846 1032.150513,772.715515 1043.729980,772.715515 
	C1043.729980,753.182678 1043.729980,732.802368 1043.729980,711.200562 
	C1035.265869,711.200562 1026.452759,711.561279 1017.678162,711.133179 
	C990.901550,709.826904 964.065552,709.011047 937.390930,706.522644 
	C904.437134,703.448486 871.611816,698.970703 838.755005,694.904663 
	C831.014954,693.946777 823.279358,692.580139 815.714844,690.703735 
	C810.439941,689.395264 808.038940,685.463257 808.880615,681.698181 
	C809.685913,678.096375 813.918518,675.877502 819.014343,676.486816 
	C835.041077,678.403381 851.036865,680.622437 867.093994,682.231934 
	C894.749146,685.004028 922.415161,687.750977 950.126343,689.854797 
	C973.368164,691.619324 996.675659,692.560608 1019.964661,693.637451 
	C1028.040894,694.010864 1036.148804,693.696838 1044.705200,693.696838 
	C1044.705200,691.634827 1044.705078,689.834473 1044.705200,688.034180 
	C1044.705933,673.701172 1044.651489,659.367737 1044.753418,645.035400 
	C1044.774414,642.072510 1044.682739,638.776245 1045.909668,636.248413 
	C1047.123901,633.746643 1049.695312,630.703857 1052.108887,630.255920 
	C1056.049805,629.524597 1057.500244,633.367493 1058.188599,636.772339 
	C1058.646606,639.037598 1058.926636,641.377380 1058.944214,643.686462 
	C1059.022827,654.018982 1058.978760,664.352478 1058.979004,674.685608 
	C1058.979004,680.640930 1058.979004,686.596191 1058.979004,693.011353 
	C1060.770142,693.011353 1062.057739,693.073608 1063.338013,693.002197 
	C1091.766235,691.416382 1120.286255,690.760010 1148.598999,687.988281 
	C1187.328613,684.196838 1225.897461,678.767578 1264.544434,674.116821 
	C1269.645020,673.503052 1274.859131,672.741882 1279.902588,673.241272 
	C1282.133545,673.462158 1285.235229,676.367554 1285.790771,678.591614 
	C1286.281982,680.557983 1284.159790,683.594910 1282.470215,685.529419 
	C1281.480225,686.663025 1279.102173,686.701599 1277.309814,686.999573 
	C1254.504028,690.790100 1231.788574,695.344482 1208.858154,698.115479 
	C1170.873047,702.705933 1132.759888,706.259949 1094.675415,709.992310 
	C1082.964478,711.139954 1071.170776,711.445068 1059.348755,712.139954 
	C1059.348755,732.918823 1059.348755,753.296753 1059.348755,773.927368 
	C1060.698853,773.927368 1061.681519,773.968018 1062.660034,773.921570 
	C1095.596802,772.358337 1128.544434,770.988770 1161.466797,769.163330 
	C1199.402466,767.059998 1237.004150,762.297852 1274.186279,754.273254 
	C1279.051025,753.223328 1284.518311,753.289612 1289.382080,754.340576 
	C1295.326660,755.625000 1296.339111,761.682983 1291.258911,765.159851 
	C1287.829590,767.506958 1283.501099,769.087952 1279.368896,769.777832 
	C1217.426636,780.120544 1155.131104,787.317810 1092.369263,790.204224 
	C1081.745728,790.692810 1071.125122,791.245300 1060.905273,791.748474 
	C1060.905273,809.269104 1060.905273,826.323181 1060.905273,842.692322 
	C1071.577148,842.692322 1081.404419,843.234253 1091.154175,842.594849 
	C1126.038696,840.307251 1160.939087,838.085083 1195.751953,834.935425 
	C1223.747070,832.402588 1251.618408,828.514526 1279.557495,825.341187 
	C1285.955811,824.614563 1292.426025,823.887695 1298.823364,824.145142 
	C1300.910034,824.229248 1304.057251,827.161072 1304.556152,829.295959 
	C1305.055542,831.433105 1303.535034,835.193726 1301.679810,836.471924 
	C1298.536499,838.637451 1294.528442,840.175659 1290.719238,840.647156 
	C1261.653687,844.244568 1232.594482,848.004944 1203.443848,850.774292 
	C1165.499146,854.379028 1127.475708,857.161499 1089.477783,860.193848 
	C1081.231689,860.851807 1072.950439,861.068970 1064.412354,861.503052 
	C1067.354980,873.234314 1070.164673,884.665405 1073.093262,896.065979 
	C1080.567505,925.161804 1094.984863,949.889954 1119.485474,969.026306 
M1024.570557,1384.059814 
	C1015.768799,1384.661011 1006.962158,1385.199585 998.166077,1385.874878 
	C966.555298,1388.302124 935.472961,1393.844849 904.894348,1402.141479 
	C854.212769,1415.892334 806.706848,1436.614502 763.403015,1466.635986 
	C759.159302,1469.578003 757.474487,1472.535156 758.087341,1477.586792 
	C760.830933,1500.201538 762.297607,1523.023926 766.146179,1545.441650 
	C776.379395,1605.049072 799.529907,1658.899048 840.511536,1704.223267 
	C842.430542,1706.345703 844.992554,1708.228882 847.629578,1709.309204 
	C902.344543,1731.724487 959.608154,1741.843628 1018.422302,1743.926636 
	C1054.935059,1745.219604 1091.324585,1743.446411 1127.531616,1738.131958 
	C1167.834351,1732.216309 1207.190308,1722.723389 1245.216309,1708.006348 
	C1247.276733,1707.208740 1249.424194,1705.861816 1250.797119,1704.173706 
	C1301.027466,1642.406250 1331.022583,1572.084351 1340.389893,1492.920776 
	C1341.132202,1486.648193 1339.607422,1483.268677 1334.745117,1479.765259 
	C1282.640503,1442.222778 1226.166260,1413.834351 1163.727905,1398.016357 
	C1118.389648,1386.530518 1072.222412,1382.659180 1024.570557,1384.059814 
M1722.131958,713.667542 
	C1769.414429,700.541748 1814.442871,682.136230 1856.698486,656.999512 
	C1907.170654,626.974854 1944.804199,585.545288 1968.611084,531.821594 
	C1993.945679,474.650604 1998.373901,415.037201 1988.748291,353.846283 
	C1988.061401,349.479919 1986.197998,346.777496 1982.302124,344.740417 
	C1978.647461,342.829468 1975.415283,340.101379 1972.028564,337.688751 
	C1963.904663,331.901093 1955.795532,326.092834 1947.688477,320.281586 
	C1944.891846,318.276947 1942.381592,318.135895 1939.130859,319.970978 
	C1921.486206,329.931519 1903.667725,339.583984 1885.963013,349.439270 
	C1884.764160,350.106537 1883.862671,351.471222 1883.065918,352.672699 
	C1872.040527,369.298798 1861.586792,386.332977 1849.959839,402.525360 
	C1821.464233,442.209808 1782.553101,466.915863 1735.873291,480.068909 
	C1698.353149,490.641083 1659.888062,493.796387 1621.193481,493.575806 
	C1578.723999,493.333771 1536.262939,491.706451 1493.796387,490.767426 
	C1484.841919,490.569397 1475.879150,490.738617 1466.046753,490.738617 
	C1490.473999,573.209167 1504.457764,657.166809 1514.477905,741.825867 
	C1585.067993,739.267456 1653.947632,732.061462 1722.131958,713.667542 
M312.949738,711.628540 
	C397.125702,738.193542 483.669464,740.478882 570.893860,737.407349 
	C576.553406,695.903076 583.442261,655.205627 594.052246,615.310181 
	C604.639282,575.501343 616.477234,536.025269 627.831421,496.176453 
	C626.164062,496.301331 624.529175,496.430054 622.893372,496.545471 
	C597.301270,498.350861 571.728821,500.538055 546.111816,501.860413 
	C514.835022,503.474976 483.527557,504.604309 452.220612,505.496277 
	C422.116943,506.353973 392.323883,503.475677 363.125854,495.825653 
	C313.058319,482.707764 270.936401,457.371674 240.520050,414.655823 
	C234.383057,406.037170 228.157181,396.985596 224.570847,387.182953 
	C220.792099,376.854248 217.128952,366.625793 209.409042,358.942535 
	C192.810822,342.423157 175.517761,326.601990 158.367996,310.361389 
	C141.134338,328.884979 124.229240,347.017731 107.413406,365.232819 
	C106.500694,366.221497 106.024170,367.865234 105.869461,369.262146 
	C104.385284,382.663574 102.510117,396.047150 101.699669,409.493256 
	C98.558121,461.614594 105.553825,512.136414 127.215378,560.044006 
	C140.863571,590.228943 159.082352,617.446106 183.833420,639.633972 
	C221.177032,673.110291 264.683014,695.910156 312.949738,711.628540 
M755.887756,1082.022705 
	C751.956604,1096.513672 745.468567,1109.731812 735.827209,1121.269043 
	C726.966675,1131.871948 717.435547,1142.120117 702.663208,1143.323364 
	C693.486145,1144.070801 683.972473,1143.808228 674.929199,1142.201660 
	C665.810059,1140.581665 657.085571,1136.739990 647.906372,1133.780884 
	C690.808411,1229.986938 735.731567,1325.145996 795.187500,1414.330444 
	C795.685425,1410.555054 795.864136,1408.279297 796.297424,1406.053101 
	C802.258728,1375.426880 805.060852,1344.458496 805.697815,1313.317749 
	C806.534302,1272.421509 803.015930,1231.843384 794.800415,1191.754883 
	C787.193359,1154.635376 775.848328,1118.712280 758.927185,1084.692505 
	C758.294312,1083.420166 757.018494,1082.467651 755.887756,1082.022705 
M1311.979736,1185.431519 
	C1311.706665,1186.563721 1311.386963,1187.686890 1311.167358,1188.829346 
	C1304.410889,1223.971191 1298.346924,1259.140381 1297.604248,1295.119385 
	C1297.012573,1323.788208 1295.827026,1352.412964 1301.114746,1380.763916 
	C1303.135498,1391.598755 1306.262329,1402.227295 1309.108032,1413.861084 
	C1325.882568,1392.398804 1442.036499,1145.010864 1443.608032,1127.868774 
	C1441.763916,1128.448608 1440.076172,1129.006348 1438.372559,1129.510620 
	C1415.721802,1136.217163 1393.791016,1137.157104 1373.694092,1121.866577 
	C1361.049072,1112.245728 1351.049927,1100.335205 1342.623413,1086.989136 
	C1341.802490,1085.688965 1340.927979,1084.422607 1339.712402,1082.588257 
	C1328.358887,1116.695312 1319.330444,1150.402954 1311.979736,1185.431519 
M1892.662231,319.803223 
	C1892.494873,321.060211 1892.327393,322.317200 1892.077515,324.193298 
	C1894.434937,323.064178 1896.246704,322.271576 1897.989868,321.349823 
	C1912.112305,313.882782 1926.255493,306.453735 1940.306030,298.853394 
	C1943.020020,297.385406 1944.911255,297.545319 1947.431030,299.400360 
	C1958.025024,307.199646 1968.806885,314.743744 1979.523071,322.376953 
	C1980.818726,323.299835 1982.133179,324.196106 1984.552856,325.879822 
	C1983.339600,320.169647 1982.719849,315.726105 1981.442505,311.480408 
	C1970.808472,276.135559 1960.452026,240.699692 1949.220581,205.544098 
	C1938.219116,171.108475 1924.589355,137.681030 1907.512451,105.741890 
	C1906.755127,104.325203 1905.712646,103.060905 1904.802856,101.725693 
	C1903.580811,103.104126 1903.323730,104.020050 1903.348389,104.928383 
	C1903.928345,126.401215 1905.325317,147.887161 1904.944824,169.341858 
	C1904.463867,196.458237 1903.195679,223.601410 1901.036743,250.634781 
	C1899.211060,273.493805 1895.632812,296.212830 1892.662231,319.803223 
M183.302094,120.812881 
	C151.240860,190.317627 127.392677,262.467041 112.670982,337.555267 
	C113.206276,337.893311 113.741562,338.231354 114.276848,338.569397 
	C128.889725,321.952576 143.502609,305.335785 158.649780,288.111389 
	C175.026703,303.833618 190.876328,319.049622 207.460754,334.971039 
	C189.857559,259.045288 189.433914,182.865768 192.319443,106.458122 
	C191.681564,106.343330 191.043686,106.228531 190.405807,106.113739 
	C188.156616,110.791878 185.907440,115.470009 183.302094,120.812881 
M636.591187,1080.038818 
	C631.524231,1077.645752 626.457214,1075.252808 621.289062,1072.812012 
	C621.163269,1073.473389 620.936523,1073.973267 621.007935,1074.426270 
	C621.188293,1075.570435 621.442688,1076.711304 621.772156,1077.822510 
	C628.757690,1101.385132 645.125305,1116.785400 666.528870,1126.778320 
	C690.448914,1137.946289 713.131714,1131.283325 728.706238,1109.972534 
	C740.084167,1094.404053 744.154419,1076.286865 746.733337,1057.683594 
	C746.867737,1056.713745 746.135925,1054.766357 745.707336,1054.737061 
	C744.436829,1054.650146 742.996033,1055.070557 741.833618,1055.690063 
	C728.794983,1062.639526 716.253967,1070.763550 702.680664,1076.413452 
	C681.629456,1085.176270 659.636841,1087.813477 636.591187,1080.038818 
M1362.382568,1091.084595 
	C1363.555542,1092.903931 1364.728027,1094.723633 1365.901611,1096.542603 
	C1378.824829,1116.572388 1404.365112,1125.338745 1425.817261,1116.282715 
	C1451.196167,1105.568848 1466.491089,1085.416870 1475.883667,1060.215454 
	C1476.089722,1059.662476 1475.909546,1058.965576 1475.909546,1058.261963 
	C1434.788696,1081.041504 1393.722412,1087.261230 1352.152222,1059.152954 
	C1352.793579,1070.614990 1356.247192,1080.895752 1362.382568,1091.084595 
M722.454834,1013.560120 
	C725.594971,1010.373657 725.082397,1006.290771 724.699463,1002.507446 
	C724.357056,999.125000 722.430298,997.307678 718.343323,997.171997 
	C710.381958,996.907898 702.345337,996.327881 694.524597,994.880432 
	C668.578125,990.078247 647.973511,977.495728 636.302124,952.847595 
	C630.822693,941.275940 628.448181,928.915588 627.677429,916.178955 
	C627.116333,906.906738 624.542603,904.999878 615.042480,906.283325 
	C614.054688,906.416748 613.089844,906.812073 612.104370,906.854736 
	C609.072388,906.986023 607.981140,908.731506 608.281250,911.469543 
	C609.347229,921.194275 609.186218,931.280151 611.819275,940.569031 
	C627.079041,994.403015 672.283020,1015.874634 722.454834,1013.560120 
M1466.082886,904.741821 
	C1465.005249,906.538147 1463.265137,908.229614 1462.961548,910.148376 
	C1461.432129,919.815491 1460.817261,929.650452 1458.890747,939.227295 
	C1452.874878,969.131714 1436.090332,990.258057 1406.481689,999.428040 
	C1395.173828,1002.930176 1383.186523,1004.237976 1371.067627,1006.632874 
	C1371.067627,1009.377258 1371.067627,1013.292603 1371.067627,1017.544617 
	C1399.105713,1017.981689 1424.670654,1011.958923 1445.795166,993.040955 
	C1463.763794,976.949097 1472.919678,955.930298 1476.904297,932.609924 
	C1478.704590,922.072815 1479.127197,911.300354 1480.309326,899.264465 
	C1474.683350,901.345093 1470.702026,902.817505 1466.082886,904.741821 
M112.485184,339.473053 
	C112.485184,339.473053 112.469879,339.383545 112.485184,339.473053 
z"/>
<path fill="#CE1141" opacity="1.000000" stroke="none" 
	d="
M1119.200806,968.812134 
	C1094.984863,949.889954 1080.567505,925.161804 1073.093262,896.065979 
	C1070.164673,884.665405 1067.354980,873.234314 1064.412354,861.503052 
	C1072.950439,861.068970 1081.231689,860.851807 1089.477783,860.193848 
	C1127.475708,857.161499 1165.499146,854.379028 1203.443848,850.774292 
	C1232.594482,848.004944 1261.653687,844.244568 1290.719238,840.647156 
	C1294.528442,840.175659 1298.536499,838.637451 1301.679810,836.471924 
	C1303.535034,835.193726 1305.055542,831.433105 1304.556152,829.295959 
	C1304.057251,827.161072 1300.910034,824.229248 1298.823364,824.145142 
	C1292.426025,823.887695 1285.955811,824.614563 1279.557495,825.341187 
	C1251.618408,828.514526 1223.747070,832.402588 1195.751953,834.935425 
	C1160.939087,838.085083 1126.038696,840.307251 1091.154175,842.594849 
	C1081.404419,843.234253 1071.577148,842.692322 1060.905273,842.692322 
	C1060.905273,826.323181 1060.905273,809.269104 1060.905273,791.748474 
	C1071.125122,791.245300 1081.745728,790.692810 1092.369263,790.204224 
	C1155.131104,787.317810 1217.426636,780.120544 1279.368896,769.777832 
	C1283.501099,769.087952 1287.829590,767.506958 1291.258911,765.159851 
	C1296.339111,761.682983 1295.326660,755.625000 1289.382080,754.340576 
	C1284.518311,753.289612 1279.051025,753.223328 1274.186279,754.273254 
	C1237.004150,762.297852 1199.402466,767.059998 1161.466797,769.163330 
	C1128.544434,770.988770 1095.596802,772.358337 1062.660034,773.921570 
	C1061.681519,773.968018 1060.698853,773.927368 1059.348755,773.927368 
	C1059.348755,753.296753 1059.348755,732.918823 1059.348755,712.139954 
	C1071.170776,711.445068 1082.964478,711.139954 1094.675415,709.992310 
	C1132.759888,706.259949 1170.873047,702.705933 1208.858154,698.115479 
	C1231.788574,695.344482 1254.504028,690.790100 1277.309814,686.999573 
	C1279.102173,686.701599 1281.480225,686.663025 1282.470215,685.529419 
	C1284.159790,683.594910 1286.281982,680.557983 1285.790771,678.591614 
	C1285.235229,676.367554 1282.133545,673.462158 1279.902588,673.241272 
	C1274.859131,672.741882 1269.645020,673.503052 1264.544434,674.116821 
	C1225.897461,678.767578 1187.328613,684.196838 1148.598999,687.988281 
	C1120.286255,690.760010 1091.766235,691.416382 1063.338013,693.002197 
	C1062.057739,693.073608 1060.770142,693.011353 1058.979004,693.011353 
	C1058.979004,686.596191 1058.979004,680.640930 1058.979004,674.685608 
	C1058.978760,664.352478 1059.022827,654.018982 1058.944214,643.686462 
	C1058.926636,641.377380 1058.646606,639.037598 1058.188599,636.772339 
	C1057.500244,633.367493 1056.049805,629.524597 1052.108887,630.255920 
	C1049.695312,630.703857 1047.123901,633.746643 1045.909668,636.248413 
	C1044.682739,638.776245 1044.774414,642.072510 1044.753418,645.035400 
	C1044.651489,659.367737 1044.705933,673.701172 1044.705200,688.034180 
	C1044.705078,689.834473 1044.705200,691.634827 1044.705200,693.696838 
	C1036.148804,693.696838 1028.040894,694.010864 1019.964661,693.637451 
	C996.675659,692.560608 973.368164,691.619324 950.126343,689.854797 
	C922.415161,687.750977 894.749146,685.004028 867.093994,682.231934 
	C851.036865,680.622437 835.041077,678.403381 819.014343,676.486816 
	C813.918518,675.877502 809.685913,678.096375 808.880615,681.698181 
	C808.038940,685.463257 810.439941,689.395264 815.714844,690.703735 
	C823.279358,692.580139 831.014954,693.946777 838.755005,694.904663 
	C871.611816,698.970703 904.437134,703.448486 937.390930,706.522644 
	C964.065552,709.011047 990.901550,709.826904 1017.678162,711.133179 
	C1026.452759,711.561279 1035.265869,711.200562 1043.729980,711.200562 
	C1043.729980,732.802368 1043.729980,753.182678 1043.729980,772.715515 
	C1032.150513,772.715515 1021.501343,773.141846 1010.898865,772.619202 
	C993.441528,771.758728 975.989380,770.563477 958.580688,769.000977 
	C934.049927,766.799438 909.509094,764.554626 885.068726,761.546753 
	C861.303162,758.621948 837.678711,754.560242 813.933716,751.444214 
	C811.248108,751.091736 807.200012,752.866455 805.534607,755.013123 
	C803.275879,757.924438 804.469055,762.037842 807.518677,764.362366 
	C810.081482,766.315796 813.213562,768.199829 816.312317,768.668396 
	C849.203003,773.642517 882.077942,778.797974 915.075134,782.970520 
	C954.908875,788.007568 994.966248,790.524231 1035.122437,791.285156 
	C1037.606567,791.332153 1040.084106,791.719849 1042.424316,791.936096 
	C1042.424316,809.146545 1042.424316,826.183899 1042.424316,842.658630 
	C1029.500122,842.658630 1017.374451,843.097290 1005.292603,842.556152 
	C987.000183,841.736816 968.714294,840.516418 950.469116,838.958008 
	C923.439270,836.649353 896.431519,834.049500 869.445251,831.274170 
	C852.898621,829.572449 836.427185,827.135620 819.877441,825.471680 
	C817.064209,825.188843 813.559937,826.499329 811.194153,828.207947 
	C807.004761,831.233582 807.522583,836.252319 812.047119,838.861877 
	C814.437683,840.240601 817.255859,841.250854 819.987671,841.605957 
	C842.426880,844.523315 864.848145,847.678955 887.358521,849.924011 
	C917.334961,852.913635 947.367188,855.414368 977.413208,857.608459 
	C995.346741,858.918152 1013.352112,859.250427 1031.326538,859.989929 
	C1033.771973,860.090576 1036.224976,860.003845 1039.108765,860.003845 
	C1037.042603,874.834778 1033.223999,888.368652 1027.986816,901.533020 
	C1017.133972,928.813049 1000.601074,952.170715 978.680237,971.581299 
	C959.441406,988.617126 936.435425,995.642700 910.995728,995.235901 
	C873.232239,994.631958 839.656433,981.729309 809.430359,959.747864 
	C784.297363,941.470459 762.094543,919.784119 739.779541,898.266968 
	C723.837708,882.895020 708.793457,866.511719 690.332886,853.963196 
	C670.697327,840.615967 650.360718,828.650269 626.801025,823.525879 
	C615.338318,821.032654 603.897583,820.306641 592.163208,822.783203 
	C572.174561,827.001831 547.686157,854.969238 556.107544,884.465759 
	C557.670105,889.938782 561.213867,893.451294 566.547974,894.894836 
	C571.669739,896.281128 576.893372,897.424866 582.144592,898.155762 
	C586.264954,898.729248 587.742737,900.317383 588.142334,904.693726 
	C590.280762,928.115417 595.935242,950.600830 607.790710,971.174744 
	C624.603760,1000.351929 650.216064,1018.221985 682.162781,1026.832397 
	C698.461304,1031.225220 715.365356,1033.371216 732.083618,1036.549561 
	C732.245361,1036.187622 732.043152,1037.110718 731.510315,1037.764038 
	C715.280029,1057.660400 694.369568,1069.494141 668.731812,1070.206299 
	C644.877258,1070.868896 624.755615,1060.997314 608.955688,1042.874878 
	C594.992065,1026.858643 587.113037,1007.581726 579.979309,987.986023 
	C571.500671,964.696106 563.458984,941.247498 555.057373,917.929077 
	C553.372192,913.251953 550.778870,908.909851 548.865967,904.304565 
	C547.207703,900.312195 545.344604,899.551392 541.012939,901.395264 
	C524.494019,908.426819 508.004852,915.708923 490.993805,921.359924 
	C467.231842,929.253601 442.493561,933.175903 417.542572,934.909058 
	C401.630432,936.014465 385.582458,936.751953 369.672577,936.006714 
	C320.575470,933.706848 276.672699,916.747192 238.602966,885.797668 
	C226.148132,875.672363 215.534698,863.277405 204.141296,851.858337 
	C203.048767,850.763428 202.399185,849.226685 201.448166,847.745850 
	C217.051819,838.393738 233.886963,833.636230 250.381927,828.140442 
	C309.160919,808.556580 368.913879,792.436157 429.902191,781.599121 
	C469.999451,774.474182 510.502014,769.611816 550.851013,763.934875 
	C560.566528,762.567871 570.379333,761.773743 580.175293,761.161072 
	C583.745850,760.937744 584.602356,759.436523 584.894043,756.351807 
	C589.616394,706.410583 598.324951,657.137146 610.102478,608.403137 
	C619.331787,570.213745 630.641357,532.636353 643.932434,495.655396 
	C644.908020,492.940735 646.155396,491.724854 649.152710,491.568420 
	C662.453735,490.874207 675.737854,489.863403 689.034973,489.085663 
	C734.086365,486.450775 779.138611,483.829346 824.194824,481.279388 
	C843.814575,480.169006 863.437744,479.072723 883.071655,478.270721 
	C927.176270,476.469238 971.276306,474.107239 1015.401306,473.385773 
	C1055.873779,472.724060 1096.380737,473.666992 1136.864502,474.369476 
	C1167.509399,474.901215 1198.145508,476.059326 1228.778809,477.132050 
	C1274.892822,478.747009 1321.004761,480.432343 1367.109863,482.281342 
	C1393.068604,483.322388 1419.009399,484.808197 1444.965210,485.932220 
	C1448.081665,486.067230 1449.604126,486.938019 1450.659180,490.028564 
	C1464.183228,529.641113 1474.693359,570.068787 1480.798462,611.436096 
	C1486.966064,653.227417 1491.548218,695.253479 1496.743652,737.186768 
	C1497.456055,742.935852 1497.698730,748.743103 1498.200928,755.052002 
	C1631.576294,759.118774 1760.035278,785.328613 1884.810669,836.795166 
	C1875.004639,846.863892 1866.652344,856.891602 1856.860718,865.228943 
	C1824.059448,893.158691 1786.903931,912.968567 1744.832520,923.261292 
	C1722.826782,928.645081 1700.602661,928.612427 1678.297729,926.784363 
	C1645.958252,924.133972 1614.438477,917.462891 1584.097778,905.847290 
	C1572.319946,901.338318 1560.871338,895.969482 1548.945801,890.852173 
	C1548.303101,892.016113 1547.585693,893.079590 1547.094971,894.238953 
	C1535.037964,922.728760 1523.060303,951.252258 1510.937378,979.713806 
	C1506.765015,989.509338 1502.155762,999.117859 1497.893311,1008.876099 
	C1484.730713,1039.010132 1460.217041,1054.927979 1429.683228,1063.026489 
	C1409.629517,1068.345215 1390.567627,1064.991089 1373.225464,1053.879517 
	C1367.487793,1050.203125 1363.013794,1044.554565 1357.072998,1038.972290 
	C1365.312012,1037.857178 1372.159058,1037.156006 1378.922363,1035.975220 
	C1404.555664,1031.499878 1429.128540,1024.105835 1450.655640,1008.798950 
	C1469.696777,995.259827 1481.274780,976.186340 1489.780273,955.008362 
	C1497.316040,936.244873 1502.067749,916.679688 1504.939575,896.704651 
	C1505.702759,891.395203 1507.950195,888.705566 1513.087036,887.970581 
	C1516.375977,887.500061 1519.627075,886.763916 1522.893677,886.138916 
	C1537.569824,883.331055 1544.258667,873.743042 1541.594849,859.059570 
	C1537.263428,835.184387 1527.749268,822.743042 1496.886719,819.030579 
	C1458.929321,814.464661 1426.518921,828.202820 1397.191162,850.592834 
	C1385.446533,859.559204 1374.655273,869.828674 1363.827759,879.931274 
	C1338.495972,903.567017 1313.957031,928.081665 1288.076050,951.091980 
	C1256.052856,979.563416 1217.877197,991.745972 1175.142212,988.906189 
	C1154.823120,987.555847 1135.973267,981.430786 1119.200806,968.812134 
z"/>
<path fill="#CD1141" opacity="1.000000" stroke="none" 
	d="
M1300.932495,1435.060059 
	C1296.742310,1433.719238 1292.185547,1433.036255 1288.417358,1430.937622 
	C1240.654419,1404.337280 1189.564453,1387.658203 1135.744873,1378.751343 
	C1102.129395,1373.188232 1068.307129,1370.577637 1034.286255,1371.311890 
	C970.878052,1372.680420 909.181763,1383.374390 850.094482,1407.045898 
	C837.603516,1412.050049 825.551025,1418.148926 813.297546,1423.745361 
	C811.670349,1424.488525 810.048584,1425.243530 807.471558,1425.839233 
	C851.856934,1299.595215 840.875610,1175.221436 796.397644,1051.471191 
	C797.461975,1051.734375 798.501709,1051.860596 799.437439,1052.241821 
	C837.937012,1067.928833 877.938599,1075.370117 919.471069,1072.866577 
	C959.678650,1070.442627 996.152161,1058.094238 1025.704712,1029.410889 
	C1030.820923,1024.445312 1035.088989,1018.612549 1039.840820,1013.262146 
	C1042.690308,1010.053833 1045.718506,1007.004272 1048.828857,1003.711365 
	C1053.382690,1009.627808 1057.383789,1015.315979 1061.878174,1020.583191 
	C1085.346924,1048.087402 1115.460938,1063.717773 1150.767090,1070.029297 
	C1185.620239,1076.259888 1219.462402,1070.846191 1252.629150,1060.425293 
	C1269.243408,1055.205200 1285.276855,1048.136597 1301.570435,1041.897095 
	C1302.899414,1041.388184 1304.207886,1040.826172 1306.299683,1039.973389 
	C1304.011353,1046.968384 1301.932861,1053.222290 1299.918457,1059.496704 
	C1287.419434,1098.427002 1279.158569,1138.228271 1274.784546,1178.891846 
	C1270.566406,1218.106812 1270.224609,1257.366211 1273.270020,1296.617310 
	C1276.848145,1342.737183 1285.971802,1387.827026 1300.442749,1431.800415 
	C1300.701538,1432.587036 1300.870972,1433.402954 1301.028687,1434.613892 
	C1300.975220,1435.022583 1300.932495,1435.060059 1300.932495,1435.060059 
M1256.180176,1140.704956 
	C1260.475830,1125.860474 1264.903687,1111.052490 1269.005981,1096.154785 
	C1270.806885,1089.613892 1268.827393,1087.606934 1261.320923,1087.526855 
	C1260.965820,1088.729126 1260.516357,1089.970825 1260.233521,1091.249268 
	C1252.156372,1127.764893 1238.612793,1162.145752 1219.843994,1194.470215 
	C1206.137573,1218.076172 1190.628906,1240.209717 1168.833984,1257.290405 
	C1122.395386,1293.684326 1070.079468,1307.502930 1011.848328,1297.906860 
	C971.754333,1291.299805 938.167542,1272.674316 911.663757,1241.687500 
	C880.126099,1204.815308 863.368347,1161.341309 855.017944,1114.166748 
	C853.755310,1107.033569 852.916626,1099.825317 851.812256,1092.169312 
	C848.292786,1093.899536 842.783997,1091.084717 843.401489,1097.888428 
	C847.189026,1139.617798 859.544128,1178.585205 880.533813,1214.888672 
	C898.320190,1245.651855 921.130310,1271.287720 953.017273,1288.020996 
	C989.845154,1307.346802 1029.029541,1312.989380 1070.135010,1309.243042 
	C1116.791016,1304.990845 1156.025879,1285.691162 1188.607544,1252.468750 
	C1219.708374,1220.756226 1240.799194,1182.886230 1256.180176,1140.704956 
z"/>
<path fill="#CD1141" opacity="1.000000" stroke="none" 
	d="
M1025.061768,1384.050537 
	C1072.222412,1382.659180 1118.389648,1386.530518 1163.727905,1398.016357 
	C1226.166260,1413.834351 1282.640503,1442.222778 1334.745117,1479.765259 
	C1339.607422,1483.268677 1341.132202,1486.648193 1340.389893,1492.920776 
	C1331.022583,1572.084351 1301.027466,1642.406250 1250.797119,1704.173706 
	C1249.424194,1705.861816 1247.276733,1707.208740 1245.216309,1708.006348 
	C1207.190308,1722.723389 1167.834351,1732.216309 1127.531616,1738.131958 
	C1091.324585,1743.446411 1054.935059,1745.219604 1018.422302,1743.926636 
	C959.608154,1741.843628 902.344543,1731.724487 847.629578,1709.309204 
	C844.992554,1708.228882 842.430542,1706.345703 840.511536,1704.223267 
	C799.529907,1658.899048 776.379395,1605.049072 766.146179,1545.441650 
	C762.297607,1523.023926 760.830933,1500.201538 758.087341,1477.586792 
	C757.474487,1472.535156 759.159302,1469.578003 763.403015,1466.635986 
	C806.706848,1436.614502 854.212769,1415.892334 904.894348,1402.141479 
	C935.472961,1393.844849 966.555298,1388.302124 998.166077,1385.874878 
	C1006.962158,1385.199585 1015.768799,1384.661011 1025.061768,1384.050537 
M1108.556152,1497.094482 
	C1086.278076,1527.055420 1093.569824,1562.130493 1109.727539,1585.690918 
	C1111.060181,1587.634033 1114.366699,1589.842773 1116.249023,1589.456543 
	C1120.302002,1588.624634 1118.946899,1584.769897 1118.255615,1581.961914 
	C1116.787720,1575.999878 1115.014404,1570.113770 1113.448120,1564.175171 
	C1111.867188,1558.180176 1111.177856,1552.186279 1114.137817,1545.502441 
	C1115.501709,1547.414429 1116.472046,1548.861816 1117.528809,1550.242920 
	C1132.818481,1570.225342 1152.102783,1583.202881 1177.993164,1584.251099 
	C1213.683472,1585.696045 1244.486938,1565.029053 1254.646362,1532.943481 
	C1257.091309,1525.221313 1258.138184,1517.324097 1256.238403,1509.332153 
	C1252.746094,1494.640503 1243.299927,1483.997437 1231.858765,1475.013184 
	C1213.215942,1460.373413 1191.763306,1457.507935 1168.991943,1460.906006 
	C1144.149780,1464.613281 1123.721313,1475.774902 1108.556152,1497.094482 
M927.061462,1470.212769 
	C918.350891,1469.807373 909.623718,1468.844238 900.933044,1469.104126 
	C877.604248,1469.801758 857.600281,1478.631714 842.977783,1496.924805 
	C830.479004,1512.560913 827.967651,1530.591797 836.700500,1548.987793 
	C849.410400,1575.761475 879.999451,1597.459595 916.468994,1590.898682 
	C937.902527,1587.042847 956.047974,1577.331787 969.643738,1559.902588 
	C971.267639,1557.820801 973.082214,1555.887695 975.556824,1553.017700 
	C975.556824,1560.291870 976.369812,1566.334595 975.328796,1572.038818 
	C974.280701,1577.781738 970.921631,1583.074829 969.533325,1588.797607 
	C968.967896,1591.128052 970.124512,1595.233398 971.919373,1596.473755 
	C974.916626,1598.544678 977.938416,1596.463013 979.363281,1593.080444 
	C983.583801,1583.061401 988.770508,1573.298706 991.653564,1562.901733 
	C996.132141,1546.751221 995.830505,1530.231812 987.828552,1515.018921 
	C975.048828,1490.723145 954.674866,1476.157593 927.061462,1470.212769 
M1214.847656,1663.684082 
	C1154.431274,1642.086304 1092.035522,1634.528931 1028.191162,1637.637207 
	C964.530212,1640.736450 903.198547,1653.967285 844.726562,1679.704468 
	C847.530518,1687.857056 848.733826,1688.426880 855.505371,1685.748901 
	C860.609009,1683.730591 865.721252,1681.721191 870.899170,1679.906128 
	C937.323425,1656.622803 1005.644531,1646.315186 1076.017212,1649.743896 
	C1108.049194,1651.304565 1139.669922,1655.588379 1170.449341,1664.607178 
	C1192.618530,1671.102905 1214.419678,1678.848877 1236.423950,1685.915894 
	C1244.077271,1688.373901 1247.105469,1686.521851 1249.610352,1677.970093 
	C1238.309448,1673.312866 1226.945312,1668.629517 1214.847656,1663.684082 
z"/>
<path fill="#FFFFFF" opacity="1.000000" stroke="none" 
	d="
M1721.739258,713.779724 
	C1653.947632,732.061462 1585.067993,739.267456 1514.477905,741.825867 
	C1504.457764,657.166809 1490.473999,573.209167 1466.046753,490.738617 
	C1475.879150,490.738617 1484.841919,490.569397 1493.796387,490.767426 
	C1536.262939,491.706451 1578.723999,493.333771 1621.193481,493.575806 
	C1659.888062,493.796387 1698.353149,490.641083 1735.873291,480.068909 
	C1782.553101,466.915863 1821.464233,442.209808 1849.959839,402.525360 
	C1861.586792,386.332977 1872.040527,369.298798 1883.065918,352.672699 
	C1883.862671,351.471222 1884.764160,350.106537 1885.963013,349.439270 
	C1903.667725,339.583984 1921.486206,329.931519 1939.130859,319.970978 
	C1942.381592,318.135895 1944.891846,318.276947 1947.688477,320.281586 
	C1955.795532,326.092834 1963.904663,331.901093 1972.028564,337.688751 
	C1975.415283,340.101379 1978.647461,342.829468 1982.302124,344.740417 
	C1986.197998,346.777496 1988.061401,349.479919 1988.748291,353.846283 
	C1998.373901,415.037201 1993.945679,474.650604 1968.611084,531.821594 
	C1944.804199,585.545288 1907.170654,626.974854 1856.698486,656.999512 
	C1814.442871,682.136230 1769.414429,700.541748 1721.739258,713.779724 
z"/>
<path fill="#FFFFFF" opacity="1.000000" stroke="none" 
	d="
M312.589569,711.459961 
	C264.683014,695.910156 221.177032,673.110291 183.833420,639.633972 
	C159.082352,617.446106 140.863571,590.228943 127.215378,560.044006 
	C105.553825,512.136414 98.558121,461.614594 101.699669,409.493256 
	C102.510117,396.047150 104.385284,382.663574 105.869461,369.262146 
	C106.024170,367.865234 106.500694,366.221497 107.413406,365.232819 
	C124.229240,347.017731 141.134338,328.884979 158.367996,310.361389 
	C175.517761,326.601990 192.810822,342.423157 209.409042,358.942535 
	C217.128952,366.625793 220.792099,376.854248 224.570847,387.182953 
	C228.157181,396.985596 234.383057,406.037170 240.520050,414.655823 
	C270.936401,457.371674 313.058319,482.707764 363.125854,495.825653 
	C392.323883,503.475677 422.116943,506.353973 452.220612,505.496277 
	C483.527557,504.604309 514.835022,503.474976 546.111816,501.860413 
	C571.728821,500.538055 597.301270,498.350861 622.893372,496.545471 
	C624.529175,496.430054 626.164062,496.301331 627.831421,496.176453 
	C616.477234,536.025269 604.639282,575.501343 594.052246,615.310181 
	C583.442261,655.205627 576.553406,695.903076 570.893860,737.407349 
	C483.669464,740.478882 397.125702,738.193542 312.589569,711.459961 
z"/>
<path fill="#CD1141" opacity="1.000000" stroke="none" 
	d="
M755.965088,1081.694336 
	C757.018494,1082.467651 758.294312,1083.420166 758.927185,1084.692505 
	C775.848328,1118.712280 787.193359,1154.635376 794.800415,1191.754883 
	C803.015930,1231.843384 806.534302,1272.421509 805.697815,1313.317749 
	C805.060852,1344.458496 802.258728,1375.426880 796.297424,1406.053101 
	C795.864136,1408.279297 795.685425,1410.555054 795.187500,1414.330444 
	C735.731567,1325.145996 690.808411,1229.986938 647.906372,1133.780884 
	C657.085571,1136.739990 665.810059,1140.581665 674.929199,1142.201660 
	C683.972473,1143.808228 693.486145,1144.070801 702.663208,1143.323364 
	C717.435547,1142.120117 726.966675,1131.871948 735.827209,1121.269043 
	C745.468567,1109.731812 751.956604,1096.513672 755.965088,1081.694336 
z"/>
<path fill="#CD1141" opacity="1.000000" stroke="none" 
	d="
M1312.035645,1185.013428 
	C1319.330444,1150.402954 1328.358887,1116.695312 1339.712402,1082.588257 
	C1340.927979,1084.422607 1341.802490,1085.688965 1342.623413,1086.989136 
	C1351.049927,1100.335205 1361.049072,1112.245728 1373.694092,1121.866577 
	C1393.791016,1137.157104 1415.721802,1136.217163 1438.372559,1129.510620 
	C1440.076172,1129.006348 1441.763916,1128.448608 1443.608032,1127.868774 
	C1442.036499,1145.010864 1325.882568,1392.398804 1309.108032,1413.861084 
	C1306.262329,1402.227295 1303.135498,1391.598755 1301.114746,1380.763916 
	C1295.827026,1352.412964 1297.012573,1323.788208 1297.604248,1295.119385 
	C1298.346924,1259.140381 1304.410889,1223.971191 1311.167358,1188.829346 
	C1311.386963,1187.686890 1311.706665,1186.563721 1312.035645,1185.013428 
z"/>
<path fill="#CC1140" opacity="1.000000" stroke="none" 
	d="
M1892.746094,319.398529 
	C1895.632812,296.212830 1899.211060,273.493805 1901.036743,250.634781 
	C1903.195679,223.601410 1904.463867,196.458237 1904.944824,169.341858 
	C1905.325317,147.887161 1903.928345,126.401215 1903.348389,104.928383 
	C1903.323730,104.020050 1903.580811,103.104126 1904.802856,101.725693 
	C1905.712646,103.060905 1906.755127,104.325203 1907.512451,105.741890 
	C1924.589355,137.681030 1938.219116,171.108475 1949.220581,205.544098 
	C1960.452026,240.699692 1970.808472,276.135559 1981.442505,311.480408 
	C1982.719849,315.726105 1983.339600,320.169647 1984.552856,325.879822 
	C1982.133179,324.196106 1980.818726,323.299835 1979.523071,322.376953 
	C1968.806885,314.743744 1958.025024,307.199646 1947.431030,299.400360 
	C1944.911255,297.545319 1943.020020,297.385406 1940.306030,298.853394 
	C1926.255493,306.453735 1912.112305,313.882782 1897.989868,321.349823 
	C1896.246704,322.271576 1894.434937,323.064178 1892.077515,324.193298 
	C1892.327393,322.317200 1892.494873,321.060211 1892.746094,319.398529 
z"/>
<path fill="#CC1140" opacity="1.000000" stroke="none" 
	d="
M183.480179,120.480515 
	C185.907440,115.470009 188.156616,110.791878 190.405807,106.113739 
	C191.043686,106.228531 191.681564,106.343330 192.319443,106.458122 
	C189.433914,182.865768 189.857559,259.045288 207.460754,334.971039 
	C190.876328,319.049622 175.026703,303.833618 158.649780,288.111389 
	C143.502609,305.335785 128.889725,321.952576 114.276848,338.569397 
	C113.741562,338.231354 113.206276,337.893311 112.670982,337.555267 
	C127.392677,262.467041 151.240860,190.317627 183.480179,120.480515 
z"/>
<path fill="#CC1140" opacity="1.000000" stroke="none" 
	d="
M636.965637,1080.154419 
	C659.636841,1087.813477 681.629456,1085.176270 702.680664,1076.413452 
	C716.253967,1070.763550 728.794983,1062.639526 741.833618,1055.690063 
	C742.996033,1055.070557 744.436829,1054.650146 745.707336,1054.737061 
	C746.135925,1054.766357 746.867737,1056.713745 746.733337,1057.683594 
	C744.154419,1076.286865 740.084167,1094.404053 728.706238,1109.972534 
	C713.131714,1131.283325 690.448914,1137.946289 666.528870,1126.778320 
	C645.125305,1116.785400 628.757690,1101.385132 621.772156,1077.822510 
	C621.442688,1076.711304 621.188293,1075.570435 621.007935,1074.426270 
	C620.936523,1073.973267 621.163269,1073.473389 621.289062,1072.812012 
	C626.457214,1075.252808 631.524231,1077.645752 636.965637,1080.154419 
z"/>
<path fill="#CC1140" opacity="1.000000" stroke="none" 
	d="
M1362.186279,1090.775879 
	C1356.247192,1080.895752 1352.793579,1070.614990 1352.152222,1059.152954 
	C1393.722412,1087.261230 1434.788696,1081.041504 1475.909546,1058.261963 
	C1475.909546,1058.965576 1476.089722,1059.662476 1475.883667,1060.215454 
	C1466.491089,1085.416870 1451.196167,1105.568848 1425.817261,1116.282715 
	C1404.365112,1125.338745 1378.824829,1116.572388 1365.901611,1096.542603 
	C1364.728027,1094.723633 1363.555542,1092.903931 1362.186279,1090.775879 
z"/>
<path fill="#FBFBFB" opacity="1.000000" stroke="none" 
	d="
M722.051453,1013.665894 
	C672.283020,1015.874634 627.079041,994.403015 611.819275,940.569031 
	C609.186218,931.280151 609.347229,921.194275 608.281250,911.469543 
	C607.981140,908.731506 609.072388,906.986023 612.104370,906.854736 
	C613.089844,906.812073 614.054688,906.416748 615.042480,906.283325 
	C624.542603,904.999878 627.116333,906.906738 627.677429,916.178955 
	C628.448181,928.915588 630.822693,941.275940 636.302124,952.847595 
	C647.973511,977.495728 668.578125,990.078247 694.524597,994.880432 
	C702.345337,996.327881 710.381958,996.907898 718.343323,997.171997 
	C722.430298,997.307678 724.357056,999.125000 724.699463,1002.507446 
	C725.082397,1006.290771 725.594971,1010.373657 722.051453,1013.665894 
z"/>
<path fill="#FBFBFB" opacity="1.000000" stroke="none" 
	d="
M1466.401733,904.515869 
	C1470.702026,902.817505 1474.683350,901.345093 1480.309326,899.264465 
	C1479.127197,911.300354 1478.704590,922.072815 1476.904297,932.609924 
	C1472.919678,955.930298 1463.763794,976.949097 1445.795166,993.040955 
	C1424.670654,1011.958923 1399.105713,1017.981689 1371.067627,1017.544617 
	C1371.067627,1013.292603 1371.067627,1009.377258 1371.067627,1006.632874 
	C1383.186523,1004.237976 1395.173828,1002.930176 1406.481689,999.428040 
	C1436.090332,990.258057 1452.874878,969.131714 1458.890747,939.227295 
	C1460.817261,929.650452 1461.432129,919.815491 1462.961548,910.148376 
	C1463.265137,908.229614 1465.005249,906.538147 1466.401733,904.515869 
z"/>
<path fill="#CD1141" opacity="1.000000" stroke="none" 
	d="
M1300.996582,1435.003906 
	C1301.147217,1435.062500 1301.276245,1435.139648 1301.405396,1435.216919 
	C1301.230225,1435.284546 1301.054932,1435.352173 1300.906128,1435.239990 
	C1300.932495,1435.060059 1300.975220,1435.022583 1300.996582,1435.003906 
z"/>
<path fill="#CC1140" opacity="1.000000" stroke="none" 
	d="
M112.477531,339.428284 
	C112.469879,339.383545 112.485184,339.473053 112.477531,339.428284 
z"/>
<path fill="#050002" opacity="1.000000" stroke="none" 
	d="
M1256.071533,1141.083008 
	C1240.799194,1182.886230 1219.708374,1220.756226 1188.607544,1252.468750 
	C1156.025879,1285.691162 1116.791016,1304.990845 1070.135010,1309.243042 
	C1029.029541,1312.989380 989.845154,1307.346802 953.017273,1288.020996 
	C921.130310,1271.287720 898.320190,1245.651855 880.533813,1214.888672 
	C859.544128,1178.585205 847.189026,1139.617798 843.401489,1097.888428 
	C842.783997,1091.084717 848.292786,1093.899536 851.812256,1092.169312 
	C852.916626,1099.825317 853.755310,1107.033569 855.017944,1114.166748 
	C863.368347,1161.341309 880.126099,1204.815308 911.663757,1241.687500 
	C938.167542,1272.674316 971.754333,1291.299805 1011.848328,1297.906860 
	C1070.079468,1307.502930 1122.395386,1293.684326 1168.833984,1257.290405 
	C1190.628906,1240.209717 1206.137573,1218.076172 1219.843994,1194.470215 
	C1238.612793,1162.145752 1252.156372,1127.764893 1260.233521,1091.249268 
	C1260.516357,1089.970825 1260.965820,1088.729126 1261.320923,1087.526855 
	C1268.827393,1087.606934 1270.806885,1089.613892 1269.005981,1096.154785 
	C1264.903687,1111.052490 1260.475830,1125.860474 1256.071533,1141.083008 
z"/>
<path fill="#010000" opacity="1.000000" stroke="none" 
	d="
M1108.765625,1496.801392 
	C1123.721313,1475.774902 1144.149780,1464.613281 1168.991943,1460.906006 
	C1191.763306,1457.507935 1213.215942,1460.373413 1231.858765,1475.013184 
	C1243.299927,1483.997437 1252.746094,1494.640503 1256.238403,1509.332153 
	C1258.138184,1517.324097 1257.091309,1525.221313 1254.646362,1532.943481 
	C1244.486938,1565.029053 1213.683472,1585.696045 1177.993164,1584.251099 
	C1152.102783,1583.202881 1132.818481,1570.225342 1117.528809,1550.242920 
	C1116.472046,1548.861816 1115.501709,1547.414429 1114.137817,1545.502441 
	C1111.177856,1552.186279 1111.867188,1558.180176 1113.448120,1564.175171 
	C1115.014404,1570.113770 1116.787720,1575.999878 1118.255615,1581.961914 
	C1118.946899,1584.769897 1120.302002,1588.624634 1116.249023,1589.456543 
	C1114.366699,1589.842773 1111.060181,1587.634033 1109.727539,1585.690918 
	C1093.569824,1562.130493 1086.278076,1527.055420 1108.765625,1496.801392 
z"/>
<path fill="#010000" opacity="1.000000" stroke="none" 
	d="
M927.464478,1470.359375 
	C954.674866,1476.157593 975.048828,1490.723145 987.828552,1515.018921 
	C995.830505,1530.231812 996.132141,1546.751221 991.653564,1562.901733 
	C988.770508,1573.298706 983.583801,1583.061401 979.363281,1593.080444 
	C977.938416,1596.463013 974.916626,1598.544678 971.919373,1596.473755 
	C970.124512,1595.233398 968.967896,1591.128052 969.533325,1588.797607 
	C970.921631,1583.074829 974.280701,1577.781738 975.328796,1572.038818 
	C976.369812,1566.334595 975.556824,1560.291870 975.556824,1553.017700 
	C973.082214,1555.887695 971.267639,1557.820801 969.643738,1559.902588 
	C956.047974,1577.331787 937.902527,1587.042847 916.468994,1590.898682 
	C879.999451,1597.459595 849.410400,1575.761475 836.700500,1548.987793 
	C827.967651,1530.591797 830.479004,1512.560913 842.977783,1496.924805 
	C857.600281,1478.631714 877.604248,1469.801758 900.933044,1469.104126 
	C909.623718,1468.844238 918.350891,1469.807373 927.464478,1470.359375 
z"/>
<path fill="#040001" opacity="1.000000" stroke="none" 
	d="
M1215.214355,1663.815186 
	C1226.945312,1668.629517 1238.309448,1673.312866 1249.610352,1677.970093 
	C1247.105469,1686.521851 1244.077271,1688.373901 1236.423950,1685.915894 
	C1214.419678,1678.848877 1192.618530,1671.102905 1170.449341,1664.607178 
	C1139.669922,1655.588379 1108.049194,1651.304565 1076.017212,1649.743896 
	C1005.644531,1646.315186 937.323425,1656.622803 870.899170,1679.906128 
	C865.721252,1681.721191 860.609009,1683.730591 855.505371,1685.748901 
	C848.733826,1688.426880 847.530518,1687.857056 844.726562,1679.704468 
	C903.198547,1653.967285 964.530212,1640.736450 1028.191162,1637.637207 
	C1092.035522,1634.528931 1154.431274,1642.086304 1215.214355,1663.815186 
z"/>
</svg>