<svg xmlns="http://www.w3.org/2000/svg" viewBox="0 0 1200 1200" xml:space="preserve">
    <path fill="#FFC627" d="M1 650c0-32.688 0-65.375.367-98.215.789-1.502 1.46-2.83 1.587-4.207.45-4.915.389-9.895 1.114-14.763 2.155-14.47 3.975-29.033 7.06-43.315 4.811-22.266 9.575-44.627 16.186-66.393 6.226-20.498 13.924-40.672 22.6-60.269 9.866-22.29 20.666-44.276 32.685-65.473 10.274-18.12 22.07-35.522 34.601-52.181 14.329-19.048 29.37-37.717 45.662-55.088 16.383-17.468 34.25-33.635 52.29-49.431 13.34-11.681 27.669-22.321 42.144-32.6 29.278-20.788 60.199-38.865 93.2-53.158 16.03-6.943 32.112-13.848 48.514-19.83C432.089 23.017 465.978 13.83 500.93 8.98c15.355-2.13 30.752-3.964 46.113-6.05 1.054-.143 1.975-1.264 2.957-1.93 32.688 0 65.375 0 98.221.371.843.78 1.498 1.475 2.218 1.552 7.007.75 14.051 1.198 21.034 2.116 14.217 1.869 28.625 3.002 42.55 6.199 24.081 5.528 48.074 11.678 71.706 18.874 33.786 10.287 66.213 24.143 97.096 41.356 14.985 8.352 29.877 16.946 44.258 26.284 13.476 8.75 26.551 18.205 39.201 28.118 14.55 11.402 29.052 22.998 42.47 35.68 19.694 18.613 39.044 37.675 55.581 59.299 9.29 12.149 19.04 23.994 27.606 36.637 10.62 15.673 20.947 31.634 30.089 48.195 11.025 19.974 21.548 40.325 30.688 61.213 10.412 23.793 18.994 48.382 25.455 73.62 3.33 13.003 7.032 25.937 9.686 39.08 2.64 13.07 4.311 26.345 6.16 39.565 1.515 10.84 2.915 21.707 3.9 32.604.744 8.218.694 16.506 1.168 24.752.049.862 1.248 1.658 1.913 2.485 0 14.02 0 28.042-.379 42.226-.792 1.185-1.504 2.187-1.569 3.23-.428 6.913-.558 13.848-1.087 20.753-.876 11.443-1.47 22.941-3.112 34.281-2.14 14.772-5.165 29.416-7.848 44.108-5.186 28.39-13.549 55.955-23.424 82.956-9.716 26.565-20.923 52.605-34.988 77.26-7.457 13.07-14.552 26.421-23 38.836-12.784 18.789-26.147 37.23-40.136 55.136-10.706 13.704-22.484 26.61-34.31 39.384-7.981 8.62-16.803 16.47-25.385 24.52-6.728 6.31-13.287 12.888-20.584 18.483-17.778 13.632-35.61 27.24-54.03 39.978-25.079 17.341-51.816 31.885-79.512 44.695-26.876 12.43-54.465 22.946-82.923 31.032-16.145 4.588-32.507 8.503-48.924 12.004-12.377 2.64-24.963 4.396-37.517 6.08-12.312 1.652-24.69 2.852-37.063 3.986-6.892.631-13.84.656-20.749 1.139-.86.06-1.642 1.248-2.46 1.913-14.354 0-28.708 0-43.215-.373-1.34-.79-2.504-1.489-3.715-1.583-13.77-1.066-27.585-1.677-41.31-3.138-14.913-1.586-29.97-2.93-44.56-6.187a1139.346 1139.346 0 0 1-72.759-18.778c-31.392-9.218-61.471-21.976-90.305-37.45-16.955-9.1-33.841-18.422-50.118-28.662-13.851-8.714-27.185-18.379-40.026-28.535-17.068-13.5-34.235-27.053-49.886-42.115-16.73-16.1-32.259-33.544-47.346-51.225-12.024-14.092-23.078-29.085-33.706-44.278C85.42 910.61 68.5 880.912 54.883 849.447c-7.308-16.884-14.332-33.913-20.8-51.134-9.68-25.772-16.175-52.503-21.914-79.372-2.748-12.87-4.317-26.005-6.122-39.061-1.276-9.227-2.012-18.528-3.129-27.779-.092-.766-1.253-1.404-1.918-2.101m77.37 128.043c1.055 2.98 2.085 5.97 3.168 8.94 31.648 86.83 81.776 161.254 150.349 223.167 49.843 45.002 106.096 79.79 168.717 104.107 77.598 30.134 157.938 42.04 240.988 35.948 41.864-3.071 82.868-10.632 122.84-23.327 106.62-33.864 195.377-94.276 265.411-181.451 74.252-92.425 114.313-198.338 120.89-316.664 2.702-48.596-1.008-96.867-11.606-144.488-28.774-129.283-94.834-235.668-198.85-317.342C827.337 78.249 698.28 40.283 555.038 50.885c-49.613 3.672-97.82 14.226-144.391 31.593-110.75 41.3-199.824 110.757-266.475 208.331-60.046 87.906-91.35 185.542-94.955 291.89-2.256 66.56 7.553 131.469 29.154 195.344z"/>
    <path fill="none" d="M622.469 1201c.35-.665 1.13-1.854 1.991-1.913 6.91-.483 13.857-.508 20.75-1.14 12.372-1.133 24.75-2.333 37.062-3.985 12.554-1.684 25.14-3.44 37.517-6.08 16.417-3.501 32.78-7.416 48.924-12.004 28.458-8.086 56.047-18.601 82.923-31.032 27.696-12.81 54.433-27.354 79.513-44.695 18.419-12.737 36.251-26.346 54.029-39.978 7.297-5.595 13.856-12.174 20.584-18.484 8.582-8.049 17.404-15.9 25.384-24.52 11.827-12.773 23.605-25.679 34.31-39.383 13.99-17.907 27.353-36.347 40.138-55.136 8.447-12.415 15.542-25.766 23-38.837 14.064-24.654 25.27-50.694 34.987-77.259 9.875-27.001 18.238-54.566 23.424-82.956 2.683-14.692 5.709-29.336 7.848-44.108 1.643-11.34 2.236-22.838 3.112-34.28.529-6.906.66-13.84 1.087-20.755.065-1.042.777-2.044 1.57-2.76.378 193.232.378 386.16.378 579.305H622.469zM1201 578.531c-.665-.358-1.864-1.154-1.913-2.016-.474-8.246-.424-16.534-1.168-24.752-.985-10.897-2.385-21.765-3.9-32.604-1.849-13.22-3.52-26.494-6.16-39.565-2.654-13.143-6.357-26.077-9.686-39.08-6.46-25.238-15.043-49.827-25.455-73.62-9.14-20.888-19.663-41.24-30.688-61.213-9.142-16.56-19.47-32.522-30.09-48.195-8.566-12.643-18.315-24.488-27.605-36.637-16.537-21.624-35.887-40.686-55.581-59.3-13.418-12.681-27.92-24.277-42.47-35.68-12.65-9.912-25.725-19.366-39.201-28.117-14.38-9.338-29.273-17.932-44.258-26.284-30.883-17.213-63.31-31.069-97.096-41.356-23.632-7.196-47.625-13.346-71.706-18.874-13.925-3.197-28.333-4.33-42.55-6.199-6.983-.918-14.027-1.365-21.034-2.116-.72-.077-1.375-.772-1.75-1.552C832.93 1 1016.858 1 1201 1v577.531zM1 650.469c.665.228 1.826.866 1.918 1.632 1.117 9.251 1.853 18.552 3.129 27.779 1.805 13.056 3.374 26.19 6.122 39.06 5.739 26.87 12.233 53.601 21.914 79.373 6.468 17.22 13.492 34.25 20.8 51.134 13.618 31.465 30.537 61.163 50.17 89.23 10.629 15.192 21.683 30.185 33.707 44.277 15.087 17.681 30.617 35.125 47.346 51.225 15.65 15.062 32.818 28.615 49.886 42.115 12.84 10.156 26.175 19.821 40.026 28.535 16.277 10.24 33.163 19.561 50.118 28.661 28.834 15.475 58.913 28.233 90.305 37.45a1139.346 1139.346 0 0 0 72.758 18.78c14.591 3.256 29.648 4.6 44.56 6.186 13.726 1.46 27.542 2.072 41.311 3.138 1.211.094 2.376.792 3.246 1.583C385.741 1201 193.482 1201 1 1201V650.469zM549.531 1c-.513.666-1.434 1.787-2.488 1.93-15.361 2.086-30.758 3.92-46.113 6.05-34.952 4.849-68.841 14.036-101.92 26.098-16.402 5.98-32.485 12.886-48.514 19.829-33.001 14.293-63.922 32.37-93.2 53.159-14.475 10.278-28.804 20.918-42.144 32.599-18.04 15.796-35.907 31.963-52.29 49.431-16.292 17.37-31.333 36.04-45.662 55.088-12.532 16.659-24.327 34.06-34.601 52.18-12.019 21.198-22.819 43.184-32.686 65.474-8.675 19.597-16.373 39.771-22.599 60.269-6.61 21.766-11.375 44.127-16.185 66.393-3.086 14.282-4.906 28.844-7.061 43.315-.725 4.868-.663 9.848-1.114 14.763-.126 1.378-.798 2.705-1.587 3.739C1 367.74 1 184.479 1 1h548.531z"/>
    <path fill="#8B2332" d="M78.24 777.668C56.77 714.168 46.96 649.26 49.217 582.7c3.604-106.348 34.909-203.984 94.955-291.89 66.65-97.574 155.724-167.03 266.475-208.331 46.571-17.367 94.778-27.921 144.39-31.593 143.243-10.602 272.3 27.364 385.242 116.048 104.015 81.674 170.075 188.059 198.849 317.342 10.598 47.62 14.308 95.892 11.606 144.488-6.577 118.326-46.638 224.239-120.89 316.664-70.034 87.175-158.79 147.587-265.412 181.45-39.971 12.696-80.975 20.257-122.84 23.328-83.05 6.092-163.389-5.814-240.987-35.948-62.62-24.317-118.874-59.105-168.717-104.107-68.573-61.913-118.7-136.336-150.35-223.166-1.082-2.97-2.112-5.96-3.296-9.316m39.746-345.165c-2.846 8.877-5.91 17.692-8.5 26.644-11.335 39.17-17.963 79.16-19.292 119.898-.586 17.95-.406 36.016.937 53.916 1.54 20.525 3.755 41.106 7.435 61.343 9.604 52.813 27.623 102.774 53.452 149.889 30.112 54.926 68.939 102.787 116.442 143.574 38.304 32.889 80.637 59.449 126.837 79.825 56.652 24.985 115.984 39.043 177.738 42.151 33.775 1.7 67.534.36 101.12-4.606 50.44-7.46 98.752-21.856 144.743-43.77 62.433-29.748 116.69-70.48 162.675-122.223 33.665-37.88 61.227-79.71 82.352-125.773 32.954-71.855 48.843-147.278 46.069-226.322-.798-22.72-2.89-45.499-6.103-68.006-7.112-49.807-22.643-97.17-44.666-142.364-29.48-60.499-69.588-112.97-119.73-157.846-33.092-29.615-69.478-54.406-109.047-74.443-64.31-32.565-132.628-50.563-204.568-54.113-34.957-1.725-69.85-.015-104.535 5.518-56.582 9.026-110.14 26.82-160.701 53.768-59.404 31.662-110.573 73.471-153.539 125.184-39.013 46.957-68.711 99.318-89.119 157.756z"/>
    <path fill="#0E2240" d="M118.096 432.124c20.299-58.059 49.997-110.42 89.01-157.377 42.966-51.713 94.135-93.522 153.539-125.184 50.56-26.948 104.119-44.742 160.7-53.768 34.686-5.533 69.58-7.243 104.536-5.518 71.94 3.55 140.258 21.548 204.568 54.113 39.569 20.037 75.955 44.828 109.047 74.443 50.142 44.875 90.25 97.347 119.73 157.846 22.023 45.194 37.554 92.557 44.666 142.364 3.213 22.507 5.305 45.287 6.103 68.006 2.774 79.044-13.115 154.467-46.07 226.322-21.124 46.063-48.686 87.893-82.35 125.773-45.986 51.744-100.243 92.475-162.676 122.223-45.99 21.914-94.302 36.31-144.744 43.77-33.585 4.967-67.344 6.306-101.119 4.606-61.754-3.108-121.086-17.166-177.738-42.151-46.2-20.376-88.533-46.936-126.837-79.825-47.503-40.787-86.33-88.648-116.442-143.574-25.829-47.115-43.848-97.076-53.452-149.89-3.68-20.236-5.896-40.817-7.435-61.342-1.343-17.9-1.523-35.965-.937-53.916 1.33-40.739 7.957-80.729 19.291-119.898 2.59-8.952 5.655-17.767 8.61-27.023m481.499-273.22c-1.025 1.081-2.123 2.102-3.065 3.251a998501.694 998501.694 0 0 0-177.914 217.13c-.876 1.069-1.632 2.237-2.88 3.96 1.919-.405 3.048-.6 4.155-.883 24.146-6.17 48.323-12.22 72.397-18.66 3.704-.99 5.334.14 7.376 2.719a49060.446 49060.446 0 0 0 86.659 109.11c4.403 5.528 9.11 10.814 14.332 16.146 32.682-41.889 65.408-83.743 97.956-125.735 2.459-3.172 4.556-3.778 8.27-2.777 21.353 5.754 42.771 11.265 64.17 16.845 10.528 2.746 21.062 5.462 32.721 8.484-1.627-2.205-2.449-3.42-3.37-4.553-42.162-51.808-84.311-103.627-126.524-155.394a515.086 515.086 0 0 0-22.633-25.958c-6.93 9.158-13.86 18.317-21.201 26.96-2.68-6.217-5.38-12.423-8.033-18.65-7.307-17.154-14.593-34.316-22.416-51.995m92.422-7.45-1.361-.042c.465.18.93.36 1.596 1.213 22.728 10.994 43.779 24.687 63.797 39.984 50.319 38.45 94.14 83.544 134.543 132.097 7.09 8.52 13.876 17.292 20.991 26.183l-57.2 41.684 6.62 10.404c-1.387 1-2.418 1.811-3.515 2.523-83.917 54.487-167.857 108.941-251.698 163.546-3.085 2.01-4.896 1.24-7.414-.398-72.018-46.828-144.064-93.611-216.106-140.402l-38.678-25.12 6.661-10.59-57.4-41.636c34.94-44.95 72.484-86.389 114.24-123.93 31.178-28.032 64.117-53.633 101.757-72.633 1.085-.548 2.104-1.228 3.153-1.847-2.189-.624-4.124-.53-6.015-.191-24.52 4.39-48.117 11.825-70.814 22.018-64.15 28.808-118.675 70.915-166.923 121.546-10.422 10.937-20.122 22.561-30.316 34.05l-10.463-7.375-36.439 56.477 11.107 6.663c-.41.977-.684 1.738-1.04 2.458-25.808 52.11-43.31 106.892-52.543 164.287-7.139 44.372-8.75 88.82-.442 133.242 1.691 9.044 4.213 17.932 6.352 26.892l1.218-.212c-.021-26.892 3.991-53.276 9.936-79.392 13.99-61.463 36.692-119.79 63.852-176.49 4.582-9.567 9.489-18.98 14.435-28.842l61.718 34.695 6.507-9.732 239.986 150.818c-1.027.768-1.66 1.3-2.349 1.749a2542480.16 2542480.16 0 0 1-311.092 202.314c-.968.63-1.958 1.365-3.044 1.652-12.52 3.319-24.987 6.905-37.635 9.65-4.961 1.078-6.058 3.55-5.822 7.755.075 1.326.153 2.664.39 3.967 3.346 18.424 12.545 33.567 26.548 45.695 4.119 3.567 9.399 5.793 14.12 8.617 9.517-11.531 18.283-22.22 27.15-32.824 1.45-1.734 3.165-3.381 5.064-4.584 21.096-13.357 42.255-26.615 63.393-39.906 186.292-117.146 372.583-234.294 558.881-351.43 1.486-.935 3.062-1.726 4.712-2.65l6.293 9.532 61.798-34.563c.97 1.718 1.743 2.988 2.425 4.305 21.218 40.971 39.624 83.166 54.68 126.785 15.077 43.68 27.224 88.064 30.878 134.376.496 6.276.623 12.581.92 18.873 1.42-2.16 2.118-4.362 2.713-6.592 11.426-42.813 12.054-86.221 7.014-129.914-7.467-64.747-26.004-126.255-54.336-184.877-.77-1.592-1.484-3.21-2.288-4.957l11.067-6.53-36.423-56.665-10.232 7.255c-.932-1.09-1.485-1.705-2.006-2.348-37.089-45.803-80.244-84.961-129.353-117.5-36.284-24.042-74.816-43.407-117.283-54.023-8.62-2.154-17.556-3.043-26.285-5.11m31.763 560.263c66.068 41.557 132.011 83.315 198.307 124.505 13.484 8.378 25.402 17.828 34.662 30.744 4.323 6.03 9.407 11.517 13.966 17.032 22.292-5.47 45.816-44.788 40.925-64.102-13.35-3.452-26.877-6.891-40.361-10.492-2.492-.665-5.024-1.655-7.177-3.051-94.251-61.135-188.473-122.315-282.626-183.6-2.98-1.94-4.992-1.97-7.962-.144-11.482 7.054-23.148 13.806-34.734 20.691-3.897 2.316-7.757 4.693-12.082 7.313 32.552 20.468 64.523 40.572 97.082 61.104M584.453 957.98c.855-1.416 2.426-2.818 2.452-4.25.206-11.16.114-22.325.114-33.49v-12.178H448.884c3.506 36.293 17.412 67.305 42.567 93.58 26.22-24.587 56.797-39.14 93.002-43.662m51.048-50.307h-17.495v49.979c36.722 3.85 68.205 18.599 94.958 43.994 25.313-26.47 39.431-57.353 42.74-93.973H635.5m-176.288-70.938c-4.992 12.827-8.755 25.95-10.119 39.828h137.478V831.28c-36.567-4.098-68.36-18.567-95.177-43.519-11.13 9.918-24.494 30.28-32.182 48.976m294.517 29.129c-6.21-29.94-19.547-56.1-40.868-78.313-27.06 25.342-58.525 39.728-94.804 43.68v45.217H755.33c-.523-3.528-.985-6.634-1.599-10.584m-76.209-105.876c-18.578-10.326-38.377-16.666-59.506-18.773v58.823c27.269-3.612 50.743-14.32 71.265-33.022-4.05-2.445-7.575-4.573-11.759-7.028m-107.474 285.464 16.418 2.768v-59.377c-27.355 3.714-50.923 14.506-71.258 32.605 9.946 8.75 36.107 20.223 54.84 24.004M586.833 774.5v-33.505c-26.38 2.987-49.949 11.486-71.657 26.432 20.657 18.346 44.215 29.125 71.657 32.61V774.5m52.099 269.955c18-4.567 34.752-11.824 50.22-22.782-20.656-18.465-44.05-29.404-71.086-32.718v59.432c7.009-1.281 13.544-2.476 20.866-3.932m-124.93-892.721-.187-.445c-.067.162-.134.323.187.445z"/>
    <path fill="#FEC527" d="M691.956 152.048c8.79 1.473 17.726 2.362 26.346 4.516 42.467 10.616 80.999 29.98 117.283 54.023 49.109 32.539 92.264 71.697 129.353 117.5.52.643 1.074 1.258 2.006 2.348l10.232-7.255 36.423 56.666-11.067 6.53c.804 1.745 1.518 3.364 2.288 4.956 28.332 58.622 46.87 120.13 54.336 184.877 5.04 43.693 4.412 87.1-7.014 129.914-.595 2.23-1.293 4.432-2.712 6.592-.298-6.292-.425-12.597-.92-18.873-3.655-46.312-15.802-90.695-30.88-134.376-15.055-43.62-33.46-85.814-54.68-126.785-.681-1.317-1.453-2.587-2.424-4.305l-61.798 34.563-6.293-9.532c-1.65.924-3.226 1.715-4.712 2.65-186.298 117.136-372.589 234.284-558.881 351.43-21.138 13.291-42.297 26.55-63.393 39.906-1.9 1.203-3.615 2.85-5.064 4.584-8.867 10.604-17.633 21.293-27.15 32.824-4.721-2.824-10.001-5.05-14.12-8.617-14.003-12.128-23.202-27.271-26.549-45.695-.236-1.303-.314-2.64-.389-3.967-.236-4.204.86-6.677 5.822-7.754 12.648-2.746 25.114-6.332 37.635-9.65 1.086-.288 2.076-1.024 3.044-1.653 103.703-67.43 207.4-134.87 311.092-202.314.689-.448 1.322-.981 2.349-1.75L312.133 452.585l-6.507 9.732-61.718-34.695c-4.946 9.862-9.853 19.275-14.435 28.842-27.16 56.7-49.862 115.027-63.852 176.49-5.945 26.116-9.957 52.5-9.936 79.392l-1.218.212c-2.139-8.96-4.66-17.848-6.352-26.892-8.307-44.423-6.697-88.87.442-133.242 9.233-57.395 26.735-112.177 52.543-164.287.356-.72.63-1.481 1.04-2.458l-11.107-6.663 36.439-56.477 10.463 7.375c10.194-11.489 19.894-23.113 30.316-34.05 48.248-50.63 102.774-92.738 166.923-121.546 22.697-10.193 46.294-17.627 70.814-22.018 1.891-.34 3.826-.433 6.015.191-1.05.619-2.068 1.3-3.153 1.847-37.64 19-70.579 44.601-101.758 72.633-41.755 37.541-79.3 78.98-114.24 123.93l57.401 41.636-6.661 10.59 38.678 25.12c72.042 46.79 144.088 93.574 216.106 140.402 2.518 1.638 4.33 2.408 7.414.398 83.841-54.605 167.78-109.059 251.698-163.546 1.097-.712 2.128-1.524 3.514-2.523l-6.62-10.404 57.201-41.684c-7.115-8.891-13.902-17.663-20.991-26.183-40.404-48.553-84.224-93.646-134.543-132.097-20.018-15.297-41.069-28.99-63.921-40.297-.124-.312-.172-.264-.172-.264z"/>
    <path fill="#FEC627" d="M651.831 202.388c7.356 8.714 14.841 17.323 22.047 26.16 42.213 51.766 84.362 103.585 126.524 155.393.921 1.133 1.743 2.348 3.37 4.553-11.659-3.022-22.193-5.738-32.72-8.484-21.4-5.58-42.818-11.091-64.17-16.845-3.715-1-5.812-.395-8.27 2.777-32.549 41.992-65.275 83.846-98.309 125.317-.349-108.727-.346-217.037-.336-325.347 0-2.162.103-4.325.157-6.488 7.294 17.159 14.58 34.321 21.887 51.474 2.652 6.228 5.354 12.434 8.273 19.302 7.073 16.4 13.907 32.147 20.74 47.896l.807-.237v-75.471z"/>
    <path fill="#FEFEFE" d="M599.86 159.164c.21 2.423.108 4.586.107 6.748-.01 108.31-.013 216.62.008 325.38-4.543-4.947-9.249-10.233-13.652-15.761a49060.446 49060.446 0 0 1-86.66-109.11c-2.041-2.58-3.671-3.71-7.375-2.719-24.074 6.44-48.251 12.49-72.397 18.66-1.107.283-2.236.478-4.155.883 1.248-1.723 2.004-2.891 2.88-3.96a998501.694 998501.694 0 0 1 177.914-217.13c.942-1.149 2.04-2.17 3.33-2.99z"/>
    <path fill="#FEC527" d="M723.486 711.503c-32.265-20.318-64.236-40.422-96.788-60.89 4.325-2.62 8.185-4.997 12.082-7.313 11.586-6.885 23.252-13.637 34.734-20.691 2.97-1.825 4.983-1.795 7.962.144 94.153 61.285 188.375 122.465 282.626 183.6 2.153 1.396 4.685 2.386 7.177 3.051 13.484 3.6 27.012 7.04 40.36 10.492 4.892 19.314-18.632 58.632-40.924 64.102-4.56-5.515-9.643-11.001-13.966-17.032-9.26-12.916-21.178-22.366-34.662-30.744-66.296-41.19-132.24-82.948-198.6-124.72zM584.005 958.01c-35.757 4.493-66.335 19.046-92.554 43.634-25.155-26.276-39.06-57.288-42.567-93.581h138.135v12.179c0 11.164.092 22.33-.114 33.49-.026 1.43-1.597 2.833-2.9 4.278z"/>
    <path fill="#FEC627" d="M636 907.674h119.703c-3.308 36.62-17.426 67.502-42.739 93.973-26.753-25.395-58.236-40.143-94.958-43.994v-49.979H636z"/>
    <path fill="#FDFDFD" d="M459.39 836.395c7.511-18.354 20.876-38.717 32.005-48.635 26.817 24.952 58.61 39.421 95.177 43.519v45.285H449.094c1.364-13.877 5.127-27.001 10.295-40.169z"/>
    <path fill="#FDFDFE" d="M753.807 866.286c.537 3.529.999 6.635 1.522 10.163H618.06v-45.217c36.278-3.952 67.743-18.338 94.803-43.68 21.32 22.213 34.657 48.373 40.945 78.734z"/>
    <path fill="#FDFDFD" d="M677.85 760.153c3.855 2.291 7.38 4.42 11.43 6.864-20.522 18.702-43.996 29.41-71.265 33.022v-58.823c21.129 2.107 40.928 8.447 59.835 18.937z"/>
    <path fill="#FCC427" d="M569.64 1045.341c-18.326-3.669-44.487-15.143-54.433-23.892 20.335-18.099 43.903-28.891 71.258-32.605v59.377c-5.517-.93-10.967-1.85-16.825-2.88z"/>
    <path fill="#FCFCFD" d="M586.833 775v25.037c-27.442-3.485-51-14.264-71.657-32.61 21.708-14.946 45.277-23.445 71.657-26.432V775z"/>
    <path fill="#FDC527" d="M638.538 1044.585c-6.928 1.326-13.463 2.52-20.472 3.802v-59.432c27.036 3.314 50.43 14.253 71.086 32.718-15.468 10.958-32.22 18.215-50.614 22.912z"/>
    <path fill="#FEFEFC" d="M651.538 202.488c.293 25.057.293 50.214.293 75.371l-.807.237c-6.833-15.749-13.667-31.497-20.534-47.638 6.895-9.552 13.825-18.71 21.048-27.97z"/>
    <path fill="#FEC527" d="M692.028 151.975a23.188 23.188 0 0 0-1.372-.563c.453.014.907.028 1.33.34-.03.296.018.248.042.223zM513.808 151.753c-.127-.141-.06-.302.007-.464.062.149.125.297-.007.464z"/>
</svg>