<svg version="1.1" id="Layer_1" xmlns="http://www.w3.org/2000/svg" xmlns:xlink="http://www.w3.org/1999/xlink" x="0px" y="0px"
	 width="100%" viewBox="0 0 2400 2400" enable-background="new 0 0 2400 2400" xml:space="preserve">
<path fill="none" opacity="1.000000" stroke="none"
	d="
M2.000000,810.000000 
	C2.000000,540.000000 2.000000,271.000000 2.000000,2.000000 
	C802.000000,2.000000 1602.000000,2.000000 2402.000000,2.000000 
	C2402.000000,802.000000 2402.000000,1602.000000 2402.000000,2402.000000 
	C1602.000000,2402.000000 802.000000,2402.000000 2.000000,2402.000000 
	C2.000000,1871.666626 2.000000,1341.333374 2.000000,810.000000 
M1151.298950,2295.512939 
	C1160.116699,2295.659912 1168.936035,2295.968018 1177.751221,2295.873047 
	C1181.221069,2295.835449 1184.681396,2294.897705 1189.948486,2294.220947 
	C1196.585938,2294.272949 1203.223511,2294.324951 1211.196533,2295.375244 
	C1218.692627,2295.568604 1226.191895,2295.983398 1233.683716,2295.875488 
	C1238.454468,2295.806885 1243.214111,2294.962891 1249.782471,2294.425293 
	C1255.197510,2294.247314 1260.612549,2294.069336 1267.863647,2294.279297 
	C1369.827271,2294.191895 1471.790771,2294.105225 1573.754395,2294.000244 
	C1574.036499,2294.000000 1574.354736,2293.779785 1574.590210,2293.583252 
	C1574.840210,2293.374268 1575.011353,2293.070801 1575.925049,2291.904541 
	C1575.925049,2274.947998 1575.925049,2257.076660 1575.925049,2238.246582 
	C1788.041504,2238.246582 1999.452515,2238.246582 2211.882568,2238.246582 
	C2211.882568,2119.181885 2211.882568,2001.095581 2211.882568,1881.948975 
	C2240.323975,1881.948975 2267.760254,1881.948975 2295.667969,1881.948975 
	C2295.667969,1877.939453 2295.667969,1874.978394 2295.667969,1872.017334 
	C2295.667969,1677.400024 2295.668945,1482.782837 2295.659424,1288.165527 
	C2295.659180,1285.502808 2295.528809,1282.840088 2295.954102,1278.337646 
	C2295.876465,1257.009155 2295.799072,1235.680786 2296.002686,1212.455811 
	C2295.900635,1202.183105 2295.798584,1191.910278 2295.718506,1179.811890 
	C2295.630859,1158.480347 2295.543457,1137.148682 2295.646729,1113.974731 
	C2295.555420,896.062256 2295.464111,678.149780 2295.349854,460.237335 
	C2295.349609,459.975861 2295.018066,459.700439 2294.811035,459.457184 
	C2294.595947,459.204376 2294.344238,458.982574 2293.463867,458.103943 
	C2266.904053,458.103943 2239.692139,458.103943 2211.533691,458.103943 
	C2211.533691,339.378967 2211.533691,221.291779 2211.533691,102.327354 
	C2206.673096,102.327354 2202.750488,102.327354 2198.827637,102.327354 
	C1900.270630,102.327354 1601.713501,102.326569 1303.156494,102.336403 
	C1299.494751,102.336525 1295.833008,102.472794 1290.330811,102.055550 
	C1275.675049,102.131935 1261.019165,102.208321 1244.462646,101.992531 
	C1213.491699,102.128761 1182.520630,102.264992 1149.737305,102.304466 
	C1135.099609,102.383751 1120.462036,102.463036 1103.981567,102.344978 
	C860.180298,102.344978 616.379089,102.344978 371.611938,102.344978 
	C371.611938,221.342194 371.611938,339.434357 371.611938,458.487793 
	C281.872681,458.487793 193.094681,458.487793 103.662514,458.487793 
	C103.662514,463.068176 103.662514,466.685699 103.662514,470.303192 
	C103.662514,681.878052 103.660690,893.452942 103.677628,1105.027832 
	C103.677925,1108.683105 103.904694,1112.338257 103.594666,1117.763550 
	C103.662819,1122.663940 103.730972,1127.564209 103.220284,1134.210327 
	C103.431229,1166.717407 103.707085,1199.224243 103.794067,1231.731567 
	C103.809967,1237.675293 102.798302,1243.618530 102.740051,1249.566772 
	C102.693069,1254.363647 103.368546,1259.167603 103.627136,1265.752563 
	C103.763214,1270.504883 103.899300,1275.257202 103.697777,1281.856445 
	C103.686630,1598.066040 103.674019,1914.275757 103.690102,2230.485352 
	C103.690231,2233.007324 104.079750,2235.529053 104.356842,2238.893555 
	C349.723999,2238.893555 594.438477,2238.893555 839.796875,2238.893555 
	C839.796875,2257.672852 839.796875,2275.554932 839.796875,2294.335205 
	C843.321594,2294.335205 846.222961,2294.335205 849.124268,2294.335205 
	C940.421875,2294.335205 1031.719482,2294.339600 1123.017090,2294.316406 
	C1126.002075,2294.315674 1128.987061,2294.036377 1133.726562,2294.353271 
	C1139.156250,2294.393311 1144.585815,2294.433350 1151.298950,2295.512939 
z"/>
<path fill="none" opacity="1.000000" stroke="none"
	d="
M1292.171387,102.545509 
	C1295.833008,102.472794 1299.494751,102.336525 1303.156494,102.336403 
	C1601.713501,102.326569 1900.270630,102.327354 2198.827637,102.327354 
	C2202.750488,102.327354 2206.673096,102.327354 2211.533691,102.327354 
	C2211.533691,221.291779 2211.533691,339.378967 2211.533691,458.103943 
	C2239.692139,458.103943 2266.904053,458.103943 2293.463867,458.103943 
	C2294.344238,458.982574 2294.595947,459.204376 2294.811035,459.457184 
	C2295.018066,459.700439 2295.349609,459.975861 2295.349854,460.237335 
	C2295.464111,678.149780 2295.555420,896.062256 2294.997803,1114.859131 
	C2293.614990,1115.798584 2292.880859,1115.853882 2291.978271,1115.053711 
	C2291.326172,1109.256348 2290.951416,1104.301147 2290.341309,1099.374878 
	C2287.041504,1072.729736 2284.393555,1045.979614 2280.209473,1019.472717 
	C2268.729004,946.738831 2249.341309,876.086426 2223.006836,807.304871 
	C2192.329102,727.178955 2152.940186,651.686462 2104.678467,580.716858 
	C2067.168457,525.557922 2024.817383,474.464020 1978.102051,426.958405 
	C1953.640991,402.083496 1927.798950,378.682770 1901.016602,356.286255 
	C1842.644165,307.472748 1779.822144,265.275696 1712.640381,229.677353 
	C1641.326782,191.889603 1566.688965,162.350922 1488.783691,141.018799 
	C1424.258789,123.350479 1358.674194,111.917206 1292.110107,105.266296 
	C1292.132080,103.994698 1292.151733,103.270103 1292.171387,102.545509 
z"/>
<path fill="#B0AFAF" opacity="1.000000" stroke="none"
	d="
M1292.107544,105.813316 
	C1358.674194,111.917206 1424.258789,123.350479 1488.783691,141.018799 
	C1566.688965,162.350922 1641.326782,191.889603 1712.640381,229.677353 
	C1779.822144,265.275696 1842.644165,307.472748 1901.016602,356.286255 
	C1927.798950,378.682770 1953.640991,402.083496 1978.102051,426.958405 
	C2024.817383,474.464020 2067.168457,525.557922 2104.678467,580.716858 
	C2152.940186,651.686462 2192.329102,727.178955 2223.006836,807.304871 
	C2249.341309,876.086426 2268.729004,946.738831 2280.209473,1019.472717 
	C2284.393555,1045.979614 2287.041504,1072.729736 2290.341309,1099.374878 
	C2290.951416,1104.301147 2291.326172,1109.256348 2291.861816,1115.952148 
	C2292.831787,1138.464966 2293.742188,1159.224365 2294.707275,1179.981201 
	C2294.733887,1180.547363 2295.353271,1181.086060 2295.696289,1181.637573 
	C2295.798584,1191.910278 2295.900635,1202.183105 2295.370361,1214.024170 
	C2294.338379,1229.196289 2294.016846,1242.802734 2293.509277,1256.402344 
	C2293.214600,1264.307007 2292.620850,1272.200562 2291.991699,1280.965088 
	C2290.679688,1293.364380 2289.512695,1304.895264 2288.400146,1316.431641 
	C2284.189209,1360.103149 2276.402832,1403.143555 2266.644043,1445.910278 
	C2247.920410,1527.962280 2219.585693,1606.556152 2182.614014,1682.052002 
	C2157.864502,1732.589966 2129.155518,1780.818237 2096.887939,1826.972290 
	C2063.658691,1874.501953 2026.782715,1918.990723 1986.614502,1960.727051 
	C1955.451416,1993.106934 1922.152466,2023.236816 1887.120850,2051.414551 
	C1820.222168,2105.224609 1748.099854,2150.702393 1670.549438,2187.614990 
	C1604.918823,2218.854004 1536.910400,2243.380615 1466.414062,2261.024414 
	C1420.642944,2272.479980 1374.403198,2281.424316 1327.440552,2286.324463 
	C1307.007812,2288.456055 1286.545410,2290.303955 1265.191772,2292.169678 
	C1258.792603,2292.021729 1253.298218,2291.984863 1246.880859,2291.998047 
	C1236.658203,2292.058350 1227.353516,2291.897461 1218.062378,2292.183594 
	C1215.308716,2292.268555 1212.593750,2293.610596 1209.860962,2294.376709 
	C1203.223511,2294.324951 1196.585938,2294.272949 1188.474243,2293.655762 
	C1174.740112,2292.707520 1162.480103,2292.324951 1149.297729,2291.972168 
	C1142.883545,2292.098145 1137.391846,2292.193848 1131.034668,2292.069824 
	C1110.364746,2290.017822 1090.546387,2288.322266 1070.758545,2286.325684 
	C1027.093140,2281.919189 984.022583,2273.853271 941.439941,2263.502686 
	C848.923828,2241.015381 760.729126,2207.169189 676.916138,2161.831543 
	C587.116638,2113.255615 505.908173,2053.092285 432.705627,1982.067993 
	C405.958557,1956.116821 380.906494,1928.549438 357.063049,1899.886230 
	C300.229675,1831.564453 252.324539,1757.547607 213.477600,1677.560059 
	C177.466476,1603.411621 150.140488,1526.312744 131.419662,1446.057129 
	C118.657890,1391.347900 110.527344,1335.978271 105.962517,1279.177490 
	C105.038284,1273.565918 108.189423,1268.150269 103.723495,1263.968506 
	C103.368546,1259.167603 102.693069,1254.363647 102.740051,1249.566772 
	C102.798302,1243.618530 103.809967,1237.675293 103.794067,1231.731567 
	C103.707085,1199.224243 103.431229,1166.717407 104.226204,1132.861328 
	C105.457367,1126.329956 105.682610,1121.147827 106.079010,1115.108887 
	C109.511490,1085.950928 112.143227,1057.559448 116.180992,1029.369263 
	C122.305519,986.610229 131.838974,944.533081 143.454041,902.908691 
	C158.300171,849.705139 177.084381,797.983215 199.816818,747.638123 
	C224.369492,693.261719 252.951645,641.130310 285.914368,591.428406 
	C309.638000,555.657288 335.633514,521.582947 363.312561,488.749969 
	C397.470459,448.231750 434.420349,410.428497 474.180511,375.502411 
	C515.907349,338.848724 560.142883,305.388275 606.980286,275.384155 
	C654.981201,244.634644 705.056946,217.710541 757.151184,194.785446 
	C824.204041,165.277573 893.617188,142.696915 965.334412,127.229301 
	C1011.779358,117.212288 1058.626953,110.232582 1106.775391,105.942810 
	C1116.139648,105.414200 1124.627075,104.798920 1133.107300,104.098953 
	C1139.259521,103.591148 1145.402588,102.971169 1151.549683,102.401222 
	C1182.520630,102.264992 1213.491699,102.128761 1246.039062,102.617508 
	C1256.213745,103.650299 1264.815063,104.000977 1273.409058,104.485008 
	C1279.646973,104.836342 1285.875122,105.364182 1292.107544,105.813316 
M2226.137695,1477.108643 
	C2250.199219,1389.635254 2262.241455,1300.425903 2263.403809,1209.819458 
	C2263.779297,1180.554077 2261.783936,1151.240356 2260.358154,1121.973877 
	C2258.232666,1078.335815 2251.904297,1035.172607 2243.405029,992.388489 
	C2222.433105,886.817444 2186.654297,786.486694 2135.233154,691.841980 
	C2052.565918,539.686462 1939.680786,414.750916 1796.567505,317.333160 
	C1688.869141,244.022614 1571.373291,192.629639 1444.654785,162.365585 
	C1378.733765,146.621750 1311.847656,137.356430 1244.182007,134.548615 
	C1199.570557,132.697433 1154.949097,133.574127 1110.367432,137.450302 
	C1066.188232,141.291458 1022.387085,147.413101 979.063538,156.649445 
	C840.888611,186.107574 713.361755,240.594254 596.786438,320.494995 
	C502.251587,385.289215 420.344727,463.439331 351.104126,554.708130 
	C275.267517,654.671326 218.944077,764.733276 181.881454,884.667236 
	C150.083496,987.564880 134.706818,1092.915771 134.560989,1200.492920 
	C134.528076,1224.777832 136.355209,1249.074463 137.632263,1273.349609 
	C139.646103,1311.629883 144.933548,1349.516479 151.715454,1387.222168 
	C171.746490,1498.589478 208.718643,1604.019897 262.458923,1703.571411 
	C321.776031,1813.453613 398.112732,1909.882812 491.348114,1992.958374 
	C573.597168,2066.244629 665.096130,2125.169189 765.644470,2170.114502 
	C888.348694,2224.963867 1016.995239,2255.126709 1151.098389,2261.306641 
	C1187.306519,2262.975342 1223.709473,2261.406494 1259.989624,2260.263916 
	C1304.982544,2258.846924 1349.467896,2252.506104 1393.725586,2244.379395 
	C1492.314331,2226.275635 1586.367554,2194.587891 1675.876587,2149.657471 
	C1798.510010,2088.099365 1905.394409,2005.911133 1996.374634,1903.097168 
	C2052.734863,1839.406494 2100.689209,1769.922607 2140.416748,1694.759033 
	C2176.817139,1625.890259 2205.128418,1553.802612 2226.137695,1477.108643 
z"/>
<path fill="none" opacity="1.000000" stroke="none"
	d="
M105.878716,1280.047119 
	C110.527344,1335.978271 118.657890,1391.347900 131.419662,1446.057129 
	C150.140488,1526.312744 177.466476,1603.411621 213.477600,1677.560059 
	C252.324539,1757.547607 300.229675,1831.564453 357.063049,1899.886230 
	C380.906494,1928.549438 405.958557,1956.116821 432.705627,1982.067993 
	C505.908173,2053.092285 587.116638,2113.255615 676.916138,2161.831543 
	C760.729126,2207.169189 848.923828,2241.015381 941.439941,2263.502686 
	C984.022583,2273.853271 1027.093140,2281.919189 1070.758545,2286.325684 
	C1090.546387,2288.322266 1110.364746,2290.017822 1131.038330,2292.469727 
	C1131.907593,2293.089111 1131.972046,2293.886719 1131.972046,2293.886719 
	C1128.987061,2294.036377 1126.002075,2294.315674 1123.017090,2294.316406 
	C1031.719482,2294.339600 940.421875,2294.335205 849.124268,2294.335205 
	C846.222961,2294.335205 843.321594,2294.335205 839.796875,2294.335205 
	C839.796875,2275.554932 839.796875,2257.672852 839.796875,2238.893555 
	C594.438477,2238.893555 349.723999,2238.893555 104.356842,2238.893555 
	C104.079750,2235.529053 103.690231,2233.007324 103.690102,2230.485352 
	C103.674019,1914.275757 103.686630,1598.066040 104.327728,1280.926880 
	C104.957680,1279.997314 105.878716,1280.047119 105.878716,1280.047119 
z"/>
<path fill="none" opacity="1.000000" stroke="none"
	d="
M1266.096558,2292.280762 
	C1286.545410,2290.303955 1307.007812,2288.456055 1327.440552,2286.324463 
	C1374.403198,2281.424316 1420.642944,2272.479980 1466.414062,2261.024414 
	C1536.910400,2243.380615 1604.918823,2218.854004 1670.549438,2187.614990 
	C1748.099854,2150.702393 1820.222168,2105.224609 1887.120850,2051.414551 
	C1922.152466,2023.236816 1955.451416,1993.106934 1986.614502,1960.727051 
	C2026.782715,1918.990723 2063.658691,1874.501953 2096.887939,1826.972290 
	C2129.155518,1780.818237 2157.864502,1732.589966 2182.614014,1682.052002 
	C2219.585693,1606.556152 2247.920410,1527.962280 2266.644043,1445.910278 
	C2276.402832,1403.143555 2284.189209,1360.103149 2288.400146,1316.431641 
	C2289.512695,1304.895264 2290.679688,1293.364380 2292.543945,1280.957275 
	C2293.996826,1280.114868 2294.728027,1280.146118 2295.458984,1280.177368 
	C2295.528809,1282.840088 2295.659180,1285.502808 2295.659424,1288.165527 
	C2295.668945,1482.782837 2295.667969,1677.400024 2295.667969,1872.017334 
	C2295.667969,1874.978394 2295.667969,1877.939453 2295.667969,1881.948975 
	C2267.760254,1881.948975 2240.323975,1881.948975 2211.882568,1881.948975 
	C2211.882568,2001.095581 2211.882568,2119.181885 2211.882568,2238.246582 
	C1999.452515,2238.246582 1788.041504,2238.246582 1575.925049,2238.246582 
	C1575.925049,2257.076660 1575.925049,2274.947998 1575.925049,2291.904541 
	C1575.011353,2293.070801 1574.840210,2293.374268 1574.590210,2293.583252 
	C1574.354736,2293.779785 1574.036499,2294.000000 1573.754395,2294.000244 
	C1471.790771,2294.105225 1369.827271,2294.191895 1266.975464,2293.683105 
	C1266.087280,2293.087158 1266.096558,2292.280762 1266.096558,2292.280762 
z"/>
<path fill="none" opacity="1.000000" stroke="none"
	d="
M1105.895386,105.819862 
	C1058.626953,110.232582 1011.779358,117.212288 965.334412,127.229301 
	C893.617188,142.696915 824.204041,165.277573 757.151184,194.785446 
	C705.056946,217.710541 654.981201,244.634644 606.980286,275.384155 
	C560.142883,305.388275 515.907349,338.848724 474.180511,375.502411 
	C434.420349,410.428497 397.470459,448.231750 363.312561,488.749969 
	C335.633514,521.582947 309.638000,555.657288 285.914368,591.428406 
	C252.951645,641.130310 224.369492,693.261719 199.816818,747.638123 
	C177.084381,797.983215 158.300171,849.705139 143.454041,902.908691 
	C131.838974,944.533081 122.305519,986.610229 116.180992,1029.369263 
	C112.143227,1057.559448 109.511490,1085.950928 105.608833,1115.138428 
	C104.967491,1116.024414 104.025780,1115.993530 104.025780,1115.993530 
	C103.904694,1112.338257 103.677925,1108.683105 103.677628,1105.027832 
	C103.660690,893.452942 103.662514,681.878052 103.662514,470.303192 
	C103.662514,466.685699 103.662514,463.068176 103.662514,458.487793 
	C193.094681,458.487793 281.872681,458.487793 371.611938,458.487793 
	C371.611938,339.434357 371.611938,221.342194 371.611938,102.344978 
	C616.379089,102.344978 860.180298,102.344978 1104.856689,102.990906 
	C1105.786255,104.364517 1105.840820,105.092186 1105.895386,105.819862 
z"/>
<path fill="#434343" opacity="1.000000" stroke="none" 
	d="
M2295.707520,1180.724731 
	C2295.353271,1181.086060 2294.733887,1180.547363 2294.707275,1179.981201 
	C2293.742188,1159.224365 2292.831787,1138.464966 2292.030518,1116.807495 
	C2292.880859,1115.853882 2293.614990,1115.798584 2294.902344,1115.780273 
	C2295.543457,1137.148682 2295.630859,1158.480347 2295.707520,1180.724731 
z"/>
<path fill="#444444" opacity="1.000000" stroke="none" 
	d="
M2295.706543,1279.257568 
	C2294.728027,1280.146118 2293.996826,1280.114868 2292.713867,1280.091309 
	C2292.620850,1272.200562 2293.214600,1264.307007 2293.509277,1256.402344 
	C2294.016846,1242.802734 2294.338379,1229.196289 2295.229980,1214.972412 
	C2295.799072,1235.680786 2295.876465,1257.009155 2295.706543,1279.257568 
z"/>
<path fill="#BAB9B9" opacity="1.000000" stroke="none" 
	d="
M1210.528809,2294.875977 
	C1212.593750,2293.610596 1215.308716,2292.268555 1218.062378,2292.183594 
	C1227.353516,2291.897461 1236.658203,2292.058350 1246.811523,2292.635742 
	C1247.769775,2293.637695 1247.874268,2294.052246 1247.978760,2294.466797 
	C1243.214111,2294.962891 1238.454468,2295.806885 1233.683716,2295.875488 
	C1226.191895,2295.983398 1218.692627,2295.568604 1210.528809,2294.875977 
z"/>
<path fill="#B9B9B9" opacity="1.000000" stroke="none" 
	d="
M1150.220215,2291.942139 
	C1162.480103,2292.324951 1174.740112,2292.707520 1187.572998,2293.730225 
	C1184.681396,2294.897705 1181.221069,2295.835449 1177.751221,2295.873047 
	C1168.936035,2295.968018 1160.116699,2295.659912 1150.829590,2294.370117 
	C1150.313599,2292.798584 1150.266968,2292.370361 1150.220215,2291.942139 
z"/>
<path fill="#414141" opacity="1.000000" stroke="none" 
	d="
M1292.110107,105.266296 
	C1285.875122,105.364182 1279.646973,104.836342 1273.409058,104.485008 
	C1264.815063,104.000977 1256.213745,103.650299 1246.989502,102.763596 
	C1261.019165,102.208321 1275.675049,102.131935 1291.251099,102.300529 
	C1292.151733,103.270103 1292.132080,103.994698 1292.110107,105.266296 
z"/>
<path fill="#414141" opacity="1.000000" stroke="none" 
	d="
M1106.775391,105.942810 
	C1105.840820,105.092186 1105.786255,104.364517 1105.778076,103.089584 
	C1120.462036,102.463036 1135.099609,102.383751 1150.643555,102.352844 
	C1145.402588,102.971169 1139.259521,103.591148 1133.107300,104.098953 
	C1124.627075,104.798920 1116.139648,105.414200 1106.775391,105.942810 
z"/>
<path fill="#2C2C2C" opacity="1.000000" stroke="none" 
	d="
M1248.880615,2294.446045 
	C1247.874268,2294.052246 1247.769775,2293.637695 1247.734497,2292.585449 
	C1253.298218,2291.984863 1258.792603,2292.021729 1265.191772,2292.169678 
	C1266.096558,2292.280762 1266.087280,2293.087158 1266.057373,2293.489258 
	C1260.612549,2294.069336 1255.197510,2294.247314 1248.880615,2294.446045 
z"/>
<path fill="#2C2C2C" opacity="1.000000" stroke="none" 
	d="
M1149.297729,2291.972168 
	C1150.266968,2292.370361 1150.313599,2292.798584 1150.187988,2293.850098 
	C1144.585815,2294.433350 1139.156250,2294.393311 1132.849365,2294.120117 
	C1131.972046,2293.886719 1131.907593,2293.089111 1131.903809,2292.689453 
	C1137.391846,2292.193848 1142.883545,2292.098145 1149.297729,2291.972168 
z"/>
<path fill="#2E2E2E" opacity="1.000000" stroke="none" 
	d="
M105.962517,1279.177490 
	C105.878716,1280.047119 104.957680,1279.997314 104.496529,1280.003418 
	C103.899300,1275.257202 103.763214,1270.504883 103.675316,1264.860596 
	C108.189423,1268.150269 105.038284,1273.565918 105.962517,1279.177490 
z"/>
<path fill="#2D2C2C" opacity="1.000000" stroke="none" 
	d="
M103.810226,1116.878540 
	C104.025780,1115.993530 104.967491,1116.024414 105.437668,1115.994995 
	C105.682610,1121.147827 105.457367,1126.329956 104.515625,1131.988403 
	C103.730972,1127.564209 103.662819,1122.663940 103.810226,1116.878540 
z"/>
<path fill="#013EA6" opacity="1.000000" stroke="none" 
	d="
M2225.982910,1477.912354 
	C2205.128418,1553.802612 2176.817139,1625.890259 2140.416748,1694.759033 
	C2100.689209,1769.922607 2052.734863,1839.406494 1996.374634,1903.097168 
	C1905.394409,2005.911133 1798.510010,2088.099365 1675.876587,2149.657471 
	C1586.367554,2194.587891 1492.314331,2226.275635 1393.725586,2244.379395 
	C1349.467896,2252.506104 1304.982544,2258.846924 1259.989624,2260.263916 
	C1223.709473,2261.406494 1187.306519,2262.975342 1151.098389,2261.306641 
	C1016.995239,2255.126709 888.348694,2224.963867 765.644470,2170.114502 
	C665.096130,2125.169189 573.597168,2066.244629 491.348114,1992.958374 
	C398.112732,1909.882812 321.776031,1813.453613 262.458923,1703.571411 
	C208.718643,1604.019897 171.746490,1498.589478 151.715454,1387.222168 
	C144.933548,1349.516479 139.646103,1311.629883 137.632263,1273.349609 
	C136.355209,1249.074463 134.528076,1224.777832 134.560989,1200.492920 
	C134.706818,1092.915771 150.083496,987.564880 181.881454,884.667236 
	C218.944077,764.733276 275.267517,654.671326 351.104126,554.708130 
	C420.344727,463.439331 502.251587,385.289215 596.786438,320.494995 
	C713.361755,240.594254 840.888611,186.107574 979.063538,156.649445 
	C1022.387085,147.413101 1066.188232,141.291458 1110.367432,137.450302 
	C1154.949097,133.574127 1199.570557,132.697433 1244.182007,134.548615 
	C1311.847656,137.356430 1378.733765,146.621750 1444.654785,162.365585 
	C1571.373291,192.629639 1688.869141,244.022614 1796.567505,317.333160 
	C1939.680786,414.750916 2052.565918,539.686462 2135.233154,691.841980 
	C2186.654297,786.486694 2222.433105,886.817444 2243.405029,992.388489 
	C2251.904297,1035.172607 2258.232666,1078.335815 2260.358154,1121.973877 
	C2261.783936,1151.240356 2263.779297,1180.554077 2263.403809,1209.819458 
	C2262.241455,1300.425903 2250.199219,1389.635254 2225.982910,1477.912354 
M999.030518,2084.000977 
	C1050.809937,2095.685059 1103.242432,2102.808594 1156.233521,2105.270020 
	C1204.228271,2107.499268 1252.129517,2105.846924 1299.941162,2100.466064 
	C1362.042725,2093.477051 1422.874146,2080.709473 1482.040527,2060.741211 
	C1695.349243,1988.750488 1861.106934,1856.708984 1977.693604,1664.154907 
	C2055.943359,1534.917969 2097.585693,1393.912842 2105.473389,1243.127686 
	C2108.349854,1188.140625 2105.853516,1133.248901 2098.402588,1078.579712 
	C2089.692139,1014.668701 2074.977051,952.244202 2052.721924,891.744263 
	C1979.115234,691.648010 1851.811523,534.997070 1670.182495,423.293335 
	C1544.193848,345.809021 1406.678955,303.122650 1259.222900,292.511566 
	C1206.917358,288.747589 1154.689575,290.134949 1102.521240,295.689728 
	C1042.725952,302.056641 984.102905,313.989899 926.839966,332.222382 
	C753.936218,387.274933 609.221558,484.523895 494.768219,625.307190 
	C375.578369,771.916565 308.905579,940.125183 293.572784,1128.564209 
	C286.771393,1212.152710 291.980103,1295.070190 308.539062,1377.188477 
	C331.712616,1492.109375 375.158661,1598.917236 439.926971,1696.705566 
	C543.534424,1853.134033 682.338440,1967.083740 855.696472,2038.869141 
	C901.623047,2057.886963 949.006165,2072.388672 999.030518,2084.000977 
z"/>
<path fill="#FEFCFD" opacity="1.000000" stroke="none" 
	d="
M998.208557,2083.847656 
	C949.006165,2072.388672 901.623047,2057.886963 855.696472,2038.869141 
	C682.338440,1967.083740 543.534424,1853.134033 439.926971,1696.705566 
	C375.158661,1598.917236 331.712616,1492.109375 308.539062,1377.188477 
	C291.980103,1295.070190 286.771393,1212.152710 293.572784,1128.564209 
	C308.905579,940.125183 375.578369,771.916565 494.768219,625.307190 
	C609.221558,484.523895 753.936218,387.274933 926.839966,332.222382 
	C984.102905,313.989899 1042.725952,302.056641 1102.521240,295.689728 
	C1154.689575,290.134949 1206.917358,288.747589 1259.222900,292.511566 
	C1406.678955,303.122650 1544.193848,345.809021 1670.182495,423.293335 
	C1851.811523,534.997070 1979.115234,691.648010 2052.721924,891.744263 
	C2074.977051,952.244202 2089.692139,1014.668701 2098.402588,1078.579712 
	C2105.853516,1133.248901 2108.349854,1188.140625 2105.473389,1243.127686 
	C2097.585693,1393.912842 2055.943359,1534.917969 1977.693604,1664.154907 
	C1861.106934,1856.708984 1695.349243,1988.750488 1482.040527,2060.741211 
	C1422.874146,2080.709473 1362.042725,2093.477051 1299.941162,2100.466064 
	C1252.129517,2105.846924 1204.228271,2107.499268 1156.233521,2105.270020 
	C1103.242432,2102.808594 1050.809937,2095.685059 998.208557,2083.847656 
M408.495544,879.364197 
	C408.495544,879.364197 408.558044,878.491089 409.730988,877.843567 
	C443.185394,834.310242 481.291809,795.286682 523.697083,760.449097 
	C600.875366,697.043884 687.051392,649.321960 780.096130,613.632263 
	C906.745483,565.052734 1038.250977,541.607910 1173.548950,538.632812 
	C1265.477905,536.611328 1356.547241,544.905945 1446.609253,563.783264 
	C1554.583984,586.415283 1657.259277,623.291931 1753.228638,678.037415 
	C1839.420288,727.205139 1915.837280,788.213684 1978.566406,865.620300 
	C1982.110596,869.993835 1985.845581,874.212524 1989.986328,879.732056 
	C1992.374023,879.919556 1992.374023,879.919556 1991.004028,875.549377 
	C1955.715210,789.070312 1907.460205,710.519531 1846.435791,639.850281 
	C1671.187378,436.903595 1408.920532,326.139923 1138.293701,345.517670 
	C1077.952026,349.838318 1018.611816,359.775574 960.735352,377.227570 
	C736.565430,444.823517 566.624146,580.685730 450.835236,784.143433 
	C433.871368,813.951416 418.945129,844.829712 406.161316,877.888306 
	C405.892761,878.588684 405.624237,879.289062 404.308990,880.773499 
	C404.533112,881.808044 404.757233,882.842529 404.981354,883.877075 
	C406.026672,882.635864 407.071991,881.394714 408.495544,879.364197 
M1991.586182,1521.582764 
	C1992.504761,1518.940430 1993.423218,1516.298218 1994.341797,1513.656006 
	C1993.691528,1513.410156 1993.041138,1513.164429 1992.390869,1512.918701 
	C1990.923218,1515.275269 1989.455566,1517.631836 1987.074219,1520.959106 
	C1968.398071,1542.232422 1950.688477,1564.455933 1930.873901,1584.609985 
	C1855.631470,1661.141113 1766.994995,1718.307373 1669.411621,1761.993164 
	C1537.682373,1820.965332 1399.121948,1851.010498 1255.340942,1857.555664 
	C1169.238403,1861.475342 1083.529541,1856.737061 998.396790,1842.374634 
	C911.026306,1827.634644 826.277283,1803.980591 744.860474,1768.937134 
	C613.602722,1712.441040 498.917603,1633.522461 409.796967,1518.661133 
	C408.211700,1516.795898 406.626465,1514.930786 405.041229,1513.065552 
	C404.467133,1513.463013 403.893005,1513.860352 403.318909,1514.257812 
	C404.724243,1516.964478 406.129578,1519.671265 407.899933,1523.788452 
	C411.178070,1531.434692 414.363251,1539.122192 417.747803,1546.721069 
	C548.251587,1839.719849 834.513000,2040.107910 1167.027222,2053.548096 
	C1240.287842,2056.509033 1312.932617,2050.052979 1384.285889,2033.289429 
	C1609.085938,1980.475830 1786.147827,1858.120117 1914.772705,1666.209839 
	C1945.065308,1621.012695 1970.235474,1572.966431 1991.586182,1521.582764 
M1793.911011,1640.977295 
	C1841.002686,1608.491211 1884.340942,1571.687500 1922.580688,1529.030518 
	C1969.300415,1476.913452 2006.562134,1418.962646 2030.509399,1352.918579 
	C2040.164185,1326.291992 2048.777588,1299.312988 2051.045898,1270.837769 
	C2052.077393,1257.889648 2052.427979,1244.885986 2052.997803,1231.903564 
	C2053.094238,1229.713257 2052.733887,1227.502808 2052.531982,1224.533447 
	C2024.322388,1224.533447 1996.724609,1224.625610 1969.127563,1224.507446 
	C1941.645142,1224.389771 1914.144897,1225.034180 1886.703735,1224.098877 
	C1886.703735,1206.097534 1886.703735,1189.256958 1886.703735,1171.514160 
	C1942.446899,1171.514160 1997.621094,1171.514160 2053.341553,1171.514160 
	C2053.495605,1168.057739 2053.723877,1165.483398 2053.707764,1162.910645 
	C2053.489502,1128.027588 2048.138184,1094.066895 2037.188965,1060.821411 
	C2011.162109,981.795593 1967.442383,913.702515 1910.442139,853.756775 
	C1850.830444,791.064514 1781.401245,741.480530 1704.855591,701.692261 
	C1561.698853,627.279419 1408.528809,591.262878 1248.083374,584.423950 
	C1161.614258,580.738159 1075.634888,586.334717 990.314758,601.639282 
	C897.404785,618.305298 807.901123,645.597046 722.656799,686.266357 
	C634.070923,728.529785 553.892700,782.801880 486.134918,854.394165 
	C431.412354,912.213623 389.124176,977.738647 362.830719,1053.293579 
	C350.324097,1089.231567 343.999908,1126.032715 343.962616,1163.997681 
	C343.960419,1166.235107 344.201782,1168.472656 344.376282,1171.522217 
	C400.006927,1171.775269 455.096771,1171.409546 509.957306,1171.724365 
	C509.957306,1190.000610 509.957306,1206.861938 509.957306,1224.616455 
	C454.546173,1224.616455 399.711670,1224.616455 343.748352,1224.616455 
	C344.523438,1248.410889 344.010925,1271.420532 348.653015,1293.890625 
	C352.211029,1311.113159 357.223694,1328.141235 362.933899,1344.794678 
	C388.770721,1420.147339 431.547638,1485.108521 486.201721,1542.508545 
	C550.828979,1610.382446 626.742554,1662.737549 710.520752,1704.026367 
	C829.315613,1762.572754 955.358459,1795.093750 1086.808716,1807.608521 
	C1147.613281,1813.397339 1208.550781,1813.961304 1269.554565,1810.491089 
	C1333.215576,1806.869629 1396.129761,1798.132568 1458.268677,1783.938965 
	C1578.227295,1756.538330 1690.579346,1711.155762 1793.911011,1640.977295 
M1992.490967,882.823181 
	C1992.819214,882.843750 1993.147461,882.864380 1993.475708,882.885010 
	C1993.324097,882.676941 1993.172607,882.468872 1992.490967,882.823181 
M403.165283,886.869385 
	C403.165283,886.869385 402.938568,887.028625 403.165283,886.869385 
z"/>
<path fill="#DD0132" opacity="1.000000" stroke="none" 
	d="
M1793.321045,1641.394287 
	C1690.579346,1711.155762 1578.227295,1756.538330 1458.268677,1783.938965 
	C1396.129761,1798.132568 1333.215576,1806.869629 1269.554565,1810.491089 
	C1208.550781,1813.961304 1147.613281,1813.397339 1086.808716,1807.608521 
	C955.358459,1795.093750 829.315613,1762.572754 710.520752,1704.026367 
	C626.742554,1662.737549 550.828979,1610.382446 486.201721,1542.508545 
	C431.547638,1485.108521 388.770721,1420.147339 362.933899,1344.794678 
	C357.223694,1328.141235 352.211029,1311.113159 348.653015,1293.890625 
	C344.010925,1271.420532 344.523438,1248.410889 343.748352,1224.616455 
	C399.711670,1224.616455 454.546173,1224.616455 509.957306,1224.616455 
	C509.957306,1206.861938 509.957306,1190.000610 509.957306,1171.724365 
	C455.096771,1171.409546 400.006927,1171.775269 344.376282,1171.522217 
	C344.201782,1168.472656 343.960419,1166.235107 343.962616,1163.997681 
	C343.999908,1126.032715 350.324097,1089.231567 362.830719,1053.293579 
	C389.124176,977.738647 431.412354,912.213623 486.134918,854.394165 
	C553.892700,782.801880 634.070923,728.529785 722.656799,686.266357 
	C807.901123,645.597046 897.404785,618.305298 990.314758,601.639282 
	C1075.634888,586.334717 1161.614258,580.738159 1248.083374,584.423950 
	C1408.528809,591.262878 1561.698853,627.279419 1704.855591,701.692261 
	C1781.401245,741.480530 1850.830444,791.064514 1910.442139,853.756775 
	C1967.442383,913.702515 2011.162109,981.795593 2037.188965,1060.821411 
	C2048.138184,1094.066895 2053.489502,1128.027588 2053.707764,1162.910645 
	C2053.723877,1165.483398 2053.495605,1168.057739 2053.341553,1171.514160 
	C1997.621094,1171.514160 1942.446899,1171.514160 1886.703735,1171.514160 
	C1886.703735,1189.256958 1886.703735,1206.097534 1886.703735,1224.098877 
	C1914.144897,1225.034180 1941.645142,1224.389771 1969.127563,1224.507446 
	C1996.724609,1224.625610 2024.322388,1224.533447 2052.531982,1224.533447 
	C2052.733887,1227.502808 2053.094238,1229.713257 2052.997803,1231.903564 
	C2052.427979,1244.885986 2052.077393,1257.889648 2051.045898,1270.837769 
	C2048.777588,1299.312988 2040.164185,1326.291992 2030.509399,1352.918579 
	C2006.562134,1418.962646 1969.300415,1476.913452 1922.580688,1529.030518 
	C1884.340942,1571.687500 1841.002686,1608.491211 1793.321045,1641.394287 
M1571.785034,1481.258057 
	C1575.620361,1491.090454 1579.455688,1500.922974 1583.109131,1510.289185 
	C1605.762939,1510.289185 1627.294312,1510.289185 1648.721313,1510.289185 
	C1650.637817,1497.929321 1650.139404,1230.684326 1648.279785,1223.584595 
	C1634.524780,1221.870850 1590.851196,1222.420898 1583.215210,1224.629028 
	C1583.215210,1262.057129 1583.215210,1299.730103 1583.215210,1337.402954 
	C1579.147339,1330.209717 1576.735596,1322.724365 1574.084106,1315.324829 
	C1565.951050,1292.629639 1555.783569,1271.007202 1540.194580,1252.321533 
	C1530.225708,1240.372437 1518.557617,1230.610596 1503.800537,1225.106934 
	C1494.037842,1221.465820 1484.041504,1219.887451 1473.861694,1222.521729 
	C1471.699097,1241.718994 1472.662842,1503.612549 1474.797119,1510.270752 
	C1495.687866,1510.270752 1516.528076,1510.270752 1538.517578,1510.270752 
	C1538.517578,1473.132080 1538.517578,1436.588501 1538.517578,1400.045044 
	C1539.080322,1399.986572 1539.643188,1399.928223 1540.205933,1399.869751 
	C1550.542969,1426.519409 1560.879883,1453.168945 1571.785034,1481.258057 
M669.000000,1162.302124 
	C693.643250,1162.291748 718.286987,1162.369751 742.929565,1162.240723 
	C760.259399,1162.150024 772.614441,1153.801147 780.562256,1138.655518 
	C785.448425,1129.344482 787.822205,1119.271851 787.834839,1108.857666 
	C787.905151,1050.913818 787.918884,992.968506 787.524109,935.026611 
	C787.458984,925.459595 785.838928,915.793884 783.937805,906.375488 
	C781.377319,893.690613 773.252991,885.903809 760.316040,883.873230 
	C754.096802,882.897095 747.760864,882.200134 741.475647,882.182739 
	C692.189392,882.046448 642.902649,882.099365 593.616028,882.121887 
	C591.038574,882.123047 588.461304,882.377563 586.057007,882.504883 
	C581.395447,903.743042 593.480225,918.500122 622.492859,927.000671 
	C622.492859,938.015320 622.492859,949.285400 622.492859,960.555542 
	C622.492859,971.545105 622.492859,982.534729 622.492859,993.524292 
	C622.492859,1004.846863 622.492859,1016.169495 622.492859,1027.492065 
	C622.492859,1038.814697 622.492859,1050.137207 622.492859,1061.459839 
	C622.492859,1072.782471 622.492859,1084.104980 622.492859,1095.427612 
	C622.492859,1106.417236 622.459900,1117.406860 622.502136,1128.396362 
	C622.545044,1139.545532 622.305298,1150.711792 622.693665,1162.302002 
	C638.399475,1162.302002 652.699768,1162.302002 669.000000,1162.302124 
M1380.065063,1511.500122 
	C1384.573120,1510.316650 1389.145020,1509.332764 1393.579102,1507.917603 
	C1422.741699,1498.611084 1434.515259,1482.478882 1434.524048,1451.909302 
	C1434.539795,1396.576538 1434.549683,1341.243896 1434.499878,1285.911133 
	C1434.493896,1279.250122 1434.505615,1272.547363 1433.817383,1265.936035 
	C1431.409180,1242.807251 1419.100220,1228.116333 1397.157227,1224.520630 
	C1368.350342,1219.800171 1339.330444,1219.809570 1310.769043,1226.575806 
	C1288.443115,1231.864624 1273.838745,1245.814819 1268.713501,1268.587158 
	C1267.332031,1274.725220 1266.441406,1281.117554 1266.422729,1287.396362 
	C1266.248169,1346.061890 1266.110229,1404.729004 1266.400146,1463.393555 
	C1266.529419,1489.560669 1278.474243,1503.986328 1303.874390,1510.502319 
	C1306.447754,1511.162354 1309.052612,1511.756226 1311.677612,1512.148438 
	C1333.926514,1515.472778 1356.162231,1515.204590 1380.065063,1511.500122 
M1468.082031,1167.470703 
	C1479.988281,1164.515747 1492.363037,1162.764038 1503.700195,1158.348022 
	C1525.376587,1149.905029 1536.326416,1133.829102 1536.103516,1109.686523 
	C1535.587280,1053.736206 1535.943970,997.777771 1535.925415,941.822693 
	C1535.923950,937.494690 1535.997070,933.146179 1535.628662,928.842041 
	C1533.436035,903.223083 1522.160522,888.918457 1498.442505,884.892578 
	C1469.687988,880.011780 1440.636353,880.081238 1412.082275,886.582031 
	C1387.482544,892.182556 1372.600952,909.947754 1369.859863,935.031799 
	C1369.137817,941.637939 1368.729370,948.312500 1368.717651,954.956543 
	C1368.626709,1006.914734 1368.648071,1058.873169 1368.701416,1110.831421 
	C1368.706177,1115.480591 1369.056274,1120.140015 1369.459473,1124.776245 
	C1371.188721,1144.659302 1382.090820,1157.119019 1400.851074,1162.970093 
	C1405.277710,1164.350708 1409.862305,1165.827515 1414.431274,1166.041748 
	C1431.688843,1166.850830 1448.969971,1167.158325 1468.082031,1167.470703 
M1335.238403,959.438049 
	C1334.784180,949.449829 1334.646484,939.433594 1333.767578,929.482910 
	C1333.155518,922.551941 1331.833130,915.640991 1330.286499,908.844299 
	C1327.234497,895.433105 1318.657593,887.433899 1305.167725,884.958069 
	C1300.607422,884.121094 1295.916992,883.621460 1291.284302,883.608276 
	C1253.619995,883.500977 1215.955444,883.536621 1178.290894,883.566833 
	C1176.024414,883.568604 1173.758179,883.896118 1171.033691,884.107605 
	C1171.033691,977.608459 1171.033691,1070.730347 1171.033691,1163.942871 
	C1192.423828,1163.942871 1213.197510,1163.942871 1234.852783,1163.942871 
	C1234.852783,1123.674805 1234.852783,1084.151245 1234.852783,1043.531860 
	C1242.703247,1044.064453 1249.754883,1043.780640 1256.464600,1045.160400 
	C1269.517456,1047.844604 1275.002319,1054.972290 1275.590698,1068.257324 
	C1275.738037,1071.585327 1275.599731,1074.925293 1275.722656,1078.255005 
	C1276.410889,1096.893921 1277.010498,1115.537354 1277.901611,1134.166870 
	C1278.432739,1145.274048 1283.947144,1153.838257 1293.078735,1159.836670 
	C1305.653564,1168.096924 1319.556396,1169.250122 1334.282349,1167.071045 
	C1334.282349,1131.795654 1334.388428,1097.149536 1334.204468,1062.505005 
	C1334.160889,1054.310791 1330.726196,1046.991089 1326.266846,1040.196167 
	C1324.853149,1038.041870 1323.459106,1035.874390 1322.022705,1033.661621 
	C1332.367310,1021.073242 1335.990967,1006.889282 1335.518066,991.349670 
	C1335.213745,981.357666 1335.330322,971.352783 1335.238403,959.438049 
M578.910583,1245.605835 
	C585.738586,1257.191772 596.239685,1263.665039 609.990845,1267.096558 
	C609.990845,1348.246582 609.990845,1429.354980 609.990845,1510.256592 
	C632.596252,1510.256592 654.097595,1510.256592 676.500793,1510.256592 
	C676.500793,1469.490967 676.500793,1429.335938 676.500793,1388.575195 
	C680.613220,1388.391235 683.849915,1388.133545 687.087524,1388.120850 
	C703.076965,1388.057739 719.073364,1388.346191 735.054504,1387.967407 
	C756.259888,1387.464844 770.926392,1375.925171 776.162476,1355.271851 
	C778.020691,1347.942139 778.739929,1340.148071 778.758179,1332.562988 
	C778.800476,1314.914673 778.416992,1297.249146 777.569153,1279.621338 
	C777.139404,1270.686035 775.829529,1261.714966 774.040894,1252.938843 
	C770.024048,1233.229736 760.212891,1224.581543 740.079956,1222.159424 
	C737.444519,1221.842407 734.762024,1221.824829 732.101196,1221.823853 
	C681.800171,1221.804321 631.499146,1221.798584 581.198120,1221.835571 
	C578.663818,1221.837524 576.129822,1222.251831 573.458679,1222.486084 
	C572.886230,1230.677734 574.711304,1237.642456 578.910583,1245.605835 
M935.463501,1044.266846 
	C935.463501,1026.048584 935.463501,1007.830383 935.463501,988.447815 
	C919.576355,988.447815 904.800598,988.447815 889.916260,988.447815 
	C889.916260,967.118469 889.916260,946.982422 889.916260,925.883240 
	C912.282593,925.883240 934.091431,925.883240 956.048828,925.883240 
	C956.048828,910.798340 956.048828,896.696411 956.048828,882.619629 
	C912.783752,882.619629 870.277893,882.619629 826.975464,882.619629 
	C826.975464,976.174988 826.975464,1069.203613 826.975464,1162.576660 
	C870.216919,1162.576660 913.006592,1162.576660 955.705811,1162.576660 
	C957.651855,1150.210693 957.219421,1125.666870 954.942505,1118.665771 
	C933.258484,1118.110596 911.426147,1118.993652 889.335815,1118.168213 
	C889.335815,1105.874390 889.250977,1094.889282 889.359497,1083.906128 
	C889.469727,1072.752686 888.862061,1061.558960 889.825012,1049.908447 
	C894.507202,1049.908447 898.128479,1049.909058 901.749756,1049.908325 
	C911.075684,1049.906616 920.401672,1049.902344 929.727600,1049.903564 
	C932.470459,1049.903931 935.245605,1049.967773 935.463501,1044.266846 
M1015.116211,1506.670898 
	C1023.702698,1504.438354 1031.233154,1500.312988 1037.149780,1493.664673 
	C1042.085693,1488.118408 1045.859741,1482.021118 1045.860840,1474.097534 
	C1045.866577,1433.136841 1045.994141,1392.176147 1046.104736,1351.215454 
	C1046.130249,1341.790039 1042.151001,1334.475586 1034.381714,1329.340454 
	C1029.397827,1326.046631 1024.221191,1323.018921 1018.981445,1320.144775 
	C1012.860840,1316.787231 1006.420166,1313.996582 1000.393982,1310.486694 
	C982.512146,1300.071777 977.395630,1287.737061 982.106995,1266.027222 
	C985.181335,1266.027222 988.443726,1266.028809 991.706116,1266.026855 
	C1004.694397,1266.018677 1017.683228,1266.081909 1030.670654,1265.977051 
	C1040.360229,1265.898804 1048.325317,1261.908813 1053.328003,1253.656372 
	C1059.111450,1244.116089 1061.766479,1233.688599 1059.190063,1221.783447 
	C1056.231689,1221.783447 1053.619019,1221.789062 1051.006348,1221.782715 
	C1027.694214,1221.725830 1004.381958,1221.639160 981.069763,1221.623291 
	C972.744629,1221.617676 964.411621,1221.582397 956.095886,1221.909424 
	C938.599976,1222.597412 928.223938,1231.102661 924.386963,1248.089600 
	C923.220520,1253.253540 922.635681,1258.629639 922.491272,1263.927979 
	C922.119385,1277.572998 921.924805,1291.230713 922.056458,1304.879639 
	C922.290039,1329.083252 934.301514,1345.723511 955.869629,1355.761108 
	C961.273926,1358.276367 967.083496,1359.910278 972.665527,1362.056519 
	C981.503723,1365.454224 981.534058,1365.492554 981.541748,1374.947144 
	C981.565125,1403.588135 981.563049,1432.229004 981.530640,1460.869995 
	C981.527283,1463.790527 981.252197,1466.710693 981.039490,1470.880127 
	C963.433899,1470.880127 946.312134,1470.880127 929.243774,1470.880127 
	C929.243774,1484.283447 929.243774,1496.390503 929.243774,1509.315308 
	C948.895935,1509.315308 967.825439,1509.530029 986.746521,1509.221069 
	C995.696045,1509.075195 1004.629211,1507.926880 1015.116211,1506.670898 
M1803.561035,1490.270020 
	C1808.187500,1484.154297 1809.764038,1477.168579 1809.771606,1469.618408 
	C1809.808838,1432.293701 1809.556396,1394.962769 1810.190308,1357.647339 
	C1810.476929,1340.770386 1803.147217,1329.986206 1788.388916,1322.965576 
	C1779.081177,1318.537842 1769.857910,1313.799561 1761.088501,1308.401733 
	C1745.474854,1298.791138 1740.518921,1284.395996 1745.956055,1266.018311 
	C1761.808594,1266.018311 1777.793091,1265.959839 1793.776733,1266.044434 
	C1801.115723,1266.083374 1807.926514,1264.276489 1812.806519,1258.781006 
	C1822.060791,1248.359253 1825.816406,1236.165283 1823.245728,1221.964600 
	C1787.595093,1221.964600 1752.620728,1221.529297 1717.665039,1222.148438 
	C1700.223022,1222.457397 1689.085571,1233.478394 1687.846069,1251.073364 
	C1686.489990,1270.322388 1686.393433,1289.664795 1685.938843,1308.970825 
	C1685.719604,1318.279907 1689.016846,1326.605347 1694.179932,1334.217285 
	C1702.929688,1347.116455 1714.770020,1355.728271 1729.788330,1360.094482 
	C1735.122925,1361.645264 1740.270752,1363.838379 1745.161255,1365.614014 
	C1745.161255,1401.088013 1745.161255,1435.309814 1745.161255,1470.841553 
	C1727.612427,1470.841553 1710.499268,1470.841553 1693.372803,1470.841553 
	C1693.372803,1484.284546 1693.372803,1496.399536 1693.372803,1509.823364 
	C1720.045410,1509.266357 1745.979858,1509.219604 1771.856201,1507.968872 
	C1784.213135,1507.371582 1794.786377,1501.411499 1803.561035,1490.270020 
M1149.000244,1222.765869 
	C1140.342041,1222.765869 1131.682007,1222.658325 1123.026001,1222.795898 
	C1114.221069,1222.935669 1105.339600,1222.119385 1096.845581,1223.378906 
	C1096.845581,1238.724487 1096.845581,1252.904541 1096.845581,1268.117920 
	C1111.242188,1268.117920 1125.046387,1268.117920 1139.630005,1268.117920 
	C1139.630005,1282.411133 1139.630005,1295.664917 1139.630005,1308.918823 
	C1139.630005,1322.572266 1139.630005,1336.225586 1139.630005,1349.879028 
	C1139.630005,1363.199341 1139.630005,1376.519775 1139.630005,1389.840088 
	C1139.630005,1403.493530 1139.630005,1417.146851 1139.630005,1430.800293 
	C1139.630005,1444.120605 1139.604858,1457.441040 1139.637085,1470.761353 
	C1139.669678,1484.246460 1139.490112,1497.742065 1139.756714,1511.097656 
	C1162.354980,1511.097656 1183.498657,1511.097656 1205.750854,1511.097656 
	C1205.750854,1429.757935 1205.750854,1349.029419 1205.750854,1268.300781 
	C1233.311890,1268.603149 1249.765625,1247.983276 1245.593750,1222.766113 
	C1214.155151,1222.766113 1182.577759,1222.766113 1149.000244,1222.765869 
M1032.742920,943.088745 
	C1032.742920,1016.572815 1032.742920,1090.056885 1032.742920,1163.825684 
	C1054.658691,1163.825684 1075.245117,1163.825684 1097.033813,1163.825684 
	C1097.033813,1084.770386 1097.033813,1006.038757 1097.033813,927.522583 
	C1127.181641,922.434509 1140.839478,906.849487 1137.045410,882.677002 
	C1088.668335,882.677002 1040.245361,882.677002 991.488953,882.677002 
	C991.488953,897.394836 991.488953,911.531860 991.488953,926.529907 
	C1005.308289,926.529907 1018.521484,926.529907 1032.743286,926.529907 
	C1032.743286,931.953857 1032.743286,936.538269 1032.742920,943.088745 
M1731.000000,882.108521 
	C1709.765137,882.108521 1688.530151,882.108521 1666.876709,882.108521 
	C1666.876709,897.299255 1666.876709,911.421997 1666.876709,926.702637 
	C1680.892700,926.702637 1694.358521,926.702637 1708.631592,926.702637 
	C1708.631592,1006.385254 1708.631592,1084.909546 1708.631592,1163.424072 
	C1730.304077,1163.424072 1751.088501,1163.424072 1772.685547,1163.424072 
	C1772.685547,1084.163086 1772.685547,1005.628784 1772.685547,927.216125 
	C1801.891479,923.233276 1816.306641,907.052124 1812.647095,882.108582 
	C1786.194824,882.108582 1759.597412,882.108582 1731.000000,882.108521 
M814.773682,1434.999756 
	C814.916809,1459.302124 815.058105,1483.604614 815.227051,1507.906860 
	C815.228943,1508.178833 815.572754,1508.464722 815.791504,1508.713867 
	C815.999512,1508.950806 816.252808,1509.147827 816.406006,1509.288696 
	C837.007263,1509.288696 857.523438,1509.288696 878.437134,1509.288696 
	C878.437134,1413.305664 878.437134,1317.877930 878.437134,1222.537842 
	C857.026733,1222.537842 836.248535,1222.537842 814.773987,1222.537842 
	C814.773987,1293.185303 814.773987,1363.092529 814.773682,1434.999756 
M1570.431885,1113.000000 
	C1570.431885,1129.265747 1570.431885,1145.531372 1570.431885,1161.601929 
	C1580.350952,1163.837158 1625.127808,1163.605713 1632.350464,1161.466919 
	C1632.350464,1068.608643 1632.350464,975.750183 1632.350464,882.708679 
	C1611.634399,882.708679 1591.493286,882.708679 1570.432007,882.708679 
	C1570.432007,959.207642 1570.432007,1035.103760 1570.431885,1113.000000 
z"/>
<path fill="#DD0132" opacity="1.000000" stroke="none" 
	d="
M1989.491821,878.503296 
	C1985.845581,874.212524 1982.110596,869.993835 1978.566406,865.620300 
	C1915.837280,788.213684 1839.420288,727.205139 1753.228638,678.037415 
	C1657.259277,623.291931 1554.583984,586.415283 1446.609253,563.783264 
	C1356.547241,544.905945 1265.477905,536.611328 1173.548950,538.632812 
	C1038.250977,541.607910 906.745483,565.052734 780.096130,613.632263 
	C687.051392,649.321960 600.875366,697.043884 523.697083,760.449097 
	C481.291809,795.286682 443.185394,834.310242 408.719971,877.782471 
	C407.415833,877.476807 407.122742,877.232178 406.829620,876.987549 
	C418.945129,844.829712 433.871368,813.951416 450.835236,784.143433 
	C566.624146,580.685730 736.565430,444.823517 960.735352,377.227570 
	C1018.611816,359.775574 1077.952026,349.838318 1138.293701,345.517670 
	C1408.920532,326.139923 1671.187378,436.903595 1846.435791,639.850281 
	C1907.460205,710.519531 1955.715210,789.070312 1990.683350,876.632446 
	C1990.072510,877.978149 1989.782227,878.240723 1989.491821,878.503296 
z"/>
<path fill="#DD0132" opacity="1.000000" stroke="none" 
	d="
M410.059570,1519.946777 
	C498.917603,1633.522461 613.602722,1712.441040 744.860474,1768.937134 
	C826.277283,1803.980591 911.026306,1827.634644 998.396790,1842.374634 
	C1083.529541,1856.737061 1169.238403,1861.475342 1255.340942,1857.555664 
	C1399.121948,1851.010498 1537.682373,1820.965332 1669.411621,1761.993164 
	C1766.994995,1718.307373 1855.631470,1661.141113 1930.873901,1584.609985 
	C1950.688477,1564.455933 1968.398071,1542.232422 1988.086792,1520.716064 
	C1989.575806,1521.123779 1990.052368,1521.774780 1990.528931,1522.425659 
	C1970.235474,1572.966431 1945.065308,1621.012695 1914.772705,1666.209839 
	C1786.147827,1858.120117 1609.085938,1980.475830 1384.285889,2033.289429 
	C1312.932617,2050.052979 1240.287842,2056.509033 1167.027222,2053.548096 
	C834.513000,2040.107910 548.251587,1839.719849 417.747803,1546.721069 
	C414.363251,1539.122192 411.178070,1531.434692 408.039368,1522.571777 
	C408.805725,1520.885742 409.432648,1520.416260 410.059570,1519.946777 
z"/>
<path fill="#E95C7C" opacity="1.000000" stroke="none" 
	d="
M409.928284,1519.303955 
	C409.432648,1520.416260 408.805725,1520.885742 407.856842,1521.866577 
	C406.129578,1519.671265 404.724243,1516.964478 403.318909,1514.257812 
	C403.893005,1513.860352 404.467133,1513.463013 405.041229,1513.065552 
	C406.626465,1514.930786 408.211700,1516.795898 409.928284,1519.303955 
z"/>
<path fill="#E95D7C" opacity="1.000000" stroke="none" 
	d="
M1991.057617,1522.004150 
	C1990.052368,1521.774780 1989.575806,1521.123779 1988.543701,1520.230713 
	C1989.455566,1517.631836 1990.923218,1515.275269 1992.390869,1512.918701 
	C1993.041138,1513.164429 1993.691528,1513.410156 1994.341797,1513.656006 
	C1993.423218,1516.298218 1992.504761,1518.940430 1991.057617,1522.004150 
z"/>
<path fill="#F08DA3" opacity="1.000000" stroke="none" 
	d="
M408.117340,880.153564 
	C407.071991,881.394714 406.026672,882.635864 404.981354,883.877075 
	C404.757233,882.842529 404.533112,881.808044 405.520569,880.460388 
	C407.193878,880.149353 407.655609,880.151428 408.117340,880.153564 
z"/>
<path fill="#DD0132" opacity="1.000000" stroke="none" 
	d="
M408.306458,879.758911 
	C407.655609,880.151428 407.193878,880.149353 406.043945,880.068359 
	C405.624237,879.289062 405.892761,878.588684 406.495483,877.437927 
	C407.122742,877.232178 407.415833,877.476807 408.133484,878.106262 
	C408.558044,878.491089 408.495544,879.364197 408.306458,879.758911 
z"/>
<path fill="#DD0132" opacity="1.000000" stroke="none" 
	d="
M1992.756104,882.541992 
	C1993.172607,882.468872 1993.324097,882.676941 1993.475708,882.885010 
	C1993.147461,882.864380 1992.819214,882.843750 1992.756104,882.541992 
z"/>
<path fill="#DD0132" opacity="1.000000" stroke="none" 
	d="
M1990.825684,877.354309 
	C1992.374023,879.919556 1992.374023,879.919556 1989.739014,879.117676 
	C1989.782227,878.240723 1990.072510,877.978149 1990.825684,877.354309 
z"/>
<path fill="#F08DA3" opacity="1.000000" stroke="none" 
	d="
M403.051941,886.948975 
	C402.938568,887.028625 403.165283,886.869385 403.051941,886.948975 
z"/>
<path fill="#FFFDFE" opacity="1.000000" stroke="none" 
	d="
M1571.500977,1480.538330 
	C1560.879883,1453.168945 1550.542969,1426.519409 1540.205933,1399.869751 
	C1539.643188,1399.928223 1539.080322,1399.986572 1538.517578,1400.045044 
	C1538.517578,1436.588501 1538.517578,1473.132080 1538.517578,1510.270752 
	C1516.528076,1510.270752 1495.687866,1510.270752 1474.797119,1510.270752 
	C1472.662842,1503.612549 1471.699097,1241.718994 1473.861694,1222.521729 
	C1484.041504,1219.887451 1494.037842,1221.465820 1503.800537,1225.106934 
	C1518.557617,1230.610596 1530.225708,1240.372437 1540.194580,1252.321533 
	C1555.783569,1271.007202 1565.951050,1292.629639 1574.084106,1315.324829 
	C1576.735596,1322.724365 1579.147339,1330.209717 1583.215210,1337.402954 
	C1583.215210,1299.730103 1583.215210,1262.057129 1583.215210,1224.629028 
	C1590.851196,1222.420898 1634.524780,1221.870850 1648.279785,1223.584595 
	C1650.139404,1230.684326 1650.637817,1497.929321 1648.721313,1510.289185 
	C1627.294312,1510.289185 1605.762939,1510.289185 1583.109131,1510.289185 
	C1579.455688,1500.922974 1575.620361,1491.090454 1571.500977,1480.538330 
z"/>
<path fill="#FFFCFC" opacity="1.000000" stroke="none" 
	d="
M668.000000,1162.302002 
	C652.699768,1162.302002 638.399475,1162.302002 622.693665,1162.302002 
	C622.305298,1150.711792 622.545044,1139.545532 622.502136,1128.396362 
	C622.459900,1117.406860 622.492859,1106.417236 622.492859,1095.427612 
	C622.492859,1084.104980 622.492859,1072.782471 622.492859,1061.459839 
	C622.492859,1050.137207 622.492859,1038.814697 622.492859,1027.492065 
	C622.492859,1016.169495 622.492859,1004.846863 622.492859,993.524292 
	C622.492859,982.534729 622.492859,971.545105 622.492859,960.555542 
	C622.492859,949.285400 622.492859,938.015320 622.492859,927.000671 
	C593.480225,918.500122 581.395447,903.743042 586.057007,882.504883 
	C588.461304,882.377563 591.038574,882.123047 593.616028,882.121887 
	C642.902649,882.099365 692.189392,882.046448 741.475647,882.182739 
	C747.760864,882.200134 754.096802,882.897095 760.316040,883.873230 
	C773.252991,885.903809 781.377319,893.690613 783.937805,906.375488 
	C785.838928,915.793884 787.458984,925.459595 787.524109,935.026611 
	C787.918884,992.968506 787.905151,1050.913818 787.834839,1108.857666 
	C787.822205,1119.271851 785.448425,1129.344482 780.562256,1138.655518 
	C772.614441,1153.801147 760.259399,1162.150024 742.929565,1162.240723 
	C718.286987,1162.369751 693.643250,1162.291748 668.000000,1162.302002 
M689.185364,1118.222900 
	C700.362488,1118.222900 711.539612,1118.222900 722.655457,1118.222900 
	C723.072388,1116.219727 723.441467,1115.272339 723.442261,1114.324707 
	C723.489502,1059.364502 723.532104,1004.404297 723.467224,949.444153 
	C723.462891,945.815308 722.728882,942.168945 722.137512,938.563049 
	C720.951538,931.332031 716.400635,927.238037 709.319946,926.718384 
	C702.449402,926.214111 695.512817,926.608948 687.534546,926.608948 
	C687.534546,930.477966 687.534607,933.707520 687.534607,936.937134 
	C687.534607,965.583740 687.498169,994.230347 687.544373,1022.876892 
	C687.594788,1054.183350 687.721497,1085.489746 689.185364,1118.222900 
z"/>
<path fill="#FFFDFD" opacity="1.000000" stroke="none" 
	d="
M1379.220703,1511.635254 
	C1356.162231,1515.204590 1333.926514,1515.472778 1311.677612,1512.148438 
	C1309.052612,1511.756226 1306.447754,1511.162354 1303.874390,1510.502319 
	C1278.474243,1503.986328 1266.529419,1489.560669 1266.400146,1463.393555 
	C1266.110229,1404.729004 1266.248169,1346.061890 1266.422729,1287.396362 
	C1266.441406,1281.117554 1267.332031,1274.725220 1268.713501,1268.587158 
	C1273.838745,1245.814819 1288.443115,1231.864624 1310.769043,1226.575806 
	C1339.330444,1219.809570 1368.350342,1219.800171 1397.157227,1224.520630 
	C1419.100220,1228.116333 1431.409180,1242.807251 1433.817383,1265.936035 
	C1434.505615,1272.547363 1434.493896,1279.250122 1434.499878,1285.911133 
	C1434.549683,1341.243896 1434.539795,1396.576538 1434.524048,1451.909302 
	C1434.515259,1482.478882 1422.741699,1498.611084 1393.579102,1507.917603 
	C1389.145020,1509.332764 1384.573120,1510.316650 1379.220703,1511.635254 
M1333.650879,1333.000000 
	C1333.656616,1365.310913 1333.644287,1397.621826 1333.691284,1429.932739 
	C1333.697144,1433.923218 1333.668213,1437.967285 1334.269653,1441.892334 
	C1335.508057,1449.974731 1340.690552,1455.290039 1348.795776,1456.033325 
	C1354.938477,1456.596558 1361.191528,1455.957031 1368.074341,1455.841431 
	C1368.663208,1449.732178 1369.537231,1444.822388 1369.547363,1439.910645 
	C1369.640625,1394.942017 1369.598145,1349.973145 1369.549194,1305.004272 
	C1369.544067,1300.344971 1369.384155,1295.675415 1369.048950,1291.028442 
	C1367.623535,1271.263672 1364.318237,1266.956665 1341.783447,1267.938354 
	C1341.450806,1267.952881 1341.118530,1268.002686 1340.786377,1267.998169 
	C1336.677979,1267.942993 1334.678101,1270.248779 1334.333984,1274.068970 
	C1333.975830,1278.044434 1333.705933,1282.041870 1333.685791,1286.031250 
	C1333.610474,1301.020508 1333.652710,1316.010376 1333.650879,1333.000000 
z"/>
<path fill="#FFFCFD" opacity="1.000000" stroke="none" 
	d="
M1467.162109,1167.562012 
	C1448.969971,1167.158325 1431.688843,1166.850830 1414.431274,1166.041748 
	C1409.862305,1165.827515 1405.277710,1164.350708 1400.851074,1162.970093 
	C1382.090820,1157.119019 1371.188721,1144.659302 1369.459473,1124.776245 
	C1369.056274,1120.140015 1368.706177,1115.480591 1368.701416,1110.831421 
	C1368.648071,1058.873169 1368.626709,1006.914734 1368.717651,954.956543 
	C1368.729370,948.312500 1369.137817,941.637939 1369.859863,935.031799 
	C1372.600952,909.947754 1387.482544,892.182556 1412.082275,886.582031 
	C1440.636353,880.081238 1469.687988,880.011780 1498.442505,884.892578 
	C1522.160522,888.918457 1533.436035,903.223083 1535.628662,928.842041 
	C1535.997070,933.146179 1535.923950,937.494690 1535.925415,941.822693 
	C1535.943970,997.777771 1535.587280,1053.736206 1536.103516,1109.686523 
	C1536.326416,1133.829102 1525.376587,1149.905029 1503.700195,1158.348022 
	C1492.363037,1162.764038 1479.988281,1164.515747 1467.162109,1167.562012 
M1435.918579,995.000000 
	C1435.848267,1025.605835 1435.769287,1056.211548 1435.725098,1086.817383 
	C1435.721680,1089.140747 1435.773071,1091.493774 1436.124023,1093.783081 
	C1437.943604,1105.650146 1444.159424,1111.146851 1456.205078,1111.698730 
	C1469.988647,1112.330078 1471.854980,1110.666382 1471.866089,1096.904785 
	C1471.902832,1051.326538 1471.894653,1005.748169 1471.799805,960.170044 
	C1471.788086,954.534302 1471.533936,948.844116 1470.725220,943.276001 
	C1468.837280,930.277222 1464.901611,926.949768 1451.769165,926.350403 
	C1438.029297,925.723328 1436.188354,927.246094 1436.005493,941.101562 
	C1435.777344,958.398376 1435.930176,975.700317 1435.918579,995.000000 
z"/>
<path fill="#FFFDFD" opacity="1.000000" stroke="none" 
	d="
M1335.248291,960.395874 
	C1335.330322,971.352783 1335.213745,981.357666 1335.518066,991.349670 
	C1335.990967,1006.889282 1332.367310,1021.073242 1322.022705,1033.661621 
	C1323.459106,1035.874390 1324.853149,1038.041870 1326.266846,1040.196167 
	C1330.726196,1046.991089 1334.160889,1054.310791 1334.204468,1062.505005 
	C1334.388428,1097.149536 1334.282349,1131.795654 1334.282349,1167.071045 
	C1319.556396,1169.250122 1305.653564,1168.096924 1293.078735,1159.836670 
	C1283.947144,1153.838257 1278.432739,1145.274048 1277.901611,1134.166870 
	C1277.010498,1115.537354 1276.410889,1096.893921 1275.722656,1078.255005 
	C1275.599731,1074.925293 1275.738037,1071.585327 1275.590698,1068.257324 
	C1275.002319,1054.972290 1269.517456,1047.844604 1256.464600,1045.160400 
	C1249.754883,1043.780640 1242.703247,1044.064453 1234.852783,1043.531860 
	C1234.852783,1084.151245 1234.852783,1123.674805 1234.852783,1163.942871 
	C1213.197510,1163.942871 1192.423828,1163.942871 1171.033691,1163.942871 
	C1171.033691,1070.730347 1171.033691,977.608459 1171.033691,884.107605 
	C1173.758179,883.896118 1176.024414,883.568604 1178.290894,883.566833 
	C1215.955444,883.536621 1253.619995,883.500977 1291.284302,883.608276 
	C1295.916992,883.621460 1300.607422,884.121094 1305.167725,884.958069 
	C1318.657593,887.433899 1327.234497,895.433105 1330.286499,908.844299 
	C1331.833130,915.640991 1333.155518,922.551941 1333.767578,929.482910 
	C1334.646484,939.433594 1334.784180,949.449829 1335.248291,960.395874 
M1234.478271,939.305908 
	C1234.478271,961.442566 1234.478271,983.579224 1234.478271,1006.556091 
	C1242.894287,1006.556091 1250.141113,1006.663391 1257.383179,1006.526917 
	C1265.103149,1006.381470 1269.003540,1003.775208 1269.228149,996.249634 
	C1269.791626,977.368042 1269.428955,958.458435 1269.386841,939.560120 
	C1269.384766,938.599365 1268.843140,937.651306 1268.655396,936.677551 
	C1267.489990,930.634033 1263.598755,927.205017 1257.728516,926.851257 
	C1250.265869,926.401428 1242.755737,926.742371 1234.478394,926.742371 
	C1234.478394,930.878357 1234.478394,934.140930 1234.478271,939.305908 
z"/>
<path fill="#FFFEFE" opacity="1.000000" stroke="none" 
	d="
M578.540588,1244.931885 
	C574.711304,1237.642456 572.886230,1230.677734 573.458679,1222.486084 
	C576.129822,1222.251831 578.663818,1221.837524 581.198120,1221.835571 
	C631.499146,1221.798584 681.800171,1221.804321 732.101196,1221.823853 
	C734.762024,1221.824829 737.444519,1221.842407 740.079956,1222.159424 
	C760.212891,1224.581543 770.024048,1233.229736 774.040894,1252.938843 
	C775.829529,1261.714966 777.139404,1270.686035 777.569153,1279.621338 
	C778.416992,1297.249146 778.800476,1314.914673 778.758179,1332.562988 
	C778.739929,1340.148071 778.020691,1347.942139 776.162476,1355.271851 
	C770.926392,1375.925171 756.259888,1387.464844 735.054504,1387.967407 
	C719.073364,1388.346191 703.076965,1388.057739 687.087524,1388.120850 
	C683.849915,1388.133545 680.613220,1388.391235 676.500793,1388.575195 
	C676.500793,1429.335938 676.500793,1469.490967 676.500793,1510.256592 
	C654.097595,1510.256592 632.596252,1510.256592 609.990845,1510.256592 
	C609.990845,1429.354980 609.990845,1348.246582 609.990845,1267.096558 
	C596.239685,1263.665039 585.738586,1257.191772 578.540588,1244.931885 
M674.564026,1303.001831 
	C674.564026,1318.561890 674.564026,1334.121948 674.564026,1349.864380 
	C687.376465,1349.864380 698.918213,1349.864380 711.919373,1349.864380 
	C711.393188,1325.159180 710.986755,1300.941895 710.284058,1276.733276 
	C710.111023,1270.770142 705.670349,1267.656006 700.353027,1267.274170 
	C692.187073,1266.687500 683.947937,1267.119995 674.564270,1267.119995 
	C674.564270,1278.533325 674.564270,1289.768555 674.564026,1303.001831 
z"/>
<path fill="#FEF9FA" opacity="1.000000" stroke="none" 
	d="
M935.442627,1045.191406 
	C935.245605,1049.967773 932.470459,1049.903931 929.727600,1049.903564 
	C920.401672,1049.902344 911.075684,1049.906616 901.749756,1049.908325 
	C898.128479,1049.909058 894.507202,1049.908447 889.825012,1049.908447 
	C888.862061,1061.558960 889.469727,1072.752686 889.359497,1083.906128 
	C889.250977,1094.889282 889.335815,1105.874390 889.335815,1118.168213 
	C911.426147,1118.993652 933.258484,1118.110596 954.942505,1118.665771 
	C957.219421,1125.666870 957.651855,1150.210693 955.705811,1162.576660 
	C913.006592,1162.576660 870.216919,1162.576660 826.975464,1162.576660 
	C826.975464,1069.203613 826.975464,976.174988 826.975464,882.619629 
	C870.277893,882.619629 912.783752,882.619629 956.048828,882.619629 
	C956.048828,896.696411 956.048828,910.798340 956.048828,925.883240 
	C934.091431,925.883240 912.282593,925.883240 889.916260,925.883240 
	C889.916260,946.982422 889.916260,967.118469 889.916260,988.447815 
	C904.800598,988.447815 919.576355,988.447815 935.463501,988.447815 
	C935.463501,1007.830383 935.463501,1026.048584 935.442627,1045.191406 
z"/>
<path fill="#FFFCFD" opacity="1.000000" stroke="none" 
	d="
M1014.343018,1506.951660 
	C1004.629211,1507.926880 995.696045,1509.075195 986.746521,1509.221069 
	C967.825439,1509.530029 948.895935,1509.315308 929.243774,1509.315308 
	C929.243774,1496.390503 929.243774,1484.283447 929.243774,1470.880127 
	C946.312134,1470.880127 963.433899,1470.880127 981.039490,1470.880127 
	C981.252197,1466.710693 981.527283,1463.790527 981.530640,1460.869995 
	C981.563049,1432.229004 981.565125,1403.588135 981.541748,1374.947144 
	C981.534058,1365.492554 981.503723,1365.454224 972.665527,1362.056519 
	C967.083496,1359.910278 961.273926,1358.276367 955.869629,1355.761108 
	C934.301514,1345.723511 922.290039,1329.083252 922.056458,1304.879639 
	C921.924805,1291.230713 922.119385,1277.572998 922.491272,1263.927979 
	C922.635681,1258.629639 923.220520,1253.253540 924.386963,1248.089600 
	C928.223938,1231.102661 938.599976,1222.597412 956.095886,1221.909424 
	C964.411621,1221.582397 972.744629,1221.617676 981.069763,1221.623291 
	C1004.381958,1221.639160 1027.694214,1221.725830 1051.006348,1221.782715 
	C1053.619019,1221.789062 1056.231689,1221.783447 1059.190063,1221.783447 
	C1061.766479,1233.688599 1059.111450,1244.116089 1053.328003,1253.656372 
	C1048.325317,1261.908813 1040.360229,1265.898804 1030.670654,1265.977051 
	C1017.683228,1266.081909 1004.694397,1266.018677 991.706116,1266.026855 
	C988.443726,1266.028809 985.181335,1266.027222 982.106995,1266.027222 
	C977.395630,1287.737061 982.512146,1300.071777 1000.393982,1310.486694 
	C1006.420166,1313.996582 1012.860840,1316.787231 1018.981445,1320.144775 
	C1024.221191,1323.018921 1029.397827,1326.046631 1034.381714,1329.340454 
	C1042.151001,1334.475586 1046.130249,1341.790039 1046.104736,1351.215454 
	C1045.994141,1392.176147 1045.866577,1433.136841 1045.860840,1474.097534 
	C1045.859741,1482.021118 1042.085693,1488.118408 1037.149780,1493.664673 
	C1031.233154,1500.312988 1023.702698,1504.438354 1014.343018,1506.951660 
z"/>
<path fill="#FFFCFD" opacity="1.000000" stroke="none" 
	d="
M1803.112305,1490.853516 
	C1794.786377,1501.411499 1784.213135,1507.371582 1771.856201,1507.968872 
	C1745.979858,1509.219604 1720.045410,1509.266357 1693.372803,1509.823364 
	C1693.372803,1496.399536 1693.372803,1484.284546 1693.372803,1470.841553 
	C1710.499268,1470.841553 1727.612427,1470.841553 1745.161255,1470.841553 
	C1745.161255,1435.309814 1745.161255,1401.088013 1745.161255,1365.614014 
	C1740.270752,1363.838379 1735.122925,1361.645264 1729.788330,1360.094482 
	C1714.770020,1355.728271 1702.929688,1347.116455 1694.179932,1334.217285 
	C1689.016846,1326.605347 1685.719604,1318.279907 1685.938843,1308.970825 
	C1686.393433,1289.664795 1686.489990,1270.322388 1687.846069,1251.073364 
	C1689.085571,1233.478394 1700.223022,1222.457397 1717.665039,1222.148438 
	C1752.620728,1221.529297 1787.595093,1221.964600 1823.245728,1221.964600 
	C1825.816406,1236.165283 1822.060791,1248.359253 1812.806519,1258.781006 
	C1807.926514,1264.276489 1801.115723,1266.083374 1793.776733,1266.044434 
	C1777.793091,1265.959839 1761.808594,1266.018311 1745.956055,1266.018311 
	C1740.518921,1284.395996 1745.474854,1298.791138 1761.088501,1308.401733 
	C1769.857910,1313.799561 1779.081177,1318.537842 1788.388916,1322.965576 
	C1803.147217,1329.986206 1810.476929,1340.770386 1810.190308,1357.647339 
	C1809.556396,1394.962769 1809.808838,1432.293701 1809.771606,1469.618408 
	C1809.764038,1477.168579 1808.187500,1484.154297 1803.112305,1490.853516 
z"/>
<path fill="#FEFBFC" opacity="1.000000" stroke="none" 
	d="
M1150.000244,1222.765991 
	C1182.577759,1222.766113 1214.155151,1222.766113 1245.593750,1222.766113 
	C1249.765625,1247.983276 1233.311890,1268.603149 1205.750854,1268.300781 
	C1205.750854,1349.029419 1205.750854,1429.757935 1205.750854,1511.097656 
	C1183.498657,1511.097656 1162.354980,1511.097656 1139.756714,1511.097656 
	C1139.490112,1497.742065 1139.669678,1484.246460 1139.637085,1470.761353 
	C1139.604858,1457.441040 1139.630005,1444.120605 1139.630005,1430.800293 
	C1139.630005,1417.146851 1139.630005,1403.493530 1139.630005,1389.840088 
	C1139.630005,1376.519775 1139.630005,1363.199341 1139.630005,1349.879028 
	C1139.630005,1336.225586 1139.630005,1322.572266 1139.630005,1308.918823 
	C1139.630005,1295.664917 1139.630005,1282.411133 1139.630005,1268.117920 
	C1125.046387,1268.117920 1111.242188,1268.117920 1096.845581,1268.117920 
	C1096.845581,1252.904541 1096.845581,1238.724487 1096.845581,1223.378906 
	C1105.339600,1222.119385 1114.221069,1222.935669 1123.026001,1222.795898 
	C1131.682007,1222.658325 1140.342041,1222.765869 1150.000244,1222.765991 
z"/>
<path fill="#FEFBFC" opacity="1.000000" stroke="none" 
	d="
M1032.743164,942.105713 
	C1032.743286,936.538269 1032.743286,931.953857 1032.743286,926.529907 
	C1018.521484,926.529907 1005.308289,926.529907 991.488953,926.529907 
	C991.488953,911.531860 991.488953,897.394836 991.488953,882.677002 
	C1040.245361,882.677002 1088.668335,882.677002 1137.045410,882.677002 
	C1140.839478,906.849487 1127.181641,922.434509 1097.033813,927.522583 
	C1097.033813,1006.038757 1097.033813,1084.770386 1097.033813,1163.825684 
	C1075.245117,1163.825684 1054.658691,1163.825684 1032.742920,1163.825684 
	C1032.742920,1090.056885 1032.742920,1016.572815 1032.743164,942.105713 
z"/>
<path fill="#FFFDFD" opacity="1.000000" stroke="none" 
	d="
M1732.000000,882.108521 
	C1759.597412,882.108582 1786.194824,882.108582 1812.647095,882.108582 
	C1816.306641,907.052124 1801.891479,923.233276 1772.685547,927.216125 
	C1772.685547,1005.628784 1772.685547,1084.163086 1772.685547,1163.424072 
	C1751.088501,1163.424072 1730.304077,1163.424072 1708.631592,1163.424072 
	C1708.631592,1084.909546 1708.631592,1006.385254 1708.631592,926.702637 
	C1694.358521,926.702637 1680.892700,926.702637 1666.876709,926.702637 
	C1666.876709,911.421997 1666.876709,897.299255 1666.876709,882.108521 
	C1688.530151,882.108521 1709.765137,882.108521 1732.000000,882.108521 
z"/>
<path fill="#FEFBFC" opacity="1.000000" stroke="none" 
	d="
M814.773804,1433.999756 
	C814.773987,1363.092529 814.773987,1293.185303 814.773987,1222.537842 
	C836.248535,1222.537842 857.026733,1222.537842 878.437134,1222.537842 
	C878.437134,1317.877930 878.437134,1413.305664 878.437134,1509.288696 
	C857.523438,1509.288696 837.007263,1509.288696 816.406006,1509.288696 
	C816.252808,1509.147827 815.999512,1508.950806 815.791504,1508.713867 
	C815.572754,1508.464722 815.228943,1508.178833 815.227051,1507.906860 
	C815.058105,1483.604614 814.916809,1459.302124 814.773804,1433.999756 
z"/>
<path fill="#FFFBFC" opacity="1.000000" stroke="none" 
	d="
M1570.431885,1112.000000 
	C1570.432007,1035.103760 1570.432007,959.207642 1570.432007,882.708679 
	C1591.493286,882.708679 1611.634399,882.708679 1632.350464,882.708679 
	C1632.350464,975.750183 1632.350464,1068.608643 1632.343994,1161.467529 
	C1625.127808,1163.605713 1580.350952,1163.837158 1570.431885,1161.601929 
	C1570.431885,1145.531372 1570.431885,1129.265747 1570.431885,1112.000000 
z"/>
<path fill="#DD0434" opacity="1.000000" stroke="none" 
	d="
M688.500122,1117.509521 
	C687.721497,1085.489746 687.594788,1054.183350 687.544373,1022.876892 
	C687.498169,994.230347 687.534607,965.583740 687.534607,936.937134 
	C687.534607,933.707520 687.534546,930.477966 687.534546,926.608948 
	C695.512817,926.608948 702.449402,926.214111 709.319946,926.718384 
	C716.400635,927.238037 720.951538,931.332031 722.137512,938.563049 
	C722.728882,942.168945 723.462891,945.815308 723.467224,949.444153 
	C723.532104,1004.404297 723.489502,1059.364502 723.442261,1114.324707 
	C723.441467,1115.272339 723.072388,1116.219727 722.655457,1118.222900 
	C711.539612,1118.222900 700.362488,1118.222900 688.500122,1117.509521 
z"/>
<path fill="#DE0535" opacity="1.000000" stroke="none" 
	d="
M1333.650879,1332.000000 
	C1333.652710,1316.010376 1333.610474,1301.020508 1333.685791,1286.031250 
	C1333.705933,1282.041870 1333.975830,1278.044434 1334.333984,1274.068970 
	C1334.678101,1270.248779 1336.677979,1267.942993 1340.786377,1267.998169 
	C1341.118530,1268.002686 1341.450806,1267.952881 1341.783447,1267.938354 
	C1364.318237,1266.956665 1367.623535,1271.263672 1369.048950,1291.028442 
	C1369.384155,1295.675415 1369.544067,1300.344971 1369.549194,1305.004272 
	C1369.598145,1349.973145 1369.640625,1394.942017 1369.547363,1439.910645 
	C1369.537231,1444.822388 1368.663208,1449.732178 1368.074341,1455.841431 
	C1361.191528,1455.957031 1354.938477,1456.596558 1348.795776,1456.033325 
	C1340.690552,1455.290039 1335.508057,1449.974731 1334.269653,1441.892334 
	C1333.668213,1437.967285 1333.697144,1433.923218 1333.691284,1429.932739 
	C1333.644287,1397.621826 1333.656616,1365.310913 1333.650879,1332.000000 
z"/>
<path fill="#DE0535" opacity="1.000000" stroke="none" 
	d="
M1435.918579,994.000000 
	C1435.930176,975.700317 1435.777344,958.398376 1436.005493,941.101562 
	C1436.188354,927.246094 1438.029297,925.723328 1451.769165,926.350403 
	C1464.901611,926.949768 1468.837280,930.277222 1470.725220,943.276001 
	C1471.533936,948.844116 1471.788086,954.534302 1471.799805,960.170044 
	C1471.894653,1005.748169 1471.902832,1051.326538 1471.866089,1096.904785 
	C1471.854980,1110.666382 1469.988647,1112.330078 1456.205078,1111.698730 
	C1444.159424,1111.146851 1437.943604,1105.650146 1436.124023,1093.783081 
	C1435.773071,1091.493774 1435.721680,1089.140747 1435.725098,1086.817383 
	C1435.769287,1056.211548 1435.848267,1025.605835 1435.918579,994.000000 
z"/>
<path fill="#DE0838" opacity="1.000000" stroke="none" 
	d="
M1234.478271,938.354675 
	C1234.478394,934.140930 1234.478394,930.878357 1234.478394,926.742371 
	C1242.755737,926.742371 1250.265869,926.401428 1257.728516,926.851257 
	C1263.598755,927.205017 1267.489990,930.634033 1268.655396,936.677551 
	C1268.843140,937.651306 1269.384766,938.599365 1269.386841,939.560120 
	C1269.428955,958.458435 1269.791626,977.368042 1269.228149,996.249634 
	C1269.003540,1003.775208 1265.103149,1006.381470 1257.383179,1006.526917 
	C1250.141113,1006.663391 1242.894287,1006.556091 1234.478271,1006.556091 
	C1234.478271,983.579224 1234.478271,961.442566 1234.478271,938.354675 
z"/>
<path fill="#DE0B3A" opacity="1.000000" stroke="none" 
	d="
M674.564148,1302.002686 
	C674.564270,1289.768555 674.564270,1278.533325 674.564270,1267.119995 
	C683.947937,1267.119995 692.187073,1266.687500 700.353027,1267.274170 
	C705.670349,1267.656006 710.111023,1270.770142 710.284058,1276.733276 
	C710.986755,1300.941895 711.393188,1325.159180 711.919373,1349.864380 
	C698.918213,1349.864380 687.376465,1349.864380 674.564026,1349.864380 
	C674.564026,1334.121948 674.564026,1318.561890 674.564148,1302.002686 
z"/>
</svg>