<svg version="1.1" id="Layer_1" xmlns="http://www.w3.org/2000/svg" xmlns:xlink="http://www.w3.org/1999/xlink" x="0px" y="0px"
	 width="100%" viewBox="0 0 960 1200" enable-background="new 0 0 960 1200" xml:space="preserve">
<path fill="none" opacity="1.000000" stroke="none"
	d="
M601.000000,1201.000000 
	C401.019196,1201.000000 201.038361,1201.000000 1.028771,1201.000000 
	C1.028771,801.057556 1.028771,401.115082 1.028771,1.086314 
	C320.911743,1.086314 640.823486,1.086314 960.867676,1.086314 
	C960.867676,400.999969 960.867676,801.000000 960.873779,1201.000000 
	C844.890503,1201.000000 728.901184,1201.000000 612.116211,1200.631226 
	C611.695312,1197.899048 612.070129,1195.535645 612.449280,1193.144287 
	C614.648987,1193.020874 616.725769,1192.904297 618.520935,1192.803589 
	C619.030273,1184.513306 619.697327,1176.627563 619.960205,1168.728149 
	C620.434387,1154.481323 620.677185,1140.226562 620.997070,1125.974609 
	C621.343079,1110.556763 621.656799,1095.138184 622.002869,1079.720337 
	C622.322693,1065.468384 622.677246,1051.217163 622.997009,1036.965210 
	C623.343079,1021.547424 623.656860,1006.128723 624.002869,990.710876 
	C624.322693,976.458984 624.674194,962.207764 624.997925,947.955933 
	C625.340515,932.871338 625.662354,917.786133 626.001282,902.701416 
	C626.328857,888.116394 626.697144,873.532166 626.992126,858.946472 
	C627.357849,840.862488 627.685547,822.777588 627.994934,804.692566 
	C628.349854,783.941772 628.734558,763.190918 628.923767,742.438477 
	C628.950806,739.477478 630.112732,738.238037 632.732666,738.022095 
	C641.396667,737.307861 650.072815,736.736267 658.732666,735.977539 
	C665.240601,735.407349 671.753174,734.798645 678.223694,733.913940 
	C689.319458,732.396729 700.387451,730.673523 711.460693,728.994568 
	C724.769226,726.976685 738.188416,725.479065 751.349365,722.744324 
	C772.935303,718.259033 794.405823,713.178650 815.824402,707.938293 
	C836.891052,702.784058 857.296570,695.552673 876.992126,686.463257 
	C892.077820,679.501282 905.016785,669.784363 915.830200,656.918945 
	C924.547791,646.547119 924.775757,629.629089 920.544128,620.111023 
	C915.666870,609.140869 906.162842,602.645447 896.166626,597.089539 
	C878.663208,587.361267 859.853088,580.686401 840.411621,576.297791 
	C819.470459,571.570740 798.320557,567.667908 777.138672,564.145264 
	C764.433105,562.032288 751.513733,561.049927 738.651184,560.079346 
	C725.173645,559.062317 711.655640,558.376770 698.143555,558.077332 
	C682.985352,557.741333 667.813965,558.000000 652.648315,558.000000 
	C645.868774,558.000000 639.089233,558.000000 631.624084,558.000000 
	C632.105957,550.953918 632.908264,544.419556 632.938965,537.881653 
	C633.078308,508.217651 633.187134,478.550934 632.914673,448.888763 
	C632.793213,435.662720 627.593506,424.093964 617.679260,415.375946 
	C607.041016,406.021301 594.066650,401.231506 580.137695,398.978943 
	C577.144287,398.494904 574.191772,397.758728 570.680725,397.026062 
	C578.499084,392.707825 585.625854,389.008667 592.518921,384.915710 
	C607.578003,375.973846 620.437622,364.288574 631.395142,350.813324 
	C638.139832,342.518829 643.667908,333.118652 648.913818,323.751007 
	C655.556946,311.888153 658.730164,298.826691 658.966370,285.221191 
	C659.189026,272.397491 660.435547,259.342377 658.555786,246.789780 
	C655.734192,227.947922 646.395508,212.124847 631.345947,199.620453 
	C618.094604,188.610168 603.330933,180.698364 587.275452,175.052246 
	C569.564270,168.823837 551.353821,164.569077 532.590759,163.002823 
	C516.090881,161.625458 499.603699,159.685822 483.074738,159.182236 
	C466.681976,158.682816 450.243866,159.658951 433.826355,160.020065 
	C432.865326,160.041183 431.917175,160.438095 430.951843,160.510086 
	C423.998779,161.028656 417.042786,161.508453 410.631195,161.962082 
	C408.679962,150.382812 407.016296,139.472305 404.972717,128.633438 
	C402.133148,113.572876 399.568970,98.426567 395.870514,83.570000 
	C390.754700,63.020054 384.835144,42.664700 378.978180,22.307041 
	C375.935059,11.729815 375.661682,11.806044 365.214050,12.031125 
	C364.897644,12.037942 364.584900,12.214955 365.581238,11.905507 
	C363.483887,14.852396 362.086731,16.981779 360.511444,18.970032 
	C359.472137,20.281776 357.501923,21.197556 357.095520,22.618658 
	C348.933472,51.158802 340.425385,79.615593 333.077789,108.367928 
	C327.573456,129.907196 323.606720,151.839401 318.887329,173.915024 
	C268.687500,182.752502 218.497681,194.630692 168.938354,209.491791 
	C169.383820,213.275879 169.196335,216.327530 164.337311,216.428513 
	C163.538162,216.445114 162.240265,218.300461 162.107285,219.417282 
	C161.781174,222.155685 162.000717,224.959045 162.000717,228.667358 
	C173.520157,227.753250 184.463531,226.765686 195.424515,226.046753 
	C207.752960,225.238098 220.092529,224.559830 232.436127,224.032822 
	C243.848007,223.545593 255.269730,223.196854 266.690613,223.037460 
	C278.687469,222.870041 290.688477,223.000000 302.687653,223.000000 
	C306.437469,223.000000 310.187256,223.000000 314.257843,223.000000 
	C313.722076,225.079041 313.124268,226.462097 313.039185,227.876038 
	C312.306915,240.042816 311.094452,252.215775 311.107025,264.385742 
	C311.145325,301.469452 311.611847,338.553253 312.030060,375.635712 
	C312.173920,388.389557 312.691681,401.138855 312.993439,413.891296 
	C313.354279,429.142181 313.741974,444.393066 313.972687,459.646149 
	C314.118866,469.309937 313.997772,478.977753 314.000732,488.643768 
	C314.002960,495.976532 314.015625,503.309265 314.016846,510.642029 
	C314.019440,526.329773 314.017670,542.017517 314.017670,559.000000 
	C294.776978,559.000000 275.053101,558.762268 255.338486,559.086060 
	C242.827225,559.291626 230.319183,560.180420 217.829071,561.043091 
	C206.396240,561.832703 194.956451,562.720947 183.579391,564.069092 
	C169.061523,565.789490 154.459030,567.297607 140.150986,570.178528 
	C113.558327,575.532715 87.122337,581.613464 62.578117,593.926514 
	C50.147419,600.162598 40.181179,609.267090 31.265503,619.551697 
	C25.051088,626.720337 24.911623,635.778259 24.830433,644.930908 
	C24.742294,654.866821 29.558504,662.322632 36.107269,668.282104 
	C46.883499,678.088623 59.717037,684.918823 73.149666,690.713684 
	C94.294411,699.835510 116.245796,706.372498 138.504150,711.936890 
	C153.183563,715.606689 167.966019,718.919861 182.804077,721.883179 
	C196.452164,724.608887 210.204376,726.866028 223.970490,728.931274 
	C235.081070,730.598206 246.285141,731.635864 257.439575,733.018616 
	C267.778046,734.300110 278.090057,735.810852 288.442993,736.955688 
	C297.192627,737.923218 305.984222,738.511292 314.544373,739.248901 
	C315.038574,749.757385 315.555756,759.977173 315.989075,770.200500 
	C316.374084,779.283508 316.693909,788.369690 316.991974,797.456116 
	C317.355591,808.540283 317.641693,819.626953 318.007782,830.711060 
	C318.302399,839.630981 318.700134,848.547424 318.992401,857.467407 
	C319.680603,878.470398 320.387909,899.473022 320.981781,920.478760 
	C321.417603,935.894104 321.683838,951.314209 322.042603,966.731812 
	C322.049408,967.023926 322.266907,967.311157 322.468170,967.800049 
	C325.811279,967.800049 329.237244,967.800049 332.622345,967.800049 
	C333.183319,965.526917 333.713928,963.376953 334.321014,960.916992 
	C336.186371,960.916992 337.942474,960.916992 339.489166,960.916992 
	C340.027405,956.986633 340.670410,953.454651 340.969971,949.893738 
	C342.042542,937.145203 343.073669,924.392090 343.979584,911.630737 
	C345.062073,896.382080 345.988129,881.122375 347.007629,865.869141 
	C347.291992,861.614502 347.592255,857.357910 348.045868,853.119446 
	C348.184692,851.822449 348.859070,850.582764 349.288208,849.316833 
	C349.858795,849.379028 350.429413,849.441284 351.000000,849.503479 
	C351.000000,864.914062 350.869995,880.326111 351.037170,895.734863 
	C351.199036,910.654968 351.739746,925.570496 351.983429,940.490173 
	C352.379425,964.740112 352.667572,988.991760 353.013184,1013.242554 
	C353.019806,1013.707214 353.173767,1014.169739 353.251648,1014.593445 
	C364.566223,1015.840759 364.566223,1015.840759 365.426300,1007.981689 
	C367.464966,1007.981689 369.552612,1007.981689 371.834869,1007.981689 
	C372.240448,1002.412231 372.652771,997.199402 372.991241,991.981812 
	C373.364197,986.232605 373.552917,980.469482 374.026459,974.729248 
	C375.292419,959.383240 376.803619,944.056396 377.956116,928.702332 
	C378.843353,916.882263 379.271698,905.028320 380.031738,893.197693 
	C380.342896,888.353943 380.990021,883.531738 381.484283,878.699768 
	C381.989532,878.707825 382.494751,878.715942 383.000000,878.724060 
	C383.000000,892.450623 382.870667,906.178772 383.038544,919.903259 
	C383.188446,932.157227 383.668427,944.407166 383.999512,956.658936 
	C384.335052,969.077271 384.733795,981.494324 384.984436,993.914368 
	C385.376251,1013.331116 385.672852,1032.749756 385.993286,1052.167969 
	C386.041473,1055.089478 386.000000,1058.012451 386.000000,1060.846924 
	C389.993317,1060.846924 393.299835,1060.846924 396.586121,1060.846924 
	C397.242828,1058.121582 397.865936,1055.535645 398.521301,1052.815918 
	C400.765717,1052.815918 402.710205,1052.815918 404.519379,1052.815918 
	C405.024017,1045.529175 405.639099,1038.488525 405.969177,1031.434570 
	C406.425262,1021.688477 406.678802,1011.932617 406.997284,1002.180237 
	C407.672302,981.510132 408.329132,960.839417 409.001801,940.169250 
	C409.324585,930.250305 409.679230,920.332520 409.996002,910.413391 
	C410.344666,899.495361 410.648895,888.575989 411.005310,877.658203 
	C411.312775,868.238770 411.714417,858.822266 411.987854,849.401917 
	C412.367615,836.318237 412.692688,823.232910 412.993286,810.147095 
	C413.355103,794.396240 413.568726,778.641296 414.050873,762.894287 
	C414.230591,757.024780 414.987152,751.172913 415.535522,744.661987 
	C451.841614,744.661987 488.206238,744.661987 524.603882,744.661987 
	C525.043335,750.373840 525.666626,756.584595 525.966309,762.810852 
	C526.427429,772.389954 526.686218,781.979065 526.994141,791.565125 
	C527.350220,802.649536 527.649231,813.735779 528.005249,824.820190 
	C528.313110,834.406311 528.688416,843.990112 528.993652,853.576294 
	C529.351746,864.827271 529.649475,876.080261 530.005188,887.331299 
	C530.313538,897.083984 530.683777,906.834778 530.994812,916.587341 
	C531.348267,927.671875 531.649292,938.758057 532.005249,949.842468 
	C532.313232,959.428528 532.684082,969.012573 532.994751,978.598511 
	C533.348572,989.516357 533.740601,1000.433655 533.983337,1011.354187 
	C534.385315,1029.437378 534.677673,1047.522949 535.042236,1065.606934 
	C535.051147,1066.047241 535.365601,1066.481323 535.519897,1066.873291 
	C546.070190,1067.253784 546.070190,1067.253784 547.661072,1060.145508 
	C549.416565,1060.005005 551.161438,1059.865356 552.780518,1059.735718 
	C553.539978,1049.340088 554.337158,1039.352173 554.982422,1029.354248 
	C555.724548,1017.854919 556.411865,1006.350891 556.978821,994.841797 
	C557.726013,979.675171 558.292114,964.499573 559.029480,949.332336 
	C559.207703,945.666931 559.752380,942.019226 560.128540,938.363403 
	C561.009827,948.844788 561.543335,959.240662 561.988525,969.640320 
	C562.377319,978.723206 562.671387,987.810242 562.998535,996.895752 
	C563.337769,1006.314087 563.660889,1015.733093 564.001221,1025.151489 
	C564.663757,1043.488770 565.430603,1061.823120 565.970642,1080.163940 
	C566.444275,1096.244629 566.668884,1112.332764 566.996094,1128.417725 
	C567.025391,1129.857422 567.000000,1131.298218 567.000000,1132.746094 
	C571.270081,1132.746094 575.018616,1132.746094 579.132080,1132.746094 
	C579.132080,1130.413818 579.132080,1128.333252 579.132080,1125.880615 
	C581.579407,1125.880615 583.655334,1125.880615 585.510315,1125.880615 
	C586.037109,1121.260864 586.761780,1117.056641 586.955627,1112.828003 
	C587.726990,1095.995483 588.323059,1079.154907 589.004395,1062.318115 
	C589.311401,1054.731689 589.683716,1047.147949 589.995605,1039.561646 
	C590.674255,1023.058105 591.422974,1006.556824 591.972473,990.048950 
	C592.441162,975.968445 592.668640,961.879944 593.019653,947.795410 
	C593.030945,947.344238 593.226379,946.897644 593.513245,945.722656 
	C594.074463,949.787781 594.834229,953.129944 594.947876,956.493835 
	C595.406860,970.074524 595.668213,983.661987 595.999512,997.247009 
	C596.334961,1010.998535 596.665161,1024.750244 597.000488,1038.501831 
	C597.331848,1052.086792 597.668274,1065.671875 597.999573,1079.256836 
	C598.334839,1093.008423 598.745300,1106.758789 598.982361,1120.511963 
	C599.380249,1143.595215 599.629395,1166.681030 600.037537,1189.764160 
	C600.103821,1193.513916 600.666687,1197.254883 601.000000,1201.000000 
M691.542358,537.000000 
	C695.636414,536.571228 699.730469,536.142517 703.802979,535.716064 
	C703.802979,531.221680 703.802979,527.803833 703.802979,524.000000 
	C700.843384,524.000000 698.065430,524.000000 695.287415,524.000000 
	C692.549988,524.000000 689.812500,524.000000 687.000061,524.000000 
	C687.000061,527.667236 687.211548,530.664124 686.941101,533.616943 
	C686.666382,536.617188 687.945190,537.416138 691.542358,537.000000 
M792.000000,527.618225 
	C792.131287,525.548584 792.327637,523.720947 789.124329,523.931274 
	C784.871338,524.210571 780.586182,524.000244 776.370605,524.000244 
	C775.152344,537.088684 777.417175,538.854675 792.000000,536.425476 
	C792.000000,533.840210 792.000000,531.209351 792.000000,527.618225 
z"/>
<path fill="#FFFFFF" opacity="1.000000" stroke="white"
	d="
M601.458069,1201.000000 
	C600.666687,1197.254883 600.103821,1193.513916 600.037537,1189.764160 
	C599.629395,1166.681030 599.380249,1143.595215 598.982361,1120.511963 
	C598.745300,1106.758789 598.334839,1093.008423 597.999573,1079.256836 
	C597.668274,1065.671875 597.331848,1052.086792 597.000488,1038.501831 
	C596.665161,1024.750244 596.334961,1010.998535 595.999512,997.247009 
	C595.668213,983.661987 595.406860,970.074524 594.947876,956.493835 
	C594.834229,953.129944 594.074463,949.787781 593.513245,945.722656 
	C593.226379,946.897644 593.030945,947.344238 593.019653,947.795410 
	C592.668640,961.879944 592.441162,975.968445 591.972473,990.048950 
	C591.422974,1006.556824 590.674255,1023.058105 589.995605,1039.561646 
	C589.683716,1047.147949 589.311401,1054.731689 589.004395,1062.318115 
	C588.323059,1079.154907 587.726990,1095.995483 586.955627,1112.828003 
	C586.761780,1117.056641 586.037109,1121.260864 585.510315,1125.880615 
	C583.655334,1125.880615 581.579407,1125.880615 579.132080,1125.880615 
	C579.132080,1128.333252 579.132080,1130.413818 579.132080,1132.746094 
	C575.018616,1132.746094 571.270081,1132.746094 567.000000,1132.746094 
	C567.000000,1131.298218 567.025391,1129.857422 566.996094,1128.417725 
	C566.668884,1112.332764 566.444275,1096.244629 565.970642,1080.163940 
	C565.430603,1061.823120 564.663757,1043.488770 564.001221,1025.151489 
	C563.660889,1015.733093 563.337769,1006.314087 562.998535,996.895752 
	C562.671387,987.810242 562.377319,978.723206 561.988525,969.640320 
	C561.543335,959.240662 561.009827,948.844788 560.128540,938.363403 
	C559.752380,942.019226 559.207703,945.666931 559.029480,949.332336 
	C558.292114,964.499573 557.726013,979.675171 556.978821,994.841797 
	C556.411865,1006.350891 555.724548,1017.854919 554.982422,1029.354248 
	C554.337158,1039.352173 553.539978,1049.340088 552.780518,1059.735718 
	C551.161438,1059.865356 549.416565,1060.005005 547.661072,1060.145508 
	C546.070190,1067.253784 546.070190,1067.253784 535.519897,1066.873291 
	C535.365601,1066.481323 535.051147,1066.047241 535.042236,1065.606934 
	C534.677673,1047.522949 534.385315,1029.437378 533.983337,1011.354187 
	C533.740601,1000.433655 533.348572,989.516357 532.994751,978.598511 
	C532.684082,969.012573 532.313232,959.428528 532.005249,949.842468 
	C531.649292,938.758057 531.348267,927.671875 530.994812,916.587341 
	C530.683777,906.834778 530.313538,897.083984 530.005188,887.331299 
	C529.649475,876.080261 529.351746,864.827271 528.993652,853.576294 
	C528.688416,843.990112 528.313110,834.406311 528.005249,824.820190 
	C527.649231,813.735779 527.350220,802.649536 526.994141,791.565125 
	C526.686218,781.979065 526.427429,772.389954 525.966309,762.810852 
	C525.666626,756.584595 525.043335,750.373840 524.603882,744.661987 
	C488.206238,744.661987 451.841614,744.661987 415.535522,744.661987 
	C414.987152,751.172913 414.230591,757.024780 414.050873,762.894287 
	C413.568726,778.641296 413.355103,794.396240 412.993286,810.147095 
	C412.692688,823.232910 412.367615,836.318237 411.987854,849.401917 
	C411.714417,858.822266 411.312775,868.238770 411.005310,877.658203 
	C410.648895,888.575989 410.344666,899.495361 409.996002,910.413391 
	C409.679230,920.332520 409.324585,930.250305 409.001801,940.169250 
	C408.329132,960.839417 407.672302,981.510132 406.997284,1002.180237 
	C406.678802,1011.932617 406.425262,1021.688477 405.969177,1031.434570 
	C405.639099,1038.488525 405.024017,1045.529175 404.519379,1052.815918 
	C402.710205,1052.815918 400.765717,1052.815918 398.521301,1052.815918 
	C397.865936,1055.535645 397.242828,1058.121582 396.586121,1060.846924 
	C393.299835,1060.846924 389.993317,1060.846924 386.000000,1060.846924 
	C386.000000,1058.012451 386.041473,1055.089478 385.993286,1052.167969 
	C385.672852,1032.749756 385.376251,1013.331116 384.984436,993.914368 
	C384.733795,981.494324 384.335052,969.077271 383.999512,956.658936 
	C383.668427,944.407166 383.188446,932.157227 383.038544,919.903259 
	C382.870667,906.178772 383.000000,892.450623 383.000000,878.724060 
	C382.494751,878.715942 381.989532,878.707825 381.484283,878.699768 
	C380.990021,883.531738 380.342896,888.353943 380.031738,893.197693 
	C379.271698,905.028320 378.843353,916.882263 377.956116,928.702332 
	C376.803619,944.056396 375.292419,959.383240 374.026459,974.729248 
	C373.552917,980.469482 373.364197,986.232605 372.991241,991.981812 
	C372.652771,997.199402 372.240448,1002.412231 371.834869,1007.981689 
	C369.552612,1007.981689 367.464966,1007.981689 365.426300,1007.981689 
	C364.566223,1015.840759 364.566223,1015.840759 353.251648,1014.593445 
	C353.173767,1014.169739 353.019806,1013.707214 353.013184,1013.242554 
	C352.667572,988.991760 352.379425,964.740112 351.983429,940.490173 
	C351.739746,925.570496 351.199036,910.654968 351.037170,895.734863 
	C350.869995,880.326111 351.000000,864.914062 351.000000,849.503479 
	C350.429413,849.441284 349.858795,849.379028 349.288208,849.316833 
	C348.859070,850.582764 348.184692,851.822449 348.045868,853.119446 
	C347.592255,857.357910 347.291992,861.614502 347.007629,865.869141 
	C345.988129,881.122375 345.062073,896.382080 343.979584,911.630737 
	C343.073669,924.392090 342.042542,937.145203 340.969971,949.893738 
	C340.670410,953.454651 340.027405,956.986633 339.489166,960.916992 
	C337.942474,960.916992 336.186371,960.916992 334.321014,960.916992 
	C333.713928,963.376953 333.183319,965.526917 332.622345,967.800049 
	C329.237244,967.800049 325.811279,967.800049 322.468170,967.800049 
	C322.266907,967.311157 322.049408,967.023926 322.042603,966.731812 
	C321.683838,951.314209 321.417603,935.894104 320.981781,920.478760 
	C320.387909,899.473022 319.680603,878.470398 318.992401,857.467407 
	C318.700134,848.547424 318.302399,839.630981 318.007782,830.711060 
	C317.641693,819.626953 317.355591,808.540283 316.991974,797.456116 
	C316.693909,788.369690 316.374084,779.283508 315.989075,770.200500 
	C315.555756,759.977173 315.038574,749.757385 314.544373,739.248901 
	C305.984222,738.511292 297.192627,737.923218 288.442993,736.955688 
	C278.090057,735.810852 267.778046,734.300110 257.439575,733.018616 
	C246.285141,731.635864 235.081070,730.598206 223.970490,728.931274 
	C210.204376,726.866028 196.452164,724.608887 182.804077,721.883179 
	C167.966019,718.919861 153.183563,715.606689 138.504150,711.936890 
	C116.245796,706.372498 94.294411,699.835510 73.149666,690.713684 
	C59.717037,684.918823 46.883499,678.088623 36.107269,668.282104 
	C29.558504,662.322632 24.742294,654.866821 24.830433,644.930908 
	C24.911623,635.778259 25.051088,626.720337 31.265503,619.551697 
	C40.181179,609.267090 50.147419,600.162598 62.578117,593.926514 
	C87.122337,581.613464 113.558327,575.532715 140.150986,570.178528 
	C154.459030,567.297607 169.061523,565.789490 183.579391,564.069092 
	C194.956451,562.720947 206.396240,561.832703 217.829071,561.043091 
	C230.319183,560.180420 242.827225,559.291626 255.338486,559.086060 
	C275.053101,558.762268 294.776978,559.000000 314.017670,559.000000 
	C314.017670,542.017517 314.019440,526.329773 314.016846,510.642029 
	C314.015625,503.309265 314.002960,495.976532 314.000732,488.643768 
	C313.997772,478.977753 314.118866,469.309937 313.972687,459.646149 
	C313.741974,444.393066 313.354279,429.142181 312.993439,413.891296 
	C312.691681,401.138855 312.173920,388.389557 312.030060,375.635712 
	C311.611847,338.553253 311.145325,301.469452 311.107025,264.385742 
	C311.094452,252.215775 312.306915,240.042816 313.039185,227.876038 
	C313.124268,226.462097 313.722076,225.079041 314.257843,223.000000 
	C310.187256,223.000000 306.437469,223.000000 302.687653,223.000000 
	C290.688477,223.000000 278.687469,222.870041 266.690613,223.037460 
	C255.269730,223.196854 243.848007,223.545593 232.436127,224.032822 
	C220.092529,224.559830 207.752960,225.238098 195.424515,226.046753 
	C184.463531,226.765686 173.520157,227.753250 162.000717,228.667358 
	C162.000717,224.959045 161.781174,222.155685 162.107285,219.417282 
	C162.240265,218.300461 163.538162,216.445114 164.337311,216.428513 
	C169.196335,216.327530 169.383820,213.275879 168.938354,209.491791 
	C218.497681,194.630692 268.687500,182.752502 318.887329,173.915024 
	C323.606720,151.839401 327.573456,129.907196 333.077789,108.367928 
	C340.425385,79.615593 348.933472,51.158802 357.095520,22.618658 
	C357.501923,21.197556 359.472137,20.281776 360.511444,18.970032 
	C362.086731,16.981779 363.483887,14.852396 365.581238,11.905507 
	C364.584900,12.214955 364.897644,12.037942 365.214050,12.031125 
	C375.661682,11.806044 375.935059,11.729815 378.978180,22.307041 
	C384.835144,42.664700 390.754700,63.020054 395.870514,83.570000 
	C399.568970,98.426567 402.133148,113.572876 404.972717,128.633438 
	C407.016296,139.472305 408.679962,150.382812 410.631195,161.962082 
	C417.042786,161.508453 423.998779,161.028656 430.951843,160.510086 
	C431.917175,160.438095 432.865326,160.041183 433.826355,160.020065 
	C450.243866,159.658951 466.681976,158.682816 483.074738,159.182236 
	C499.603699,159.685822 516.090881,161.625458 532.590759,163.002823 
	C551.353821,164.569077 569.564270,168.823837 587.275452,175.052246 
	C603.330933,180.698364 618.094604,188.610168 631.345947,199.620453 
	C646.395508,212.124847 655.734192,227.947922 658.555786,246.789780 
	C660.435547,259.342377 659.189026,272.397491 658.966370,285.221191 
	C658.730164,298.826691 655.556946,311.888153 648.913818,323.751007 
	C643.667908,333.118652 638.139832,342.518829 631.395142,350.813324 
	C620.437622,364.288574 607.578003,375.973846 592.518921,384.915710 
	C585.625854,389.008667 578.499084,392.707825 570.680725,397.026062 
	C574.191772,397.758728 577.144287,398.494904 580.137695,398.978943 
	C594.066650,401.231506 607.041016,406.021301 617.679260,415.375946 
	C627.593506,424.093964 632.793213,435.662720 632.914673,448.888763 
	C633.187134,478.550934 633.078308,508.217651 632.938965,537.881653 
	C632.908264,544.419556 632.105957,550.953918 631.624084,558.000000 
	C639.089233,558.000000 645.868774,558.000000 652.648315,558.000000 
	C667.813965,558.000000 682.985352,557.741333 698.143555,558.077332 
	C711.655640,558.376770 725.173645,559.062317 738.651184,560.079346 
	C751.513733,561.049927 764.433105,562.032288 777.138672,564.145264 
	C798.320557,567.667908 819.470459,571.570740 840.411621,576.297791 
	C859.853088,580.686401 878.663208,587.361267 896.166626,597.089539 
	C906.162842,602.645447 915.666870,609.140869 920.544128,620.111023 
	C924.775757,629.629089 924.547791,646.547119 915.830200,656.918945 
	C905.016785,669.784363 892.077820,679.501282 876.992126,686.463257 
	C857.296570,695.552673 836.891052,702.784058 815.824402,707.938293 
	C794.405823,713.178650 772.935303,718.259033 751.349365,722.744324 
	C738.188416,725.479065 724.769226,726.976685 711.460693,728.994568 
	C700.387451,730.673523 689.319458,732.396729 678.223694,733.913940 
	C671.753174,734.798645 665.240601,735.407349 658.732666,735.977539 
	C650.072815,736.736267 641.396667,737.307861 632.732666,738.022095 
	C630.112732,738.238037 628.950806,739.477478 628.923767,742.438477 
	C628.734558,763.190918 628.349854,783.941772 627.994934,804.692566 
	C627.685547,822.777588 627.357849,840.862488 626.992126,858.946472 
	C626.697144,873.532166 626.328857,888.116394 626.001282,902.701416 
	C625.662354,917.786133 625.340515,932.871338 624.997925,947.955933 
	C624.674194,962.207764 624.322693,976.458984 624.002869,990.710876 
	C623.656860,1006.128723 623.343079,1021.547424 622.997009,1036.965210 
	C622.677246,1051.217163 622.322693,1065.468384 622.002869,1079.720337 
	C621.656799,1095.138184 621.343079,1110.556763 620.997070,1125.974609 
	C620.677185,1140.226562 620.434387,1154.481323 619.960205,1168.728149 
	C619.697327,1176.627563 619.030273,1184.513306 618.520935,1192.803589 
	C616.725769,1192.904297 614.648987,1193.020874 612.449280,1193.144287 
	C612.070129,1195.535645 611.695312,1197.899048 611.660278,1200.631226 
	C608.638733,1201.000000 605.277405,1201.000000 601.458069,1201.000000 
M617.704468,355.822510 
	C617.951721,355.190430 618.199036,354.558350 618.992371,353.628998 
	C630.064026,342.855286 639.022217,330.657623 645.287170,316.416748 
	C654.360474,295.792145 657.187927,274.221069 653.742371,252.244171 
	C650.769714,233.283432 641.554199,217.357819 626.459839,204.712936 
	C613.262573,193.657394 598.535339,185.650162 582.515015,180.096588 
	C552.337830,169.635468 521.043762,165.422440 489.187866,164.998276 
	C487.028900,164.969543 484.869812,164.855484 482.711700,164.876770 
	C467.220917,165.029465 451.727112,165.069595 436.241333,165.440369 
	C429.521912,165.601242 422.818146,166.446472 416.109283,167.005402 
	C412.462616,167.309204 408.820221,167.664444 405.417084,167.974503 
	C398.734039,115.940292 387.169250,65.841789 370.691833,16.902340 
	C370.237579,16.941816 369.783295,16.981295 369.329041,17.020771 
	C368.172028,21.010477 367.015015,25.000183 365.195984,28.698507 
	C364.713104,27.202322 364.230225,25.706137 363.380951,23.074657 
	C360.460510,32.194950 357.738068,40.183933 355.348846,48.271351 
	C351.123657,62.573555 346.701416,76.835960 343.095398,91.297981 
	C338.618195,109.253754 334.703369,127.356972 330.900696,145.471039 
	C328.577850,156.535858 326.922516,167.740799 324.125336,178.985886 
	C318.870239,179.987335 313.600586,180.918396 308.362640,182.002701 
	C288.204102,186.175690 267.974579,190.048279 247.927048,194.702728 
	C229.024368,199.091370 210.301071,204.261215 191.533615,209.218903 
	C185.601959,210.785843 179.782272,212.776611 173.911346,214.573410 
	C173.987671,214.841110 174.063980,215.108795 174.140289,215.376495 
	C180.756927,214.965149 187.373550,214.553818 193.643677,214.842896 
	C184.861343,217.196838 176.079010,219.550781 167.296677,221.904724 
	C167.410446,222.375549 167.524216,222.846359 167.637985,223.317169 
	C171.024384,222.879486 174.399338,222.291153 177.799377,222.032669 
	C187.624435,221.285736 197.451706,220.502533 207.292557,220.042709 
	C224.446014,219.241241 241.605194,218.386841 258.771393,218.080444 
	C277.585449,217.744644 296.410187,217.999115 315.230255,218.012970 
	C316.793701,218.014130 318.357117,218.141953 320.091248,218.218460 
	C319.621094,219.612411 319.100128,220.505814 319.041138,221.428726 
	C317.992706,237.837402 316.248932,254.245331 316.153656,270.662109 
	C315.959869,304.054779 316.607025,337.453339 317.024353,370.847992 
	C317.183624,383.593811 317.708160,396.334595 317.984833,409.079437 
	C318.362671,426.485443 318.653992,443.893372 318.998566,461.300110 
	C319.320038,477.541504 319.821564,493.781189 319.952972,510.023956 
	C320.095764,527.673706 319.903076,545.326050 318.937500,562.997437 
	C299.847076,563.331604 280.746979,563.395508 261.669128,564.079895 
	C244.373123,564.700256 227.066605,565.599487 209.828842,567.108459 
	C192.914001,568.589172 176.038940,570.700867 159.220276,573.061707 
	C135.255569,576.425659 111.729729,581.811707 88.895988,589.970703 
	C71.648544,596.133545 55.091148,603.440063 42.399475,618.079224 
	C42.238865,618.377991 42.078259,618.676758 41.987534,618.990967 
	C41.987534,618.990967 41.962700,618.923828 41.319225,619.144897 
	C40.154167,620.327393 38.887260,621.426575 37.840149,622.705688 
	C29.426363,632.983704 27.024940,643.147461 33.368404,653.367249 
	C36.971004,659.171265 42.001827,664.563721 47.511162,668.616699 
	C61.681847,679.041199 77.659081,686.176086 94.227333,692.087830 
	C117.862633,700.521179 141.947739,707.255127 166.537903,712.200378 
	C181.406860,715.190613 196.251114,718.342712 211.193604,720.916077 
	C223.352295,723.010010 235.642044,724.340942 247.870987,726.029724 
	C259.779572,727.674255 271.659027,729.567810 283.598694,730.939026 
	C295.592590,732.316467 307.644989,733.184509 319.513733,734.261414 
	C320.014984,743.993591 320.575348,753.531738 320.978699,763.076538 
	C321.397491,772.986450 321.668640,782.902588 321.996399,792.816284 
	C322.335175,803.062744 322.658051,813.309692 322.999512,823.556091 
	C323.324371,833.303345 323.675354,843.049622 323.994629,852.797058 
	C324.341187,863.376404 324.654175,873.956848 325.000702,884.536194 
	C325.319977,894.283630 325.726135,904.028503 325.983185,913.777466 
	C326.371887,928.520020 326.667175,943.265137 326.993500,958.009338 
	C327.025757,959.467041 326.997803,960.926025 326.997803,962.384460 
	C327.410553,962.391907 327.823334,962.399292 328.236084,962.406738 
	C329.529297,944.978333 330.822479,927.549927 332.873840,910.512878 
	C333.163879,925.494141 333.453949,940.475403 333.744019,955.456726 
	C335.409515,947.481995 336.304810,939.521057 336.975983,931.541260 
	C338.379547,914.854309 339.662537,898.157166 340.999664,881.464600 
	C341.995300,869.034851 343.084442,856.611816 343.975708,844.174622 
	C345.068817,828.919983 345.981995,813.652466 347.032806,798.394592 
	C347.115692,797.191528 347.666473,796.020630 348.743896,794.993469 
	C350.495117,798.919739 353.534637,802.770691 353.769073,806.785583 
	C354.667267,822.164917 354.638275,837.597595 355.005981,853.009155 
	C355.298187,865.257263 355.695374,877.502869 355.989655,889.750916 
	C356.355927,904.995911 356.733551,920.241150 356.981903,935.488281 
	C357.376648,959.729065 357.667328,983.971558 358.012299,1008.213196 
	C358.019287,1008.703552 358.152008,1009.192078 358.226044,1009.681519 
	C358.585815,1009.715332 358.945587,1009.749207 359.305359,1009.783020 
	C360.908813,990.895874 362.512299,972.008667 364.873993,953.512817 
	C365.196198,969.854065 365.518402,986.195374 365.840576,1002.536621 
	C366.991272,999.347290 367.710754,996.178467 367.961243,992.972961 
	C369.048187,979.063110 370.068085,965.147156 370.976746,951.224487 
	C371.747833,939.408875 372.312531,927.579834 373.010468,915.759277 
	C373.291229,911.004272 373.648132,906.252991 374.031952,901.505005 
	C375.339752,885.326355 376.655304,869.148254 378.008118,852.973328 
	C378.676636,844.980042 379.433136,836.994141 380.881012,829.009644 
	C385.123047,832.304932 385.748962,837.115173 385.952454,841.914978 
	C386.429016,853.158508 386.696625,864.411499 386.989868,875.662170 
	C387.356903,889.743530 387.636597,903.827209 388.007446,917.908447 
	C388.294983,928.826111 388.693787,939.740723 388.990479,950.658142 
	C389.355042,964.073059 389.732330,977.488159 389.982758,990.905518 
	C390.376190,1011.984863 390.666718,1033.066040 391.012238,1054.146362 
	C391.020081,1054.624512 391.164215,1055.100220 391.447540,1056.776855 
	C392.109192,1053.338257 392.848389,1051.031982 392.951080,1048.697754 
	C393.401764,1038.453003 393.734406,1028.201782 393.986389,1017.949890 
	C394.377594,1002.036194 394.607025,986.118347 395.041473,970.205994 
	C395.161621,965.806030 395.764984,961.419189 396.870850,957.487000 
	C397.247314,975.577026 397.587006,993.667847 398.013489,1011.756714 
	C398.286774,1023.348450 398.685120,1034.937378 399.049713,1046.526733 
	C399.058563,1046.808228 399.330078,1047.081299 399.517914,1047.430542 
	C400.024139,1040.447510 400.655914,1033.726196 400.965759,1026.989990 
	C401.429352,1016.912231 401.668915,1006.824097 401.999390,996.740234 
	C402.335480,986.483398 402.663910,976.226318 402.999969,965.969482 
	C403.330353,955.885620 403.668365,945.802002 403.998840,935.718140 
	C404.334991,925.461243 404.666168,915.204224 404.999329,904.947266 
	C405.665863,884.425842 406.330566,863.904358 406.999481,843.382996 
	C407.328461,833.291382 407.667358,823.200073 407.997925,813.108521 
	C408.334076,802.846375 408.705261,792.585144 408.989319,782.321594 
	C409.388367,767.904236 409.721191,753.485107 410.962128,739.006653 
	C450.538757,739.006653 490.115417,739.006653 529.514587,739.006653 
	C530.036621,745.207397 530.692078,750.908630 530.959534,756.627991 
	C531.430481,766.699890 531.670837,776.782715 531.996033,786.861267 
	C532.337341,797.438965 532.658508,808.017334 532.999695,818.595032 
	C533.324829,828.673645 533.670959,838.751587 533.996033,848.830200 
	C534.337219,859.407898 534.662537,869.986145 534.998474,880.564026 
	C535.329224,890.975525 535.668579,901.386719 535.996643,911.798340 
	C536.335144,922.542664 536.654541,933.287659 537.000854,944.031738 
	C537.320312,953.944031 537.706543,963.854187 537.987427,973.767517 
	C538.362732,987.008972 538.686707,1000.252014 538.992188,1013.495300 
	C539.355164,1029.235352 539.673828,1044.976562 540.023682,1060.717041 
	C540.030884,1061.039062 540.184570,1061.357788 540.502502,1062.550415 
	C541.190002,1060.946289 541.898438,1060.018311 541.952026,1059.053833 
	C542.372742,1051.478516 542.726562,1043.898193 542.988281,1036.315430 
	C543.376343,1025.073120 543.661072,1013.827332 544.039917,1002.584717 
	C544.057861,1002.053284 544.561646,1001.538147 545.216858,1001.787109 
	C545.477966,1003.693298 545.921875,1005.594849 545.971252,1007.506470 
	C546.374390,1023.114624 546.703918,1038.724609 547.055847,1054.333984 
	C548.511047,1044.543579 549.344421,1034.755249 549.976685,1024.953979 
	C550.739563,1013.127197 551.338745,1001.289856 551.996155,989.456360 
	C552.671936,977.292114 553.325684,965.126587 554.001587,952.962341 
	C554.658997,941.130676 555.349060,929.300842 555.994080,917.468506 
	C556.729309,903.982239 557.430725,890.494141 558.786926,877.244690 
	C560.192505,879.706604 562.503540,882.052185 562.837769,884.651794 
	C563.942383,893.243042 564.449890,901.919006 564.963989,910.575745 
	C565.453430,918.816162 565.698242,927.071838 565.989685,935.322998 
	C566.678284,954.820557 567.318970,974.319824 568.003052,993.817505 
	C568.304321,1002.401489 568.683350,1010.982788 568.993103,1019.566467 
	C569.672729,1038.397827 570.426575,1057.227295 570.968750,1076.062866 
	C571.441040,1092.472290 571.654175,1108.889282 572.025513,1125.301880 
	C572.046509,1126.229126 572.464111,1127.147583 572.697144,1128.070068 
	C573.990112,1119.956421 574.591370,1111.988281 574.982056,1104.009888 
	C575.748474,1088.358398 576.397705,1072.701172 577.850952,1057.459595 
	C578.234192,1072.384155 578.528870,1087.311646 579.043823,1102.231689 
	C579.251465,1108.250366 579.940979,1114.252563 580.411194,1120.262207 
	C581.509155,1108.080444 582.389343,1095.930054 582.957336,1083.765259 
	C583.759216,1066.593750 584.301636,1049.410156 585.008545,1032.234009 
	C585.633423,1017.050232 586.356689,1001.870605 586.987915,986.687134 
	C587.372620,977.433655 587.716858,968.177917 587.987427,958.920471 
	C588.369751,945.833130 588.554077,932.738708 589.080017,919.657715 
	C589.212708,916.357788 590.321716,913.097229 591.727905,909.992188 
	C593.817261,912.583496 597.419373,915.005432 597.731934,917.795715 
	C599.028015,929.366821 599.491638,941.042908 599.954956,952.692566 
	C600.474731,965.760559 600.675903,978.841431 600.994629,991.917236 
	C601.341675,1006.158081 601.653870,1020.399719 602.000916,1034.640503 
	C602.319580,1047.716309 602.693542,1060.790894 602.990173,1073.867065 
	C603.354736,1089.939453 603.716736,1106.012207 603.985291,1122.086304 
	C604.367859,1144.986328 604.664673,1167.887939 604.997192,1190.788818 
	C605.004456,1191.288330 604.865906,1191.839722 605.032410,1192.276611 
	C605.358948,1193.133057 605.852783,1193.925659 606.277405,1194.744751 
	C606.852295,1194.649048 607.427246,1194.553345 608.002197,1194.457642 
	C608.002197,1180.226074 607.883484,1165.993408 608.029358,1151.763306 
	C608.260681,1129.194458 608.672729,1106.627441 608.997009,1084.059448 
	C609.035278,1081.395508 608.945740,1078.728394 609.042480,1076.067383 
	C609.067749,1075.371826 609.571045,1074.693726 609.981995,1074.935913 
	C610.321045,1082.526855 610.748230,1090.115234 610.979614,1097.709473 
	C611.383301,1110.963623 611.694153,1124.220825 611.993286,1137.477905 
	C612.360046,1153.732788 612.671509,1169.988892 613.027527,1186.243896 
	C613.037537,1186.701904 613.281433,1187.154663 613.494507,1187.873901 
	C614.008362,1179.704956 614.695557,1171.832031 614.957825,1163.945068 
	C615.437439,1149.521606 615.673218,1135.089966 615.997070,1120.661499 
	C616.339661,1105.404663 616.659302,1090.147339 617.001953,1074.890503 
	C617.326111,1060.462158 617.698059,1046.034546 617.992676,1031.605591 
	C618.358704,1013.685364 618.624878,995.763062 619.014771,977.843445 
	C619.267151,966.244324 619.704224,954.649353 619.986145,943.050720 
	C620.360901,927.633911 620.655823,912.215210 621.002319,896.797668 
	C621.322693,882.539795 621.682129,868.282898 621.994690,854.024841 
	C622.347168,837.940979 622.715637,821.857300 622.988342,805.771973 
	C623.391052,782.019043 623.715088,758.264832 624.075256,734.511230 
	C624.077759,734.345642 624.115662,734.180664 624.968262,733.986633 
	C626.862183,733.658813 628.744324,733.181274 630.652222,733.031799 
	C636.054626,732.608704 641.497437,732.569519 646.870483,731.928284 
	C659.451477,730.426758 671.996887,728.629761 684.564514,727.013306 
	C695.367737,725.623840 706.246277,724.700378 716.975586,722.885437 
	C732.556763,720.249878 748.130920,717.423523 763.531555,713.905762 
	C784.959595,709.011353 806.387390,703.969360 827.502563,697.902405 
	C841.914551,693.761536 856.082825,688.424622 869.826050,682.403748 
	C882.994751,676.634521 895.612976,669.491089 905.002441,658.000000 
	C905.002441,658.000000 905.067627,658.056580 905.655518,657.867554 
	C905.782104,657.280457 905.908691,656.693420 906.682251,655.886841 
	C907.729187,654.816711 908.847961,653.807312 909.811890,652.666992 
	C918.733704,642.112488 921.344788,632.875061 912.610291,620.063293 
	C907.102112,611.983948 899.352722,606.580383 890.996216,602.052124 
	C873.805603,592.736816 855.601685,586.007751 836.494080,581.808167 
	C819.874512,578.155518 803.321655,574.093994 786.571960,571.172974 
	C774.021240,568.984192 761.219788,568.149719 748.502625,567.020203 
	C731.647705,565.523132 714.786011,563.681030 697.891113,563.161621 
	C676.254944,562.496399 654.582764,562.992859 632.926147,563.012573 
	C631.040344,563.014282 629.154663,563.192810 626.582642,563.324280 
	C627.053101,553.117737 627.851318,542.885620 627.932068,532.647827 
	C628.130615,507.494324 627.952698,482.338135 628.013062,457.183258 
	C628.071594,432.757538 614.552551,417.192200 593.506775,409.001282 
	C577.578674,402.802094 560.866516,401.419220 544.322327,400.184937 
	C556.034363,395.090698 568.114990,390.691589 579.365112,384.726166 
	C593.394775,377.286926 606.215515,367.873016 617.001953,356.000000 
	C617.001953,356.000000 617.053162,356.068817 617.704468,355.822510 
z"/>
<path fill="none" opacity="1.000000" stroke="none"
	d="
M691.067444,537.000000 
	C687.945190,537.416138 686.666382,536.617188 686.941101,533.616943 
	C687.211548,530.664124 687.000061,527.667236 687.000061,524.000000 
	C689.812500,524.000000 692.549988,524.000000 695.287415,524.000000 
	C698.065430,524.000000 700.843384,524.000000 703.802979,524.000000 
	C703.802979,527.803833 703.802979,531.221680 703.802979,535.716064 
	C699.730469,536.142517 695.636414,536.571228 691.067444,537.000000 
z"/>
<path fill="none" opacity="1.000000" stroke="none"
	d="
M792.000000,528.098389 
	C792.000000,531.209351 792.000000,533.840210 792.000000,536.425476 
	C777.417175,538.854675 775.152344,537.088684 776.370605,524.000244 
	C780.586182,524.000244 784.871338,524.210571 789.124329,523.931274 
	C792.327637,523.720947 792.131287,525.548584 792.000000,528.098389 
z"/>
<path fill="#CD1141" opacity="1.000000" stroke="none" 
	d="
M544.014648,400.862885 
	C560.866516,401.419220 577.578674,402.802094 593.506775,409.001282 
	C614.552551,417.192200 628.071594,432.757538 628.013062,457.183258 
	C627.952698,482.338135 628.130615,507.494324 627.932068,532.647827 
	C627.851318,542.885620 627.053101,553.117737 626.582642,563.324280 
	C629.154663,563.192810 631.040344,563.014282 632.926147,563.012573 
	C654.582764,562.992859 676.254944,562.496399 697.891113,563.161621 
	C714.786011,563.681030 731.647705,565.523132 748.502625,567.020203 
	C761.219788,568.149719 774.021240,568.984192 786.571960,571.172974 
	C803.321655,574.093994 819.874512,578.155518 836.494080,581.808167 
	C855.601685,586.007751 873.805603,592.736816 890.996216,602.052124 
	C899.352722,606.580383 907.102112,611.983948 912.610291,620.063293 
	C921.344788,632.875061 918.733704,642.112488 909.811890,652.666992 
	C908.847961,653.807312 907.729187,654.816711 906.024841,656.126343 
	C905.267517,656.929382 905.167603,657.492981 905.067627,658.056580 
	C905.067627,658.056580 905.002441,658.000000 904.729431,657.770508 
	C891.177612,664.706238 878.361450,672.965332 864.526855,678.816162 
	C832.688477,692.280762 799.150513,700.456604 765.174072,706.185669 
	C729.116150,712.265564 692.826355,716.987915 656.605774,722.074890 
	C645.941467,723.572693 635.168274,724.295166 624.136963,725.403931 
	C624.136963,728.442688 624.136963,731.229065 624.136963,734.015381 
	C624.115662,734.180664 624.077759,734.345642 624.075256,734.511230 
	C623.715088,758.264832 623.391052,782.019043 622.988342,805.771973 
	C622.715637,821.857300 622.347168,837.940979 621.994690,854.024841 
	C621.682129,868.282898 621.322693,882.539795 621.002319,896.797668 
	C620.655823,912.215210 620.360901,927.633911 619.986145,943.050720 
	C619.704224,954.649353 619.267151,966.244324 619.014771,977.843445 
	C618.624878,995.763062 618.358704,1013.685364 617.992676,1031.605591 
	C617.698059,1046.034546 617.326111,1060.462158 617.001953,1074.890503 
	C616.659302,1090.147339 616.339661,1105.404663 615.997070,1120.661499 
	C615.673218,1135.089966 615.437439,1149.521606 614.957825,1163.945068 
	C614.695557,1171.832031 614.008362,1179.704956 613.494507,1187.873901 
	C613.281433,1187.154663 613.037537,1186.701904 613.027527,1186.243896 
	C612.671509,1169.988892 612.360046,1153.732788 611.993286,1137.477905 
	C611.694153,1124.220825 611.383301,1110.963623 610.979614,1097.709473 
	C610.748230,1090.115234 610.321045,1082.526855 609.979736,1074.006714 
	C609.333252,1045.447876 608.727966,1017.817200 608.033203,990.188782 
	C607.397034,964.890320 606.700684,939.593262 605.915405,914.299194 
	C605.839600,911.859070 605.254700,909.323669 604.361389,907.046204 
	C603.025818,903.641418 600.733276,900.544678 596.570129,901.615601 
	C592.737793,902.601501 590.424377,905.434998 590.982117,909.818542 
	C590.321716,913.097229 589.212708,916.357788 589.080017,919.657715 
	C588.554077,932.738708 588.369751,945.833130 587.987427,958.920471 
	C587.716858,968.177917 587.372620,977.433655 586.987915,986.687134 
	C586.356689,1001.870605 585.633423,1017.050232 585.008545,1032.234009 
	C584.301636,1049.410156 583.759216,1066.593750 582.957336,1083.765259 
	C582.389343,1095.930054 581.509155,1108.080444 580.411194,1120.262207 
	C579.940979,1114.252563 579.251465,1108.250366 579.043823,1102.231689 
	C578.528870,1087.311646 578.234192,1072.384155 577.410522,1056.785889 
	C575.521973,1010.093628 574.105835,964.074097 572.604065,918.057312 
	C572.213745,906.098816 571.699890,894.139771 570.928772,882.201294 
	C570.709839,878.812561 569.925354,875.227234 568.433533,872.210022 
	C566.328247,867.952087 562.464233,867.986084 559.902893,871.968201 
	C558.967407,873.422485 558.712341,875.314514 558.146851,877.006836 
	C557.430725,890.494141 556.729309,903.982239 555.994080,917.468506 
	C555.349060,929.300842 554.658997,941.130676 554.001587,952.962341 
	C553.325684,965.126587 552.671936,977.292114 551.996155,989.456360 
	C551.338745,1001.289856 550.739563,1013.127197 549.976685,1024.953979 
	C549.344421,1034.755249 548.511047,1044.543579 547.055847,1054.333984 
	C546.703918,1038.724609 546.374390,1023.114624 545.971252,1007.506470 
	C545.921875,1005.594849 545.477966,1003.693298 545.095215,1000.936707 
	C543.725586,947.663879 542.504944,895.240845 541.219543,842.819336 
	C540.444153,811.196716 539.590942,779.575867 538.716187,747.955811 
	C538.561707,742.372925 538.128723,736.797668 537.839600,731.498047 
	C494.910431,731.498047 452.536957,731.498047 410.082306,731.498047 
	C410.082306,734.133057 410.082306,736.599854 410.082306,739.066711 
	C409.721191,753.485107 409.388367,767.904236 408.989319,782.321594 
	C408.705261,792.585144 408.334076,802.846375 407.997925,813.108521 
	C407.667358,823.200073 407.328461,833.291382 406.999481,843.382996 
	C406.330566,863.904358 405.665863,884.425842 404.999329,904.947266 
	C404.666168,915.204224 404.334991,925.461243 403.998840,935.718140 
	C403.668365,945.802002 403.330353,955.885620 402.999969,965.969482 
	C402.663910,976.226318 402.335480,986.483398 401.999390,996.740234 
	C401.668915,1006.824097 401.429352,1016.912231 400.965759,1026.989990 
	C400.655914,1033.726196 400.024139,1040.447510 399.517914,1047.430542 
	C399.330078,1047.081299 399.058563,1046.808228 399.049713,1046.526733 
	C398.685120,1034.937378 398.286774,1023.348450 398.013489,1011.756714 
	C397.587006,993.667847 397.247314,975.577026 396.449310,956.791321 
	C395.309174,916.065979 394.674561,876.034302 393.751099,836.009399 
	C393.651001,831.671143 392.510895,827.084717 390.714661,823.130554 
	C388.720367,818.740479 384.280914,818.840881 381.774933,822.983215 
	C380.740845,824.692627 380.662720,826.980225 380.149841,829.004883 
	C379.433136,836.994141 378.676636,844.980042 378.008118,852.973328 
	C376.655304,869.148254 375.339752,885.326355 374.031952,901.505005 
	C373.648132,906.252991 373.291229,911.004272 373.010468,915.759277 
	C372.312531,927.579834 371.747833,939.408875 370.976746,951.224487 
	C370.068085,965.147156 369.048187,979.063110 367.961243,992.972961 
	C367.710754,996.178467 366.991272,999.347290 365.840576,1002.536621 
	C365.518402,986.195374 365.196198,969.854065 364.435120,952.850830 
	C364.195374,945.876038 364.675110,939.557068 364.539520,933.251404 
	C364.174957,916.294067 363.500305,899.343750 363.035156,882.388245 
	C362.273468,854.623901 361.605072,826.856873 360.815002,799.093384 
	C360.744904,796.630310 360.384888,794.077881 359.599518,791.756348 
	C358.508148,788.530334 356.670807,785.023376 352.584595,786.281006 
	C348.878876,787.421448 346.823273,790.530945 347.999786,794.834778 
	C347.666473,796.020630 347.115692,797.191528 347.032806,798.394592 
	C345.981995,813.652466 345.068817,828.919983 343.975708,844.174622 
	C343.084442,856.611816 341.995300,869.034851 340.999664,881.464600 
	C339.662537,898.157166 338.379547,914.854309 336.975983,931.541260 
	C336.304810,939.521057 335.409515,947.481995 333.744019,955.456726 
	C333.453949,940.475403 333.163879,925.494141 332.442169,909.859619 
	C330.750183,848.346741 329.489868,787.487061 328.228088,726.556213 
	C311.000275,724.690979 294.658295,723.017212 278.340088,721.137085 
	C228.905716,715.441528 179.889679,707.400879 131.939255,693.820251 
	C107.903511,687.012817 84.085846,679.289429 62.902256,665.659973 
	C55.487186,660.889099 48.752789,654.578125 42.972744,647.878845 
	C36.733360,640.647217 36.478809,631.789062 40.733406,623.024475 
	C41.348545,621.757263 41.562885,620.295532 41.962700,618.923828 
	C41.962700,618.923828 41.987534,618.990967 42.275375,619.043335 
	C42.676434,618.706970 42.789654,618.318176 42.902874,617.929382 
	C55.091148,603.440063 71.648544,596.133545 88.895988,589.970703 
	C111.729729,581.811707 135.255569,576.425659 159.220276,573.061707 
	C176.038940,570.700867 192.914001,568.589172 209.828842,567.108459 
	C227.066605,565.599487 244.373123,564.700256 261.669128,564.079895 
	C280.746979,563.395508 299.847076,563.331604 319.659180,563.316223 
	C322.773376,563.635010 325.165955,563.635010 327.839478,563.635010 
	C327.839478,562.213196 327.851837,561.233154 327.837708,560.253479 
	C327.290466,522.301208 326.788483,484.348206 326.179596,446.396881 
	C325.397125,397.625610 324.217682,348.858063 323.841064,300.084045 
	C323.676727,278.803131 324.995331,257.506805 325.816071,236.224258 
	C326.145782,227.675369 326.947083,219.144669 327.563660,210.170746 
	C282.641174,209.833450 238.253662,209.671722 193.990189,214.142471 
	C187.373550,214.553818 180.756927,214.965149 174.140289,215.376495 
	C174.063980,215.108795 173.987671,214.841110 173.911346,214.573410 
	C179.782272,212.776611 185.601959,210.785843 191.533615,209.218903 
	C210.301071,204.261215 229.024368,199.091370 247.927048,194.702728 
	C267.974579,190.048279 288.204102,186.175690 308.362640,182.002701 
	C313.600586,180.918396 318.870239,179.987335 324.952515,179.002136 
	C331.810425,179.679581 331.066132,174.852005 331.827301,171.405258 
	C339.134369,138.317123 346.132568,105.158051 353.776367,72.148308 
	C357.143066,57.609219 361.791504,43.366928 365.858032,28.989889 
	C367.015015,25.000183 368.172028,21.010477 369.329041,17.020771 
	C369.783295,16.981295 370.237579,16.941816 370.691833,16.902340 
	C387.169250,65.841789 398.734039,115.940292 405.417084,167.974503 
	C408.820221,167.664444 412.462616,167.309204 416.109283,167.005402 
	C422.818146,166.446472 429.521912,165.601242 436.241333,165.440369 
	C451.727112,165.069595 467.220917,165.029465 482.711700,164.876770 
	C484.869812,164.855484 487.028900,164.969543 489.187866,164.998276 
	C521.043762,165.422440 552.337830,169.635468 582.515015,180.096588 
	C598.535339,185.650162 613.262573,193.657394 626.459839,204.712936 
	C641.554199,217.357819 650.769714,233.283432 653.742371,252.244171 
	C657.187927,274.221069 654.360474,295.792145 645.287170,316.416748 
	C639.022217,330.657623 630.064026,342.855286 618.336243,353.910217 
	C617.471130,354.817200 617.262207,355.443024 617.053223,356.068848 
	C617.053162,356.068817 617.001953,356.000000 616.721069,355.794067 
	C615.344666,356.321564 614.158325,356.949738 613.167358,357.804443 
	C600.747559,368.516296 587.029358,377.368927 571.938782,383.566589 
	C554.910095,390.560303 537.371521,396.312622 520.443604,402.463470 
	C527.834045,401.961639 535.924377,401.412262 544.014648,400.862885 
M538.635742,357.186981 
	C538.747009,356.764252 538.858337,356.341553 538.990723,355.989319 
	C538.990723,355.989319 538.924011,355.958313 539.598511,356.257385 
	C540.419006,355.451385 541.325989,354.715729 542.047180,353.828979 
	C556.828674,335.655334 562.286499,314.616180 561.748657,291.508667 
	C561.273193,271.080231 551.574524,256.320923 534.453430,246.361374 
	C525.593201,241.207260 516.209290,236.672974 506.585449,233.166336 
	C480.841370,223.785919 453.947052,219.292480 426.839722,216.011749 
	C421.328552,215.344742 415.801361,214.809906 409.501709,214.129990 
	C410.126526,217.663620 410.604736,220.368179 411.010132,223.955688 
	C411.340027,227.032761 411.768921,230.102997 411.981812,233.188156 
	C412.694672,243.517593 413.482574,253.845306 413.961273,264.186676 
	C414.755493,281.342285 415.609375,298.502899 415.924377,315.670807 
	C416.260193,333.974213 415.999725,352.288605 415.999664,370.598175 
	C415.999634,383.569763 415.999664,396.541351 415.999664,409.794769 
	C422.646118,408.498718 428.959473,407.113495 435.326996,406.053894 
	C457.514679,402.361603 478.785065,395.670471 498.997040,385.907776 
	C512.677246,379.300018 525.165955,370.744720 536.666931,359.724823 
	C536.756470,359.130157 536.846008,358.535492 536.997559,357.998474 
	C536.997559,357.998474 536.921387,357.961456 537.653992,358.223694 
	C537.757751,357.789154 537.861450,357.354645 537.989197,356.989197 
	C537.989197,356.989197 537.920105,356.965210 538.635742,357.186981 
M126.437523,616.822144 
	C126.320198,617.234436 126.202873,617.646790 126.015739,618.839233 
	C124.570686,625.093445 127.309364,630.073242 131.111801,634.549377 
	C139.191666,644.060791 150.022385,649.835083 161.384125,653.768616 
	C179.800323,660.144348 198.592880,665.516907 217.424301,670.577087 
	C228.187668,673.469238 239.305511,675.130310 250.331390,676.931702 
	C260.612854,678.611389 270.969025,679.869324 281.319214,681.083679 
	C293.483063,682.510864 305.675903,683.690857 318.319763,685.609741 
	C320.697632,685.949951 323.075531,686.290222 324.955475,686.559265 
	C325.643066,645.796875 326.321289,605.590515 327.017242,564.332947 
	C323.953979,565.473389 321.894318,566.240234 318.979614,567.001526 
	C310.645660,568.265625 302.311707,569.529663 293.070984,570.924988 
	C282.387146,572.302612 271.654633,573.381470 261.028534,575.113342 
	C227.783997,580.531799 194.476151,585.865173 162.311707,596.166504 
	C152.142868,599.423218 142.501450,604.505615 132.953995,609.405945 
	C130.359116,610.737732 128.985977,614.449890 127.006874,617.005493 
	C127.006874,617.005493 127.079086,617.036133 126.437523,616.822144 
M626.917847,571.764038 
	C626.986023,572.851624 627.054199,573.939209 627.015076,575.955200 
	C627.015076,612.588562 627.015076,649.221863 627.015076,686.207703 
	C629.942871,685.831421 633.166992,685.332764 636.408752,685.015808 
	C647.163147,683.964294 657.973450,683.340698 668.670044,681.878113 
	C682.996643,679.919128 697.228943,677.277588 711.516541,675.023560 
	C733.308777,671.585510 754.793823,666.811401 775.762817,659.936096 
	C791.503235,654.775085 807.063110,649.125366 820.561096,638.077026 
	C833.209900,627.517639 832.893433,615.284485 818.866638,606.941772 
	C810.658630,602.059692 801.700989,597.828125 792.530273,595.298889 
	C772.207581,589.694214 751.692139,584.505737 730.969421,580.707214 
	C706.479309,576.218140 681.687805,573.373047 656.544861,569.138611 
	C646.777100,568.043152 637.009338,566.947632 627.113159,565.837769 
	C627.113159,568.016724 627.113159,569.490540 626.917847,571.764038 
M531.856018,692.106140 
	C534.115540,692.106140 536.375061,692.106140 539.583557,692.106140 
	C539.583557,677.066772 539.491821,662.602600 539.599792,648.139893 
	C540.019043,591.990356 540.483826,535.841125 540.978333,479.692200 
	C541.062256,470.163300 537.601074,462.197510 531.024597,455.433990 
	C523.798584,448.002533 514.962280,443.066986 505.556732,439.080750 
	C484.409332,430.118103 462.087860,425.616302 439.544128,422.048462 
	C431.705536,420.807922 423.823120,419.844238 414.968018,418.616455 
	C415.414734,422.318451 415.760162,425.181061 416.012848,428.971344 
	C415.675110,438.724335 415.260620,448.475372 415.016998,458.230713 
	C414.619476,474.149506 414.325439,490.070862 414.002411,505.991425 
	C413.659271,522.905090 413.104767,539.818298 413.045319,556.733093 
	C412.903656,597.032959 413.037537,637.333862 412.947632,677.634094 
	C412.937225,682.301575 412.217194,686.967529 411.804779,691.889038 
	C452.039459,691.889038 491.500763,691.889038 531.856018,692.106140 
z"/>
<path fill="#FFFFFF" opacity="1.000000" stroke="none"
	d="
M41.640965,619.034363 
	C41.562885,620.295532 41.348545,621.757263 40.733406,623.024475 
	C36.478809,631.789062 36.733360,640.647217 42.972744,647.878845 
	C48.752789,654.578125 55.487186,660.889099 62.902256,665.659973 
	C84.085846,679.289429 107.903511,687.012817 131.939255,693.820251 
	C179.889679,707.400879 228.905716,715.441528 278.340088,721.137085 
	C294.658295,723.017212 311.000275,724.690979 328.228088,726.556213 
	C329.489868,787.487061 330.750183,848.346741 332.063110,909.663940 
	C330.822479,927.549927 329.529297,944.978333 328.236084,962.406738 
	C327.823334,962.399292 327.410553,962.391907 326.997803,962.384460 
	C326.997803,960.926025 327.025757,959.467041 326.993500,958.009338 
	C326.667175,943.265137 326.371887,928.520020 325.983185,913.777466 
	C325.726135,904.028503 325.319977,894.283630 325.000702,884.536194 
	C324.654175,873.956848 324.341187,863.376404 323.994629,852.797058 
	C323.675354,843.049622 323.324371,833.303345 322.999512,823.556091 
	C322.658051,813.309692 322.335175,803.062744 321.996399,792.816284 
	C321.668640,782.902588 321.397491,772.986450 320.978699,763.076538 
	C320.575348,753.531738 320.014984,743.993591 319.513733,734.261414 
	C307.644989,733.184509 295.592590,732.316467 283.598694,730.939026 
	C271.659027,729.567810 259.779572,727.674255 247.870987,726.029724 
	C235.642044,724.340942 223.352295,723.010010 211.193604,720.916077 
	C196.251114,718.342712 181.406860,715.190613 166.537903,712.200378 
	C141.947739,707.255127 117.862633,700.521179 94.227333,692.087830 
	C77.659081,686.176086 61.681847,679.041199 47.511162,668.616699 
	C42.001827,664.563721 36.971004,659.171265 33.368404,653.367249 
	C27.024940,643.147461 29.426363,632.983704 37.840149,622.705688 
	C38.887260,621.426575 40.154167,620.327393 41.640965,619.034363 
z"/>
<path fill="#FFFFFF" opacity="1.000000" stroke="none"
	d="
M193.816925,214.492676 
	C238.253662,209.671722 282.641174,209.833450 327.563660,210.170746 
	C326.947083,219.144669 326.145782,227.675369 325.816071,236.224258 
	C324.995331,257.506805 323.676727,278.803131 323.841064,300.084045 
	C324.217682,348.858063 325.397125,397.625610 326.179596,446.396881 
	C326.788483,484.348206 327.290466,522.301208 327.837708,560.253479 
	C327.851837,561.233154 327.839478,562.213196 327.839478,563.635010 
	C325.165955,563.635010 322.773376,563.635010 320.118744,563.306152 
	C319.903076,545.326050 320.095764,527.673706 319.952972,510.023956 
	C319.821564,493.781189 319.320038,477.541504 318.998566,461.300110 
	C318.653992,443.893372 318.362671,426.485443 317.984833,409.079437 
	C317.708160,396.334595 317.183624,383.593811 317.024353,370.847992 
	C316.607025,337.453339 315.959869,304.054779 316.153656,270.662109 
	C316.248932,254.245331 317.992706,237.837402 319.041138,221.428726 
	C319.100128,220.505814 319.621094,219.612411 320.091248,218.218460 
	C318.357117,218.141953 316.793701,218.014130 315.230255,218.012970 
	C296.410187,217.999115 277.585449,217.744644 258.771393,218.080444 
	C241.605194,218.386841 224.446014,219.241241 207.292557,220.042709 
	C197.451706,220.502533 187.624435,221.285736 177.799377,222.032669 
	C174.399338,222.291153 171.024384,222.879486 167.637985,223.317169 
	C167.524216,222.846359 167.410446,222.375549 167.296677,221.904724 
	C176.079010,219.550781 184.861343,217.196838 193.816925,214.492676 
z"/>
<path fill="#FFFFFF" opacity="1.000000" stroke="none"
	d="
M410.522217,739.036682 
	C410.082306,736.599854 410.082306,734.133057 410.082306,731.498047 
	C452.536957,731.498047 494.910431,731.498047 537.839600,731.498047 
	C538.128723,736.797668 538.561707,742.372925 538.716187,747.955811 
	C539.590942,779.575867 540.444153,811.196716 541.219543,842.819336 
	C542.504944,895.240845 543.725586,947.663879 544.906372,1000.550903 
	C544.561646,1001.538147 544.057861,1002.053284 544.039917,1002.584717 
	C543.661072,1013.827332 543.376343,1025.073120 542.988281,1036.315430 
	C542.726562,1043.898193 542.372742,1051.478516 541.952026,1059.053833 
	C541.898438,1060.018311 541.190002,1060.946289 540.502502,1062.550415 
	C540.184570,1061.357788 540.030884,1061.039062 540.023682,1060.717041 
	C539.673828,1044.976562 539.355164,1029.235352 538.992188,1013.495300 
	C538.686707,1000.252014 538.362732,987.008972 537.987427,973.767517 
	C537.706543,963.854187 537.320312,953.944031 537.000854,944.031738 
	C536.654541,933.287659 536.335144,922.542664 535.996643,911.798340 
	C535.668579,901.386719 535.329224,890.975525 534.998474,880.564026 
	C534.662537,869.986145 534.337219,859.407898 533.996033,848.830200 
	C533.670959,838.751587 533.324829,828.673645 532.999695,818.595032 
	C532.658508,808.017334 532.337341,797.438965 531.996033,786.861267 
	C531.670837,776.782715 531.430481,766.699890 530.959534,756.627991 
	C530.692078,750.908630 530.036621,745.207397 529.514587,739.006653 
	C490.115417,739.006653 450.538757,739.006653 410.522217,739.036682 
z"/>
<path fill="#FFFFFF" opacity="1.000000" stroke="none"
	d="
M624.552612,734.000977 
	C624.136963,731.229065 624.136963,728.442688 624.136963,725.403931 
	C635.168274,724.295166 645.941467,723.572693 656.605774,722.074890 
	C692.826355,716.987915 729.116150,712.265564 765.174072,706.185669 
	C799.150513,700.456604 832.688477,692.280762 864.526855,678.816162 
	C878.361450,672.965332 891.177612,664.706238 904.758911,657.801880 
	C895.612976,669.491089 882.994751,676.634521 869.826050,682.403748 
	C856.082825,688.424622 841.914551,693.761536 827.502563,697.902405 
	C806.387390,703.969360 784.959595,709.011353 763.531555,713.905762 
	C748.130920,717.423523 732.556763,720.249878 716.975586,722.885437 
	C706.246277,724.700378 695.367737,725.623840 684.564514,727.013306 
	C671.996887,728.629761 659.451477,730.426758 646.870483,731.928284 
	C641.497437,732.569519 636.054626,732.608704 630.652222,733.031799 
	C628.744324,733.181274 626.862183,733.658813 624.552612,734.000977 
z"/>
<path fill="#FFFFFF" opacity="1.000000" stroke="none"
	d="
M591.354980,909.905396 
	C590.424377,905.434998 592.737793,902.601501 596.570129,901.615601 
	C600.733276,900.544678 603.025818,903.641418 604.361389,907.046204 
	C605.254700,909.323669 605.839600,911.859070 605.915405,914.299194 
	C606.700684,939.593262 607.397034,964.890320 608.033203,990.188782 
	C608.727966,1017.817200 609.333252,1045.447876 609.916138,1073.542480 
	C609.571045,1074.693726 609.067749,1075.371826 609.042480,1076.067383 
	C608.945740,1078.728394 609.035278,1081.395508 608.997009,1084.059448 
	C608.672729,1106.627441 608.260681,1129.194458 608.029358,1151.763306 
	C607.883484,1165.993408 608.002197,1180.226074 608.002197,1194.457642 
	C607.427246,1194.553345 606.852295,1194.649048 606.277405,1194.744751 
	C605.852783,1193.925659 605.358948,1193.133057 605.032410,1192.276611 
	C604.865906,1191.839722 605.004456,1191.288330 604.997192,1190.788818 
	C604.664673,1167.887939 604.367859,1144.986328 603.985291,1122.086304 
	C603.716736,1106.012207 603.354736,1089.939453 602.990173,1073.867065 
	C602.693542,1060.790894 602.319580,1047.716309 602.000916,1034.640503 
	C601.653870,1020.399719 601.341675,1006.158081 600.994629,991.917236 
	C600.675903,978.841431 600.474731,965.760559 599.954956,952.692566 
	C599.491638,941.042908 599.028015,929.366821 597.731934,917.795715 
	C597.419373,915.005432 593.817261,912.583496 591.354980,909.905396 
z"/>
<path fill="#FFFFFF" opacity="1.000000" stroke="none"
	d="
M558.466919,877.125732 
	C558.712341,875.314514 558.967407,873.422485 559.902893,871.968201 
	C562.464233,867.986084 566.328247,867.952087 568.433533,872.210022 
	C569.925354,875.227234 570.709839,878.812561 570.928772,882.201294 
	C571.699890,894.139771 572.213745,906.098816 572.604065,918.057312 
	C574.105835,964.074097 575.521973,1010.093628 577.032715,1056.579346 
	C576.397705,1072.701172 575.748474,1088.358398 574.982056,1104.009888 
	C574.591370,1111.988281 573.990112,1119.956421 572.697144,1128.070068 
	C572.464111,1127.147583 572.046509,1126.229126 572.025513,1125.301880 
	C571.654175,1108.889282 571.441040,1092.472290 570.968750,1076.062866 
	C570.426575,1057.227295 569.672729,1038.397827 568.993103,1019.566467 
	C568.683350,1010.982788 568.304321,1002.401489 568.003052,993.817505 
	C567.318970,974.319824 566.678284,954.820557 565.989685,935.322998 
	C565.698242,927.071838 565.453430,918.816162 564.963989,910.575745 
	C564.449890,901.919006 563.942383,893.243042 562.837769,884.651794 
	C562.503540,882.052185 560.192505,879.706604 558.466919,877.125732 
z"/>
<path fill="#FFFFFF" opacity="1.000000" stroke="none"
	d="
M348.371826,794.914124 
	C346.823273,790.530945 348.878876,787.421448 352.584595,786.281006 
	C356.670807,785.023376 358.508148,788.530334 359.599518,791.756348 
	C360.384888,794.077881 360.744904,796.630310 360.815002,799.093384 
	C361.605072,826.856873 362.273468,854.623901 363.035156,882.388245 
	C363.500305,899.343750 364.174957,916.294067 364.539520,933.251404 
	C364.675110,939.557068 364.195374,945.876038 364.055969,952.655151 
	C362.512299,972.008667 360.908813,990.895874 359.305359,1009.783020 
	C358.945587,1009.749207 358.585815,1009.715332 358.226044,1009.681519 
	C358.152008,1009.192078 358.019287,1008.703552 358.012299,1008.213196 
	C357.667328,983.971558 357.376648,959.729065 356.981903,935.488281 
	C356.733551,920.241150 356.355927,904.995911 355.989655,889.750916 
	C355.695374,877.502869 355.298187,865.257263 355.005981,853.009155 
	C354.638275,837.597595 354.667267,822.164917 353.769073,806.785583 
	C353.534637,802.770691 350.495117,798.919739 348.371826,794.914124 
z"/>
<path fill="#FFFFFF" opacity="1.000000" stroke="none"
	d="
M380.515442,829.007263 
	C380.662720,826.980225 380.740845,824.692627 381.774933,822.983215 
	C384.280914,818.840881 388.720367,818.740479 390.714661,823.130554 
	C392.510895,827.084717 393.651001,831.671143 393.751099,836.009399 
	C394.674561,876.034302 395.309174,916.065979 396.087219,956.561035 
	C395.764984,961.419189 395.161621,965.806030 395.041473,970.205994 
	C394.607025,986.118347 394.377594,1002.036194 393.986389,1017.949890 
	C393.734406,1028.201782 393.401764,1038.453003 392.951080,1048.697754 
	C392.848389,1051.031982 392.109192,1053.338257 391.447540,1056.776855 
	C391.164215,1055.100220 391.020081,1054.624512 391.012238,1054.146362 
	C390.666718,1033.066040 390.376190,1011.984863 389.982758,990.905518 
	C389.732330,977.488159 389.355042,964.073059 388.990479,950.658142 
	C388.693787,939.740723 388.294983,928.826111 388.007446,917.908447 
	C387.636597,903.827209 387.356903,889.743530 386.989868,875.662170 
	C386.696625,864.411499 386.429016,853.158508 385.952454,841.914978 
	C385.748962,837.115173 385.123047,832.304932 380.515442,829.007263 
z"/>
<path fill="#FFFFFF" opacity="1.000000" stroke="none"
	d="
M365.527008,28.844198 
	C361.791504,43.366928 357.143066,57.609219 353.776367,72.148308 
	C346.132568,105.158051 339.134369,138.317123 331.827301,171.405258 
	C331.066132,174.852005 331.810425,179.679581 325.373535,178.950607 
	C326.922516,167.740799 328.577850,156.535858 330.900696,145.471039 
	C334.703369,127.356972 338.618195,109.253754 343.095398,91.297981 
	C346.701416,76.835960 351.123657,62.573555 355.348846,48.271351 
	C357.738068,40.183933 360.460510,32.194950 363.380951,23.074657 
	C364.230225,25.706137 364.713104,27.202322 365.527008,28.844198 
z"/>
<path fill="#FFFFFF" opacity="1.000000" stroke="none"
	d="
M544.168457,400.523926 
	C535.924377,401.412262 527.834045,401.961639 520.443604,402.463470 
	C537.371521,396.312622 554.910095,390.560303 571.938782,383.566589 
	C587.029358,377.368927 600.747559,368.516296 613.167358,357.804443 
	C614.158325,356.949738 615.344666,356.321564 616.752014,355.823853 
	C606.215515,367.873016 593.394775,377.286926 579.365112,384.726166 
	C568.114990,390.691589 556.034363,395.090698 544.168457,400.523926 
z"/>
<path fill="#FFFFFF" opacity="1.000000" stroke="none"
	d="
M905.361572,657.962036 
	C905.167603,657.492981 905.267517,656.929382 905.701294,656.236084 
	C905.908691,656.693420 905.782104,657.280457 905.361572,657.962036 
z"/>
<path fill="#FFFFFF" opacity="1.000000" stroke="none"
	d="
M617.378845,355.945679 
	C617.262207,355.443024 617.471130,354.817200 618.063232,354.058838 
	C618.199036,354.558350 617.951721,355.190430 617.378845,355.945679 
z"/>
<path fill="#FFFFFF" opacity="1.000000" stroke="none"
	d="
M42.651176,618.004272 
	C42.789654,618.318176 42.676434,618.706970 42.240433,619.035645 
	C42.078259,618.676758 42.238865,618.377991 42.651176,618.004272 
z"/>
<path fill="#FFFFFF" opacity="1.000000" stroke="none" 
	d="
M530.962036,691.889038 
	C491.500763,691.889038 452.039459,691.889038 411.804779,691.889038 
	C412.217194,686.967529 412.937225,682.301575 412.947632,677.634094 
	C413.037537,637.333862 412.903656,597.032959 413.045319,556.733093 
	C413.104767,539.818298 413.659271,522.905090 414.002411,505.991425 
	C414.325439,490.070862 414.619476,474.149506 415.016998,458.230713 
	C415.260620,448.475372 415.675110,438.724335 416.491394,428.488617 
	C427.859833,429.670654 438.780151,431.159790 449.633118,433.037872 
	C470.145630,436.587494 490.181915,441.925751 508.427826,452.221344 
	C523.713257,460.846436 534.328857,472.589233 533.126709,492.010895 
	C532.154785,507.713806 532.181824,523.486328 532.036194,539.230530 
	C531.868225,557.383911 532.113281,575.541077 531.971741,593.694946 
	C531.716553,626.426941 531.307068,659.157715 530.962036,691.889038 
M527.000000,593.500000 
	C527.333313,569.586243 527.709900,545.672974 527.980042,521.758484 
	C528.098572,511.262329 528.299438,500.752289 527.902161,490.269806 
	C527.601746,482.342316 524.641235,475.366882 519.000427,469.388031 
	C508.293060,458.038879 494.697052,451.614532 480.300385,447.186737 
	C465.577271,442.658569 450.406342,439.559998 435.377136,436.069489 
	C430.764648,434.998260 425.973358,434.696960 420.000000,433.867615 
	C420.000000,446.805664 420.129700,459.046783 419.964905,471.283966 
	C419.786469,484.535461 419.303009,497.782623 419.007812,511.032898 
	C418.642151,527.447510 418.102203,543.862671 418.045685,560.278992 
	C417.906281,600.768982 418.000000,641.259766 418.000000,681.750244 
	C418.000000,683.371521 418.000000,684.992798 418.000000,687.298828 
	C454.136627,687.298828 489.872681,687.298828 527.000000,687.298828 
	C527.000000,655.903809 527.000000,625.201904 527.000000,593.500000 
z"/>
<path fill="#FFFFFF" opacity="1.000000" stroke="none" 
	d="
M535.955261,359.902191 
	C525.165955,370.744720 512.677246,379.300018 498.997040,385.907776 
	C478.785065,395.670471 457.514679,402.361603 435.326996,406.053894 
	C428.959473,407.113495 422.646118,408.498718 415.999664,409.794769 
	C415.999664,396.541351 415.999634,383.569763 415.999664,370.598175 
	C415.999725,352.288605 416.260193,333.974213 415.924377,315.670807 
	C415.609375,298.502899 414.755493,281.342285 413.961273,264.186676 
	C413.482574,253.845306 412.694672,243.517593 411.981812,233.188156 
	C411.768921,230.102997 411.340027,227.032761 411.469421,223.482040 
	C415.154755,223.344742 418.412140,223.499207 421.601318,224.049240 
	C434.655121,226.300690 447.723938,228.490128 460.720734,231.041290 
	C482.828278,235.380768 504.381378,241.483597 523.974854,253.035919 
	C534.768494,259.399811 544.511230,267.160950 549.369629,279.102814 
	C551.564819,284.498627 551.769165,290.688293 553.025635,296.485504 
	C555.524292,308.013794 553.612122,319.315521 550.149048,330.156097 
	C547.309387,339.045013 542.731445,347.378601 538.924072,355.958313 
	C538.924011,355.958313 538.990723,355.989319 538.716309,356.021362 
	C538.267944,356.357330 538.094055,356.661285 537.920105,356.965210 
	C537.920105,356.965210 537.989197,356.989197 537.714722,357.021698 
	C537.267273,357.356628 537.094360,357.659027 536.921387,357.961456 
	C536.921387,357.961456 536.997559,357.998474 536.671631,358.064941 
	C536.215515,358.721649 536.085388,359.311920 535.955261,359.902191 
M494.973511,380.535767 
	C497.788391,379.000977 500.686218,377.599396 503.403229,375.907410 
	C513.232727,369.786377 523.595703,363.976990 530.575684,354.610657 
	C542.672668,338.377869 549.699402,320.280060 548.117432,299.392578 
	C547.308960,288.718231 543.547852,279.699829 536.426514,271.925720 
	C523.177002,257.461823 505.722534,250.023163 487.726227,244.180984 
	C464.804199,236.739777 441.154694,232.181747 416.581970,229.505249 
	C417.081940,234.109833 417.716339,238.324539 417.966614,242.561935 
	C418.724304,255.389893 419.554840,268.219879 419.946381,281.061584 
	C420.492340,298.967346 420.817352,316.883179 420.960693,334.796936 
	C421.128632,355.787415 421.000000,376.780304 421.000000,397.772125 
	C421.000000,399.490814 421.000000,401.209503 421.000000,402.983643 
	C446.865723,398.708405 471.161377,391.703918 494.973511,380.535767 
z"/>
<path fill="#FFFFFF" opacity="1.000000" stroke="none"
	d="
M531.409058,691.997559 
	C531.307068,659.157715 531.716553,626.426941 531.971741,593.694946 
	C532.113281,575.541077 531.868225,557.383911 532.036194,539.230530 
	C532.181824,523.486328 532.154785,507.713806 533.126709,492.010895 
	C534.328857,472.589233 523.713257,460.846436 508.427826,452.221344 
	C490.181915,441.925751 470.145630,436.587494 449.633118,433.037872 
	C438.780151,431.159790 427.859833,429.670654 416.537781,428.024780 
	C415.760162,425.181061 415.414734,422.318451 414.968018,418.616455 
	C423.823120,419.844238 431.705536,420.807922 439.544128,422.048462 
	C462.087860,425.616302 484.409332,430.118103 505.556732,439.080750 
	C514.962280,443.066986 523.798584,448.002533 531.024597,455.433990 
	C537.601074,462.197510 541.062256,470.163300 540.978333,479.692200 
	C540.483826,535.841125 540.019043,591.990356 539.599792,648.139893 
	C539.491821,662.602600 539.583557,677.066772 539.583557,692.106140 
	C536.375061,692.106140 534.115540,692.106140 531.409058,691.997559 
z"/>
<path fill="#FFFFFF" opacity="1.000000" stroke="none" 
	d="
M819.854370,637.983337 
	C807.063110,649.125366 791.503235,654.775085 775.762817,659.936096 
	C754.793823,666.811401 733.308777,671.585510 711.516541,675.023560 
	C697.228943,677.277588 682.996643,679.919128 668.670044,681.878113 
	C657.973450,683.340698 647.163147,683.964294 636.408752,685.015808 
	C633.166992,685.332764 629.942871,685.831421 627.015076,686.207703 
	C627.015076,649.221863 627.015076,612.588562 627.489136,575.479492 
	C633.603149,575.678223 639.258301,576.245544 644.879883,577.048279 
	C658.366089,578.974060 671.841614,580.976501 685.311707,583.012756 
	C696.364929,584.683594 707.444397,586.226440 718.439087,588.227783 
	C731.441772,590.594666 744.460266,593.002014 757.301147,596.099548 
	C774.913025,600.347961 792.578735,604.692078 808.465515,613.930420 
	C820.284668,620.803406 823.686157,627.253235 819.854370,637.983337 
M729.253601,596.037231 
	C718.229492,594.227783 707.213196,592.369385 696.179260,590.622009 
	C684.010437,588.694946 671.837280,586.788452 659.643799,585.026672 
	C650.531128,583.710022 641.383240,582.637329 631.619995,581.374390 
	C631.619995,614.337463 631.619995,647.134766 631.619995,680.341492 
	C637.552002,679.550903 643.355042,678.689697 649.179993,678.019348 
	C661.328491,676.621155 673.591980,675.924072 685.620728,673.850830 
	C705.965698,670.344055 726.267944,666.444763 746.396606,661.868164 
	C765.809082,657.454285 784.727966,651.250366 802.416809,641.857971 
	C805.676270,640.127258 808.807800,638.040344 811.681824,635.724915 
	C816.484985,631.855225 816.340576,630.344971 812.299805,625.744446 
	C806.736023,619.409912 799.233521,616.145325 791.794006,613.114990 
	C771.915955,605.018127 751.003662,600.535522 729.253601,596.037231 
z"/>
<path fill="#FFFFFF" opacity="1.000000" stroke="none" 
	d="
M317.856171,684.978088 
	C305.675903,683.690857 293.483063,682.510864 281.319214,681.083679 
	C270.969025,679.869324 260.612854,678.611389 250.331390,676.931702 
	C239.305511,675.130310 228.187668,673.469238 217.424301,670.577087 
	C198.592880,665.516907 179.800323,660.144348 161.384125,653.768616 
	C150.022385,649.835083 139.191666,644.060791 131.111801,634.549377 
	C127.309364,630.073242 124.570686,625.093445 126.304031,618.382874 
	C126.754578,617.629700 126.916840,617.332947 127.079086,617.036133 
	C127.079086,617.036133 127.006874,617.005493 127.392273,617.005127 
	C130.797806,615.215332 133.622116,612.861938 136.871750,611.733154 
	C151.529770,606.641663 166.048645,600.779480 181.102570,597.282288 
	C205.289337,591.663391 229.801514,587.361633 254.283096,583.120544 
	C275.976349,579.362488 297.815247,576.445251 319.972809,573.098999 
	C319.266357,610.439087 318.561249,647.708618 317.856171,684.978088 
M290.699768,583.002563 
	C280.968384,584.668274 271.244141,586.377319 261.503784,587.988831 
	C248.882034,590.077209 236.168564,591.697571 223.638062,594.229492 
	C207.713272,597.447327 191.867828,601.119751 176.107620,605.072510 
	C160.618744,608.957214 145.261566,613.394348 131.395447,623.023315 
	C133.440613,625.736267 135.068253,628.355896 137.136810,630.562195 
	C148.005264,642.154297 162.313705,647.989685 176.845703,652.849670 
	C191.887924,657.880371 207.239639,662.150391 222.690598,665.744507 
	C236.214478,668.890442 250.059845,670.660645 263.771118,672.991943 
	C271.755310,674.349426 279.726349,675.841797 287.755798,676.859314 
	C295.984558,677.902039 304.277344,678.439453 312.737671,679.216003 
	C313.417694,645.785522 314.085999,612.930664 314.762024,579.697327 
	C306.719269,580.844299 299.160706,581.922241 290.699768,583.002563 
z"/>
<path fill="#FFFFFF" opacity="1.000000" stroke="none"
	d="
M539.261292,356.107849 
	C542.731445,347.378601 547.309387,339.045013 550.149048,330.156097 
	C553.612122,319.315521 555.524292,308.013794 553.025635,296.485504 
	C551.769165,290.688293 551.564819,284.498627 549.369629,279.102814 
	C544.511230,267.160950 534.768494,259.399811 523.974854,253.035919 
	C504.381378,241.483597 482.828278,235.380768 460.720734,231.041290 
	C447.723938,228.490128 434.655121,226.300690 421.601318,224.049240 
	C418.412140,223.499207 415.154755,223.344742 411.505829,223.040558 
	C410.604736,220.368179 410.126526,217.663620 409.501709,214.129990 
	C415.801361,214.809906 421.328552,215.344742 426.839722,216.011749 
	C453.947052,219.292480 480.841370,223.785919 506.585449,233.166336 
	C516.209290,236.672974 525.593201,241.207260 534.453430,246.361374 
	C551.574524,256.320923 561.273193,271.080231 561.748657,291.508667 
	C562.286499,314.616180 556.828674,335.655334 542.047180,353.828979 
	C541.325989,354.715729 540.419006,355.451385 539.261292,356.107849 
z"/>
<path fill="#FFFFFF" opacity="1.000000" stroke="none"
	d="
M820.207764,638.030151 
	C823.686157,627.253235 820.284668,620.803406 808.465515,613.930420 
	C792.578735,604.692078 774.913025,600.347961 757.301147,596.099548 
	C744.460266,593.002014 731.441772,590.594666 718.439087,588.227783 
	C707.444397,586.226440 696.364929,584.683594 685.311707,583.012756 
	C671.841614,580.976501 658.366089,578.974060 644.879883,577.048279 
	C639.258301,576.245544 633.603149,575.678223 627.542847,575.015320 
	C627.054199,573.939209 626.986023,572.851624 627.456787,571.379761 
	C637.672791,570.602112 647.349854,570.208679 657.026978,569.815247 
	C681.687805,573.373047 706.479309,576.218140 730.969421,580.707214 
	C751.692139,584.505737 772.207581,589.694214 792.530273,595.298889 
	C801.700989,597.828125 810.658630,602.059692 818.866638,606.941772 
	C832.893433,615.284485 833.209900,627.517639 820.207764,638.030151 
z"/>
<path fill="#FFFFFF" opacity="1.000000" stroke="none"
	d="
M318.087952,685.293945 
	C318.561249,647.708618 319.266357,610.439087 319.972809,573.098999 
	C297.815247,576.445251 275.976349,579.362488 254.283096,583.120544 
	C229.801514,587.361633 205.289337,591.663391 181.102570,597.282288 
	C166.048645,600.779480 151.529770,606.641663 136.871750,611.733154 
	C133.622116,612.861938 130.797806,615.215332 127.414894,617.037231 
	C128.985977,614.449890 130.359116,610.737732 132.953995,609.405945 
	C142.501450,604.505615 152.142868,599.423218 162.311707,596.166504 
	C194.476151,585.865173 227.783997,580.531799 261.028534,575.113342 
	C271.654633,573.381470 282.387146,572.302612 293.990570,570.953247 
	C303.237183,570.981567 311.564209,570.981567 320.021332,570.981567 
	C319.942108,569.294373 319.888397,568.150696 319.834686,567.007019 
	C321.894318,566.240234 323.953979,565.473389 327.017242,564.332947 
	C326.321289,605.590515 325.643066,645.796875 324.955475,686.559265 
	C323.075531,686.290222 320.697632,685.949951 318.087952,685.293945 
z"/>
<path fill="#FFFFFF" opacity="1.000000" stroke="none" 
	d="
M656.785889,569.476929 
	C647.349854,570.208679 637.672791,570.602112 627.554443,570.979919 
	C627.113159,569.490540 627.113159,568.016724 627.113159,565.837769 
	C637.009338,566.947632 646.777100,568.043152 656.785889,569.476929 
z"/>
<path fill="#FFFFFF" opacity="1.000000" stroke="none"
	d="
M319.407166,567.004272 
	C319.888397,568.150696 319.942108,569.294373 320.021332,570.981567 
	C311.564209,570.981567 303.237183,570.981567 294.443970,570.887695 
	C302.311707,569.529663 310.645660,568.265625 319.407166,567.004272 
z"/>
<path fill="#FFFFFF" opacity="1.000000" stroke="none"
	d="
M536.311096,359.813507 
	C536.085388,359.311920 536.215515,358.721649 536.640625,358.036102 
	C536.846008,358.535492 536.756470,359.130157 536.311096,359.813507 
z"/>
<path fill="#FFFFFF" opacity="1.000000" stroke="none"
	d="
M126.758308,616.929138 
	C126.916840,617.332947 126.754578,617.629700 126.338928,617.992798 
	C126.202873,617.646790 126.320198,617.234436 126.758308,616.929138 
z"/>
<path fill="#FFFFFF" opacity="1.000000" stroke="none"
	d="
M537.287720,358.092590 
	C537.094360,357.659027 537.267273,357.356628 537.702759,356.987152 
	C537.861450,357.354645 537.757751,357.789154 537.287720,358.092590 
z"/>
<path fill="#FFFFFF" opacity="1.000000" stroke="none"
	d="
M538.277954,357.076111 
	C538.094055,356.661285 538.267944,356.357330 538.705750,355.986115 
	C538.858337,356.341553 538.747009,356.764252 538.277954,357.076111 
z"/>
<path fill="none" opacity="1.000000" stroke="none"
	d="
M527.000000,594.000000 
	C527.000000,625.201904 527.000000,655.903809 527.000000,687.298828 
	C489.872681,687.298828 454.136627,687.298828 418.000000,687.298828 
	C418.000000,684.992798 418.000000,683.371521 418.000000,681.750244 
	C418.000000,641.259766 417.906281,600.768982 418.045685,560.278992 
	C418.102203,543.862671 418.642151,527.447510 419.007812,511.032898 
	C419.303009,497.782623 419.786469,484.535461 419.964905,471.283966 
	C420.129700,459.046783 420.000000,446.805664 420.000000,433.867615 
	C425.973358,434.696960 430.764648,434.998260 435.377136,436.069489 
	C450.406342,439.559998 465.577271,442.658569 480.300385,447.186737 
	C494.697052,451.614532 508.293060,458.038879 519.000427,469.388031 
	C524.641235,475.366882 527.601746,482.342316 527.902161,490.269806 
	C528.299438,500.752289 528.098572,511.262329 527.980042,521.758484 
	C527.709900,545.672974 527.333313,569.586243 527.000000,594.000000 
z"/>
<path fill="none" opacity="1.000000" stroke="none"
	d="
M494.651672,380.752625 
	C471.161377,391.703918 446.865723,398.708405 421.000000,402.983643 
	C421.000000,401.209503 421.000000,399.490814 421.000000,397.772125 
	C421.000000,376.780304 421.128632,355.787415 420.960693,334.796936 
	C420.817352,316.883179 420.492340,298.967346 419.946381,281.061584 
	C419.554840,268.219879 418.724304,255.389893 417.966614,242.561935 
	C417.716339,238.324539 417.081940,234.109833 416.581970,229.505249 
	C441.154694,232.181747 464.804199,236.739777 487.726227,244.180984 
	C505.722534,250.023163 523.177002,257.461823 536.426514,271.925720 
	C543.547852,279.699829 547.308960,288.718231 548.117432,299.392578 
	C549.699402,320.280060 542.672668,338.377869 530.575684,354.610657 
	C523.595703,363.976990 513.232727,369.786377 503.403229,375.907410 
	C500.686218,377.599396 497.788391,379.000977 494.651672,380.752625 
z"/>
<path fill="none" opacity="1.000000" stroke="none"
	d="
M729.626587,596.268372 
	C751.003662,600.535522 771.915955,605.018127 791.794006,613.114990 
	C799.233521,616.145325 806.736023,619.409912 812.299805,625.744446 
	C816.340576,630.344971 816.484985,631.855225 811.681824,635.724915 
	C808.807800,638.040344 805.676270,640.127258 802.416809,641.857971 
	C784.727966,651.250366 765.809082,657.454285 746.396606,661.868164 
	C726.267944,666.444763 705.965698,670.344055 685.620728,673.850830 
	C673.591980,675.924072 661.328491,676.621155 649.179993,678.019348 
	C643.355042,678.689697 637.552002,679.550903 631.619995,680.341492 
	C631.619995,647.134766 631.619995,614.337463 631.619995,581.374390 
	C641.383240,582.637329 650.531128,583.710022 659.643799,585.026672 
	C671.837280,586.788452 684.010437,588.694946 696.179260,590.622009 
	C707.213196,592.369385 718.229492,594.227783 729.626587,596.268372 
z"/>
<path fill="none" opacity="1.000000" stroke="none"
	d="
M291.150940,583.001343 
	C299.160706,581.922241 306.719269,580.844299 314.762024,579.697327 
	C314.085999,612.930664 313.417694,645.785522 312.737671,679.216003 
	C304.277344,678.439453 295.984558,677.902039 287.755798,676.859314 
	C279.726349,675.841797 271.755310,674.349426 263.771118,672.991943 
	C250.059845,670.660645 236.214478,668.890442 222.690598,665.744507 
	C207.239639,662.150391 191.887924,657.880371 176.845703,652.849670 
	C162.313705,647.989685 148.005264,642.154297 137.136810,630.562195 
	C135.068253,628.355896 133.440613,625.736267 131.395447,623.023315 
	C145.261566,613.394348 160.618744,608.957214 176.107620,605.072510 
	C191.867828,601.119751 207.713272,597.447327 223.638062,594.229492 
	C236.168564,591.697571 248.882034,590.077209 261.503784,587.988831 
	C271.244141,586.377319 280.968384,584.668274 291.150940,583.001343 
z"/>
</svg>