<svg version="1.1" id="Layer_1" xmlns="http://www.w3.org/2000/svg" xmlns:xlink="http://www.w3.org/1999/xlink" x="0px" y="0px"
	 width="100%" viewBox="0 0 864 785" enable-background="new 0 0 864 785" xml:space="preserve">
<path fill="none" opacity="1.000000" stroke="none"
	d="
M572.000000,1.000006 
	C669.640747,1.000000 767.281555,1.000000 864.961182,1.000000 
	C864.961182,262.571381 864.961182,524.142761 864.961182,786.000000 
	C690.308533,786.000000 515.616943,786.000000 340.169678,785.635254 
	C346.278412,758.295654 353.212402,731.338196 359.967896,704.336121 
	C362.222809,695.323120 364.021057,686.195801 366.334045,677.008423 
	C366.721252,676.279907 366.802551,675.663757 366.970703,674.844604 
	C367.057556,674.641602 367.049255,674.200073 367.371735,674.035156 
	C367.759583,672.928772 367.824921,671.987366 367.976135,670.845215 
	C368.062012,670.644470 368.049683,670.208008 368.304871,670.096313 
	C368.681915,669.665955 368.803711,669.347290 369.005127,668.682617 
	C369.073608,667.627136 369.062500,666.917480 369.390625,666.020630 
	C370.122437,663.897278 370.515015,661.961182 370.993256,659.711792 
	C371.108795,658.967102 371.138702,658.535522 371.453217,657.971802 
	C371.794678,657.234619 371.851532,656.629700 371.993469,655.711792 
	C372.109283,654.967712 372.140015,654.536682 372.454773,653.972290 
	C372.796082,653.234009 372.853363,652.629089 372.995422,651.711487 
	C373.111023,650.968079 373.141815,650.537476 373.455811,649.972778 
	C373.794922,649.234192 373.850830,648.629700 373.994995,647.713257 
	C374.114075,646.970520 374.144867,646.539734 374.458130,645.973389 
	C374.797424,645.233276 374.854309,644.628662 374.998108,643.712097 
	C375.115234,642.969666 375.145447,642.539185 375.510315,641.906860 
	C376.964111,636.838196 378.083252,631.971375 379.146942,627.085938 
	C379.091522,627.067322 379.075500,627.183167 379.368164,627.028564 
	C379.552856,626.367065 379.444916,625.860107 379.432373,625.250366 
	C379.588043,624.932861 379.520172,624.772583 379.684113,624.528320 
	C381.203033,619.127319 385.447083,618.562561 389.722748,617.974976 
	C391.203156,617.771545 392.653168,617.346924 394.578186,617.024780 
	C402.304993,616.684937 409.567383,616.178040 416.836945,616.033691 
	C438.068634,615.612183 459.302979,615.323242 480.536652,615.005432 
	C503.770416,614.657654 527.005493,614.384949 550.238281,613.982727 
	C562.827576,613.764771 575.432556,613.664917 587.994080,612.908020 
	C596.926331,612.369934 606.066589,611.824280 614.640869,609.520569 
	C632.873596,604.622009 651.042114,599.249023 668.782898,592.817810 
	C688.145569,585.798767 706.461304,576.281982 723.636536,564.821045 
	C743.990295,551.239075 762.814209,535.797791 779.072388,517.410950 
	C788.064697,507.241272 797.273743,497.231049 805.731079,486.627319 
	C822.959473,465.026611 835.993896,440.920593 845.999817,415.237671 
	C858.254395,383.782654 862.247925,350.780426 862.908142,317.310059 
	C863.152832,304.904144 862.492615,292.470398 861.946899,280.062439 
	C861.579956,271.719849 861.572815,263.212036 859.845642,255.110458 
	C856.459229,239.225723 852.922974,223.253555 847.701843,207.912125 
	C842.225220,191.820084 835.822815,175.818954 827.761292,160.892715 
	C819.402283,145.415588 809.070618,130.907333 798.646667,116.674843 
	C791.330078,106.684982 782.664978,97.628220 774.116150,88.615799 
	C768.968872,83.189461 762.730164,78.816940 757.260254,73.674805 
	C742.344604,59.652908 725.308838,48.464355 707.317932,39.204746 
	C683.749268,27.074339 660.012573,14.964095 633.721741,9.193172 
	C617.900208,5.720326 602.084106,2.713673 585.804565,2.988708 
	C582.140564,3.050611 578.465881,3.134425 574.815125,2.905804 
	C573.840759,2.844789 572.936462,1.665756 572.000000,1.000006 
z"/>
<path fill="#BDBFC1" opacity="1.000000" stroke="none" 
	d="
M366.028107,677.120789 
	C364.021057,686.195801 362.222809,695.323120 359.967896,704.336121 
	C353.212402,731.338196 346.278412,758.295654 339.707031,785.635254 
	C334.311951,786.000000 328.623932,786.000000 322.393250,785.803345 
	C321.567078,785.737854 321.283539,785.868896 321.000000,786.000000 
	C319.611115,786.000000 318.222198,786.000000 316.276062,785.771667 
	C315.145905,785.695557 314.572937,785.847778 314.000000,786.000000 
	C210.312439,786.000000 106.624878,786.000000 2.366301,785.778137 
	C1.574377,785.307678 1.309282,785.122253 1.000000,785.000000 
	C1.000000,781.307068 1.000000,777.614197 1.343069,773.768433 
	C2.603077,770.087891 3.625932,766.583801 4.416961,763.028137 
	C6.719012,752.680603 8.928239,742.312378 11.350922,731.806885 
	C11.672955,731.391846 11.818407,731.122437 11.951290,730.492065 
	C11.989960,729.414001 12.041670,728.697083 12.382311,727.964600 
	C12.721344,727.266357 12.771445,726.583618 12.871717,725.578674 
	C12.981061,724.827942 13.040235,724.399536 13.350227,723.796143 
	C13.721303,723.032471 13.841559,722.443726 13.951340,721.493835 
	C13.989991,720.415588 14.039119,719.698364 14.378182,718.967896 
	C14.719254,718.270142 14.770389,717.585571 14.870022,716.536926 
	C14.967282,715.442505 15.016045,714.712219 15.310359,713.882324 
	C15.686850,713.457947 15.817786,713.133118 15.943967,712.452576 
	C15.991418,711.391113 16.043625,710.685364 16.384056,709.962280 
	C16.722521,709.263855 16.772760,708.582764 16.871624,707.535645 
	C16.979393,706.437378 17.038540,705.705078 17.317652,704.854736 
	C17.677538,704.435059 17.817457,704.133484 17.948744,703.473145 
	C17.992743,702.402710 18.045376,701.690979 18.381634,700.964111 
	C18.739616,700.280273 18.813976,699.611572 18.908371,698.571045 
	C18.981707,697.459839 19.035002,696.720520 19.380276,695.969360 
	C19.720684,695.271301 19.769114,694.585083 19.867306,693.578308 
	C19.976324,692.831848 20.035583,692.405945 20.382887,691.962646 
	C20.721592,691.264099 20.772255,690.583008 20.872072,689.537476 
	C20.974298,688.443054 21.027370,687.712891 21.424316,686.937256 
	C22.120352,684.895691 22.472513,682.899536 22.874001,680.538513 
	C22.979097,679.442627 23.034864,678.711670 23.376095,677.971436 
	C23.742128,677.291992 23.822699,676.621826 23.914455,675.535522 
	C24.340727,672.729065 24.755810,670.338562 25.348526,667.802979 
	C25.654352,667.378418 25.800844,667.108887 25.949299,666.488159 
	C25.986311,665.410400 26.039663,664.693787 26.383121,663.968628 
	C26.724474,663.273376 26.775719,662.586609 26.869267,661.534302 
	C26.966555,660.437927 27.021536,659.707092 27.321754,658.878662 
	C27.695053,658.456055 27.823118,658.130920 27.940971,657.450195 
	C27.983097,656.389160 28.035433,655.683655 28.378395,654.973633 
	C28.722410,654.279785 28.775801,653.590515 28.871086,652.535645 
	C28.966022,651.439209 29.019062,650.708435 29.318998,649.881714 
	C29.694454,649.459534 29.823015,649.133301 29.941532,648.450745 
	C29.986637,647.388428 30.041784,646.682373 30.385340,645.966064 
	C30.726053,645.271240 30.778357,644.586670 30.872391,643.536865 
	C30.967237,642.441650 31.020353,641.711670 31.368484,640.986755 
	C31.717293,640.294067 31.771084,639.596252 31.867857,638.575806 
	C31.974646,637.827209 32.038452,637.401123 32.389404,636.960266 
	C32.727730,636.264221 32.778908,635.582947 32.872559,634.535583 
	C32.974621,633.438599 33.034206,632.707764 33.385036,631.968689 
	C33.725861,631.273254 33.775444,630.585999 33.868179,629.576538 
	C33.973785,628.828125 34.036236,628.401978 34.385719,627.963074 
	C34.725731,627.267761 34.778717,626.585327 34.874290,625.536865 
	C34.973499,624.440186 35.030117,623.709473 35.379059,622.975647 
	C35.722805,622.281433 35.774223,621.590271 35.868946,620.576965 
	C35.974007,619.828613 36.035767,619.402344 36.384640,618.963867 
	C36.724911,618.268616 36.778069,617.585510 36.873993,616.536743 
	C36.972939,615.440369 37.029114,614.709656 37.377617,613.977417 
	C37.722301,613.283875 37.774654,612.591858 37.869740,611.577698 
	C37.973278,610.829224 38.034088,610.402893 38.382568,609.965881 
	C38.724007,609.270996 38.777767,608.586914 38.874256,607.536621 
	C38.975300,606.439453 39.033615,605.708374 39.382736,604.970093 
	C39.724651,604.275208 39.775757,603.587524 39.868835,602.533936 
	C39.970341,601.437988 40.029877,600.707947 40.382629,599.973022 
	C40.724754,599.277832 40.773666,598.587524 40.865494,597.575684 
	C40.969078,596.828613 41.029747,596.403076 41.380653,595.970520 
	C41.723057,595.275696 41.775215,594.587891 41.869652,593.535278 
	C41.964924,592.441040 42.017914,591.711609 42.367760,590.990234 
	C42.717369,590.297974 42.770119,589.597656 42.866108,588.575989 
	C42.969307,587.829041 43.029270,587.403503 43.379974,586.972290 
	C43.723358,586.278015 43.775997,585.589417 43.872238,584.578552 
	C43.976391,583.829529 44.036949,583.402771 44.418373,582.941284 
	C44.767956,581.903992 44.796677,580.901428 44.868820,579.576904 
	C44.972855,578.828979 45.033470,578.402954 45.383034,577.967590 
	C45.724319,577.272583 45.776661,576.586853 45.871212,575.535522 
	C45.970558,574.439636 46.027699,573.709290 46.378445,572.977783 
	C46.722881,572.283813 46.773708,571.591064 46.867203,570.576538 
	C46.970142,569.829041 47.030418,569.403320 47.379620,568.970642 
	C47.722694,568.276550 47.776844,567.589417 47.872719,566.536011 
	C47.973701,565.438965 48.032967,564.708130 48.383877,563.970703 
	C48.725536,563.275696 48.775547,562.587402 48.869217,561.576904 
	C48.974461,560.828552 49.036041,560.402344 49.419960,559.941895 
	C49.768276,558.903625 49.794258,557.899597 49.862030,556.574036 
	C49.965721,555.827576 50.027626,555.402649 50.381420,554.973267 
	C50.724407,554.278992 50.775505,553.589294 50.869102,552.577148 
	C50.973202,551.828613 51.034809,551.402466 51.418365,550.942017 
	C51.767487,549.904114 51.794662,548.900391 51.864479,547.575317 
	C51.967381,546.828674 52.027645,546.403503 52.379803,545.974365 
	C52.723545,545.280334 52.775398,544.590210 52.870544,543.577637 
	C52.975086,542.828918 53.036327,542.402527 53.419506,541.941162 
	C53.768536,540.903259 53.795624,539.900269 53.865456,538.575317 
	C53.969986,537.827820 54.031773,537.402405 54.384560,536.968689 
	C54.726082,536.273621 54.776600,535.586792 54.870911,534.577881 
	C54.975025,533.829346 55.035343,533.402954 55.417667,532.943054 
	C55.767296,531.905457 55.794914,530.901367 55.865589,529.575928 
	C55.968285,528.829163 56.027920,528.403687 56.378929,527.974365 
	C56.722580,527.280273 56.774860,526.590210 56.870564,525.577454 
	C56.976845,524.828247 57.039703,524.401672 57.422581,523.936646 
	C57.769508,522.897949 57.796417,521.897827 57.865761,520.575928 
	C57.968929,519.828674 58.029675,519.403198 58.380562,518.971680 
	C58.723358,518.277344 58.776020,517.589172 58.872204,516.577209 
	C58.977409,515.825195 59.039097,515.396973 59.382607,514.855103 
	C59.717480,513.793701 59.770523,512.845886 59.866840,511.576416 
	C59.970314,510.829010 60.030510,510.403320 60.442719,509.922424 
	C61.138058,507.544434 61.481384,505.221649 61.867401,502.576569 
	C61.972012,501.828369 62.033939,501.402466 62.382195,500.967346 
	C62.730591,500.278290 62.792660,499.598419 62.885899,498.549591 
	C62.975071,497.446564 63.033070,496.712494 63.383232,495.972717 
	C63.725449,495.277618 63.775501,494.588287 63.868778,493.576843 
	C63.973583,492.828857 64.035156,492.402893 64.419373,491.942932 
	C64.767860,490.904236 64.793716,489.899597 64.861732,488.574341 
	C64.963142,487.829407 65.022400,487.404999 65.374847,486.979797 
	C65.720604,486.285645 65.773163,485.592346 65.868866,484.576904 
	C65.973595,483.828857 66.035164,483.402924 66.419044,482.942902 
	C66.767654,481.904419 66.793961,480.899994 66.862930,479.574249 
	C66.966583,478.827911 67.027565,478.402893 67.380493,477.972626 
	C67.723747,477.278076 67.775063,476.588745 67.868744,475.532532 
	C67.972771,474.433807 68.034431,473.701996 68.320518,472.855743 
	C68.682312,472.434723 68.819687,472.128204 68.944244,471.510651 
	C68.988480,470.791901 69.045532,470.384125 69.417542,469.939270 
	C69.788902,468.917847 69.845306,467.933533 69.911987,466.617554 
	C69.979050,465.850006 70.035835,465.414154 70.381439,464.966583 
	C70.722122,464.270203 70.773994,463.585541 70.870544,462.535583 
	C70.972618,461.440033 71.030029,460.709808 71.379570,459.972748 
	C71.721893,459.276855 71.772079,458.587769 71.867676,457.577545 
	C71.972084,456.830597 72.031105,456.404846 72.378723,455.968933 
	C72.721176,455.273407 72.775009,454.588043 72.873993,453.538147 
	C72.969376,452.443817 73.019608,451.714050 73.364243,450.988098 
	C73.713684,450.294525 73.768715,449.597046 73.869377,448.577942 
	C73.975220,447.830139 74.035439,447.403992 74.383698,446.964233 
	C74.723801,446.267792 74.775871,445.584961 74.873444,444.536957 
	C74.970055,443.440704 75.021164,442.709564 75.316986,441.880524 
	C75.691696,441.458923 75.821693,441.135223 75.944534,440.454987 
	C75.991058,439.391357 76.044746,438.684296 76.385834,437.961945 
	C76.725189,437.265381 76.777161,436.584137 76.874359,435.537384 
	C76.972549,434.440155 77.025505,433.708435 77.320038,432.876038 
	C77.691734,432.454193 77.821846,432.132996 77.943939,431.455566 
	C77.988983,430.392670 78.042038,429.685944 78.383400,428.963440 
	C78.722626,428.265717 78.773544,427.583832 78.872040,426.535522 
	C78.979774,425.436615 79.039948,424.704102 79.318802,423.852905 
	C79.718033,423.452606 79.858253,423.152191 79.948303,422.474121 
	C79.991127,421.403168 80.043785,420.691071 80.384277,419.962341 
	C80.723083,419.264587 80.774063,418.583466 80.872971,417.537628 
	C80.971832,416.441620 81.022766,415.710358 81.315674,414.877502 
	C81.688530,414.454315 81.819397,414.132690 81.943954,413.454895 
	C81.990578,412.392151 82.043510,411.685547 82.384125,410.962189 
	C82.723015,410.264435 82.774231,409.583496 82.873550,408.537781 
	C82.971809,407.441895 83.021973,406.710693 83.314789,405.878754 
	C83.688499,405.456085 83.819550,405.134216 83.945114,404.455353 
	C83.991249,403.390167 84.042877,402.681946 84.268204,401.912079 
	C84.506279,401.746490 84.649017,401.585907 84.621758,401.548126 
	C84.486305,401.360565 84.306046,401.205383 84.191750,400.651794 
	C84.886436,397.493103 85.530937,394.721313 86.349625,391.802673 
	C86.657478,391.381622 86.805000,391.115082 86.953407,390.538086 
	C86.997147,389.802521 87.053871,389.385040 87.384323,388.843872 
	C87.713577,387.780548 87.769104,386.840942 87.870132,385.536316 
	C87.967896,384.440460 88.020142,383.709595 88.316498,382.879059 
	C88.690430,382.455505 88.820259,382.131622 88.944412,381.497406 
	C88.996391,380.780487 89.054047,380.373901 89.385025,379.843323 
	C89.714066,378.780151 89.769791,377.840942 89.871292,376.536560 
	C89.970299,375.440094 90.023521,374.708740 90.319061,373.876526 
	C90.691048,373.453461 90.820724,373.131287 90.943253,372.424866 
	C90.980156,371.020355 91.024200,370.000153 91.314812,368.881500 
	C91.690453,368.456482 91.819519,368.129913 91.939743,367.448547 
	C91.977119,366.389069 92.023354,365.684357 92.312607,364.889832 
	C92.692101,364.486084 92.828575,364.172089 92.978943,363.439270 
	C93.023903,361.869385 92.865936,360.675751 93.114151,359.573608 
	C97.441887,340.358337 101.819397,321.154236 106.354034,301.799072 
	C106.654961,301.381073 106.804268,301.121094 106.957184,300.480225 
	C106.986496,299.053253 107.028526,298.016541 107.314682,296.879303 
	C107.688850,296.454742 107.818886,296.130646 107.942825,295.422668 
	C107.980270,294.019409 108.023811,293.000031 108.313644,291.880432 
	C108.688751,291.453064 108.817558,291.125916 108.938507,290.444580 
	C108.978043,289.386597 109.025444,288.682800 109.315742,287.877869 
	C109.688965,287.454010 109.819283,287.131256 109.942642,286.424500 
	C109.978638,285.020844 110.021584,284.001160 110.311676,282.882263 
	C110.688217,282.455536 110.817619,282.127960 110.940353,281.491089 
	C110.992409,280.776947 111.051140,280.372101 111.352417,279.786621 
	C111.717888,279.023651 111.840813,278.441345 111.953522,277.496460 
	C111.997879,276.415161 112.052452,275.696411 112.392807,274.955078 
	C112.727364,274.255646 112.776146,273.578796 112.872681,272.537354 
	C112.969933,271.441986 113.019424,270.711151 113.311417,269.888977 
	C113.690582,269.483704 113.827248,269.169800 113.978424,268.437866 
	C115.049316,263.330872 116.105698,258.641937 117.400459,253.710724 
	C117.741379,252.581970 117.843925,251.695465 117.944130,250.498169 
	C118.000000,249.780289 118.058205,249.373215 118.371033,248.733368 
	C118.732063,247.601883 118.838478,246.703140 118.939484,245.449707 
	C118.980202,244.390076 119.026344,243.685120 119.313736,242.877380 
	C119.686485,242.453812 119.817986,242.133041 119.945694,241.427979 
	C119.984192,240.022964 120.026482,239.002258 120.312050,237.878372 
	C120.685699,237.451035 120.816063,237.126892 120.940872,236.447662 
	C120.988449,235.388657 121.041573,234.684723 121.384094,233.963913 
	C121.722023,233.264679 121.770576,232.582306 121.867195,231.511749 
	C122.314415,229.405319 122.713562,227.687073 123.384384,225.839447 
	C123.710594,224.773636 123.765137,223.837219 123.870453,222.578186 
	C123.982010,221.827118 124.042801,221.398682 124.349304,220.790390 
	C124.716972,220.024612 124.838921,219.438675 124.951424,218.491272 
	C124.995453,217.412994 125.048927,216.696182 125.390396,215.958069 
	C125.725533,215.257980 125.772667,214.579178 125.869598,213.533249 
	C125.987541,212.432953 126.055679,211.699753 126.324280,210.833771 
	C126.688934,210.424286 126.834251,210.137985 126.949501,209.479813 
	C127.009087,208.401901 127.079865,207.686264 127.421204,206.932266 
	C127.769493,206.250031 127.847229,205.606171 127.956650,204.542419 
	C129.714691,195.733459 131.441055,187.344376 133.348389,178.810944 
	C133.681015,178.396927 133.825012,178.123245 133.948792,177.485718 
	C133.986557,176.411484 134.036896,175.697037 134.378784,174.969635 
	C134.719223,174.270950 134.768082,173.585205 134.865356,172.501404 
	C135.307922,170.062164 135.702042,168.020981 136.386444,165.961792 
	C136.723358,165.262268 136.770004,164.580780 136.868622,163.577499 
	C136.980209,162.827774 137.039825,162.399841 137.348663,161.792282 
	C137.717438,161.021454 137.836960,160.430267 137.946411,159.479767 
	C137.987732,158.407349 138.039093,157.694244 138.462357,156.902344 
	C139.208115,154.827911 139.581985,152.832291 139.946259,150.477112 
	C139.991058,149.404373 140.045441,148.691193 140.386902,147.961060 
	C140.725098,147.263504 140.776215,146.582886 140.873428,145.537384 
	C140.969864,144.441605 141.020203,143.710709 141.315231,142.881088 
	C141.690262,142.458496 141.820602,142.134644 141.944580,141.454544 
	C141.990875,140.391754 142.043579,139.685226 142.383240,138.964020 
	C142.723221,138.267380 142.776245,137.585388 142.875275,136.538269 
	C142.971802,135.441818 143.022354,134.710464 143.316437,133.880005 
	C143.690582,133.458435 143.821182,133.135986 143.945770,132.456604 
	C143.994217,131.392227 144.048660,130.684784 144.388702,129.958115 
	C144.725861,129.260376 144.777451,128.581833 144.874664,127.538635 
	C144.971924,126.443687 145.023560,125.713402 145.368500,124.981606 
	C145.715607,124.286644 145.769394,123.593193 145.870407,122.578293 
	C145.978256,121.830589 146.038879,121.404343 146.385498,120.960625 
	C146.724152,120.263275 146.776825,119.583389 146.877136,118.579636 
	C146.986526,117.826530 147.048279,117.397293 147.383911,116.844025 
	C147.713379,115.780319 147.768982,114.840645 147.870544,113.536224 
	C147.967499,112.441025 148.018494,111.710556 148.315063,110.881226 
	C148.690247,110.457024 148.819870,110.131691 148.942352,109.450981 
	C148.986511,108.390366 149.037811,107.685135 149.462250,106.903152 
	C150.206665,104.821404 150.577927,102.816406 150.942505,100.455505 
	C150.986115,99.393204 151.036392,98.686806 151.369797,97.977150 
	C151.747955,97.305725 151.842987,96.637558 151.936508,95.554779 
	C152.677765,92.076797 153.420517,89.013420 154.404572,85.710526 
	C154.747086,84.584808 154.848297,83.698601 154.943024,82.455582 
	C154.991989,81.391617 155.047424,80.684471 155.389359,79.958588 
	C155.726410,79.260628 155.776962,78.581398 155.873474,77.537674 
	C155.970856,76.443146 156.022278,75.713112 156.367828,74.983742 
	C156.715576,74.289375 156.769211,73.594345 156.867950,72.534775 
	C156.964142,71.440445 157.015228,70.710670 157.313965,69.883224 
	C157.690536,69.458054 157.819473,69.130539 157.939484,68.447952 
	C157.983261,67.388550 158.035965,66.684235 158.379547,65.970505 
	C158.721237,65.273888 158.772049,64.586693 158.869217,63.577698 
	C158.977844,62.829685 159.040115,62.403473 159.387939,61.958214 
	C159.725174,61.260384 159.776855,60.581608 159.874542,59.537674 
	C159.975540,58.441959 160.030548,57.711407 160.376984,56.973057 
	C160.720230,56.276882 160.772079,55.588505 160.870636,54.578522 
	C160.977814,53.830612 161.038269,53.404297 161.384735,52.960724 
	C161.723633,52.263428 161.776520,51.583401 161.875275,50.538147 
	C161.976059,49.442116 162.030960,48.711304 162.370163,47.978668 
	C162.748154,47.307247 162.841843,46.637653 162.932831,45.632771 
	C162.987793,44.857353 163.045486,44.417225 163.388153,43.957458 
	C163.725296,43.259804 163.777496,42.581783 163.875488,41.538593 
	C163.975632,40.442650 164.029999,39.711880 164.375397,38.974594 
	C164.719391,38.278996 164.772339,37.589909 164.870789,36.536072 
	C164.967010,35.440968 165.017761,34.710609 165.314514,33.882034 
	C165.690308,33.458256 165.820099,33.132706 165.942566,32.448700 
	C166.006927,31.382811 166.078629,30.675381 166.420532,29.931316 
	C166.769348,29.250475 166.847977,28.606270 166.954834,27.537346 
	C167.182541,25.671831 167.310135,24.216730 167.593582,22.792643 
	C169.040253,15.524024 170.527161,8.263412 172.000000,0.999999 
	C305.020905,1.000000 438.041779,1.000000 571.531372,1.000006 
	C572.936462,1.665756 573.840759,2.844789 574.815125,2.905804 
	C578.465881,3.134425 582.140564,3.050611 585.804565,2.988708 
	C602.084106,2.713673 617.900208,5.720326 633.721741,9.193172 
	C660.012573,14.964095 683.749268,27.074339 707.317932,39.204746 
	C725.308838,48.464355 742.344604,59.652908 757.260254,73.674805 
	C762.730164,78.816940 768.968872,83.189461 774.116150,88.615799 
	C782.664978,97.628220 791.330078,106.684982 798.646667,116.674843 
	C809.070618,130.907333 819.402283,145.415588 827.761292,160.892715 
	C835.822815,175.818954 842.225220,191.820084 847.701843,207.912125 
	C852.922974,223.253555 856.459229,239.225723 859.845642,255.110458 
	C861.572815,263.212036 861.579956,271.719849 861.946899,280.062439 
	C862.492615,292.470398 863.152832,304.904144 862.908142,317.310059 
	C862.247925,350.780426 858.254395,383.782654 845.999817,415.237671 
	C835.993896,440.920593 822.959473,465.026611 805.731079,486.627319 
	C797.273743,497.231049 788.064697,507.241272 779.072388,517.410950 
	C762.814209,535.797791 743.990295,551.239075 723.636536,564.821045 
	C706.461304,576.281982 688.145569,585.798767 668.782898,592.817810 
	C651.042114,599.249023 632.873596,604.622009 614.640869,609.520569 
	C606.066589,611.824280 596.926331,612.369934 587.994080,612.908020 
	C575.432556,613.664917 562.827576,613.764771 550.238281,613.982727 
	C527.005493,614.384949 503.770416,614.657654 480.536652,615.005432 
	C459.302979,615.323242 438.068634,615.612183 416.836945,616.033691 
	C409.567383,616.178040 402.304993,616.684937 394.106476,617.000854 
	C390.698090,616.971924 388.222534,616.958984 385.747040,616.966553 
	C379.187378,616.986633 378.575928,617.723389 379.324158,624.666748 
	C379.520172,624.772583 379.588043,624.932861 379.285522,625.696411 
	C379.054016,626.557861 379.064758,626.870483 379.075500,627.183167 
	C379.075500,627.183167 379.091522,627.067322 378.764709,627.075073 
	C377.350464,632.091492 376.263062,637.100159 375.175659,642.108765 
	C375.145447,642.539185 375.115234,642.969666 374.702087,643.710938 
	C374.271332,644.717529 374.223511,645.413269 374.175690,646.108948 
	C374.144867,646.539734 374.114075,646.970520 373.701660,647.716309 
	C373.270935,648.723083 373.221771,649.414978 373.172607,650.106812 
	C373.141815,650.537476 373.111023,650.968079 372.702820,651.712891 
	C372.273834,652.719849 372.222321,653.412781 372.170776,654.105652 
	C372.140015,654.536682 372.109283,654.967712 371.702148,655.715210 
	C371.273407,656.722473 371.221008,657.413208 371.168579,658.104004 
	C371.138702,658.535522 371.108795,658.967102 370.618805,659.784668 
	C369.789581,662.183167 369.420471,664.195496 369.051392,666.207886 
	C369.062500,666.917480 369.073608,667.627136 368.754639,668.775391 
	C368.299561,669.545410 368.174622,669.876709 368.049683,670.208008 
	C368.049683,670.208008 368.062012,670.644470 367.709534,671.067200 
	C367.254486,672.393311 367.151855,673.296692 367.049255,674.200073 
	C367.049255,674.200073 367.057556,674.641602 366.726318,675.019653 
	C366.272736,675.972046 366.150421,676.546387 366.028107,677.120789 
M104.892273,455.979004 
	C103.693680,461.094055 102.495087,466.209137 101.118729,472.094177 
	C80.367630,566.145142 59.616528,660.196167 38.805836,754.517212 
	C40.672333,754.640991 41.820259,754.783630 42.968204,754.783752 
	C132.118759,754.794128 221.269318,754.775146 310.419800,754.867249 
	C313.649597,754.870544 315.090973,753.988464 315.858856,750.788574 
	C328.557037,697.874512 341.414276,644.998657 354.035583,592.066406 
	C355.066010,587.744812 356.585510,586.191284 361.215179,586.224854 
	C409.203522,586.572632 457.194519,586.548950 505.183044,586.878784 
	C537.366821,587.100037 569.455261,586.797363 601.271790,580.814087 
	C677.692383,566.442932 739.297668,528.521729 784.487976,465.083374 
	C823.322998,410.566620 837.974548,349.289001 832.212402,283.002594 
	C827.511169,228.920532 809.536987,179.606216 775.288147,137.202866 
	C719.956482,68.697029 647.809814,32.821724 559.689941,32.141796 
	C441.218445,31.227680 322.734558,31.915001 204.255997,31.914919 
	C202.291107,31.914917 200.326218,31.914919 198.381454,31.914919 
	C197.856567,33.863529 197.411270,35.286835 197.091507,36.737804 
	C190.642227,66.002136 184.180222,95.263702 177.779556,124.538689 
	C173.763153,142.908661 169.843201,161.299713 165.126572,179.908295 
	C161.132904,185.167343 161.815765,191.297836 161.715698,198.030914 
	C157.055130,218.943100 152.342331,239.843842 147.749741,260.770935 
	C143.728348,279.095154 139.841980,297.449036 135.417603,316.364777 
	C134.023117,322.571747 132.628647,328.778687 131.097244,335.804749 
	C129.145447,344.742950 127.194145,353.681244 125.241768,362.619293 
	C118.497261,393.496002 111.752357,424.372589 104.892273,455.979004 
z"/>
<path fill="none" opacity="1.000000" stroke="none"
	d="
M91.068245,368.979919 
	C91.024200,370.000153 90.980156,371.020355 90.680542,372.525299 
	C90.308891,373.332489 90.192818,373.654938 90.076736,373.977417 
	C90.023521,374.708740 89.970299,375.440094 89.558342,376.692444 
	C89.170311,378.131409 89.141014,379.049347 89.111710,379.967316 
	C89.054047,380.373901 88.996391,380.780487 88.681709,381.598572 
	C88.307251,382.332947 88.189819,382.655853 88.072388,382.978729 
	C88.020142,383.709595 87.967896,384.440460 87.557449,385.692535 
	C87.169693,387.131683 87.140137,388.049652 87.110588,388.967590 
	C87.053871,389.385040 86.997147,389.802521 86.718460,390.644196 
	C86.389473,391.362122 86.282463,391.655853 86.175446,391.949554 
	C85.530937,394.721313 84.886436,397.493103 84.119652,400.882507 
	C83.997368,401.500153 84.094498,401.973724 84.094498,401.973724 
	C84.042877,402.681946 83.991249,403.390167 83.680771,404.553650 
	C83.305328,405.332458 83.188728,405.656006 83.072136,405.979523 
	C83.021973,406.710693 82.971809,407.441895 82.583694,408.663330 
	C82.195984,409.762054 82.146210,410.370514 82.096443,410.978973 
	C82.043510,411.685547 81.990578,412.392151 81.679871,413.553711 
	C81.305962,414.332153 81.189827,414.655640 81.073700,414.979095 
	C81.022766,415.710358 80.971832,416.441620 80.583221,417.663300 
	C80.195839,418.762146 80.146141,419.370544 80.096443,419.978973 
	C80.043785,420.691071 79.991127,421.403168 79.696526,422.576660 
	C79.336426,423.349243 79.218262,423.660431 79.100113,423.971619 
	C79.039948,424.704102 78.979774,425.436615 78.582443,426.661499 
	C78.195221,427.762329 78.145157,428.370789 78.095093,428.979248 
	C78.042038,429.685944 77.988983,430.392670 77.681290,431.555176 
	C77.310585,432.332855 77.194519,432.654785 77.078445,432.976685 
	C77.025505,433.708435 76.972549,434.440155 76.585281,435.663361 
	C76.200119,436.762299 76.149277,437.369751 76.098434,437.977234 
	C76.044746,438.684296 75.991058,439.391357 75.681702,440.554871 
	C75.308105,441.333679 75.190193,441.656067 75.072281,441.978455 
	C75.021164,442.709564 74.970055,443.440704 74.584641,444.663513 
	C74.198769,445.762756 74.147217,446.370270 74.095657,446.977814 
	C74.035439,447.403992 73.975220,447.830139 73.580750,448.707062 
	C73.187607,449.766632 73.128723,450.375427 73.069839,450.984253 
	C73.019608,451.714050 72.969376,452.443817 72.584747,453.664398 
	C72.196930,454.763153 72.143524,455.371094 72.090118,455.979065 
	C72.031105,456.404846 71.972084,456.830597 71.580261,457.706757 
	C71.194115,458.764618 71.140770,459.372101 71.087433,459.979584 
	C71.030029,460.709808 70.972618,461.440033 70.582275,462.663086 
	C70.197105,463.763367 70.144867,464.370850 70.092628,464.978333 
	C70.035835,465.414154 69.979050,465.850006 69.618774,466.794312 
	C69.244392,468.194000 69.173500,469.085175 69.102592,469.976379 
	C69.045532,470.384125 68.988480,470.791901 68.695000,471.618805 
	C68.337753,472.348724 68.216927,472.659454 68.096100,472.970215 
	C68.034431,473.701996 67.972771,474.433807 67.581894,475.661865 
	C67.197960,476.764709 67.143250,477.371277 67.088547,477.977875 
	C67.027565,478.402893 66.966583,478.827911 66.552338,479.736389 
	C66.164963,481.138855 66.130852,482.057922 66.096741,482.976959 
	C66.035164,483.402924 65.973595,483.828857 65.581978,484.707062 
	C65.195175,485.766418 65.138420,486.373505 65.081657,486.980621 
	C65.022400,487.404999 64.963142,487.829407 64.551346,488.736877 
	C64.164780,490.138977 64.130760,491.057983 64.096741,491.976959 
	C64.035156,492.402893 63.973583,492.828857 63.582314,493.706512 
	C63.198769,494.764954 63.144917,495.371704 63.091064,495.978424 
	C63.033070,496.712494 62.975071,497.446564 62.603371,498.679993 
	C62.225075,499.778412 62.160477,500.377472 62.095871,500.976532 
	C62.033939,501.402466 61.972012,501.828369 61.529655,502.772186 
	C60.796379,505.519257 60.443539,507.748413 60.090706,509.977600 
	C60.030510,510.403320 59.970314,510.829010 59.556137,511.736145 
	C59.168362,513.134583 59.134567,514.051636 59.100777,514.968689 
	C59.039097,515.396973 58.977409,515.825195 58.584778,516.705444 
	C58.199360,517.764160 58.144886,518.370972 58.090416,518.977722 
	C58.029675,519.403198 57.968929,519.828674 57.554688,520.736450 
	C57.168312,522.137512 57.135437,523.056274 57.102562,523.975098 
	C57.039703,524.401672 56.976845,524.828247 56.583332,525.706543 
	C56.197632,526.764893 56.142590,527.371582 56.087551,527.978271 
	C56.027920,528.403687 55.968285,528.829163 55.554817,529.736755 
	C55.165882,531.138123 55.130775,532.057312 55.095665,532.976501 
	C55.035343,533.402954 54.975025,533.829346 54.584141,534.706665 
	C54.200237,535.764038 54.146896,536.370483 54.093559,536.976929 
	C54.031773,537.402405 53.969986,537.827820 53.554710,538.736084 
	C53.166672,540.137939 53.132118,541.057068 53.097565,541.976135 
	C53.036327,542.402527 52.975086,542.828918 52.583374,543.706665 
	C52.197914,544.764709 52.142914,545.371521 52.087914,545.978271 
	C52.027645,546.403503 51.967381,546.828674 51.554108,547.736450 
	C51.166210,549.138123 51.131317,550.057251 51.096420,550.976318 
	C51.034809,551.402466 50.973202,551.828613 50.582306,552.706360 
	C50.198524,553.764587 50.144032,554.371155 50.089539,554.977783 
	C50.027626,555.402649 49.965721,555.827576 49.551453,556.736084 
	C49.165260,558.138550 49.131435,559.057373 49.097618,559.976135 
	C49.036041,560.402344 48.974461,560.828552 48.582836,561.706421 
	C48.199276,562.764526 48.145756,563.370911 48.092232,563.977356 
	C48.032967,564.708130 47.973701,565.438965 47.584572,566.663208 
	C47.200035,567.763672 47.145367,568.370667 47.090694,568.977600 
	C47.030418,569.403320 46.970142,569.829041 46.580696,570.706909 
	C46.195957,571.765686 46.140396,572.372314 46.084831,572.979004 
	C46.027699,573.709290 45.970558,574.439636 45.583675,575.663574 
	C45.200645,576.763855 45.147362,577.370361 45.094082,577.976929 
	C45.033470,578.402954 44.972855,578.828979 44.557201,579.736511 
	C44.167274,581.137390 44.132385,582.056702 44.097504,582.976074 
	C44.036949,583.402771 43.976391,583.829529 43.584641,584.706909 
	C43.198704,585.764404 43.143967,586.371216 43.089226,586.977966 
	C43.029270,587.403503 42.969307,587.829041 42.579498,588.707397 
	C42.190067,589.767517 42.130486,590.374817 42.070908,590.982178 
	C42.017914,591.711609 41.964924,592.441040 41.582535,593.664185 
	C41.198895,594.764404 41.144653,595.371033 41.090416,595.977600 
	C41.029747,596.403076 40.969078,596.828613 40.579872,597.706543 
	C40.197361,598.765320 40.143387,599.371643 40.089409,599.977905 
	C40.029877,600.707947 39.970341,601.437988 39.581997,602.662964 
	C39.199432,603.764343 39.145679,604.370850 39.091930,604.977356 
	C39.033615,605.708374 38.975300,606.439453 38.586037,607.663452 
	C38.201691,608.763184 38.148296,609.369934 38.094902,609.976624 
	C38.034088,610.402893 37.973278,610.829224 37.582527,611.706909 
	C37.196815,612.765137 37.141052,613.372070 37.085289,613.978943 
	C37.029114,614.709656 36.972939,615.440369 36.585915,616.663818 
	C36.202557,617.763062 36.150043,618.369629 36.097527,618.976135 
	C36.035767,619.402344 35.974007,619.828613 35.582222,620.706665 
	C35.197041,621.765198 35.141884,622.371948 35.086731,622.978699 
	C35.030117,623.709473 34.973499,624.440186 34.586205,625.663635 
	C34.203243,626.762817 34.150963,627.369385 34.098686,627.975891 
	C34.036236,628.401978 33.973785,628.828125 33.581871,629.706299 
	C33.199539,630.764526 33.146667,631.370728 33.093796,631.976929 
	C33.034206,632.707764 32.974621,633.438599 32.585159,634.662964 
	C32.204277,635.762634 32.153271,636.368896 32.102261,636.975098 
	C32.038452,637.401123 31.974646,637.827209 31.580715,638.706360 
	C31.191551,639.766846 31.132509,640.374268 31.073467,640.981628 
	C31.020353,641.711670 30.967237,642.441650 30.584656,643.664062 
	C30.202435,644.763123 30.149683,645.369690 30.096930,645.976318 
	C30.041784,646.682373 29.986637,647.388428 29.680681,648.553833 
	C29.310616,649.334717 29.191360,649.656128 29.072104,649.977600 
	C29.019062,650.708435 28.966022,651.439209 28.583317,652.663757 
	C28.198357,653.764404 28.143063,654.371277 28.087769,654.978210 
	C28.035433,655.683655 27.983097,656.389160 27.680527,657.553711 
	C27.312366,658.333984 27.194439,658.655151 27.076515,658.976257 
	C27.021536,659.707092 26.966555,660.437927 26.582413,661.663269 
	C26.199839,662.764221 26.146427,663.370728 26.093016,663.977173 
	C26.039663,664.693787 25.986311,665.410400 25.714371,666.596069 
	C25.387487,667.359436 25.279188,667.653809 25.170891,667.948120 
	C24.755810,670.338562 24.340727,672.729065 23.645241,675.677917 
	C23.273434,676.817810 23.182030,677.399231 23.090630,677.980713 
	C23.034864,678.711670 22.979097,679.442627 22.540445,680.718201 
	C21.798519,683.169495 21.439478,685.076111 21.080441,686.982788 
	C21.027370,687.712891 20.974298,688.443054 20.582119,689.663330 
	C20.193621,690.762329 20.144230,691.371155 20.094843,691.979980 
	C20.035583,692.405945 19.976324,692.831848 19.578773,693.706543 
	C19.189754,694.763855 19.139027,695.372498 19.088297,695.981140 
	C19.035002,696.720520 18.981707,697.459839 18.632717,698.706421 
	C18.257353,699.802124 18.177683,700.390747 18.098013,700.979309 
	C18.045376,701.690979 17.992743,702.402710 17.695572,703.574951 
	C17.333256,704.347900 17.215477,704.660400 17.097691,704.972839 
	C17.038540,705.705078 16.979393,706.437378 16.581772,707.661438 
	C16.194143,708.762085 16.144989,709.370850 16.095833,709.979675 
	C16.043625,710.685364 15.991418,711.391113 15.679397,712.552368 
	C15.301322,713.332581 15.183061,713.657288 15.064803,713.981934 
	C15.016045,714.712219 14.967282,715.442505 14.580282,716.663452 
	C14.190777,717.763123 14.139510,718.372192 14.088245,718.981201 
	C14.039119,719.698364 13.989991,720.415588 13.663768,721.638306 
	C13.290915,722.752991 13.195159,723.362000 13.099405,723.971069 
	C13.040235,724.399536 12.981061,724.827942 12.582270,725.705078 
	C12.192897,726.762573 12.143143,727.371338 12.093384,727.980164 
	C12.041670,728.697083 11.989960,729.414001 11.714472,730.597900 
	C11.385084,731.360718 11.279474,731.656494 11.173866,731.952271 
	C8.928239,742.312378 6.719012,752.680603 4.416961,763.028137 
	C3.625932,766.583801 2.603077,770.087891 1.343069,773.307739 
	C1.000000,515.786072 1.000000,258.572174 1.000000,1.000000 
	C57.687057,1.000000 114.374870,1.000000 171.531342,0.999999 
	C170.527161,8.263412 169.040253,15.524024 167.593582,22.792643 
	C167.310135,24.216730 167.182541,25.671831 166.671219,27.655254 
	C166.289673,28.787901 166.219986,29.377926 166.150314,29.967951 
	C166.078629,30.675381 166.006927,31.382811 165.679718,32.550289 
	C165.305634,33.333641 165.187073,33.656948 165.068512,33.980255 
	C165.017761,34.710609 164.967010,35.440968 164.581726,36.663624 
	C164.192932,37.764320 164.138657,38.372711 164.084381,38.981106 
	C164.029999,39.711880 163.975632,40.442650 163.585876,41.663513 
	C163.201401,42.761433 163.152298,43.369267 163.103180,43.977097 
	C163.045486,44.417225 162.987793,44.857353 162.675247,45.787205 
	C162.308884,46.844784 162.197372,47.412640 162.085876,47.980495 
	C162.030960,48.711304 161.976059,49.442116 161.585556,50.663406 
	C161.199539,51.761917 161.149124,52.369949 161.098724,52.977985 
	C161.038269,53.404297 160.977814,53.830612 160.582062,54.706467 
	C160.193054,55.764290 160.139313,56.372570 160.085571,56.980850 
	C160.030548,57.711407 159.975540,58.441959 159.585205,59.663250 
	C159.200714,60.761745 159.151550,61.369503 159.102386,61.977261 
	C159.040115,62.403473 158.977844,62.829685 158.581085,63.706005 
	C158.193954,64.764046 158.141312,65.371986 158.088654,65.979919 
	C158.035965,66.684235 157.983261,67.388550 157.677246,68.551498 
	C157.304749,69.333717 157.185547,69.657303 157.066345,69.980888 
	C157.015228,70.710670 156.964142,71.440445 156.579086,72.663620 
	C156.187973,73.765709 156.130829,74.374397 156.073685,74.983086 
	C156.022278,75.713112 155.970856,76.443146 155.584518,77.663681 
	C155.200684,78.761902 155.151779,79.369614 155.102859,79.977333 
	C155.047424,80.684471 154.991989,81.391617 154.614685,82.611519 
	C154.249634,84.066200 154.206436,85.008118 154.163254,85.950035 
	C153.420517,89.013420 152.677765,92.076797 151.678070,95.708160 
	C151.309631,96.844231 151.198151,97.412315 151.086670,97.980400 
	C151.036392,98.686806 150.986115,99.393204 150.596344,100.631149 
	C149.867615,103.101761 149.478363,105.040825 149.089111,106.979897 
	C149.037811,107.685135 148.986511,108.390366 148.679596,109.552841 
	C148.305832,110.333412 148.187668,110.656754 148.069489,110.980087 
	C148.018494,111.710556 147.967499,112.441025 147.557663,113.692528 
	C147.169220,115.131729 147.139618,116.049889 147.110016,116.968056 
	C147.048279,117.397293 146.986526,117.826530 146.587265,118.704758 
	C146.199677,119.761864 146.149597,120.369972 146.099518,120.978088 
	C146.038879,121.404343 145.978256,121.830589 145.581329,122.706825 
	C145.188400,123.765579 145.131790,124.374344 145.075180,124.983116 
	C145.023560,125.713402 144.971924,126.443687 144.585144,127.663803 
	C144.201004,128.761520 144.152054,129.369431 144.103104,129.977325 
	C144.048660,130.684784 143.994217,131.392227 143.682037,132.555099 
	C143.307175,133.333389 143.190033,133.656250 143.072906,133.979126 
	C143.022354,134.710464 142.971802,135.441818 142.585403,136.663513 
	C142.198456,137.762146 142.147369,138.370422 142.096283,138.978683 
	C142.043579,139.685226 141.990875,140.391754 141.681152,141.554352 
	C141.306259,142.333542 141.188400,142.656693 141.070557,142.979828 
	C141.020203,143.710709 140.969864,144.441605 140.584229,145.663391 
	C140.199234,146.762222 140.149521,147.370117 140.099808,147.978027 
	C140.045441,148.691193 139.991058,149.404373 139.611633,150.666138 
	C138.887878,153.136887 138.489182,155.059006 138.090469,156.981140 
	C138.039093,157.694244 137.987732,158.407349 137.657104,159.625763 
	C137.285049,160.744690 137.192230,161.358307 137.099426,161.971909 
	C137.039825,162.399841 136.980209,162.827774 136.579742,163.704590 
	C136.191315,164.762253 136.143738,165.371033 136.096161,165.979813 
	C135.702042,168.020981 135.307922,170.062164 134.575958,172.628677 
	C134.187805,173.763550 134.137512,174.373077 134.087219,174.982605 
	C134.036896,175.697037 133.986557,176.411484 133.711334,177.593857 
	C133.380081,178.359619 133.273743,178.657455 133.167404,178.955276 
	C131.441055,187.344376 129.714691,195.733459 127.672729,204.660522 
	C127.288307,205.789185 127.219475,206.379913 127.150642,206.970627 
	C127.079865,207.686264 127.009087,208.401901 126.706299,209.586456 
	C126.357452,210.359100 126.240631,210.662842 126.123810,210.966568 
	C126.055679,211.699753 125.987541,212.432953 125.580444,213.659637 
	C125.195122,214.761871 125.148758,215.370605 125.102402,215.979355 
	C125.048927,216.696182 124.995453,217.412994 124.664215,218.636078 
	C124.292152,219.751617 124.197868,220.360931 124.103577,220.970230 
	C124.042801,221.398682 123.982010,221.827118 123.556900,222.733749 
	C123.165955,224.130890 123.139336,225.049866 123.112717,225.968826 
	C122.713562,227.687073 122.314415,229.405319 121.578056,231.638550 
	C121.192131,232.762604 121.143425,233.371704 121.094711,233.980789 
	C121.041573,234.684723 120.988449,235.388657 120.676895,236.549576 
	C120.301910,237.331573 120.185341,237.656570 120.068771,237.981567 
	C120.026482,239.002258 119.984192,240.022964 119.680405,241.525406 
	C119.303436,242.331497 119.187950,242.655838 119.072479,242.980179 
	C119.026344,243.685120 118.980202,244.390076 118.610657,245.607941 
	C118.230316,247.069290 118.173370,248.017715 118.116425,248.966141 
	C118.058205,249.373215 118.000000,249.780289 117.614822,250.653961 
	C117.245934,252.064682 117.204010,253.008835 117.162079,253.952972 
	C116.105698,258.641937 115.049316,263.330872 113.707977,268.516357 
	C113.304993,269.335358 113.186951,269.657867 113.068909,269.980347 
	C113.019424,270.711151 112.969933,271.441986 112.583679,272.663208 
	C112.200294,273.761658 112.153664,274.369629 112.107025,274.977631 
	C112.052452,275.696411 111.997879,276.415161 111.666382,277.639221 
	C111.296265,278.752075 111.203064,279.359650 111.109863,279.967255 
	C111.051140,280.372101 110.992409,280.776947 110.677788,281.595215 
	C110.302773,282.332886 110.183655,282.657196 110.064529,282.981476 
	C110.021584,284.001160 109.978638,285.020844 109.679169,286.524719 
	C109.306046,287.332245 109.189438,287.655640 109.072845,287.979004 
	C109.025444,288.682800 108.978043,289.386597 108.676346,290.549377 
	C108.303818,291.332458 108.185585,291.656555 108.067352,291.980652 
	C108.023811,293.000031 107.980270,294.019409 107.679550,295.523834 
	C107.305092,296.332520 107.187820,296.656158 107.070557,296.979797 
	C107.028526,298.016541 106.986496,299.053253 106.722221,300.581757 
	C106.395332,301.364929 106.290695,301.656311 106.186066,301.947723 
	C101.819397,321.154236 97.441887,340.358337 93.114151,359.573608 
	C92.865936,360.675751 93.023903,361.869385 92.708923,363.517365 
	C92.306541,364.336090 92.188065,364.657837 92.069580,364.979614 
	C92.023354,365.684357 91.977119,366.389069 91.677559,367.551880 
	C91.305565,368.333252 91.186905,368.656586 91.068245,368.979919 
z"/>
<path fill="#DCDCDD" opacity="1.000000" stroke="none" 
	d="
M314.333313,786.000000 
	C314.572937,785.847778 315.145905,785.695557 315.859436,785.771667 
	C315.555542,786.000000 315.111115,786.000000 314.333313,786.000000 
z"/>
<path fill="#DCDCDD" opacity="1.000000" stroke="none" 
	d="
M321.250000,786.000000 
	C321.283539,785.868896 321.567078,785.737854 321.925293,785.803345 
	C322.000000,786.000000 321.500000,786.000000 321.250000,786.000000 
z"/>
<path fill="#DCDCDD" opacity="1.000000" stroke="none" 
	d="
M1.000000,785.500000 
	C1.309282,785.122253 1.574377,785.307678 1.897643,785.778137 
	C1.666667,786.000000 1.333333,786.000000 1.000000,785.500000 
z"/>
<path fill="#FBFBFB" opacity="1.000000" stroke="none" 
	d="
M379.684113,624.528320 
	C378.575928,617.723389 379.187378,616.986633 385.747040,616.966553 
	C388.222534,616.958984 390.698090,616.971924 393.645325,616.999390 
	C392.653168,617.346924 391.203156,617.771545 389.722748,617.974976 
	C385.447083,618.562561 381.203033,619.127319 379.684113,624.528320 
z"/>
<path fill="#EDEDEE" opacity="1.000000" stroke="none" 
	d="
M375.510315,641.906860 
	C376.263062,637.100159 377.350464,632.091492 378.820129,627.093750 
	C378.083252,631.971375 376.964111,636.838196 375.510315,641.906860 
z"/>
<path fill="#EDEDEE" opacity="1.000000" stroke="none" 
	d="
M369.390625,666.020630 
	C369.420471,664.195496 369.789581,662.183167 370.533142,660.097900 
	C370.515015,661.961182 370.122437,663.897278 369.390625,666.020630 
z"/>
<path fill="#EDEDEE" opacity="1.000000" stroke="none" 
	d="
M373.455811,649.972778 
	C373.221771,649.414978 373.270935,648.723083 373.613403,648.028198 
	C373.850830,648.629700 373.794922,649.234192 373.455811,649.972778 
z"/>
<path fill="#EDEDEE" opacity="1.000000" stroke="none" 
	d="
M372.454803,653.972290 
	C372.222321,653.412781 372.273834,652.719849 372.617981,652.025635 
	C372.853363,652.629089 372.796082,653.234009 372.454803,653.972290 
z"/>
<path fill="#EDEDEE" opacity="1.000000" stroke="none" 
	d="
M374.458130,645.973389 
	C374.223511,645.413269 374.271332,644.717529 374.615173,644.022949 
	C374.854309,644.628662 374.797424,645.233276 374.458130,645.973389 
z"/>
<path fill="#EDEDEE" opacity="1.000000" stroke="none" 
	d="
M371.453186,657.971802 
	C371.221008,657.413208 371.273407,656.722473 371.617096,656.028198 
	C371.851532,656.629700 371.794678,657.234619 371.453186,657.971802 
z"/>
<path fill="#EDEDEE" opacity="1.000000" stroke="none" 
	d="
M367.371735,674.035156 
	C367.151855,673.296692 367.254486,672.393311 367.623657,671.267944 
	C367.824921,671.987366 367.759583,672.928772 367.371735,674.035156 
z"/>
<path fill="#EDEDEE" opacity="1.000000" stroke="none" 
	d="
M366.334045,677.008423 
	C366.150421,676.546387 366.272736,675.972046 366.639465,675.222656 
	C366.802551,675.663757 366.721252,676.279907 366.334045,677.008423 
z"/>
<path fill="#EDEDEE" opacity="1.000000" stroke="none" 
	d="
M368.304871,670.096313 
	C368.174622,669.876709 368.299561,669.545410 368.675018,669.121338 
	C368.803711,669.347290 368.681915,669.665955 368.304871,670.096313 
z"/>
<path fill="#FBFBFB" opacity="1.000000" stroke="none" 
	d="
M379.368164,627.028564 
	C379.064758,626.870483 379.054016,626.557861 379.190125,625.799194 
	C379.444916,625.860107 379.552856,626.367065 379.368164,627.028564 
z"/>
<path fill="#022E62" opacity="1.000000" stroke="none" 
	d="
M135.895981,315.789795 
	C139.841980,297.449036 143.728348,279.095154 147.749741,260.770935 
	C152.342331,239.843842 157.055130,218.943100 162.283508,197.649109 
	C213.170746,197.261749 263.490143,197.254288 313.809570,197.258911 
	C315.473511,197.259064 317.139648,197.347031 318.801025,197.452789 
	C336.536499,198.582001 354.019165,212.775421 345.144897,238.079025 
	C340.441406,251.490433 338.151886,265.753357 334.860565,279.652710 
	C333.544952,285.208618 335.613800,289.825195 339.492737,293.686401 
	C344.205505,298.377686 349.895355,300.477966 356.622375,300.473999 
	C461.260101,300.412231 565.897827,300.431793 670.535583,300.419556 
	C672.197571,300.419373 673.863770,300.303741 675.520813,300.159180 
	C679.669128,299.797241 682.073669,297.736786 681.598022,293.340088 
	C680.847229,286.400696 679.976013,279.473877 679.106018,272.547974 
	C678.570618,268.286041 675.878906,266.822693 671.816345,266.637329 
	C665.838440,266.364594 659.823120,266.083710 653.918823,265.183044 
	C637.031799,262.607025 622.690186,254.188660 608.595154,245.121811 
	C590.952271,233.772720 573.767029,221.461166 555.202942,211.845657 
	C512.283752,189.615051 465.984680,179.974243 417.808716,179.818253 
	C333.833191,179.546341 249.856293,179.703796 165.879974,179.681305 
	C169.843201,161.299713 173.763153,142.908661 177.779556,124.538689 
	C184.180222,95.263702 190.642227,66.002136 197.091507,36.737804 
	C197.411270,35.286835 197.856567,33.863529 198.381454,31.914919 
	C200.326218,31.914919 202.291107,31.914917 204.255997,31.914919 
	C322.734558,31.915001 441.218445,31.227680 559.689941,32.141796 
	C647.809814,32.821724 719.956482,68.697029 775.288147,137.202866 
	C809.536987,179.606216 827.511169,228.920532 832.212402,283.002594 
	C837.974548,349.289001 823.322998,410.566620 784.487976,465.083374 
	C739.297668,528.521729 677.692383,566.442932 601.271790,580.814087 
	C569.455261,586.797363 537.366821,587.100037 505.183044,586.878784 
	C457.194519,586.548950 409.203522,586.572632 361.215179,586.224854 
	C356.585510,586.191284 355.066010,587.744812 354.035583,592.066406 
	C341.414276,644.998657 328.557037,697.874512 315.858856,750.788574 
	C315.090973,753.988464 313.649597,754.870544 310.419800,754.867249 
	C221.269318,754.775146 132.118759,754.794128 42.968204,754.783752 
	C41.820259,754.783630 40.672333,754.640991 38.805836,754.517212 
	C59.616528,660.196167 80.367630,566.145142 101.649330,471.723938 
	C196.313370,471.348328 290.446808,471.343048 384.580261,471.337341 
	C396.632812,471.336609 407.465759,474.870117 417.143280,482.153809 
	C436.280396,496.557281 456.991669,508.239319 479.434570,516.599792 
	C492.462189,521.452881 505.332886,527.383728 519.880859,526.157593 
	C537.505005,524.672180 553.669495,518.702515 568.717163,509.811584 
	C602.620483,489.779846 628.282349,461.495453 648.907288,428.348175 
	C658.527649,412.886749 666.559509,396.632233 672.198669,379.276428 
	C674.848389,371.121399 672.432129,367.664642 664.080627,369.246613 
	C655.186340,370.931396 646.025757,373.021606 637.988159,376.979309 
	C626.844055,382.466736 616.583557,389.774170 606.046814,396.463135 
	C594.103882,404.044769 582.850708,412.948090 570.291199,419.280731 
	C524.802917,442.216309 476.063873,453.981232 425.363190,454.468109 
	C320.909576,455.471252 216.440582,454.875732 111.977936,454.953857 
	C109.654419,454.955597 107.331055,455.146545 105.007614,455.249237 
	C111.752357,424.372589 118.497261,393.496002 125.241768,362.619293 
	C127.194145,353.681244 129.145447,344.742950 131.609131,335.335815 
	C185.940872,334.833038 239.760712,334.795074 293.580566,334.775238 
	C296.911682,334.774017 300.251587,334.787048 303.572601,335.011719 
	C322.121887,336.266632 334.817169,346.836365 340.175415,364.488373 
	C343.746002,376.251129 347.962585,387.831482 352.257843,399.356354 
	C355.898773,409.125580 362.405182,416.890839 370.755005,423.067841 
	C387.336456,435.334412 406.585449,439.221161 426.497620,438.795227 
	C479.563110,437.660156 529.644836,425.158630 575.041138,396.752686 
	C589.574585,387.658600 603.661682,377.850464 617.941895,368.352264 
	C633.724487,357.854797 651.128235,353.305908 670.006592,353.939789 
	C677.720581,354.198822 678.529236,353.497955 679.485962,345.796417 
	C680.368530,338.692047 681.091431,331.562317 681.659668,324.425842 
	C682.268555,316.778961 681.986450,316.584595 674.269958,316.573303 
	C601.787048,316.467194 529.304138,316.365234 456.821228,316.259735 
	C349.846161,316.104065 242.871063,315.946533 135.895981,315.789795 
M622.297668,151.214935 
	C601.226257,127.579887 577.177673,107.889015 548.003601,94.934937 
	C538.732239,90.818199 529.094666,89.640999 519.188538,91.317268 
	C472.822693,99.163086 432.804535,119.573380 399.218048,152.478256 
	C397.245300,154.410980 396.181885,157.271927 394.695282,159.700897 
	C397.448730,160.466141 400.160889,161.660706 402.962036,161.930023 
	C429.951569,164.525070 457.144562,165.711533 483.912598,169.738632 
	C525.196411,175.949493 562.358398,193.475876 597.292969,215.855652 
	C610.608032,224.385483 623.630432,233.372681 636.962585,241.874878 
	C646.224365,247.781281 656.476746,250.031540 667.507874,249.121719 
	C671.900330,248.759430 673.685486,246.712479 672.878174,242.706161 
	C671.929749,237.999268 670.796509,233.272568 669.146667,228.773285 
	C658.643127,200.130554 642.698059,174.731003 622.297668,151.214935 
M699.697083,378.680969 
	C691.836060,374.928314 690.535095,375.437683 687.669617,383.428101 
	C686.827026,385.777496 686.067017,388.157166 685.194153,390.494965 
	C665.138062,444.214691 632.233948,487.841187 583.951660,519.400024 
	C581.874390,520.757812 579.781433,522.211426 578.076111,523.985901 
	C576.250793,525.885254 576.682922,527.708313 579.481873,528.273071 
	C580.915039,528.562256 582.467468,528.670349 583.906921,528.458618 
	C643.090637,519.753235 691.485474,492.233154 729.033203,445.547943 
	C733.598450,439.871735 734.234497,433.916718 733.407593,427.304138 
	C730.685913,405.538727 719.472717,389.569153 699.697083,378.680969 
M670.465210,192.064102 
	C676.428101,206.490204 682.535034,220.859131 688.291931,235.366974 
	C691.087341,242.411530 693.425598,243.727585 700.344238,240.663071 
	C702.164429,239.856873 704.014709,238.985870 705.602844,237.809372 
	C718.412476,228.319839 727.770142,216.171921 732.503662,200.894989 
	C735.618652,190.841553 734.502869,181.050873 727.899231,172.435715 
	C723.142151,166.229538 718.622437,159.743439 713.189148,154.169418 
	C677.514160,117.570465 633.321655,97.951996 583.456177,89.907257 
	C582.448547,89.744690 581.346497,90.167191 580.288513,90.316734 
	C580.022400,90.707779 579.756287,91.098824 579.490173,91.489868 
	C617.084351,118.213860 647.636108,151.217728 670.465210,192.064102 
M702.817932,316.948639 
	C701.932983,318.320160 700.451050,319.613525 700.259460,321.075867 
	C698.963196,330.971832 697.859924,340.895630 696.867676,350.827728 
	C696.478210,354.725922 698.553223,357.224426 701.918762,359.230316 
	C707.767273,362.716095 713.665344,366.246765 718.989990,370.457397 
	C730.960938,379.923767 739.697388,391.993439 745.984436,405.891785 
	C746.647156,407.356812 748.256226,409.417511 749.378113,409.387726 
	C750.730835,409.351776 752.154846,407.488281 753.311707,406.203125 
	C754.062927,405.368500 754.394775,404.155273 754.909851,403.109344 
	C767.060425,378.434631 773.661560,352.302368 775.542175,324.911285 
	C776.054932,317.443726 774.638672,315.816376 766.921570,315.810028 
	C747.761597,315.794220 728.601624,315.783783 709.441772,315.837036 
	C707.479492,315.842499 705.518433,316.293121 702.817932,316.948639 
M774.884583,293.215790 
	C774.170044,285.264130 773.747681,277.273102 772.682556,269.368683 
	C770.146790,250.549225 764.904358,232.588867 754.600098,216.398026 
	C750.905396,210.592697 747.770264,210.615356 744.651428,216.843994 
	C735.138672,235.841507 720.651428,249.803940 701.971069,259.562958 
	C698.198730,261.533691 696.683105,264.388641 697.025574,268.464691 
	C697.721313,276.745270 698.429260,285.024902 699.100647,293.307465 
	C699.611084,299.604950 700.851868,300.979950 706.961914,300.999573 
	C727.280762,301.064789 747.599976,301.008148 767.919006,301.040527 
	C772.628357,301.048035 775.130066,298.988892 774.884583,293.215790 
z"/>
<path fill="#FBBA31" opacity="1.000000" stroke="none" 
	d="
M135.656799,316.077271 
	C242.871063,315.946533 349.846161,316.104065 456.821228,316.259735 
	C529.304138,316.365234 601.787048,316.467194 674.269958,316.573303 
	C681.986450,316.584595 682.268555,316.778961 681.659668,324.425842 
	C681.091431,331.562317 680.368530,338.692047 679.485962,345.796417 
	C678.529236,353.497955 677.720581,354.198822 670.006592,353.939789 
	C651.128235,353.305908 633.724487,357.854797 617.941895,368.352264 
	C603.661682,377.850464 589.574585,387.658600 575.041138,396.752686 
	C529.644836,425.158630 479.563110,437.660156 426.497620,438.795227 
	C406.585449,439.221161 387.336456,435.334412 370.755005,423.067841 
	C362.405182,416.890839 355.898773,409.125580 352.257843,399.356354 
	C347.962585,387.831482 343.746002,376.251129 340.175415,364.488373 
	C334.817169,346.836365 322.121887,336.266632 303.572601,335.011719 
	C300.251587,334.787048 296.911682,334.774017 293.580566,334.775238 
	C239.760712,334.795074 185.940872,334.833038 131.677597,334.926270 
	C132.628647,328.778687 134.023117,322.571747 135.656799,316.077271 
z"/>
<path fill="#FCBA30" opacity="1.000000" stroke="none" 
	d="
M165.503265,179.794800 
	C249.856293,179.703796 333.833191,179.546341 417.808716,179.818253 
	C465.984680,179.974243 512.283752,189.615051 555.202942,211.845657 
	C573.767029,221.461166 590.952271,233.772720 608.595154,245.121811 
	C622.690186,254.188660 637.031799,262.607025 653.918823,265.183044 
	C659.823120,266.083710 665.838440,266.364594 671.816345,266.637329 
	C675.878906,266.822693 678.570618,268.286041 679.106018,272.547974 
	C679.976013,279.473877 680.847229,286.400696 681.598022,293.340088 
	C682.073669,297.736786 679.669128,299.797241 675.520813,300.159180 
	C673.863770,300.303741 672.197571,300.419373 670.535583,300.419556 
	C565.897827,300.431793 461.260101,300.412231 356.622375,300.473999 
	C349.895355,300.477966 344.205505,298.377686 339.492737,293.686401 
	C335.613800,289.825195 333.544952,285.208618 334.860565,279.652710 
	C338.151886,265.753357 340.441406,251.490433 345.144897,238.079025 
	C354.019165,212.775421 336.536499,198.582001 318.801025,197.452789 
	C317.139648,197.347031 315.473511,197.259064 313.809570,197.258911 
	C263.490143,197.254288 213.170746,197.261749 162.367233,197.290466 
	C161.815765,191.297836 161.132904,185.167343 165.503265,179.794800 
z"/>
<path fill="#FBBA31" opacity="1.000000" stroke="none" 
	d="
M104.949944,455.614136 
	C107.331055,455.146545 109.654419,454.955597 111.977936,454.953857 
	C216.440582,454.875732 320.909576,455.471252 425.363190,454.468109 
	C476.063873,453.981232 524.802917,442.216309 570.291199,419.280731 
	C582.850708,412.948090 594.103882,404.044769 606.046814,396.463135 
	C616.583557,389.774170 626.844055,382.466736 637.988159,376.979309 
	C646.025757,373.021606 655.186340,370.931396 664.080627,369.246613 
	C672.432129,367.664642 674.848389,371.121399 672.198669,379.276428 
	C666.559509,396.632233 658.527649,412.886749 648.907288,428.348175 
	C628.282349,461.495453 602.620483,489.779846 568.717163,509.811584 
	C553.669495,518.702515 537.505005,524.672180 519.880859,526.157593 
	C505.332886,527.383728 492.462189,521.452881 479.434570,516.599792 
	C456.991669,508.239319 436.280396,496.557281 417.143280,482.153809 
	C407.465759,474.870117 396.632812,471.336609 384.580261,471.337341 
	C290.446808,471.343048 196.313370,471.348328 101.738213,471.338928 
	C102.495087,466.209137 103.693680,461.094055 104.949944,455.614136 
z"/>
<path fill="#E8E8E9" opacity="1.000000" stroke="none" 
	d="
M60.442711,509.922424 
	C60.443539,507.748413 60.796379,505.519257 61.486965,503.094452 
	C61.481384,505.221649 61.138058,507.544434 60.442711,509.922424 
z"/>
<path fill="#E1E2E3" opacity="1.000000" stroke="none" 
	d="
M21.424314,686.937256 
	C21.439478,685.076111 21.798519,683.169495 22.491116,681.083130 
	C22.472513,682.899536 22.120352,684.895691 21.424314,686.937256 
z"/>
<path fill="#E4E5E6" opacity="1.000000" stroke="none" 
	d="
M149.462250,106.903152 
	C149.478363,105.040825 149.867615,103.101761 150.603027,100.987045 
	C150.577927,102.816406 150.206665,104.821404 149.462250,106.903152 
z"/>
<path fill="#E0E0E2" opacity="1.000000" stroke="none" 
	d="
M138.462357,156.902344 
	C138.489182,155.059006 138.887878,153.136887 139.621216,151.025711 
	C139.581985,152.832291 139.208115,154.827911 138.462357,156.902344 
z"/>
<path fill="#E8E8E9" opacity="1.000000" stroke="none" 
	d="
M57.422585,523.936646 
	C57.135437,523.056274 57.168312,522.137512 57.512260,521.058167 
	C57.796417,521.897827 57.769508,522.897949 57.422585,523.936646 
z"/>
<path fill="#E8E8E9" opacity="1.000000" stroke="none" 
	d="
M64.419373,491.942932 
	C64.130760,491.057983 64.164780,490.138977 64.509186,489.057465 
	C64.793716,489.899597 64.767860,490.904236 64.419373,491.942932 
z"/>
<path fill="#E8E8E9" opacity="1.000000" stroke="none" 
	d="
M49.419952,559.941895 
	C49.131435,559.057373 49.165260,558.138550 49.509663,557.057739 
	C49.794258,557.899597 49.768276,558.903625 49.419952,559.941895 
z"/>
<path fill="#E8E8E9" opacity="1.000000" stroke="none" 
	d="
M66.419052,482.942902 
	C66.130852,482.057922 66.164963,481.138855 66.509674,480.057678 
	C66.793961,480.899994 66.767654,481.904419 66.419052,482.942902 
z"/>
<path fill="#E8E8E9" opacity="1.000000" stroke="none" 
	d="
M44.418365,582.941284 
	C44.132385,582.056702 44.167274,581.137390 44.513779,580.058472 
	C44.796677,580.901428 44.767956,581.903992 44.418365,582.941284 
z"/>
<path fill="#E5E6E7" opacity="1.000000" stroke="none" 
	d="
M69.417549,469.939270 
	C69.173500,469.085175 69.244392,468.194000 69.608498,467.126038 
	C69.845306,467.933533 69.788902,468.917847 69.417549,469.939270 
z"/>
<path fill="#E8E8E9" opacity="1.000000" stroke="none" 
	d="
M51.418365,550.942017 
	C51.131317,550.057251 51.166210,549.138123 51.511475,548.057861 
	C51.794662,548.900391 51.767487,549.904114 51.418365,550.942017 
z"/>
<path fill="#E8E8E9" opacity="1.000000" stroke="none" 
	d="
M53.419502,541.941162 
	C53.132118,541.057068 53.166672,540.137939 53.511971,539.058105 
	C53.795624,539.900269 53.768536,540.903259 53.419502,541.941162 
z"/>
<path fill="#E8E8E9" opacity="1.000000" stroke="none" 
	d="
M55.417671,532.943054 
	C55.130775,532.057312 55.165882,531.138123 55.511757,530.058105 
	C55.794914,530.901367 55.767296,531.905457 55.417671,532.943054 
z"/>
<path fill="#E4E5E6" opacity="1.000000" stroke="none" 
	d="
M89.385025,379.843323 
	C89.141014,379.049347 89.170311,378.131409 89.512566,377.057587 
	C89.769791,377.840942 89.714066,378.780151 89.385025,379.843323 
z"/>
<path fill="#E4E5E6" opacity="1.000000" stroke="none" 
	d="
M147.383881,116.844025 
	C147.139618,116.049889 147.169220,115.131729 147.511688,114.057266 
	C147.768982,114.840645 147.713379,115.780319 147.383881,116.844025 
z"/>
<path fill="#E0E1E2" opacity="1.000000" stroke="none" 
	d="
M123.384384,225.839447 
	C123.139336,225.049866 123.165955,224.130890 123.506119,223.056366 
	C123.765137,223.837219 123.710594,224.773636 123.384384,225.839447 
z"/>
<path fill="#E4E5E6" opacity="1.000000" stroke="none" 
	d="
M87.384323,388.843872 
	C87.140137,388.049652 87.169693,387.131683 87.511932,386.057556 
	C87.769104,386.840942 87.713577,387.780548 87.384323,388.843872 
z"/>
<path fill="#E8E8E9" opacity="1.000000" stroke="none" 
	d="
M59.382607,514.855103 
	C59.134567,514.051636 59.168362,513.134583 59.512863,512.057861 
	C59.770523,512.845886 59.717480,513.793701 59.382607,514.855103 
z"/>
<path fill="#E8E8E9" opacity="1.000000" stroke="none" 
	d="
M62.382202,500.967346 
	C62.160477,500.377472 62.225075,499.778412 62.572197,499.048950 
	C62.792660,499.598419 62.730591,500.278290 62.382202,500.967346 
z"/>
<path fill="#E8E8E9" opacity="1.000000" stroke="none" 
	d="
M63.383228,495.972717 
	C63.144917,495.371704 63.198769,494.764954 63.539089,494.028564 
	C63.775501,494.588287 63.725449,495.277618 63.383228,495.972717 
z"/>
<path fill="#E8E8E9" opacity="1.000000" stroke="none" 
	d="
M67.380486,477.972626 
	C67.143250,477.371277 67.197960,476.764709 67.539536,476.028778 
	C67.775063,476.588745 67.723747,477.278076 67.380486,477.972626 
z"/>
<path fill="#E8E8E9" opacity="1.000000" stroke="none" 
	d="
M65.374847,486.979797 
	C65.138420,486.373505 65.195175,485.766418 65.538834,485.029175 
	C65.773163,485.592346 65.720604,486.285645 65.374847,486.979797 
z"/>
<path fill="#E8E8E9" opacity="1.000000" stroke="none" 
	d="
M52.379807,545.974365 
	C52.142914,545.371521 52.197914,544.764709 52.540081,544.028992 
	C52.775398,544.590210 52.723545,545.280334 52.379807,545.974365 
z"/>
<path fill="#E5E6E7" opacity="1.000000" stroke="none" 
	d="
M70.381439,464.966583 
	C70.144867,464.370850 70.197105,463.763367 70.537613,463.028381 
	C70.773994,463.585541 70.722122,464.270203 70.381439,464.966583 
z"/>
<path fill="#E5E6E7" opacity="1.000000" stroke="none" 
	d="
M71.379562,459.972748 
	C71.140770,459.372101 71.194115,458.764618 71.534866,458.027924 
	C71.772079,458.587769 71.721893,459.276855 71.379562,459.972748 
z"/>
<path fill="#E5E6E7" opacity="1.000000" stroke="none" 
	d="
M72.378723,455.968933 
	C72.143524,455.371094 72.196930,454.763153 72.539597,454.028931 
	C72.775009,454.588043 72.721176,455.273407 72.378723,455.968933 
z"/>
<path fill="#E5E6E7" opacity="1.000000" stroke="none" 
	d="
M73.364243,450.988098 
	C73.128723,450.375427 73.187607,449.766632 73.535126,449.028687 
	C73.768715,449.597046 73.713684,450.294525 73.364243,450.988098 
z"/>
<path fill="#E5E6E7" opacity="1.000000" stroke="none" 
	d="
M74.383698,446.964233 
	C74.147217,446.370270 74.198769,445.762756 74.539139,445.028656 
	C74.775871,445.584961 74.723801,446.267792 74.383698,446.964233 
z"/>
<path fill="#E5E6E7" opacity="1.000000" stroke="none" 
	d="
M76.385834,437.961945 
	C76.149277,437.369751 76.200119,436.762299 76.540039,436.028839 
	C76.777161,436.584137 76.725189,437.265381 76.385834,437.961945 
z"/>
<path fill="#E2E3E4" opacity="1.000000" stroke="none" 
	d="
M78.383400,428.963440 
	C78.145157,428.370789 78.195221,427.762329 78.534874,427.027893 
	C78.773544,427.583832 78.722626,428.265717 78.383400,428.963440 
z"/>
<path fill="#E8E8E9" opacity="1.000000" stroke="none" 
	d="
M40.382629,599.973022 
	C40.143387,599.371643 40.197361,598.765320 40.536957,598.028137 
	C40.773666,598.587524 40.724754,599.277832 40.382629,599.973022 
z"/>
<path fill="#E4E5E6" opacity="1.000000" stroke="none" 
	d="
M161.384720,52.960724 
	C161.149124,52.369949 161.199539,51.761917 161.539673,51.028629 
	C161.776520,51.583401 161.723633,52.263428 161.384720,52.960724 
z"/>
<path fill="#E8E8E9" opacity="1.000000" stroke="none" 
	d="
M31.368484,640.986755 
	C31.132509,640.374268 31.191551,639.766846 31.537735,639.028931 
	C31.771084,639.596252 31.717293,640.294067 31.368484,640.986755 
z"/>
<path fill="#E8E8E9" opacity="1.000000" stroke="none" 
	d="
M32.389404,636.960266 
	C32.153271,636.368896 32.204277,635.762634 32.542686,635.029053 
	C32.778908,635.582947 32.727730,636.264221 32.389404,636.960266 
z"/>
<path fill="#E8E8E9" opacity="1.000000" stroke="none" 
	d="
M33.385040,631.968689 
	C33.146667,631.370728 33.199539,630.764526 33.538719,630.028564 
	C33.775444,630.585999 33.725861,631.273254 33.385040,631.968689 
z"/>
<path fill="#E8E8E9" opacity="1.000000" stroke="none" 
	d="
M34.385715,627.963074 
	C34.150963,627.369385 34.203243,626.762817 34.543613,626.029541 
	C34.778717,626.585327 34.725731,627.267761 34.385715,627.963074 
z"/>
<path fill="#E8E8E9" opacity="1.000000" stroke="none" 
	d="
M35.379055,622.975647 
	C35.141884,622.371948 35.197041,621.765198 35.538918,621.028809 
	C35.774223,621.590271 35.722805,622.281433 35.379055,622.975647 
z"/>
<path fill="#E8E8E9" opacity="1.000000" stroke="none" 
	d="
M36.384640,618.963867 
	C36.150043,618.369629 36.202557,617.763062 36.543148,617.029541 
	C36.778069,617.585510 36.724911,618.268616 36.384640,618.963867 
z"/>
<path fill="#E8E8E9" opacity="1.000000" stroke="none" 
	d="
M37.377617,613.977417 
	C37.141052,613.372070 37.196815,612.765137 37.539795,612.029053 
	C37.774654,612.591858 37.722301,613.283875 37.377617,613.977417 
z"/>
<path fill="#E8E8E9" opacity="1.000000" stroke="none" 
	d="
M38.382572,609.965881 
	C38.148296,609.369934 38.201691,608.763184 38.543308,608.029663 
	C38.777767,608.586914 38.724007,609.270996 38.382572,609.965881 
z"/>
<path fill="#E8E8E9" opacity="1.000000" stroke="none" 
	d="
M39.382736,604.970093 
	C39.145679,604.370850 39.199432,603.764343 39.540024,603.028809 
	C39.775757,603.587524 39.724651,604.275208 39.382736,604.970093 
z"/>
<path fill="#E8E8E9" opacity="1.000000" stroke="none" 
	d="
M58.380554,518.971680 
	C58.144886,518.370972 58.199360,517.764160 58.541260,517.029175 
	C58.776020,517.589172 58.723358,518.277344 58.380554,518.971680 
z"/>
<path fill="#E8E8E9" opacity="1.000000" stroke="none" 
	d="
M41.380653,595.970520 
	C41.144653,595.371033 41.198895,594.764404 41.540253,594.028992 
	C41.775215,594.587891 41.723057,595.275696 41.380653,595.970520 
z"/>
<path fill="#E8E8E9" opacity="1.000000" stroke="none" 
	d="
M42.367764,590.990234 
	C42.130486,590.374817 42.190067,589.767517 42.536259,589.028809 
	C42.770119,589.597656 42.717369,590.297974 42.367764,590.990234 
z"/>
<path fill="#E8E8E9" opacity="1.000000" stroke="none" 
	d="
M43.379974,586.972290 
	C43.143967,586.371216 43.198704,585.764404 43.541039,585.029297 
	C43.775997,585.589417 43.723358,586.278015 43.379974,586.972290 
z"/>
<path fill="#E8E8E9" opacity="1.000000" stroke="none" 
	d="
M45.383026,577.967590 
	C45.147362,577.370361 45.200645,576.763855 45.541466,576.029236 
	C45.776661,576.586853 45.724319,577.272583 45.383026,577.967590 
z"/>
<path fill="#E8E8E9" opacity="1.000000" stroke="none" 
	d="
M46.378441,572.977783 
	C46.140396,572.372314 46.195957,571.765686 46.538029,571.028687 
	C46.773708,571.591064 46.722881,572.283813 46.378441,572.977783 
z"/>
<path fill="#E8E8E9" opacity="1.000000" stroke="none" 
	d="
M47.379620,568.970642 
	C47.145367,568.370667 47.200035,567.763672 47.542854,567.029541 
	C47.776844,567.589417 47.722694,568.276550 47.379620,568.970642 
z"/>
<path fill="#E8E8E9" opacity="1.000000" stroke="none" 
	d="
M48.383881,563.970703 
	C48.145756,563.370911 48.199276,562.764526 48.539177,562.028564 
	C48.775547,562.587402 48.725536,563.275696 48.383881,563.970703 
z"/>
<path fill="#E8E8E9" opacity="1.000000" stroke="none" 
	d="
M50.381424,554.973267 
	C50.144032,554.371155 50.198524,553.764587 50.539810,553.028809 
	C50.775505,553.589294 50.724407,554.278992 50.381424,554.973267 
z"/>
<path fill="#E8E8E9" opacity="1.000000" stroke="none" 
	d="
M30.385340,645.966064 
	C30.149683,645.369690 30.202435,644.763123 30.542923,644.029297 
	C30.778357,644.586670 30.726053,645.271240 30.385340,645.966064 
z"/>
<path fill="#E8E8E9" opacity="1.000000" stroke="none" 
	d="
M54.384560,536.968689 
	C54.146896,536.370483 54.200237,535.764038 54.540344,535.028809 
	C54.776600,535.586792 54.726082,536.273621 54.384560,536.968689 
z"/>
<path fill="#E8E8E9" opacity="1.000000" stroke="none" 
	d="
M56.378922,527.974365 
	C56.142590,527.371582 56.197632,526.764893 56.539909,526.029175 
	C56.774860,526.590210 56.722580,527.280273 56.378922,527.974365 
z"/>
<path fill="#E4E5E6" opacity="1.000000" stroke="none" 
	d="
M142.383240,138.964020 
	C142.147369,138.370422 142.198456,137.762146 142.539398,137.028641 
	C142.776245,137.585388 142.723221,138.267380 142.383240,138.964020 
z"/>
<path fill="#E1E2E3" opacity="1.000000" stroke="none" 
	d="
M16.384056,709.962280 
	C16.144989,709.370850 16.194143,708.762085 16.533148,708.027466 
	C16.772760,708.582764 16.722521,709.263855 16.384056,709.962280 
z"/>
<path fill="#E0E1E2" opacity="1.000000" stroke="none" 
	d="
M121.384094,233.963913 
	C121.143425,233.371704 121.192131,232.762604 121.529984,232.026733 
	C121.770576,232.582306 121.722023,233.264679 121.384094,233.963913 
z"/>
<path fill="#E0E1E2" opacity="1.000000" stroke="none" 
	d="
M125.390396,215.958069 
	C125.148758,215.370605 125.195122,214.761871 125.530640,214.026733 
	C125.772667,214.579178 125.725533,215.257980 125.390396,215.958069 
z"/>
<path fill="#E1E2E3" opacity="1.000000" stroke="none" 
	d="
M14.378181,718.967896 
	C14.139510,718.372192 14.190777,717.763123 14.531784,717.027588 
	C14.770389,717.585571 14.719254,718.270142 14.378181,718.967896 
z"/>
<path fill="#E0E1E2" opacity="1.000000" stroke="none" 
	d="
M127.421204,206.932266 
	C127.219475,206.379913 127.288307,205.789185 127.641052,205.080383 
	C127.847229,205.606171 127.769493,206.250031 127.421204,206.932266 
z"/>
<path fill="#E4E5E6" opacity="1.000000" stroke="none" 
	d="
M163.388153,43.957458 
	C163.152298,43.369267 163.201401,42.761433 163.540100,42.028683 
	C163.777496,42.581783 163.725296,43.259804 163.388153,43.957458 
z"/>
<path fill="#E0E0E2" opacity="1.000000" stroke="none" 
	d="
M134.378799,174.969635 
	C134.137512,174.373077 134.187805,173.763550 134.527512,173.026749 
	C134.768082,173.585205 134.719223,174.270950 134.378799,174.969635 
z"/>
<path fill="#E0E0E2" opacity="1.000000" stroke="none" 
	d="
M136.386444,165.961792 
	C136.143738,165.371033 136.191315,164.762253 136.527771,164.026382 
	C136.770004,164.580780 136.723358,165.262268 136.386444,165.961792 
z"/>
<path fill="#E4E5E6" opacity="1.000000" stroke="none" 
	d="
M140.386902,147.961060 
	C140.149521,147.370117 140.199234,146.762222 140.538147,146.028290 
	C140.776215,146.582886 140.725098,147.263504 140.386902,147.961060 
z"/>
<path fill="#E1E2E3" opacity="1.000000" stroke="none" 
	d="
M12.382315,727.964600 
	C12.143143,727.371338 12.192897,726.762573 12.532099,726.027344 
	C12.771445,726.583618 12.721344,727.266357 12.382315,727.964600 
z"/>
<path fill="#E2E3E4" opacity="1.000000" stroke="none" 
	d="
M80.384277,419.962341 
	C80.146141,419.370544 80.195839,418.762146 80.535294,418.028046 
	C80.774063,418.583466 80.723083,419.264587 80.384277,419.962341 
z"/>
<path fill="#E4E5E6" opacity="1.000000" stroke="none" 
	d="
M144.388702,129.958115 
	C144.152054,129.369431 144.201004,128.761520 144.539505,128.028473 
	C144.777451,128.581833 144.725861,129.260376 144.388702,129.958115 
z"/>
<path fill="#E4E5E6" opacity="1.000000" stroke="none" 
	d="
M145.368500,124.981606 
	C145.131790,124.374344 145.188400,123.765579 145.534103,123.028275 
	C145.769394,123.593193 145.715607,124.286644 145.368500,124.981606 
z"/>
<path fill="#E4E5E6" opacity="1.000000" stroke="none" 
	d="
M146.385498,120.960625 
	C146.149597,120.369972 146.199677,119.761864 146.539627,119.028625 
	C146.776825,119.583389 146.724152,120.263275 146.385498,120.960625 
z"/>
<path fill="#E4E5E6" opacity="1.000000" stroke="none" 
	d="
M151.369797,97.977150 
	C151.198151,97.412315 151.309631,96.844231 151.679565,96.122765 
	C151.842987,96.637558 151.747955,97.305725 151.369797,97.977150 
z"/>
<path fill="#E4E5E6" opacity="1.000000" stroke="none" 
	d="
M162.370148,47.978668 
	C162.197372,47.412640 162.308884,46.844784 162.677979,46.122494 
	C162.841843,46.637653 162.748154,47.307247 162.370148,47.978668 
z"/>
<path fill="#E4E5E6" opacity="1.000000" stroke="none" 
	d="
M155.389359,79.958588 
	C155.151779,79.369614 155.200684,78.761902 155.538559,78.028183 
	C155.776962,78.581398 155.726410,79.260628 155.389359,79.958588 
z"/>
<path fill="#E4E5E6" opacity="1.000000" stroke="none" 
	d="
M156.367828,74.983742 
	C156.130829,74.374397 156.187973,73.765709 156.533966,73.028168 
	C156.769211,73.594345 156.715576,74.289375 156.367828,74.983742 
z"/>
<path fill="#E4E5E6" opacity="1.000000" stroke="none" 
	d="
M158.379547,65.970505 
	C158.141312,65.371986 158.193954,64.764046 158.534729,64.027802 
	C158.772049,64.586693 158.721237,65.273888 158.379547,65.970505 
z"/>
<path fill="#E4E5E6" opacity="1.000000" stroke="none" 
	d="
M159.387939,61.958214 
	C159.151550,61.369503 159.200714,60.761745 159.539215,60.028404 
	C159.776855,60.581608 159.725174,61.260384 159.387939,61.958214 
z"/>
<path fill="#E4E5E6" opacity="1.000000" stroke="none" 
	d="
M160.376984,56.973057 
	C160.139313,56.372570 160.193054,55.764290 160.535370,55.028069 
	C160.772079,55.588505 160.720230,56.276882 160.376984,56.973057 
z"/>
<path fill="#E8E8E9" opacity="1.000000" stroke="none" 
	d="
M28.378395,654.973633 
	C28.143063,654.371277 28.198357,653.764404 28.541422,653.029358 
	C28.775801,653.590515 28.722410,654.279785 28.378395,654.973633 
z"/>
<path fill="#E2E3E4" opacity="1.000000" stroke="none" 
	d="
M82.384125,410.962189 
	C82.146210,410.370514 82.195984,409.762054 82.535599,409.028076 
	C82.774231,409.583496 82.723015,410.264435 82.384125,410.962189 
z"/>
<path fill="#E3E3E4" opacity="1.000000" stroke="none" 
	d="
M112.392807,274.955078 
	C112.153664,274.369629 112.200294,273.761658 112.535927,273.027771 
	C112.776146,273.578796 112.727364,274.255646 112.392807,274.955078 
z"/>
<path fill="#E8E8E9" opacity="1.000000" stroke="none" 
	d="
M26.383121,663.968628 
	C26.146427,663.370728 26.199839,662.764221 26.540108,662.028809 
	C26.775719,662.586609 26.724474,663.273376 26.383121,663.968628 
z"/>
<path fill="#E1E2E3" opacity="1.000000" stroke="none" 
	d="
M18.381636,700.964111 
	C18.177683,700.390747 18.257353,699.802124 18.612679,699.078247 
	C18.813976,699.611572 18.739616,700.280273 18.381636,700.964111 
z"/>
<path fill="#E1E2E3" opacity="1.000000" stroke="none" 
	d="
M19.380276,695.969360 
	C19.139027,695.372498 19.189754,694.763855 19.529015,694.026978 
	C19.769114,694.585083 19.720684,695.271301 19.380276,695.969360 
z"/>
<path fill="#E4E5E6" opacity="1.000000" stroke="none" 
	d="
M166.420532,29.931316 
	C166.219986,29.377926 166.289673,28.787901 166.642975,28.079971 
	C166.847977,28.606270 166.769348,29.250475 166.420532,29.931316 
z"/>
<path fill="#E1E2E3" opacity="1.000000" stroke="none" 
	d="
M20.382885,691.962646 
	C20.144230,691.371155 20.193621,690.762329 20.532965,690.027710 
	C20.772255,690.583008 20.721592,691.264099 20.382885,691.962646 
z"/>
<path fill="#E1E2E3" opacity="1.000000" stroke="none" 
	d="
M23.376091,677.971436 
	C23.182030,677.399231 23.273434,676.817810 23.634052,676.093994 
	C23.822699,676.621826 23.742128,677.291992 23.376091,677.971436 
z"/>
<path fill="#E4E5E6" opacity="1.000000" stroke="none" 
	d="
M164.375397,38.974594 
	C164.138657,38.372711 164.192932,37.764320 164.536255,37.028374 
	C164.772339,37.589909 164.719391,38.278996 164.375397,38.974594 
z"/>
<path fill="#E4E5E6" opacity="1.000000" stroke="none" 
	d="
M154.404572,85.710526 
	C154.206436,85.008118 154.249634,84.066200 154.621170,82.968338 
	C154.848297,83.698601 154.747086,84.584808 154.404572,85.710526 
z"/>
<path fill="#E0E1E2" opacity="1.000000" stroke="none" 
	d="
M118.371033,248.733368 
	C118.173370,248.017715 118.230316,247.069290 118.616074,245.962646 
	C118.838478,246.703140 118.732063,247.601883 118.371033,248.733368 
z"/>
<path fill="#E0E1E2" opacity="1.000000" stroke="none" 
	d="
M117.400467,253.710724 
	C117.204010,253.008835 117.245934,252.064682 117.617172,250.964752 
	C117.843925,251.695465 117.741379,252.581970 117.400467,253.710724 
z"/>
<path fill="#E0E0E2" opacity="1.000000" stroke="none" 
	d="
M137.348663,161.792282 
	C137.192230,161.358307 137.285049,160.744690 137.667175,159.985077 
	C137.836960,160.430267 137.717438,161.021454 137.348663,161.792282 
z"/>
<path fill="#E1E2E3" opacity="1.000000" stroke="none" 
	d="
M13.350225,723.796143 
	C13.195159,723.362000 13.290915,722.752991 13.674243,721.999390 
	C13.841559,722.443726 13.721303,723.032471 13.350225,723.796143 
z"/>
<path fill="#E3E3E4" opacity="1.000000" stroke="none" 
	d="
M111.352417,279.786621 
	C111.203064,279.359650 111.296265,278.752075 111.676598,278.001740 
	C111.840813,278.441345 111.717888,279.023651 111.352417,279.786621 
z"/>
<path fill="#E0E1E2" opacity="1.000000" stroke="none" 
	d="
M124.349304,220.790390 
	C124.197868,220.360931 124.292152,219.751617 124.673653,218.997528 
	C124.838921,219.438675 124.716972,220.024612 124.349304,220.790390 
z"/>
<path fill="#E1E2E3" opacity="1.000000" stroke="none" 
	d="
M11.350920,731.806885 
	C11.279474,731.656494 11.385084,731.360718 11.727512,730.959106 
	C11.818407,731.122437 11.672955,731.391846 11.350920,731.806885 
z"/>
<path fill="#E8E8E9" opacity="1.000000" stroke="none" 
	d="
M25.348526,667.802979 
	C25.279188,667.653809 25.387487,667.359436 25.730713,666.957214 
	C25.800844,667.108887 25.654352,667.378418 25.348526,667.802979 
z"/>
<path fill="#E8E8E9" opacity="1.000000" stroke="none" 
	d="
M27.321751,658.878662 
	C27.194439,658.655151 27.312366,658.333984 27.690739,657.909363 
	C27.823118,658.130920 27.695053,658.456055 27.321751,658.878662 
z"/>
<path fill="#E8E8E9" opacity="1.000000" stroke="none" 
	d="
M29.319000,649.881714 
	C29.191360,649.656128 29.310616,649.334717 29.690723,648.910156 
	C29.823015,649.133301 29.694454,649.459534 29.319000,649.881714 
z"/>
<path fill="#E1E2E3" opacity="1.000000" stroke="none" 
	d="
M17.317657,704.854736 
	C17.215477,704.660400 17.333256,704.347900 17.704206,703.933716 
	C17.817457,704.133484 17.677538,704.435059 17.317657,704.854736 
z"/>
<path fill="#E1E2E3" opacity="1.000000" stroke="none" 
	d="
M15.310356,713.882324 
	C15.183061,713.657288 15.301322,713.332581 15.684153,712.908142 
	C15.817786,713.133118 15.686850,713.457947 15.310356,713.882324 
z"/>
<path fill="#E3E3E4" opacity="1.000000" stroke="none" 
	d="
M107.314682,296.879303 
	C107.187820,296.656158 107.305092,296.332520 107.685638,295.907715 
	C107.818886,296.130646 107.688850,296.454742 107.314682,296.879303 
z"/>
<path fill="#E4E5E6" opacity="1.000000" stroke="none" 
	d="
M165.314514,33.882034 
	C165.187073,33.656948 165.305634,33.333641 165.687042,32.908745 
	C165.820099,33.132706 165.690308,33.458256 165.314514,33.882034 
z"/>
<path fill="#E4E5E6" opacity="1.000000" stroke="none" 
	d="
M157.313965,69.883224 
	C157.185547,69.657303 157.304749,69.333717 157.686188,68.906586 
	C157.819473,69.130539 157.690536,69.458054 157.313965,69.883224 
z"/>
<path fill="#E4E5E6" opacity="1.000000" stroke="none" 
	d="
M148.315063,110.881226 
	C148.187668,110.656754 148.305832,110.333412 148.686737,109.908218 
	C148.819870,110.131691 148.690247,110.457024 148.315063,110.881226 
z"/>
<path fill="#E4E5E6" opacity="1.000000" stroke="none" 
	d="
M143.316437,133.880005 
	C143.190033,133.656250 143.307175,133.333389 143.688049,132.912018 
	C143.821182,133.135986 143.690582,133.458435 143.316437,133.880005 
z"/>
<path fill="#E4E5E6" opacity="1.000000" stroke="none" 
	d="
M141.315216,142.881088 
	C141.188400,142.656693 141.306259,142.333542 141.687531,141.910599 
	C141.820602,142.134644 141.690262,142.458496 141.315216,142.881088 
z"/>
<path fill="#E0E0E2" opacity="1.000000" stroke="none" 
	d="
M133.348389,178.810944 
	C133.273743,178.657455 133.380081,178.359619 133.723907,177.953659 
	C133.825012,178.123245 133.681015,178.396927 133.348389,178.810944 
z"/>
<path fill="#E0E1E2" opacity="1.000000" stroke="none" 
	d="
M126.324265,210.833771 
	C126.240631,210.662842 126.357452,210.359100 126.717484,209.948730 
	C126.834251,210.137985 126.688934,210.424286 126.324265,210.833771 
z"/>
<path fill="#E0E1E2" opacity="1.000000" stroke="none" 
	d="
M120.312057,237.878372 
	C120.185341,237.656570 120.301910,237.331573 120.682449,236.904663 
	C120.816063,237.126892 120.685699,237.451035 120.312057,237.878372 
z"/>
<path fill="#E0E1E2" opacity="1.000000" stroke="none" 
	d="
M119.313728,242.877380 
	C119.187950,242.655838 119.303436,242.331497 119.684204,241.909729 
	C119.817986,242.133041 119.686485,242.453812 119.313728,242.877380 
z"/>
<path fill="#E3E3E4" opacity="1.000000" stroke="none" 
	d="
M113.311417,269.888977 
	C113.186951,269.657867 113.304993,269.335358 113.693466,268.934387 
	C113.827248,269.169800 113.690582,269.483704 113.311417,269.888977 
z"/>
<path fill="#E3E3E4" opacity="1.000000" stroke="none" 
	d="
M110.311676,282.882263 
	C110.183655,282.657196 110.302773,282.332886 110.684464,281.904510 
	C110.817619,282.127960 110.688217,282.455536 110.311676,282.882263 
z"/>
<path fill="#E3E3E4" opacity="1.000000" stroke="none" 
	d="
M109.315735,287.877869 
	C109.189438,287.655640 109.306046,287.332245 109.686127,286.908691 
	C109.819283,287.131256 109.688965,287.454010 109.315735,287.877869 
z"/>
<path fill="#E3E3E4" opacity="1.000000" stroke="none" 
	d="
M108.313644,291.880432 
	C108.185585,291.656555 108.303818,291.332458 108.684204,290.903564 
	C108.817558,291.125916 108.688751,291.453064 108.313644,291.880432 
z"/>
<path fill="#E3E3E4" opacity="1.000000" stroke="none" 
	d="
M106.354027,301.799072 
	C106.290695,301.656311 106.395332,301.364929 106.734932,300.971985 
	C106.804268,301.121094 106.654961,301.381073 106.354027,301.799072 
z"/>
<path fill="#E4E5E6" opacity="1.000000" stroke="none" 
	d="
M92.312607,364.889832 
	C92.188065,364.657837 92.306541,364.336090 92.695038,363.936218 
	C92.828575,364.172089 92.692101,364.486084 92.312607,364.889832 
z"/>
<path fill="#E4E5E6" opacity="1.000000" stroke="none" 
	d="
M91.314812,368.881500 
	C91.186905,368.656586 91.305565,368.333252 91.686417,367.906616 
	C91.819519,368.129913 91.690453,368.456482 91.314812,368.881500 
z"/>
<path fill="#E4E5E6" opacity="1.000000" stroke="none" 
	d="
M90.319061,373.876526 
	C90.192818,373.654938 90.308891,373.332489 90.687683,372.909576 
	C90.820724,373.131287 90.691048,373.453461 90.319061,373.876526 
z"/>
<path fill="#E4E5E6" opacity="1.000000" stroke="none" 
	d="
M88.316498,382.879059 
	C88.189819,382.655853 88.307251,382.332947 88.687393,381.908905 
	C88.820259,382.131622 88.690430,382.455505 88.316498,382.879059 
z"/>
<path fill="#E4E5E6" opacity="1.000000" stroke="none" 
	d="
M86.349625,391.802673 
	C86.282463,391.655853 86.389473,391.362122 86.731430,390.962341 
	C86.805000,391.115082 86.657478,391.381622 86.349625,391.802673 
z"/>
<path fill="#E2E3E4" opacity="1.000000" stroke="none" 
	d="
M84.268204,401.912079 
	C84.094498,401.973724 83.997368,401.500153 84.069466,401.269470 
	C84.306046,401.205383 84.486305,401.360565 84.621758,401.548126 
	C84.649017,401.585907 84.506279,401.746490 84.268204,401.912079 
z"/>
<path fill="#E2E3E4" opacity="1.000000" stroke="none" 
	d="
M83.314789,405.878754 
	C83.188728,405.656006 83.305328,405.332458 83.686264,404.910645 
	C83.819550,405.134216 83.688499,405.456085 83.314789,405.878754 
z"/>
<path fill="#E2E3E4" opacity="1.000000" stroke="none" 
	d="
M81.315674,414.877502 
	C81.189827,414.655640 81.305962,414.332153 81.686180,413.909882 
	C81.819397,414.132690 81.688530,414.454315 81.315674,414.877502 
z"/>
<path fill="#E2E3E4" opacity="1.000000" stroke="none" 
	d="
M79.318787,423.852905 
	C79.218262,423.660431 79.336426,423.349243 79.706360,422.935516 
	C79.858253,423.152191 79.718033,423.452606 79.318787,423.852905 
z"/>
<path fill="#E5E6E7" opacity="1.000000" stroke="none" 
	d="
M77.320038,432.876038 
	C77.194519,432.654785 77.310585,432.332855 77.689301,431.911377 
	C77.821846,432.132996 77.691734,432.454193 77.320038,432.876038 
z"/>
<path fill="#E5E6E7" opacity="1.000000" stroke="none" 
	d="
M75.316986,441.880524 
	C75.190193,441.656067 75.308105,441.333679 75.688858,440.911438 
	C75.821693,441.135223 75.691696,441.458923 75.316986,441.880524 
z"/>
<path fill="#E8E8E9" opacity="1.000000" stroke="none" 
	d="
M68.320526,472.855743 
	C68.216927,472.659454 68.337753,472.348724 68.707817,471.929810 
	C68.819687,472.128204 68.682312,472.434723 68.320526,472.855743 
z"/>
<path fill="#FBBA31" opacity="1.000000" stroke="none" 
	d="
M622.528687,151.483902 
	C642.698059,174.731003 658.643127,200.130554 669.146667,228.773285 
	C670.796509,233.272568 671.929749,237.999268 672.878174,242.706161 
	C673.685486,246.712479 671.900330,248.759430 667.507874,249.121719 
	C656.476746,250.031540 646.224365,247.781281 636.962585,241.874878 
	C623.630432,233.372681 610.608032,224.385483 597.292969,215.855652 
	C562.358398,193.475876 525.196411,175.949493 483.912598,169.738632 
	C457.144562,165.711533 429.951569,164.525070 402.962036,161.930023 
	C400.160889,161.660706 397.448730,160.466141 394.695282,159.700897 
	C396.181885,157.271927 397.245300,154.410980 399.218048,152.478256 
	C432.804535,119.573380 472.822693,99.163086 519.188538,91.317268 
	C529.094666,89.640999 538.732239,90.818199 548.003601,94.934937 
	C577.177673,107.889015 601.226257,127.579887 622.528687,151.483902 
z"/>
<path fill="#FAB931" opacity="1.000000" stroke="none" 
	d="
M700.030884,378.844452 
	C719.472717,389.569153 730.685913,405.538727 733.407593,427.304138 
	C734.234497,433.916718 733.598450,439.871735 729.033203,445.547943 
	C691.485474,492.233154 643.090637,519.753235 583.906921,528.458618 
	C582.467468,528.670349 580.915039,528.562256 579.481873,528.273071 
	C576.682922,527.708313 576.250793,525.885254 578.076111,523.985901 
	C579.781433,522.211426 581.874390,520.757812 583.951660,519.400024 
	C632.233948,487.841187 665.138062,444.214691 685.194153,390.494965 
	C686.067017,388.157166 686.827026,385.777496 687.669617,383.428101 
	C690.535095,375.437683 691.836060,374.928314 700.030884,378.844452 
z"/>
<path fill="#FAB931" opacity="1.000000" stroke="none" 
	d="
M670.298096,191.735107 
	C647.636108,151.217728 617.084351,118.213860 579.490173,91.489868 
	C579.756287,91.098824 580.022400,90.707779 580.288513,90.316734 
	C581.346497,90.167191 582.448547,89.744690 583.456177,89.907257 
	C633.321655,97.951996 677.514160,117.570465 713.189148,154.169418 
	C718.622437,159.743439 723.142151,166.229538 727.899231,172.435715 
	C734.502869,181.050873 735.618652,190.841553 732.503662,200.894989 
	C727.770142,216.171921 718.412476,228.319839 705.602844,237.809372 
	C704.014709,238.985870 702.164429,239.856873 700.344238,240.663071 
	C693.425598,243.727585 691.087341,242.411530 688.291931,235.366974 
	C682.535034,220.859131 676.428101,206.490204 670.298096,191.735107 
z"/>
<path fill="#FAB931" opacity="1.000000" stroke="none" 
	d="
M703.187378,316.742920 
	C705.518433,316.293121 707.479492,315.842499 709.441772,315.837036 
	C728.601624,315.783783 747.761597,315.794220 766.921570,315.810028 
	C774.638672,315.816376 776.054932,317.443726 775.542175,324.911285 
	C773.661560,352.302368 767.060425,378.434631 754.909851,403.109344 
	C754.394775,404.155273 754.062927,405.368500 753.311707,406.203125 
	C752.154846,407.488281 750.730835,409.351776 749.378113,409.387726 
	C748.256226,409.417511 746.647156,407.356812 745.984436,405.891785 
	C739.697388,391.993439 730.960938,379.923767 718.989990,370.457397 
	C713.665344,366.246765 707.767273,362.716095 701.918762,359.230316 
	C698.553223,357.224426 696.478210,354.725922 696.867676,350.827728 
	C697.859924,340.895630 698.963196,330.971832 700.259460,321.075867 
	C700.451050,319.613525 701.932983,318.320160 703.187378,316.742920 
z"/>
<path fill="#FAB931" opacity="1.000000" stroke="none" 
	d="
M774.903015,293.662476 
	C775.130066,298.988892 772.628357,301.048035 767.919006,301.040527 
	C747.599976,301.008148 727.280762,301.064789 706.961914,300.999573 
	C700.851868,300.979950 699.611084,299.604950 699.100647,293.307465 
	C698.429260,285.024902 697.721313,276.745270 697.025574,268.464691 
	C696.683105,264.388641 698.198730,261.533691 701.971069,259.562958 
	C720.651428,249.803940 735.138672,235.841507 744.651428,216.843994 
	C747.770264,210.615356 750.905396,210.592697 754.600098,216.398026 
	C764.904358,232.588867 770.146790,250.549225 772.682556,269.368683 
	C773.747681,277.273102 774.170044,285.264130 774.903015,293.662476 
z"/>
</svg>