<svg version="1.1" id="Layer_1" xmlns="http://www.w3.org/2000/svg" xmlns:xlink="http://www.w3.org/1999/xlink" x="0px" y="0px"
	 viewBox="0 0 2000 1499" xml:space="preserve">
<path fill="none" opacity="1.000000" stroke="none"
	d="
M1181.000000,1500.000000 
	C787.333435,1500.000000 394.166901,1500.000000 1.000264,1500.000000 
	C1.000176,1000.333618 1.000176,500.667206 1.000088,1.000599 
	C667.666199,1.000399 1334.33s2397,1.000399 2000.999023,1.000200
	C2000.999268,500.666046 2000.999268,1000.332092 2000.999634,1499.999023 
	C1727.833374,1500.000000 1454.666626,1500.000000 1181.000000,1500.000000 
M1059.488037,173.023483 
	C995.098816,166.623856 931.167053,169.908707 868.404602,185.556824 
	C693.822754,229.084061 564.280273,330.934387 482.166229,490.879181 
	C424.343231,603.508911 407.894653,723.601562 428.866974,848.331482 
	C449.837769,973.052490 505.642914,1080.584351 597.327271,1167.447388 
	C740.380371,1302.977783 910.893250,1354.308228 1105.083618,1321.735229 
	C1227.967651,1301.122925 1333.290405,1244.031860 1419.013184,1153.740234 
	C1544.290283,1021.786255 1596.656738,864.028503 1577.992310,683.117798 
	C1570.171509,607.313171 1546.670776,536.095337 1509.526733,469.576447 
	C1415.956421,302.007782 1251.791870,193.792343 1059.488037,173.023483 
z"/>
<path fill="#CD0F2E" opacity="1.000000" stroke="none" 
	d="
M1059.941162,173.051834 
	C1251.791870,193.792343 1415.956421,302.007782 1509.526733,469.576447 
	C1546.670776,536.095337 1570.171509,607.313171 1577.992310,683.117798 
	C1596.656738,864.028503 1544.290283,1021.786255 1419.013184,1153.740234 
	C1333.290405,1244.031860 1227.967651,1301.122925 1105.083618,1321.735229 
	C910.893250,1354.308228 740.380371,1302.977783 597.327271,1167.447388 
	C505.642914,1080.584351 449.837769,973.052490 428.866974,848.331482 
	C407.894653,723.601562 424.343231,603.508911 482.166229,490.879181 
	C564.280273,330.934387 693.822754,229.084061 868.404602,185.556824 
	C931.167053,169.908707 995.098816,166.623856 1059.941162,173.051834 
M459.118195,647.677551 
	C449.515045,698.564331 447.381958,749.800232 451.884918,801.353516 
	C455.403931,841.641541 463.323151,881.055298 475.841278,919.492371 
	C510.492981,1025.890747 571.600708,1114.150757 659.293213,1183.539185 
	C751.275940,1256.322388 856.377258,1295.325195 973.422607,1301.689819 
	C1008.046448,1303.572510 1042.645142,1302.022949 1077.090454,1297.231201 
	C1135.462891,1289.110840 1191.132446,1272.273804 1243.998047,1246.301880 
	C1313.434448,1212.189209 1373.358276,1165.693604 1423.039429,1106.391724 
	C1504.002441,1009.750427 1547.005371,898.135620 1552.685303,772.271423 
	C1554.514893,731.731628 1551.519165,691.396606 1544.106812,651.441956 
	C1524.614868,546.373718 1478.504150,454.551422 1406.163574,376.046143 
	C1359.969116,325.914948 1306.065430,285.902283 1244.840576,255.737793 
	C1172.614746,220.153244 1096.199097,201.712982 1015.858521,199.307022 
	C984.346741,198.363342 952.964294,200.393784 921.737305,204.894424 
	C865.945129,212.935547 812.650146,229.157059 761.908752,253.651947 
	C693.951050,286.457916 635.132874,331.362946 585.477234,388.160645 
	C547.140747,432.011017 516.520325,480.761169 493.628113,534.362061 
	C478.137573,570.632324 466.797333,608.146545 459.118195,647.677551 
z"/>
<path fill="#0B2240" opacity="1.000000" stroke="none" 
	d="
M459.181976,647.254456 
	C466.797333,608.146545 478.137573,570.632324 493.628113,534.362061 
	C516.520325,480.761169 547.140747,432.011017 585.477234,388.160645 
	C635.132874,331.362946 693.951050,286.457916 761.908752,253.651947 
	C812.650146,229.157059 865.945129,212.935547 921.737305,204.894424 
	C952.964294,200.393784 984.346741,198.363342 1015.858521,199.307022 
	C1096.199097,201.712982 1172.614746,220.153244 1244.840576,255.737793 
	C1306.065430,285.902283 1359.969116,325.914948 1406.163574,376.046143 
	C1478.504150,454.551422 1524.614868,546.373718 1544.106812,651.441956 
	C1551.519165,691.396606 1554.514893,731.731628 1552.685303,772.271423 
	C1547.005371,898.135620 1504.002441,1009.750427 1423.039429,1106.391724 
	C1373.358276,1165.693604 1313.434448,1212.189209 1243.998047,1246.301880 
	C1191.132446,1272.273804 1135.462891,1289.110840 1077.090454,1297.231201 
	C1042.645142,1302.022949 1008.046448,1303.572510 973.422607,1301.689819 
	C856.377258,1295.325195 751.275940,1256.322388 659.293213,1183.539185 
	C571.600708,1114.150757 510.492981,1025.890747 475.841278,919.492371 
	C463.323151,881.055298 455.403931,841.641541 451.884918,801.353516 
	C447.381958,749.800232 449.515045,698.564331 459.181976,647.254456 
M1210.728516,406.777924 
	C1150.563721,370.113617 1085.156494,350.823578 1014.854919,348.273376 
	C976.205017,346.871368 937.993774,350.744537 900.610046,360.886322 
	C783.321960,392.705170 696.422852,462.775879 641.098389,570.736877 
	C601.438232,648.130310 589.910034,730.697693 603.994202,816.395081 
	C619.934326,913.385376 665.756775,994.299805 740.706238,1057.619751 
	C828.303772,1131.625244 930.164307,1162.012817 1044.257568,1151.100464 
	C1090.622192,1146.666016 1134.722412,1133.784180 1176.585938,1113.468872 
	C1232.661743,1086.256836 1280.240234,1048.261353 1318.421387,998.974792 
	C1380.739624,918.530640 1408.837402,827.284790 1403.219482,725.663330 
	C1401.025269,685.972778 1392.973145,647.476990 1378.894043,610.348633 
	C1346.042725,523.716980 1290.031616,456.054352 1210.728516,406.777924 
M1309.753052,1147.837158 
	C1303.166748,1145.361450 1296.580444,1142.885742 1290.814697,1140.718506 
	C1292.647217,1135.686646 1295.286621,1131.332031 1295.702759,1126.774292 
	C1297.170410,1110.702271 1280.471558,1099.756714 1265.381226,1107.888916 
	C1250.874268,1115.706665 1237.619995,1125.848877 1222.514282,1135.829468 
	C1234.135620,1138.677124 1238.614746,1147.125854 1243.889038,1154.758667 
	C1251.716553,1166.086304 1259.546631,1177.412109 1267.526245,1188.956543 
	C1273.004395,1185.100952 1278.133789,1181.490845 1283.341064,1177.825928 
	C1278.266479,1170.517334 1273.476440,1163.618652 1268.686401,1156.719849 
	C1268.881836,1156.143799 1269.077148,1155.567749 1269.272583,1154.991577 
	C1271.742554,1155.116943 1274.418335,1154.670654 1276.644531,1155.472412 
	C1283.991089,1158.118408 1291.147705,1161.287598 1298.445801,1164.076416 
	C1299.822266,1164.602173 1301.933960,1164.955811 1302.989990,1164.276123 
	C1308.816528,1160.525757 1314.420898,1156.430176 1320.756104,1151.994629 
	C1316.881592,1150.503906 1313.691406,1149.276489 1309.753052,1147.837158 
M995.567261,247.913193 
	C994.200073,246.235977 992.950012,244.442307 991.431885,242.915176 
	C989.994019,241.468689 988.327820,239.273010 986.670288,239.187698 
	C978.958801,238.790802 971.215576,239.011932 963.655090,239.011932 
	C973.697205,261.612946 965.731506,285.134003 969.067200,307.666748 
	C972.978027,307.666748 976.894226,307.666748 981.270569,307.666748 
	C981.270569,292.316956 981.270569,277.278137 981.270569,261.023621 
	C983.096375,263.142303 984.157104,264.304688 985.142822,265.527618 
	C995.797852,278.746429 1006.418762,291.992889 1017.125366,305.169739 
	C1018.093628,306.361359 1019.540527,307.856476 1020.854797,307.950012 
	C1025.582642,308.286407 1030.348877,308.082092 1035.179688,308.082092 
	C1035.179688,284.777069 1035.179688,262.088440 1035.179688,239.471710 
	C1030.964844,239.471710 1027.184448,239.471710 1022.868164,239.471710 
	C1022.868164,253.210205 1022.868164,266.720856 1022.868164,281.624146 
	C1013.315613,269.829681 1004.664490,259.148102 995.567261,247.913193 
M639.386658,497.867249 
	C646.731628,489.192413 651.525513,479.486816 650.408936,467.809326 
	C648.531189,448.171021 627.039429,431.858429 607.929016,435.328674 
	C587.477722,439.042389 571.331116,463.186127 576.593262,482.689178 
	C580.451172,496.987762 590.569336,505.561310 604.310425,509.523468 
	C618.014771,513.475037 629.445679,508.546509 639.386658,497.867249 
M1133.494141,327.903351 
	C1137.763184,327.280304 1142.059082,326.792999 1146.284790,325.952118 
	C1147.564575,325.697479 1149.414673,324.679443 1149.705322,323.646057 
	C1152.658447,313.143250 1155.343018,302.564911 1158.161743,291.781952 
	C1151.368164,289.970612 1145.105835,288.315979 1138.851807,286.629974 
	C1129.246704,284.040588 1129.248413,284.031128 1124.883667,292.901764 
	C1124.815430,293.040558 1124.851440,293.230591 1124.817749,293.672485 
	C1128.489868,294.762695 1132.227295,295.872223 1136.110596,297.025085 
	C1134.589722,302.852905 1133.247314,308.327576 1131.675903,313.735718 
	C1131.368286,314.794617 1130.320801,316.187897 1129.365601,316.425140 
	C1118.658203,319.084839 1106.394409,307.832642 1108.455200,297.023529 
	C1109.760864,290.175049 1111.616333,283.397980 1113.711060,276.741821 
	C1116.361694,268.319458 1123.176514,264.325623 1131.904053,265.506042 
	C1141.311768,266.778473 1149.065918,270.942383 1154.773193,279.552246 
	C1155.665771,276.308319 1156.022705,273.776550 1157.047607,271.552643 
	C1158.947266,267.430634 1157.151611,265.105896 1153.858765,262.943939 
	C1145.131714,257.214264 1135.572998,254.147247 1125.175903,253.997787 
	C1107.229004,253.739792 1094.521484,263.764526 1090.155029,281.360565 
	C1085.805420,298.888947 1092.258911,314.102661 1108.659668,321.606659 
	C1116.042114,324.984436 1124.560059,325.880127 1133.494141,327.903351 
M1015.908813,1251.743042 
	C1016.248230,1255.667114 1016.587646,1259.591064 1016.950378,1263.784302 
	C1023.596985,1263.165894 1029.669922,1262.600830 1036.154419,1261.997437 
	C1035.623901,1255.171143 1035.114868,1248.622437 1034.589722,1241.866577 
	C1041.421387,1241.207642 1047.744263,1240.892944 1053.968872,1239.937866 
	C1068.289795,1237.740601 1075.915771,1228.138428 1075.092529,1213.826416 
	C1074.336914,1200.688354 1065.497070,1191.865479 1051.328491,1192.057251 
	C1036.274048,1192.260986 1021.239014,1193.902100 1007.305664,1194.840698 
	C1009.247009,1201.849121 1011.818909,1208.302979 1012.712341,1214.981445 
	C1014.300964,1226.856323 1014.872925,1238.867188 1015.908813,1251.743042 
M916.158508,1235.219849 
	C918.785950,1235.655762 921.401917,1236.185181 924.042847,1236.512085 
	C937.966003,1238.234863 948.316956,1231.301758 951.384155,1218.255737 
	C954.624878,1204.471802 948.993164,1193.409180 934.971436,1189.703247 
	C920.256897,1185.814087 905.087463,1183.646118 890.204102,1180.742920 
	C895.542358,1204.951294 884.118896,1226.894897 883.404602,1249.991943 
	C889.406250,1251.075195 895.411743,1252.159058 901.722900,1253.298218 
	C902.945496,1246.521118 904.087280,1240.192261 905.295837,1233.493408 
	C908.812195,1234.052856 912.053711,1234.568604 916.158508,1235.219849 
M908.480469,316.840820 
	C912.747009,315.620697 917.013550,314.400604 921.844543,313.019104 
	C906.478943,293.633820 891.523315,274.746521 876.509766,255.905289 
	C875.992310,255.255844 874.764648,254.564819 874.089233,254.741058 
	C865.674194,256.936829 857.300293,259.289795 848.267517,261.781158 
	C852.824463,266.125977 854.559387,270.558136 853.786255,275.940643 
	C852.272522,286.479492 850.857910,297.032684 849.425964,307.583160 
	C848.247253,316.268433 847.102722,324.958282 845.919006,333.825623 
	C857.688293,331.330658 857.687195,331.330505 859.289734,320.522369 
	C859.387329,319.864014 859.321838,319.061584 859.678162,318.584564 
	C860.636780,317.301239 861.573608,315.469574 862.888062,315.070129 
	C871.792419,312.364105 880.770264,309.886017 889.787598,307.582031 
	C890.992126,307.274261 892.866760,308.003021 893.877136,308.885803 
	C895.476807,310.283478 896.873108,312.074249 897.884705,313.952301 
	C900.230469,318.307129 903.458435,319.129272 908.480469,316.840820 
M687.720947,359.922211 
	C691.637085,358.978088 695.553223,358.033997 699.858337,356.996124 
	C697.567444,354.283630 695.572937,351.622406 693.234436,349.308899 
	C692.366577,348.450287 690.496216,347.761353 689.415039,348.089386 
	C674.469543,352.623596 662.626404,361.064728 657.797119,376.526031 
	C653.446594,390.454559 664.625061,402.572937 678.924377,400.001038 
	C682.315002,399.391205 685.604614,398.019012 688.825195,396.712524 
	C693.597656,394.776459 698.225098,392.483490 702.994263,390.538422 
	C706.404663,389.147522 709.859619,388.810760 712.555847,392.095978 
	C715.413513,395.577850 714.402527,399.118164 711.976624,402.135559 
	C709.707947,404.957367 707.061584,407.574738 704.210938,409.809479 
	C697.671875,414.935760 690.056641,417.373993 680.779419,417.347717 
	C683.492065,420.641876 685.360535,423.408966 687.753235,425.604645 
	C688.934875,426.688934 691.313232,427.517639 692.759949,427.102448 
	C707.420349,422.895203 719.193848,414.585480 726.696960,401.134644 
	C730.754211,393.861176 731.059631,386.192810 726.051514,378.935608 
	C720.409119,370.759308 711.710876,368.366364 700.726562,372.440765 
	C694.032471,374.923889 687.577942,378.047180 680.974548,380.783142 
	C677.728088,382.128235 673.755127,382.881409 672.159302,379.257477 
	C671.157104,376.981567 671.765381,372.565948 673.437012,370.829681 
	C677.384521,366.729645 682.399597,363.657501 687.720947,359.922211 
M1432.714111,602.923767 
	C1444.888794,602.682983 1451.988525,596.448792 1453.459473,584.415649 
	C1453.819336,581.472534 1453.620117,578.433228 1453.420288,575.455444 
	C1453.029785,569.640381 1451.965332,563.819275 1452.180542,558.037842 
	C1452.279419,555.377319 1454.244873,551.274170 1456.265503,550.622986 
	C1458.280029,549.973816 1462.282959,552.179626 1463.870483,554.293091 
	C1466.284302,557.506897 1468.263916,561.598083 1468.803589,565.539062 
	C1469.612671,571.447266 1469.013916,577.548218 1469.013916,583.859436 
	C1472.024536,582.636230 1474.912842,581.760559 1477.467896,580.301331 
	C1478.781250,579.551208 1480.315796,577.789246 1480.362915,576.436157 
	C1480.856323,562.253845 1476.489624,549.803040 1465.841675,540.137085 
	C1459.507446,534.387146 1451.951538,533.058350 1444.017578,536.639160 
	C1436.320435,540.113037 1433.840210,546.914307 1434.017944,554.703918 
	C1434.177124,561.683533 1435.006958,568.650146 1435.611816,575.616333 
	C1435.976196,579.813721 1435.841064,583.964539 1431.249878,585.722900 
	C1426.406738,587.577698 1423.301636,584.505371 1420.969727,580.801147 
	C1415.607910,572.284180 1413.594116,563.068359 1415.753662,553.099243 
	C1416.080688,551.589417 1416.368652,550.071167 1416.781982,548.025879 
	C1413.642334,549.281982 1411.240356,550.455750 1408.712402,551.203186 
	C1405.140869,552.259216 1403.291382,554.365601 1404.025391,558.105469 
	C1405.585083,566.053894 1406.299072,574.357910 1409.182861,581.810791 
	C1413.170044,592.115662 1419.690796,600.838013 1432.714111,602.923767 
M1372.774536,1045.083008 
	C1365.375610,1049.543213 1358.120728,1054.277710 1350.486816,1058.290894 
	C1348.290649,1059.445557 1344.399292,1059.533691 1342.352661,1058.316162 
	C1339.167236,1056.421509 1339.850830,1052.428223 1341.803223,1049.854126 
	C1345.170898,1045.413696 1348.749390,1040.901855 1353.086426,1037.499878 
	C1356.673828,1034.686035 1361.483521,1033.430298 1365.940063,1031.398193 
	C1363.601807,1029.328491 1361.385864,1027.047852 1358.829224,1025.252197 
	C1357.720093,1024.473145 1355.583130,1024.019775 1354.468018,1024.561401 
	C1341.434937,1030.890869 1331.954712,1040.575928 1328.342529,1054.880005 
	C1326.426880,1062.465210 1328.433350,1069.468018 1334.756836,1074.664062 
	C1340.891235,1079.704590 1347.633911,1079.418823 1354.463379,1076.383667 
	C1357.333740,1075.107910 1360.061523,1073.470581 1362.740356,1071.813599 
	C1367.264526,1069.015015 1371.642944,1065.979492 1376.189209,1063.218994 
	C1379.187256,1061.398560 1382.752075,1061.192871 1384.758179,1064.123535 
	C1386.214233,1066.250610 1386.951538,1069.754639 1386.315186,1072.204590 
	C1385.525269,1075.246216 1383.284790,1078.089722 1381.148804,1080.568970 
	C1375.134155,1087.549927 1367.448975,1091.858643 1357.292114,1093.558960 
	C1360.596191,1096.382690 1363.048584,1098.835083 1365.875122,1100.729126 
	C1367.106567,1101.554321 1369.432983,1101.927856 1370.706177,1101.327515 
	C1384.662476,1094.745850 1395.171631,1084.751831 1400.011475,1069.757812 
	C1402.611938,1061.700928 1401.192017,1054.234009 1394.801758,1048.236206 
	C1388.517944,1042.338257 1381.309082,1041.608643 1372.774536,1045.083008 
M1190.388428,1215.935913 
	C1181.985596,1218.893433 1173.582764,1221.850952 1164.819458,1224.935303 
	C1162.564209,1218.513550 1160.456665,1212.511841 1158.286743,1206.333008 
	C1165.567017,1203.702759 1172.266479,1201.282349 1179.248779,1198.759888 
	C1179.010254,1195.212158 1178.780762,1191.799683 1178.516235,1187.866943 
	C1170.285278,1190.728149 1162.544922,1193.418823 1154.646240,1196.164429 
	C1152.673340,1190.599487 1150.872192,1185.519165 1148.992310,1180.216797 
	C1159.534180,1176.423096 1169.610474,1172.796875 1179.968628,1169.069336 
	C1177.530029,1165.640015 1175.525391,1162.820923 1173.490479,1159.959351 
	C1156.152710,1166.138062 1139.170898,1172.189819 1120.856201,1178.716675 
	C1129.639404,1183.059692 1132.053101,1190.515991 1134.585938,1197.959717 
	C1137.208740,1205.668335 1140.036743,1213.307007 1142.780396,1220.974243 
	C1145.232422,1227.826050 1147.691650,1234.675171 1150.225220,1241.741821 
	C1165.695435,1236.228882 1180.723755,1230.918335 1195.691284,1225.441406 
	C1196.722046,1225.064087 1197.842773,1223.511597 1197.978638,1222.391235 
	C1198.309814,1219.661133 1198.086548,1216.863647 1198.086548,1213.292969 
	C1195.141724,1214.313354 1193.149780,1215.003662 1190.388428,1215.935913 
M1220.129761,365.291962 
	C1224.796753,367.851685 1229.417603,370.502594 1234.165527,372.902191 
	C1235.248047,373.449280 1237.163696,373.693481 1238.014160,373.100128 
	C1240.502441,371.363892 1242.646851,369.134644 1245.303711,366.761169 
	C1234.224365,360.707428 1224.331055,355.301727 1214.283447,349.811798 
	C1217.565918,343.784485 1220.626709,338.164001 1223.767944,332.395996 
	C1230.617920,336.101562 1236.887451,339.493103 1243.458130,343.047607 
	C1245.909058,340.516174 1248.321289,338.024719 1251.110596,335.143738 
	C1243.575806,330.966797 1236.238525,326.899353 1228.828247,322.791443 
	C1231.733887,317.613037 1234.403442,312.855133 1237.115967,308.020813 
	C1246.911865,313.368561 1256.298218,318.492676 1266.099731,323.843567 
	C1266.576050,321.695007 1266.691040,320.175690 1267.249268,318.841736 
	C1269.083252,314.458160 1267.637451,312.170776 1263.384644,310.012207 
	C1251.374268,303.916077 1239.652100,297.251556 1227.818237,290.807800 
	C1225.396240,289.489014 1222.981812,288.156555 1219.435059,286.211304 
	C1221.723999,297.113251 1216.706421,304.745087 1212.354492,312.622864 
	C1205.552979,324.935089 1198.855713,337.304962 1191.951538,349.948639 
	C1201.401489,355.108337 1210.432617,360.039307 1220.129761,365.291962 
M1430.680664,475.145233 
	C1430.631714,473.587891 1431.162231,471.652222 1430.434814,470.537689 
	C1426.981689,465.247009 1423.185303,460.180298 1419.511719,455.033447 
	C1413.248169,446.257751 1406.984741,437.481903 1399.954468,427.631622 
	C1397.124634,438.117279 1389.809814,443.504395 1382.225586,448.760132 
	C1371.969238,455.867645 1361.878906,463.214996 1351.731201,470.478912 
	C1350.457642,471.390656 1349.268921,472.420959 1347.968628,473.453644 
	C1357.390625,486.559052 1366.458496,499.302094 1375.753540,511.877075 
	C1376.582886,512.999146 1378.988647,513.663940 1380.485352,513.426331 
	C1383.016357,513.024536 1385.406006,511.731720 1388.130615,510.710114 
	C1381.293213,501.200714 1374.702393,492.034332 1367.902344,482.576904 
	C1373.334717,478.703949 1378.522095,475.005585 1383.948242,471.137054 
	C1386.661987,474.923370 1389.075684,478.286469 1391.484741,481.653015 
	C1397.161621,489.586487 1397.161865,489.590302 1406.228027,485.906555 
	C1406.468994,485.808655 1406.609009,485.462006 1406.966919,485.020782 
	C1402.224121,478.367737 1397.446777,471.666229 1392.585327,464.846771 
	C1397.449951,461.328827 1401.837402,458.155914 1406.324463,454.910950 
	C1412.843140,464.061676 1419.048706,472.773010 1425.513306,481.847870 
	C1427.395386,479.390289 1428.804932,477.549683 1430.680664,475.145233 
M639.730103,1093.973999 
	C633.575073,1092.346313 628.439392,1089.132568 624.520386,1084.084351 
	C617.604980,1075.176514 618.362488,1066.391602 626.756653,1058.939575 
	C630.991516,1055.179932 635.255005,1051.439575 639.686279,1047.917847 
	C645.681580,1043.153320 652.372192,1042.883179 658.673157,1047.133667 
	C665.040344,1051.428955 669.086487,1057.339600 670.171692,1065.069824 
	C670.484924,1067.300537 670.676514,1069.548218 670.988037,1072.369385 
	C673.512634,1070.246582 675.386047,1068.307739 677.597290,1066.899170 
	C680.733948,1064.901367 680.942139,1062.474487 679.812012,1059.272583 
	C676.799988,1050.738647 671.911194,1043.518677 664.999084,1037.716797 
	C643.584534,1019.741943 611.382263,1031.239380 605.666260,1058.728027 
	C601.700317,1077.800903 618.731995,1098.556396 633.651733,1103.500610 
	C634.584351,1103.809692 636.081360,1103.701782 636.803223,1103.135010 
	C639.738770,1100.830444 642.474243,1098.271118 645.796204,1095.355835 
	C643.387817,1094.801392 641.937195,1094.467407 639.730103,1093.973999 
M1307.757935,371.251648 
	C1297.974854,382.335297 1288.191895,393.418945 1278.157593,404.787323 
	C1290.461914,415.714844 1302.498047,426.404266 1314.585327,437.139008 
	C1317.922241,435.004395 1320.958374,433.062286 1324.307495,430.919952 
	C1316.091797,423.566589 1308.304321,416.596466 1300.262817,409.398987 
	C1313.191284,394.800812 1325.949951,380.394531 1338.826294,365.855255 
	C1332.470581,360.211090 1326.542480,354.946716 1319.746582,348.911682 
	C1319.715942,358.987091 1313.834351,364.771362 1307.757935,371.251648 
M527.099792,562.733276 
	C526.322815,562.978516 525.053406,563.011902 524.843018,563.500916 
	C521.846680,570.465942 518.993469,577.492615 516.482056,583.590759 
	C522.330811,584.463135 528.269409,584.394470 533.479919,586.308044 
	C548.142212,591.692810 562.501831,597.900696 576.989929,603.761719 
	C578.613098,604.418396 580.293945,604.932312 582.125732,605.574768 
	C587.174927,593.471069 592.037109,581.818115 596.897278,570.164368 
	C600.867310,560.645081 600.868042,560.642212 592.492493,554.611694 
	C592.244202,554.432983 591.868042,554.431946 591.389648,554.305115 
	C587.385498,564.039673 583.374573,573.790649 579.294495,583.709717 
	C561.713013,576.632446 544.756714,569.806946 527.099792,562.733276 
M705.333008,1168.134644 
	C710.071472,1171.515747 714.809570,1174.897339 719.548645,1178.277710 
	C727.996826,1184.303589 727.997070,1184.303223 735.698792,1176.384888 
	C727.043030,1170.276123 718.423645,1164.192993 709.659058,1158.007446 
	C721.003479,1142.053101 732.058228,1126.505981 743.298035,1110.698608 
	C736.459351,1105.851440 729.918152,1101.215088 722.192017,1095.738770 
	C723.369263,1105.589111 718.701050,1111.801025 714.080322,1118.161499 
	C705.196289,1130.390503 696.554077,1142.795288 687.595337,1155.432129 
	C693.450195,1159.638794 699.091614,1163.692139 705.333008,1168.134644 
M828.836487,1180.370239 
	C831.334778,1174.449097 833.833069,1168.527832 836.452515,1162.319580 
	C828.660950,1159.044312 821.308533,1155.953735 812.701416,1152.335815 
	C815.771057,1161.173706 813.045044,1167.889160 810.064575,1174.696045 
	C803.810791,1188.978516 797.826416,1203.379028 791.547058,1218.165405 
	C797.594238,1220.751831 803.322021,1223.201660 809.402832,1225.802368 
	C815.866516,1210.668457 822.189148,1195.864868 828.836487,1180.370239 
z"/>
<path fill="#3B8DDD" opacity="1.000000" stroke="none" 
	d="
M1211.046997,406.953674 
	C1290.031616,456.054352 1346.042725,523.716980 1378.894043,610.348633 
	C1392.973145,647.476990 1401.025269,685.972778 1403.219482,725.663330 
	C1408.837402,827.284790 1380.739624,918.530640 1318.421387,998.974792 
	C1280.240234,1048.261353 1232.661743,1086.256836 1176.585938,1113.468872 
	C1134.722412,1133.784180 1090.622192,1146.666016 1044.257568,1151.100464 
	C930.164307,1162.012817 828.303772,1131.625244 740.706238,1057.619751 
	C665.756775,994.299805 619.934326,913.385376 603.994202,816.395081 
	C589.910034,730.697693 601.438232,648.130310 641.098389,570.736877 
	C696.422852,462.775879 783.321960,392.705170 900.610046,360.886322 
	C937.993774,350.744537 976.205017,346.871368 1014.854919,348.273376 
	C1085.156494,350.823578 1150.563721,370.113617 1211.046997,406.953674 
M1385.271851,704.160034 
	C1384.581177,699.214111 1383.984863,694.252930 1383.185791,689.324585 
	C1370.590454,611.639648 1337.825195,543.495178 1283.577026,486.645447 
	C1200.899292,400.002502 1099.072021,359.448181 979.259460,364.851624 
	C930.598145,367.046173 884.188232,378.859650 839.993408,399.167664 
	C692.065979,467.141937 603.019714,619.234558 615.736877,781.575806 
	C619.285522,826.875793 630.434814,870.162048 649.273987,911.437927 
	C708.319214,1040.803467 833.743225,1127.437744 975.934814,1136.712158 
	C1022.355042,1139.739990 1068.165039,1135.163208 1112.681519,1121.166748 
	C1222.169067,1086.742554 1302.175293,1017.723328 1351.756104,914.315674 
	C1383.501831,848.105896 1393.660034,777.934265 1385.271851,704.160034 
z"/>
<path fill="#FBFBFC" opacity="1.000000" stroke="none" 
	d="
M1310.127197,1147.943115 
	C1313.691406,1149.276489 1316.881592,1150.503906 1320.756104,1151.994629 
	C1314.420898,1156.430176 1308.816528,1160.525757 1302.989990,1164.276123 
	C1301.933960,1164.955811 1299.822266,1164.602173 1298.445801,1164.076416 
	C1291.147705,1161.287598 1283.991089,1158.118408 1276.644531,1155.472412 
	C1274.418335,1154.670654 1271.742554,1155.116943 1269.272583,1154.991577 
	C1269.077148,1155.567749 1268.881836,1156.143799 1268.686401,1156.719849 
	C1273.476440,1163.618652 1278.266479,1170.517334 1283.341064,1177.825928 
	C1278.133789,1181.490845 1273.004395,1185.100952 1267.526245,1188.956543 
	C1259.546631,1177.412109 1251.716553,1166.086304 1243.889038,1154.758667 
	C1238.614746,1147.125854 1234.135620,1138.677124 1222.514282,1135.829468 
	C1237.619995,1125.848877 1250.874268,1115.706665 1265.381226,1107.888916 
	C1280.471558,1099.756714 1297.170410,1110.702271 1295.702759,1126.774292 
	C1295.286621,1131.332031 1292.647217,1135.686646 1290.814697,1140.718506 
	C1296.580444,1142.885742 1303.166748,1145.361450 1310.127197,1147.943115 
M1278.901123,1132.001587 
	C1276.992554,1128.912476 1275.250366,1125.703125 1273.129517,1122.767212 
	C1270.918457,1119.706299 1267.656738,1118.698364 1264.356812,1120.630737 
	C1259.562988,1123.437866 1255.049683,1126.724121 1250.283081,1129.895020 
	C1252.736084,1133.406494 1254.802734,1136.391602 1256.897949,1139.356689 
	C1258.984375,1142.309326 1261.099365,1145.241821 1263.275391,1148.285889 
	C1267.417480,1145.452026 1271.544434,1143.168579 1274.952271,1140.089111 
	C1276.912842,1138.317505 1277.709106,1135.257324 1278.901123,1132.001587 
z"/>
<path fill="#FAFBFB" opacity="1.000000" stroke="none" 
	d="
M995.790283,248.189850 
	C1004.664490,259.148102 1013.315613,269.829681 1022.868164,281.624146 
	C1022.868164,266.720856 1022.868164,253.210205 1022.868164,239.471710 
	C1027.184448,239.471710 1030.964844,239.471710 1035.179688,239.471710 
	C1035.179688,262.088440 1035.179688,284.777069 1035.179688,308.082092 
	C1030.348877,308.082092 1025.582642,308.286407 1020.854797,307.950012 
	C1019.540527,307.856476 1018.093628,306.361359 1017.125366,305.169739 
	C1006.418762,291.992889 995.797852,278.746429 985.142822,265.527618 
	C984.157104,264.304688 983.096375,263.142303 981.270569,261.023621 
	C981.270569,277.278137 981.270569,292.316956 981.270569,307.666748 
	C976.894226,307.666748 972.978027,307.666748 969.067200,307.666748 
	C965.731506,285.134003 973.697205,261.612946 963.655090,239.011932 
	C971.215576,239.011932 978.958801,238.790802 986.670288,239.187698 
	C988.327820,239.273010 989.994019,241.468689 991.431885,242.915176 
	C992.950012,244.442307 994.200073,246.235977 995.790283,248.189850 
z"/>
<path fill="#FAFBFB" opacity="1.000000" stroke="none" 
	d="
M639.153442,498.137390 
	C629.445679,508.546509 618.014771,513.475037 604.310425,509.523468 
	C590.569336,505.561310 580.451172,496.987762 576.593262,482.689178 
	C571.331116,463.186127 587.477722,439.042389 607.929016,435.328674 
	C627.039429,431.858429 648.531189,448.171021 650.408936,467.809326 
	C651.525513,479.486816 646.731628,489.192413 639.153442,498.137390 
M592.406555,458.025543 
	C586.212341,467.864136 587.443726,474.811340 596.699463,481.603058 
	C601.519104,485.139587 606.330811,488.706299 611.340576,491.959961 
	C619.824524,497.470062 628.120850,495.695862 633.853394,487.413361 
	C639.469727,479.298706 638.230469,471.234711 630.222107,465.172241 
	C625.191833,461.364227 620.044922,457.695923 614.802246,454.186127 
	C606.520325,448.641693 599.588684,449.752411 592.406555,458.025543 
z"/>
<path fill="#FAFAFB" opacity="1.000000" stroke="none" 
	d="
M1133.028564,327.902710 
	C1124.560059,325.880127 1116.042114,324.984436 1108.659668,321.606659 
	C1092.258911,314.102661 1085.805420,298.888947 1090.155029,281.360565 
	C1094.521484,263.764526 1107.229004,253.739792 1125.175903,253.997787 
	C1135.572998,254.147247 1145.131714,257.214264 1153.858765,262.943939 
	C1157.151611,265.105896 1158.947266,267.430634 1157.047607,271.552643 
	C1156.022705,273.776550 1155.665771,276.308319 1154.773193,279.552246 
	C1149.065918,270.942383 1141.311768,266.778473 1131.904053,265.506042 
	C1123.176514,264.325623 1116.361694,268.319458 1113.711060,276.741821 
	C1111.616333,283.397980 1109.760864,290.175049 1108.455200,297.023529 
	C1106.394409,307.832642 1118.658203,319.084839 1129.365601,316.425140 
	C1130.320801,316.187897 1131.368286,314.794617 1131.675903,313.735718 
	C1133.247314,308.327576 1134.589722,302.852905 1136.110596,297.025085 
	C1132.227295,295.872223 1128.489868,294.762695 1124.817749,293.672485 
	C1124.851440,293.230591 1124.815430,293.040558 1124.883667,292.901764 
	C1129.248413,284.031128 1129.246704,284.040588 1138.851807,286.629974 
	C1145.105835,288.315979 1151.368164,289.970612 1158.161743,291.781952 
	C1155.343018,302.564911 1152.658447,313.143250 1149.705322,323.646057 
	C1149.414673,324.679443 1147.564575,325.697479 1146.284790,325.952118 
	C1142.059082,326.792999 1137.763184,327.280304 1133.028564,327.902710 
z"/>
<path fill="#FAFBFB" opacity="1.000000" stroke="none" 
	d="
M1015.889404,1251.282104 
	C1014.872925,1238.867188 1014.300964,1226.856323 1012.712341,1214.981445 
	C1011.818909,1208.302979 1009.247009,1201.849121 1007.305664,1194.840698 
	C1021.239014,1193.902100 1036.274048,1192.260986 1051.328491,1192.057251 
	C1065.497070,1191.865479 1074.336914,1200.688354 1075.092529,1213.826416 
	C1075.915771,1228.138428 1068.289795,1237.740601 1053.968872,1239.937866 
	C1047.744263,1240.892944 1041.421387,1241.207642 1034.589722,1241.866577 
	C1035.114868,1248.622437 1035.623901,1255.171143 1036.154419,1261.997437 
	C1029.669922,1262.600830 1023.596985,1263.165894 1016.950378,1263.784302 
	C1016.587646,1259.591064 1016.248230,1255.667114 1015.889404,1251.282104 
M1038.234375,1230.738892 
	C1041.209961,1230.430054 1044.215576,1230.291260 1047.154175,1229.773071 
	C1051.702148,1228.970947 1055.303955,1226.477783 1054.840332,1221.545410 
	C1054.226318,1215.013428 1057.058960,1207.054688 1048.691528,1203.056274 
	C1047.822144,1202.640747 1046.733643,1202.438599 1045.771729,1202.504028 
	C1041.182617,1202.816406 1036.602051,1203.255249 1031.597656,1203.685303 
	C1032.337769,1212.325073 1033.145874,1220.399292 1033.661133,1228.492065 
	C1033.847778,1231.423462 1035.488037,1231.055908 1038.234375,1230.738892 
z"/>
<path fill="#FAFBFB" opacity="1.000000" stroke="none" 
	d="
M915.726868,1235.152100 
	C912.053711,1234.568604 908.812195,1234.052856 905.295837,1233.493408 
	C904.087280,1240.192261 902.945496,1246.521118 901.722900,1253.298218 
	C895.411743,1252.159058 889.406250,1251.075195 883.404602,1249.991943 
	C884.118896,1226.894897 895.542358,1204.951294 890.204102,1180.742920 
	C905.087463,1183.646118 920.256897,1185.814087 934.971436,1189.703247 
	C948.993164,1193.409180 954.624878,1204.471802 951.384155,1218.255737 
	C948.316956,1231.301758 937.966003,1238.234863 924.042847,1236.512085 
	C921.401917,1236.185181 918.785950,1235.655762 915.726868,1235.152100 
M911.023621,1200.568604 
	C909.718933,1207.858032 908.414246,1215.147583 907.072388,1222.644775 
	C911.080200,1223.463867 914.621277,1224.311768 918.205322,1224.894653 
	C926.245239,1226.202271 929.539795,1223.762573 930.950684,1215.617798 
	C931.404236,1212.999390 931.940063,1210.381592 932.167419,1207.740234 
	C932.622803,1202.450684 930.647400,1199.374268 925.610474,1198.112183 
	C921.301331,1197.032471 916.860962,1196.476440 912.169983,1195.633301 
	C911.770325,1197.203613 911.451355,1198.456787 911.023621,1200.568604 
z"/>
<path fill="#FAFBFB" opacity="1.000000" stroke="none" 
	d="
M908.095276,316.925537 
	C903.458435,319.129272 900.230469,318.307129 897.884705,313.952301 
	C896.873108,312.074249 895.476807,310.283478 893.877136,308.885803 
	C892.866760,308.003021 890.992126,307.274261 889.787598,307.582031 
	C880.770264,309.886017 871.792419,312.364105 862.888062,315.070129 
	C861.573608,315.469574 860.636780,317.301239 859.678162,318.584564 
	C859.321838,319.061584 859.387329,319.864014 859.289734,320.522369 
	C857.687195,331.330505 857.688293,331.330658 845.919006,333.825623 
	C847.102722,324.958282 848.247253,316.268433 849.425964,307.583160 
	C850.857910,297.032684 852.272522,286.479492 853.786255,275.940643 
	C854.559387,270.558136 852.824463,266.125977 848.267517,261.781158 
	C857.300293,259.289795 865.674194,256.936829 874.089233,254.741058 
	C874.764648,254.564819 875.992310,255.255844 876.509766,255.905289 
	C891.523315,274.746521 906.478943,293.633820 921.844543,313.019104 
	C917.013550,314.400604 912.747009,315.620697 908.095276,316.925537 
M863.676819,285.114105 
	C862.859375,291.308014 862.041931,297.501953 861.121094,304.479004 
	C869.286072,302.224915 876.836304,300.140533 884.984070,297.891174 
	C878.343567,289.536316 872.090088,281.668365 865.165222,272.955688 
	C864.585693,277.665039 864.181274,280.951080 863.676819,285.114105 
z"/>
<path fill="#FAFAFB" opacity="1.000000" stroke="none" 
	d="
M687.351929,360.045929 
	C682.399597,363.657501 677.384521,366.729645 673.437012,370.829681 
	C671.765381,372.565948 671.157104,376.981567 672.159302,379.257477 
	C673.755127,382.881409 677.728088,382.128235 680.974548,380.783142 
	C687.577942,378.047180 694.032471,374.923889 700.726562,372.440765 
	C711.710876,368.366364 720.409119,370.759308 726.051514,378.935608 
	C731.059631,386.192810 730.754211,393.861176 726.696960,401.134644 
	C719.193848,414.585480 707.420349,422.895203 692.759949,427.102448 
	C691.313232,427.517639 688.934875,426.688934 687.753235,425.604645 
	C685.360535,423.408966 683.492065,420.641876 680.779419,417.347717 
	C690.056641,417.373993 697.671875,414.935760 704.210938,409.809479 
	C707.061584,407.574738 709.707947,404.957367 711.976624,402.135559 
	C714.402527,399.118164 715.413513,395.577850 712.555847,392.095978 
	C709.859619,388.810760 706.404663,389.147522 702.994263,390.538422 
	C698.225098,392.483490 693.597656,394.776459 688.825195,396.712524 
	C685.604614,398.019012 682.315002,399.391205 678.924377,400.001038 
	C664.625061,402.572937 653.446594,390.454559 657.797119,376.526031 
	C662.626404,361.064728 674.469543,352.623596 689.415039,348.089386 
	C690.496216,347.761353 692.366577,348.450287 693.234436,349.308899 
	C695.572937,351.622406 697.567444,354.283630 699.858337,356.996124 
	C695.553223,358.033997 691.637085,358.978088 687.351929,360.045929 
z"/>
<path fill="#FAFAFB" opacity="1.000000" stroke="none" 
	d="
M1432.286621,602.903748 
	C1419.690796,600.838013 1413.170044,592.115662 1409.182861,581.810791 
	C1406.299072,574.357910 1405.585083,566.053894 1404.025391,558.105469 
	C1403.291382,554.365601 1405.140869,552.259216 1408.712402,551.203186 
	C1411.240356,550.455750 1413.642334,549.281982 1416.781982,548.025879 
	C1416.368652,550.071167 1416.080688,551.589417 1415.753662,553.099243 
	C1413.594116,563.068359 1415.607910,572.284180 1420.969727,580.801147 
	C1423.301636,584.505371 1426.406738,587.577698 1431.249878,585.722900 
	C1435.841064,583.964539 1435.976196,579.813721 1435.611816,575.616333 
	C1435.006958,568.650146 1434.177124,561.683533 1434.017944,554.703918 
	C1433.840210,546.914307 1436.320435,540.113037 1444.017578,536.639160 
	C1451.951538,533.058350 1459.507446,534.387146 1465.841675,540.137085 
	C1476.489624,549.803040 1480.856323,562.253845 1480.362915,576.436157 
	C1480.315796,577.789246 1478.781250,579.551208 1477.467896,580.301331 
	C1474.912842,581.760559 1472.024536,582.636230 1469.013916,583.859436 
	C1469.013916,577.548218 1469.612671,571.447266 1468.803589,565.539062 
	C1468.263916,561.598083 1466.284302,557.506897 1463.870483,554.293091 
	C1462.282959,552.179626 1458.280029,549.973816 1456.265503,550.622986 
	C1454.244873,551.274170 1452.279419,555.377319 1452.180542,558.037842 
	C1451.965332,563.819275 1453.029785,569.640381 1453.420288,575.455444 
	C1453.620117,578.433228 1453.819336,581.472534 1453.459473,584.415649 
	C1451.988525,596.448792 1444.888794,602.682983 1432.286621,602.903748 
z"/>
<path fill="#FAFAFB" opacity="1.000000" stroke="none" 
	d="
M1373.145996,1044.960938 
	C1381.309082,1041.608643 1388.517944,1042.338257 1394.801758,1048.236206 
	C1401.192017,1054.234009 1402.611938,1061.700928 1400.011475,1069.757812 
	C1395.171631,1084.751831 1384.662476,1094.745850 1370.706177,1101.327515 
	C1369.432983,1101.927856 1367.106567,1101.554321 1365.875122,1100.729126 
	C1363.048584,1098.835083 1360.596191,1096.382690 1357.292114,1093.558960 
	C1367.448975,1091.858643 1375.134155,1087.549927 1381.148804,1080.568970 
	C1383.284790,1078.089722 1385.525269,1075.246216 1386.315186,1072.204590 
	C1386.951538,1069.754639 1386.214233,1066.250610 1384.758179,1064.123535 
	C1382.752075,1061.192871 1379.187256,1061.398560 1376.189209,1063.218994 
	C1371.642944,1065.979492 1367.264526,1069.015015 1362.740356,1071.813599 
	C1360.061523,1073.470581 1357.333740,1075.107910 1354.463379,1076.383667 
	C1347.633911,1079.418823 1340.891235,1079.704590 1334.756836,1074.664062 
	C1328.433350,1069.468018 1326.426880,1062.465210 1328.342529,1054.880005 
	C1331.954712,1040.575928 1341.434937,1030.890869 1354.468018,1024.561401 
	C1355.583130,1024.019775 1357.720093,1024.473145 1358.829224,1025.252197 
	C1361.385864,1027.047852 1363.601807,1029.328491 1365.940063,1031.398193 
	C1361.483521,1033.430298 1356.673828,1034.686035 1353.086426,1037.499878 
	C1348.749390,1040.901855 1345.170898,1045.413696 1341.803223,1049.854126 
	C1339.850830,1052.428223 1339.167236,1056.421509 1342.352661,1058.316162 
	C1344.399292,1059.533691 1348.290649,1059.445557 1350.486816,1058.290894 
	C1358.120728,1054.277710 1365.375610,1049.543213 1373.145996,1044.960938 
z"/>
<path fill="#FAFAFB" opacity="1.000000" stroke="none" 
	d="
M1190.773071,1215.814941 
	C1193.149780,1215.003662 1195.141724,1214.313354 1198.086548,1213.292969 
	C1198.086548,1216.863647 1198.309814,1219.661133 1197.978638,1222.391235 
	C1197.842773,1223.511597 1196.722046,1225.064087 1195.691284,1225.441406 
	C1180.723755,1230.918335 1165.695435,1236.228882 1150.225220,1241.741821 
	C1147.691650,1234.675171 1145.232422,1227.826050 1142.780396,1220.974243 
	C1140.036743,1213.307007 1137.208740,1205.668335 1134.585938,1197.959717 
	C1132.053101,1190.515991 1129.639404,1183.059692 1120.856201,1178.716675 
	C1139.170898,1172.189819 1156.152710,1166.138062 1173.490479,1159.959351 
	C1175.525391,1162.820923 1177.530029,1165.640015 1179.968628,1169.069336 
	C1169.610474,1172.796875 1159.534180,1176.423096 1148.992310,1180.216797 
	C1150.872192,1185.519165 1152.673340,1190.599487 1154.646240,1196.164429 
	C1162.544922,1193.418823 1170.285278,1190.728149 1178.516235,1187.866943 
	C1178.780762,1191.799683 1179.010254,1195.212158 1179.248779,1198.759888 
	C1172.266479,1201.282349 1165.567017,1203.702759 1158.286743,1206.333008 
	C1160.456665,1212.511841 1162.564209,1218.513550 1164.819458,1224.935303 
	C1173.582764,1221.850952 1181.985596,1218.893433 1190.773071,1215.814941 
z"/>
<path fill="#FAFAFB" opacity="1.000000" stroke="none" 
	d="
M1219.796753,365.131104 
	C1210.432617,360.039307 1201.401489,355.108337 1191.951538,349.948639 
	C1198.855713,337.304962 1205.552979,324.935089 1212.354492,312.622864 
	C1216.706421,304.745087 1221.723999,297.113251 1219.435059,286.211304 
	C1222.981812,288.156555 1225.396240,289.489014 1227.818237,290.807800 
	C1239.652100,297.251556 1251.374268,303.916077 1263.384644,310.012207 
	C1267.637451,312.170776 1269.083252,314.458160 1267.249268,318.841736 
	C1266.691040,320.175690 1266.576050,321.695007 1266.099731,323.843567 
	C1256.298218,318.492676 1246.911865,313.368561 1237.115967,308.020813 
	C1234.403442,312.855133 1231.733887,317.613037 1228.828247,322.791443 
	C1236.238525,326.899353 1243.575806,330.966797 1251.110596,335.143738 
	C1248.321289,338.024719 1245.909058,340.516174 1243.458130,343.047607 
	C1236.887451,339.493103 1230.617920,336.101562 1223.767944,332.395996 
	C1220.626709,338.164001 1217.565918,343.784485 1214.283447,349.811798 
	C1224.331055,355.301727 1234.224365,360.707428 1245.303711,366.761169 
	C1242.646851,369.134644 1240.502441,371.363892 1238.014160,373.100128 
	C1237.163696,373.693481 1235.248047,373.449280 1234.165527,372.902191 
	C1229.417603,370.502594 1224.796753,367.851685 1219.796753,365.131104 
z"/>
<path fill="#FAFBFB" opacity="1.000000" stroke="none" 
	d="
M1430.447510,475.427155 
	C1428.804932,477.549683 1427.395386,479.390289 1425.513306,481.847870 
	C1419.048706,472.773010 1412.843140,464.061676 1406.324463,454.910950 
	C1401.837402,458.155914 1397.449951,461.328827 1392.585327,464.846771 
	C1397.446777,471.666229 1402.224121,478.367737 1406.966919,485.020782 
	C1406.609009,485.462006 1406.468994,485.808655 1406.228027,485.906555 
	C1397.161865,489.590302 1397.161621,489.586487 1391.484741,481.653015 
	C1389.075684,478.286469 1386.661987,474.923370 1383.948242,471.137054 
	C1378.522095,475.005585 1373.334717,478.703949 1367.902344,482.576904 
	C1374.702393,492.034332 1381.293213,501.200714 1388.130615,510.710114 
	C1385.406006,511.731720 1383.016357,513.024536 1380.485352,513.426331 
	C1378.988647,513.663940 1376.582886,512.999146 1375.753540,511.877075 
	C1366.458496,499.302094 1357.390625,486.559052 1347.968628,473.453644 
	C1349.268921,472.420959 1350.457642,471.390656 1351.731201,470.478912 
	C1361.878906,463.214996 1371.969238,455.867645 1382.225586,448.760132 
	C1389.809814,443.504395 1397.124634,438.117279 1399.954468,427.631622 
	C1406.984741,437.481903 1413.248169,446.257751 1419.511719,455.033447 
	C1423.185303,460.180298 1426.981689,465.247009 1430.434814,470.537689 
	C1431.162231,471.652222 1430.631714,473.587891 1430.447510,475.427155 
z"/>
<path fill="#FAFAFB" opacity="1.000000" stroke="none" 
	d="
M640.108398,1094.053711 
	C641.937195,1094.467407 643.387817,1094.801392 645.796204,1095.355835 
	C642.474243,1098.271118 639.738770,1100.830444 636.803223,1103.135010 
	C636.081360,1103.701782 634.584351,1103.809692 633.651733,1103.500610 
	C618.731995,1098.556396 601.700317,1077.800903 605.666260,1058.728027 
	C611.382263,1031.239380 643.584534,1019.741943 664.999084,1037.716797 
	C671.911194,1043.518677 676.799988,1050.738647 679.812012,1059.272583 
	C680.942139,1062.474487 680.733948,1064.901367 677.597290,1066.899170 
	C675.386047,1068.307739 673.512634,1070.246582 670.988037,1072.369385 
	C670.676514,1069.548218 670.484924,1067.300537 670.171692,1065.069824 
	C669.086487,1057.339600 665.040344,1051.428955 658.673157,1047.133667 
	C652.372192,1042.883179 645.681580,1043.153320 639.686279,1047.917847 
	C635.255005,1051.439575 630.991516,1055.179932 626.756653,1058.939575 
	C618.362488,1066.391602 617.604980,1075.176514 624.520386,1084.084351 
	C628.439392,1089.132568 633.575073,1092.346313 640.108398,1094.053711 
z"/>
<path fill="#FAFBFB" opacity="1.000000" stroke="none" 
	d="
M1307.989502,370.982025 
	C1313.834351,364.771362 1319.715942,358.987091 1319.746582,348.911682 
	C1326.542480,354.946716 1332.470581,360.211090 1338.826294,365.855255 
	C1325.949951,380.394531 1313.191284,394.800812 1300.262817,409.398987 
	C1308.304321,416.596466 1316.091797,423.566589 1324.307495,430.919952 
	C1320.958374,433.062286 1317.922241,435.004395 1314.585327,437.139008 
	C1302.498047,426.404266 1290.461914,415.714844 1278.157593,404.787323 
	C1288.191895,393.418945 1297.974854,382.335297 1307.989502,370.982025 
z"/>
<path fill="#FAFAFB" opacity="1.000000" stroke="none" 
	d="
M527.450134,562.857300 
	C544.756714,569.806946 561.713013,576.632446 579.294495,583.709717 
	C583.374573,573.790649 587.385498,564.039673 591.389648,554.305115 
	C591.868042,554.431946 592.244202,554.432983 592.492493,554.611694 
	C600.868042,560.642212 600.867310,560.645081 596.897278,570.164368 
	C592.037109,581.818115 587.174927,593.471069 582.125732,605.574768 
	C580.293945,604.932312 578.613098,604.418396 576.989929,603.761719 
	C562.501831,597.900696 548.142212,591.692810 533.479919,586.308044 
	C528.269409,584.394470 522.330811,584.463135 516.482056,583.590759 
	C518.993469,577.492615 521.846680,570.465942 524.843018,563.500916 
	C525.053406,563.011902 526.322815,562.978516 527.450134,562.857300 
z"/>
<path fill="#FAFBFB" opacity="1.000000" stroke="none" 
	d="
M705.033020,1167.940063 
	C699.091614,1163.692139 693.450195,1159.638794 687.595337,1155.432129 
	C696.554077,1142.795288 705.196289,1130.390503 714.080322,1118.161499 
	C718.701050,1111.801025 723.369263,1105.589111 722.192017,1095.738770 
	C729.918152,1101.215088 736.459351,1105.851440 743.298035,1110.698608 
	C732.058228,1126.505981 721.003479,1142.053101 709.659058,1158.007446 
	C718.423645,1164.192993 727.043030,1170.276123 735.698792,1176.384888 
	C727.997070,1184.303223 727.996826,1184.303589 719.548645,1178.277710 
	C714.809570,1174.897339 710.071472,1171.515747 705.033020,1167.940063 
z"/>
<path fill="#FBFBFC" opacity="1.000000" stroke="none" 
	d="
M828.674072,1180.715820 
	C822.189148,1195.864868 815.866516,1210.668457 809.402832,1225.802368 
	C803.322021,1223.201660 797.594238,1220.751831 791.547058,1218.165405 
	C797.826416,1203.379028 803.810791,1188.978516 810.064575,1174.696045 
	C813.045044,1167.889160 815.771057,1161.173706 812.701416,1152.335815 
	C821.308533,1155.953735 828.660950,1159.044312 836.452515,1162.319580 
	C833.833069,1168.527832 831.334778,1174.449097 828.674072,1180.715820 
z"/>
<path fill="#FDFEFE" opacity="1.000000" stroke="none" 
	d="
M1385.358643,704.603271 
	C1393.660034,777.934265 1383.501831,848.105896 1351.756104,914.315674 
	C1302.175293,1017.723328 1222.169067,1086.742554 1112.681519,1121.166748 
	C1068.165039,1135.163208 1022.355042,1139.739990 975.934814,1136.712158 
	C833.743225,1127.437744 708.319214,1040.803467 649.273987,911.437927 
	C630.434814,870.162048 619.285522,826.875793 615.736877,781.575806 
	C603.019714,619.234558 692.065979,467.141937 839.993408,399.167664 
	C884.188232,378.859650 930.598145,367.046173 979.259460,364.851624 
	C1099.072021,359.448181 1200.899292,400.002502 1283.577026,486.645447 
	C1337.825195,543.495178 1370.590454,611.639648 1383.185791,689.324585 
	C1383.984863,694.252930 1384.581177,699.214111 1385.358643,704.603271 
M842.346802,737.165161 
	C856.670898,741.151550 870.994995,745.137939 885.319153,749.124329 
	C885.202026,749.695801 885.084961,750.267212 884.967896,750.838623 
	C814.116943,750.838623 743.266052,750.838623 672.426147,750.838623 
	C669.487976,934.067932 826.267029,1083.670166 1001.214966,1079.697388 
	C1001.214966,1077.748169 1001.215027,1075.785278 1001.215027,1073.822266 
	C1001.215027,951.500671 1001.214905,829.179138 1001.215454,706.857544 
	C1001.215454,705.357727 1001.057434,703.831543 1001.290588,702.368286 
	C1001.423706,701.532654 1002.199890,700.799561 1003.442566,698.809753 
	C1012.478210,791.252136 1021.361145,882.132935 1030.282715,973.408203 
	C1031.986328,972.832703 1033.071899,972.490173 1034.140625,972.101379 
	C1056.655518,963.913757 1079.072510,955.439575 1101.743408,947.709717 
	C1108.087402,945.546570 1110.405151,942.060120 1110.161621,934.840454 
	C1103.953369,934.840454 1097.666626,935.201660 1091.435181,934.767090 
	C1077.422974,933.789978 1063.584351,931.806458 1051.113647,924.619751 
	C1036.388062,916.133545 1031.248413,902.028992 1037.558716,886.208130 
	C1039.759888,880.689514 1042.411987,875.082825 1046.053223,870.457214 
	C1056.652954,856.991882 1067.484741,843.669067 1078.909424,830.902466 
	C1097.232300,810.427551 1116.659668,790.915222 1131.909912,767.855347 
	C1132.503052,766.958496 1134.372314,766.200989 1135.412964,766.432129 
	C1139.059570,767.242004 1142.603760,768.513489 1146.713745,769.770874 
	C1145.115967,772.172607 1143.962036,774.171570 1142.558594,775.976440 
	C1126.917114,796.092285 1111.024414,816.016968 1095.639893,836.326904 
	C1084.792358,850.647400 1074.583740,865.453735 1064.189819,880.114014 
	C1062.748047,882.147400 1061.881104,884.588318 1060.371704,887.588562 
	C1089.937012,885.002075 1116.582886,876.971497 1141.017334,862.004211 
	C1142.209961,861.273560 1143.117310,859.913635 1143.885620,858.677734 
	C1158.125488,835.773865 1172.385986,812.882263 1186.452148,789.871948 
	C1188.200439,787.012085 1190.220093,785.683472 1193.407837,785.194153 
	C1226.159668,780.166626 1258.897583,775.048645 1291.638306,769.947998 
	C1304.417603,767.957092 1317.193604,765.945984 1329.908691,763.953796 
	C1329.908691,759.384827 1329.908691,755.315308 1329.908691,750.580261 
	C1258.970703,750.580261 1188.337402,750.580261 1117.703979,750.580261 
	C1117.625610,750.084045 1117.547119,749.587830 1117.468750,749.091614 
	C1137.648682,743.477173 1157.828735,737.862732 1178.008789,732.248230 
	C1178.110474,731.756470 1178.212158,731.264709 1178.313843,730.772949 
	C1175.485962,729.388306 1172.710083,727.883118 1169.822388,726.637085 
	C1126.400635,707.900452 1082.661133,689.997375 1036.309692,679.661926 
	C1019.854187,675.992798 1003.640015,672.046387 986.119019,675.367432 
	C931.083069,685.799377 879.172241,705.214600 828.274231,727.853455 
	C826.751587,728.530701 825.593872,730.028564 823.322510,731.936340 
	C830.418457,733.903442 835.983765,735.446228 842.346802,737.165161 
M927.862488,500.343964 
	C942.411316,497.080200 956.960144,493.816406 971.924683,490.459381 
	C975.567749,504.314453 978.880310,516.912537 982.368958,530.180298 
	C970.402588,530.180298 959.173706,530.180298 947.537842,530.180298 
	C948.432190,545.792419 940.379333,555.890808 927.807434,563.341370 
	C928.066956,563.693787 928.326416,564.046204 928.585938,564.398621 
	C949.267334,563.790588 969.948669,563.182556 990.775452,562.570190 
	C992.249756,568.425720 993.601440,573.794250 995.052490,579.557617 
	C992.518982,579.557617 990.695984,579.557617 988.872986,579.557617 
	C963.545776,579.557617 938.218445,579.595154 912.891541,579.510864 
	C909.677185,579.500122 908.110962,579.901855 908.367432,583.866882 
	C908.901733,592.127747 905.814331,599.560730 899.742371,604.907410 
	C893.816895,610.125061 886.846313,614.153625 880.352478,618.729736 
	C879.021545,619.667603 877.770081,620.718201 876.481995,621.716858 
	C876.744446,622.219421 877.006836,622.721985 877.269287,623.224487 
	C960.219971,619.228455 1043.179810,619.334717 1126.384155,622.337585 
	C1125.300415,620.504639 1123.993164,619.518616 1122.638916,618.601685 
	C1116.737305,614.605835 1110.373291,611.148132 1105.026001,606.515381 
	C1098.408325,600.782166 1094.328857,593.191223 1094.836670,584.084839 
	C1095.067261,579.950378 1093.404541,579.483643 1089.962158,579.498108 
	C1064.135498,579.606873 1038.307495,579.649902 1012.481873,579.456604 
	C1008.666626,579.428101 1007.273071,580.686157 1006.565491,584.232422 
	C1005.652466,588.807922 1004.122620,593.260437 1002.858459,597.765869 
	C1002.391846,597.691833 1001.925293,597.617798 1001.458740,597.543762 
	C1001.458740,539.053284 1001.458740,480.562775 1001.458740,422.087189 
	C826.397583,419.156342 676.334656,564.908264 672.713501,737.285583 
	C673.167603,737.356323 673.653503,737.552551 674.098816,737.484192 
	C695.491150,734.201782 716.874512,730.860046 738.276184,727.639709 
	C740.940857,727.238770 741.758789,726.074707 741.963501,723.457153 
	C742.352295,718.486145 742.961548,713.501282 743.928223,708.611023 
	C764.651550,603.772705 825.903687,534.598511 927.862488,500.343964 
M1310.815552,865.153564 
	C1310.259888,862.762390 1309.529663,860.395874 1309.186279,857.974609 
	C1308.547852,853.472717 1306.141968,852.386292 1301.697021,852.424622 
	C1274.699585,852.657593 1247.699097,852.539612 1220.699707,852.541809 
	C1214.315308,852.542358 1212.892212,854.412720 1214.846680,860.336548 
	C1217.453369,868.237305 1220.270752,876.074158 1222.628052,884.047668 
	C1223.190186,885.948853 1222.998169,888.742432 1221.956909,890.351379 
	C1185.104248,947.297424 1134.023315,985.052185 1068.534546,1002.845825 
	C1054.783325,1006.582153 1040.553955,1008.558777 1026.032593,1011.448181 
	C1022.593628,1033.695923 1019.056152,1056.581421 1015.489868,1079.653198 
	C1145.711792,1074.619507 1263.365845,991.650574 1310.815552,865.153564 
M1149.535889,535.941467 
	C1178.271484,555.795959 1201.983521,580.487183 1220.996948,609.776123 
	C1223.045410,612.931702 1223.335815,615.560242 1222.065430,619.003662 
	C1219.303589,626.490662 1216.876709,634.103455 1214.413574,641.697388 
	C1212.721802,646.913269 1214.381226,649.128906 1219.827271,649.131714 
	C1238.486572,649.141296 1257.145752,649.135071 1275.805054,649.135010 
	C1286.119141,649.134949 1296.433228,649.135010 1306.319580,649.135010 
	C1310.713257,642.123474 1310.742798,635.576843 1307.154907,628.528198 
	C1302.708984,619.793640 1299.488525,610.419434 1294.841797,601.805420 
	C1238.511108,497.381256 1151.556274,437.632690 1033.617676,423.352875 
	C1027.448975,422.605988 1021.203125,422.496613 1014.547485,422.061279 
	C1018.200867,445.556335 1021.726868,468.232086 1025.311890,491.287231 
	C1070.343628,495.441101 1111.609375,510.055023 1149.535889,535.941467 
M1135.510254,654.868103 
	C1134.621948,650.812439 1133.313477,646.792603 1132.964355,642.691040 
	C1132.619263,638.635681 1131.087158,637.541077 1127.081665,637.553528 
	C1081.594727,637.694702 1036.107422,637.643494 990.620117,637.643555 
	C952.630737,637.643616 914.641052,637.721802 876.652527,637.542297 
	C872.018860,637.520386 870.108398,638.319885 869.496948,643.507141 
	C868.768982,649.683838 866.777039,655.870789 864.384155,661.661255 
	C857.799194,677.596863 847.155945,690.815491 835.326355,703.152283 
	C833.796448,704.747803 832.480591,706.548462 831.065491,708.254089 
	C831.320007,708.589478 831.574524,708.924866 831.829041,709.260254 
	C837.292480,707.017395 842.777954,704.826355 848.215942,702.523499 
	C890.612488,684.569519 933.985352,669.722900 979.429199,661.566833 
	C987.422424,660.132141 995.705994,657.792908 1003.557373,658.638733 
	C1017.899658,660.183716 1032.127686,663.333862 1046.210938,666.635315 
	C1087.669800,676.354309 1127.107422,691.990662 1166.234131,708.466797 
	C1167.802002,709.127075 1169.396362,709.724792 1170.978394,710.351624 
	C1171.421631,709.896057 1171.864868,709.440491 1172.308105,708.984924 
	C1157.617676,692.844849 1142.932983,676.701111 1135.510254,654.868103 
M1018.833618,537.255737 
	C1016.672424,545.529541 1014.511292,553.803406 1012.230652,562.534424 
	C1033.531250,563.174805 1054.078735,563.792542 1075.879761,564.447937 
	C1060.644287,552.257690 1060.644287,552.257690 1054.750000,530.111145 
	C1045.564697,530.111145 1036.251709,530.498474 1026.992310,529.961243 
	C1021.705200,529.654480 1019.306580,531.368652 1018.833618,537.255737 
M1087.821045,916.709473 
	C1095.580078,917.691345 1103.327148,918.797791 1111.108276,919.552246 
	C1112.707642,919.707275 1115.467163,919.002380 1115.942871,917.923035 
	C1120.664673,907.209717 1125.018311,896.334106 1129.667725,885.039124 
	C1107.179810,894.781372 1084.108765,901.337891 1060.046387,904.877502 
	C1064.093872,910.703979 1070.334717,913.341736 1087.821045,916.709473 
z"/>
<path fill="#0E2543" opacity="1.000000" stroke="none" 
	d="
M1278.965332,1132.389404 
	C1277.709106,1135.257324 1276.912842,1138.317505 1274.952271,1140.089111 
	C1271.544434,1143.168579 1267.417480,1145.452026 1263.275391,1148.285889 
	C1261.099365,1145.241821 1258.984375,1142.309326 1256.897949,1139.356689 
	C1254.802734,1136.391602 1252.736084,1133.406494 1250.283081,1129.895020 
	C1255.049683,1126.724121 1259.562988,1123.437866 1264.356812,1120.630737 
	C1267.656738,1118.698364 1270.918457,1119.706299 1273.129517,1122.767212 
	C1275.250366,1125.703125 1276.992554,1128.912476 1278.965332,1132.389404 
z"/>
<path fill="#0C2441" opacity="1.000000" stroke="none" 
	d="
M592.638855,457.738281 
	C599.588684,449.752411 606.520325,448.641693 614.802246,454.186127 
	C620.044922,457.695923 625.191833,461.364227 630.222107,465.172241 
	C638.230469,471.234711 639.469727,479.298706 633.853394,487.413361 
	C628.120850,495.695862 619.824524,497.470062 611.340576,491.959961 
	C606.330811,488.706299 601.519104,485.139587 596.699463,481.603058 
	C587.443726,474.811340 586.212341,467.864136 592.638855,457.738281 
z"/>
<path fill="#0E2543" opacity="1.000000" stroke="none" 
	d="
M1037.791016,1230.781494 
	C1035.488037,1231.055908 1033.847778,1231.423462 1033.661133,1228.492065 
	C1033.145874,1220.399292 1032.337769,1212.325073 1031.597656,1203.685303 
	C1036.602051,1203.255249 1041.182617,1202.816406 1045.771729,1202.504028 
	C1046.733643,1202.438599 1047.822144,1202.640747 1048.691528,1203.056274 
	C1057.058960,1207.054688 1054.226318,1215.013428 1054.840332,1221.545410 
	C1055.303955,1226.477783 1051.702148,1228.970947 1047.154175,1229.773071 
	C1044.215576,1230.291260 1041.209961,1230.430054 1037.791016,1230.781494 
z"/>
<path fill="#0E2543" opacity="1.000000" stroke="none" 
	d="
M911.078003,1200.139282 
	C911.451355,1198.456787 911.770325,1197.203613 912.169983,1195.633301 
	C916.860962,1196.476440 921.301331,1197.032471 925.610474,1198.112183 
	C930.647400,1199.374268 932.622803,1202.450684 932.167419,1207.740234 
	C931.940063,1210.381592 931.404236,1212.999390 930.950684,1215.617798 
	C929.539795,1223.762573 926.245239,1226.202271 918.205322,1224.894653 
	C914.621277,1224.311768 911.080200,1223.463867 907.072388,1222.644775 
	C908.414246,1215.147583 909.718933,1207.858032 911.078003,1200.139282 
z"/>
<path fill="#102845" opacity="1.000000" stroke="none" 
	d="
M863.726868,284.675598 
	C864.181274,280.951080 864.585693,277.665039 865.165222,272.955688 
	C872.090088,281.668365 878.343567,289.536316 884.984070,297.891174 
	C876.836304,300.140533 869.286072,302.224915 861.121094,304.479004 
	C862.041931,297.501953 862.859375,291.308014 863.726868,284.675598 
z"/>
<path fill="#0B2341" opacity="1.000000" stroke="none" 
	d="
M841.947937,737.077087 
	C835.983765,735.446228 830.418457,733.903442 823.322510,731.936340 
	C825.593872,730.028564 826.751587,728.530701 828.274231,727.853455 
	C879.172241,705.214600 931.083069,685.799377 986.119019,675.367432 
	C1003.640015,672.046387 1019.854187,675.992798 1036.309692,679.661926 
	C1082.661133,689.997375 1126.400635,707.900452 1169.822388,726.637085 
	C1172.710083,727.883118 1175.485962,729.388306 1178.313843,730.772949 
	C1178.212158,731.264709 1178.110474,731.756470 1178.008789,732.248230 
	C1157.828735,737.862732 1137.648682,743.477173 1117.468750,749.091614 
	C1117.547119,749.587830 1117.625610,750.084045 1117.703979,750.580261 
	C1188.337402,750.580261 1258.970703,750.580261 1329.908691,750.580261 
	C1329.908691,755.315308 1329.908691,759.384827 1329.908691,763.953796 
	C1317.193604,765.945984 1304.417603,767.957092 1291.638306,769.947998 
	C1258.897583,775.048645 1226.159668,780.166626 1193.407837,785.194153 
	C1190.220093,785.683472 1188.200439,787.012085 1186.452148,789.871948 
	C1172.385986,812.882263 1158.125488,835.773865 1143.885620,858.677734 
	C1143.117310,859.913635 1142.209961,861.273560 1141.017334,862.004211 
	C1116.582886,876.971497 1089.937012,885.002075 1060.371704,887.588562 
	C1061.881104,884.588318 1062.748047,882.147400 1064.189819,880.114014 
	C1074.583740,865.453735 1084.792358,850.647400 1095.639893,836.326904 
	C1111.024414,816.016968 1126.917114,796.092285 1142.558594,775.976440 
	C1143.962036,774.171570 1145.115967,772.172607 1146.713745,769.770874 
	C1142.603760,768.513489 1139.059570,767.242004 1135.412964,766.432129 
	C1134.372314,766.200989 1132.503052,766.958496 1131.909912,767.855347 
	C1116.659668,790.915222 1097.232300,810.427551 1078.909424,830.902466 
	C1067.484741,843.669067 1056.652954,856.991882 1046.053223,870.457214 
	C1042.411987,875.082825 1039.759888,880.689514 1037.558716,886.208130 
	C1031.248413,902.028992 1036.388062,916.133545 1051.113647,924.619751 
	C1063.584351,931.806458 1077.422974,933.789978 1091.435181,934.767090 
	C1097.666626,935.201660 1103.953369,934.840454 1110.161621,934.840454 
	C1110.405151,942.060120 1108.087402,945.546570 1101.743408,947.709717 
	C1079.072510,955.439575 1056.655518,963.913757 1034.140625,972.101379 
	C1033.071899,972.490173 1031.986328,972.832703 1030.282715,973.408203 
	C1021.361145,882.132935 1012.478210,791.252136 1003.442566,698.809753 
	C1002.199890,700.799561 1001.423706,701.532654 1001.290588,702.368286 
	C1001.057434,703.831543 1001.215454,705.357727 1001.215454,706.857544 
	C1001.214905,829.179138 1001.215027,951.500671 1001.215027,1073.822266 
	C1001.215027,1075.785278 1001.214966,1077.748169 1001.214966,1079.697388 
	C826.267029,1083.670166 669.487976,934.067932 672.426147,750.838623 
	C743.266052,750.838623 814.116943,750.838623 884.967896,750.838623 
	C885.084961,750.267212 885.202026,749.695801 885.319153,749.124329 
	C870.994995,745.137939 856.670898,741.151550 841.947937,737.077087 
M959.365295,918.864746 
	C969.265564,908.491821 970.780518,896.512573 964.021362,881.991211 
	C957.026367,866.963074 946.131531,854.748413 935.235352,842.599731 
	C912.690735,817.463745 888.459229,793.772400 869.930664,765.126404 
	C865.332825,766.498169 861.074280,767.768738 856.545837,769.119812 
	C857.264404,770.321472 857.692505,771.217346 858.279663,771.992798 
	C870.242371,787.788696 882.268799,803.536621 894.188599,819.364746 
	C908.407471,838.245667 922.596069,857.150146 936.648499,876.154724 
	C938.936646,879.249207 940.453369,882.914124 942.523315,886.672485 
	C920.606934,886.566956 879.178345,873.568359 862.438477,861.662781 
	C860.900940,860.569214 859.773743,858.764587 858.744690,857.110535 
	C844.408203,834.068604 830.158691,810.972229 815.735291,787.984924 
	C814.841187,786.559937 812.784790,785.358521 811.082275,785.034180 
	C803.724426,783.632324 796.298645,782.585510 788.894592,781.428589 
	C773.482605,779.020264 758.068726,776.624146 742.572510,774.210022 
	C750.701721,897.483948 855.394226,1001.552185 977.290466,1009.945435 
	C975.588806,999.035400 973.697388,988.270447 972.341187,977.438538 
	C971.897766,973.896423 970.482849,972.329468 967.289795,971.179138 
	C945.061890,963.171448 922.895264,954.993469 900.706055,946.878296 
	C893.844849,944.369019 892.989014,943.064392 893.235840,935.380798 
	C901.212524,934.944946 909.224243,934.872803 917.146790,933.995850 
	C932.122009,932.338257 946.928223,929.885681 959.365295,918.864746 
z"/>
<path fill="#0B2341" opacity="1.000000" stroke="none" 
	d="
M927.488037,500.490173 
	C825.903687,534.598511 764.651550,603.772705 743.928223,708.611023 
	C742.961548,713.501282 742.352295,718.486145 741.963501,723.457153 
	C741.758789,726.074707 740.940857,727.238770 738.276184,727.639709 
	C716.874512,730.860046 695.491150,734.201782 674.098816,737.484192 
	C673.653503,737.552551 673.167603,737.356323 672.713501,737.285583 
	C676.334656,564.908264 826.397583,419.156342 1001.458740,422.087189 
	C1001.458740,480.562775 1001.458740,539.053284 1001.458740,597.543762 
	C1001.925293,597.617798 1002.391846,597.691833 1002.858459,597.765869 
	C1004.122620,593.260437 1005.652466,588.807922 1006.565491,584.232422 
	C1007.273071,580.686157 1008.666626,579.428101 1012.481873,579.456604 
	C1038.307495,579.649902 1064.135498,579.606873 1089.962158,579.498108 
	C1093.404541,579.483643 1095.067261,579.950378 1094.836670,584.084839 
	C1094.328857,593.191223 1098.408325,600.782166 1105.026001,606.515381 
	C1110.373291,611.148132 1116.737305,614.605835 1122.638916,618.601685 
	C1123.993164,619.518616 1125.300415,620.504639 1126.384155,622.337585 
	C1043.179810,619.334717 960.219971,619.228455 877.269287,623.224487 
	C877.006836,622.721985 876.744446,622.219421 876.481995,621.716858 
	C877.770081,620.718201 879.021545,619.667603 880.352478,618.729736 
	C886.846313,614.153625 893.816895,610.125061 899.742371,604.907410 
	C905.814331,599.560730 908.901733,592.127747 908.367432,583.866882 
	C908.110962,579.901855 909.677185,579.500122 912.891541,579.510864 
	C938.218445,579.595154 963.545776,579.557617 988.872986,579.557617 
	C990.695984,579.557617 992.518982,579.557617 995.052490,579.557617 
	C993.601440,573.794250 992.249756,568.425720 990.775452,562.570190 
	C969.948669,563.182556 949.267334,563.790588 928.585938,564.398621 
	C928.326416,564.046204 928.066956,563.693787 927.807434,563.341370 
	C940.379333,555.890808 948.432190,545.792419 947.537842,530.180298 
	C959.173706,530.180298 970.402588,530.180298 982.368958,530.180298 
	C978.880310,516.912537 975.567749,504.314453 971.924683,490.459381 
	C956.960144,493.816406 942.411316,497.080200 927.488037,500.490173 
z"/>
<path fill="#0B2341" opacity="1.000000" stroke="none" 
	d="
M1310.661621,865.520081 
	C1263.365845,991.650574 1145.711792,1074.619507 1015.489868,1079.653198 
	C1019.056152,1056.581421 1022.593628,1033.695923 1026.032593,1011.448181 
	C1040.553955,1008.558777 1054.783325,1006.582153 1068.534546,1002.845825 
	C1134.023315,985.052185 1185.104248,947.297424 1221.956909,890.351379 
	C1222.998169,888.742432 1223.190186,885.948853 1222.628052,884.047668 
	C1220.270752,876.074158 1217.453369,868.237305 1214.846680,860.336548 
	C1212.892212,854.412720 1214.315308,852.542358 1220.699707,852.541809 
	C1247.699097,852.539612 1274.699585,852.657593 1301.697021,852.424622 
	C1306.141968,852.386292 1308.547852,853.472717 1309.186279,857.974609 
	C1309.529663,860.395874 1310.259888,862.762390 1310.661621,865.520081 
z"/>
<path fill="#0B2341" opacity="1.000000" stroke="none" 
	d="
M1149.245728,535.728149 
	C1111.609375,510.055023 1070.343628,495.441101 1025.311890,491.287231 
	C1021.726868,468.232086 1018.200867,445.556335 1014.547485,422.061279 
	C1021.203125,422.496613 1027.448975,422.605988 1033.617676,423.352875 
	C1151.556274,437.632690 1238.511108,497.381256 1294.841797,601.805420 
	C1299.488525,610.419434 1302.708984,619.793640 1307.154907,628.528198 
	C1310.742798,635.576843 1310.713257,642.123474 1306.319580,649.135010 
	C1296.433228,649.135010 1286.119141,649.134949 1275.805054,649.135010 
	C1257.145752,649.135071 1238.486572,649.141296 1219.827271,649.131714 
	C1214.381226,649.128906 1212.721802,646.913269 1214.413574,641.697388 
	C1216.876709,634.103455 1219.303589,626.490662 1222.065430,619.003662 
	C1223.335815,615.560242 1223.045410,612.931702 1220.996948,609.776123 
	C1201.983521,580.487183 1178.271484,555.795959 1149.245728,535.728149 
z"/>
<path fill="#0B2341" opacity="1.000000" stroke="none" 
	d="
M1135.654053,655.240723 
	C1142.932983,676.701111 1157.617676,692.844849 1172.308105,708.984924 
	C1171.864868,709.440491 1171.421631,709.896057 1170.978394,710.351624 
	C1169.396362,709.724792 1167.802002,709.127075 1166.234131,708.466797 
	C1127.107422,691.990662 1087.669800,676.354309 1046.210938,666.635315 
	C1032.127686,663.333862 1017.899658,660.183716 1003.557373,658.638733 
	C995.705994,657.792908 987.422424,660.132141 979.429199,661.566833 
	C933.985352,669.722900 890.612488,684.569519 848.215942,702.523499 
	C842.777954,704.826355 837.292480,707.017395 831.829041,709.260254 
	C831.574524,708.924866 831.320007,708.589478 831.065491,708.254089 
	C832.480591,706.548462 833.796448,704.747803 835.326355,703.152283 
	C847.155945,690.815491 857.799194,677.596863 864.384155,661.661255 
	C866.777039,655.870789 868.768982,649.683838 869.496948,643.507141 
	C870.108398,638.319885 872.018860,637.520386 876.652527,637.542297 
	C914.641052,637.721802 952.630737,637.643616 990.620117,637.643555 
	C1036.107422,637.643494 1081.594727,637.694702 1127.081665,637.553528 
	C1131.087158,637.541077 1132.619263,638.635681 1132.964355,642.691040 
	C1133.313477,646.792603 1134.621948,650.812439 1135.654053,655.240723 
z"/>
<path fill="#0E2543" opacity="1.000000" stroke="none" 
	d="
M1018.917969,536.852173 
	C1019.306580,531.368652 1021.705200,529.654480 1026.992310,529.961243 
	C1036.251709,530.498474 1045.564697,530.111145 1054.750000,530.111145 
	C1060.644287,552.257690 1060.644287,552.257690 1075.879761,564.447937 
	C1054.078735,563.792542 1033.531250,563.174805 1012.230652,562.534424 
	C1014.511292,553.803406 1016.672424,545.529541 1018.917969,536.852173 
z"/>
<path fill="#0E2643" opacity="1.000000" stroke="none" 
	d="
M1087.407715,916.602661 
	C1070.334717,913.341736 1064.093872,910.703979 1060.046387,904.877502 
	C1084.108765,901.337891 1107.179810,894.781372 1129.667725,885.039124 
	C1125.018311,896.334106 1120.664673,907.209717 1115.942871,917.923035 
	C1115.467163,919.002380 1112.707642,919.707275 1111.108276,919.552246 
	C1103.327148,918.797791 1095.580078,917.691345 1087.407715,916.602661 
z"/>
<path fill="#FDFDFE" opacity="1.000000" stroke="none" 
	d="
M959.090210,919.093018 
	C946.928223,929.885681 932.122009,932.338257 917.146790,933.995850 
	C909.224243,934.872803 901.212524,934.944946 893.235840,935.380798 
	C892.989014,943.064392 893.844849,944.369019 900.706055,946.878296 
	C922.895264,954.993469 945.061890,963.171448 967.289795,971.179138 
	C970.482849,972.329468 971.897766,973.896423 972.341187,977.438538 
	C973.697388,988.270447 975.588806,999.035400 977.290466,1009.945435 
	C855.394226,1001.552185 750.701721,897.483948 742.572510,774.210022 
	C758.068726,776.624146 773.482605,779.020264 788.894592,781.428589 
	C796.298645,782.585510 803.724426,783.632324 811.082275,785.034180 
	C812.784790,785.358521 814.841187,786.559937 815.735291,787.984924 
	C830.158691,810.972229 844.408203,834.068604 858.744690,857.110535 
	C859.773743,858.764587 860.900940,860.569214 862.438477,861.662781 
	C879.178345,873.568359 920.606934,886.566956 942.523315,886.672485 
	C940.453369,882.914124 938.936646,879.249207 936.648499,876.154724 
	C922.596069,857.150146 908.407471,838.245667 894.188599,819.364746 
	C882.268799,803.536621 870.242371,787.788696 858.279663,771.992798 
	C857.692505,771.217346 857.264404,770.321472 856.545837,769.119812 
	C861.074280,767.768738 865.332825,766.498169 869.930664,765.126404 
	C888.459229,793.772400 912.690735,817.463745 935.235352,842.599731 
	C946.131531,854.748413 957.026367,866.963074 964.021362,881.991211 
	C970.780518,896.512573 969.265564,908.491821 959.090210,919.093018 
M886.714661,918.049622 
	C887.845642,918.670959 889.100708,919.986267 890.088989,919.809448 
	C904.790588,917.180603 919.503784,914.570679 934.095642,911.408813 
	C937.370422,910.699341 940.191650,907.896423 943.221680,906.057312 
	C943.086914,905.632874 942.952148,905.208435 942.817383,904.783997 
	C918.867859,901.488342 895.752869,895.162415 873.300598,885.419373 
	C877.835632,896.477722 882.105835,906.890259 886.714661,918.049622 
z"/>
<path fill="#0E2643" opacity="1.000000" stroke="none" 
	d="
M886.545410,917.676270 
	C882.105835,906.890259 877.835632,896.477722 873.300598,885.419373 
	C895.752869,895.162415 918.867859,901.488342 942.817383,904.783997 
	C942.952148,905.208435 943.086914,905.632874 943.221680,906.057312 
	C940.191650,907.896423 937.370422,910.699341 934.095642,911.408813 
	C919.503784,914.570679 904.790588,917.180603 890.088989,919.809448 
	C889.100708,919.986267 887.845642,918.670959 886.545410,917.676270 
z"/>
</svg>