<svg version="1.1" id="Layer_1" xmlns="http://www.w3.org/2000/svg" xmlns:xlink="http://www.w3.org/1999/xlink" x="0px" y="0px"
	 width="100%" viewBox="0 0 1953 1743" enable-background="new 0 0 1953 1743" xml:space="preserve">
<path fill="none" opacity="1.000000" stroke="none"
	d="
M1954.000000,623.000000 
	C1954.000000,997.000000 1954.000000,1370.500000 1954.000000,1744.000000 
	C1303.000000,1744.000000 652.000000,1744.000000 1.000000,1744.000000 
	C1.000000,1163.000000 1.000000,582.000000 1.000000,1.000000 
	C652.000000,1.000000 1303.000000,1.000000 1954.000000,1.000000 
	C1954.000000,208.166672 1954.000000,415.333344 1954.000000,623.000000 
M1228.500000,123.000336 
	C1219.038940,123.324684 1209.558838,123.377090 1200.120972,124.034363 
	C1184.257690,125.139099 1168.305542,125.838806 1152.600342,128.139374 
	C1128.525146,131.666016 1104.471558,135.680725 1080.691406,140.801025 
	C1044.751831,148.539459 1009.907104,160.060303 976.118530,174.601227 
	C972.496948,176.159775 969.750793,175.200272 966.702393,173.874405 
	C936.013611,160.526718 904.244812,150.287827 871.824463,142.267868 
	C842.538635,135.023285 812.897217,129.303818 782.739502,126.937134 
	C764.068909,125.471931 745.377197,123.293999 726.691101,123.254211 
	C702.804871,123.203339 678.896606,124.680794 655.033325,126.097519 
	C642.156189,126.862007 629.327393,128.686890 616.534912,130.454498 
	C613.395142,130.888336 611.726746,130.347153 609.850464,127.873886 
	C604.240540,120.479012 598.765015,112.906990 592.454895,106.132637 
	C573.937622,86.252960 553.827820,68.373466 529.951538,54.793980 
	C496.672211,35.866623 460.917145,26.768661 422.955322,26.185219 
	C410.922760,26.000286 398.779114,27.453299 386.822266,29.127710 
	C364.017334,32.321266 342.198212,39.129646 321.307800,48.868980 
	C301.657990,58.029945 283.313049,69.207138 266.301453,82.738892 
	C247.719986,97.519417 231.548569,114.498581 217.673981,133.667450 
	C207.124725,148.242126 198.255936,163.827133 191.257935,180.442169 
	C181.644196,203.267624 175.512833,227.059402 174.263596,251.728928 
	C173.519806,266.416748 174.410736,281.334290 176.108902,295.969604 
	C180.199265,331.221771 193.400955,363.343323 212.251862,393.182281 
	C214.683670,397.031586 214.408401,399.361755 211.849411,402.720978 
	C187.132233,435.167511 165.931854,469.885803 147.182281,506.022919 
	C135.560135,528.422974 124.795853,551.339417 115.002083,574.594971 
	C106.704453,594.297791 99.625198,614.595520 93.315346,635.034058 
	C84.410164,663.879089 77.356674,693.257629 73.801819,723.313599 
	C71.526421,742.551758 69.018593,761.831543 68.226303,781.158691 
	C67.212547,805.888245 67.371300,830.724304 71.017899,855.313599 
	C73.883347,874.635559 76.518127,894.050293 80.705383,913.105164 
	C88.654930,949.280823 101.426849,983.837585 118.879837,1016.567871 
	C122.974373,1024.246460 127.656227,1031.611938 132.538300,1039.922241 
	C145.035095,1027.449707 156.689957,1015.817444 168.261246,1004.268616 
	C174.761093,1023.492371 180.586700,1041.988159 187.258331,1060.173584 
	C198.900177,1091.906738 213.590759,1122.289551 230.407501,1151.569458 
	C247.191193,1180.791626 265.239868,1209.269531 286.719940,1235.330811 
	C303.372223,1255.534668 320.264069,1275.571899 337.804871,1295.001221 
	C348.600464,1306.959229 360.732513,1317.723145 372.430176,1328.848999 
	C378.318970,1334.449829 384.344238,1339.956909 390.713013,1344.993896 
	C408.136383,1358.774414 425.457397,1372.719971 443.422974,1385.768433 
	C459.255707,1397.267700 475.891296,1407.663208 492.205292,1418.496460 
	C494.474976,1420.003662 496.385529,1420.508667 497.018768,1416.648315 
	C499.271271,1402.915527 501.715851,1389.214233 504.132874,1375.508911 
	C504.597656,1372.873535 505.266693,1370.274048 505.993225,1366.967529 
	C507.774353,1368.537109 508.940552,1369.438599 509.960999,1370.482544 
	C533.095032,1394.147461 557.008301,1416.926758 582.936829,1437.591797 
	C607.515381,1457.181152 632.832397,1475.808472 659.870972,1491.684814 
	C700.795593,1515.714722 742.505432,1538.413574 784.006775,1561.452515 
	C814.361023,1578.303345 844.243225,1595.846313 872.714600,1615.802124 
	C907.821045,1640.408813 940.042969,1668.187866 968.632507,1700.149536 
	C971.034363,1702.834717 973.320068,1705.623779 975.696472,1708.407837 
	C981.747070,1701.753784 986.506470,1695.963379 991.846130,1690.769531 
	C1001.367371,1681.508423 1010.775818,1672.036743 1021.068970,1663.685303 
	C1038.177368,1649.803955 1055.240479,1635.661133 1073.616821,1623.600342 
	C1097.045410,1608.223999 1121.431396,1594.208740 1146.008789,1580.706543 
	C1173.824829,1565.425049 1202.375610,1551.486206 1230.478638,1536.719238 
	C1245.481567,1528.835693 1260.558838,1520.999146 1274.989380,1512.142456 
	C1298.029175,1498.002197 1320.853516,1483.463135 1343.189697,1468.242554 
	C1356.162598,1459.402222 1368.159058,1449.089844 1380.299561,1439.081421 
	C1387.974365,1432.754150 1395.416260,1426.074829 1402.412476,1419.008789 
	C1416.182861,1405.100952 1429.681030,1390.917969 1443.063110,1376.634399 
	C1448.658813,1370.661743 1453.671387,1364.142578 1458.949219,1357.871826 
	C1459.364136,1357.965088 1459.779175,1358.058228 1460.194092,1358.151489 
	C1460.194092,1380.256592 1460.194092,1402.361694 1460.194092,1424.466919 
	C1460.830200,1424.696533 1461.466431,1424.926147 1462.102539,1425.155762 
	C1638.174316,1334.448975 1734.153076,1186.416992 1769.373047,994.565491 
	C1777.249146,1009.105591 1785.282349,1023.935669 1793.592285,1039.276611 
	C1795.357178,1037.268799 1796.700317,1036.037842 1797.691284,1034.569458 
	C1815.614136,1008.012634 1829.913208,979.596130 1841.233276,949.647339 
	C1851.292847,923.033081 1859.367920,895.798828 1863.408447,867.655090 
	C1866.841431,843.742615 1869.005493,819.615540 1870.795776,795.513855 
	C1871.652954,783.975098 1870.757812,772.245667 1869.921997,760.655579 
	C1868.623657,742.651306 1867.226196,724.624268 1864.920044,706.729370 
	C1861.032471,676.561096 1854.280273,646.898254 1844.341797,618.189636 
	C1835.337036,592.178406 1825.250732,566.486328 1814.419922,541.176270 
	C1800.148926,507.826721 1782.207642,476.320251 1762.791870,445.697327 
	C1753.195312,430.561371 1743.089722,415.748169 1734.253662,402.363037 
	C1743.498169,381.856598 1752.743774,362.910706 1760.643677,343.419434 
	C1770.057251,320.193268 1774.676636,295.657532 1775.786743,270.685211 
	C1776.344116,258.146545 1775.129028,245.472122 1773.979126,232.926590 
	C1771.676880,207.808823 1763.876953,184.150513 1752.323975,161.915756 
	C1737.250000,132.904724 1717.140137,107.843979 1691.707764,86.966560 
	C1667.039307,66.716476 1639.886963,51.133274 1609.880737,40.486004 
	C1589.799927,33.360695 1569.257446,27.801443 1547.863525,27.052120 
	C1530.795654,26.454319 1513.584717,25.902210 1496.620972,27.404919 
	C1475.761230,29.252748 1455.655029,35.105335 1436.353882,43.663395 
	C1412.058350,54.435921 1390.700562,69.277779 1372.018066,88.076591 
	C1359.685913,100.485527 1348.780396,114.043083 1339.676392,128.996277 
	C1338.120117,131.552536 1336.330078,132.116745 1333.487427,131.742432 
	C1313.298584,129.083908 1293.138794,126.032509 1272.870605,124.207703 
	C1258.494019,122.913330 1243.962402,123.340912 1228.500000,123.000336 
z"/>
<path fill="#00285E" opacity="1.000000" stroke="none" 
	d="
M1229.000000,123.000122 
	C1243.962402,123.340912 1258.494019,122.913330 1272.870605,124.207703 
	C1293.138794,126.032509 1313.298584,129.083908 1333.487427,131.742432 
	C1336.330078,132.116745 1338.120117,131.552536 1339.676392,128.996277 
	C1348.780396,114.043083 1359.685913,100.485527 1372.018066,88.076591 
	C1390.700562,69.277779 1412.058350,54.435921 1436.353882,43.663395 
	C1455.655029,35.105335 1475.761230,29.252748 1496.620972,27.404919 
	C1513.584717,25.902210 1530.795654,26.454319 1547.863525,27.052120 
	C1569.257446,27.801443 1589.799927,33.360695 1609.880737,40.486004 
	C1639.886963,51.133274 1667.039307,66.716476 1691.707764,86.966560 
	C1717.140137,107.843979 1737.250000,132.904724 1752.323975,161.915756 
	C1763.876953,184.150513 1771.676880,207.808823 1773.979126,232.926590 
	C1775.129028,245.472122 1776.344116,258.146545 1775.786743,270.685211 
	C1774.676636,295.657532 1770.057251,320.193268 1760.643677,343.419434 
	C1752.743774,362.910706 1743.498169,381.856598 1734.253662,402.363037 
	C1743.089722,415.748169 1753.195312,430.561371 1762.791870,445.697327 
	C1782.207642,476.320251 1800.148926,507.826721 1814.419922,541.176270 
	C1825.250732,566.486328 1835.337036,592.178406 1844.341797,618.189636 
	C1854.280273,646.898254 1861.032471,676.561096 1864.920044,706.729370 
	C1867.226196,724.624268 1868.623657,742.651306 1869.921997,760.655579 
	C1870.757812,772.245667 1871.652954,783.975098 1870.795776,795.513855 
	C1869.005493,819.615540 1866.841431,843.742615 1863.408447,867.655090 
	C1859.367920,895.798828 1851.292847,923.033081 1841.233276,949.647339 
	C1829.913208,979.596130 1815.614136,1008.012634 1797.691284,1034.569458 
	C1796.700317,1036.037842 1795.357178,1037.268799 1793.592285,1039.276611 
	C1785.282349,1023.935669 1777.249146,1009.105591 1769.373047,994.565491 
	C1734.153076,1186.416992 1638.174316,1334.448975 1462.102539,1425.155762 
	C1461.466431,1424.926147 1460.830200,1424.696533 1460.194092,1424.466919 
	C1460.194092,1402.361694 1460.194092,1380.256592 1460.194092,1358.151489 
	C1459.779175,1358.058228 1459.364136,1357.965088 1458.949219,1357.871826 
	C1453.671387,1364.142578 1448.658813,1370.661743 1443.063110,1376.634399 
	C1429.681030,1390.917969 1416.182861,1405.100952 1402.412476,1419.008789 
	C1395.416260,1426.074829 1387.974365,1432.754150 1380.299561,1439.081421 
	C1368.159058,1449.089844 1356.162598,1459.402222 1343.189697,1468.242554 
	C1320.853516,1483.463135 1298.029175,1498.002197 1274.989380,1512.142456 
	C1260.558838,1520.999146 1245.481567,1528.835693 1230.478638,1536.719238 
	C1202.375610,1551.486206 1173.824829,1565.425049 1146.008789,1580.706543 
	C1121.431396,1594.208740 1097.045410,1608.223999 1073.616821,1623.600342 
	C1055.240479,1635.661133 1038.177368,1649.803955 1021.068970,1663.685303 
	C1010.775818,1672.036743 1001.367371,1681.508423 991.846130,1690.769531 
	C986.506470,1695.963379 981.747070,1701.753784 975.696472,1708.407837 
	C973.320068,1705.623779 971.034363,1702.834717 968.632507,1700.149536 
	C940.042969,1668.187866 907.821045,1640.408813 872.714600,1615.802124 
	C844.243225,1595.846313 814.361023,1578.303345 784.006775,1561.452515 
	C742.505432,1538.413574 700.795593,1515.714722 659.870972,1491.684814 
	C632.832397,1475.808472 607.515381,1457.181152 582.936829,1437.591797 
	C557.008301,1416.926758 533.095032,1394.147461 509.960999,1370.482544 
	C508.940552,1369.438599 507.774353,1368.537109 505.993225,1366.967529 
	C505.266693,1370.274048 504.597656,1372.873535 504.132874,1375.508911 
	C501.715851,1389.214233 499.271271,1402.915527 497.018768,1416.648315 
	C496.385529,1420.508667 494.474976,1420.003662 492.205292,1418.496460 
	C475.891296,1407.663208 459.255707,1397.267700 443.422974,1385.768433 
	C425.457397,1372.719971 408.136383,1358.774414 390.713013,1344.993896 
	C384.344238,1339.956909 378.318970,1334.449829 372.430176,1328.848999 
	C360.732513,1317.723145 348.600464,1306.959229 337.804871,1295.001221 
	C320.264069,1275.571899 303.372223,1255.534668 286.719940,1235.330811 
	C265.239868,1209.269531 247.191193,1180.791626 230.407501,1151.569458 
	C213.590759,1122.289551 198.900177,1091.906738 187.258331,1060.173584 
	C180.586700,1041.988159 174.761093,1023.492371 168.261246,1004.268616 
	C156.689957,1015.817444 145.035095,1027.449707 132.538300,1039.922241 
	C127.656227,1031.611938 122.974373,1024.246460 118.879837,1016.567871 
	C101.426849,983.837585 88.654930,949.280823 80.705383,913.105164 
	C76.518127,894.050293 73.883347,874.635559 71.017899,855.313599 
	C67.371300,830.724304 67.212547,805.888245 68.226303,781.158691 
	C69.018593,761.831543 71.526421,742.551758 73.801819,723.313599 
	C77.356674,693.257629 84.410164,663.879089 93.315346,635.034058 
	C99.625198,614.595520 106.704453,594.297791 115.002083,574.594971 
	C124.795853,551.339417 135.560135,528.422974 147.182281,506.022919 
	C165.931854,469.885803 187.132233,435.167511 211.849411,402.720978 
	C214.408401,399.361755 214.683670,397.031586 212.251862,393.182281 
	C193.400955,363.343323 180.199265,331.221771 176.108902,295.969604 
	C174.410736,281.334290 173.519806,266.416748 174.263596,251.728928 
	C175.512833,227.059402 181.644196,203.267624 191.257935,180.442169 
	C198.255936,163.827133 207.124725,148.242126 217.673981,133.667450 
	C231.548569,114.498581 247.719986,97.519417 266.301453,82.738892 
	C283.313049,69.207138 301.657990,58.029945 321.307800,48.868980 
	C342.198212,39.129646 364.017334,32.321266 386.822266,29.127710 
	C398.779114,27.453299 410.922760,26.000286 422.955322,26.185219 
	C460.917145,26.768661 496.672211,35.866623 529.951538,54.793980 
	C553.827820,68.373466 573.937622,86.252960 592.454895,106.132637 
	C598.765015,112.906990 604.240540,120.479012 609.850464,127.873886 
	C611.726746,130.347153 613.395142,130.888336 616.534912,130.454498 
	C629.327393,128.686890 642.156189,126.862007 655.033325,126.097519 
	C678.896606,124.680794 702.804871,123.203339 726.691101,123.254211 
	C745.377197,123.293999 764.068909,125.471931 782.739502,126.937134 
	C812.897217,129.303818 842.538635,135.023285 871.824463,142.267868 
	C904.244812,150.287827 936.013611,160.526718 966.702393,173.874405 
	C969.750793,175.200272 972.496948,176.159775 976.118530,174.601227 
	C1009.907104,160.060303 1044.751831,148.539459 1080.691406,140.801025 
	C1104.471558,135.680725 1128.525146,131.666016 1152.600342,128.139374 
	C1168.305542,125.838806 1184.257690,125.139099 1200.120972,124.034363 
	C1209.558838,123.377090 1219.038940,123.324684 1229.000000,123.000122 
M1094.588013,1196.862305 
	C1094.572144,1196.614990 1094.556396,1196.367676 1094.540527,1196.120239 
	C1094.220703,1196.279785 1093.900879,1196.439453 1093.286011,1196.954224 
	C1093.359131,1197.216553 1093.432251,1197.479004 1093.505615,1197.741455 
	C1093.721436,1197.549194 1093.937256,1197.357056 1094.588013,1196.862305 
M1156.626343,687.257874 
	C1136.601562,706.148254 1114.039795,721.780273 1091.443481,736.971497 
	C1107.561035,736.971497 1123.366699,737.090881 1139.167725,736.874817 
	C1142.492676,736.829346 1144.358398,737.690247 1145.707153,740.739990 
	C1148.601196,747.283813 1151.994385,753.609192 1154.826904,760.177551 
	C1189.364258,840.267273 1205.208618,924.434448 1208.830811,1011.141663 
	C1210.416992,1049.112305 1209.134888,1087.049316 1205.198242,1124.900391 
	C1200.104736,1173.873047 1191.086670,1222.083862 1177.273682,1269.318115 
	C1170.364990,1292.942871 1162.140259,1316.182617 1154.239624,1340.003052 
	C1154.311646,1340.428833 1154.383667,1340.854614 1154.455566,1341.280396 
	C1154.704834,1340.915039 1154.953979,1340.549683 1155.752197,1339.793579 
	C1172.590454,1314.219238 1185.743286,1286.760742 1197.090210,1258.408936 
	C1220.714844,1199.380249 1235.226562,1138.122803 1239.935425,1074.756958 
	C1241.876221,1048.640503 1241.468262,1022.344849 1241.982056,996.127808 
	C1242.630859,963.027832 1238.659912,930.282410 1233.579590,897.686279 
	C1225.117065,843.390320 1210.945679,790.541443 1192.140381,738.922424 
	C1191.493652,737.147461 1191.010010,735.313049 1190.344604,733.165222 
	C1192.558838,733.040527 1194.042236,732.958496 1195.525391,732.873291 
	C1231.921509,730.780762 1260.959961,715.213562 1282.146240,685.409790 
	C1294.975098,667.362732 1303.040894,647.204773 1308.000488,625.739136 
	C1309.172241,620.668091 1309.981201,615.513245 1311.086792,609.715881 
	C1292.013184,610.857483 1275.062378,615.935608 1257.828369,622.353882 
	C1233.519165,632.610229 1210.836792,645.805298 1189.506470,661.221130 
	C1178.368774,669.270813 1167.991943,678.373169 1156.626343,687.257874 
M698.365906,621.823120 
	C682.434082,614.226868 666.232300,607.780396 647.980713,609.226685 
	C647.861511,610.466309 647.748779,610.951050 647.783203,611.425171 
	C647.855408,612.421143 647.934814,613.425781 648.132751,614.402161 
	C652.930237,638.065857 660.688477,660.624390 673.621521,681.159119 
	C697.930664,719.756470 732.348572,737.322327 778.118347,731.010010 
	C781.031372,730.608276 783.940430,730.177979 787.480591,729.670837 
	C786.737305,731.880554 786.291504,733.440552 785.696228,734.941406 
	C768.343628,778.693542 757.440247,824.221741 749.194580,870.392395 
	C745.854065,889.097046 743.903320,908.088013 742.147400,927.025391 
	C740.757751,942.012756 740.338379,957.110718 740.003540,972.171082 
	C739.239319,1006.531189 739.389099,1040.877197 743.109253,1075.112793 
	C744.218933,1085.324463 744.590271,1095.637573 746.143799,1105.774902 
	C749.040405,1124.675415 752.299744,1143.529541 755.860596,1162.317383 
	C767.449646,1223.464478 785.537720,1282.712891 808.483826,1340.515869 
	C808.950928,1341.692627 809.598694,1342.797729 810.225830,1344.064697 
	C837.080200,1335.782227 864.022217,1329.100220 891.618408,1326.064209 
	C919.218506,1323.027466 946.967285,1321.342407 974.937683,1319.041138 
	C974.937683,1297.894653 974.745605,1276.744019 975.059570,1255.600830 
	C975.148865,1249.591187 973.806519,1244.455200 970.213318,1239.815063 
	C959.613831,1226.127197 949.486572,1212.031250 938.221191,1198.913696 
	C927.824341,1186.807617 916.380554,1175.572876 905.032898,1164.322388 
	C898.854492,1158.196777 892.600769,1158.265259 885.804993,1163.615845 
	C883.601379,1165.350830 881.277344,1167.276978 879.881653,1169.632935 
	C874.389465,1178.903442 869.212524,1188.361938 863.998291,1197.794556 
	C862.926941,1199.732666 862.197937,1201.860229 861.031799,1204.542847 
	C845.232849,1183.684448 831.145386,1162.895264 824.953674,1137.685669 
	C820.011658,1117.564331 824.886841,1100.441528 840.510132,1087.099731 
	C846.846924,1081.688477 854.476196,1077.381226 862.152405,1074.023315 
	C886.463928,1063.388062 912.512756,1061.240845 938.614441,1060.084717 
	C949.691772,1059.594116 960.808899,1060.003052 971.471680,1060.003052 
	C971.471680,961.201355 971.471680,862.646729 971.471680,764.047424 
	C969.427673,764.047424 968.240356,763.847656 967.143066,764.077759 
	C953.790222,766.877441 940.659668,764.080627 927.870850,761.297668 
	C890.516052,753.169067 858.256409,734.607849 828.775513,710.756470 
	C818.820068,702.702087 808.601318,694.973083 798.382202,686.467407 
	C777.387817,671.838989 756.650818,656.820251 735.296143,642.738159 
	C723.710999,635.098389 711.074097,629.053406 698.365906,621.823120 
M459.171295,567.195984 
	C459.152588,566.834778 459.133850,566.473511 459.889191,565.999207 
	C517.533203,551.549316 575.822510,546.962402 634.836853,555.141846 
	C675.470093,560.773682 714.121033,572.501160 749.611328,593.679077 
	C777.410400,610.267517 801.555298,631.434448 825.566589,652.878967 
	C839.838623,665.625427 854.273315,678.321716 869.640625,689.679871 
	C894.554810,708.094360 921.050537,710.203613 947.987000,693.497070 
	C949.781616,692.384033 951.615723,689.877075 951.803589,687.866333 
	C953.074097,674.269897 953.927368,660.633911 954.875610,647.007996 
	C957.674194,606.794312 960.426636,566.577393 963.248596,526.365356 
	C966.840088,475.187042 970.474548,424.011749 974.111633,372.836639 
	C974.585876,366.163544 975.185974,359.499359 975.727722,352.831055 
	C978.395020,379.504517 980.210144,406.087402 981.984253,432.673004 
	C983.780945,459.598694 985.505188,486.529266 987.319214,513.453796 
	C989.491516,545.696228 991.750732,577.932861 993.924683,610.175232 
	C995.672729,636.102295 997.305908,662.037292 999.159241,687.956665 
	C999.280273,689.649048 1000.425842,691.920532 1001.805176,692.772583 
	C1021.743652,705.088379 1042.514282,709.311890 1064.872070,699.225220 
	C1079.346069,692.695374 1091.775146,683.254639 1103.594727,672.940979 
	C1120.542358,658.152527 1137.105225,642.921265 1154.120605,628.212280 
	C1193.525391,594.148438 1238.141113,570.437622 1289.510742,559.815369 
	C1349.169678,547.479187 1408.667358,549.013916 1468.171997,560.536926 
	C1477.131104,562.271851 1486.057617,564.176392 1495.009399,566.437500 
	C1495.291992,566.498718 1495.574463,566.559937 1495.857056,566.621216 
	C1495.571411,566.413940 1495.285645,566.206665 1494.689819,565.391663 
	C1459.528198,544.061340 1421.774658,529.120422 1381.988403,518.896973 
	C1353.547729,511.588776 1325.010376,509.288116 1295.860229,513.578186 
	C1259.574463,518.918579 1224.686768,529.115723 1190.631836,542.463684 
	C1189.143677,543.046997 1187.635864,543.580383 1185.365234,544.423889 
	C1185.691528,541.794189 1185.827026,540.013184 1186.142334,538.264587 
	C1191.449219,508.835663 1199.596680,480.248383 1211.038818,452.582733 
	C1226.983643,414.030121 1251.397461,383.273346 1289.310059,363.950104 
	C1307.090210,354.887909 1324.342773,344.680847 1341.289429,334.118561 
	C1366.914062,318.147766 1387.964966,297.605927 1400.774658,269.690613 
	C1404.171997,262.286652 1406.444092,254.329346 1410.206543,247.135452 
	C1447.620117,175.602509 1518.255493,134.555161 1603.189331,141.687668 
	C1613.458618,142.550049 1623.683105,143.944809 1634.106445,145.460876 
	C1634.382568,145.488403 1634.658813,145.515945 1634.934937,145.543488 
	C1634.644409,145.339722 1634.353882,145.135956 1633.769043,144.312683 
	C1619.288086,138.047699 1605.240845,130.367340 1590.248047,125.772766 
	C1536.959351,109.442307 1486.480713,115.524696 1440.270142,147.990036 
	C1411.956543,167.881821 1390.674683,194.207962 1372.729126,223.452530 
	C1371.352539,225.695663 1369.932739,227.912354 1368.465942,230.248337 
	C1366.872559,229.717499 1365.630249,229.290207 1364.379517,228.888977 
	C1352.020874,224.924286 1339.819092,220.349030 1327.271362,217.117950 
	C1290.015747,207.524445 1252.085327,204.432114 1213.613403,204.743683 
	C1181.651001,205.002533 1150.096680,207.900055 1118.741699,213.600540 
	C1071.348022,222.216888 1025.672241,236.582138 981.361450,255.359955 
	C977.767944,256.882812 974.612061,256.991150 970.833557,255.886566 
	C949.263611,249.580750 927.757629,242.961426 905.951965,237.573593 
	C833.881653,219.766190 760.920593,208.843658 686.407043,210.760712 
	C653.992676,211.594666 621.934387,215.116272 590.480957,223.173599 
	C586.413696,224.215485 584.353455,223.520004 582.019348,219.917953 
	C560.973389,187.440125 535.622864,158.902344 503.513824,136.935989 
	C455.014038,103.756393 403.982697,96.642464 350.073914,123.184532 
	C318.505310,138.727371 293.103333,160.683105 278.408875,193.428894 
	C264.177063,225.143768 263.256897,258.332703 268.553192,291.954834 
	C274.231598,328.002930 286.526642,361.862854 304.043854,393.834991 
	C305.530914,396.549133 306.081909,398.350616 303.559753,401.140411 
	C255.643600,454.141418 217.916946,513.751526 189.312759,579.127686 
	C163.370316,638.420227 147.512177,700.278442 144.293213,765.064392 
	C142.089691,809.413208 146.078552,853.280457 156.712143,896.460999 
	C158.669357,904.408813 160.891129,912.291443 163.271286,921.261292 
	C178.691559,901.281433 193.280106,882.379272 208.385452,862.807434 
	C209.072006,865.298340 209.509323,866.699768 209.843826,868.125366 
	C222.538162,922.226318 239.422943,975.000977 260.343719,1026.467285 
	C283.128784,1082.519897 310.230927,1136.269775 346.471741,1185.015991 
	C371.509613,1218.693604 400.203491,1248.648804 435.737061,1271.513550 
	C438.320496,1273.176025 441.038910,1274.628784 444.432068,1276.609497 
	C447.743713,1250.813965 450.938049,1225.932251 454.316132,1199.619385 
	C455.649384,1201.428101 456.007538,1201.995361 456.443634,1202.494385 
	C511.186005,1265.138916 570.841492,1322.697754 635.478699,1375.066406 
	C689.479126,1418.817261 746.506958,1458.010498 808.710754,1489.350464 
	C840.088440,1505.159424 871.878357,1520.227905 902.634033,1537.170288 
	C929.277100,1551.847046 956.447266,1566.455933 974.610474,1592.052002 
	C974.610474,1543.704102 974.610474,1495.098267 974.610474,1445.955078 
	C972.672546,1445.955078 971.060242,1445.937378 969.448547,1445.958130 
	C961.283142,1446.062866 953.117004,1446.319702 944.952881,1446.263794 
	C910.960449,1446.031372 877.418274,1442.654785 845.173645,1431.043579 
	C819.884399,1421.937134 799.981140,1407.021362 786.766602,1382.515747 
	C751.939148,1317.930176 723.097290,1250.912231 701.431763,1180.832153 
	C671.028748,1082.489746 654.979553,982.136597 660.008362,878.919128 
	C662.162292,834.709839 668.334229,791.073120 678.981689,748.090942 
	C681.345703,738.547607 681.341187,738.585693 672.454773,735.173340 
	C646.679871,725.275818 628.514832,706.768860 614.714417,683.547852 
	C598.862427,656.874878 591.134827,627.513916 587.108948,597.047729 
	C586.572021,592.984131 585.426697,590.359192 581.251404,588.982971 
	C573.349915,586.378418 565.700195,582.996826 557.770386,580.494019 
	C525.701660,570.372375 492.881927,565.770691 459.171295,567.195984 
M1096.933472,1398.454956 
	C1103.880615,1395.327271 1111.092041,1392.658447 1117.661987,1388.875610 
	C1120.883301,1387.020874 1123.587769,1383.442139 1125.329590,1380.032349 
	C1128.140259,1374.530762 1126.171875,1370.835693 1120.380127,1369.034668 
	C1117.687134,1368.197266 1114.938965,1367.309570 1112.156372,1367.023193 
	C1088.427856,1364.581543 1064.708496,1361.996338 1040.938843,1360.027588 
	C1026.577515,1358.838257 1012.127380,1358.064819 997.724915,1358.169800 
	C971.326721,1358.362183 944.921692,1359.030151 918.543518,1360.095215 
	C897.831482,1360.931641 877.122986,1362.301514 856.477905,1364.156738 
	C846.592041,1365.045166 836.790222,1367.316528 827.080261,1369.531128 
	C821.920593,1370.707764 820.531616,1374.191040 823.034119,1378.971924 
	C824.756775,1382.262695 827.070374,1385.614868 829.968323,1387.829102 
	C833.874084,1390.813354 838.342773,1393.647705 843.013916,1394.935303 
	C857.842346,1399.022339 872.720337,1403.375122 887.874084,1405.716553 
	C904.335999,1408.259766 921.121216,1409.675659 937.778320,1409.794800 
	C974.925415,1410.060913 1012.174927,1411.797852 1049.167725,1406.864258 
	C1064.920532,1404.763306 1080.516479,1401.485474 1096.933472,1398.454956 
M1008.502075,1059.710938 
	C999.050537,1059.710938 989.598999,1059.710938 980.147461,1059.710938 
	C990.787903,1061.345215 1001.439880,1061.857544 1012.006470,1063.097534 
	C1022.744568,1064.357666 1033.490234,1065.893677 1044.069458,1068.093750 
	C1063.768311,1072.190308 1082.787109,1078.282349 1098.927979,1090.953857 
	C1115.859619,1104.246216 1122.050537,1121.769775 1118.417847,1142.805054 
	C1115.437500,1160.063232 1107.301025,1175.134521 1097.976929,1189.659058 
	C1096.951660,1191.256104 1095.988892,1192.893066 1094.997192,1194.511597 
	C1095.376221,1194.799927 1095.755127,1195.088379 1096.134033,1195.376709 
	C1099.159424,1191.999268 1102.296875,1188.714966 1105.190796,1185.228394 
	C1118.023926,1169.768311 1129.906250,1153.705933 1135.249512,1133.886719 
	C1140.631836,1113.922119 1134.941406,1096.843506 1117.877197,1085.271851 
	C1109.847778,1079.827026 1100.813477,1075.408447 1091.652100,1072.174683 
	C1065.137329,1062.815552 1037.431641,1060.301636 1008.502075,1059.710938 
z"/>
<path fill="#6189B9" opacity="1.000000" stroke="none" 
	d="
M1633.928345,145.092804 
	C1623.683105,143.944809 1613.458618,142.550049 1603.189331,141.687668 
	C1518.255493,134.555161 1447.620117,175.602509 1410.206543,247.135452 
	C1406.444092,254.329346 1404.171997,262.286652 1400.774658,269.690613 
	C1387.964966,297.605927 1366.914062,318.147766 1341.289429,334.118561 
	C1324.342773,344.680847 1307.090210,354.887909 1289.310059,363.950104 
	C1251.397461,383.273346 1226.983643,414.030121 1211.038818,452.582733 
	C1199.596680,480.248383 1191.449219,508.835663 1186.142334,538.264587 
	C1185.827026,540.013184 1185.691528,541.794189 1185.365234,544.423889 
	C1187.635864,543.580383 1189.143677,543.046997 1190.631836,542.463684 
	C1224.686768,529.115723 1259.574463,518.918579 1295.860229,513.578186 
	C1325.010376,509.288116 1353.547729,511.588776 1381.988403,518.896973 
	C1421.774658,529.120422 1459.528198,544.061340 1494.844971,565.695801 
	C1495.000000,566.000000 1494.999146,566.002441 1494.999146,566.002441 
	C1486.057617,564.176392 1477.131104,562.271851 1468.171997,560.536926 
	C1408.667358,549.013916 1349.169678,547.479187 1289.510742,559.815369 
	C1238.141113,570.437622 1193.525391,594.148438 1154.120605,628.212280 
	C1137.105225,642.921265 1120.542358,658.152527 1103.594727,672.940979 
	C1091.775146,683.254639 1079.346069,692.695374 1064.872070,699.225220 
	C1042.514282,709.311890 1021.743652,705.088379 1001.805176,692.772583 
	C1000.425842,691.920532 999.280273,689.649048 999.159241,687.956665 
	C997.305908,662.037292 995.672729,636.102295 993.924683,610.175232 
	C991.750732,577.932861 989.491516,545.696228 987.319214,513.453796 
	C985.505188,486.529266 983.780945,459.598694 981.984253,432.673004 
	C980.210144,406.087402 978.395020,379.504517 975.727722,352.831055 
	C975.185974,359.499359 974.585876,366.163544 974.111633,372.836639 
	C970.474548,424.011749 966.840088,475.187042 963.248596,526.365356 
	C960.426636,566.577393 957.674194,606.794312 954.875610,647.007996 
	C953.927368,660.633911 953.074097,674.269897 951.803589,687.866333 
	C951.615723,689.877075 949.781616,692.384033 947.987000,693.497070 
	C921.050537,710.203613 894.554810,708.094360 869.640625,689.679871 
	C854.273315,678.321716 839.838623,665.625427 825.566589,652.878967 
	C801.555298,631.434448 777.410400,610.267517 749.611328,593.679077 
	C714.121033,572.501160 675.470093,560.773682 634.836853,555.141846 
	C575.822510,546.962402 517.533203,551.549316 459.178131,566.057190 
	C457.455170,566.476501 456.443268,566.837830 455.431366,567.199097 
	C455.484070,567.458069 455.536774,567.717041 455.589478,567.975952 
	C456.803101,567.896057 458.016754,567.816101 459.230408,567.736206 
	C492.881927,565.770691 525.701660,570.372375 557.770386,580.494019 
	C565.700195,582.996826 573.349915,586.378418 581.251404,588.982971 
	C585.426697,590.359192 586.572021,592.984131 587.108948,597.047729 
	C591.134827,627.513916 598.862427,656.874878 614.714417,683.547852 
	C628.514832,706.768860 646.679871,725.275818 672.454773,735.173340 
	C681.341187,738.585693 681.345703,738.547607 678.981689,748.090942 
	C668.334229,791.073120 662.162292,834.709839 660.008362,878.919128 
	C654.979553,982.136597 671.028748,1082.489746 701.431763,1180.832153 
	C723.097290,1250.912231 751.939148,1317.930176 786.766602,1382.515747 
	C799.981140,1407.021362 819.884399,1421.937134 845.173645,1431.043579 
	C877.418274,1442.654785 910.960449,1446.031372 944.952881,1446.263794 
	C953.117004,1446.319702 961.283142,1446.062866 969.448547,1445.958130 
	C971.060242,1445.937378 972.672546,1445.955078 974.610474,1445.955078 
	C974.610474,1495.098267 974.610474,1543.704102 974.610474,1592.052002 
	C956.447266,1566.455933 929.277100,1551.847046 902.634033,1537.170288 
	C871.878357,1520.227905 840.088440,1505.159424 808.710754,1489.350464 
	C746.506958,1458.010498 689.479126,1418.817261 635.478699,1375.066406 
	C570.841492,1322.697754 511.186005,1265.138916 456.443634,1202.494385 
	C456.007538,1201.995361 455.649384,1201.428101 454.316132,1199.619385 
	C450.938049,1225.932251 447.743713,1250.813965 444.432068,1276.609497 
	C441.038910,1274.628784 438.320496,1273.176025 435.737061,1271.513550 
	C400.203491,1248.648804 371.509613,1218.693604 346.471741,1185.015991 
	C310.230927,1136.269775 283.128784,1082.519897 260.343719,1026.467285 
	C239.422943,975.000977 222.538162,922.226318 209.843826,868.125366 
	C209.509323,866.699768 209.072006,865.298340 208.385452,862.807434 
	C193.280106,882.379272 178.691559,901.281433 163.271286,921.261292 
	C160.891129,912.291443 158.669357,904.408813 156.712143,896.460999 
	C146.078552,853.280457 142.089691,809.413208 144.293213,765.064392 
	C147.512177,700.278442 163.370316,638.420227 189.312759,579.127686 
	C217.916946,513.751526 255.643600,454.141418 303.559753,401.140411 
	C306.081909,398.350616 305.530914,396.549133 304.043854,393.834991 
	C286.526642,361.862854 274.231598,328.002930 268.553192,291.954834 
	C263.256897,258.332703 264.177063,225.143768 278.408875,193.428894 
	C293.103333,160.683105 318.505310,138.727371 350.073914,123.184532 
	C403.982697,96.642464 455.014038,103.756393 503.513824,136.935989 
	C535.622864,158.902344 560.973389,187.440125 582.019348,219.917953 
	C584.353455,223.520004 586.413696,224.215485 590.480957,223.173599 
	C621.934387,215.116272 653.992676,211.594666 686.407043,210.760712 
	C760.920593,208.843658 833.881653,219.766190 905.951965,237.573593 
	C927.757629,242.961426 949.263611,249.580750 970.833557,255.886566 
	C974.612061,256.991150 977.767944,256.882812 981.361450,255.359955 
	C1025.672241,236.582138 1071.348022,222.216888 1118.741699,213.600540 
	C1150.096680,207.900055 1181.651001,205.002533 1213.613403,204.743683 
	C1252.085327,204.432114 1290.015747,207.524445 1327.271362,217.117950 
	C1339.819092,220.349030 1352.020874,224.924286 1364.379517,228.888977 
	C1365.630249,229.290207 1366.872559,229.717499 1368.465942,230.248337 
	C1369.932739,227.912354 1371.352539,225.695663 1372.729126,223.452530 
	C1390.674683,194.207962 1411.956543,167.881821 1440.270142,147.990036 
	C1486.480713,115.524696 1536.959351,109.442307 1590.248047,125.772766 
	C1605.240845,130.367340 1619.288086,138.047699 1633.882080,144.662292 
	C1633.995117,145.011917 1633.928345,145.092804 1633.928345,145.092804 
M341.569336,338.125916 
	C337.658173,348.281738 334.161591,358.511841 335.409546,370.906891 
	C337.627716,368.989899 339.003021,367.892792 340.276001,366.687714 
	C367.179260,341.219604 395.672119,317.683197 426.114594,296.564240 
	C454.252716,277.043884 483.614594,259.735352 516.206848,248.560043 
	C522.476135,246.410431 528.893921,244.694183 535.332336,242.751144 
	C535.066833,242.097885 534.987976,241.557831 534.686584,241.211517 
	C511.248444,214.285431 484.885620,191.008575 451.461487,177.228439 
	C415.020508,162.204514 381.116974,166.108047 350.857208,192.609909 
	C349.473022,193.822189 348.258118,195.227798 346.232422,197.287689 
	C383.979950,199.145569 418.865021,205.299484 446.375824,233.196289 
	C445.238770,233.685638 444.920105,233.960022 444.672241,233.906448 
	C443.378479,233.626831 442.086700,233.315277 440.823090,232.922073 
	C425.404816,228.124451 409.654205,225.927963 393.509491,226.953568 
	C375.194580,228.117035 358.653931,233.998322 344.560608,245.962036 
	C335.643005,253.532104 328.433624,262.494995 322.905975,273.841339 
	C346.091888,265.453705 368.352539,259.577301 389.445343,278.036499 
	C369.747498,295.422424 352.552032,313.840973 341.569336,338.125916 
z"/>
<path fill="#B8CFE9" opacity="1.000000" stroke="none" 
	d="
M798.502930,687.095398 
	C808.601318,694.973083 818.820068,702.702087 828.775513,710.756470 
	C858.256409,734.607849 890.516052,753.169067 927.870850,761.297668 
	C940.659668,764.080627 953.790222,766.877441 967.143066,764.077759 
	C968.240356,763.847656 969.427673,764.047424 971.471680,764.047424 
	C971.471680,862.646729 971.471680,961.201355 971.471680,1060.003052 
	C960.808899,1060.003052 949.691772,1059.594116 938.614441,1060.084717 
	C912.512756,1061.240845 886.463928,1063.388062 862.152405,1074.023315 
	C854.476196,1077.381226 846.846924,1081.688477 840.510132,1087.099731 
	C824.886841,1100.441528 820.011658,1117.564331 824.953674,1137.685669 
	C831.145386,1162.895264 845.232849,1183.684448 861.031799,1204.542847 
	C862.197937,1201.860229 862.926941,1199.732666 863.998291,1197.794556 
	C869.212524,1188.361938 874.389465,1178.903442 879.881653,1169.632935 
	C881.277344,1167.276978 883.601379,1165.350830 885.804993,1163.615845 
	C892.600769,1158.265259 898.854492,1158.196777 905.032898,1164.322388 
	C916.380554,1175.572876 927.824341,1186.807617 938.221191,1198.913696 
	C949.486572,1212.031250 959.613831,1226.127197 970.213318,1239.815063 
	C973.806519,1244.455200 975.148865,1249.591187 975.059570,1255.600830 
	C974.745605,1276.744019 974.937683,1297.894653 974.937683,1319.041138 
	C946.967285,1321.342407 919.218506,1323.027466 891.618408,1326.064209 
	C864.022217,1329.100220 837.080200,1335.782227 810.225830,1344.064697 
	C809.598694,1342.797729 808.950928,1341.692627 808.483826,1340.515869 
	C785.537720,1282.712891 767.449646,1223.464478 755.860596,1162.317383 
	C752.299744,1143.529541 749.040405,1124.675415 746.143799,1105.774902 
	C744.590271,1095.637573 744.218933,1085.324463 743.109253,1075.112793 
	C739.389099,1040.877197 739.239319,1006.531189 740.003540,972.171082 
	C740.338379,957.110718 740.757751,942.012756 742.147400,927.025391 
	C743.903320,908.088013 745.854065,889.097046 749.194580,870.392395 
	C757.440247,824.221741 768.343628,778.693542 785.696228,734.941406 
	C786.291504,733.440552 786.737305,731.880554 787.480591,729.670837 
	C783.940430,730.177979 781.031372,730.608276 778.118347,731.010010 
	C732.348572,737.322327 697.930664,719.756470 673.621521,681.159119 
	C660.688477,660.624390 652.930237,638.065857 648.132751,614.402161 
	C647.934814,613.425781 647.855408,612.421143 647.783203,611.425171 
	C647.748779,610.951050 647.861511,610.466309 647.980713,609.226685 
	C666.232300,607.780396 682.434082,614.226868 698.622070,622.505798 
	C698.127869,639.260864 700.182983,655.004272 704.992615,670.320435 
	C712.099487,692.952393 724.747864,710.816650 748.099976,719.257324 
	C751.088745,720.337646 752.912109,720.277222 754.494385,717.111816 
	C755.966370,714.167053 757.940369,711.394470 760.081909,708.876526 
	C770.217590,696.959229 781.378906,686.733459 798.502930,687.095398 
z"/>
<path fill="#6088B8" opacity="1.000000" stroke="none" 
	d="
M1258.534302,622.755188 
	C1275.062378,615.935608 1292.013184,610.857483 1311.086792,609.715881 
	C1309.981201,615.513245 1309.172241,620.668091 1308.000488,625.739136 
	C1303.040894,647.204773 1294.975098,667.362732 1282.146240,685.409790 
	C1260.959961,715.213562 1231.921509,730.780762 1195.525391,732.873291 
	C1194.042236,732.958496 1192.558838,733.040527 1190.344604,733.165222 
	C1191.010010,735.313049 1191.493652,737.147461 1192.140381,738.922424 
	C1210.945679,790.541443 1225.117065,843.390320 1233.579590,897.686279 
	C1238.659912,930.282410 1242.630859,963.027832 1241.982056,996.127808 
	C1241.468262,1022.344849 1241.876221,1048.640503 1239.935425,1074.756958 
	C1235.226562,1138.122803 1220.714844,1199.380249 1197.090210,1258.408936 
	C1185.743286,1286.760742 1172.590454,1314.219238 1155.306274,1339.839966 
	C1154.860352,1339.886353 1154.510742,1339.596558 1154.510742,1339.596558 
	C1162.140259,1316.182617 1170.364990,1292.942871 1177.273682,1269.318115 
	C1191.086670,1222.083862 1200.104736,1173.873047 1205.198242,1124.900391 
	C1209.134888,1087.049316 1210.416992,1049.112305 1208.830811,1011.141663 
	C1205.208618,924.434448 1189.364258,840.267273 1154.826904,760.177551 
	C1151.994385,753.609192 1148.601196,747.283813 1145.707153,740.739990 
	C1144.358398,737.690247 1142.492676,736.829346 1139.167725,736.874817 
	C1123.366699,737.090881 1107.561035,736.971497 1091.443481,736.971497 
	C1114.039795,721.780273 1136.601562,706.148254 1157.387817,687.109253 
	C1165.786255,686.064880 1172.577148,688.462036 1178.929077,692.407532 
	C1188.872803,698.583984 1196.710693,706.877258 1202.599243,716.922546 
	C1204.292114,719.810547 1205.918091,720.795715 1208.869995,719.139465 
	C1215.345825,715.505859 1222.500977,712.710205 1228.177979,708.095337 
	C1245.379639,694.112000 1252.572388,674.545471 1255.897583,653.438293 
	C1257.490967,643.323181 1257.698853,632.989746 1258.534302,622.755188 
z"/>
<path fill="#B7CEE8" opacity="1.000000" stroke="none" 
	d="
M1096.558594,1398.598877 
	C1080.516479,1401.485474 1064.920532,1404.763306 1049.167725,1406.864258 
	C1012.174927,1411.797852 974.925415,1410.060913 937.778320,1409.794800 
	C921.121216,1409.675659 904.335999,1408.259766 887.874084,1405.716553 
	C872.720337,1403.375122 857.842346,1399.022339 843.013916,1394.935303 
	C838.342773,1393.647705 833.874084,1390.813354 829.968323,1387.829102 
	C827.070374,1385.614868 824.756775,1382.262695 823.034119,1378.971924 
	C820.531616,1374.191040 821.920593,1370.707764 827.080261,1369.531128 
	C836.790222,1367.316528 846.592041,1365.045166 856.477905,1364.156738 
	C877.122986,1362.301514 897.831482,1360.931641 918.543518,1360.095215 
	C944.921692,1359.030151 971.326721,1358.362183 997.724915,1358.169800 
	C1012.127380,1358.064819 1026.577515,1358.838257 1040.938843,1360.027588 
	C1064.708496,1361.996338 1088.427856,1364.581543 1112.156372,1367.023193 
	C1114.938965,1367.309570 1117.687134,1368.197266 1120.380127,1369.034668 
	C1126.171875,1370.835693 1128.140259,1374.530762 1125.329590,1380.032349 
	C1123.587769,1383.442139 1120.883301,1387.020874 1117.661987,1388.875610 
	C1111.092041,1392.658447 1103.880615,1395.327271 1096.558594,1398.598877 
z"/>
<path fill="#FCB827" opacity="1.000000" stroke="none" 
	d="
M1258.181396,622.554565 
	C1257.698853,632.989746 1257.490967,643.323181 1255.897583,653.438293 
	C1252.572388,674.545471 1245.379639,694.112000 1228.177979,708.095337 
	C1222.500977,712.710205 1215.345825,715.505859 1208.869995,719.139465 
	C1205.918091,720.795715 1204.292114,719.810547 1202.599243,716.922546 
	C1196.710693,706.877258 1188.872803,698.583984 1178.929077,692.407532 
	C1172.577148,688.462036 1165.786255,686.064880 1157.710327,686.980286 
	C1167.991943,678.373169 1178.368774,669.270813 1189.506470,661.221130 
	C1210.836792,645.805298 1233.519165,632.610229 1258.181396,622.554565 
z"/>
<path fill="#FCB828" opacity="1.000000" stroke="none" 
	d="
M798.442566,686.781372 
	C781.378906,686.733459 770.217590,696.959229 760.081909,708.876526 
	C757.940369,711.394470 755.966370,714.167053 754.494385,717.111816 
	C752.912109,720.277222 751.088745,720.337646 748.099976,719.257324 
	C724.747864,710.816650 712.099487,692.952393 704.992615,670.320435 
	C700.182983,655.004272 698.127869,639.260864 698.894897,622.738770 
	C711.074097,629.053406 723.710999,635.098389 735.296143,642.738159 
	C756.650818,656.820251 777.387817,671.838989 798.442566,686.781372 
z"/>
<path fill="#5F87B7" opacity="1.000000" stroke="none" 
	d="
M1009.001831,1059.727051 
	C1037.431641,1060.301636 1065.137329,1062.815552 1091.652100,1072.174683 
	C1100.813477,1075.408447 1109.847778,1079.827026 1117.877197,1085.271851 
	C1134.941406,1096.843506 1140.631836,1113.922119 1135.249512,1133.886719 
	C1129.906250,1153.705933 1118.023926,1169.768311 1105.190796,1185.228394 
	C1102.296875,1188.714966 1099.159424,1191.999268 1096.134033,1195.376709 
	C1095.755127,1195.088379 1095.376221,1194.799927 1094.997192,1194.511597 
	C1095.988892,1192.893066 1096.951660,1191.256104 1097.976929,1189.659058 
	C1107.301025,1175.134521 1115.437500,1160.063232 1118.417847,1142.805054 
	C1122.050537,1121.769775 1115.859619,1104.246216 1098.927979,1090.953857 
	C1082.787109,1078.282349 1063.768311,1072.190308 1044.069458,1068.093750 
	C1033.490234,1065.893677 1022.744568,1064.357666 1012.006470,1063.097534 
	C1001.439880,1061.857544 990.787903,1061.345215 980.147461,1059.710938 
	C989.598999,1059.710938 999.050537,1059.710938 1009.001831,1059.727051 
z"/>
<path fill="#375E91" opacity="1.000000" stroke="none" 
	d="
M459.200867,567.466064 
	C458.016754,567.816101 456.803101,567.896057 455.589478,567.975952 
	C455.536774,567.717041 455.484070,567.458069 455.431366,567.199097 
	C456.443268,566.837830 457.455170,566.476501 458.791077,566.113770 
	C459.133850,566.473511 459.152588,566.834778 459.200867,567.466064 
z"/>
<path fill="#6189B9" opacity="1.000000" stroke="none" 
	d="
M1495.000000,565.999634 
	C1495.285645,566.206665 1495.571411,566.413940 1495.857056,566.621216 
	C1495.574463,566.559937 1495.291992,566.498718 1495.004272,566.219971 
	C1494.999146,566.002441 1495.000000,566.000000 1495.000000,565.999634 
z"/>
<path fill="#6088B8" opacity="1.000000" stroke="none" 
	d="
M1155.031738,1340.035400 
	C1154.953979,1340.549683 1154.704834,1340.915039 1154.455566,1341.280396 
	C1154.383667,1340.854614 1154.311646,1340.428833 1154.375244,1339.799805 
	C1154.510742,1339.596558 1154.860352,1339.886353 1155.031738,1340.035400 
z"/>
<path fill="#6189B9" opacity="1.000000" stroke="none" 
	d="
M1634.029297,144.972046 
	C1634.353882,145.135956 1634.644409,145.339722 1634.934937,145.543488 
	C1634.658813,145.515945 1634.382568,145.488403 1634.017334,145.276840 
	C1633.928345,145.092804 1633.995117,145.011917 1634.029297,144.972046 
z"/>
<path fill="#5F87B7" opacity="1.000000" stroke="none" 
	d="
M1093.581177,1196.599121 
	C1093.900879,1196.439453 1094.220703,1196.279785 1094.540527,1196.120361 
	C1094.556396,1196.367676 1094.572144,1196.614990 1094.228516,1196.871338 
	C1093.868896,1196.880249 1093.581177,1196.599121 1093.581177,1196.599121 
z"/>
<path fill="#5F87B7" opacity="1.000000" stroke="none" 
	d="
M1094.010986,1197.022583 
	C1093.937256,1197.357056 1093.721436,1197.549194 1093.505615,1197.741455 
	C1093.432251,1197.479004 1093.359131,1197.216553 1093.433594,1196.776611 
	C1093.581177,1196.599121 1093.868896,1196.880249 1094.010986,1197.022583 
z"/>
<path fill="#01295F" opacity="1.000000" stroke="none" 
	d="
M341.722534,337.776489 
	C352.552032,313.840973 369.747498,295.422424 389.445343,278.036499 
	C368.352539,259.577301 346.091888,265.453705 322.905975,273.841339 
	C328.433624,262.494995 335.643005,253.532104 344.560608,245.962036 
	C358.653931,233.998322 375.194580,228.117035 393.509491,226.953568 
	C409.654205,225.927963 425.404816,228.124451 440.823090,232.922073 
	C442.086700,233.315277 443.378479,233.626831 444.672241,233.906448 
	C444.920105,233.960022 445.238770,233.685638 446.375824,233.196289 
	C418.865021,205.299484 383.979950,199.145569 346.232422,197.287689 
	C348.258118,195.227798 349.473022,193.822189 350.857208,192.609909 
	C381.116974,166.108047 415.020508,162.204514 451.461487,177.228439 
	C484.885620,191.008575 511.248444,214.285431 534.686584,241.211517 
	C534.987976,241.557831 535.066833,242.097885 535.332336,242.751144 
	C528.893921,244.694183 522.476135,246.410431 516.206848,248.560043 
	C483.614594,259.735352 454.252716,277.043884 426.114594,296.564240 
	C395.672119,317.683197 367.179260,341.219604 340.276001,366.687714 
	C339.003021,367.892792 337.627716,368.989899 335.409546,370.906891 
	C334.161591,358.511841 337.658173,348.281738 341.722534,337.776489 
z"/>
</svg>