<svg version="1.1" id="Layer_1" xmlns="http://www.w3.org/2000/svg" xmlns:xlink="http://www.w3.org/1999/xlink" x="0px" y="0px"
	 width="100%" viewBox="0 0 264 262" enable-background="new 0 0 264 262" xml:space="preserve">
<path fill="#FEFDFD" opacity="1.000000" stroke="none"
	d="
M110.000000,0.999999 
	C125.020897,1.000000 140.041794,1.000000 155.230774,1.351562 
	C155.889572,2.121102 156.336838,2.834946 156.877228,2.914220 
	C175.190140,5.600756 191.747772,12.668624 206.839264,23.169306 
	C204.734161,23.685820 202.845093,23.922392 200.666870,24.102104 
	C199.920853,23.688581 199.464005,23.331919 198.866943,22.753498 
	C198.409348,22.406658 198.091965,22.281574 197.830688,22.139648 
	C197.886765,22.122805 197.830109,22.225307 197.852646,21.913277 
	C197.240173,21.431177 196.605148,21.261106 195.625305,21.024445 
	C193.839691,20.182329 192.398880,19.406803 190.838440,18.470289 
	C190.510941,18.123262 190.267776,18.021605 189.636719,17.978050 
	C187.184708,16.907146 185.085342,15.862523 182.841125,14.623884 
	C182.436798,14.201394 182.135483,14.108453 181.844177,14.136354 
	C181.896042,14.121664 181.876450,14.227674 181.820801,13.940014 
	C180.820908,13.446560 179.876648,13.240767 178.554520,13.018869 
	C174.774185,11.908862 171.371719,10.814958 167.777328,9.530474 
	C167.234848,9.279589 166.884293,9.219286 166.144897,9.157678 
	C164.781677,8.863516 163.807312,8.570660 162.705231,8.195473 
	C162.388519,8.025269 162.190247,7.991006 161.579468,8.019636 
	C157.105164,7.633292 153.034073,7.237668 149.069000,7.101722 
	C149.480011,7.560365 149.785034,7.759329 150.066681,7.968806 
	C150.043335,7.979318 150.056732,7.929662 150.040771,8.333690 
	C150.018433,9.815933 150.012039,10.894149 149.634888,11.972139 
	C147.170959,11.257095 145.077820,10.542275 142.752655,9.615625 
	C142.110001,9.370210 141.699371,9.336625 140.899277,9.385723 
	C123.753593,7.383299 107.011421,6.169690 90.765923,12.313855 
	C74.909683,18.310801 60.331646,26.445694 48.357750,38.828636 
	C50.629990,38.768799 52.683575,38.269913 54.607506,37.462204 
	C66.717705,32.378098 78.733948,26.914495 92.433846,28.903393 
	C99.817177,29.975277 107.927811,28.616201 113.508308,35.718414 
	C114.318611,36.749660 116.909119,36.723915 118.644409,36.626579 
	C125.642647,36.234047 132.049576,37.831322 138.392273,40.854347 
	C141.942947,42.546654 146.237732,42.610390 150.102158,43.734718 
	C152.822617,44.526218 155.383011,45.867863 158.009750,47.348743 
	C158.110077,49.162132 158.215530,50.590645 158.292786,51.637306 
	C162.261215,52.436306 165.725647,53.133831 169.112717,53.877708 
	C169.035370,53.924061 169.157074,53.790970 169.116653,54.145283 
	C169.630463,57.080887 170.337250,59.240543 173.345642,55.965706 
	C174.442276,56.376358 175.217316,56.749310 176.000122,57.453758 
	C176.246948,58.362034 176.486008,58.938805 176.725052,59.515575 
	C177.163284,58.958355 177.601517,58.401138 178.432526,57.863655 
	C183.558151,58.990208 188.291031,60.097031 193.284180,61.441727 
	C194.479691,61.746964 195.414948,61.814323 196.596664,61.758766 
	C197.201401,61.677402 197.559647,61.718967 197.987244,61.951794 
	C198.378067,61.951488 198.699570,61.759922 199.330887,61.424202 
	C200.091370,61.290733 200.542023,61.301414 201.074127,61.630150 
	C203.798386,62.826275 207.332703,62.713223 206.390839,67.091911 
	C200.623703,67.044266 195.313568,66.973099 189.938141,66.564316 
	C188.867325,66.301582 187.861755,66.376472 186.448456,66.415855 
	C182.021652,65.204536 178.002563,64.028725 173.671219,62.590385 
	C171.371948,62.260704 169.384949,62.193542 167.058533,62.227028 
	C164.482803,60.867065 162.246475,59.406452 159.871140,57.724487 
	C159.421799,57.360722 159.111481,57.218307 158.542038,57.015610 
	C158.165863,56.822075 158.048798,56.688820 157.801086,56.405403 
	C157.446960,56.090134 157.196457,56.014553 156.464691,56.081726 
	C146.197357,55.744717 136.373962,54.905354 126.574951,55.130032 
	C120.543938,55.268314 113.988533,55.858616 108.696030,58.392231 
	C103.291328,60.979553 98.119553,61.849766 92.462158,61.869400 
	C89.464828,61.879807 86.433212,61.676914 83.483406,62.069164 
	C81.732475,62.302002 79.899765,63.228905 78.467964,64.321106 
	C72.905388,68.564285 67.901321,73.883614 59.747311,71.759903 
	C57.703133,71.227493 55.374115,71.091156 53.308510,71.478828 
	C48.495369,72.382141 43.144348,72.682190 39.126240,75.088486 
	C30.732302,80.115311 23.018860,86.291222 15.124597,92.128609 
	C13.589920,93.263420 11.827948,94.801048 11.315607,96.498421 
	C6.172165,113.538483 4.675279,130.893692 7.095775,148.518555 
	C12.773893,143.087204 18.081732,137.631470 23.822971,132.678070 
	C26.691456,130.203217 30.245092,128.426758 33.691391,126.750999 
	C35.986229,125.635139 39.320084,125.977295 40.993092,124.399170 
	C44.765583,120.840637 49.077457,119.979683 53.805851,120.133171 
	C57.391171,120.249542 59.930225,118.901306 62.630783,116.524734 
	C64.781998,114.631599 68.085976,113.428772 70.995789,113.150948 
	C76.442268,112.630905 81.975189,113.064720 87.469231,112.955063 
	C88.623032,112.932030 90.040733,112.584526 90.857918,111.852158 
	C93.067276,109.872116 95.073212,107.653282 97.061844,105.441078 
	C101.913017,100.044548 107.555534,98.320969 114.953560,99.492996 
	C124.426109,100.993683 134.111420,101.151321 143.936096,101.892906 
	C144.488602,101.848167 144.746933,101.693085 145.267792,101.285446 
	C146.067245,101.140274 146.541031,101.142525 147.228302,101.369881 
	C148.296448,101.105721 149.151108,100.616455 150.181534,100.012695 
	C150.357285,99.898186 150.776428,99.915634 151.015411,99.887535 
	C151.575302,99.752182 151.815460,99.549339 152.211563,99.117310 
	C152.629395,98.981804 152.810577,98.979897 153.174515,99.220657 
	C154.574890,98.720444 155.792511,97.977577 157.316391,97.064270 
	C159.563507,96.173820 161.504364,95.453796 163.785645,94.922119 
	C165.978897,96.865623 167.840179,98.498001 170.345764,95.438637 
	C171.773987,95.545303 172.875732,95.729729 173.996918,96.171608 
	C174.232376,96.659607 174.448364,96.890144 174.664352,97.120682 
	C174.778275,96.738037 174.892197,96.355385 175.432434,95.917389 
	C177.568390,95.990204 179.278046,96.118370 181.061157,96.622566 
	C182.644104,97.423508 184.153610,97.848419 185.627289,98.285660 
	C185.591492,98.297989 185.553162,98.232681 185.671616,98.631775 
	C188.192337,104.343750 191.161942,101.119392 194.327179,99.464661 
	C195.717163,99.444756 196.799713,99.537956 197.939148,99.834061 
	C198.337479,99.901253 198.678940,99.765526 199.390762,99.425362 
	C204.517441,98.568123 209.273743,97.915314 214.192963,97.445007 
	C214.899246,97.471619 215.442612,97.315727 216.248947,97.084320 
	C216.694290,97.011810 216.876663,97.014816 217.436310,97.021622 
	C219.847168,98.377800 221.880722,99.730171 223.946289,101.353523 
	C224.008347,101.804436 224.038406,101.984367 224.263062,102.470596 
	C224.946091,105.186180 225.434494,107.595474 225.765533,110.104630 
	C225.744278,110.470207 225.880386,110.735939 226.178680,111.390488 
	C226.894913,116.185913 227.448959,120.592506 227.754181,125.112259 
	C227.916687,126.472588 228.328003,127.719765 228.841583,129.382477 
	C228.852646,131.214096 228.761459,132.630188 228.492676,134.224121 
	C228.524353,134.940842 228.733612,135.479691 228.968872,136.007248 
	C228.994873,135.995941 228.983505,136.051468 229.214218,136.315918 
	C230.130310,136.670074 230.815689,136.759796 231.857727,136.802124 
	C233.812073,137.210190 235.409760,137.665619 237.177887,138.321259 
	C237.682388,138.531097 238.016449,138.540695 238.376953,138.535980 
	C238.403381,138.521667 238.462784,138.512222 238.334396,139.019409 
	C238.157501,140.570251 238.108978,141.613937 237.643585,142.647400 
	C236.147293,142.379410 235.067902,142.121643 233.812500,141.573578 
	C232.091049,141.196289 230.545563,141.109314 228.785843,141.142792 
	C228.327301,141.484802 228.115067,141.733704 227.701447,142.190826 
	C227.582367,143.241058 227.696777,144.110413 227.857971,145.412384 
	C226.893234,152.901154 225.881714,159.957321 224.624588,167.221893 
	C224.206924,168.948486 224.034866,170.466690 223.909836,172.262543 
	C223.816986,173.077545 223.677124,173.614883 223.185608,174.258469 
	C222.853485,174.993958 222.873016,175.623169 222.943710,176.533691 
	C222.930130,176.994247 222.865372,177.173508 222.409149,176.971283 
	C221.239563,175.858719 220.461472,175.127625 219.692383,173.977997 
	C220.065811,171.632889 220.430252,169.706345 220.860107,167.641846 
	C220.990112,167.304901 221.000290,167.103149 220.909698,166.485291 
	C221.011703,164.698074 221.160049,163.324188 221.522491,161.696411 
	C221.799591,160.564453 221.862610,159.686371 221.872437,158.379639 
	C222.032394,155.947083 222.245544,153.943207 222.565735,151.861664 
	C222.829758,151.527008 222.792099,151.296677 222.471619,150.687927 
	C222.493927,147.234756 222.604446,144.186661 222.956985,141.018951 
	C223.287598,140.504440 223.376205,140.109528 223.464813,139.714630 
	C222.648071,140.090179 221.831329,140.465729 220.624344,140.917999 
	C218.157578,141.301788 216.081085,141.608871 213.982330,141.669189 
	C213.779266,141.184799 213.598450,140.947159 213.417633,140.709534 
	C213.279114,141.156204 213.140610,141.602890 212.878723,142.156586 
	C212.755371,142.263611 212.446075,142.158524 212.180511,142.151855 
	C211.622620,142.328461 211.330261,142.511719 210.721008,142.811096 
	C209.956848,142.959717 209.509613,142.992203 208.728455,143.010315 
	C207.591843,143.540314 206.789154,144.084717 205.712830,144.854843 
	C202.952316,146.353821 200.465454,147.627060 197.977707,148.543762 
	C197.252747,144.976334 196.364975,146.155518 194.505402,147.633881 
	C191.666824,149.890564 188.298126,151.491837 185.108536,153.289825 
	C183.877716,153.983658 182.521194,154.454544 181.221939,155.027008 
	C181.404266,155.457901 181.586578,155.888794 181.768906,156.319687 
	C182.684570,156.588882 183.600220,156.858093 184.402786,157.383026 
	C184.150864,157.763153 184.012039,157.887573 183.665924,158.146271 
	C183.210236,158.523010 183.077820,158.817612 183.012115,159.452621 
	C182.377899,160.499466 181.792953,161.258072 180.853058,162.036407 
	C178.700089,162.056168 176.902100,162.056168 174.472458,162.056168 
	C174.362427,164.073624 174.250519,166.125671 174.109741,168.126923 
	C174.080872,168.076141 174.189743,168.118546 173.933075,168.177170 
	C173.455063,168.497894 173.233719,168.759995 173.007614,169.009705 
	C173.002853,168.997314 173.024841,169.014771 172.812790,169.079056 
	C172.328125,169.289474 172.135056,169.506424 171.801636,170.037033 
	C170.139175,171.219452 168.696594,172.158997 166.987122,173.161011 
	C166.486099,173.493820 166.252014,173.764145 166.009415,174.016373 
	C166.000916,173.998260 166.033371,174.022064 165.738083,174.039886 
	C165.290665,174.703827 165.138535,175.349915 165.022797,176.334808 
	C164.950348,177.111908 164.841507,177.550201 164.459305,178.033478 
	C164.131668,178.721191 164.077408,179.363922 164.048279,180.267395 
	C164.008484,180.690247 163.943542,180.852356 163.628555,181.257111 
	C163.248428,182.422287 163.118332,183.344803 163.021545,184.525848 
	C162.488129,186.963776 161.921387,189.143188 161.228882,191.742691 
	C161.074341,192.453720 161.045609,192.744644 161.044586,193.373352 
	C160.975098,194.148529 160.877899,194.585922 160.575119,195.233215 
	C160.311935,195.825333 160.254349,196.207550 160.194458,196.919785 
	C157.143494,200.500732 154.094849,203.751694 150.732727,207.003647 
	C149.851410,207.171875 149.283554,207.339111 148.715714,207.506363 
	C149.218048,208.029953 149.720383,208.553543 150.207947,209.327286 
	C150.100510,209.716446 150.007858,209.855453 149.565033,210.002426 
	C145.172577,210.745178 149.058121,213.466263 147.982452,215.275818 
	C147.628525,216.409027 147.271057,217.209869 146.682083,218.237137 
	C146.404495,218.884720 146.358429,219.305893 146.349915,220.060593 
	C145.930634,221.598145 145.473770,222.802139 144.665070,224.059845 
	C143.899017,225.107895 143.484818,226.102234 143.036682,227.062531 
	C143.002762,227.028473 143.094009,227.058777 142.721512,227.046570 
	C137.969833,227.091751 139.660736,229.899139 139.983765,232.434235 
	C138.847153,233.625290 137.773834,234.497620 136.472397,235.327484 
	C136.399277,235.363327 136.554245,235.441666 137.021454,235.665253 
	C137.225082,236.207138 137.116486,236.603790 136.656128,237.033905 
	C135.208786,238.452423 134.113174,239.837479 132.894409,241.509583 
	C131.243118,243.224472 129.714996,244.652313 127.815689,246.086243 
	C126.129547,246.738892 124.140930,247.053497 123.627678,248.095093 
	C122.166779,251.059830 116.821045,249.612091 116.849876,254.409378 
	C115.812439,254.943649 114.989784,255.231354 114.010437,255.232361 
	C105.713364,255.253540 112.224739,259.425140 111.632065,261.905457 
	C110.330238,261.657471 109.445328,261.299988 108.537224,261.016907 
	C97.414642,257.549438 85.841911,255.100998 75.261559,250.412369 
	C56.363956,242.038010 40.879967,228.764954 28.113939,212.534866 
	C15.197386,196.113388 6.870962,177.515610 2.928187,156.963913 
	C2.784237,156.213577 1.664817,155.650406 1.000000,155.000000 
	C1.000000,139.979111 1.000000,124.958214 1.349626,109.768387 
	C2.126670,108.940498 2.727833,108.336288 2.955352,107.614334 
	C6.173489,97.402565 8.506130,86.817307 12.698913,77.027306 
	C20.777435,58.164223 33.662216,42.746895 49.615971,29.826504 
	C65.639725,16.849417 83.557236,8.015790 103.808182,3.901880 
	C105.979042,3.460878 107.941086,1.992038 110.000000,0.999999 
M215.943298,136.925018 
	C215.943298,136.925018 215.861328,136.876358 216.596405,136.964127 
	C217.725769,136.690903 218.855148,136.417694 220.814560,135.949692 
	C221.548355,134.830383 222.873322,133.728043 222.906021,132.588608 
	C223.007645,129.049805 222.618683,125.496902 222.645309,121.748817 
	C222.764099,121.425468 222.659760,121.185822 222.121658,120.188286 
	C222.026382,117.644096 221.931091,115.099899 221.917450,111.853119 
	C221.653976,111.240067 221.390503,110.627014 220.876556,109.343468 
	C220.529541,107.726898 220.182526,106.110329 219.853485,103.945290 
	C219.667435,103.642044 219.481369,103.338799 218.954666,102.422440 
	C218.612640,102.113594 218.270599,101.804749 217.738602,101.295807 
	C217.445816,101.183830 217.217529,101.268379 216.180359,101.814102 
	C213.450623,101.947586 210.720901,102.081070 207.928467,101.545547 
	C207.246536,101.123894 206.564606,100.702232 205.882675,100.280579 
	C205.904984,101.103149 205.927292,101.925720 205.144897,102.990974 
	C201.700775,103.574745 198.269241,104.540298 194.809616,104.654564 
	C189.350082,104.834908 183.871658,104.443665 177.873795,103.693367 
	C172.874969,102.806152 167.328964,107.041626 167.570938,111.544441 
	C167.570938,111.544441 167.502258,111.666847 166.921768,111.455872 
	C166.612991,111.929161 166.304199,112.402443 165.195343,113.246956 
	C159.454147,112.332848 155.073151,115.274597 150.470779,118.061470 
	C146.431213,120.507538 142.043625,123.720665 137.673035,123.946243 
	C131.921127,124.243118 127.920128,125.655724 124.895737,130.477905 
	C123.313622,133.000488 121.236145,135.212784 119.378288,137.561966 
	C115.811302,142.072250 111.963104,146.026276 105.619278,146.292053 
	C101.405426,146.468567 97.637932,147.811371 94.425461,150.900055 
	C93.357750,151.926636 91.071968,151.841141 89.321289,151.971191 
	C85.358963,152.265564 80.554207,151.046112 77.609154,152.879395 
	C73.310295,155.555450 68.757454,157.734451 64.564285,160.346008 
	C54.514080,166.605362 43.087009,172.304703 41.066959,186.148407 
	C40.996929,186.628326 40.655861,187.062622 40.531193,187.541626 
	C39.689594,190.775375 37.857586,192.221344 34.288052,192.571640 
	C30.623774,192.931213 27.082764,194.546875 22.069527,196.033371 
	C27.937864,203.701187 32.784988,209.788681 37.357868,216.075684 
	C42.399887,223.007660 49.746738,224.090179 57.487980,225.106567 
	C68.654633,226.572708 79.138771,222.811905 89.943619,221.606613 
	C91.662468,221.414871 93.459335,219.818695 94.770592,218.443237 
	C100.278450,212.665665 105.486282,206.598831 111.066788,200.895050 
	C114.102448,197.792297 117.746689,195.300354 117.322609,190.188843 
	C117.257828,189.407990 118.085648,188.445862 118.696663,187.736435 
	C120.469498,185.678055 122.824425,183.964050 124.068542,181.642120 
	C126.225220,177.617081 129.098480,174.863434 133.354141,173.171341 
	C136.895050,171.763428 140.263687,169.872787 143.589828,167.986511 
	C147.842117,165.575012 152.868698,164.092133 155.576843,159.227859 
	C156.712234,158.547241 157.847626,157.866623 159.615463,156.886810 
	C161.179535,156.500320 162.743622,156.113831 164.932632,155.791458 
	C165.282852,155.586166 165.633087,155.380875 166.685135,154.901169 
	C168.403381,154.580261 170.121643,154.259354 172.231720,153.936417 
	C172.500671,153.891174 172.723740,153.764908 173.536774,153.207397 
	C174.007263,153.098129 174.477737,152.988876 175.333374,153.415970 
	C179.253281,153.551193 181.870850,152.439331 180.798248,147.865326 
	C180.798248,147.865326 180.686951,147.820892 181.271805,147.700165 
	C181.517227,147.185364 181.762650,146.670578 182.642960,145.955032 
	C183.083847,145.937729 183.524734,145.920410 184.274551,146.396194 
	C185.180054,145.968048 186.085556,145.539902 187.598236,144.787308 
	C189.403351,143.897675 191.208450,143.008041 193.486511,142.601440 
	C194.974823,142.496735 196.463135,142.392044 198.622269,141.989029 
	C200.033356,141.639420 201.444458,141.289825 203.635483,140.992752 
	C204.704819,140.543396 205.774155,140.094040 206.848221,139.793381 
	C206.848221,139.793381 206.717743,139.721970 207.205292,139.789383 
	C207.552475,139.727753 207.810776,139.542328 208.469849,139.007599 
	C208.649399,139.014755 208.828964,139.021927 209.328827,139.466507 
	C209.888657,139.051071 210.448502,138.635635 211.530869,137.974762 
	C211.910904,137.941132 212.290955,137.907501 213.421524,137.953476 
	C214.259445,137.578995 215.097366,137.204514 215.943298,136.925018 
M143.109253,5.983497 
	C143.402588,5.861305 143.698318,5.743913 143.982468,5.603189 
	C143.997162,5.595906 143.915054,5.290602 143.874710,5.289798 
	C142.936401,5.271098 141.997620,5.275337 141.058914,5.275337 
	C141.067719,5.441283 141.076523,5.607228 141.085327,5.773174 
	C141.558624,5.848036 142.031906,5.922897 143.109253,5.983497 
M158.520340,102.915558 
	C158.761292,102.772209 159.002228,102.628853 159.243164,102.485497 
	C158.994705,102.352715 158.683182,102.060699 158.513885,102.127769 
	C158.305756,102.210236 158.216309,102.592308 158.520340,102.915558 
M146.482498,6.589666 
	C146.482498,6.589666 146.414658,6.476640 146.482498,6.589666 
M224.415695,115.483177 
	C224.415695,115.483177 224.522919,115.419960 224.415695,115.483177 
M190.585449,148.516663 
	C190.585449,148.516663 190.476974,148.580780 190.585449,148.516663 
z"/>
<path fill="none" opacity="1.000000" stroke="none"
	d="
M1.000000,155.468658 
	C1.664817,155.650406 2.784237,156.213577 2.928187,156.963913 
	C6.870962,177.515610 15.197386,196.113388 28.113939,212.534866 
	C40.879967,228.764954 56.363956,242.038010 75.261559,250.412369 
	C85.841911,255.100998 97.414642,257.549438 108.537224,261.016907 
	C109.445328,261.299988 110.330238,261.657471 111.860687,262.205566 
	C112.330292,262.620514 112.165146,262.810272 112.000000,263.000000 
	C75.074051,263.000000 38.148106,263.000000 1.000000,263.000000 
	C1.000000,227.312744 1.000000,191.625031 1.000000,155.468658 
z"/>
<path fill="none" opacity="1.000000" stroke="none"
	d="
M207.055328,22.889366 
	C191.747772,12.668624 175.190140,5.600756 156.877228,2.914220 
	C156.336838,2.834946 155.889572,2.121102 155.699432,1.351562 
	C192.259933,1.000000 228.519882,1.000000 265.000000,1.000000 
	C265.000000,36.687260 265.000000,72.374969 264.649414,108.827919 
	C263.750336,107.796547 263.109589,106.022316 262.667725,104.199860 
	C258.156128,85.592163 251.392212,67.844116 238.853348,53.205360 
	C230.500092,43.453175 220.546143,35.072044 211.164124,25.816360 
	C210.027023,24.996347 209.034378,24.437254 207.977158,23.632202 
	C207.626816,23.220617 207.341080,23.054993 207.055328,22.889366 
z"/>
<path fill="none" opacity="1.000000" stroke="none"
	d="
M265.000000,155.000000 
	C265.000000,190.927292 265.000000,226.854568 265.000000,263.000000 
	C228.979401,263.000000 192.958359,263.000000 156.170639,262.647705 
	C156.067184,261.873322 156.692963,261.164001 157.399231,261.071899 
	C169.308243,259.518799 180.436066,255.420700 191.173721,250.323654 
	C209.736984,241.511856 225.179291,228.645889 237.860550,212.573792 
	C250.810745,196.160843 259.123474,177.543457 263.083069,156.985901 
	C263.228851,156.228943 264.339172,155.657761 265.000000,155.000000 
z"/>
<path fill="none" opacity="1.000000" stroke="none"
	d="
M109.531342,0.999999 
	C107.941086,1.992038 105.979042,3.460878 103.808182,3.901880 
	C83.557236,8.015790 65.639725,16.849417 49.615971,29.826504 
	C33.662216,42.746895 20.777435,58.164223 12.698913,77.027306 
	C8.506130,86.817307 6.173489,97.402565 2.955352,107.614334 
	C2.727833,108.336288 2.126670,108.940498 1.349626,109.299728 
	C1.000000,73.072716 1.000000,37.145435 1.000000,1.000000 
	C37.020599,1.000000 73.041641,1.000000 109.531342,0.999999 
z"/>
<path fill="#FAF4F6" opacity="1.000000" stroke="none" 
	d="
M265.000000,154.531342 
	C264.339172,155.657761 263.228851,156.228943 263.083069,156.985901 
	C259.123474,177.543457 250.810745,196.160843 237.860550,212.573792 
	C225.179291,228.645889 209.736984,241.511856 191.173721,250.323654 
	C180.436066,255.420700 169.308243,259.518799 157.399231,261.071899 
	C156.692963,261.164001 156.067184,261.873322 155.701981,262.647705 
	C141.645767,263.000000 127.291542,263.000000 112.468658,263.000000 
	C112.165146,262.810272 112.330292,262.620514 112.266823,262.130615 
	C112.224739,259.425140 105.713364,255.253540 113.772614,255.450378 
	C110.661217,259.031097 114.217834,258.470276 115.371468,258.696533 
	C135.760208,262.695557 154.540787,257.485260 171.555557,246.832535 
	C185.479599,238.114838 196.568893,225.940598 204.696915,211.503830 
	C208.588684,204.591385 211.608093,197.187820 215.393341,190.005249 
	C216.752686,189.998734 217.741302,189.993622 218.695328,190.346268 
	C211.036972,214.028946 196.996368,232.799469 178.019943,248.094086 
	C176.928116,248.974075 176.194595,250.298584 175.294312,251.416229 
	C176.950638,252.135162 177.919693,252.078613 178.765930,251.726730 
	C219.151627,234.933472 245.801239,205.921173 257.041016,163.350845 
	C257.502808,161.601837 256.843079,159.101517 255.835205,157.498764 
	C251.546371,150.678665 245.085938,146.292114 238.060455,142.657608 
	C238.108978,141.613937 238.157501,140.570251 238.692215,139.067688 
	C245.908859,142.844467 252.639297,147.080154 259.515747,151.407745 
	C261.659332,138.156799 261.239746,124.813080 259.269379,111.393204 
	C258.612915,106.922287 257.279022,103.926346 252.926361,103.133926 
	C253.857437,102.085274 254.423843,101.131943 255.398224,100.047821 
	C255.216751,96.972229 254.935608,93.923820 253.986679,91.099800 
	C248.710297,75.397301 240.549377,61.351273 230.253098,49.568092 
	C224.455002,55.275620 218.894669,60.749096 213.035034,66.517212 
	C215.165604,72.087494 217.657364,78.405205 219.992889,84.780159 
	C221.456924,88.776299 222.686066,92.858498 224.144302,97.145599 
	C224.215027,98.558197 224.162048,99.727272 224.060425,100.942955 
	C224.011780,100.989555 223.914291,101.082550 223.914291,101.082550 
	C221.880722,99.730171 219.847168,98.377800 217.546204,96.626419 
	C213.801804,86.507744 210.324829,76.788071 206.847839,67.068398 
	C207.332703,62.713223 203.798386,62.826275 201.434082,61.513325 
	C201.811020,60.164711 202.343994,58.940319 201.944992,58.382191 
	C188.111603,39.031582 173.342392,20.694803 150.005646,11.972364 
	C150.012039,10.894149 150.018433,9.815933 150.401245,8.370545 
	C156.821472,11.100511 163.233139,13.647947 168.838974,17.399530 
	C184.626068,27.964699 197.958359,41.087807 207.656998,57.590614 
	C209.251236,60.303310 211.118576,60.713703 213.257858,58.875145 
	C216.863632,55.776192 220.351883,52.511856 223.630875,49.070583 
	C226.149200,46.427589 225.782883,43.827179 222.767181,41.479759 
	C215.441376,35.777359 208.219681,29.941221 200.956039,24.158966 
	C202.845093,23.922392 204.734161,23.685820 206.839264,23.169308 
	C207.341080,23.054993 207.626816,23.220617 207.966125,24.048086 
	C208.404434,25.700853 208.789200,26.691776 209.173950,27.682701 
	C209.885513,27.147564 210.597061,26.612427 211.308594,26.077282 
	C220.546143,35.072044 230.500092,43.453175 238.853348,53.205360 
	C251.392212,67.844116 258.156128,85.592163 262.667725,104.199860 
	C263.109589,106.022316 263.750336,107.796547 264.649414,109.296577 
	C265.000000,124.020897 265.000000,139.041794 265.000000,154.531342 
z"/>
<path fill="#CE073F" opacity="1.000000" stroke="none" 
	d="
M155.064209,159.025940 
	C152.868698,164.092133 147.842117,165.575012 143.589828,167.986511 
	C140.263687,169.872787 136.895050,171.763428 133.354141,173.171341 
	C129.098480,174.863434 126.225220,177.617081 124.068542,181.642120 
	C122.824425,183.964050 120.469498,185.678055 118.696663,187.736435 
	C118.085648,188.445862 117.257828,189.407990 117.322609,190.188843 
	C117.746689,195.300354 114.102448,197.792297 111.066788,200.895050 
	C105.486282,206.598831 100.278450,212.665665 94.770592,218.443237 
	C93.459335,219.818695 91.662468,221.414871 89.943619,221.606613 
	C79.138771,222.811905 68.654633,226.572708 57.487980,225.106567 
	C49.746738,224.090179 42.399887,223.007660 37.357868,216.075684 
	C32.784988,209.788681 27.937864,203.701187 22.069527,196.033371 
	C27.082764,194.546875 30.623774,192.931213 34.288052,192.571640 
	C37.857586,192.221344 39.689594,190.775375 40.531193,187.541626 
	C40.655861,187.062622 40.996929,186.628326 41.066959,186.148407 
	C43.087009,172.304703 54.514080,166.605362 64.564285,160.346008 
	C68.757454,157.734451 73.310295,155.555450 77.609154,152.879395 
	C80.554207,151.046112 85.358963,152.265564 89.321289,151.971191 
	C91.071968,151.841141 93.357750,151.926636 94.425461,150.900055 
	C97.637932,147.811371 101.405426,146.468567 105.619278,146.292053 
	C111.963104,146.026276 115.811302,142.072250 119.378288,137.561966 
	C121.236145,135.212784 123.313622,133.000488 124.895737,130.477905 
	C127.920128,125.655724 131.921127,124.243118 137.673035,123.946243 
	C142.043625,123.720665 146.431213,120.507538 150.470779,118.061470 
	C155.073151,115.274597 159.454147,112.332848 165.853394,113.043007 
	C166.841705,112.448318 167.171982,112.057587 167.502258,111.666847 
	C167.502258,111.666847 167.570938,111.544441 167.894333,111.338333 
	C170.798264,109.133141 173.378784,107.134048 176.354034,105.161240 
	C177.062042,104.864372 177.375320,104.541237 177.858383,104.315430 
	C178.028168,104.412773 178.401230,104.294357 178.401230,104.294357 
	C183.871658,104.443665 189.350082,104.834908 194.809616,104.654564 
	C198.269241,104.540298 201.700775,103.574745 205.821198,102.909241 
	C206.995392,102.623192 207.493271,102.418877 207.991165,102.214554 
	C210.720901,102.081070 213.450623,101.947586 216.840149,101.740326 
	C217.499939,101.666542 217.928574,101.495911 217.928574,101.495911 
	C218.270599,101.804749 218.612640,102.113594 219.096085,103.006729 
	C219.436844,103.891930 219.636169,104.192848 219.835510,104.493767 
	C220.182526,106.110329 220.529541,107.726898 220.961136,110.019897 
	C221.309082,111.316124 221.572449,111.935921 221.835815,112.555710 
	C221.931091,115.099899 222.026382,117.644096 222.169067,120.846588 
	C222.216492,121.504890 222.420044,121.949471 222.420044,121.949471 
	C222.618683,125.496902 223.007645,129.049805 222.906021,132.588608 
	C222.873322,133.728043 221.548355,134.830383 220.036987,135.980453 
	C218.126724,136.299591 216.994034,136.587967 215.861328,136.876358 
	C215.861328,136.876358 215.943298,136.925018 215.584808,136.872147 
	C214.374542,137.170807 213.522766,137.522354 212.670990,137.873871 
	C212.290955,137.907501 211.910904,137.941132 210.987106,138.072479 
	C209.965073,138.456497 209.486801,138.742798 209.008514,139.029083 
	C208.828964,139.021927 208.649399,139.014755 207.977692,139.091888 
	C207.104584,139.182251 206.848663,139.364182 206.717743,139.721970 
	C206.717743,139.721970 206.848221,139.793381 206.488327,139.747498 
	C205.037476,140.114471 203.946503,140.527359 202.855545,140.940231 
	C201.444458,141.289825 200.033356,141.639420 197.874649,142.110840 
	C195.755875,142.194580 194.384720,142.156494 193.013565,142.118408 
	C191.208450,143.008041 189.403351,143.897675 186.970230,144.908997 
	C185.550034,145.321503 184.757828,145.612305 183.965622,145.903107 
	C183.524734,145.920410 183.083847,145.937729 182.010071,146.055801 
	C181.147095,146.711334 180.917023,147.266113 180.686951,147.820892 
	C180.686951,147.820892 180.798248,147.865326 180.515518,148.002518 
	C178.471252,149.719666 176.709732,151.299622 174.948212,152.879608 
	C174.477737,152.988876 174.007263,153.098129 173.015472,153.320435 
	C172.190704,153.491119 171.972610,153.659454 171.839890,153.938446 
	C170.121643,154.259354 168.403381,154.580261 166.020355,155.009125 
	C165.006287,155.320511 164.656998,155.523926 164.307693,155.727356 
	C162.743622,156.113831 161.179535,156.500320 158.967468,157.019287 
	C157.234390,157.776489 156.149292,158.401215 155.064209,159.025940 
z"/>
<path fill="#CE063E" opacity="1.000000" stroke="none" 
	d="
M206.390854,67.091911 
	C210.324829,76.788071 213.801804,86.507744 217.168915,96.622620 
	C216.876663,97.014816 216.694290,97.011810 215.921432,97.019073 
	C214.897308,97.107056 214.463684,97.184784 214.030045,97.262512 
	C209.273743,97.915314 204.517441,98.568123 199.215485,99.293762 
	C198.348236,99.278915 198.085693,99.367096 197.882248,99.631149 
	C196.799713,99.537956 195.717163,99.444756 193.940048,99.334366 
	C189.159546,98.293633 185.073608,97.270081 180.987686,96.246536 
	C179.278046,96.118370 177.568390,95.990204 175.334824,95.789719 
	C174.466537,95.559906 174.188721,95.625488 173.977463,95.914146 
	C172.875732,95.729729 171.773987,95.545303 169.976669,95.300400 
	C167.335785,95.071213 165.390503,94.902496 163.445206,94.733780 
	C161.504364,95.453796 159.563507,96.173820 156.995377,97.082428 
	C155.242645,97.840012 154.117203,98.409012 152.991745,98.978004 
	C152.810577,98.979897 152.629395,98.981804 151.962479,99.115112 
	C151.134933,99.356133 150.901489,99.579170 150.776428,99.915634 
	C150.776428,99.915634 150.357285,99.898186 149.859909,99.999924 
	C148.579956,100.449364 147.797394,100.797073 147.014816,101.144783 
	C146.541031,101.142525 146.067245,101.140274 145.032318,101.253807 
	C144.132050,101.418396 143.876663,101.591095 143.705063,101.887688 
	C134.111420,101.151321 124.426109,100.993683 114.953560,99.492996 
	C107.555534,98.320969 101.913017,100.044548 97.061844,105.441078 
	C95.073212,107.653282 93.067276,109.872116 90.857918,111.852158 
	C90.040733,112.584526 88.623032,112.932030 87.469231,112.955063 
	C81.975189,113.064720 76.442268,112.630905 70.995789,113.150948 
	C68.085976,113.428772 64.781998,114.631599 62.630783,116.524734 
	C59.930225,118.901306 57.391171,120.249542 53.805851,120.133171 
	C49.077457,119.979683 44.765583,120.840637 40.993092,124.399170 
	C39.320084,125.977295 35.986229,125.635139 33.691391,126.750999 
	C30.245092,128.426758 26.691456,130.203217 23.822971,132.678070 
	C18.081732,137.631470 12.773893,143.087204 7.095775,148.518555 
	C4.675279,130.893692 6.172165,113.538483 11.315607,96.498421 
	C11.827948,94.801048 13.589920,93.263420 15.124597,92.128609 
	C23.018860,86.291222 30.732302,80.115311 39.126240,75.088486 
	C43.144348,72.682190 48.495369,72.382141 53.308510,71.478828 
	C55.374115,71.091156 57.703133,71.227493 59.747311,71.759903 
	C67.901321,73.883614 72.905388,68.564285 78.467964,64.321106 
	C79.899765,63.228905 81.732475,62.302002 83.483406,62.069164 
	C86.433212,61.676914 89.464828,61.879807 92.462158,61.869400 
	C98.119553,61.849766 103.291328,60.979553 108.696030,58.392231 
	C113.988533,55.858616 120.543938,55.268314 126.574951,55.130032 
	C136.373962,54.905354 146.197357,55.744717 156.595642,56.229710 
	C157.416519,56.449036 157.666809,56.526062 157.931732,56.555561 
	C158.048798,56.688820 158.165863,56.822075 158.661179,57.257298 
	C159.363022,57.688122 159.686584,57.816978 160.010162,57.945839 
	C162.246475,59.406452 164.482803,60.867065 167.410950,62.472691 
	C170.063019,62.696106 172.023254,62.774506 173.983490,62.852905 
	C178.002563,64.028725 182.021652,65.204536 186.725189,66.590485 
	C188.274231,66.834381 189.138824,66.868156 190.003418,66.901932 
	C195.313568,66.973099 200.623703,67.044266 206.390854,67.091911 
z"/>
<path fill="#CE073F" opacity="1.000000" stroke="none" 
	d="
M215.022583,190.006668 
	C211.608093,197.187820 208.588684,204.591385 204.696915,211.503830 
	C196.568893,225.940598 185.479599,238.114838 171.555557,246.832535 
	C154.540787,257.485260 135.760208,262.695557 115.371468,258.696533 
	C114.217834,258.470276 110.661217,259.031097 113.929298,255.737091 
	C114.989784,255.231354 115.812439,254.943649 117.211288,254.381607 
	C121.253944,251.431564 124.720406,248.755859 128.186874,246.080154 
	C129.714996,244.652313 131.243118,243.224472 133.201431,241.379166 
	C134.757050,239.641281 135.882462,238.320862 137.007874,237.000427 
	C137.116486,236.603790 137.225082,236.207138 136.988464,235.629089 
	C136.643234,235.447662 136.700500,235.369949 136.700500,235.369949 
	C137.773834,234.497620 138.847153,233.625290 140.263855,232.253632 
	C141.436157,230.189133 142.265076,228.623947 143.094009,227.058777 
	C143.094009,227.058777 143.002762,227.028473 143.297363,226.886856 
	C144.066925,225.832214 144.541916,224.919174 145.016907,224.006149 
	C145.473770,222.802139 145.930634,221.598145 146.583771,219.835815 
	C146.824570,218.855240 146.869080,218.432983 146.913574,218.010712 
	C147.271057,217.209869 147.628525,216.409027 148.213104,215.031830 
	C148.931870,212.968460 149.423538,211.481445 149.915207,209.994446 
	C150.007858,209.855453 150.100510,209.716446 150.447891,209.151123 
	C150.817139,208.150772 150.931686,207.576706 151.046234,207.002655 
	C154.094849,203.751694 157.143494,200.500732 160.420227,196.720245 
	C160.692429,195.801590 160.736572,195.412460 160.780716,195.023331 
	C160.877899,194.585922 160.975098,194.148529 161.229736,193.193710 
	C161.376328,192.225067 161.365494,191.773834 161.354660,191.322601 
	C161.921387,189.143188 162.488129,186.963776 163.257690,184.258804 
	C163.599884,182.826981 163.739243,181.920731 163.878586,181.014465 
	C163.943542,180.852356 164.008484,180.690247 164.241547,180.062592 
	C164.517334,179.060883 164.625000,178.524689 164.732666,177.988510 
	C164.841507,177.550201 164.950348,177.111908 165.200912,176.114929 
	C165.572876,175.044876 165.803116,174.533463 166.033371,174.022064 
	C166.033371,174.022064 166.000916,173.998260 166.281158,173.958893 
	C166.792267,173.645844 167.023148,173.372192 167.254028,173.098541 
	C168.696594,172.158997 170.139175,171.219452 172.035522,170.016632 
	C172.788696,169.594788 172.967209,169.348602 173.024841,169.014771 
	C173.024841,169.014771 173.002853,168.997314 173.278625,168.977631 
	C173.766190,168.678131 173.977966,168.398331 174.189743,168.118546 
	C174.189743,168.118546 174.080872,168.076141 174.442444,168.042053 
	C176.938690,166.010880 179.073364,164.013779 181.208023,162.016663 
	C181.792953,161.258072 182.377899,160.499466 183.242172,159.337631 
	C183.638748,158.626923 183.755981,158.319458 183.873199,158.011993 
	C184.012039,157.887573 184.150864,157.763153 184.637360,157.165253 
	C189.316208,154.094620 193.647400,151.497467 197.978592,148.900330 
	C200.465454,147.627060 202.952316,146.353821 205.996399,144.776703 
	C207.389862,143.990112 208.226105,143.507401 209.062363,143.024689 
	C209.509613,142.992203 209.956848,142.959717 210.991760,142.845078 
	C211.868301,142.561447 212.157181,142.359985 212.446075,142.158524 
	C212.446075,142.158524 212.755371,142.263611 213.139511,142.199402 
	C213.683960,142.062119 213.844269,141.989029 214.004578,141.915955 
	C216.081085,141.608871 218.157578,141.301788 220.900452,141.006088 
	C221.949524,141.057831 222.332245,141.098190 222.714966,141.138550 
	C222.604446,144.186661 222.493927,147.234756 222.354675,150.888519 
	C222.325958,151.494186 222.458694,151.939331 222.458694,151.939331 
	C222.245544,153.943207 222.032394,155.947083 221.686340,158.653107 
	C221.471771,160.220276 221.390091,161.085297 221.308411,161.950302 
	C221.160049,163.324188 221.011703,164.698074 220.768494,166.603821 
	C220.497879,167.391068 220.538223,167.605774 220.794678,167.779785 
	C220.430252,169.706345 220.065811,171.632889 219.450989,174.308716 
	C218.856125,176.647476 218.511658,178.237000 218.061768,180.029999 
	C217.921814,180.683914 217.887299,181.134338 217.650635,181.756485 
	C217.410339,182.268967 217.372208,182.609726 217.198853,183.274460 
	C217.036285,184.063400 217.008926,184.528397 216.773422,185.192627 
	C216.424179,185.929535 216.283066,186.467209 215.981567,187.289917 
	C215.554977,188.385513 215.288788,189.196091 215.022583,190.006668 
z"/>
<path fill="#CF0940" opacity="1.000000" stroke="none" 
	d="
M149.634872,11.972139 
	C173.342392,20.694803 188.111603,39.031582 201.944992,58.382191 
	C202.343994,58.940319 201.811020,60.164711 201.352631,61.195271 
	C200.542023,61.301414 200.091370,61.290733 199.137756,61.328724 
	C198.305984,61.336998 198.067032,61.464710 197.917908,61.760532 
	C197.559647,61.718967 197.201401,61.677402 196.290710,61.589340 
	C194.833496,61.429848 193.928711,61.316849 193.023911,61.203850 
	C188.291031,60.097031 183.558151,58.990208 178.259613,57.627777 
	C177.126755,57.288864 176.559540,57.205563 175.992340,57.122261 
	C175.217316,56.749310 174.442276,56.376358 173.168152,55.694817 
	C171.498398,54.854473 170.327728,54.322723 169.157074,53.790970 
	C169.157074,53.790970 169.035370,53.924061 168.919083,53.596451 
	C165.206818,51.167183 161.610855,49.065525 158.014877,46.963867 
	C155.383011,45.867863 152.822617,44.526218 150.102158,43.734718 
	C146.237732,42.610390 141.942947,42.546654 138.392273,40.854347 
	C132.049576,37.831322 125.642647,36.234047 118.644409,36.626579 
	C116.909119,36.723915 114.318611,36.749660 113.508308,35.718414 
	C107.927811,28.616201 99.817177,29.975277 92.433846,28.903393 
	C78.733948,26.914495 66.717705,32.378098 54.607506,37.462204 
	C52.683575,38.269913 50.629990,38.768799 48.357750,38.828636 
	C60.331646,26.445694 74.909683,18.310801 90.765923,12.313855 
	C107.011421,6.169690 123.753593,7.383299 141.123840,9.612347 
	C142.153458,9.780009 142.569077,9.803733 142.984680,9.827456 
	C145.077820,10.542275 147.170959,11.257095 149.634872,11.972139 
z"/>
<path fill="#CF0840" opacity="1.000000" stroke="none" 
	d="
M237.643585,142.647400 
	C245.085938,146.292114 251.546371,150.678665 255.835205,157.498764 
	C256.843079,159.101517 257.502808,161.601837 257.041016,163.350845 
	C245.801239,205.921173 219.151627,234.933472 178.765930,251.726730 
	C177.919693,252.078613 176.950638,252.135162 175.294312,251.416229 
	C176.194595,250.298584 176.928116,248.974075 178.019943,248.094086 
	C196.996368,232.799469 211.036972,214.028946 218.858185,190.009201 
	C220.061600,186.208038 221.067551,183.101685 222.247925,179.837387 
	C222.548431,178.903870 222.674530,178.128326 222.800629,177.352768 
	C222.865372,177.173508 222.930130,176.994247 223.097992,176.300781 
	C223.313141,175.241791 223.425186,174.696991 223.537247,174.152206 
	C223.677124,173.614883 223.816986,173.077545 224.040680,171.919647 
	C224.373047,169.870544 224.621628,168.442001 224.870209,167.013474 
	C225.881714,159.957321 226.893234,152.901154 227.946075,145.048141 
	C227.969925,143.504181 227.952423,142.757065 227.934921,142.009964 
	C228.115067,141.733704 228.327301,141.484802 229.111740,141.306854 
	C231.097427,141.521606 232.542953,141.692749 233.988495,141.863876 
	C235.067902,142.121643 236.147293,142.379410 237.643585,142.647400 
z"/>
<path fill="#CF0940" opacity="1.000000" stroke="none" 
	d="
M252.561691,103.229263 
	C257.279022,103.926346 258.612915,106.922287 259.269379,111.393204 
	C261.239746,124.813080 261.659332,138.156799 259.515747,151.407745 
	C252.639297,147.080154 245.908859,142.844467 238.820602,138.560501 
	C238.462784,138.512222 238.403381,138.521667 238.205261,138.346878 
	C237.673920,138.155075 237.340698,138.138062 237.007462,138.121063 
	C235.409760,137.665619 233.812073,137.210190 231.590118,136.590805 
	C230.305069,136.301727 229.644287,136.176605 228.983505,136.051468 
	C228.983505,136.051468 228.994873,135.995941 228.915100,135.678467 
	C228.780304,134.922745 228.725281,134.484512 228.670273,134.046265 
	C228.761459,132.630188 228.852646,131.214096 228.900177,129.040619 
	C228.572006,127.188522 228.287506,126.093811 228.002991,124.999107 
	C227.448959,120.592506 226.894913,116.185913 226.233551,111.133911 
	C226.058456,110.327263 225.990677,110.166016 225.922913,110.004776 
	C225.434494,107.595474 224.946091,105.186180 224.427277,102.283455 
	C224.577286,101.510941 224.778427,101.247719 225.465210,101.048203 
	C231.181366,101.116714 236.432648,101.137367 241.978271,101.395508 
	C243.517380,101.745827 244.762161,101.858650 246.344803,102.137085 
	C248.642349,102.611557 250.602020,102.920410 252.561691,103.229263 
z"/>
<path fill="#CF0B42" opacity="1.000000" stroke="none" 
	d="
M200.666870,24.102106 
	C208.219681,29.941221 215.441376,35.777359 222.767181,41.479759 
	C225.782883,43.827179 226.149200,46.427589 223.630875,49.070583 
	C220.351883,52.511856 216.863632,55.776192 213.257858,58.875145 
	C211.118576,60.713703 209.251236,60.303310 207.656998,57.590614 
	C197.958359,41.087807 184.626068,27.964699 168.838974,17.399530 
	C163.233139,13.647947 156.821472,11.100511 150.417206,7.966517 
	C150.056732,7.929662 150.043335,7.979318 149.943176,7.724849 
	C149.549683,7.260934 149.256348,7.051487 148.962997,6.842042 
	C153.034073,7.237668 157.105164,7.633292 161.684677,8.157155 
	C162.193115,8.285393 162.514587,8.410448 162.514587,8.410448 
	C162.514587,8.410448 162.832932,8.277804 162.832932,8.277803 
	C163.807312,8.570660 164.781677,8.863516 166.327759,9.365835 
	C167.256042,9.623882 167.612656,9.672469 167.969254,9.721054 
	C171.371719,10.814958 174.774185,11.908862 178.769684,13.268250 
	C180.200638,13.765050 181.038544,13.996364 181.876450,14.227676 
	C181.876450,14.227674 181.896042,14.121664 181.957016,14.368481 
	C182.340652,14.682832 182.663300,14.750366 182.985962,14.817901 
	C185.085342,15.862523 187.184708,16.907146 189.746475,18.155613 
	C190.402481,18.604763 190.652222,18.695370 190.958084,18.631275 
	C192.398880,19.406803 193.839691,20.182329 195.766937,21.274452 
	C196.778976,21.802469 197.304535,22.013889 197.830109,22.225307 
	C197.830109,22.225307 197.886765,22.122805 197.942749,22.389664 
	C198.334885,22.762766 198.671021,22.869011 199.007172,22.975254 
	C199.464005,23.331919 199.920853,23.688581 200.666870,24.102106 
z"/>
<path fill="#FAF4F6" opacity="1.000000" stroke="none"
	d="
M197.977707,148.543777 
	C193.647400,151.497467 189.316208,154.094620 184.750458,156.909531 
	C183.600220,156.858093 182.684570,156.588882 181.768906,156.319687 
	C181.586578,155.888794 181.404266,155.457901 181.221939,155.027008 
	C182.521194,154.454544 183.877716,153.983658 185.108536,153.289825 
	C188.298126,151.491837 191.666824,149.890564 194.505402,147.633881 
	C196.364975,146.155518 197.252747,144.976334 197.977707,148.543777 
z"/>
<path fill="#FAF4F6" opacity="1.000000" stroke="none" 
	d="
M181.061157,96.622559 
	C185.073608,97.270081 189.159546,98.293633 193.632599,99.447479 
	C191.161942,101.119392 188.192337,104.343750 185.679810,98.673416 
	C185.569534,98.315948 185.663101,98.273331 185.663101,98.273331 
	C184.153610,97.848419 182.644104,97.423508 181.061157,96.622559 
z"/>
<path fill="#FAF4F6" opacity="1.000000" stroke="none" 
	d="
M158.009750,47.348747 
	C161.610855,49.065525 165.206818,51.167183 168.996429,53.550095 
	C165.725647,53.133831 162.261215,52.436306 158.292786,51.637306 
	C158.215530,50.590645 158.110077,49.162132 158.009750,47.348747 
z"/>
<path fill="#FAF4F6" opacity="1.000000" stroke="none" 
	d="
M127.815689,246.086243 
	C124.720406,248.755859 121.253944,251.431564 117.426071,254.135040 
	C116.821045,249.612091 122.166779,251.059830 123.627678,248.095093 
	C124.140930,247.053497 126.129547,246.738892 127.815689,246.086243 
z"/>
<path fill="#FAF4F6" opacity="1.000000" stroke="none" 
	d="
M178.137512,103.993866 
	C178.401230,104.294357 178.028168,104.412773 177.506012,104.326767 
	C176.642365,104.538834 176.300842,104.836906 175.959320,105.134964 
	C173.378784,107.134048 170.798264,109.133141 167.953979,111.301376 
	C167.328964,107.041626 172.874969,102.806152 178.137512,103.993866 
z"/>
<path fill="#FAF4F6" opacity="1.000000" stroke="none" 
	d="
M180.853058,162.036407 
	C179.073364,164.013779 176.938690,166.010880 174.471313,168.092850 
	C174.250519,166.125671 174.362427,164.073624 174.472458,162.056168 
	C176.902100,162.056168 178.700089,162.056168 180.853058,162.036407 
z"/>
<path fill="#FAF4F6" opacity="1.000000" stroke="none" 
	d="
M175.140793,153.147781 
	C176.709732,151.299622 178.471252,149.719666 180.494293,147.946472 
	C181.870850,152.439331 179.253281,153.551193 175.140793,153.147781 
z"/>
<path fill="#FAF4F6" opacity="1.000000" stroke="none"
	d="
M222.409149,176.971283 
	C222.674530,178.128326 222.548431,178.903870 221.759216,179.832977 
	C220.119812,179.933197 219.143494,179.879852 218.167191,179.826508 
	C218.511658,178.237000 218.856125,176.647476 219.441986,174.727249 
	C220.461472,175.127625 221.239563,175.858719 222.409149,176.971283 
z"/>
<path fill="#FAF4F6" opacity="1.000000" stroke="none"
	d="
M142.721512,227.046570 
	C142.265076,228.623947 141.436157,230.189133 140.327133,231.934906 
	C139.660736,229.899139 137.969833,227.091751 142.721512,227.046570 
z"/>
<path fill="#FAF4F6" opacity="1.000000" stroke="none" 
	d="
M163.785645,94.922119 
	C165.390503,94.902496 167.335785,95.071213 169.650177,95.378159 
	C167.840179,98.498001 165.978897,96.865623 163.785645,94.922119 
z"/>
<path fill="#FAF4F6" opacity="1.000000" stroke="none" 
	d="
M169.116653,54.145287 
	C170.327728,54.322723 171.498398,54.854473 172.846527,55.657120 
	C170.337250,59.240543 169.630463,57.080887 169.116653,54.145287 
z"/>
<path fill="#FAF4F6" opacity="1.000000" stroke="none" 
	d="
M149.565033,210.002426 
	C149.423538,211.481445 148.931870,212.968460 148.209564,214.699448 
	C149.058121,213.466263 145.172577,210.745178 149.565033,210.002426 
z"/>
<path fill="#FAF4F6" opacity="1.000000" stroke="none" 
	d="
M233.812500,141.573578 
	C232.542953,141.692749 231.097427,141.521606 229.325989,141.186401 
	C230.545563,141.109314 232.091049,141.196289 233.812500,141.573578 
z"/>
<path fill="#FAF4F6" opacity="1.000000" stroke="none" 
	d="
M207.959808,101.880051 
	C207.493271,102.418877 206.995392,102.623192 206.223557,102.787903 
	C205.927292,101.925720 205.904984,101.103149 205.882675,100.280579 
	C206.564606,100.702232 207.246536,101.123894 207.959808,101.880051 
z"/>
<path fill="#FAF4F6" opacity="1.000000" stroke="none" 
	d="
M153.174515,99.220657 
	C154.117203,98.409012 155.242645,97.840012 156.689102,97.252853 
	C155.792511,97.977577 154.574890,98.720444 153.174515,99.220657 
z"/>
<path fill="#FAF4F6" opacity="1.000000" stroke="none" 
	d="
M136.656128,237.033905 
	C135.882462,238.320862 134.757050,239.641281 133.324615,241.092133 
	C134.113174,239.837479 135.208786,238.452423 136.656128,237.033905 
z"/>
<path fill="#FAF4F6" opacity="1.000000" stroke="none" 
	d="
M227.754181,125.112259 
	C228.287506,126.093811 228.572006,127.188522 228.797913,128.625092 
	C228.328003,127.719765 227.916687,126.472588 227.754181,125.112259 
z"/>
<path fill="#FAF4F6" opacity="1.000000" stroke="none" 
	d="
M189.938141,66.564316 
	C189.138824,66.868156 188.274231,66.834381 187.132919,66.625977 
	C187.861755,66.376472 188.867325,66.301582 189.938141,66.564316 
z"/>
<path fill="#FAF4F6" opacity="1.000000" stroke="none" 
	d="
M173.671219,62.590385 
	C172.023254,62.774506 170.063019,62.696106 167.750366,62.372047 
	C169.384949,62.193542 171.371948,62.260704 173.671219,62.590385 
z"/>
<path fill="#FAF4F6" opacity="1.000000" stroke="none" 
	d="
M176.000122,57.453758 
	C176.559540,57.205563 177.126755,57.288864 177.866852,57.608040 
	C177.601517,58.401138 177.163284,58.958355 176.725052,59.515575 
	C176.486008,58.938805 176.246948,58.362034 176.000122,57.453758 
z"/>
<path fill="#FAF4F6" opacity="1.000000" stroke="none" 
	d="
M224.624603,167.221893 
	C224.621628,168.442001 224.373047,169.870544 223.993652,171.641968 
	C224.034866,170.466690 224.206924,168.948486 224.624603,167.221893 
z"/>
<path fill="#FAF4F6" opacity="1.000000" stroke="none" 
	d="
M155.320526,159.126892 
	C156.149292,158.401215 157.234390,157.776489 158.651245,157.168884 
	C157.847626,157.866623 156.712234,158.547241 155.320526,159.126892 
z"/>
<path fill="#FAF4F6" opacity="1.000000" stroke="none" 
	d="
M193.250031,142.359924 
	C194.384720,142.156494 195.755875,142.194580 197.539246,142.260010 
	C196.463135,142.392044 194.974823,142.496735 193.250031,142.359924 
z"/>
<path fill="#FAF4F6" opacity="1.000000" stroke="none" 
	d="
M184.120087,146.149658 
	C184.757828,145.612305 185.550034,145.321503 186.666641,145.071228 
	C186.085556,145.539902 185.180054,145.968048 184.120087,146.149658 
z"/>
<path fill="#FAF4F6" opacity="1.000000" stroke="none" 
	d="
M142.807220,5.990628 
	C142.031906,5.922897 141.558624,5.848036 141.085327,5.773174 
	C141.076523,5.607228 141.067719,5.441283 141.058914,5.275337 
	C141.997620,5.275337 142.936401,5.271098 143.874710,5.289798 
	C143.915054,5.290602 143.997162,5.595906 143.982468,5.603189 
	C143.698318,5.743913 143.402588,5.861305 142.807220,5.990628 
z"/>
<path fill="#FAF4F6" opacity="1.000000" stroke="none" 
	d="
M147.228302,101.369881 
	C147.797394,100.797073 148.579956,100.449364 149.684158,100.114426 
	C149.151108,100.616455 148.296448,101.105721 147.228302,101.369881 
z"/>
<path fill="#FAF4F6" opacity="1.000000" stroke="none" 
	d="
M150.732742,207.003647 
	C150.931686,207.576706 150.817139,208.150772 150.462662,208.900970 
	C149.720383,208.553543 149.218048,208.029953 148.715714,207.506363 
	C149.283554,207.339111 149.851410,207.171875 150.732742,207.003647 
z"/>
<path fill="#FAF4F6" opacity="1.000000" stroke="none" 
	d="
M144.665070,224.059845 
	C144.541916,224.919174 144.066925,225.832214 143.331284,226.920914 
	C143.484818,226.102234 143.899017,225.107895 144.665070,224.059845 
z"/>
<path fill="#FAF4F6" opacity="1.000000" stroke="none" 
	d="
M165.738083,174.039886 
	C165.803116,174.533463 165.572876,175.044876 165.164520,175.776154 
	C165.138535,175.349915 165.290665,174.703827 165.738083,174.039886 
z"/>
<path fill="#FAF4F6" opacity="1.000000" stroke="none" 
	d="
M164.459305,178.033478 
	C164.625000,178.524689 164.517334,179.060883 164.216400,179.801865 
	C164.077408,179.363922 164.131668,178.721191 164.459305,178.033478 
z"/>
<path fill="#FAF4F6" opacity="1.000000" stroke="none" 
	d="
M208.728455,143.010315 
	C208.226105,143.507401 207.389862,143.990112 206.270050,144.550964 
	C206.789154,144.084717 207.591843,143.540314 208.728455,143.010315 
z"/>
<path fill="#FAF4F6" opacity="1.000000" stroke="none" 
	d="
M181.820801,13.940016 
	C181.038544,13.996364 180.200638,13.765050 179.147552,13.284354 
	C179.876648,13.240767 180.820908,13.446560 181.820801,13.940016 
z"/>
<path fill="#FAF4F6" opacity="1.000000" stroke="none" 
	d="
M203.245514,140.966492 
	C203.946503,140.527359 205.037476,140.114471 206.485962,139.673157 
	C205.774155,140.094040 204.704819,140.543396 203.245514,140.966492 
z"/>
<path fill="#FAF4F6" opacity="1.000000" stroke="none" 
	d="
M209.168671,139.247803 
	C209.486801,138.742798 209.965073,138.456497 210.725830,138.195190 
	C210.448502,138.635635 209.888657,139.051071 209.168671,139.247803 
z"/>
<path fill="#FAF4F6" opacity="1.000000" stroke="none" 
	d="
M216.228867,136.920242 
	C216.994034,136.587967 218.126724,136.299591 219.621979,136.077850 
	C218.855148,136.417694 217.725769,136.690903 216.228867,136.920242 
z"/>
<path fill="#FAF4F6" opacity="1.000000" stroke="none" 
	d="
M222.956970,141.018951 
	C222.332245,141.098190 221.949524,141.057831 221.290710,140.929382 
	C221.831329,140.465729 222.648071,140.090179 223.464813,139.714630 
	C223.376205,140.109528 223.287598,140.504440 222.956970,141.018951 
z"/>
<path fill="#FAF4F6" opacity="1.000000" stroke="none" 
	d="
M197.852646,21.913277 
	C197.304535,22.013889 196.778976,21.802469 196.111771,21.341042 
	C196.605148,21.261106 197.240173,21.431177 197.852646,21.913277 
z"/>
<path fill="#FAF4F6" opacity="1.000000" stroke="none" 
	d="
M221.522491,161.696411 
	C221.390091,161.085297 221.471771,160.220276 221.739532,159.081787 
	C221.862610,159.686371 221.799591,160.564453 221.522491,161.696411 
z"/>
<path fill="#FAF4F6" opacity="1.000000" stroke="none" 
	d="
M193.284180,61.441727 
	C193.928711,61.316849 194.833496,61.429848 196.044250,61.712265 
	C195.414948,61.814323 194.479691,61.746964 193.284180,61.441727 
z"/>
<path fill="#FAF4F6" opacity="1.000000" stroke="none" 
	d="
M163.628555,181.257111 
	C163.739243,181.920731 163.599884,182.826981 163.224396,184.000275 
	C163.118332,183.344803 163.248428,182.422287 163.628555,181.257111 
z"/>
<path fill="#FAF4F6" opacity="1.000000" stroke="none" 
	d="
M227.701447,142.190826 
	C227.952423,142.757065 227.969925,143.504181 227.899307,144.615524 
	C227.696777,144.110413 227.582367,143.241058 227.701447,142.190826 
z"/>
<path fill="#FAF4F6" opacity="1.000000" stroke="none" 
	d="
M213.046265,137.913681 
	C213.522766,137.522354 214.374542,137.170807 215.580811,136.824661 
	C215.097366,137.204514 214.259445,137.578995 213.046265,137.913681 
z"/>
<path fill="#FAF4F6" opacity="1.000000" stroke="none" 
	d="
M173.996918,96.171608 
	C174.188721,95.625488 174.466537,95.559906 174.908508,95.845070 
	C174.892197,96.355385 174.778275,96.738037 174.664352,97.120682 
	C174.448364,96.890144 174.232376,96.659607 173.996918,96.171608 
z"/>
<path fill="#FAF4F6" opacity="1.000000" stroke="none" 
	d="
M158.297943,102.880219 
	C158.216309,102.592308 158.305756,102.210236 158.513885,102.127769 
	C158.683182,102.060699 158.994705,102.352715 159.243164,102.485504 
	C159.002228,102.628853 158.761292,102.772209 158.297943,102.880219 
z"/>
<path fill="#FAF4F6" opacity="1.000000" stroke="none" 
	d="
M197.939148,99.834061 
	C198.085693,99.367096 198.348236,99.278915 198.845123,99.498199 
	C198.678940,99.765526 198.337479,99.901253 197.939148,99.834061 
z"/>
<path fill="#FAF4F6" opacity="1.000000" stroke="none"
	d="
M223.185593,174.258469 
	C223.425186,174.696991 223.313141,175.241791 223.046814,176.019501 
	C222.873016,175.623169 222.853485,174.993958 223.185593,174.258469 
z"/>
<path fill="#FAF4F6" opacity="1.000000" stroke="none" 
	d="
M180.979370,147.760529 
	C180.917023,147.266113 181.147095,146.711334 181.692627,146.156174 
	C181.762650,146.670578 181.517227,147.185364 180.979370,147.760529 
z"/>
<path fill="#FAF4F6" opacity="1.000000" stroke="none" 
	d="
M214.192963,97.445007 
	C214.463684,97.184784 214.897308,97.107056 215.658463,97.094589 
	C215.442612,97.315727 214.899246,97.471619 214.192963,97.445007 
z"/>
<path fill="#FAF4F6" opacity="1.000000" stroke="none" 
	d="
M167.212006,111.561356 
	C167.171982,112.057587 166.841705,112.448318 166.253418,112.857391 
	C166.304199,112.402443 166.612991,111.929161 167.212006,111.561356 
z"/>
<path fill="#FAF4F6" opacity="1.000000" stroke="none" 
	d="
M197.987244,61.951794 
	C198.067032,61.464710 198.305984,61.336998 198.827911,61.472874 
	C198.699570,61.759922 198.378067,61.951488 197.987244,61.951794 
z"/>
<path fill="#FAF4F6" opacity="1.000000" stroke="none" 
	d="
M229.214218,136.315918 
	C229.644287,136.176605 230.305069,136.301727 231.233459,136.638184 
	C230.815689,136.759796 230.130310,136.670074 229.214218,136.315918 
z"/>
<path fill="#FAF4F6" opacity="1.000000" stroke="none" 
	d="
M228.492676,134.224121 
	C228.725281,134.484512 228.780304,134.922745 228.889099,135.689774 
	C228.733612,135.479691 228.524353,134.940842 228.492676,134.224121 
z"/>
<path fill="#FAF4F6" opacity="1.000000" stroke="none" 
	d="
M213.982330,141.669189 
	C213.844269,141.989029 213.683960,142.062119 213.262878,142.092377 
	C213.140610,141.602890 213.279114,141.156204 213.417633,140.709534 
	C213.598450,140.947159 213.779266,141.184799 213.982330,141.669189 
z"/>
<path fill="#FAF4F6" opacity="1.000000" stroke="none" 
	d="
M221.876633,112.204414 
	C221.572449,111.935921 221.309082,111.316124 221.086365,110.355148 
	C221.390503,110.627014 221.653976,111.240067 221.876633,112.204414 
z"/>
<path fill="#FAF4F6" opacity="1.000000" stroke="none" 
	d="
M198.866943,22.753498 
	C198.671021,22.869011 198.334885,22.762766 197.886658,22.406506 
	C198.091965,22.281574 198.409348,22.406658 198.866943,22.753498 
z"/>
<path fill="#FAF4F6" opacity="1.000000" stroke="none" 
	d="
M159.871140,57.724487 
	C159.686584,57.816978 159.363022,57.688122 158.920303,57.317581 
	C159.111481,57.218307 159.421799,57.360722 159.871140,57.724487 
z"/>
<path fill="#FAF4F6" opacity="1.000000" stroke="none" 
	d="
M220.860107,167.641846 
	C220.538223,167.605774 220.497879,167.391068 220.814850,167.017151 
	C221.000290,167.103149 220.990112,167.304901 220.860107,167.641846 
z"/>
<path fill="#FAF4F6" opacity="1.000000" stroke="none" 
	d="
M151.015411,99.887535 
	C150.901489,99.579170 151.134933,99.356133 151.725815,99.248718 
	C151.815460,99.549339 151.575302,99.752182 151.015411,99.887535 
z"/>
<path fill="#FAF4F6" opacity="1.000000" stroke="none" 
	d="
M173.933075,168.177170 
	C173.977966,168.398331 173.766190,168.678131 173.283386,168.990021 
	C173.233719,168.759995 173.455063,168.497894 173.933075,168.177170 
z"/>
<path fill="#FAF4F6" opacity="1.000000" stroke="none" 
	d="
M172.812790,169.079056 
	C172.967209,169.348602 172.788696,169.594788 172.255432,169.773743 
	C172.135056,169.506424 172.328125,169.289474 172.812790,169.079056 
z"/>
<path fill="#FAF4F6" opacity="1.000000" stroke="none" 
	d="
M166.987122,173.161011 
	C167.023148,173.372192 166.792267,173.645844 166.289658,173.976990 
	C166.252014,173.764145 166.486099,173.493820 166.987122,173.161011 
z"/>
<path fill="#FAF4F6" opacity="1.000000" stroke="none" 
	d="
M225.765533,110.104630 
	C225.990677,110.166016 226.058456,110.327263 226.071350,110.745094 
	C225.880386,110.735939 225.744278,110.470207 225.765533,110.104630 
z"/>
<path fill="#CE063E" opacity="1.000000" stroke="none" 
	d="
M185.627289,98.285660 
	C185.663101,98.273331 185.569534,98.315948 185.561340,98.274315 
	C185.553162,98.232681 185.591492,98.297989 185.627289,98.285660 
z"/>
<path fill="#FAF4F6" opacity="1.000000" stroke="none" 
	d="
M146.448578,6.533154 
	C146.414658,6.476640 146.482498,6.589666 146.448578,6.533154 
z"/>
<path fill="#FAF4F6" opacity="1.000000" stroke="none" 
	d="
M136.472397,235.327484 
	C136.700500,235.369949 136.643234,235.447662 136.676239,235.483826 
	C136.554245,235.441666 136.399277,235.363327 136.472397,235.327484 
z"/>
<path fill="#FAF4F6" opacity="1.000000" stroke="none" 
	d="
M146.682068,218.237137 
	C146.869080,218.432983 146.824570,218.855240 146.546204,219.502289 
	C146.358429,219.305893 146.404495,218.884720 146.682068,218.237137 
z"/>
<path fill="#FAF4F6" opacity="1.000000" stroke="none" 
	d="
M161.228882,191.742691 
	C161.365494,191.773834 161.376328,192.225067 161.202026,192.855942 
	C161.045609,192.744644 161.074341,192.453720 161.228882,191.742691 
z"/>
<path fill="#FAF4F6" opacity="1.000000" stroke="none" 
	d="
M160.575119,195.233215 
	C160.736572,195.412460 160.692429,195.801590 160.422531,196.390259 
	C160.254349,196.207550 160.311935,195.825333 160.575119,195.233215 
z"/>
<path fill="#FAF4F6" opacity="1.000000" stroke="none" 
	d="
M225.000336,101.000359 
	C224.778427,101.247719 224.577286,101.510941 224.232666,101.977165 
	C224.038406,101.984367 224.008347,101.804436 223.946289,101.353523 
	C223.914291,101.082550 224.011780,100.989555 224.282745,100.968895 
	C224.553711,100.948235 225.000336,101.000359 225.000336,101.000359 
z"/>
<path fill="#FAF4F6" opacity="1.000000" stroke="none" 
	d="
M224.469299,115.451569 
	C224.522919,115.419960 224.415695,115.483177 224.469299,115.451569 
z"/>
<path fill="#FAF4F6" opacity="1.000000" stroke="none" 
	d="
M222.532684,121.849144 
	C222.420044,121.949471 222.216492,121.504890 222.274384,121.267380 
	C222.659760,121.185822 222.764099,121.425468 222.532684,121.849144 
z"/>
<path fill="#FAF4F6" opacity="1.000000" stroke="none" 
	d="
M219.844482,104.219528 
	C219.636169,104.192848 219.436844,103.891930 219.266403,103.313286 
	C219.481369,103.338799 219.667435,103.642044 219.844482,104.219528 
z"/>
<path fill="#FAF4F6" opacity="1.000000" stroke="none" 
	d="
M237.177887,138.321274 
	C237.340698,138.138062 237.673920,138.155075 238.178833,138.361191 
	C238.016449,138.540695 237.682388,138.531097 237.177887,138.321274 
z"/>
<path fill="#FAF4F6" opacity="1.000000" stroke="none" 
	d="
M206.961517,139.755676 
	C206.848663,139.364182 207.104584,139.182251 207.732849,139.204666 
	C207.810776,139.542328 207.552475,139.727753 206.961517,139.755676 
z"/>
<path fill="#FAF4F6" opacity="1.000000" stroke="none" 
	d="
M157.801086,56.405403 
	C157.666809,56.526062 157.416519,56.449036 157.049881,56.176491 
	C157.196457,56.014553 157.446960,56.090134 157.801086,56.405403 
z"/>
<path fill="#FAF4F6" opacity="1.000000" stroke="none" 
	d="
M182.841125,14.623884 
	C182.663300,14.750366 182.340652,14.682832 181.905151,14.383171 
	C182.135483,14.108453 182.436798,14.201394 182.841125,14.623884 
z"/>
<path fill="#FAF4F6" opacity="1.000000" stroke="none" 
	d="
M190.838440,18.470287 
	C190.652222,18.695370 190.402481,18.604763 190.099106,18.181892 
	C190.267776,18.021605 190.510941,18.123262 190.838440,18.470287 
z"/>
<path fill="#FAF4F6" opacity="1.000000" stroke="none" 
	d="
M167.777328,9.530474 
	C167.612656,9.672469 167.256042,9.623882 166.716583,9.367140 
	C166.884293,9.219286 167.234848,9.279589 167.777328,9.530474 
z"/>
<path fill="#FAF4F6" opacity="1.000000" stroke="none" 
	d="
M212.180511,142.151855 
	C212.157181,142.359985 211.868301,142.561447 211.308655,142.728943 
	C211.330261,142.511719 211.622620,142.328461 212.180511,142.151855 
z"/>
<path fill="#FAF4F6" opacity="1.000000" stroke="none" 
	d="
M183.665939,158.146271 
	C183.755981,158.319458 183.638748,158.626923 183.291473,159.049377 
	C183.077820,158.817612 183.210236,158.523010 183.665939,158.146271 
z"/>
<path fill="#FAF4F6" opacity="1.000000" stroke="none" 
	d="
M217.833588,101.395859 
	C217.928574,101.495911 217.499939,101.666542 217.276825,101.608002 
	C217.217529,101.268379 217.445816,101.183830 217.833588,101.395859 
z"/>
<path fill="#FAF4F6" opacity="1.000000" stroke="none" 
	d="
M142.752655,9.615625 
	C142.569077,9.803733 142.153458,9.780009 141.513290,9.529663 
	C141.699371,9.336625 142.110001,9.370210 142.752655,9.615625 
z"/>
<path fill="#FAF4F6" opacity="1.000000" stroke="none" 
	d="
M143.936096,101.892906 
	C143.876663,101.591095 144.132050,101.418396 144.706665,101.401230 
	C144.746933,101.693085 144.488602,101.848167 143.936096,101.892906 
z"/>
<path fill="#FAF4F6" opacity="1.000000" stroke="none" 
	d="
M190.531219,148.548721 
	C190.476974,148.580780 190.585449,148.516663 190.531219,148.548721 
z"/>
<path fill="#FAF4F6" opacity="1.000000" stroke="none" 
	d="
M222.565735,151.861664 
	C222.458694,151.939331 222.325958,151.494186 222.442886,151.293594 
	C222.792099,151.296677 222.829758,151.527008 222.565735,151.861664 
z"/>
<path fill="#FAF4F6" opacity="1.000000" stroke="none" 
	d="
M172.035797,153.937439 
	C171.972610,153.659454 172.190704,153.491119 172.697571,153.495529 
	C172.723740,153.764908 172.500671,153.891174 172.035797,153.937439 
z"/>
<path fill="#FAF4F6" opacity="1.000000" stroke="none" 
	d="
M162.705231,8.195475 
	C162.832932,8.277804 162.514587,8.410448 162.514587,8.410448 
	C162.514587,8.410448 162.193115,8.285393 162.087906,8.147875 
	C162.190247,7.991006 162.388519,8.025269 162.705231,8.195475 
z"/>
<path fill="#FAF4F6" opacity="1.000000" stroke="none" 
	d="
M164.620163,155.759399 
	C164.656998,155.523926 165.006287,155.320511 165.669464,155.146332 
	C165.633087,155.380875 165.282852,155.586166 164.620163,155.759399 
z"/>
<path fill="#FAF4F6" opacity="1.000000" stroke="none" 
	d="
M149.069000,7.101721 
	C149.256348,7.051487 149.549683,7.260934 149.966537,7.714337 
	C149.785034,7.759329 149.480011,7.560365 149.069000,7.101721 
z"/>
<path fill="#FEFDFD" opacity="1.000000" stroke="none" 
	d="
M211.164124,25.816364 
	C210.597061,26.612427 209.885513,27.147564 209.173950,27.682701 
	C208.789200,26.691776 208.404434,25.700853 208.030701,24.294044 
	C209.034378,24.437254 210.027023,24.996347 211.164124,25.816364 
z"/>
<path fill="#CF0940" opacity="1.000000" stroke="none" 
	d="
M224.020599,96.902077 
	C222.686066,92.858498 221.456924,88.776299 219.992889,84.780159 
	C217.657364,78.405205 215.165604,72.087494 213.035034,66.517212 
	C218.894669,60.749096 224.455002,55.275620 230.253098,49.568092 
	C240.549377,61.351273 248.710297,75.397301 253.986679,91.099800 
	C254.935608,93.923820 255.216751,96.972229 255.087997,99.934669 
	C253.714951,99.919289 253.060104,99.886276 252.235291,99.652229 
	C251.727036,99.413490 251.388779,99.375778 250.722214,99.210129 
	C249.694733,99.016457 248.995544,98.950737 248.040863,98.634399 
	C246.853271,98.237717 245.921188,98.091675 244.651642,97.705162 
	C240.359772,97.260345 236.405365,97.056000 232.198090,96.672333 
	C231.351852,96.530624 230.758484,96.568230 229.817749,96.482452 
	C228.988754,96.425934 228.507156,96.492813 227.723801,96.438553 
	C226.812714,96.482185 226.203354,96.646950 225.333313,96.727524 
	C224.721939,96.729591 224.371277,96.815834 224.020599,96.902077 
z"/>
<path fill="#FEFDFD" opacity="1.000000" stroke="none" 
	d="
M248.296356,98.885025 
	C248.995544,98.950737 249.694733,99.016457 250.904449,99.387589 
	C251.745071,99.746422 252.075180,99.799843 252.405273,99.853264 
	C253.060104,99.886276 253.714951,99.919289 254.680008,100.065460 
	C254.423843,101.131943 253.857437,102.085274 252.926361,103.133926 
	C250.602020,102.920410 248.642349,102.611557 246.502930,101.894318 
	C246.313248,100.993645 246.303345,100.501358 246.293427,100.009064 
	C244.756927,100.392059 243.220444,100.775047 241.683945,101.158028 
	C236.432648,101.137367 231.181366,101.116714 225.465210,101.048203 
	C225.000336,101.000359 224.553711,100.948235 224.331390,100.922295 
	C224.162048,99.727272 224.215027,98.558197 224.144318,97.145599 
	C224.371277,96.815834 224.721939,96.729591 225.584473,96.829628 
	C226.739410,96.863838 227.382477,96.711769 228.025543,96.559692 
	C228.507156,96.492813 228.988754,96.425934 230.077454,96.618866 
	C231.273331,96.869659 231.862152,96.860657 232.450958,96.851654 
	C236.405365,97.056000 240.359772,97.260345 244.881104,97.988876 
	C246.397476,98.637047 247.346924,98.761032 248.296356,98.885025 
z"/>
<path fill="#FEFDFD" opacity="1.000000" stroke="none" 
	d="
M218.061768,180.029999 
	C219.143494,179.879852 220.119812,179.933197 221.584808,179.990936 
	C221.067551,183.101685 220.061600,186.208038 218.892761,189.651443 
	C217.741302,189.993622 216.752686,189.998734 215.393341,190.005249 
	C215.288788,189.196091 215.554977,188.385513 216.264084,187.251602 
	C216.798508,186.283310 216.890045,185.638336 216.981567,184.993378 
	C217.008926,184.528397 217.036285,184.063400 217.377502,183.090668 
	C217.745163,182.250198 217.798965,181.917480 217.852783,181.584778 
	C217.887299,181.134338 217.921814,180.683914 218.061768,180.029999 
z"/>
<path fill="#FEFDFD" opacity="1.000000" stroke="none" 
	d="
M176.354034,105.161240 
	C176.300842,104.836906 176.642365,104.538834 177.336243,104.229431 
	C177.375320,104.541237 177.062042,104.864372 176.354034,105.161240 
z"/>
<path fill="#FAF4F6" opacity="1.000000" stroke="none" 
	d="
M216.773438,185.192627 
	C216.890045,185.638336 216.798508,186.283310 216.424469,186.966583 
	C216.283066,186.467209 216.424179,185.929535 216.773438,185.192627 
z"/>
<path fill="#FAF4F6" opacity="1.000000" stroke="none" 
	d="
M217.650635,181.756485 
	C217.798965,181.917480 217.745163,182.250198 217.512726,182.766693 
	C217.372208,182.609726 217.410339,182.268967 217.650635,181.756485 
z"/>
<path fill="#FAF4F6" opacity="1.000000" stroke="none" 
	d="
M241.978271,101.395523 
	C243.220444,100.775047 244.756927,100.392059 246.293427,100.009064 
	C246.303345,100.501358 246.313248,100.993645 246.165039,101.728706 
	C244.762161,101.858650 243.517380,101.745827 241.978271,101.395523 
z"/>
<path fill="#FAF4F6" opacity="1.000000" stroke="none" 
	d="
M248.040863,98.634392 
	C247.346924,98.761032 246.397476,98.637047 245.218567,98.229340 
	C245.921188,98.091675 246.853271,98.237717 248.040863,98.634392 
z"/>
<path fill="#FAF4F6" opacity="1.000000" stroke="none" 
	d="
M227.723801,96.438553 
	C227.382477,96.711769 226.739410,96.863838 225.845184,96.913818 
	C226.203354,96.646950 226.812714,96.482185 227.723801,96.438553 
z"/>
<path fill="#FAF4F6" opacity="1.000000" stroke="none" 
	d="
M232.198090,96.672333 
	C231.862152,96.860657 231.273331,96.869659 230.424820,96.742249 
	C230.758484,96.568230 231.351852,96.530624 232.198090,96.672333 
z"/>
<path fill="#FAF4F6" opacity="1.000000" stroke="none" 
	d="
M252.235291,99.652229 
	C252.075180,99.799843 251.745071,99.746422 251.232742,99.515533 
	C251.388779,99.375778 251.727036,99.413490 252.235291,99.652229 
z"/>
</svg>