<svg version="1.1" id="Layer_1" xmlns="http://www.w3.org/2000/svg" xmlns:xlink="http://www.w3.org/1999/xlink" x="0px" y="0px"
	 width="100%" viewBox="0 0 1480 953" enable-background="new 0 0 1480 953" xml:space="preserve">
<path fill="none" opacity="1.000000" stroke="none"
	d="
M1466.000000,0.999988 
	C1470.999023,1.000000 1475.998047,1.000000 1480.997803,1.000000 
	C1480.998535,318.603546 1480.998535,636.207092 1480.998535,954.000000 
	C1102.637329,954.000000 724.274597,954.000000 345.154114,953.634766 
	C348.813782,952.508728 353.305817,952.040161 357.635498,950.935242 
	C374.123047,946.727783 390.794586,943.042542 406.952820,937.793579 
	C426.864685,931.325256 445.767181,922.177917 463.033142,910.276733 
	C476.238068,901.174622 489.266144,891.602966 501.195068,880.924438 
	C512.387390,870.905151 522.298096,859.390747 532.234741,848.062317 
	C536.387024,843.328430 539.192383,837.401855 542.534668,831.971069 
	C548.840515,821.724731 555.610046,811.719055 561.225769,801.104858 
	C567.356567,789.517151 572.949768,777.568237 577.710571,765.360779 
	C580.644287,757.838135 584.466858,750.429565 584.260925,741.749084 
	C584.145569,736.883789 585.211060,731.609619 587.170410,727.145569 
	C593.693237,712.284363 594.536804,696.544434 594.832458,680.811584 
	C595.014954,671.094360 595.640137,661.866882 599.904480,652.854065 
	C605.353149,641.338318 609.830566,629.366699 614.891907,617.663025 
	C619.487732,607.035706 624.839539,596.701477 628.840698,585.862549 
	C631.600708,578.385742 637.503784,572.036865 637.194458,563.419739 
	C637.174805,562.869690 637.633057,562.053589 638.110535,561.774292 
	C641.690125,559.680908 643.062012,556.801819 642.115784,552.642822 
	C641.899414,551.691772 643.004333,550.440125 643.501160,549.326782 
	C645.827393,552.069397 645.740234,548.534851 645.833435,548.124939 
	C646.718628,544.230469 645.855957,539.920105 650.215271,537.115479 
	C652.866821,535.409485 651.315186,531.679260 652.174438,529.195374 
	C654.628845,522.100586 657.952209,515.307617 660.907349,508.384705 
	C668.581421,490.407318 676.206238,472.408875 683.918579,454.447968 
	C689.547363,441.339569 695.324829,428.295044 700.962830,415.190521 
	C709.130432,396.206726 717.205444,377.183105 725.370728,358.198334 
	C730.878357,345.392792 736.371460,332.579224 742.067566,319.857208 
	C745.530151,312.123596 749.366638,304.557373 753.320923,296.320801 
	C753.876709,298.059601 754.150330,298.915497 754.385925,299.652588 
	C755.433838,297.411499 756.925781,295.330597 757.374573,293.044922 
	C758.546082,287.078400 762.470520,286.911957 767.446472,286.914673 
	C956.742065,287.017822 1146.037720,286.971252 1335.333252,287.169189 
	C1340.344116,287.174438 1342.336304,285.091248 1343.964233,281.304047 
	C1351.429810,263.936401 1358.814209,246.533325 1366.381958,229.210297 
	C1372.801880,214.514267 1379.520386,199.948761 1385.949097,185.256470 
	C1394.619873,165.440247 1403.092285,145.537201 1411.741211,125.711304 
	C1417.063232,113.511726 1422.638184,101.422424 1427.953491,89.219994 
	C1436.783325,68.949623 1445.499878,48.629929 1454.255127,28.327122 
	C1458.181152,19.222893 1462.085693,10.109323 1466.000000,0.999988 
z"/>
<path fill="none" opacity="1.000000" stroke="none"
	d="
M278.000000,954.000000 
	C185.685989,954.000000 93.371986,954.000000 1.028992,954.000000 
	C1.028992,636.419189 1.028992,318.838318 1.028992,1.000000 
	C258.360138,1.000000 515.720337,1.000000 773.844238,1.308337 
	C769.474976,13.212290 764.326782,24.801220 759.212952,36.405277 
	C753.136047,50.194504 747.036926,63.974285 741.040771,77.798637 
	C732.497620,97.495132 724.103699,117.256462 715.523438,136.936646 
	C709.179993,151.486435 702.544922,165.909180 696.211609,180.463318 
	C686.366455,203.087952 676.744934,225.810013 666.880920,248.426315 
	C659.445312,265.474762 651.703552,282.389557 644.233704,299.423279 
	C635.480591,319.382904 626.911743,339.423340 618.191895,359.397675 
	C611.906311,373.795868 605.453735,388.121185 599.166748,402.518768 
	C590.445312,422.491791 581.775757,442.487671 573.149109,462.501831 
	C568.014404,474.414551 563.078918,486.413422 557.909790,498.311005 
	C555.040833,504.914368 551.875671,511.389038 549.176819,517.204590 
	C538.544373,504.076874 528.339050,490.405762 516.999146,477.751434 
	C503.407410,462.584229 487.517822,449.835083 470.716827,438.319580 
	C453.833191,426.747498 435.886993,416.993103 416.861206,409.514252 
	C398.906097,402.456360 380.507843,396.518463 361.256317,394.032074 
	C346.380341,392.110809 331.468750,389.661224 316.526917,389.287506 
	C302.478210,388.936157 288.360596,390.889099 274.288910,392.021942 
	C256.169464,393.480682 238.774887,398.302002 221.558945,403.841522 
	C200.669540,410.563019 180.687546,419.537018 162.398422,431.513519 
	C147.648621,441.172272 133.550354,452.047699 120.257164,463.638214 
	C109.853912,472.708984 100.272629,483.047394 91.869858,494.006287 
	C81.103012,508.048309 71.147720,522.845032 62.190434,538.107544 
	C51.689838,555.999756 44.613590,575.517212 38.959827,595.519531 
	C33.832466,613.659546 29.974813,632.137085 29.271801,650.879333 
	C28.560831,669.833740 27.962177,688.892944 30.859961,707.878418 
	C33.275406,723.703796 36.128532,739.346008 40.910515,754.650452 
	C46.768204,773.397583 54.314049,791.324036 63.750237,808.606201 
	C74.459068,828.219299 87.198189,846.348816 102.380341,862.536560 
	C113.624367,874.525391 125.873611,885.775696 138.775116,895.961670 
	C162.787384,914.919556 189.643402,929.074341 218.639359,938.984924 
	C237.298477,945.362488 256.324982,950.213013 276.031097,952.080383 
	C276.741638,952.147644 277.346100,953.334778 278.000000,954.000000 
z"/>
<path fill="#FEFEFE" opacity="1.000000" stroke="none" 
	d="
M278.468658,954.000000 
	C277.346100,953.334778 276.741638,952.147644 276.031097,952.080383 
	C256.324982,950.213013 237.298477,945.362488 218.639359,938.984924 
	C189.643402,929.074341 162.787384,914.919556 138.775116,895.961670 
	C125.873611,885.775696 113.624367,874.525391 102.380341,862.536560 
	C87.198189,846.348816 74.459068,828.219299 63.750237,808.606201 
	C54.314049,791.324036 46.768204,773.397583 40.910515,754.650452 
	C36.128532,739.346008 33.275406,723.703796 30.859961,707.878418 
	C27.962177,688.892944 28.560831,669.833740 29.271801,650.879333 
	C29.974813,632.137085 33.832466,613.659546 38.959827,595.519531 
	C44.613590,575.517212 51.689838,555.999756 62.190434,538.107544 
	C71.147720,522.845032 81.103012,508.048309 91.869858,494.006287 
	C100.272629,483.047394 109.853912,472.708984 120.257164,463.638214 
	C133.550354,452.047699 147.648621,441.172272 162.398422,431.513519 
	C180.687546,419.537018 200.669540,410.563019 221.558945,403.841522 
	C238.774887,398.302002 256.169464,393.480682 274.288910,392.021942 
	C288.360596,390.889099 302.478210,388.936157 316.526917,389.287506 
	C331.468750,389.661224 346.380341,392.110809 361.256317,394.032074 
	C380.507843,396.518463 398.906097,402.456360 416.861206,409.514252 
	C435.886993,416.993103 453.833191,426.747498 470.716827,438.319580 
	C487.517822,449.835083 503.407410,462.584229 516.999146,477.751434 
	C528.339050,490.405762 538.544373,504.076874 549.176819,517.204590 
	C551.875671,511.389038 555.040833,504.914368 557.909790,498.311005 
	C563.078918,486.413422 568.014404,474.414551 573.149109,462.501831 
	C581.775757,442.487671 590.445312,422.491791 599.166748,402.518768 
	C605.453735,388.121185 611.906311,373.795868 618.191895,359.397675 
	C626.911743,339.423340 635.480591,319.382904 644.233704,299.423279 
	C651.703552,282.389557 659.445312,265.474762 666.880920,248.426315 
	C676.744934,225.810013 686.366455,203.087952 696.211609,180.463318 
	C702.544922,165.909180 709.179993,151.486435 715.523438,136.936646 
	C724.103699,117.256462 732.497620,97.495132 741.040771,77.798637 
	C747.036926,63.974285 753.136047,50.194504 759.212952,36.405277 
	C764.326782,24.801220 769.474976,13.212290 774.303955,1.308337 
	C1004.354248,1.000000 1234.708496,1.000000 1465.531372,0.999988 
	C1462.085693,10.109323 1458.181152,19.222893 1454.255127,28.327122 
	C1445.499878,48.629929 1436.783325,68.949623 1427.953491,89.219994 
	C1422.638184,101.422424 1417.063232,113.511726 1411.741211,125.711304 
	C1403.092285,145.537201 1394.619873,165.440247 1385.949097,185.256470 
	C1379.520386,199.948761 1372.801880,214.514267 1366.381958,229.210297 
	C1358.814209,246.533325 1351.429810,263.936401 1343.964233,281.304047 
	C1342.336304,285.091248 1340.344116,287.174438 1335.333252,287.169189 
	C1146.037720,286.971252 956.742065,287.017822 767.446472,286.914673 
	C762.470520,286.911957 758.546082,287.078400 757.374573,293.044922 
	C756.925781,295.330597 755.433838,297.411499 754.385925,299.652588 
	C754.150330,298.915497 753.876709,298.059601 753.320923,296.320801 
	C749.366638,304.557373 745.530151,312.123596 742.067566,319.857208 
	C736.371460,332.579224 730.878357,345.392792 725.370728,358.198334 
	C717.205444,377.183105 709.130432,396.206726 700.962830,415.190521 
	C695.324829,428.295044 689.547363,441.339569 683.918579,454.447968 
	C676.206238,472.408875 668.581421,490.407318 660.907349,508.384705 
	C657.952209,515.307617 654.628845,522.100586 652.174438,529.195374 
	C651.315186,531.679260 652.866821,535.409485 650.215271,537.115479 
	C645.855957,539.920105 646.718628,544.230469 645.833435,548.124939 
	C645.740234,548.534851 645.827393,552.069397 643.501160,549.326782 
	C643.004333,550.440125 641.899414,551.691772 642.115784,552.642822 
	C643.062012,556.801819 641.690125,559.680908 638.110535,561.774292 
	C637.633057,562.053589 637.174805,562.869690 637.194458,563.419739 
	C637.503784,572.036865 631.600708,578.385742 628.840698,585.862549 
	C624.839539,596.701477 619.487732,607.035706 614.891907,617.663025 
	C609.830566,629.366699 605.353149,641.338318 599.904480,652.854065 
	C595.640137,661.866882 595.014954,671.094360 594.832458,680.811584 
	C594.536804,696.544434 593.693237,712.284363 587.170410,727.145569 
	C585.211060,731.609619 584.145569,736.883789 584.260925,741.749084 
	C584.466858,750.429565 580.644287,757.838135 577.710571,765.360779 
	C572.949768,777.568237 567.356567,789.517151 561.225769,801.104858 
	C555.610046,811.719055 548.840515,821.724731 542.534668,831.971069 
	C539.192383,837.401855 536.387024,843.328430 532.234741,848.062317 
	C522.298096,859.390747 512.387390,870.905151 501.195068,880.924438 
	C489.266144,891.602966 476.238068,901.174622 463.033142,910.276733 
	C445.767181,922.177917 426.864685,931.325256 406.952820,937.793579 
	C390.794586,943.042542 374.123047,946.727783 357.635498,950.935242 
	C353.305817,952.040161 348.813782,952.508728 344.698181,953.634766 
	C322.979095,954.000000 300.958221,954.000000 278.468658,954.000000 
M508.499969,660.874390 
	C529.331177,660.874390 550.163696,660.754944 570.992493,660.979492 
	C574.953430,661.022278 576.680237,659.819580 578.265564,656.168091 
	C633.449341,529.063232 688.795105,402.028625 743.974792,274.921936 
	C745.713257,270.917267 747.718750,269.763794 752.000122,269.767120 
	C914.484192,269.894012 1076.968262,269.856506 1239.452271,269.980225 
	C1243.407227,269.983246 1245.210938,268.796692 1246.755249,265.247772 
	C1281.958740,184.347122 1317.283203,103.499031 1352.576294,22.637306 
	C1353.185425,21.241695 1353.689697,19.800400 1354.404541,17.965702 
	C1352.575317,17.965702 1351.580200,17.965700 1350.584961,17.965700 
	C1163.769897,17.965641 976.954895,17.982010 790.139893,17.851318 
	C786.283203,17.848621 785.113220,19.502634 783.809509,22.497454 
	C706.879883,199.212570 629.887024,375.900146 552.890076,552.585938 
	C552.281616,553.982300 551.534607,555.318237 550.631104,557.124573 
	C536.030151,528.355164 517.887085,503.035522 495.293579,480.395233 
	C465.879486,506.136780 443.659241,536.851746 428.517395,572.669006 
	C416.645050,600.752258 410.024536,630.015137 408.913452,660.874390 
	C442.223175,660.874390 474.861542,660.874390 508.499969,660.874390 
M323.021057,660.647766 
	C343.966827,660.647766 364.912628,660.647766 386.048615,660.647766 
	C390.056946,582.909973 420.644318,517.862000 478.293640,465.133026 
	C432.453278,429.045105 380.750977,409.045654 322.246735,405.119049 
	C322.246735,407.519379 322.246735,409.324341 322.246735,411.129272 
	C322.246735,492.408203 322.245697,573.687134 322.254089,654.966064 
	C322.254242,656.627319 322.363770,658.288574 323.021057,660.647766 
M194.405136,910.065186 
	C227.534821,926.227173 262.490509,935.150208 299.506348,937.035278 
	C299.506348,852.545654 299.506348,768.555054 299.506348,684.405579 
	C278.234650,684.405579 257.314301,684.405579 236.035889,684.405579 
	C231.039108,761.080750 200.448914,825.519470 143.973129,877.894226 
	C159.500412,890.670227 176.099503,901.008179 194.405136,910.065186 
M448.115448,898.616577 
	C458.195007,891.651855 468.274597,884.687134 478.711243,877.475708 
	C421.075775,825.224854 390.453644,761.085022 386.056763,684.569214 
	C364.627289,684.569214 343.585083,684.569214 322.508575,684.569214 
	C322.508575,768.514771 322.508575,852.070435 322.508575,936.122681 
	C367.584473,934.448425 409.136383,922.169250 448.115448,898.616577 
M227.702728,602.837036 
	C230.919296,621.976868 234.135880,641.116760 237.395981,660.515503 
	C257.139648,660.515503 277.857483,660.515503 298.577515,660.515503 
	C298.577515,575.231262 298.577515,490.312347 298.577515,405.111115 
	C240.662689,409.385986 189.250198,429.228027 143.734406,465.269318 
	C164.395859,483.648102 181.714645,504.225067 195.895050,527.406616 
	C210.147064,550.705261 220.696198,575.578491 227.702728,602.837036 
M70.451981,558.989197 
	C55.644985,591.212219 47.421680,624.988892 45.942764,660.643677 
	C101.574127,660.643677 156.648087,660.643677 211.695511,660.643677 
	C217.545731,609.013794 167.310303,504.406250 125.375763,480.825958 
	C102.524712,503.351776 84.320854,529.180786 70.451981,558.989197 
M142.500046,684.182129 
	C110.409134,684.182129 78.318222,684.182129 46.212246,684.182129 
	C48.109856,745.157349 76.104378,814.655701 126.090492,861.632263 
	C156.738312,835.193665 179.654770,803.208557 194.730896,765.659607 
	C205.183441,739.626465 211.215988,712.611267 212.157928,684.182129 
	C188.765778,684.182129 166.132919,684.182129 142.500046,684.182129 
M458.789642,821.708740 
	C469.752808,836.459900 482.179199,849.825500 496.165497,861.704834 
	C540.578369,821.180542 580.964783,730.922302 575.543640,684.413208 
	C520.499573,684.413208 465.433014,684.413208 409.760773,684.413208 
	C412.409332,735.048035 428.560730,780.494080 458.789642,821.708740 
M1350.644043,111.116753 
	C1327.597900,163.853485 1304.551880,216.590225 1281.265747,269.876373 
	C1296.097412,269.876373 1309.918213,269.722351 1323.731201,269.979706 
	C1327.392822,270.047943 1328.862915,268.684540 1330.235229,265.530060 
	C1359.794678,197.590088 1389.466309,129.698868 1419.119995,61.799934 
	C1425.419556,47.375607 1431.734131,32.957870 1438.204468,18.165287 
	C1422.225830,18.165287 1406.804810,18.165287 1391.189941,18.165287 
	C1377.776367,48.905014 1364.356934,79.658119 1350.644043,111.116753 
z"/>
<path fill="#0D2240" opacity="1.000000" stroke="none" 
	d="
M507.999939,660.874390 
	C474.861542,660.874390 442.223175,660.874390 408.913452,660.874390 
	C410.024536,630.015137 416.645050,600.752258 428.517395,572.669006 
	C443.659241,536.851746 465.879486,506.136780 495.293579,480.395233 
	C517.887085,503.035522 536.030151,528.355164 550.631104,557.124573 
	C551.534607,555.318237 552.281616,553.982300 552.890076,552.585938 
	C629.887024,375.900146 706.879883,199.212570 783.809509,22.497454 
	C785.113220,19.502634 786.283203,17.848621 790.139893,17.851318 
	C976.954895,17.982010 1163.769897,17.965641 1350.584961,17.965700 
	C1351.580200,17.965700 1352.575317,17.965702 1354.404541,17.965702 
	C1353.689697,19.800400 1353.185425,21.241695 1352.576294,22.637306 
	C1317.283203,103.499031 1281.958740,184.347122 1246.755249,265.247772 
	C1245.210938,268.796692 1243.407227,269.983246 1239.452271,269.980225 
	C1076.968262,269.856506 914.484192,269.894012 752.000122,269.767120 
	C747.718750,269.763794 745.713257,270.917267 743.974792,274.921936 
	C688.795105,402.028625 633.449341,529.063232 578.265564,656.168091 
	C576.680237,659.819580 574.953430,661.022278 570.992493,660.979492 
	C550.163696,660.754944 529.331177,660.874390 507.999939,660.874390 
z"/>
<path fill="#2C5235" opacity="1.000000" stroke="none" 
	d="
M322.721680,660.298828 
	C322.363770,658.288574 322.254242,656.627319 322.254089,654.966064 
	C322.245697,573.687134 322.246735,492.408203 322.246735,411.129272 
	C322.246735,409.324341 322.246735,407.519379 322.246735,405.119049 
	C380.750977,409.045654 432.453278,429.045105 478.293640,465.133026 
	C420.644318,517.862000 390.056946,582.909973 386.048615,660.647766 
	C364.912628,660.647766 343.966827,660.647766 322.721680,660.298828 
z"/>
<path fill="#FFA401" opacity="1.000000" stroke="none" 
	d="
M194.058014,909.924377 
	C176.099503,901.008179 159.500412,890.670227 143.973129,877.894226 
	C200.448914,825.519470 231.039108,761.080750 236.035889,684.405579 
	C257.314301,684.405579 278.234650,684.405579 299.506348,684.405579 
	C299.506348,768.555054 299.506348,852.545654 299.506348,937.035278 
	C262.490509,935.150208 227.534821,926.227173 194.058014,909.924377 
z"/>
<path fill="#2C5235" opacity="1.000000" stroke="none" 
	d="
M447.799011,898.798340 
	C409.136383,922.169250 367.584473,934.448425 322.508575,936.122681 
	C322.508575,852.070435 322.508575,768.514771 322.508575,684.569214 
	C343.585083,684.569214 364.627289,684.569214 386.056763,684.569214 
	C390.453644,761.085022 421.075775,825.224854 478.711243,877.475708 
	C468.274597,884.687134 458.195007,891.651855 447.799011,898.798340 
z"/>
<path fill="#FFA401" opacity="1.000000" stroke="none" 
	d="
M227.562225,602.449036 
	C220.696198,575.578491 210.147064,550.705261 195.895050,527.406616 
	C181.714645,504.225067 164.395859,483.648102 143.734406,465.269318 
	C189.250198,429.228027 240.662689,409.385986 298.577515,405.111115 
	C298.577515,490.312347 298.577515,575.231262 298.577515,660.515503 
	C277.857483,660.515503 257.139648,660.515503 237.395981,660.515503 
	C234.135880,641.116760 230.919296,621.976868 227.562225,602.449036 
z"/>
<path fill="#0E2341" opacity="1.000000" stroke="none" 
	d="
M70.638229,558.662109 
	C84.320854,529.180786 102.524712,503.351776 125.375763,480.825958 
	C167.310303,504.406250 217.545731,609.013794 211.695511,660.643677 
	C156.648087,660.643677 101.574127,660.643677 45.942764,660.643677 
	C47.421680,624.988892 55.644985,591.212219 70.638229,558.662109 
z"/>
<path fill="#0E2341" opacity="1.000000" stroke="none" 
	d="
M143.000061,684.182129 
	C166.132919,684.182129 188.765778,684.182129 212.157928,684.182129 
	C211.215988,712.611267 205.183441,739.626465 194.730896,765.659607 
	C179.654770,803.208557 156.738312,835.193665 126.090492,861.632263 
	C76.104378,814.655701 48.109856,745.157349 46.212246,684.182129 
	C78.318222,684.182129 110.409134,684.182129 143.000061,684.182129 
z"/>
<path fill="#0E2341" opacity="1.000000" stroke="none" 
	d="
M458.562256,821.430969 
	C428.560730,780.494080 412.409332,735.048035 409.760773,684.413208 
	C465.433014,684.413208 520.499573,684.413208 575.543640,684.413208 
	C580.964783,730.922302 540.578369,821.180542 496.165497,861.704834 
	C482.179199,849.825500 469.752808,836.459900 458.562256,821.430969 
z"/>
<path fill="#2C5235" opacity="1.000000" stroke="none" 
	d="
M1350.790771,110.763985 
	C1364.356934,79.658119 1377.776367,48.905014 1391.189941,18.165287 
	C1406.804810,18.165287 1422.225830,18.165287 1438.204468,18.165287 
	C1431.734131,32.957870 1425.419556,47.375607 1419.119995,61.799934 
	C1389.466309,129.698868 1359.794678,197.590088 1330.235229,265.530060 
	C1328.862915,268.684540 1327.392822,270.047943 1323.731201,269.979706 
	C1309.918213,269.722351 1296.097412,269.876373 1281.265747,269.876373 
	C1304.551880,216.590225 1327.597900,163.853485 1350.790771,110.763985 
z"/>
</svg>