<svg version="1.1" id="Layer_1" xmlns="http://www.w3.org/2000/svg" xmlns:xlink="http://www.w3.org/1999/xlink" x="0px" y="0px"
	 width="100%" viewBox="0 0 1442 1441" enable-background="new 0 0 1442 1441" xml:space="preserve">
<path fill="none" opacity="1.000000" stroke="none"
	d="
M0.999997,667.000000 
	C1.000000,445.069855 1.000000,223.139679 1.000000,1.000000 
	C223.026810,1.000000 445.053680,1.000000 667.714233,1.416336 
	C667.835449,2.204701 667.349670,2.855940 666.806763,2.907624 
	C655.506470,3.983463 644.180786,4.819215 632.899841,6.063002 
	C622.485229,7.211261 612.036194,8.348159 601.747925,10.269851 
	C586.377258,13.140858 571.138672,16.716410 555.836060,19.955307 
	C523.222046,26.858290 491.644623,37.208961 460.619202,49.205048 
	C433.179413,59.814762 406.302368,71.785866 380.606476,86.183708 
	C364.936066,94.964104 349.117096,103.614182 334.204132,113.578835 
	C313.696198,127.281944 293.515594,141.574707 274.067413,156.734329 
	C256.690765,170.279175 240.148285,184.961578 223.901566,199.865662 
	C212.412491,210.405258 201.885513,222.015762 191.201080,233.403427 
	C182.505646,242.671173 173.612137,251.853683 165.870529,261.894409 
	C150.497147,281.833405 135.063080,301.809998 121.137711,322.757324 
	C107.237015,343.667542 94.179726,365.275757 82.540619,387.513733 
	C70.742523,410.055450 60.036636,433.318481 50.860851,457.042358 
	C41.008541,482.515503 32.909477,508.719238 25.126049,534.925110 
	C17.554802,560.416565 12.133381,586.477234 8.956717,612.937378 
	C6.924639,629.863647 5.022218,646.805542 2.943856,663.726013 
	C2.802166,664.879517 1.670987,665.911499 0.999997,667.000000 
z"/>
<path fill="none" opacity="1.000000" stroke="none"
	d="
M776.000000,1.000002 
	C998.263367,1.000000 1220.526733,1.000000 1443.000000,1.000000 
	C1443.000000,222.693481 1443.000000,444.387024 1442.584961,666.721436 
	C1441.778564,666.517761 1441.130737,665.701599 1441.033569,664.824463 
	C1439.316162,649.329712 1438.225830,633.741638 1435.863770,618.348083 
	C1432.697266,597.712769 1429.748535,576.919495 1424.546509,556.751221 
	C1417.439209,529.197021 1408.872437,501.976654 1399.893921,474.957916 
	C1386.974243,436.078857 1369.114746,399.295410 1348.758179,363.842499 
	C1332.567383,335.644806 1315.153320,308.118073 1294.401367,282.934265 
	C1279.142700,264.416962 1264.288086,245.498062 1248.005371,227.913742 
	C1233.373779,212.112534 1217.522461,197.338348 1201.327271,183.115280 
	C1184.328247,168.186295 1166.547852,154.105499 1148.631470,140.272354 
	C1119.060425,117.440605 1087.166016,98.131233 1053.944580,81.178490 
	C1033.884521,70.941956 1013.206665,61.849411 992.489258,52.984158 
	C964.436157,40.979877 935.457825,31.408251 905.835999,24.185680 
	C883.049866,18.629841 859.986267,14.027968 836.857300,10.118772 
	C817.809753,6.899404 798.481689,5.347069 779.291870,2.944668 
	C778.131653,2.799419 777.094421,1.670968 776.000000,1.000002 
z"/>
<path fill="none" opacity="1.000000" stroke="none"
	d="
M668.000000,1442.000000 
	C445.736603,1442.000000 223.473221,1442.000000 1.000000,1442.000000 
	C1.000000,1220.306519 1.000000,998.612976 1.411906,776.264221 
	C2.217287,776.453003 2.868711,777.268433 2.965903,778.145264 
	C4.683382,793.640381 5.774782,809.228760 8.135038,824.623108 
	C11.299040,845.259827 14.239846,866.055542 19.442076,886.224426 
	C26.549419,913.779358 35.128010,940.996826 44.101810,968.018250 
	C57.015026,1006.901611 74.876244,1043.684082 95.235664,1079.137085 
	C111.428337,1107.334351 128.830750,1134.868042 149.586945,1160.050049 
	C164.848633,1178.565796 179.699951,1197.488403 195.982605,1215.073730 
	C210.614075,1230.875854 226.465591,1245.650757 242.661087,1259.874268 
	C259.660583,1274.803955 277.444519,1288.881470 295.358612,1302.719116 
	C324.926117,1325.558716 356.826019,1344.861206 390.045746,1361.818848 
	C410.104614,1372.058105 430.785400,1381.145264 451.502777,1390.011719 
	C479.556335,1402.017822 508.535645,1411.589233 538.157776,1418.813965 
	C560.944763,1424.371582 584.009949,1428.972412 607.140198,1432.881958 
	C626.188354,1436.101318 645.517151,1437.653809 664.707581,1440.056274 
	C665.868042,1440.201538 666.905396,1441.329346 668.000000,1442.000000 
z"/>
<path fill="none" opacity="1.000000" stroke="none"
	d="
M1443.000000,776.000000 
	C1443.000000,997.930176 1443.000000,1219.860352 1443.000000,1442.000000 
	C1220.973145,1442.000000 998.946289,1442.000000 776.285889,1441.583740 
	C776.164612,1440.795776 776.650330,1440.145142 777.193054,1440.093384 
	C788.493835,1439.017212 799.820129,1438.181030 811.101562,1436.936768 
	C821.516663,1435.788086 831.966064,1434.650513 842.254944,1432.729004 
	C857.626465,1429.858154 872.866455,1426.284912 888.169556,1423.044434 
	C920.784302,1416.137939 952.363159,1405.787354 983.390442,1393.790039 
	C1010.830933,1383.179688 1037.708252,1371.208984 1063.404419,1356.810181 
	C1079.075073,1348.029053 1094.893677,1339.376953 1109.807251,1329.411987 
	C1130.315796,1315.708374 1150.498169,1301.416382 1169.946777,1286.256104 
	C1187.323975,1272.710571 1203.870117,1258.030396 1220.111816,1243.119629 
	C1231.720215,1232.462646 1242.364868,1220.733765 1253.166260,1209.226440 
	C1261.750000,1200.081909 1270.512695,1191.005493 1278.147827,1181.091675 
	C1293.510986,1161.143555 1308.953979,1141.173340 1322.879028,1120.224976 
	C1336.779541,1099.313354 1349.835205,1077.702881 1361.474365,1055.463623 
	C1373.272461,1032.921021 1383.981567,1009.658508 1393.155396,985.933228 
	C1403.005615,960.458435 1411.089844,934.249268 1418.879395,908.043884 
	C1426.456909,882.552063 1431.864258,856.488281 1435.045288,830.028503 
	C1437.080200,813.102051 1438.979126,796.159119 1441.056396,779.237976 
	C1441.196655,778.096375 1442.329102,777.076538 1443.000000,776.000000 
z"/>
<path fill="#8F9191" opacity="1.000000" stroke="none" 
	d="
M1443.000000,775.531372 
	C1442.329102,777.076538 1441.196655,778.096375 1441.056396,779.237976 
	C1438.979126,796.159119 1437.080200,813.102051 1435.045288,830.028503 
	C1431.864258,856.488281 1426.456909,882.552063 1418.879395,908.043884 
	C1411.089844,934.249268 1403.005615,960.458435 1393.155396,985.933228 
	C1383.981567,1009.658508 1373.272461,1032.921021 1361.474365,1055.463623 
	C1349.835205,1077.702881 1336.779541,1099.313354 1322.879028,1120.224976 
	C1308.953979,1141.173340 1293.510986,1161.143555 1278.147827,1181.091675 
	C1270.512695,1191.005493 1261.750000,1200.081909 1253.166260,1209.226440 
	C1242.364868,1220.733765 1231.720215,1232.462646 1220.111816,1243.119629 
	C1203.870117,1258.030396 1187.323975,1272.710571 1169.946777,1286.256104 
	C1150.498169,1301.416382 1130.315796,1315.708374 1109.807251,1329.411987 
	C1094.893677,1339.376953 1079.075073,1348.029053 1063.404419,1356.810181 
	C1037.708252,1371.208984 1010.830933,1383.179688 983.390442,1393.790039 
	C952.363159,1405.787354 920.784302,1416.137939 888.169556,1423.044434 
	C872.866455,1426.284912 857.626465,1429.858154 842.254944,1432.729004 
	C831.966064,1434.650513 821.516663,1435.788086 811.101562,1436.936768 
	C799.820129,1438.181030 788.493835,1439.017212 777.193054,1440.093384 
	C776.650330,1440.145142 776.164612,1440.795776 775.826172,1441.583740 
	C740.312439,1442.000000 704.624878,1442.000000 668.468628,1442.000000 
	C666.905396,1441.329346 665.868042,1440.201538 664.707581,1440.056274 
	C645.517151,1437.653809 626.188354,1436.101318 607.140198,1432.881958 
	C584.009949,1428.972412 560.944763,1424.371582 538.157776,1418.813965 
	C508.535645,1411.589233 479.556335,1402.017822 451.502777,1390.011719 
	C430.785400,1381.145264 410.104614,1372.058105 390.045746,1361.818848 
	C356.826019,1344.861206 324.926117,1325.558716 295.358612,1302.719116 
	C277.444519,1288.881470 259.660583,1274.803955 242.661087,1259.874268 
	C226.465591,1245.650757 210.614075,1230.875854 195.982605,1215.073730 
	C179.699951,1197.488403 164.848633,1178.565796 149.586945,1160.050049 
	C128.830750,1134.868042 111.428337,1107.334351 95.235664,1079.137085 
	C74.876244,1043.684082 57.015026,1006.901611 44.101810,968.018250 
	C35.128010,940.996826 26.549419,913.779358 19.442076,886.224426 
	C14.239846,866.055542 11.299040,845.259827 8.135038,824.623108 
	C5.774782,809.228760 4.683382,793.640381 2.965903,778.145264 
	C2.868711,777.268433 2.217287,776.453003 1.411906,775.804504 
	C1.000000,739.979126 1.000000,703.958191 0.999997,667.468628 
	C1.670987,665.911499 2.802166,664.879517 2.943856,663.726013 
	C5.022218,646.805542 6.924639,629.863647 8.956717,612.937378 
	C12.133381,586.477234 17.554802,560.416565 25.126049,534.925110 
	C32.909477,508.719238 41.008541,482.515503 50.860851,457.042358 
	C60.036636,433.318481 70.742523,410.055450 82.540619,387.513733 
	C94.179726,365.275757 107.237015,343.667542 121.137711,322.757324 
	C135.063080,301.809998 150.497147,281.833405 165.870529,261.894409 
	C173.612137,251.853683 182.505646,242.671173 191.201080,233.403427 
	C201.885513,222.015762 212.412491,210.405258 223.901566,199.865662 
	C240.148285,184.961578 256.690765,170.279175 274.067413,156.734329 
	C293.515594,141.574707 313.696198,127.281944 334.204132,113.578835 
	C349.117096,103.614182 364.936066,94.964104 380.606476,86.183708 
	C406.302368,71.785866 433.179413,59.814762 460.619202,49.205048 
	C491.644623,37.208961 523.222046,26.858290 555.836060,19.955307 
	C571.138672,16.716410 586.377258,13.140858 601.747925,10.269851 
	C612.036194,8.348159 622.485229,7.211261 632.899841,6.063002 
	C644.180786,4.819215 655.506470,3.983463 666.806763,2.907624 
	C667.349670,2.855940 667.835449,2.204701 668.173950,1.416336 
	C703.687561,1.000000 739.375122,1.000000 775.531372,1.000002 
	C777.094421,1.670968 778.131653,2.799419 779.291870,2.944668 
	C798.481689,5.347069 817.809753,6.899404 836.857300,10.118772 
	C859.986267,14.027968 883.049866,18.629841 905.835999,24.185680 
	C935.457825,31.408251 964.436157,40.979877 992.489258,52.984158 
	C1013.206665,61.849411 1033.884521,70.941956 1053.944580,81.178490 
	C1087.166016,98.131233 1119.060425,117.440605 1148.631470,140.272354 
	C1166.547852,154.105499 1184.328247,168.186295 1201.327271,183.115280 
	C1217.522461,197.338348 1233.373779,212.112534 1248.005371,227.913742 
	C1264.288086,245.498062 1279.142700,264.416962 1294.401367,282.934265 
	C1315.153320,308.118073 1332.567383,335.644806 1348.758179,363.842499 
	C1369.114746,399.295410 1386.974243,436.078857 1399.893921,474.957916 
	C1408.872437,501.976654 1417.439209,529.197021 1424.546509,556.751221 
	C1429.748535,576.919495 1432.697266,597.712769 1435.863770,618.348083 
	C1438.225830,633.741638 1439.316162,649.329712 1441.033569,664.824463 
	C1441.130737,665.701599 1441.778564,666.517761 1442.584961,667.181152 
	C1443.000000,703.020874 1443.000000,739.041809 1443.000000,775.531372 
M159.956482,275.464417 
	C139.907227,300.663666 121.601234,327.071106 105.143242,354.750153 
	C42.955593,459.337189 9.762261,572.631531 4.231091,693.997803 
	C2.195032,738.673523 4.614751,783.273010 11.198746,827.564514 
	C21.874582,899.382385 42.439190,968.290100 74.377083,1033.487183 
	C124.971848,1136.769775 195.268341,1224.153198 287.238464,1293.759033 
	C406.858734,1384.291382 541.577759,1433.039429 691.383789,1439.702881 
	C729.858765,1441.414429 768.300598,1439.760254 806.627991,1435.255493 
	C861.932312,1428.755859 915.897400,1416.536987 968.120728,1397.335938 
	C1090.012939,1352.519653 1192.812744,1280.188477 1275.157837,1179.790771 
	C1377.642456,1054.838135 1431.594238,910.947144 1438.687012,749.591858 
	C1440.459473,709.266785 1438.443726,669.005798 1433.197021,628.916199 
	C1426.101807,574.703003 1412.883423,522.067810 1393.897461,470.817139 
	C1360.101685,379.588104 1309.804077,298.563538 1242.604980,228.317947 
	C1156.962769,138.793289 1054.894775,75.215973 936.745117,37.652927 
	C875.930725,18.318344 813.554199,7.687682 749.846741,5.256488 
	C709.338074,3.710605 668.926819,5.523675 628.666931,10.811323 
	C569.270386,18.612350 511.687408,33.345631 456.118591,55.633373 
	C338.403656,102.846886 239.850296,176.028229 159.956482,275.464417 
z"/>
<path fill="#FEFEFE" opacity="1.000000" stroke="none" 
	d="
M160.180435,275.189056 
	C239.850296,176.028229 338.403656,102.846886 456.118591,55.633373 
	C511.687408,33.345631 569.270386,18.612350 628.666931,10.811323 
	C668.926819,5.523675 709.338074,3.710605 749.846741,5.256488 
	C813.554199,7.687682 875.930725,18.318344 936.745117,37.652927 
	C1054.894775,75.215973 1156.962769,138.793289 1242.604980,228.317947 
	C1309.804077,298.563538 1360.101685,379.588104 1393.897461,470.817139 
	C1412.883423,522.067810 1426.101807,574.703003 1433.197021,628.916199 
	C1438.443726,669.005798 1440.459473,709.266785 1438.687012,749.591858 
	C1431.594238,910.947144 1377.642456,1054.838135 1275.157837,1179.790771 
	C1192.812744,1280.188477 1090.012939,1352.519653 968.120728,1397.335938 
	C915.897400,1416.536987 861.932312,1428.755859 806.627991,1435.255493 
	C768.300598,1439.760254 729.858765,1441.414429 691.383789,1439.702881 
	C541.577759,1433.039429 406.858734,1384.291382 287.238464,1293.759033 
	C195.268341,1224.153198 124.971848,1136.769775 74.377083,1033.487183 
	C42.439190,968.290100 21.874582,899.382385 11.198746,827.564514 
	C4.614751,783.273010 2.195032,738.673523 4.231091,693.997803 
	C9.762261,572.631531 42.955593,459.337189 105.143242,354.750153 
	C121.601234,327.071106 139.907227,300.663666 160.180435,275.189056 
M721.993164,525.022888 
	C722.379639,823.931702 722.766113,1122.840454 723.153442,1422.437012 
	C725.509216,1421.224976 726.991882,1420.524780 728.415588,1419.720337 
	C747.258850,1409.073486 766.068237,1398.366455 784.939514,1387.769653 
	C798.572327,1380.114136 812.284790,1372.600464 826.799927,1365.022217 
	C840.671021,1362.322144 854.643616,1360.057617 868.397156,1356.853027 
	C980.095886,1330.827026 1078.419067,1279.210083 1163.318726,1202.089478 
	C1165.220337,1200.362061 1166.878296,1198.112549 1167.972290,1195.787720 
	C1188.697998,1151.749512 1194.772095,1105.155273 1191.627808,1057.065430 
	C1189.127319,1018.821289 1181.194580,981.543030 1168.729614,945.418823 
	C1130.847290,835.632385 1074.510132,736.491333 996.516968,650.013855 
	C914.835327,559.446655 822.900024,480.368988 725.365540,407.532410 
	C722.706299,405.546539 721.153992,405.711945 718.575745,407.624908 
	C639.243652,466.486908 564.357178,530.480896 494.282990,600.160278 
	C420.446594,673.580750 358.956818,755.711914 314.253998,850.109375 
	C282.517761,917.125671 257.094025,985.896790 252.565659,1060.804199 
	C249.737289,1107.590454 256.482422,1152.762329 276.437347,1195.524170 
	C277.864746,1198.583008 280.018372,1201.560303 282.514679,1203.825806 
	C371.828491,1284.883301 475.636200,1337.297974 593.896851,1361.039673 
	C601.983887,1362.663330 610.131653,1363.983765 618.588562,1365.505859 
	C618.758850,1363.094849 618.877563,1361.455566 618.990173,1359.815796 
	C621.113525,1328.902100 623.216797,1297.987183 625.363586,1267.075195 
	C628.214417,1226.025635 631.119934,1184.979736 633.962708,1143.929565 
	C636.448792,1108.031372 638.853516,1072.127563 641.343750,1036.229492 
	C644.179749,995.345947 647.097656,954.468140 649.929504,913.584290 
	C652.427551,877.519714 654.824097,841.448059 657.323853,805.383606 
	C660.157654,764.500061 663.087036,723.623230 665.917847,682.739502 
	C668.403503,646.841064 670.764343,610.933838 673.362671,575.043762 
	C673.523743,572.818237 674.787598,570.227844 676.365906,568.619446 
	C690.255371,554.465332 704.320496,540.483276 718.380127,526.497009 
	C719.373169,525.509155 720.734253,524.891235 721.993164,525.022888 
M576.709290,300.795319 
	C564.123840,293.659637 551.257019,286.972015 539.017334,279.285706 
	C519.512634,267.037079 498.453094,265.433746 476.474030,268.578156 
	C449.596741,272.423340 424.766022,282.304016 401.210754,295.308044 
	C346.209961,325.671875 295.077911,361.614777 248.262741,403.553711 
	C209.253754,438.499542 174.065735,476.889618 146.148621,521.403320 
	C110.461357,578.306396 86.386246,640.001343 72.175171,705.567566 
	C69.785049,716.595032 66.724503,727.840332 66.789787,738.968384 
	C66.981544,771.653381 70.920319,804.072632 76.841454,836.243774 
	C93.169365,924.957703 126.516235,1006.721680 176.748154,1081.619019 
	C177.318329,1082.469238 178.072800,1083.195923 179.109940,1084.412964 
	C179.109940,1082.548950 179.194656,1081.404785 179.097427,1080.276245 
	C177.185257,1058.084839 178.167633,1035.973633 181.358795,1013.977600 
	C187.302902,973.006287 200.286560,934.158936 217.574539,896.688660 
	C247.902573,830.955261 288.713989,771.924011 333.858093,715.709290 
	C378.370178,660.281555 427.136749,608.731140 477.322083,558.462036 
	C543.357422,492.316345 588.878601,414.855011 606.802246,322.277618 
	C607.414246,319.116425 606.733215,317.534637 603.906128,316.012543 
	C594.976257,311.204742 586.208679,306.095428 576.709290,300.795319 
M982.788147,574.710999 
	C1035.692017,628.160828 1086.378418,683.575195 1131.950928,743.498840 
	C1169.816772,793.288757 1203.909058,845.428650 1229.494629,902.723633 
	C1254.715576,959.202332 1270.312866,1017.719971 1265.794434,1080.315796 
	C1265.758423,1080.815918 1266.065308,1081.340698 1266.298218,1082.155396 
	C1266.934448,1081.385864 1267.281128,1081.037354 1267.546631,1080.635376 
	C1333.613892,980.606934 1369.634644,870.693359 1375.829346,751.009338 
	C1376.267090,742.550903 1377.095337,733.816406 1375.573364,725.612671 
	C1372.089722,706.835938 1368.047852,688.086060 1362.845947,669.718018 
	C1340.043945,589.204529 1303.072998,516.252197 1246.383057,453.941772 
	C1187.968872,389.736145 1119.586548,338.307739 1044.110107,296.038452 
	C1017.219116,280.978729 988.781250,269.930328 957.632446,267.533234 
	C942.325439,266.355286 927.153198,267.312347 913.420898,274.845642 
	C888.786926,288.359406 864.464966,302.441040 839.934814,316.146149 
	C837.055237,317.754974 836.419128,319.435638 837.279297,322.496552 
	C839.347046,329.855072 841.011353,337.326202 843.033569,344.698425 
	C847.648376,361.522308 851.075684,378.818146 857.333862,395.014862 
	C870.685791,429.570953 889.132629,461.550995 910.374817,491.921844 
	C931.383423,521.958801 956.174866,548.653931 982.788147,574.710999 
M169.899780,364.378479 
	C142.645370,406.694702 120.467049,451.484283 103.907616,499.018311 
	C233.442368,320.229736 407.560577,217.278702 626.833923,190.053696 
	C626.710571,189.621857 626.571472,188.830856 626.266052,188.110352 
	C620.575012,174.682785 613.067993,162.351151 603.651184,151.220596 
	C580.271179,123.585831 549.797424,107.299011 515.855286,96.653366 
	C514.589600,96.256401 512.922424,96.533905 511.608459,96.983139 
	C439.946625,121.484520 374.401794,157.241974 315.047424,204.265686 
	C258.018372,249.447144 209.806747,302.678040 169.899780,364.378479 
M1252.068481,395.430969 
	C1262.328247,406.133789 1272.867920,416.585236 1282.769165,427.610168 
	C1292.668091,438.632507 1302.180176,450.028564 1311.397217,461.629883 
	C1320.461060,473.038544 1328.941406,484.910767 1337.677856,496.579559 
	C1337.479126,493.997070 1336.794556,491.657623 1335.933960,489.384796 
	C1306.005981,410.349060 1262.730103,339.454193 1205.713989,277.074677 
	C1134.261719,198.900711 1048.880493,141.148880 949.855774,103.548141 
	C928.302917,95.364311 928.294006,95.098389 907.193726,104.030083 
	C872.203430,118.841377 843.424561,141.050308 824.448486,174.645004 
	C821.620239,179.652100 819.261292,184.924332 816.511902,190.420334 
	C984.596375,210.724869 1130.207764,277.085754 1252.068481,395.430969 
M711.359680,178.920700 
	C704.647583,193.024338 697.945862,207.132935 691.213867,221.227081 
	C690.010193,223.747070 688.972717,225.969025 685.263550,226.109116 
	C644.765198,227.639053 604.604980,232.248474 564.819214,239.995316 
	C558.648438,241.196838 552.549927,242.769623 545.010559,244.492325 
	C548.953613,246.603790 551.431641,247.927643 553.906921,249.256729 
	C584.422791,265.642181 614.928467,282.046631 645.471069,298.382111 
	C648.114136,299.795715 649.351074,301.015930 648.395813,304.515442 
	C639.501099,337.100830 630.857483,369.754730 622.151001,402.391449 
	C620.378296,409.036377 618.647339,415.692474 616.624268,423.380524 
	C618.705200,421.952087 619.818298,421.254761 620.859680,420.463104 
	C635.051636,409.674652 649.138977,398.745728 663.442200,388.106934 
	C681.478577,374.691345 699.709961,361.538239 717.803955,348.199585 
	C720.793030,345.996002 723.156250,346.137878 726.189453,348.398682 
	C748.760864,365.222198 771.478271,381.849518 794.101624,398.603546 
	C804.917908,406.613678 815.629089,414.765656 827.216431,423.476227 
	C826.702820,421.149445 826.472168,419.877014 826.139771,418.631744 
	C816.184204,381.338531 806.312805,344.022278 796.135742,306.789551 
	C794.858826,302.118103 795.521423,299.810883 799.927612,297.484314 
	C829.671814,281.778442 859.271240,265.798492 888.911926,249.896729 
	C891.905457,248.290756 894.861389,246.614594 898.655518,244.517334 
	C895.946655,243.807007 894.359741,243.341629 892.750183,242.975983 
	C849.098633,233.059692 804.802490,228.155136 760.153076,226.153366 
	C756.511841,225.990112 754.443848,224.852402 752.905273,221.633942 
	C745.656738,206.472198 738.256348,191.383072 730.917480,176.264481 
	C728.113098,170.487228 725.328003,164.700607 722.004150,157.821396 
	C718.231567,165.333298 714.982117,171.803421 711.359680,178.920700 
M586.051697,76.901222 
	C585.733398,77.313187 585.415100,77.725151 585.096802,78.137085 
	C585.664856,78.480804 586.224304,78.839607 586.802063,79.166100 
	C626.290771,101.482285 651.683533,135.491989 668.007568,177.030640 
	C668.684143,178.752121 669.453735,180.437073 670.428650,182.721970 
	C687.830200,157.193039 704.740417,132.384903 722.006531,107.054634 
	C739.412354,132.588898 756.345642,157.429947 773.684448,182.865875 
	C790.889709,137.863464 817.285583,101.162392 860.444519,77.339409 
	C826.018738,70.141106 792.265991,65.109818 758.144775,64.212090 
	C729.379211,63.455269 700.457581,63.234509 671.798035,65.368462 
	C643.335266,67.487762 615.113464,72.842186 586.051697,76.901222 
M103.924026,500.506561 
	C103.724640,500.431763 103.525253,500.356964 103.325874,500.282135 
	C103.388817,500.496613 103.451752,500.711090 103.924026,500.506561 
z"/>
<path fill="#0D2240" opacity="1.000000" stroke="none" 
	d="
M721.924194,524.101318 
	C720.734253,524.891235 719.373169,525.509155 718.380127,526.497009 
	C704.320496,540.483276 690.255371,554.465332 676.365906,568.619446 
	C674.787598,570.227844 673.523743,572.818237 673.362671,575.043762 
	C670.764343,610.933838 668.403503,646.841064 665.917847,682.739502 
	C663.087036,723.623230 660.157654,764.500061 657.323853,805.383606 
	C654.824097,841.448059 652.427551,877.519714 649.929504,913.584290 
	C647.097656,954.468140 644.179749,995.345947 641.343750,1036.229492 
	C638.853516,1072.127563 636.448792,1108.031372 633.962708,1143.929565 
	C631.119934,1184.979736 628.214417,1226.025635 625.363586,1267.075195 
	C623.216797,1297.987183 621.113525,1328.902100 618.990173,1359.815796 
	C618.877563,1361.455566 618.758850,1363.094849 618.588562,1365.505859 
	C610.131653,1363.983765 601.983887,1362.663330 593.896851,1361.039673 
	C475.636200,1337.297974 371.828491,1284.883301 282.514679,1203.825806 
	C280.018372,1201.560303 277.864746,1198.583008 276.437347,1195.524170 
	C256.482422,1152.762329 249.737289,1107.590454 252.565659,1060.804199 
	C257.094025,985.896790 282.517761,917.125671 314.253998,850.109375 
	C358.956818,755.711914 420.446594,673.580750 494.282990,600.160278 
	C564.357178,530.480896 639.243652,466.486908 718.575745,407.624908 
	C721.153992,405.711945 722.706299,405.546539 725.365540,407.532410 
	C822.900024,480.368988 914.835327,559.446655 996.516968,650.013855 
	C1074.510132,736.491333 1130.847290,835.632385 1168.729614,945.418823 
	C1181.194580,981.543030 1189.127319,1018.821289 1191.627808,1057.065430 
	C1194.772095,1105.155273 1188.697998,1151.749512 1167.972290,1195.787720 
	C1166.878296,1198.112549 1165.220337,1200.362061 1163.318726,1202.089478 
	C1078.419067,1279.210083 980.095886,1330.827026 868.397156,1356.853027 
	C854.643616,1360.057617 840.671021,1362.322144 826.323853,1364.599609 
	C825.243469,1355.732178 824.627625,1347.288208 824.037598,1338.842163 
	C823.285034,1328.070923 822.578613,1317.296265 821.806702,1306.526367 
	C820.572388,1289.303345 819.278992,1272.084473 818.052368,1254.860718 
	C817.261658,1243.758301 816.581360,1232.647827 815.788330,1221.545532 
	C814.570068,1204.488037 813.272095,1187.436157 812.056763,1170.378418 
	C811.254028,1159.110107 810.577454,1147.832764 809.771851,1136.564819 
	C808.564209,1119.673584 807.263184,1102.789062 806.059204,1085.897705 
	C805.244202,1074.463135 804.578125,1063.017822 803.754822,1051.583862 
	C802.562561,1035.025391 801.242310,1018.476135 800.064575,1001.916626 
	C799.239502,990.316223 798.617310,978.701599 797.804504,967.100281 
	C796.597717,949.875916 795.283142,932.659058 794.051880,915.436340 
	C793.258240,904.334839 792.572632,893.225647 791.765015,882.125244 
	C790.560303,865.566895 789.242798,849.016663 788.065063,832.456482 
	C787.240173,820.857056 786.623962,809.242920 785.815674,797.642212 
	C784.604004,780.251160 783.287781,762.867493 782.050415,745.478149 
	C781.272156,734.541748 780.617676,723.596252 779.799011,712.663025 
	C778.596497,696.604065 777.214050,680.558350 776.065674,664.495728 
	C775.200867,652.399353 774.662476,640.279907 773.836609,628.180420 
	C772.638000,610.622559 771.421570,593.064026 769.915710,575.531189 
	C769.698975,573.006897 768.393066,570.070679 766.629089,568.265076 
	C753.007568,554.321533 739.156494,540.601990 725.348328,526.841431 
	C724.319031,525.815613 723.070679,525.009521 721.924194,524.101318 
z"/>
<path fill="#0D2240" opacity="1.000000" stroke="none" 
	d="
M577.043823,300.949036 
	C586.208679,306.095428 594.976257,311.204742 603.906128,316.012543 
	C606.733215,317.534637 607.414246,319.116425 606.802246,322.277618 
	C588.878601,414.855011 543.357422,492.316345 477.322083,558.462036 
	C427.136749,608.731140 378.370178,660.281555 333.858093,715.709290 
	C288.713989,771.924011 247.902573,830.955261 217.574539,896.688660 
	C200.286560,934.158936 187.302902,973.006287 181.358795,1013.977600 
	C178.167633,1035.973633 177.185257,1058.084839 179.097427,1080.276245 
	C179.194656,1081.404785 179.109940,1082.548950 179.109940,1084.412964 
	C178.072800,1083.195923 177.318329,1082.469238 176.748154,1081.619019 
	C126.516235,1006.721680 93.169365,924.957703 76.841454,836.243774 
	C70.920319,804.072632 66.981544,771.653381 66.789787,738.968384 
	C66.724503,727.840332 69.785049,716.595032 72.175171,705.567566 
	C86.386246,640.001343 110.461357,578.306396 146.148621,521.403320 
	C174.065735,476.889618 209.253754,438.499542 248.262741,403.553711 
	C295.077911,361.614777 346.209961,325.671875 401.210754,295.308044 
	C424.766022,282.304016 449.596741,272.423340 476.474030,268.578156 
	C498.453094,265.433746 519.512634,267.037079 539.017334,279.285706 
	C551.257019,286.972015 564.123840,293.659637 577.043823,300.949036 
z"/>
<path fill="#0D2240" opacity="1.000000" stroke="none" 
	d="
M982.538452,574.460815 
	C956.174866,548.653931 931.383423,521.958801 910.374817,491.921844 
	C889.132629,461.550995 870.685791,429.570953 857.333862,395.014862 
	C851.075684,378.818146 847.648376,361.522308 843.033569,344.698425 
	C841.011353,337.326202 839.347046,329.855072 837.279297,322.496552 
	C836.419128,319.435638 837.055237,317.754974 839.934814,316.146149 
	C864.464966,302.441040 888.786926,288.359406 913.420898,274.845642 
	C927.153198,267.312347 942.325439,266.355286 957.632446,267.533234 
	C988.781250,269.930328 1017.219116,280.978729 1044.110107,296.038452 
	C1119.586548,338.307739 1187.968872,389.736145 1246.383057,453.941772 
	C1303.072998,516.252197 1340.043945,589.204529 1362.845947,669.718018 
	C1368.047852,688.086060 1372.089722,706.835938 1375.573364,725.612671 
	C1377.095337,733.816406 1376.267090,742.550903 1375.829346,751.009338 
	C1369.634644,870.693359 1333.613892,980.606934 1267.546631,1080.635376 
	C1267.281128,1081.037354 1266.934448,1081.385864 1266.298218,1082.155396 
	C1266.065308,1081.340698 1265.758423,1080.815918 1265.794434,1080.315796 
	C1270.312866,1017.719971 1254.715576,959.202332 1229.494629,902.723633 
	C1203.909058,845.428650 1169.816772,793.288757 1131.950928,743.498840 
	C1086.378418,683.575195 1035.692017,628.160828 982.538452,574.460815 
z"/>
<path fill="#8B8D8D" opacity="1.000000" stroke="none" 
	d="
M721.958679,524.562134 
	C723.070679,525.009521 724.319031,525.815613 725.348328,526.841431 
	C739.156494,540.601990 753.007568,554.321533 766.629089,568.265076 
	C768.393066,570.070679 769.698975,573.006897 769.915710,575.531189 
	C771.421570,593.064026 772.638000,610.622559 773.836609,628.180420 
	C774.662476,640.279907 775.200867,652.399353 776.065674,664.495728 
	C777.214050,680.558350 778.596497,696.604065 779.799011,712.663025 
	C780.617676,723.596252 781.272156,734.541748 782.050415,745.478149 
	C783.287781,762.867493 784.604004,780.251160 785.815674,797.642212 
	C786.623962,809.242920 787.240173,820.857056 788.065063,832.456482 
	C789.242798,849.016663 790.560303,865.566895 791.765015,882.125244 
	C792.572632,893.225647 793.258240,904.334839 794.051880,915.436340 
	C795.283142,932.659058 796.597717,949.875916 797.804504,967.100281 
	C798.617310,978.701599 799.239502,990.316223 800.064575,1001.916626 
	C801.242310,1018.476135 802.562561,1035.025391 803.754822,1051.583862 
	C804.578125,1063.017822 805.244202,1074.463135 806.059204,1085.897705 
	C807.263184,1102.789062 808.564209,1119.673584 809.771851,1136.564819 
	C810.577454,1147.832764 811.254028,1159.110107 812.056763,1170.378418 
	C813.272095,1187.436157 814.570068,1204.488037 815.788330,1221.545532 
	C816.581360,1232.647827 817.261658,1243.758301 818.052368,1254.860718 
	C819.278992,1272.084473 820.572388,1289.303345 821.806702,1306.526367 
	C822.578613,1317.296265 823.285034,1328.070923 824.037598,1338.842163 
	C824.627625,1347.288208 825.243469,1355.732178 825.904785,1364.600342 
	C812.284790,1372.600464 798.572327,1380.114136 784.939514,1387.769653 
	C766.068237,1398.366455 747.258850,1409.073486 728.415588,1419.720337 
	C726.991882,1420.524780 725.509216,1421.224976 723.153442,1422.437012 
	C722.766113,1122.840454 722.379639,823.931702 721.958679,524.562134 
z"/>
<path fill="#CF0B2D" opacity="1.000000" stroke="none" 
	d="
M170.077789,364.064026 
	C209.806747,302.678040 258.018372,249.447144 315.047424,204.265686 
	C374.401794,157.241974 439.946625,121.484520 511.608459,96.983139 
	C512.922424,96.533905 514.589600,96.256401 515.855286,96.653366 
	C549.797424,107.299011 580.271179,123.585831 603.651184,151.220596 
	C613.067993,162.351151 620.575012,174.682785 626.266052,188.110352 
	C626.571472,188.830856 626.710571,189.621857 626.833923,190.053696 
	C407.560577,217.278702 233.442368,320.229736 103.907616,499.018311 
	C120.467049,451.484283 142.645370,406.694702 170.077789,364.064026 
z"/>
<path fill="#CF0B2D" opacity="1.000000" stroke="none" 
	d="
M1251.817261,395.182129 
	C1130.207764,277.085754 984.596375,210.724869 816.511902,190.420334 
	C819.261292,184.924332 821.620239,179.652100 824.448486,174.645004 
	C843.424561,141.050308 872.203430,118.841377 907.193726,104.030083 
	C928.294006,95.098389 928.302917,95.364311 949.855774,103.548141 
	C1048.880493,141.148880 1134.261719,198.900711 1205.713989,277.074677 
	C1262.730103,339.454193 1306.005981,410.349060 1335.933960,489.384796 
	C1336.794556,491.657623 1337.479126,493.997070 1337.677856,496.579559 
	C1328.941406,484.910767 1320.461060,473.038544 1311.397217,461.629883 
	C1302.180176,450.028564 1292.668091,438.632507 1282.769165,427.610168 
	C1272.867920,416.585236 1262.328247,406.133789 1251.817261,395.182129 
z"/>
<path fill="#8B8D8D" opacity="1.000000" stroke="none" 
	d="
M711.546204,178.597107 
	C714.982117,171.803421 718.231567,165.333298 722.004150,157.821396 
	C725.328003,164.700607 728.113098,170.487228 730.917480,176.264481 
	C738.256348,191.383072 745.656738,206.472198 752.905273,221.633942 
	C754.443848,224.852402 756.511841,225.990112 760.153076,226.153366 
	C804.802490,228.155136 849.098633,233.059692 892.750183,242.975983 
	C894.359741,243.341629 895.946655,243.807007 898.655518,244.517334 
	C894.861389,246.614594 891.905457,248.290756 888.911926,249.896729 
	C859.271240,265.798492 829.671814,281.778442 799.927612,297.484314 
	C795.521423,299.810883 794.858826,302.118103 796.135742,306.789551 
	C806.312805,344.022278 816.184204,381.338531 826.139771,418.631744 
	C826.472168,419.877014 826.702820,421.149445 827.216431,423.476227 
	C815.629089,414.765656 804.917908,406.613678 794.101624,398.603546 
	C771.478271,381.849518 748.760864,365.222198 726.189453,348.398682 
	C723.156250,346.137878 720.793030,345.996002 717.803955,348.199585 
	C699.709961,361.538239 681.478577,374.691345 663.442200,388.106934 
	C649.138977,398.745728 635.051636,409.674652 620.859680,420.463104 
	C619.818298,421.254761 618.705200,421.952087 616.624268,423.380524 
	C618.647339,415.692474 620.378296,409.036377 622.151001,402.391449 
	C630.857483,369.754730 639.501099,337.100830 648.395813,304.515442 
	C649.351074,301.015930 648.114136,299.795715 645.471069,298.382111 
	C614.928467,282.046631 584.422791,265.642181 553.906921,249.256729 
	C551.431641,247.927643 548.953613,246.603790 545.010559,244.492325 
	C552.549927,242.769623 558.648438,241.196838 564.819214,239.995316 
	C604.604980,232.248474 644.765198,227.639053 685.263550,226.109116 
	C688.972717,225.969025 690.010193,223.747070 691.213867,221.227081 
	C697.945862,207.132935 704.647583,193.024338 711.546204,178.597107 
z"/>
<path fill="#CF0B2D" opacity="1.000000" stroke="none" 
	d="
M586.418823,76.839546 
	C615.113464,72.842186 643.335266,67.487762 671.798035,65.368462 
	C700.457581,63.234509 729.379211,63.455269 758.144775,64.212090 
	C792.265991,65.109818 826.018738,70.141106 860.444519,77.339409 
	C817.285583,101.162392 790.889709,137.863464 773.684448,182.865875 
	C756.345642,157.429947 739.412354,132.588898 722.006531,107.054634 
	C704.740417,132.384903 687.830200,157.193039 670.428650,182.721970 
	C669.453735,180.437073 668.684143,178.752121 668.007568,177.030640 
	C651.683533,135.491989 626.290771,101.482285 586.802063,79.166100 
	C586.224304,78.839607 585.664856,78.480804 585.096802,78.137100 
	C585.415100,77.725151 585.733398,77.313187 586.418823,76.839546 
z"/>
<path fill="#CF0B2D" opacity="1.000000" stroke="none" 
	d="
M103.719360,500.716064 
	C103.451752,500.711090 103.388817,500.496613 103.325867,500.282135 
	C103.525253,500.356964 103.724640,500.431763 103.719360,500.716064 
z"/>
</svg>