<svg version="1.1" id="Layer_1" xmlns="http://www.w3.org/2000/svg" xmlns:xlink="http://www.w3.org/1999/xlink" x="0px" y="0px"
	 width="100%" viewBox="0 0 1821 1800" enable-background="new 0 0 1821 1800" xml:space="preserve">
<path fill="#016BB6" opacity="1.000000" stroke="none"
	d="
M973.000000,1801.000000 
	C932.312439,1801.000000 891.624878,1801.000000 850.602539,1800.577881 
	C849.087952,1799.771484 847.928528,1799.140381 846.725220,1799.041016 
	C833.745056,1797.971069 820.709534,1797.395752 807.785156,1795.870972 
	C791.846008,1793.990479 775.940796,1791.669067 760.124756,1788.937134 
	C740.457458,1785.540161 720.724854,1782.248047 701.327026,1777.624268 
	C666.989441,1769.439575 632.887024,1760.161743 599.948608,1747.330566 
	C572.960999,1736.817505 546.055054,1725.985840 519.671448,1714.059692 
	C487.653992,1699.586914 456.799713,1682.727905 427.075470,1663.942505 
	C410.476959,1653.452393 393.812012,1642.964478 378.011322,1631.341431 
	C358.568085,1617.038696 339.769440,1601.827393 321.118408,1586.490601 
	C307.134888,1574.991699 293.296967,1563.215088 280.346405,1550.585815 
	C263.464630,1534.123169 247.168793,1517.018921 231.285843,1499.584839 
	C217.360306,1484.299316 204.034576,1468.434448 191.039886,1452.344116 
	C180.549408,1439.354614 170.175613,1426.146851 161.117737,1412.150757 
	C144.152069,1385.935425 127.101990,1359.669312 112.086983,1332.326050 
	C96.526817,1303.989868 82.032875,1274.901489 69.485863,1245.125122 
	C57.330254,1216.277588 47.710033,1186.310669 37.999023,1156.502197 
	C31.730221,1137.259766 26.331934,1117.615479 22.286098,1097.795532 
	C16.653791,1070.203857 12.255364,1042.338379 8.102219,1014.474915 
	C5.633402,997.911499 4.682986,981.123352 2.926826,964.449158 
	C2.800019,963.245178 1.665813,962.147217 0.999997,961.000000 
	C1.000000,921.312439 1.000000,881.624878 1.425793,841.577759 
	C2.229748,840.372131 2.867397,839.549805 2.946851,838.676636 
	C4.005167,827.044739 4.812901,815.387695 6.028963,803.773193 
	C7.516864,789.562195 8.803364,775.298218 11.132007,761.215027 
	C14.306911,742.013855 17.801674,722.826660 22.205053,703.876404 
	C29.518005,672.404663 37.594925,641.084229 49.037670,610.807495 
	C58.524197,585.706787 67.736092,560.429626 78.813896,536.022278 
	C91.221039,508.686066 104.566040,481.657501 119.405525,455.577667 
	C133.298340,431.161530 149.228455,407.852448 165.116577,384.641144 
	C176.645615,367.798126 189.045059,351.478729 202.010803,335.710632 
	C216.360519,318.259430 231.416183,301.344360 246.880371,284.867798 
	C259.368713,271.561890 272.574799,258.873627 286.087219,246.599121 
	C303.270752,230.989853 320.710388,215.612869 338.737305,200.996246 
	C355.156677,187.683044 372.256165,175.164032 389.507324,162.931625 
	C416.504700,143.788345 444.480316,126.089195 474.012817,111.116104 
	C501.980011,96.936630 529.852051,82.311943 558.800110,70.395256 
	C589.313110,57.834358 620.867493,47.678410 652.320190,37.570953 
	C671.749451,31.327251 691.659180,26.239592 711.674316,22.239809 
	C739.461426,16.686863 767.489319,12.230397 795.531982,8.104993 
	C812.439880,5.617634 829.574707,4.681714 846.594910,2.926453 
	C847.783508,2.803879 848.867432,1.665829 850.000000,0.999998 
	C890.687561,1.000000 931.375122,1.000000 972.403076,1.422961 
	C973.257080,2.205794 973.747925,2.840039 974.287537,2.884676 
	C983.330322,3.632604 992.385254,4.235661 1001.424988,5.016230 
	C1011.921875,5.922620 1022.473206,6.518838 1032.881714,8.057042 
	C1050.845703,10.711840 1068.807495,13.542368 1086.604614,17.122814 
	C1107.761475,21.379181 1129.016479,25.551620 1149.734009,31.487879 
	C1177.532593,39.453060 1205.126221,48.331829 1232.302856,58.208031 
	C1255.689819,66.707016 1278.662476,76.516678 1301.273682,86.929382 
	C1321.536987,96.260925 1341.222900,106.899933 1360.852539,117.536087 
	C1375.792114,125.630928 1390.730225,133.904114 1404.802246,143.384323 
	C1427.217529,158.485229 1448.993164,174.543884 1470.888916,190.405167 
	C1495.724731,208.396301 1518.507935,228.886032 1540.953979,249.683228 
	C1554.358643,262.103149 1566.978882,275.432373 1579.285034,288.959290 
	C1595.679688,306.979950 1611.854248,325.238373 1627.314331,344.059326 
	C1639.551270,358.956390 1650.991211,374.559937 1662.037109,390.372223 
	C1682.591553,419.795898 1701.952637,450.018616 1717.978027,482.196625 
	C1730.280029,506.898804 1742.806030,531.548096 1753.681885,556.886475 
	C1766.045288,585.690857 1776.921265,615.155457 1785.193848,645.473206 
	C1790.528809,665.024841 1796.672607,684.422363 1800.717651,704.243286 
	C1806.345947,731.822449 1810.745850,759.674011 1814.897705,787.524414 
	C1817.366943,804.087952 1818.317017,820.876465 1820.073120,837.550903 
	C1820.199951,838.754883 1821.334106,839.852783 1822.000000,841.000000 
	C1822.000000,880.687561 1822.000000,920.375122 1821.574219,960.422302 
	C1820.770264,961.629089 1820.131348,962.453247 1820.054565,963.326904 
	C1819.319458,971.686890 1818.875244,980.076477 1817.967651,988.416321 
	C1816.475220,1002.130310 1815.133911,1015.883179 1812.947144,1029.494019 
	C1809.258179,1052.454956 1806.152832,1075.610718 1800.621704,1098.149536 
	C1793.159668,1128.557007 1784.407959,1158.707153 1774.813232,1188.518311 
	C1760.005005,1234.528687 1740.681030,1278.726318 1717.357300,1321.091675 
	C1706.462891,1340.880371 1695.739868,1360.840820 1683.499756,1379.793823 
	C1663.348389,1410.996338 1642.167236,1441.551514 1617.787842,1469.704102 
	C1603.856689,1485.791626 1590.164551,1502.114746 1575.618286,1517.632080 
	C1563.249878,1530.825928 1550.110474,1543.342773 1536.770020,1555.567383 
	C1521.221558,1569.815430 1505.359497,1583.753540 1489.119629,1597.205566 
	C1474.579102,1609.250122 1459.640381,1620.868408 1444.322632,1631.904907 
	C1429.862793,1642.323120 1414.960938,1652.198608 1399.744629,1661.478516 
	C1380.601074,1673.153564 1361.280029,1684.631470 1341.411377,1694.998535 
	C1319.573242,1706.393555 1297.264282,1716.971924 1274.714111,1726.891357 
	C1255.433350,1735.372925 1235.689209,1742.891235 1215.838745,1749.961304 
	C1197.832764,1756.374512 1179.534180,1762.061646 1161.130615,1767.236938 
	C1141.798706,1772.673096 1122.349365,1777.941772 1102.659790,1781.793457 
	C1077.755005,1786.665283 1052.609375,1790.416260 1027.465088,1793.914185 
	C1010.530273,1796.269897 993.414856,1797.318237 976.392822,1799.073730 
	C975.208252,1799.195923 974.128540,1800.334229 973.000000,1801.000000 
M1542.988892,1464.491821 
	C1571.068481,1433.388428 1596.742798,1400.396729 1619.768677,1365.402100 
	C1709.259277,1229.394653 1756.232178,1079.907349 1760.763428,917.212646 
	C1763.017700,836.279175 1753.758789,756.540161 1732.904297,678.273926 
	C1697.068604,543.783813 1632.144043,425.060272 1538.368652,322.250183 
	C1465.337524,242.182907 1379.953125,178.436478 1282.553223,130.891632 
	C1199.237793,90.221939 1111.517090,64.051048 1019.584290,52.251579 
	C961.734619,44.826641 903.694336,43.310482 845.482239,47.754917 
	C792.172913,51.825024 739.674622,60.549255 688.116760,74.570198 
	C567.033569,107.498299 458.256104,164.187744 362.325592,245.114609 
	C252.569794,337.704437 170.879944,450.767700 118.217468,584.361938 
	C67.629845,712.692566 49.943993,845.750244 63.718929,983.006836 
	C71.788216,1063.411011 90.945526,1141.071777 121.539665,1215.847778 
	C181.385147,1362.117676 274.521515,1482.990234 401.033112,1577.506470 
	C539.505737,1680.958618 695.674988,1736.704956 868.295410,1745.696167 
	C958.328979,1750.385864 1047.024902,1740.892456 1133.967041,1716.895264 
	C1294.526489,1672.578369 1430.446045,1588.088623 1542.988892,1464.491821 
z"/>
<path fill="none" opacity="1.000000" stroke="none"
	d="
M973.468628,1801.000000 
	C974.128540,1800.334229 975.208252,1799.195923 976.392822,1799.073730 
	C993.414856,1797.318237 1010.530273,1796.269897 1027.465088,1793.914185 
	C1052.609375,1790.416260 1077.755005,1786.665283 1102.659790,1781.793457 
	C1122.349365,1777.941772 1141.798706,1772.673096 1161.130615,1767.236938 
	C1179.534180,1762.061646 1197.832764,1756.374512 1215.838745,1749.961304 
	C1235.689209,1742.891235 1255.433350,1735.372925 1274.714111,1726.891357 
	C1297.264282,1716.971924 1319.573242,1706.393555 1341.411377,1694.998535 
	C1361.280029,1684.631470 1380.601074,1673.153564 1399.744629,1661.478516 
	C1414.960938,1652.198608 1429.862793,1642.323120 1444.322632,1631.904907 
	C1459.640381,1620.868408 1474.579102,1609.250122 1489.119629,1597.205566 
	C1505.359497,1583.753540 1521.221558,1569.815430 1536.770020,1555.567383 
	C1550.110474,1543.342773 1563.249878,1530.825928 1575.618286,1517.632080 
	C1590.164551,1502.114746 1603.856689,1485.791626 1617.787842,1469.704102 
	C1642.167236,1441.551514 1663.348389,1410.996338 1683.499756,1379.793823 
	C1695.739868,1360.840820 1706.462891,1340.880371 1717.357300,1321.091675 
	C1740.681030,1278.726318 1760.005005,1234.528687 1774.813232,1188.518311 
	C1784.407959,1158.707153 1793.159668,1128.557007 1800.621704,1098.149536 
	C1806.152832,1075.610718 1809.258179,1052.454956 1812.947144,1029.494019 
	C1815.133911,1015.883179 1816.475220,1002.130310 1817.967651,988.416321 
	C1818.875244,980.076477 1819.319458,971.686890 1820.054565,963.326904 
	C1820.131348,962.453247 1820.770264,961.629089 1821.574219,960.890991 
	C1822.000000,1240.927490 1822.000000,1520.854980 1822.000000,1801.000000 
	C1539.312500,1801.000000 1256.624878,1801.000000 973.468628,1801.000000 
z"/>
<path fill="none" opacity="1.000000" stroke="none"
	d="
M0.999997,961.468628 
	C1.665813,962.147217 2.800019,963.245178 2.926826,964.449158 
	C4.682986,981.123352 5.633402,997.911499 8.102219,1014.474915 
	C12.255364,1042.338379 16.653791,1070.203857 22.286098,1097.795532 
	C26.331934,1117.615479 31.730221,1137.259766 37.999023,1156.502197 
	C47.710033,1186.310669 57.330254,1216.277588 69.485863,1245.125122 
	C82.032875,1274.901489 96.526817,1303.989868 112.086983,1332.326050 
	C127.101990,1359.669312 144.152069,1385.935425 161.117737,1412.150757 
	C170.175613,1426.146851 180.549408,1439.354614 191.039886,1452.344116 
	C204.034576,1468.434448 217.360306,1484.299316 231.285843,1499.584839 
	C247.168793,1517.018921 263.464630,1534.123169 280.346405,1550.585815 
	C293.296967,1563.215088 307.134888,1574.991699 321.118408,1586.490601 
	C339.769440,1601.827393 358.568085,1617.038696 378.011322,1631.341431 
	C393.812012,1642.964478 410.476959,1653.452393 427.075470,1663.942505 
	C456.799713,1682.727905 487.653992,1699.586914 519.671448,1714.059692 
	C546.055054,1725.985840 572.960999,1736.817505 599.948608,1747.330566 
	C632.887024,1760.161743 666.989441,1769.439575 701.327026,1777.624268 
	C720.724854,1782.248047 740.457458,1785.540161 760.124756,1788.937134 
	C775.940796,1791.669067 791.846008,1793.990479 807.785156,1795.870972 
	C820.709534,1797.395752 833.745056,1797.971069 846.725220,1799.041016 
	C847.928528,1799.140381 849.087952,1799.771484 850.133911,1800.577881 
	C567.073303,1801.000000 284.146576,1801.000000 1.000000,1801.000000 
	C1.000000,1521.312500 1.000000,1241.624878 0.999997,961.468628 
z"/>
<path fill="none" opacity="1.000000" stroke="none"
	d="
M849.531372,0.999998 
	C848.867432,1.665829 847.783508,2.803879 846.594910,2.926453 
	C829.574707,4.681714 812.439880,5.617634 795.531982,8.104993 
	C767.489319,12.230397 739.461426,16.686863 711.674316,22.239809 
	C691.659180,26.239592 671.749451,31.327251 652.320190,37.570953 
	C620.867493,47.678410 589.313110,57.834358 558.800110,70.395256 
	C529.852051,82.311943 501.980011,96.936630 474.012817,111.116104 
	C444.480316,126.089195 416.504700,143.788345 389.507324,162.931625 
	C372.256165,175.164032 355.156677,187.683044 338.737305,200.996246 
	C320.710388,215.612869 303.270752,230.989853 286.087219,246.599121 
	C272.574799,258.873627 259.368713,271.561890 246.880371,284.867798 
	C231.416183,301.344360 216.360519,318.259430 202.010803,335.710632 
	C189.045059,351.478729 176.645615,367.798126 165.116577,384.641144 
	C149.228455,407.852448 133.298340,431.161530 119.405525,455.577667 
	C104.566040,481.657501 91.221039,508.686066 78.813896,536.022278 
	C67.736092,560.429626 58.524197,585.706787 49.037670,610.807495 
	C37.594925,641.084229 29.518005,672.404663 22.205053,703.876404 
	C17.801674,722.826660 14.306911,742.013855 11.132007,761.215027 
	C8.803364,775.298218 7.516864,789.562195 6.028963,803.773193 
	C4.812901,815.387695 4.005167,827.044739 2.946851,838.676636 
	C2.867397,839.549805 2.229748,840.372131 1.425793,841.109070 
	C1.000000,561.072510 1.000000,281.145020 1.000000,1.000000 
	C283.687531,1.000000 566.375122,1.000000 849.531372,0.999998 
z"/>
<path fill="none" opacity="1.000000" stroke="none"
	d="
M1822.000000,840.531372 
	C1821.334106,839.852783 1820.199951,838.754883 1820.073120,837.550903 
	C1818.317017,820.876465 1817.366943,804.087952 1814.897705,787.524414 
	C1810.745850,759.674011 1806.345947,731.822449 1800.717651,704.243286 
	C1796.672607,684.422363 1790.528809,665.024841 1785.193848,645.473206 
	C1776.921265,615.155457 1766.045288,585.690857 1753.681885,556.886475 
	C1742.806030,531.548096 1730.280029,506.898804 1717.978027,482.196625 
	C1701.952637,450.018616 1682.591553,419.795898 1662.037109,390.372223 
	C1650.991211,374.559937 1639.551270,358.956390 1627.314331,344.059326 
	C1611.854248,325.238373 1595.679688,306.979950 1579.285034,288.959290 
	C1566.978882,275.432373 1554.358643,262.103149 1540.953979,249.683228 
	C1518.507935,228.886032 1495.724731,208.396301 1470.888916,190.405167 
	C1448.993164,174.543884 1427.217529,158.485229 1404.802246,143.384323 
	C1390.730225,133.904114 1375.792114,125.630928 1360.852539,117.536087 
	C1341.222900,106.899933 1321.536987,96.260925 1301.273682,86.929382 
	C1278.662476,76.516678 1255.689819,66.707016 1232.302856,58.208031 
	C1205.126221,48.331829 1177.532593,39.453060 1149.734009,31.487879 
	C1129.016479,25.551620 1107.761475,21.379181 1086.604614,17.122814 
	C1068.807495,13.542368 1050.845703,10.711840 1032.881714,8.057042 
	C1022.473206,6.518838 1011.921875,5.922620 1001.424988,5.016230 
	C992.385254,4.235661 983.330322,3.632604 974.287537,2.884676 
	C973.747925,2.840039 973.257080,2.205794 972.871704,1.422961 
	C1255.926758,1.000000 1538.853394,1.000000 1822.000000,1.000000 
	C1822.000000,280.687531 1822.000000,560.375122 1822.000000,840.531372 
z"/>
<path fill="#FBB928" opacity="1.000000" stroke="none" 
	d="
M1542.755371,1464.758057 
	C1430.446045,1588.088623 1294.526489,1672.578369 1133.967041,1716.895264 
	C1047.024902,1740.892456 958.328979,1750.385864 868.295410,1745.696167 
	C695.674988,1736.704956 539.505737,1680.958618 401.033112,1577.506470 
	C274.521515,1482.990234 181.385147,1362.117676 121.539665,1215.847778 
	C90.945526,1141.071777 71.788216,1063.411011 63.718929,983.006836 
	C49.943993,845.750244 67.629845,712.692566 118.217468,584.361938 
	C170.879944,450.767700 252.569794,337.704437 362.325592,245.114609 
	C458.256104,164.187744 567.033569,107.498299 688.116760,74.570198 
	C739.674622,60.549255 792.172913,51.825024 845.482239,47.754917 
	C903.694336,43.310482 961.734619,44.826641 1019.584290,52.251579 
	C1111.517090,64.051048 1199.237793,90.221939 1282.553223,130.891632 
	C1379.953125,178.436478 1465.337524,242.182907 1538.368652,322.250183 
	C1632.144043,425.060272 1697.068604,543.783813 1732.904297,678.273926 
	C1753.758789,756.540161 1763.017700,836.279175 1760.763428,917.212646 
	C1756.232178,1079.907349 1709.259277,1229.394653 1619.768677,1365.402100 
	C1596.742798,1400.396729 1571.068481,1433.388428 1542.755371,1464.758057 
M750.130127,1432.889771 
	C731.820984,1433.681152 713.511780,1434.472534 695.202637,1435.263916 
	C695.203491,1435.119263 695.204346,1434.974487 695.205139,1434.829834 
	C713.772766,1434.829834 732.340393,1434.829834 751.856384,1434.846924 
	C862.497253,1434.460083 973.146790,1433.055542 1083.776245,1434.002197 
	C1175.399170,1434.786133 1267.010986,1437.944946 1358.602173,1440.855469 
	C1398.883423,1442.135498 1439.100464,1445.425659 1479.350220,1447.739380 
	C1481.417236,1447.858154 1484.282715,1448.176147 1485.474609,1447.037964 
	C1491.287720,1441.486816 1496.658203,1435.472290 1502.845947,1428.922241 
	C1499.875366,1428.759033 1498.078125,1428.606934 1496.278442,1428.569092 
	C1361.160645,1425.725952 1226.024292,1423.912842 1090.887695,1425.897095 
	C977.599426,1427.560425 864.331970,1430.641724 750.130127,1432.889771 
M1111.213623,1100.400024 
	C1110.965576,1100.435791 1110.717407,1100.471558 1110.469360,1100.507324 
	C1110.644287,1100.673218 1110.819092,1100.839111 1110.843872,1101.786865 
	C1131.476440,1166.977905 1152.128174,1232.162842 1172.675049,1297.380981 
	C1173.544922,1300.141724 1174.769409,1300.949341 1177.583130,1300.858398 
	C1192.898804,1300.363403 1208.221191,1300.078979 1223.540283,1299.682373 
	C1224.771362,1299.650635 1225.994995,1299.320557 1227.466187,1299.091187 
	C1226.842041,1296.876099 1226.389893,1295.120972 1225.853882,1293.391846 
	C1211.072998,1245.717651 1196.215698,1198.066772 1181.597778,1150.342651 
	C1180.076660,1145.376709 1177.710083,1141.964966 1173.093628,1139.527466 
	C1167.512939,1136.580688 1162.277222,1132.973511 1156.930786,1129.591309 
	C1141.749878,1119.988037 1126.588623,1110.353760 1111.213623,1100.400024 
M743.757141,812.516113 
	C743.714966,812.708740 743.672791,812.901367 743.630615,813.093994 
	C743.834229,812.838440 744.037842,812.582886 743.677551,813.058167 
	C744.035217,814.504944 744.313843,815.976624 744.761841,817.394897 
	C782.759338,937.682678 820.773865,1057.965088 858.777771,1178.250854 
	C872.515747,1221.732666 886.268860,1265.209717 899.879761,1308.731201 
	C900.910034,1312.025391 902.212097,1313.190308 905.760437,1312.825806 
	C912.547729,1312.128540 919.395630,1312.037598 926.213440,1311.615967 
	C933.754333,1311.149658 941.289795,1310.594727 949.175903,1310.054443 
	C948.468201,1307.725098 948.004761,1306.136963 947.504028,1304.560547 
	C901.955994,1161.176758 856.418213,1017.789429 810.753418,874.442688 
	C809.908752,871.791077 807.944214,869.184326 805.839661,867.294434 
	C785.388184,848.928711 764.795044,830.720642 743.757141,812.516113 
M547.778259,621.539856 
	C547.741882,621.723206 547.705505,621.906616 547.669067,622.089966 
	C547.861694,621.829773 548.054260,621.569519 547.706726,622.056580 
	C552.375122,637.327271 556.955017,652.625610 561.725342,667.864319 
	C618.261719,848.467529 674.828003,1029.061279 731.382568,1209.658691 
	C742.624084,1245.556641 753.917114,1281.438843 764.986694,1317.389771 
	C766.200439,1321.331787 767.835388,1322.618896 771.938049,1322.132568 
	C779.706848,1321.211792 787.540405,1320.834839 795.348145,1320.245239 
	C801.921570,1319.748779 808.496460,1319.271729 815.540588,1318.751343 
	C814.813416,1316.204224 814.325867,1314.305420 813.731445,1312.440674 
	C748.060059,1106.444336 682.388428,900.447937 616.617432,694.483276 
	C615.752258,691.773926 614.007202,689.094666 612.017700,687.033875 
	C590.838318,665.096741 569.526245,643.287659 547.778259,621.539856 
M114.615425,846.179443 
	C111.025108,900.925537 113.416527,955.400879 121.459763,1011.196655 
	C123.509575,1008.755920 124.507957,1007.419861 125.653137,1006.224426 
	C175.861374,953.813538 219.374207,896.167236 258.973236,835.481995 
	C310.612122,756.345703 354.377136,672.975891 392.334229,586.507568 
	C393.298096,584.311829 393.729584,581.725952 393.779602,579.309021 
	C394.493744,544.818665 395.136383,510.326569 395.668518,475.832947 
	C395.717316,472.669312 396.423279,471.036163 399.862091,470.514648 
	C404.119202,469.869080 408.232117,468.309540 412.480103,467.554230 
	C415.549957,467.008392 416.654144,465.631104 416.546234,462.554413 
	C416.356659,457.149536 416.493225,451.733246 416.493225,446.360962 
	C428.762299,446.360962 439.700348,446.360962 450.922516,446.360962 
	C451.037170,448.056824 451.203613,449.508942 451.223145,450.963013 
	C451.433289,466.627350 452.148926,482.309631 451.628357,497.950470 
	C451.279907,508.419128 459.594879,512.546753 463.958221,520.334534 
	C463.958221,508.678436 463.851318,498.185028 464.056274,487.697723 
	C464.093384,485.800507 464.896210,483.376373 466.224487,482.139435 
	C472.196014,476.578400 478.394165,471.246094 484.739624,466.114502 
	C485.920135,465.159851 488.422638,464.814697 489.852081,465.373169 
	C495.582550,467.612000 501.035706,470.566132 506.780182,472.761749 
	C510.581482,474.214691 511.947449,476.260223 512.032776,480.428650 
	C512.571655,506.752502 514.032532,533.071655 513.947388,559.388306 
	C513.902893,573.146606 516.509766,584.816650 527.796997,593.517273 
	C528.835510,594.317810 529.590027,595.483154 530.492615,596.464050 
	C649.295044,725.569275 780.139343,840.990723 923.564209,942.081360 
	C1055.572021,1035.125000 1195.644287,1113.533936 1345.576660,1173.966064 
	C1433.282104,1209.316895 1523.189941,1237.675415 1615.386963,1258.756836 
	C1618.628296,1259.498047 1620.004761,1258.619751 1621.464722,1255.730469 
	C1670.407715,1158.872559 1698.539062,1056.285156 1705.699341,948.046326 
	C1710.812500,870.751770 1704.849976,794.223633 1687.609985,718.658386 
	C1661.615967,604.723938 1612.901611,501.435974 1541.515015,408.938812 
	C1475.403198,323.276398 1395.163208,253.795975 1300.867065,200.676208 
	C1205.269043,146.822906 1102.841553,114.220123 993.706848,102.871498 
	C930.123352,96.259628 866.641968,97.204269 803.238281,105.685074 
	C734.346252,114.899986 667.829651,132.796112 603.724121,159.553665 
	C508.028870,199.496735 423.280029,255.998672 349.593567,328.944580 
	C268.767578,408.958252 207.625092,501.997986 166.492065,608.050232 
	C136.884842,684.385803 119.557327,763.469238 114.615425,846.179443 
M773.344177,1681.167358 
	C774.484863,1681.406738 775.618469,1681.688721 776.767334,1681.879517 
	C843.326416,1692.938477 910.208801,1695.787964 977.470459,1690.131592 
	C1037.286621,1685.101440 1095.801025,1673.604248 1152.947754,1655.278198 
	C1257.933228,1621.611084 1351.795288,1568.220337 1434.880981,1495.811157 
	C1439.338135,1491.926636 1443.680420,1487.910278 1448.791748,1483.311646 
	C1447.146606,1483.061768 1446.565063,1482.935547 1445.977295,1482.889648 
	C1396.327271,1479.006592 1346.728882,1474.158447 1297.013550,1471.490479 
	C1229.974976,1467.892700 1162.866089,1465.184570 1095.752197,1463.487305 
	C918.321045,1458.999756 740.876282,1460.152588 563.442505,1463.936279 
	C561.992310,1463.967163 560.545166,1464.144165 559.008118,1464.259521 
	C559.008118,1466.096191 558.878784,1467.588623 559.026978,1469.052979 
	C563.889526,1517.106079 568.836792,1565.150757 573.562927,1613.217163 
	C573.977234,1617.431152 575.559448,1619.476807 579.381348,1621.214722 
	C641.226807,1649.339233 705.560059,1669.369507 773.344177,1681.167358 
M521.880859,599.692749 
	C520.124878,595.622925 520.272888,590.502014 515.173889,587.545105 
	C515.173889,589.209412 515.140503,590.316956 515.178650,591.421997 
	C517.173218,649.206055 519.159302,706.990356 521.223572,764.771973 
	C521.311035,767.220337 521.908020,769.711548 522.639587,772.067261 
	C574.418945,938.800964 626.234497,1105.523438 678.052673,1272.245117 
	C683.820374,1290.802368 689.621338,1309.349243 695.535706,1328.314087 
	C713.512390,1326.828125 731.219971,1325.364380 749.428284,1323.859253 
	C748.753296,1321.536011 748.241211,1319.638672 747.652222,1317.765381 
	C698.082092,1160.109253 648.510254,1002.453735 598.928772,844.801208 
	C573.313538,763.353271 547.680603,681.910950 521.880859,599.692749 
M767.978210,948.544067 
	C751.324768,896.032532 734.691162,843.514648 717.945190,791.032654 
	C717.277710,788.940674 715.857971,786.860962 714.258972,785.328247 
	C692.846619,764.805115 671.339966,744.380310 649.856018,723.931763 
	C648.735657,722.865295 647.608765,721.805725 646.484863,720.742920 
	C646.221008,723.192810 646.682312,725.096313 647.268982,726.960327 
	C693.789734,874.764160 740.321228,1022.564575 786.849365,1170.366089 
	C801.792542,1217.834595 816.787415,1265.286865 831.557556,1312.809082 
	C832.764038,1316.690796 834.384705,1317.618164 838.190308,1317.217041 
	C845.307434,1316.466675 852.485107,1316.306641 859.631592,1315.814331 
	C867.537170,1315.269775 875.436035,1314.628052 883.883972,1313.987305 
	C845.189392,1192.002319 806.697449,1070.656128 767.978210,948.544067 
M380.717010,684.243958 
	C384.460205,662.967712 388.203430,641.691467 391.946625,620.415222 
	C390.855774,620.964661 390.446747,621.670227 390.088531,622.400635 
	C369.861176,663.643311 349.625183,704.881836 329.452942,746.151489 
	C328.448364,748.206787 327.737885,750.487305 327.334106,752.742432 
	C321.847168,783.386230 316.444946,814.045166 311.009735,844.698242 
	C297.871521,918.794250 284.747101,992.892700 271.579681,1066.983521 
	C257.451324,1146.481567 243.256531,1225.967896 229.244644,1305.486450 
	C228.834396,1307.814453 229.492508,1310.875366 230.777603,1312.869751 
	C239.705795,1326.725708 248.925262,1340.394165 258.074646,1354.107300 
	C258.842896,1355.258667 259.781677,1356.296265 261.031555,1357.881958 
	C261.453156,1356.268433 261.764465,1355.344849 261.932526,1354.395752 
	C272.354706,1295.546631 282.754913,1236.693604 293.179108,1177.844727 
	C309.469299,1085.879883 325.768280,993.916748 342.076416,901.955139 
	C354.895874,829.666016 367.734772,757.380371 380.717010,684.243958 
M320.809937,1119.261108 
	C320.620697,1120.072510 320.392975,1120.877075 320.247681,1121.696289 
	C306.902344,1196.935913 293.561188,1272.176514 280.226532,1347.418091 
	C278.561981,1356.810425 276.934143,1366.209229 275.189636,1376.174316 
	C289.785187,1374.106934 303.589661,1372.026123 317.436493,1370.281982 
	C320.741058,1369.865845 321.734955,1368.541992 322.280334,1365.420532 
	C329.070984,1326.554077 336.034607,1287.717651 342.924927,1248.868530 
	C356.153503,1174.282715 369.330383,1099.687500 382.656830,1025.119263 
	C383.530823,1020.228638 386.684113,1015.552673 386.767792,1010.742004 
	C388.376068,918.283386 389.683990,825.819580 391.049316,733.356750 
	C391.078217,731.400574 391.052948,729.443542 391.052948,727.486938 
	C390.777985,727.498291 390.503021,727.509583 390.228027,727.520935 
	C367.126801,857.815735 344.025574,988.110474 320.809937,1119.261108 
M900.981262,1103.513306 
	C901.333923,1104.623169 901.685425,1105.733276 902.039307,1106.842773 
	C923.034912,1172.658325 944.059448,1238.464844 964.947937,1304.314453 
	C966.083313,1307.893677 967.545105,1309.304077 971.450867,1309.047119 
	C986.413513,1308.062378 1001.398682,1307.421631 1016.373474,1306.615234 
	C1017.623535,1306.547729 1018.858826,1306.203613 1020.199585,1305.970825 
	C1019.944641,1304.934448 1019.823425,1304.280029 1019.623291,1303.650879 
	C982.698975,1187.535522 945.781128,1071.418091 908.747559,955.337524 
	C908.050476,953.152527 906.308655,951.009521 904.502014,949.514099 
	C882.295776,931.131958 859.988220,912.872253 837.698059,894.591553 
	C836.632812,893.717834 835.486206,892.943359 833.219727,891.265747 
	C856.028442,962.666687 878.402527,1032.706909 900.981262,1103.513306 
M531.196655,1006.230225 
	C531.732910,1009.326782 531.923340,1012.531799 532.855957,1015.503967 
	C555.969666,1089.165039 579.159668,1162.802124 602.341370,1236.441772 
	C612.133911,1267.549194 621.941895,1298.651489 631.728943,1329.760620 
	C632.420715,1331.959473 632.566772,1334.221680 636.076660,1333.855225 
	C649.971069,1332.404785 663.893250,1331.221313 678.339783,1329.889404 
	C627.214600,1167.016968 576.227173,1004.583618 525.239807,842.150269 
	C524.869873,842.221130 524.499939,842.292053 524.130005,842.362976 
	C526.471680,896.672058 528.813354,950.981140 531.196655,1006.230225 
M281.824036,914.294006 
	C288.582825,875.594666 295.341644,836.895386 302.100433,798.196045 
	C300.913605,798.213684 300.651825,798.627563 300.404510,799.049927 
	C283.578583,827.781128 266.736816,856.502991 249.972183,885.269897 
	C248.997070,886.943176 248.394028,888.935059 248.046249,890.856201 
	C244.844040,908.545532 241.737747,926.252319 238.600952,943.953491 
	C221.812332,1038.693115 205.003937,1133.429321 188.335098,1228.190063 
	C187.883041,1230.760010 188.259735,1233.923096 189.395096,1236.251221 
	C195.960571,1249.713745 202.841965,1263.022827 209.682556,1276.349976 
	C211.536942,1279.962891 213.620209,1283.458252 215.598450,1287.007568 
	C215.947617,1286.927246 216.296768,1286.847046 216.645935,1286.766724 
	C238.314545,1162.892334 259.983154,1039.017822 281.824036,914.294006 
M1004.092773,1042.384888 
	C1002.269714,1036.682251 1000.745300,1030.858398 998.501099,1025.326538 
	C997.331665,1022.443970 995.377075,1019.450928 992.951660,1017.575012 
	C974.379028,1003.210144 955.605225,989.105408 936.885986,974.930420 
	C935.809143,974.114990 934.662354,973.391968 932.777649,972.096130 
	C933.600159,974.819885 934.102539,976.552429 934.645569,978.272095 
	C967.959290,1083.771240 1001.278076,1189.268799 1034.590576,1294.768311 
	C1038.005493,1305.583496 1037.989380,1305.594116 1049.552368,1305.182739 
	C1055.211792,1304.981445 1060.871216,1304.776123 1066.529053,1304.535400 
	C1073.298340,1304.247437 1080.065796,1303.919678 1087.600952,1303.574097 
	C1059.727783,1216.392944 1032.033203,1129.770386 1004.092773,1042.384888 
M488.833008,1333.528687 
	C487.586243,1300.897827 486.212524,1268.271240 485.119415,1235.635254 
	C482.899658,1169.362671 480.734039,1103.088013 478.725220,1036.808838 
	C476.070312,949.212952 473.464478,861.615234 471.066528,774.012024 
	C468.891968,694.568359 467.028198,615.116211 464.990509,535.668762 
	C464.953644,534.231628 464.912628,532.424194 464.092377,531.441772 
	C460.529755,527.174622 456.677155,523.149536 451.878143,517.882080 
	C455.428040,796.590759 460.393066,1073.652954 471.231781,1350.993042 
	C477.510101,1350.243042 483.210297,1349.562256 488.872040,1348.885986 
	C488.872040,1343.787598 488.872040,1339.152710 488.833008,1333.528687 
M1128.058228,1211.439087 
	C1126.810425,1207.469360 1125.566406,1203.498291 1124.314209,1199.529907 
	C1112.798950,1163.037109 1101.313843,1126.534546 1089.696411,1090.074219 
	C1088.908203,1087.600830 1087.676636,1084.661255 1085.709717,1083.264771 
	C1066.159546,1069.383789 1046.413574,1055.778320 1026.710938,1042.112549 
	C1025.608765,1041.348145 1024.399536,1040.738281 1022.246155,1039.472046 
	C1050.086914,1128.055664 1077.551147,1215.441040 1105.071289,1303.004517 
	C1122.278198,1302.396973 1139.047607,1301.804810 1156.458862,1301.190063 
	C1146.928711,1271.129883 1137.589966,1241.672852 1128.058228,1211.439087 
M538.684387,1157.876465 
	C542.211243,1219.201172 545.738159,1280.525879 549.297424,1342.413696 
	C571.870056,1340.116089 593.594177,1337.904907 615.783569,1335.646240 
	C588.976318,1251.371826 562.412781,1167.863770 535.849304,1084.355713 
	C535.530396,1084.434814 535.211426,1084.513916 534.892517,1084.593140 
	C536.140259,1108.708496 537.388062,1132.823975 538.684387,1157.876465 
M176.716141,1204.549316 
	C188.020813,1140.269531 199.321533,1075.989014 210.631927,1011.710266 
	C215.676147,983.043274 220.739853,954.379639 225.953598,924.813477 
	C224.819885,926.082642 224.205872,926.614075 223.781021,927.268311 
	C211.988907,945.427002 200.184906,963.578186 188.489395,981.798950 
	C187.356384,983.564087 186.655334,985.714600 186.189743,987.784241 
	C174.973969,1037.639038 163.791183,1087.501343 152.730133,1137.390503 
	C152.186386,1139.843018 152.145630,1142.787109 152.977570,1145.104858 
	C159.835144,1164.209961 166.935181,1183.228516 174.043808,1202.242554 
	C174.463531,1203.365112 175.590836,1204.223267 176.716141,1204.549316 
M1241.984375,1288.537109 
	C1243.073242,1291.999146 1244.162109,1295.461060 1245.102661,1298.451416 
	C1262.049316,1298.451416 1278.549072,1298.451416 1295.285645,1298.451416 
	C1295.023438,1297.060669 1294.966675,1296.401123 1294.773193,1295.784424 
	C1284.223999,1262.144409 1273.704590,1228.494629 1262.997192,1194.904907 
	C1262.380005,1192.968872 1260.535767,1190.988892 1258.733276,1189.932739 
	C1241.220459,1179.671631 1223.597290,1169.598511 1205.994263,1159.491699 
	C1204.812134,1158.813110 1203.536499,1158.297119 1201.338745,1157.241699 
	C1215.024048,1201.435791 1228.390869,1244.600830 1241.984375,1288.537109 
M360.118958,1364.567871 
	C368.015289,1363.537842 375.911591,1362.507812 384.046661,1361.446655 
	C384.595673,1276.632324 385.142273,1192.190430 385.688873,1107.748657 
	C385.487366,1107.712036 385.285858,1107.675537 385.084381,1107.639038 
	C369.787415,1193.916992 354.490448,1280.194946 339.060211,1367.224854 
	C346.146942,1366.349487 352.695801,1365.540649 360.118958,1364.567871 
M1337.499756,1298.333130 
	C1346.614380,1298.333130 1355.729004,1298.333130 1364.860229,1298.333130 
	C1364.860229,1297.256348 1364.983154,1296.727539 1364.842529,1296.281982 
	C1358.685303,1276.772217 1352.569580,1257.248413 1346.216431,1237.802490 
	C1345.644287,1236.051147 1343.785034,1234.297363 1342.074585,1233.408691 
	C1329.971436,1227.121460 1317.733887,1221.092896 1305.574097,1214.913696 
	C1298.527222,1211.332764 1291.544678,1207.625244 1284.410278,1203.910767 
	C1284.271118,1204.656982 1284.088989,1205.006714 1284.172363,1205.273438 
	C1293.601318,1235.433105 1303.017334,1265.596924 1312.620850,1295.701050 
	C1312.994873,1296.873413 1315.150146,1298.161743 1316.521606,1298.215576 
	C1323.172241,1298.475952 1329.838867,1298.333130 1337.499756,1298.333130 
M1390.519409,1256.040039 
	C1382.805054,1252.550171 1375.090576,1249.060303 1366.274170,1245.071777 
	C1371.978271,1262.939331 1377.142822,1279.411255 1382.643555,1295.770142 
	C1383.068481,1297.033691 1385.843506,1298.205444 1387.548340,1298.237427 
	C1423.488037,1298.911499 1459.431030,1299.418335 1495.373413,1299.939941 
	C1496.667358,1299.958740 1497.963745,1299.792358 1499.259033,1299.712280 
	C1499.058960,1299.939331 1498.858887,1300.166504 1498.658813,1300.393555 
	C1462.848389,1285.695801 1427.038086,1270.997925 1390.519409,1256.040039 
M498.630035,1542.822510 
	C497.205719,1517.162720 495.781403,1491.502930 494.370850,1466.091309 
	C488.203400,1466.091309 482.617920,1466.091309 477.189423,1466.091309 
	C476.948700,1466.881348 476.758575,1467.192871 476.775970,1467.492432 
	C478.676117,1500.204468 480.579926,1532.916260 482.552734,1565.623901 
	C482.626282,1566.842651 483.019531,1568.552856 483.874176,1569.130615 
	C489.178497,1572.715576 494.657410,1576.041992 500.947235,1580.001099 
	C500.154205,1567.170044 499.430817,1555.465454 498.630035,1542.822510 
M144.919952,1081.542358 
	C149.496002,1063.532104 154.072052,1045.521851 158.648102,1027.511597 
	C149.259216,1039.440796 140.645432,1051.645020 132.097672,1063.895142 
	C131.585052,1064.629639 131.231766,1065.817505 131.424820,1066.650513 
	C133.975494,1077.656250 136.637543,1088.636108 139.271713,1099.622437 
	C139.605087,1099.616211 139.938461,1099.609985 140.271835,1099.603882 
	C141.753540,1093.850342 143.235260,1088.096924 144.919952,1081.542358 
M385.386627,1489.447266 
	C385.386627,1482.706909 385.386627,1475.966675 385.386627,1469.543457 
	C375.808594,1469.543457 367.126251,1469.543457 358.443939,1469.543457 
	C358.290588,1469.936035 358.137268,1470.328491 357.983948,1470.721069 
	C366.810913,1478.795410 375.637878,1486.869751 385.402435,1495.801636 
	C385.402435,1493.133545 385.402435,1491.704468 385.386627,1489.447266 
z"/>
<path fill="#006BB6" opacity="1.000000" stroke="none" 
	d="
M114.650024,845.709839 
	C119.557327,763.469238 136.884842,684.385803 166.492065,608.050232 
	C207.625092,501.997986 268.767578,408.958252 349.593567,328.944580 
	C423.280029,255.998672 508.028870,199.496735 603.724121,159.553665 
	C667.829651,132.796112 734.346252,114.899986 803.238281,105.685074 
	C866.641968,97.204269 930.123352,96.259628 993.706848,102.871498 
	C1102.841553,114.220123 1205.269043,146.822906 1300.867065,200.676208 
	C1395.163208,253.795975 1475.403198,323.276398 1541.515015,408.938812 
	C1612.901611,501.435974 1661.615967,604.723938 1687.609985,718.658386 
	C1704.849976,794.223633 1710.812500,870.751770 1705.699341,948.046326 
	C1698.539062,1056.285156 1670.407715,1158.872559 1621.464722,1255.730469 
	C1620.004761,1258.619751 1618.628296,1259.498047 1615.386963,1258.756836 
	C1523.189941,1237.675415 1433.282104,1209.316895 1345.576660,1173.966064 
	C1195.644287,1113.533936 1055.572021,1035.125000 923.564209,942.081360 
	C780.139343,840.990723 649.295044,725.569275 530.492615,596.464050 
	C529.590027,595.483154 528.835510,594.317810 527.796997,593.517273 
	C516.509766,584.816650 513.902893,573.146606 513.947388,559.388306 
	C514.032532,533.071655 512.571655,506.752502 512.032776,480.428650 
	C511.947449,476.260223 510.581482,474.214691 506.780182,472.761749 
	C501.035706,470.566132 495.582550,467.612000 489.852081,465.373169 
	C488.422638,464.814697 485.920135,465.159851 484.739624,466.114502 
	C478.394165,471.246094 472.196014,476.578400 466.224487,482.139435 
	C464.896210,483.376373 464.093384,485.800507 464.056274,487.697723 
	C463.851318,498.185028 463.958221,508.678436 463.958221,520.334534 
	C459.594879,512.546753 451.279907,508.419128 451.628357,497.950470 
	C452.148926,482.309631 451.433289,466.627350 451.223145,450.963013 
	C451.203613,449.508942 451.037170,448.056824 450.922516,446.360962 
	C439.700348,446.360962 428.762299,446.360962 416.493225,446.360962 
	C416.493225,451.733246 416.356659,457.149536 416.546234,462.554413 
	C416.654144,465.631104 415.549957,467.008392 412.480103,467.554230 
	C408.232117,468.309540 404.119202,469.869080 399.862091,470.514648 
	C396.423279,471.036163 395.717316,472.669312 395.668518,475.832947 
	C395.136383,510.326569 394.493744,544.818665 393.779602,579.309021 
	C393.729584,581.725952 393.298096,584.311829 392.334229,586.507568 
	C354.377136,672.975891 310.612122,756.345703 258.973236,835.481995 
	C219.374207,896.167236 175.861374,953.813538 125.653137,1006.224426 
	C124.507957,1007.419861 123.509575,1008.755920 121.459763,1011.196655 
	C113.416527,955.400879 111.025108,900.925537 114.650024,845.709839 
z"/>
<path fill="#006BB6" opacity="1.000000" stroke="none" 
	d="
M772.917236,1681.109741 
	C705.560059,1669.369507 641.226807,1649.339233 579.381348,1621.214722 
	C575.559448,1619.476807 573.977234,1617.431152 573.562927,1613.217163 
	C568.836792,1565.150757 563.889526,1517.106079 559.026978,1469.052979 
	C558.878784,1467.588623 559.008118,1466.096191 559.008118,1464.259521 
	C560.545166,1464.144165 561.992310,1463.967163 563.442505,1463.936279 
	C740.876282,1460.152588 918.321045,1458.999756 1095.752197,1463.487305 
	C1162.866089,1465.184570 1229.974976,1467.892700 1297.013550,1471.490479 
	C1346.728882,1474.158447 1396.327271,1479.006592 1445.977295,1482.889648 
	C1446.565063,1482.935547 1447.146606,1483.061768 1448.791748,1483.311646 
	C1443.680420,1487.910278 1439.338135,1491.926636 1434.880981,1495.811157 
	C1351.795288,1568.220337 1257.933228,1621.611084 1152.947754,1655.278198 
	C1095.801025,1673.604248 1037.286621,1685.101440 977.470459,1690.131592 
	C910.208801,1695.787964 843.326416,1692.938477 776.767334,1681.879517 
	C775.618469,1681.688721 774.484863,1681.406738 772.917236,1681.109741 
z"/>
<path fill="#026BB5" opacity="1.000000" stroke="none" 
	d="
M521.968262,600.079407 
	C547.680603,681.910950 573.313538,763.353271 598.928772,844.801208 
	C648.510254,1002.453735 698.082092,1160.109253 747.652222,1317.765381 
	C748.241211,1319.638672 748.753296,1321.536011 749.428284,1323.859253 
	C731.219971,1325.364380 713.512390,1326.828125 695.535706,1328.314087 
	C689.621338,1309.349243 683.820374,1290.802368 678.052673,1272.245117 
	C626.234497,1105.523438 574.418945,938.800964 522.639587,772.067261 
	C521.908020,769.711548 521.311035,767.220337 521.223572,764.771973 
	C519.159302,706.990356 517.173218,649.206055 515.178650,591.421997 
	C515.140503,590.316956 515.173889,589.209412 515.173889,587.545105 
	C520.272888,590.502014 520.124878,595.622925 521.968262,600.079407 
z"/>
<path fill="#026CB5" opacity="1.000000" stroke="none" 
	d="
M548.250671,621.443420 
	C569.526245,643.287659 590.838318,665.096741 612.017700,687.033875 
	C614.007202,689.094666 615.752258,691.773926 616.617432,694.483276 
	C682.388428,900.447937 748.060059,1106.444336 813.731445,1312.440674 
	C814.325867,1314.305420 814.813416,1316.204224 815.540588,1318.751343 
	C808.496460,1319.271729 801.921570,1319.748779 795.348145,1320.245239 
	C787.540405,1320.834839 779.706848,1321.211792 771.938049,1322.132568 
	C767.835388,1322.618896 766.200439,1321.331787 764.986694,1317.389771 
	C753.917114,1281.438843 742.624084,1245.556641 731.382568,1209.658691 
	C674.828003,1029.061279 618.261719,848.467529 561.725342,667.864319 
	C556.955017,652.625610 552.375122,637.327271 547.965210,621.716797 
	C548.223694,621.377075 548.250671,621.443420 548.250671,621.443420 
z"/>
<path fill="#026BB5" opacity="1.000000" stroke="none" 
	d="
M768.091797,948.927002 
	C806.697449,1070.656128 845.189392,1192.002319 883.883972,1313.987305 
	C875.436035,1314.628052 867.537170,1315.269775 859.631592,1315.814331 
	C852.485107,1316.306641 845.307434,1316.466675 838.190308,1317.217041 
	C834.384705,1317.618164 832.764038,1316.690796 831.557556,1312.809082 
	C816.787415,1265.286865 801.792542,1217.834595 786.849365,1170.366089 
	C740.321228,1022.564575 693.789734,874.764160 647.268982,726.960327 
	C646.682312,725.096313 646.221008,723.192810 646.484863,720.742920 
	C647.608765,721.805725 648.735657,722.865295 649.856018,723.931763 
	C671.339966,744.380310 692.846619,764.805115 714.258972,785.328247 
	C715.857971,786.860962 717.277710,788.940674 717.945190,791.032654 
	C734.691162,843.514648 751.324768,896.032532 768.091797,948.927002 
z"/>
<path fill="#026CB5" opacity="1.000000" stroke="none" 
	d="
M380.641022,684.668579 
	C367.734772,757.380371 354.895874,829.666016 342.076416,901.955139 
	C325.768280,993.916748 309.469299,1085.879883 293.179108,1177.844727 
	C282.754913,1236.693604 272.354706,1295.546631 261.932526,1354.395752 
	C261.764465,1355.344849 261.453156,1356.268433 261.031555,1357.881958 
	C259.781677,1356.296265 258.842896,1355.258667 258.074646,1354.107300 
	C248.925262,1340.394165 239.705795,1326.725708 230.777603,1312.869751 
	C229.492508,1310.875366 228.834396,1307.814453 229.244644,1305.486450 
	C243.256531,1225.967896 257.451324,1146.481567 271.579681,1066.983521 
	C284.747101,992.892700 297.871521,918.794250 311.009735,844.698242 
	C316.444946,814.045166 321.847168,783.386230 327.334106,752.742432 
	C327.737885,750.487305 328.448364,748.206787 329.452942,746.151489 
	C349.625183,704.881836 369.861176,663.643311 390.088531,622.400635 
	C390.446747,621.670227 390.855774,620.964661 391.946625,620.415222 
	C388.203430,641.691467 384.460205,662.967712 380.641022,684.668579 
z"/>
<path fill="#026CB5" opacity="1.000000" stroke="none" 
	d="
M320.867126,1118.833252 
	C344.025574,988.110474 367.126801,857.815735 390.228027,727.520935 
	C390.503021,727.509583 390.777985,727.498291 391.052948,727.486938 
	C391.052948,729.443542 391.078217,731.400574 391.049316,733.356750 
	C389.683990,825.819580 388.376068,918.283386 386.767792,1010.742004 
	C386.684113,1015.552673 383.530823,1020.228638 382.656830,1025.119263 
	C369.330383,1099.687500 356.153503,1174.282715 342.924927,1248.868530 
	C336.034607,1287.717651 329.070984,1326.554077 322.280334,1365.420532 
	C321.734955,1368.541992 320.741058,1369.865845 317.436493,1370.281982 
	C303.589661,1372.026123 289.785187,1374.106934 275.189636,1376.174316 
	C276.934143,1366.209229 278.561981,1356.810425 280.226532,1347.418091 
	C293.561188,1272.176514 306.902344,1196.935913 320.247681,1121.696289 
	C320.392975,1120.877075 320.620697,1120.072510 320.867126,1118.833252 
z"/>
<path fill="#026CB5" opacity="1.000000" stroke="none" 
	d="
M744.242310,812.467651 
	C764.795044,830.720642 785.388184,848.928711 805.839661,867.294434 
	C807.944214,869.184326 809.908752,871.791077 810.753418,874.442688 
	C856.418213,1017.789429 901.955994,1161.176758 947.504028,1304.560547 
	C948.004761,1306.136963 948.468201,1307.725098 949.175903,1310.054443 
	C941.289795,1310.594727 933.754333,1311.149658 926.213440,1311.615967 
	C919.395630,1312.037598 912.547729,1312.128540 905.760437,1312.825806 
	C902.212097,1313.190308 900.910034,1312.025391 899.879761,1308.731201 
	C886.268860,1265.209717 872.515747,1221.732666 858.777771,1178.250854 
	C820.773865,1057.965088 782.759338,937.682678 744.761841,817.394897 
	C744.313843,815.976624 744.035217,814.504944 743.948853,812.727905 
	C744.220154,812.397583 744.242310,812.467651 744.242310,812.467651 
z"/>
<path fill="#026BB5" opacity="1.000000" stroke="none" 
	d="
M900.878906,1103.130127 
	C878.402527,1032.706909 856.028442,962.666687 833.219727,891.265747 
	C835.486206,892.943359 836.632812,893.717834 837.698059,894.591553 
	C859.988220,912.872253 882.295776,931.131958 904.502014,949.514099 
	C906.308655,951.009521 908.050476,953.152527 908.747559,955.337524 
	C945.781128,1071.418091 982.698975,1187.535522 1019.623291,1303.650879 
	C1019.823425,1304.280029 1019.944641,1304.934448 1020.199585,1305.970825 
	C1018.858826,1306.203613 1017.623535,1306.547729 1016.373474,1306.615234 
	C1001.398682,1307.421631 986.413513,1308.062378 971.450867,1309.047119 
	C967.545105,1309.304077 966.083313,1307.893677 964.947937,1304.314453 
	C944.059448,1238.464844 923.034912,1172.658325 902.039307,1106.842773 
	C901.685425,1105.733276 901.333923,1104.623169 900.878906,1103.130127 
z"/>
<path fill="#026CB5" opacity="1.000000" stroke="none" 
	d="
M531.175781,1005.760254 
	C528.813354,950.981140 526.471680,896.672058 524.130005,842.362976 
	C524.499939,842.292053 524.869873,842.221130 525.239807,842.150269 
	C576.227173,1004.583618 627.214600,1167.016968 678.339783,1329.889404 
	C663.893250,1331.221313 649.971069,1332.404785 636.076660,1333.855225 
	C632.566772,1334.221680 632.420715,1331.959473 631.728943,1329.760620 
	C621.941895,1298.651489 612.133911,1267.549194 602.341370,1236.441772 
	C579.159668,1162.802124 555.969666,1089.165039 532.855957,1015.503967 
	C531.923340,1012.531799 531.732910,1009.326782 531.175781,1005.760254 
z"/>
<path fill="#036CB5" opacity="1.000000" stroke="none" 
	d="
M281.737885,914.718750 
	C259.983154,1039.017822 238.314545,1162.892334 216.645935,1286.766724 
	C216.296768,1286.847046 215.947617,1286.927246 215.598450,1287.007568 
	C213.620209,1283.458252 211.536942,1279.962891 209.682556,1276.349976 
	C202.841965,1263.022827 195.960571,1249.713745 189.395096,1236.251221 
	C188.259735,1233.923096 187.883041,1230.760010 188.335098,1228.190063 
	C205.003937,1133.429321 221.812332,1038.693115 238.600952,943.953491 
	C241.737747,926.252319 244.844040,908.545532 248.046249,890.856201 
	C248.394028,888.935059 248.997070,886.943176 249.972183,885.269897 
	C266.736816,856.502991 283.578583,827.781128 300.404510,799.049927 
	C300.651825,798.627563 300.913605,798.213684 302.100433,798.196045 
	C295.341644,836.895386 288.582825,875.594666 281.737885,914.718750 
z"/>
<path fill="#026CB5" opacity="1.000000" stroke="none" 
	d="
M1004.215698,1042.766357 
	C1032.033203,1129.770386 1059.727783,1216.392944 1087.600952,1303.574097 
	C1080.065796,1303.919678 1073.298340,1304.247437 1066.529053,1304.535400 
	C1060.871216,1304.776123 1055.211792,1304.981445 1049.552368,1305.182739 
	C1037.989380,1305.594116 1038.005493,1305.583496 1034.590576,1294.768311 
	C1001.278076,1189.268799 967.959290,1083.771240 934.645569,978.272095 
	C934.102539,976.552429 933.600159,974.819885 932.777649,972.096130 
	C934.662354,973.391968 935.809143,974.114990 936.885986,974.930420 
	C955.605225,989.105408 974.379028,1003.210144 992.951660,1017.575012 
	C995.377075,1019.450928 997.331665,1022.443970 998.501099,1025.326538 
	C1000.745300,1030.858398 1002.269714,1036.682251 1004.215698,1042.766357 
z"/>
<path fill="#056CB4" opacity="1.000000" stroke="none" 
	d="
M488.852539,1334.023193 
	C488.872040,1339.152710 488.872040,1343.787598 488.872040,1348.885986 
	C483.210297,1349.562256 477.510101,1350.243042 471.231781,1350.993042 
	C460.393066,1073.652954 455.428040,796.590759 451.878143,517.882080 
	C456.677155,523.149536 460.529755,527.174622 464.092377,531.441772 
	C464.912628,532.424194 464.953644,534.231628 464.990509,535.668762 
	C467.028198,615.116211 468.891968,694.568359 471.066528,774.012024 
	C473.464478,861.615234 476.070312,949.212952 478.725220,1036.808838 
	C480.734039,1103.088013 482.899658,1169.362671 485.119415,1235.635254 
	C486.212524,1268.271240 487.586243,1300.897827 488.852539,1334.023193 
z"/>
<path fill="#026CB5" opacity="1.000000" stroke="none" 
	d="
M1128.154663,1211.827515 
	C1137.589966,1241.672852 1146.928711,1271.129883 1156.458862,1301.190063 
	C1139.047607,1301.804810 1122.278198,1302.396973 1105.071289,1303.004517 
	C1077.551147,1215.441040 1050.086914,1128.055664 1022.246155,1039.472046 
	C1024.399536,1040.738281 1025.608765,1041.348145 1026.710938,1042.112549 
	C1046.413574,1055.778320 1066.159546,1069.383789 1085.709717,1083.264771 
	C1087.676636,1084.661255 1088.908203,1087.600830 1089.696411,1090.074219 
	C1101.313843,1126.534546 1112.798950,1163.037109 1124.314209,1199.529907 
	C1125.566406,1203.498291 1126.810425,1207.469360 1128.154663,1211.827515 
z"/>
<path fill="#026CB5" opacity="1.000000" stroke="none" 
	d="
M1111.419556,1100.731689 
	C1126.588623,1110.353760 1141.749878,1119.988037 1156.930786,1129.591309 
	C1162.277222,1132.973511 1167.512939,1136.580688 1173.093628,1139.527466 
	C1177.710083,1141.964966 1180.076660,1145.376709 1181.597778,1150.342651 
	C1196.215698,1198.066772 1211.072998,1245.717651 1225.853882,1293.391846 
	C1226.389893,1295.120972 1226.842041,1296.876099 1227.466187,1299.091187 
	C1225.994995,1299.320557 1224.771362,1299.650635 1223.540283,1299.682373 
	C1208.221191,1300.078979 1192.898804,1300.363403 1177.583130,1300.858398 
	C1174.769409,1300.949341 1173.544922,1300.141724 1172.675049,1297.380981 
	C1152.128174,1232.162842 1131.476440,1166.977905 1111.024658,1101.326416 
	C1111.205322,1100.866089 1111.419556,1100.731689 1111.419556,1100.731689 
z"/>
<path fill="#036CB5" opacity="1.000000" stroke="none" 
	d="
M538.660156,1157.407959 
	C537.388062,1132.823975 536.140259,1108.708496 534.892517,1084.593140 
	C535.211426,1084.513916 535.530396,1084.434814 535.849304,1084.355713 
	C562.412781,1167.863770 588.976318,1251.371826 615.783569,1335.646240 
	C593.594177,1337.904907 571.870056,1340.116089 549.297424,1342.413696 
	C545.738159,1280.525879 542.211243,1219.201172 538.660156,1157.407959 
z"/>
<path fill="#036CB4" opacity="1.000000" stroke="none" 
	d="
M176.552521,1204.876953 
	C175.590836,1204.223267 174.463531,1203.365112 174.043808,1202.242554 
	C166.935181,1183.228516 159.835144,1164.209961 152.977570,1145.104858 
	C152.145630,1142.787109 152.186386,1139.843018 152.730133,1137.390503 
	C163.791183,1087.501343 174.973969,1037.639038 186.189743,987.784241 
	C186.655334,985.714600 187.356384,983.564087 188.489395,981.798950 
	C200.184906,963.578186 211.988907,945.427002 223.781021,927.268311 
	C224.205872,926.614075 224.819885,926.082642 225.953598,924.813477 
	C220.739853,954.379639 215.676147,983.043274 210.631927,1011.710266 
	C199.321533,1075.989014 188.020813,1140.269531 176.552521,1204.876953 
z"/>
<path fill="#0A6DB2" opacity="1.000000" stroke="none" 
	d="
M751.055359,1433.095215 
	C864.331970,1430.641724 977.599426,1427.560425 1090.887695,1425.897095 
	C1226.024292,1423.912842 1361.160645,1425.725952 1496.278442,1428.569092 
	C1498.078125,1428.606934 1499.875366,1428.759033 1502.845947,1428.922241 
	C1496.658203,1435.472290 1491.287720,1441.486816 1485.474609,1447.037964 
	C1484.282715,1448.176147 1481.417236,1447.858154 1479.350220,1447.739380 
	C1439.100464,1445.425659 1398.883423,1442.135498 1358.602173,1440.855469 
	C1267.010986,1437.944946 1175.399170,1434.786133 1083.776245,1434.002197 
	C973.146790,1433.055542 862.497253,1434.460083 751.421875,1434.405029 
	C751.010010,1433.673828 751.032654,1433.384521 751.055359,1433.095215 
z"/>
<path fill="#026CB5" opacity="1.000000" stroke="none" 
	d="
M1241.870972,1288.151611 
	C1228.390869,1244.600830 1215.024048,1201.435791 1201.338745,1157.241699 
	C1203.536499,1158.297119 1204.812134,1158.813110 1205.994263,1159.491699 
	C1223.597290,1169.598511 1241.220459,1179.671631 1258.733276,1189.932739 
	C1260.535767,1190.988892 1262.380005,1192.968872 1262.997192,1194.904907 
	C1273.704590,1228.494629 1284.223999,1262.144409 1294.773193,1295.784424 
	C1294.966675,1296.401123 1295.023438,1297.060669 1295.285645,1298.451416 
	C1278.549072,1298.451416 1262.049316,1298.451416 1245.102661,1298.451416 
	C1244.162109,1295.461060 1243.073242,1291.999146 1241.870972,1288.151611 
z"/>
<path fill="#046CB4" opacity="1.000000" stroke="none" 
	d="
M359.681793,1364.649902 
	C352.695801,1365.540649 346.146942,1366.349487 339.060211,1367.224854 
	C354.490448,1280.194946 369.787415,1193.916992 385.084381,1107.639038 
	C385.285858,1107.675537 385.487366,1107.712036 385.688873,1107.748657 
	C385.142273,1192.190430 384.595673,1276.632324 384.046661,1361.446655 
	C375.911591,1362.507812 368.015289,1363.537842 359.681793,1364.649902 
z"/>
<path fill="#026CB5" opacity="1.000000" stroke="none" 
	d="
M1336.999756,1298.333130 
	C1329.838867,1298.333130 1323.172241,1298.475952 1316.521606,1298.215576 
	C1315.150146,1298.161743 1312.994873,1296.873413 1312.620850,1295.701050 
	C1303.017334,1265.596924 1293.601318,1235.433105 1284.172363,1205.273438 
	C1284.088989,1205.006714 1284.271118,1204.656982 1284.410278,1203.910767 
	C1291.544678,1207.625244 1298.527222,1211.332764 1305.574097,1214.913696 
	C1317.733887,1221.092896 1329.971436,1227.121460 1342.074585,1233.408691 
	C1343.785034,1234.297363 1345.644287,1236.051147 1346.216431,1237.802490 
	C1352.569580,1257.248413 1358.685303,1276.772217 1364.842529,1296.281982 
	C1364.983154,1296.727539 1364.860229,1297.256348 1364.860229,1298.333130 
	C1355.729004,1298.333130 1346.614380,1298.333130 1336.999756,1298.333130 
z"/>
<path fill="#056CB4" opacity="1.000000" stroke="none" 
	d="
M1390.873535,1256.170044 
	C1427.038086,1270.997925 1462.848389,1285.695801 1498.658813,1300.393555 
	C1498.858887,1300.166504 1499.058960,1299.939331 1499.259033,1299.712280 
	C1497.963745,1299.792358 1496.667358,1299.958740 1495.373413,1299.939941 
	C1459.431030,1299.418335 1423.488037,1298.911499 1387.548340,1298.237427 
	C1385.843506,1298.205444 1383.068481,1297.033691 1382.643555,1295.770142 
	C1377.142822,1279.411255 1371.978271,1262.939331 1366.274170,1245.071777 
	C1375.090576,1249.060303 1382.805054,1252.550171 1390.873535,1256.170044 
z"/>
<path fill="#056CB4" opacity="1.000000" stroke="none" 
	d="
M498.668701,1543.291748 
	C499.430817,1555.465454 500.154205,1567.170044 500.947235,1580.001099 
	C494.657410,1576.041992 489.178497,1572.715576 483.874176,1569.130615 
	C483.019531,1568.552856 482.626282,1566.842651 482.552734,1565.623901 
	C480.579926,1532.916260 478.676117,1500.204468 476.775970,1467.492432 
	C476.758575,1467.192871 476.948700,1466.881348 477.189423,1466.091309 
	C482.617920,1466.091309 488.203400,1466.091309 494.370850,1466.091309 
	C495.781403,1491.502930 497.205719,1517.162720 498.668701,1543.291748 
z"/>
<path fill="#096DB2" opacity="1.000000" stroke="none" 
	d="
M144.818466,1081.942871 
	C143.235260,1088.096924 141.753540,1093.850342 140.271835,1099.603882 
	C139.938461,1099.609985 139.605087,1099.616211 139.271713,1099.622437 
	C136.637543,1088.636108 133.975494,1077.656250 131.424820,1066.650513 
	C131.231766,1065.817505 131.585052,1064.629639 132.097672,1063.895142 
	C140.645432,1051.645020 149.259216,1039.440796 158.648102,1027.511597 
	C154.072052,1045.521851 149.496002,1063.532104 144.818466,1081.942871 
z"/>
<path fill="#076DB3" opacity="1.000000" stroke="none" 
	d="
M385.394531,1489.861328 
	C385.402435,1491.704468 385.402435,1493.133545 385.402435,1495.801636 
	C375.637878,1486.869751 366.810913,1478.795410 357.983948,1470.721069 
	C358.137268,1470.328491 358.290588,1469.936035 358.443939,1469.543457 
	C367.126251,1469.543457 375.808594,1469.543457 385.386627,1469.543457 
	C385.386627,1475.966675 385.386627,1482.706909 385.394531,1489.861328 
z"/>
<path fill="#638A7E" opacity="1.000000" stroke="none" 
	d="
M750.592773,1432.992432 
	C751.032654,1433.384521 751.010010,1433.673828 750.947754,1434.396484 
	C732.340393,1434.829834 713.772766,1434.829834 695.205139,1434.829834 
	C695.204346,1434.974487 695.203491,1435.119263 695.202637,1435.263916 
	C713.511780,1434.472534 731.820984,1433.681152 750.592773,1432.992432 
z"/>
<path fill="#026CB5" opacity="1.000000" stroke="none" 
	d="
M1111.099609,1100.935547 
	C1110.819092,1100.839111 1110.644287,1100.673218 1110.469360,1100.507324 
	C1110.717407,1100.471558 1110.965576,1100.435791 1111.316650,1100.565918 
	C1111.419556,1100.731689 1111.205322,1100.866089 1111.099609,1100.935547 
z"/>
<path fill="#026CB5" opacity="1.000000" stroke="none" 
	d="
M744.230835,812.362427 
	C744.037842,812.582886 743.834229,812.838440 743.630615,813.093994 
	C743.672791,812.901367 743.714966,812.708740 743.999756,812.491882 
	C744.242310,812.467651 744.220154,812.397583 744.230835,812.362427 
z"/>
<path fill="#026CB5" opacity="1.000000" stroke="none" 
	d="
M548.235291,621.343201 
	C548.054260,621.569519 547.861694,621.829773 547.669067,622.089966 
	C547.705505,621.906616 547.741882,621.723206 548.014465,621.491638 
	C548.250671,621.443420 548.223694,621.377075 548.235291,621.343201 
z"/>
</svg>