<svg height="311.874374" viewBox="0 0 293.62302 285.61723" width="320.641926" xmlns="http://www.w3.org/2000/svg"><path d="m290.9888 155.79419c-.28464-.02453-26.44134-2.88208-38.533-5.87935v-2.36432c2.55631-5.72452 7.36906-17.13268 9.19111-25.66768l.68224-3.195-2.76131 1.74624c-.081.04756-2.77654 1.73534-7.112 3.94632v-124.3804l-18.64843 25.60946c-.18357.247-19.649 26.37148-42.844 26.37148-22.14869 0-41.32637-19.80963-43.95156-22.62284l-6.97282-9.872-8.645 8.67-.54612.54723-.24179.247-.22939.2559c-.18815.21453-20.50712 22.94043-44.24227 22.94043-23.19188 0-42.65878-26.11408-42.85312-26.38238l-18.64985-25.61862c.0153.026.0153 31.7358.0153 31.7358v95.5069a61.599 61.599 0 0 0 -9.90246 7.25177c-7.42264 6.67976-12.445 14.57711-14.14464 22.229l-.59969 2.70292 2.51346-1.14376c.14993-.07506 13.441-6.09735 22.13333-7.74549v3.04632c-3.78777 9.06713-10.00651 27.58436-5.02084 41.9452l.93164 2.69207 1.52675-2.40247a89.72628 89.72628 0 0 1 5.41864-7.31767c3.15755 12.64854 9.58729 30.67354 22.29541 43.96122 19.834 20.74184 62.17164 48.86873 84.99341 52.68177l.50785.08274.51713.0322 2.11114.138 1.12284.07506 1.12134-.17019 2.0102-.31412.05809-.00322.06428-.01684c22.82033-3.80987 65.15933-31.93672 84.9949-52.67387 18.11-18.94209 23.49337-47.51663 24.7662-56.38879 15.01658-4.58125 35.07084-12.54275 39.81485-17.97l1.7424-1.993z" fill="#005a9c"/><g fill="#fff"><path d="m239.922 179.20828c-1.1642.21924-2.717.434-4.60478.64558-2.17085 10.53566-7.49615 29.122-19.43779 41.6078-19.50977 20.40443-58.64844 45.07872-76.16325 48.01009l-1.36.21156-1.19479-.07506c-17.61575-3.10454-56.50819-27.6562-75.9414-47.97492-14.08351-14.73194-18.962-37.95577-20.32826-46.43256a81.93468 81.93468 0 0 0 -9.51229 8.95342c2.65119 12.03838 8.71832 31.34042 21.89774 45.11736 19.21137 20.09156 60.96756 47.69127 82.3146 51.25584l.26767.04138.27238.023 2.11114.138.59505.03815.59516-.09191 2.0102-.30966h.04125l.03369-.01387c21.33478-3.56606 63.08947-31.15934 82.30543-51.25113 15.92531-16.65157 21.46625-41.35955 23.1445-51.57635-2.69554.73749-5.10036 1.31866-7.04628 1.68332"/><path d="m237.68994 28.45537c-.19744.27919-21.035 28.34167-46.72662 28.34167-24.77684 0-45.62979-22.13854-47.70415-24.39832l-.07964-.12411-3.76783-5.32761-4.61395 4.61767-.54612.549-.13464.13948-.11941.13352c-.208.23757-21.8809 24.58833-47.86319 24.58833-25.68713 0-46.52311-28.06867-46.73268-28.34761l-9.94229-13.58232v109.74957a63.39623 63.39623 0 0 1 11.00851-4.12394v-74.3727c9.83979 9.5331 26.20575 21.70922 45.66646 21.70922 24.42346 0 44.536-16.83218 52.50464-24.57767 8.082 7.82055 28.09356 24.406 52.32429 24.406 19.46072 0 35.82816-12.17464 45.66795-21.71517v85.02772a115.58934 115.58934 0 0 0 11.007-4.42468v-111.93128z"/><path d="m239.41264 176.50234c-12.77711 2.38885-66.56065 4.05829-92.61033-4.10561-26.66776-8.35094-65.82328-12.46126-87.28651-9.14045-18.21092 2.804-33.19238 21.85934-38.07858 28.76776-4.24063-18.05894 8.01161-42.238 8.14625-42.49714l1.02343-2.00685h-2.25037c-6.60872 0-18.89316 4.909-24.31942 7.22724 4.64913-14.11262 20.69688-27.48775 38.67673-31.80492 19.81261-4.76952 49.01674-.48307 95.97436 9.10825 38.77613 7.91271 54.31752 7.0848 70.77985 6.20932l7.96572-.39859c16.652-.6654 34.03683-9.59132 40.75115-13.40436-3.0275 11.06926-9.78009 25.33968-9.855 25.50219l-.68695 1.43807 1.52378.47242c8.80552 2.71808 30.25042 5.36729 38.383 6.31634-9.02129 6.31659-35.86184 16.006-48.13706 18.31633"/><path d="m56.69083 90.25331h-2.75066v-5.51h2.75066zm8.81022-7.17051-4.39978-2.93732h-14.31452v25.00228h7.34157v-10.29041h2.74917v10.10665h8.25631v-9.01193l-4.22068-3.49546 4.58793-3.12161z"/><path d="m79.25285 99.81441h-2.74285v-14.8885l2.74285-.18233zm3.124-19.48487h-9.90867l-4.39979 3.8621v17.64325l5.14025 3.12931h9.1682l5.31762-4.04443v-16.91814z"/><path d="m90.815 83.813v17.655l5.686 3.68h8.799l4.223-3.862v-6.799h-8.065v6.058h-2.39v-15.989h2.39v4.597h8.065v-6.07l-3.49-2.753h-11.001z"/><path d="m112.09 80.146v25.003h8.258v-10.662h2.567v10.476h8.068v-24.817h-8.255v10.108h-2.568v-10.108z"/><path d="m216.38575 90.44828h-2.75363v-5.51792h2.75363zm8.80107-7.16606-4.40438-2.942h-14.30225v25.00253h7.3355v-10.29192h2.74905v10.10337h8.2594v-9.00271l-4.22378-3.48949 4.58646-3.12609z"/><path d="m133.73 80.146v24.817h13.759v-4.419h-6.234v-6.428h4.952v-3.309h-4.952v-6.063h6.422v-4.598z"/><path d="m190.156 80.36v24.82h13.75v-4.409h-6.237v-6.441h4.955v-3.302h-4.955v-6.07h6.425v-4.782z"/><path d="m155.194 80.33-4.764 3.12v7.911l4.764 3.679h5.876v6.428h-2.756v-3.308h-8.253v3.857l4.768 3.312h10.64l3.854-3.672v-7.718l-4.218-2.952h-6.973v-5.696h2.755v2.757h8.254v-3.856l-4.405-3.862z"/><path d="m171.155 80.146v4.963h4.4v19.854h8.07v-19.672h3.856v-5.145z"/></g><path d="m47.49389 157.88081 5.10656-.73724-1.41973-9.81824 5.39726-.788c3.86272-.56433 4.26206.73575 4.75925 4.16085a16.8855 16.8855 0 0 0 1.29116 4.9905l5.7888-.84179-.10256-.66688c-1.17336-.26383-1.308-1.17126-1.83269-4.83393-.67618-4.6853-1.90157-5.2848-4.09372-5.89645a6.05134 6.05134 0 0 0 3.055-6.57571c-.31672-2.18026-2.24579-6.89454-8.91267-5.92865l-12.66538 1.84137zm3.07655-14.781-.97606-6.7625 6.54451-.94608c3.081-.4521 3.9561 1.44129 4.15342 2.778.35958 2.49761-.83064 3.64137-3.56445 4.03229z" fill="#005a9c"/><path d="m81.77275 142.29223c-1.42122 11.78049 7.15491 14.27339 10.49293 14.67966 3.32278.3986 12.24771.01536 13.66745-11.75 1.41812-11.77431-7.15652-14.27191-10.48389-14.669-3.33492-.40305-12.25688-.0275-13.67649 11.73938m5.24578.64062c.84748-7.01543 5.05441-8.28331 7.89524-7.93847 2.83477.34335 6.61808 2.57886 5.77209 9.59281-.83534 7.02038-5.04847 8.27141-7.8893 7.93252-2.83934-.34955-6.624-2.57266-5.778-9.58686" fill="#005a9c"/><path d="m129.4 162.715-5.173-1.102 1.991-9.362-5.274-17.269 6.099 1.296 2.845 11.881 7.183-9.738 5.858 1.24-11.569 13.756z" fill="#005a9c"/><path d="m151.61507 161.80137 9.19718 1.51932.745 5.44111 5.66494.929-4.66907-26.48494-6.009-.99191-13.01112 23.56594 5.48892.90446zm6.91782-13.44425.07036.0109 1.4564 10.42518-6.35338-1.04691z" fill="#005a9c"/><path d="m188.568 167.157 12.552.74-.27 4.597-17.824-1.052 1.483-25.314 5.276.313z" fill="#005a9c"/><path d="m221.08839 163.7879c.17279 1.40289 1.132 4.00157 5.70767 3.55689 2.47977-.242 5.18757-1.113 4.92448-3.78058-.19125-1.96846-2.128-2.30735-4.877-2.68142l-2.75982-.36961c-4.15194-.55021-8.17679-1.07465-8.71993-6.62452-.26767-2.81346.76189-7.87877 8.93409-8.67447 7.7118-.75136 10.26972 4.0734 10.60775 7.15961l-5.04995.49521c-.257-1.11156-.93159-3.74244-5.51952-3.28712-2.00562.187-4.308 1.16061-4.09075 3.43749.18976 1.97143 1.84347 2.23377 2.92047 2.3777l6.29826.90917c3.51082.50908 6.8061 1.60057 7.25127 6.12806.72969 7.56911-6.91324 8.975-9.11617 9.1957-9.17427.89083-11.26547-4.22675-11.567-7.3469z" fill="#005a9c"/></svg>