<?xml version="1.0" encoding="UTF-8" standalone="no"?>
<svg xmlns:rdf="http://www.w3.org/1999/02/22-rdf-syntax-ns#" xmlns="http://www.w3.org/2000/svg" height="262.00219" width="272.55861" version="1.1" xmlns:cc="http://creativecommons.org/ns#" xmlns:dc="http://purl.org/dc/elements/1.1/" viewBox="0 0 272.55861 262.00219"><polygon points="99.096 52.772 122.591 91.231 102.749 128.822 99.796 135.438 236.575 146.92 223.507 83.418 230.485 41.634 99.096 52.772" fill="#fff"/><path d="M231.31979,92.38575s38.73355-4.50212,38.73355-47.76008C270.05334,1.379,226.42283.25,226.42283.25L65.84687.62839l33.85044,53.4019H207.24652s15.79212,0,15.79212,18.04159c0,18.067-14.28745,16.54559-14.28745,16.54559H192.65128c-5.86518-4.47644-18.80346-13.64406-33.1588-19.176-19.55435-7.5193-57.16734-11.27317-57.16734-11.27317l20.31073,33.09117-19.93529,37.613s32.34318-.38956,52.273-8.67078c15.2389-6.31691,31.12956-19.88756,37.77947-25.93051h15.99817s16.173-1.1431,16.173,18.42252c0,19.55724-15.0441,19.93268-15.0441,19.93268H101.20169l-31.9764,55.27075H220.41657c13.15849,0,51.892-1.86855,51.892-46.63956C272.30861,96.5206,231.31979,92.38575,231.31979,92.38575Z" fill="#010101" stroke="#fff" stroke-width="0.5"/><path d="M94.42781,58.16828,114.36308,93.128,97.43946,127.3539s-24.82418,1.12894-45.50775-6.012C31.24842,114.18963.41656,94.64655.41656,94.64655S24.09909,73.95744,45.1578,66.81912C66.21653,59.66977,94.42781,58.16828,94.42781,58.16828Z" fill="#e75300" stroke="#fff" stroke-width="0.5"/><path d="M65.81854,211.74171H72.6858c.74222,0,.74222.51909-.07052,1.99255l-2.94662,5.28658c-.813,1.47056-1.38037,1.98994-2.12261,1.98994H60.6759Zm-10.90322,9.07716a27.422,27.422,0,0,1-2.56568,3.94578H68.18942c2.501,0,4.97906-1.84027,7.13837-5.6901l2.6784-4.82673c1.85151-3.32752,1.45092-4.2394-1.94745-4.47929l.0789-.13266c3.65242-.22,5.058-1.1457,6.91235-4.45938l2.32868-4.20013c2.15065-3.86659,1.70209-5.68457-.796-5.68457H68.74a22.14522,22.14522,0,0,1-1.81509,3.9348Zm17.96529-21.7787h6.86986c.75089,0,.75089.51389-.06185,1.98157l-2.77176,4.98165c-.8272,1.48733-1.4,1.97867-2.13966,1.97867H67.91572Z" fill="#e75300"/><path d="M97.97009,195.29179a28.827,28.827,0,0,0-2.5885,3.96284l-11.403,20.50842c-.45146.813-.40059,1.24773.23151,1.24773h9.04334c.62111,0,1.1376-.4347,1.59744-1.24773l11.39746-20.50842a23.5157,23.5157,0,0,0,1.83474-3.96284h3.45473a26.056,26.056,0,0,0-2.57407,3.96284L97.57211,219.71247c-1.5752,2.85063-4.43424,5.05218-6.44673,5.05218H78.96027c-1.99283,0-2.38793-2.20155-.80725-5.05218l11.3804-20.45784a22.80674,22.80674,0,0,0,1.82347-3.96284Z" fill="#e75300"/><path d="M97.27845,224.76465a28.38354,28.38354,0,0,0,2.577-3.97411l11.99285-21.564a22.5386,22.5386,0,0,0,1.81479-3.9348H130.0705L128.106,199.7347a4.2,4.2,0,0,0-2.70962-.69453h-7.58405l-4.96487,8.94189H119.441a8.08346,8.08346,0,0,0,3.494-.68875l-2.86481,5.15388a4.17453,4.17453,0,0,0-2.718-.70548h-6.60193l-5.03252,9.04883a21.41557,21.41557,0,0,0-1.82058,3.97411Z" fill="#e75300"/><path d="M115.25792,224.76465a28.9477,28.9477,0,0,0,2.57983-3.97411l11.99-21.564a23.0242,23.0242,0,0,0,1.82345-3.9348h16.41l-1.97288,4.44291a4.20209,4.20209,0,0,0-2.718-.69453h-7.57566l-4.97327,8.94189h6.60453a8.094,8.094,0,0,0,3.486-.68875l-2.85357,5.15388a4.17905,4.17905,0,0,0-2.72089-.70548h-6.59354l-5.04092,9.04883a22.47057,22.47057,0,0,0-1.83762,3.97411Z" fill="#e75300"/><path d="M144.3582,212.61081l9.56243-11.16016-2.78852,11.16016Zm5.83688,3.75966-.87488,3.51137a18.57847,18.57847,0,0,1-1.47923,4.18857c-.17486.26533-.32718.50233-.45984.69424h7.4034c-.18353-.92575.27949-2.81107.968-5.56606l5.89642-23.9068h-6.55974l-.21155,1.8911-18.86012,21.92263a72.89313,72.89313,0,0,1-5.2782,5.65913H134.592a26.03556,26.03556,0,0,1,2.738-3.95995l3.74548-4.43423Z" fill="#e75300"/><path d="M178.30721,195.29179a26.55707,26.55707,0,0,0-2.57956,3.96284l-12.09748,21.75615h7.57278a8.31991,8.31991,0,0,0,3.49143-.7058l-2.98044,4.45967h-16.43a27.29935,27.29935,0,0,0,2.57984-3.94578l11.99285-21.56424a22.81882,22.81882,0,0,0,1.829-3.96284Z" fill="#e75300"/><path d="M183.44985,221.01078c-.84107,0-.89165-.4347-.1523-1.75554l10.26272-18.465c.74511-1.32663,1.25322-1.75006,2.10006-1.75006h5.81985c.84974,0,.90059.42343.15519,1.75006l-10.25118,18.465c-.75378,1.32084-1.26738,1.75554-2.10844,1.75554Zm6.74038,3.75387c2.58533,0,5.02965-1.874,7.30166-5.97793l9.74914-17.5222c2.27782-4.09839,1.91653-5.97273-.6662-5.97273h-11.8177c-2.59112,0-5.0412,1.87434-7.32161,5.97273l-9.73787,17.5222c-2.2807,4.10389-1.91942,5.97793.66044,5.97793Z" fill="#e75300"/><path d="M132.79716,248.99313h6.86148c.74222,0,.74222.51389-.065,1.987l-2.94373,5.27245c-.81592,1.4792-1.38588,1.99832-2.13677,1.99832h-6.86437Zm-10.9064,9.06588a27.626,27.626,0,0,1-2.56568,3.94318h15.83718c2.51221,0,4.98454-1.83184,7.14675-5.69872l2.66424-4.82067c1.8489-3.325,1.45091-4.23943-1.93619-4.46545l.0792-.12981c3.64086-.237,5.05217-1.15145,6.90657-4.47091l2.33159-4.20533c2.15062-3.86139,1.70176-5.69034-.78762-5.69034H135.72124a23.41592,23.41592,0,0,1-1.80931,3.94318Zm17.96817-21.773h6.85888c.75638,0,.75638.50265-.06214,1.97582l-2.76627,4.98454c-.8269,1.47631-1.39426,1.98446-2.14486,1.98446h-6.856Z" fill="#e75300"/><path d="M162.47869,236.28606h6.86437c.75638,0,.75638.50265-.06214,1.97582l-2.77465,4.98454c-.8269,1.47631-1.38588,1.98446-2.13648,1.98446h-6.87015Zm-7.06755,12.70707h4.39175l-3.79347,13.00906h6.68373a6.84246,6.84246,0,0,1,.29365-3.133l2.83361-9.74047c2.642-.50232,4.35794-2.30325,5.823-4.9224l3.33334-5.995c2.13937-3.86139,1.70468-5.69034-.7902-5.69034H158.32944a21.59594,21.59594,0,0,1-1.8148,3.94318l-11.98158,21.564a29.57816,29.57816,0,0,1-2.59661,3.9741h6.61321a23.88764,23.88764,0,0,1,1.83156-3.9741Z" fill="#e75300"/><path d="M176.5349,249.857l9.55694-11.17173L183.29755,249.857Zm5.83688,3.75936-.88615,3.50011a18.24076,18.24076,0,0,1-1.48184,4.19984,6.13218,6.13218,0,0,1-.45464.68585h7.395c-.16937-.92575.27949-2.80557.96535-5.57155l5.89353-23.90968h-6.5369l-.2286,1.91364L168.18869,256.346c-2.22434,2.56569-3.68335,4.14059-5.2753,5.65624h3.84694a25.56858,25.56858,0,0,1,2.74083-3.95445l3.75387-4.43135Z" fill="#e75300"/><path d="M192.00791,262.00219l7.59532-26.07163a12.96076,12.96076,0,0,0,.58152-3.4096h7.24819c-.24278.37255-.43469.64915-.68585,1.1009a24.34184,24.34184,0,0,0-1.52691,4.33539l-5.3233,17.7,14.64871-18.24766a30.40539,30.40539,0,0,0,2.90442-3.929,5.02411,5.02411,0,0,0,.40377-.95956h4.04752a34.02269,34.02269,0,0,0-3.93191,4.19434l-20.60727,25.28689Z" fill="#e75300"/><path d="M206.04706,262.00219a28.39809,28.39809,0,0,0,2.56569-3.94318L220.614,236.46414a22.4244,22.4244,0,0,0,1.82348-3.94318h16.41291l-1.97289,4.45678a4.12,4.12,0,0,0-2.72378-.69168h-7.57856l-4.96749,8.94482h6.599a8.29566,8.29566,0,0,0,3.48855-.69453l-2.86483,5.15131a4.12272,4.12272,0,0,0-2.70673-.69453h-6.60742l-5.14262,9.25779h7.57564a8.23619,8.23619,0,0,0,3.48276-.69713l-2.97754,4.4484Z" fill="#e75300"/><path d="M246.62922,256.02687c-2.26655,4.09-4.72471,5.97532-7.31872,5.97532H225.641l1.98127-4.4484a4.13447,4.13447,0,0,0,2.70124.69713h8.27569c.844,0,1.36333-.426,2.10266-1.761l2.1677-3.89521c.7425-1.33212.69453-1.75265-.15781-1.75265h-7.51931c-2.59111,0-2.944-1.894-.65493-5.9866l3.53392-6.35626c2.272-4.09839,4.71924-5.97821,7.30745-5.97821H259.0767l-1.97029,4.45678a4.05185,4.05185,0,0,0-2.70095-.69168h-8.304c-.85523,0-1.36045.42346-2.10843,1.74171l-1.5807,2.86483c-.75638,1.32084-.69135,1.74427.1552,1.74427h7.51931c2.58275,0,2.92985,1.8911.67169,5.99209Z" fill="#e75300"/></svg>