<svg height="336.5728" viewBox="0 0 34.65424 39.27149" width="297.112541" xmlns="http://www.w3.org/2000/svg"><path d="m.657 17.952v-10.572l.6-1.354 1.741-1.247.817.867v1.301l-1.144.758v-1.301l-1.034.76v9.595l.872-.596v-1.464l1.087-.759v2.223l-.435 1.03-1.904 1.247z" fill="#005a9c"/><path d="m.657 7.38v10.572l.6.488 1.904-1.247.435-1.03v-2.223l-1.087.759v1.464l-.872.596v-9.595l1.034-.76v1.302l1.144-.759v-1.301l-.817-.867-1.741 1.247z" fill="none" stroke="#005a9c" stroke-linecap="round" stroke-linejoin="round" stroke-width=".41242"/><path d="m4.032 15.242.49-.326v-9.975l-.327.109v-1.03l1.743-.922v1.356l-.436.271v9.649l.544-.271v1.301l-2.014 1.084z" fill="#005a9c"/><path d="m4.195 4.019v1.031l.327-.109v9.976l-.49.325v1.246l2.014-1.084v-1.3l-.544.27v-9.649l.436-.271v-1.356z" fill="none" stroke="#005a9c" stroke-linecap="round" stroke-linejoin="round" stroke-width=".41242"/><path d="m6.373 13.941.381-.163v-9.92l-.381.216v-1.192l1.416-.489.925 5.584v-4.824l-.327.162v-1.193l1.58-.596v1.301l-.437.163v11.005l-.925.27-.708-5.854v4.987l.273-.108v1.192l-1.797.814z" fill="#005a9c"/><path d="m6.373 2.882v1.192l.381-.216v9.92l-.381.163v1.355l1.797-.814v-1.193l-.273.109v-4.987l.708 5.854.925-.27v-11.005l.437-.163v-1.301l-1.58.596v1.193l.328-.162v4.824l-.926-5.584z" fill="none" stroke="#005a9c" stroke-linecap="round" stroke-linejoin="round" stroke-width=".41242"/><path d="m10.347 12.748v-10.626l.653-.92 1.851-.272.49.651v1.789l-.98.054v-1.031l-.871.108v9.758l.708-.27v-1.518l1.088-.054v2.006l-.707.759-1.633.378z" fill="#005a9c"/><path d="m10.347 2.122v10.626l.599.813 1.633-.379.707-.759v-2.006l-1.088.053v1.519l-.708.27v-9.758l.871-.108v1.031l.98-.054v-1.789l-.49-.651-1.851.271z" fill="none" stroke="#005a9c" stroke-linecap="round" stroke-linejoin="round" stroke-width=".41242"/><path d="m13.667 11.664h.436v-9.921l-.327.054v-1.083h1.96v1.138h-.544v9.812l.544.055v1.137l-2.069.054z" fill="#005a9c"/><path d="m13.776.714v1.083l.328-.054v9.921h-.437v1.246l2.069-.054v-1.137l-.544-.055v-9.812h.544v-1.138z" fill="none" stroke="#005a9c" stroke-linecap="round" stroke-linejoin="round" stroke-width=".41242"/><path d="m18.458 12.802-.925-6.288v5.312h.436v.976h-1.798v-1.083h.545v-10.138h-.436v-.867h1.471l.871 5.745v-4.823h-.273v-.977h1.633v1.138h-.49v11.005z" fill="#005a9c"/><path d="m16.28.714v.867h.436v10.138h-.545v1.083h1.797v-.976h-.435v-5.312l.925 6.288h1.034v-11.005h.49v-1.138h-1.632v.976h.272v4.824l-.871-5.745z" fill="none" stroke="#005a9c" stroke-linecap="round" stroke-linejoin="round" stroke-width=".41242"/><path d="m22.705 13.289-.872-6.179v4.933l.273.108v1.084l-1.688-.27v-1.139l.49.055v-9.921l-.49-.163v-.975l1.525.271.925 6.071v-4.933l-.381-.109v-1.029l1.741.324v1.193l-.489-.162v11.167z" fill="#005a9c"/><path d="m20.418.821v.976l.49.163v9.921l-.49-.055v1.139l1.688.27v-1.083l-.273-.109v-4.933l.872 6.18 1.034.325v-11.167l.489.163v-1.194l-1.741-.324v1.029l.381.109v4.933l-.925-6.071z" fill="none" stroke="#005a9c" stroke-linecap="round" stroke-linejoin="round" stroke-width=".41242"/><path d="m29.836 16.325v-1.409l.49.216v-9.756l-.381-.163v1.842l-.871-.541v-3.199l3.484 2.386v3.144l-.763-.598v-1.843l-.435-.215v9.594l.273.217v1.41z" fill="#005a9c"/><path d="m29.074 3.315v3.199l.871.541v-1.842l.381.163v9.756l-.49-.215v1.408l1.797 1.085v-1.41l-.273-.217v-9.595l.435.216v1.844l.763.597v-3.144z" fill="none" stroke="#005a9c" stroke-linecap="round" stroke-linejoin="round" stroke-width=".41242"/><path d="m14.193 38.247.368-.003-.012-2.032-1.357-1.782-.307.003-.003-.55 1.49.013.826 1.54.909-1.592 1.204-.005.004.508-.225.001-1.132 1.958.011 2.011.43-.001.003.629-2.204.013z" fill="#005a9c"/><path d="m12.882 33.883.003.55.307-.003 1.357 1.782.012 2.032-.368.003.005.711 2.204-.012-.004-.63-.428.001-.012-2.011 1.132-1.958.225-.001-.004-.508-1.204.005-.91 1.592-.825-1.54z" fill="none" stroke="#005a9c" stroke-linecap="round" stroke-linejoin="round" stroke-width=".41242"/><path d="m23.135 38.277.327-.002-.023-3.781-.305.002-.004-.61 1.94.01.003.609-.286.002.023 3.883 1.204-.007-.006-.977 1.082-.005.01 1.524-3.961.023z" fill="#005a9c"/><path d="m23.13 33.886.004.61.305-.002.023 3.781-.327.003.004.67 3.961-.023-.01-1.524-1.082.005.006.977-1.204.007-.023-3.883.287-.002-.004-.609z" fill="none" stroke="#005a9c" stroke-linecap="round" stroke-linejoin="round" stroke-width=".41242"/><path d="m27.80847 34.57068s.00626 1.11893.00849 1.36288a.65346.65346 0 0 0 .67746.58561c.42828-.00354 1.14306-.00644 1.40771-.00867.26554-.00156.39026.2829.39118.5264.00109.24374.00491.77258.00491.93551a.386.386 0 0 1 -.36478.42826c-.28543.00177-.42938.00311-.63278.00378-.20386.00089-.30688-.22125-.30957-.64838l-1.06192.006s.00626 1.01608.00491.79327c-.00134-.22458-.16.50793.47184.50436.63345-.00332 1.87777-.01068 2.24591-.01178a.75681.75681 0 0 0 .75122-.69647c-.00156-.3855-.008-1.40225-.00962-1.747-.002-.34613-.1267-.71093-.98434-.70694-.85742.00424-.93811.00492-1.16364.00736-.22464.00046-.40948-.22168-.41171-.629-.00268-.40646-.00268-.345-.00336-.56781-.00112-.22482.18262-.246.38624-.24664.20428-.0011.61309-.00379.79592-.004.18442-.00266.26712.24106.26957.58719l1.10217-.006s-.0029-.36573-.004-.67087c-.00088-.30539-.12515-.467-.55319-.46433-.42917.00269-1.79685.00913-2.12363.01136-.327.00222-.89831-.03537-.895.65594" fill="#005a9c"/><path d="m27.80847 34.57068s.00626 1.11893.00849 1.36288a.65353.65353 0 0 0 .67749.58561c.42825-.00357 1.14306-.00647 1.40771-.0087.26554-.00156.39026.28293.39115.52643.00113.24371.00491.77258.00491.93551a.386.386 0 0 1 -.36478.42826c-.28543.00177-.42938.00311-.63278.00378-.20383.00089-.30688-.22125-.30957-.64841l-1.06192.006s.00626 1.01608.00491.7933c-.00134-.22461-.16.50793.47187.50436.63342-.00335 1.87774-.01068 2.24588-.01181a.75679.75679 0 0 0 .75125-.69644c-.00159-.38553-.00806-1.40228-.00962-1.74707-.002-.3461-.12673-.7109-.98437-.70691-.85742.00424-.93811.00489-1.16364.00736-.22464.00042-.40948-.22171-.41171-.629-.00268-.40643-.00268-.345-.00336-.56781-.00109-.22479.18262-.24594.38624-.24661.20431-.00113.61312-.00379.796-.004.18439-.00269.26709.24106.26957.58716l1.10217-.006s-.00293-.3657-.004-.67087c-.00091-.30539-.12518-.467-.55322-.4643-.42914.00266-1.79685.00913-2.12363.01136-.32707.00224-.89839-.03542-.89504.65592z" fill="none" stroke="#005a9c" stroke-linecap="round" stroke-linejoin="round" stroke-width=".41242"/><path d="m26.24317 10.57968.43518-4.554.54425 4.879zm2.17706 3.57712-1.089-10.40814.49017.1095v-1.24781l-2.2854-.81375v1.3562l.4343.10773-.92536 9.59552-.38064-.16293v1.19238l1.74231.651v-1.13824l-.32724-.16294.05545-1.40893 1.08783.21655.10864 1.68118-.43518-.1636v1.30148l1.74252.70535.05387-1.30255z" fill="#005a9c"/><path d="m26.24317 10.57968.43521-4.554.54425 4.879zm2.17706 3.57712-1.089-10.40817.49014.10953v-1.24781l-2.28537-.81375v1.35617l.43427.10773-.92538 9.5955-.38064-.16293v1.19238l1.74231.65106v-1.13825l-.32721-.16294.05542-1.409 1.08786.21658.10864 1.68115-.43521-.16357v1.30142l1.74255.70535.05387-1.30255z" fill="none" stroke="#005a9c" stroke-linecap="round" stroke-linejoin="round" stroke-width=".41242"/><path d="m6.46408 36.15613-1.10216.00647-.01116-1.84967s.81739-.02426 1.08293-.02649c.26465-.00223.38914.303.38914.303s.00582.976.0076 1.2803c.00134.3056-.36635.28644-.36635.28644m1.21729 2.1488-1.00963-1.49934.55208-.004a.502.502 0 0 0 .56885-.51038c.01721-.56937.01162-1.52536-.011-1.82986-.02214-.30426-.06683-.85315-.86322-.84827-.79527.00467-3.02038.05765-3.02038.05765l.00357.62991.36836-.00134.02213 3.84155-.30645.002.00448.75253 1.81562-.01135-.0033-.65008-.38736.002-.00827-1.3213 1.19627 2.046 1.34714-.0067-.00336-.65173z" fill="#005a9c"/><path d="m6.4641 36.15613-1.10216.00644-.01118-1.84964s.81739-.02426 1.08294-.02649c.26464-.00223.38915.30292.38915.30292l.0076 1.2803c.00132.3056-.36635.28647-.36635.28647zm1.21727 2.1488-1.00963-1.49933.55209-.004a.502.502 0 0 0 .56885-.51038c.01721-.56937.01163-1.52536-.011-1.82983-.02212-.30429-.06683-.85318-.86322-.84827-.79527.00467-3.02038.05765-3.02038.05765l.00358.62991.36835-.00134.02213 3.84155-.30645.002.00448.75257 1.81562-.01135-.00334-.65018-.38736.002-.00827-1.32126 1.19626 2.046 1.34718-.00667-.00336-.65173z" fill="none" stroke="#005a9c" stroke-linecap="round" stroke-linejoin="round" stroke-width=".41242"/><path d="m11.132 38.28449-1.4095.008-.02123-3.74093 1.40883.03271zm1.02014-3.58313a.81361.81361 0 0 0 -.84266-.86917c-.46894.002-1.53087.00756-1.85743.01025-.32722.00177-.795.18762-.79281.615 0 0 .01922 3.27283.021 3.63788.002.36615.16763.81308.67859.80954.511-.002 1.73494-.00937 2.10263-.0116a.68519.68519 0 0 0 .71078-.75653c-.02481-.50861-.01721-2.88647-.02011-3.43536" fill="#005a9c"/><path d="m11.132 38.28449-1.4095.008-.02125-3.741 1.40883.03274zm1.02012-3.58313a.81356.81356 0 0 0 -.84265-.86917c-.469.002-1.53087.00756-1.85744.01022-.32722.00177-.795.18765-.7928.615 0 0 .01921 3.27286.021 3.63788.002.36615.16765.81311.6786.80954.511-.002 1.73494-.00934 2.10262-.01157a.68521.68521 0 0 0 .71078-.75656c-.0248-.50862-.01723-2.88645-.0201-3.43534z" fill="none" stroke="#005a9c" stroke-linecap="round" stroke-linejoin="round" stroke-width=".41242"/><path d="m19.29109 37.36389.519-2.178.66494 2.1713zm2.6194 1.02253-1.59726-4.42292-1.14306.006-1.2204 4.3172-.48906.0029.00336.71158 2.02037-.01156-.00359-.65149-.26576.002.01788-.46719 1.36882-.00779.12473.528-.38757.00223.00379.67 1.87821-.0109-.00382-.67065z" fill="#005a9c"/><path d="m19.29109 37.36386.519-2.178.665 2.1713zm2.6194 1.02256-1.59724-4.42295-1.14307.006-1.22041 4.3172-.489.0029.00334.71161 2.02037-.01156-.00357-.65152-.26577.002.01789-.46719 1.36882-.00782.12471.528-.38757.00223.00379.67 1.87821-.0109-.00379-.67065z" fill="none" stroke="#005a9c" stroke-linecap="round" stroke-linejoin="round" stroke-width=".41242"/><path d="m.206 6.929v10.571l.599.487 1.905-1.246.436-1.031v-2.222l-1.089.759v1.463l-.871.597v-9.595l1.034-.758v1.3l1.143-.76v-1.301l-.815-.867-1.743 1.247z" fill="#fff"/><path d="m.206 6.929v10.571l.599.487 1.905-1.246.436-1.031v-2.222l-1.089.759v1.463l-.871.597v-9.595l1.034-.758v1.3l1.143-.76v-1.301l-.815-.867-1.743 1.247z" fill="none" stroke="#005a9c" stroke-linecap="round" stroke-linejoin="round" stroke-width=".41242"/><path d="m3.745 3.568v1.029l.327-.108v9.975l-.491.326v1.246l2.014-1.084v-1.302l-.543.271v-9.649l.435-.271v-1.355z" fill="#fff"/><path d="m3.745 3.568v1.029l.327-.108v9.975l-.491.326v1.246l2.014-1.084v-1.302l-.543.271v-9.649l.435-.271v-1.355z" fill="none" stroke="#005a9c" stroke-linecap="round" stroke-linejoin="round" stroke-width=".41242"/><path d="m5.923 2.429v1.193l.381-.218v9.922l-.381.162v1.355l1.796-.813v-1.192l-.273.108v-4.988l.708 5.856.926-.271v-11.005l.435-.163v-1.301l-1.579.596v1.193l.327-.163v4.825l-.925-5.583z" fill="#fff"/><path d="m5.923 2.429v1.193l.381-.218v9.922l-.381.162v1.355l1.796-.813v-1.192l-.273.108v-4.988l.708 5.856.926-.272v-11.004l.435-.163v-1.301l-1.579.596v1.193l.327-.163v4.825l-.925-5.583z" fill="none" stroke="#005a9c" stroke-linecap="round" stroke-linejoin="round" stroke-width=".41242"/><path d="m9.896 1.67v10.626l.599.813 1.633-.38.709-.759v-2.005l-1.091.054v1.518l-.706.271v-9.758l.871-.108v1.029l.98-.054v-1.789l-.491-.65-1.851.271z" fill="#fff"/><path d="m9.896 1.67v10.626l.599.813 1.633-.38.709-.759v-2.005l-1.09.054v1.518l-.707.271v-9.758l.871-.108v1.029l.98-.054v-1.789l-.491-.65-1.851.271z" fill="none" stroke="#005a9c" stroke-linecap="round" stroke-linejoin="round" stroke-width=".41242"/><path d="m13.326.261v1.084l.326-.054v9.919h-.436v1.247l2.069-.052v-1.139l-.544-.056v-9.811h.544v-1.138z" fill="#fff"/><path d="m13.326.261v1.084l.326-.054v9.919h-.435v1.247l2.068-.052v-1.139l-.544-.056v-9.811h.544v-1.138z" fill="none" stroke="#005a9c" stroke-linecap="round" stroke-linejoin="round" stroke-width=".41242"/><path d="m15.829.261v.867h.437v10.138h-.545v1.084h1.797v-.976h-.436v-5.313l.925 6.289h1.036v-11.005h.489v-1.139h-1.633v.976h.272v4.825l-.871-5.746z" fill="#fff"/><path d="m15.829.261v.867h.437v10.138h-.545v1.084h1.797v-.976h-.436v-5.313l.925 6.289h1.036v-11.005h.489v-1.139h-1.633v.976h.272v4.825l-.871-5.746z" fill="none" stroke="#005a9c" stroke-linecap="round" stroke-linejoin="round" stroke-width=".41242"/><path d="m19.967.369v.976l.49.163v9.92l-.49-.054v1.139l1.688.271v-1.086l-.272-.107v-4.933l.871 6.18 1.033.325v-11.168l.491.164v-1.194l-1.742-.325v1.03l.381.109v4.933l-.925-6.072z" fill="#fff"/><path d="m19.967.369v.976l.49.162v9.921l-.49-.054v1.139l1.688.271v-1.086l-.272-.107v-4.933l.871 6.18 1.034.325v-11.168l.49.164v-1.194l-1.742-.325v1.03l.381.109v4.933l-.925-6.072z" fill="none" stroke="#005a9c" stroke-linecap="round" stroke-linejoin="round" stroke-width=".41242"/><path d="m28.623 2.863v3.199l.871.542v-1.844l.381.163v9.758l-.49-.217v1.41l1.797 1.083v-1.409l-.273-.216v-9.596l.436.218v1.842l.762.596v-3.144z" fill="#fff"/><path d="m28.623 2.863v3.199l.871.542v-1.844l.381.163v9.758l-.49-.217v1.41l1.797 1.083v-1.409l-.273-.216v-9.596l.436.218v1.842l.762.596v-3.144z" fill="none" stroke="#005a9c" stroke-linecap="round" stroke-linejoin="round" stroke-width=".41242"/><path d="m32.706 5.682v1.355l.381.217v9.757l-.49-.378v1.409l1.688 1.355v-1.68l-.218-.162v-9.379l.381.325v-1.41z" fill="#fff"/><path d="m32.706 5.682v1.355l.381.217v9.757l-.49-.378v1.409l1.688 1.355v-1.68l-.218-.163v-9.378l.381.325v-1.41z" fill="none" stroke="#005a9c" stroke-linecap="round" stroke-linejoin="round" stroke-width=".41242"/><path d="m12.428 33.433.004.55.306-.001 1.358 1.781.011 2.032-.367.002.004.712 2.205-.012-.005-.631-.427.003-.012-2.014 1.131-1.957.225-.001-.003-.51-1.204.008-.909 1.592-.827-1.542z" fill="#fff"/><path d="m12.428 33.433.004.55.306-.001 1.358 1.781.011 2.032-.367.002.004.712 2.205-.012-.005-.631-.427.003-.012-2.014 1.131-1.957.225-.001-.003-.51-1.204.008-.909 1.592-.827-1.542z" fill="none" stroke="#005a9c" stroke-linecap="round" stroke-linejoin="round" stroke-width=".41242"/><path d="m22.677 33.436.003.61.306-.002.022 3.782-.327.001.004.671 3.96-.022-.008-1.525-1.082.006.006.976-1.205.007-.021-3.883.285-.002-.004-.61z" fill="#fff"/><path d="m22.677 33.436.003.61.306-.002.022 3.782-.327.001.004.671 3.96-.022-.008-1.525-1.082.006.006.976-1.205.007-.021-3.883.285-.002-.004-.61z" fill="none" stroke="#005a9c" stroke-linecap="round" stroke-linejoin="round" stroke-width=".41242"/><path d="m27.35559 34.12106s.00669 1.11872.00781 1.36222a.65377.65377 0 0 0 .67682.58539c.42847-.00245 1.14328-.0069 1.40882-.00733.26574-.00223.38913.28223.39114.52619.00067.24325.00449.77166.00516.9346a.38711.38711 0 0 1 -.36524.42913c-.28521.00113-.42825.00248-.63278.00379-.20382.00088-.30777-.22168-.30911-.64905l-1.06216.00647s.00537 1.01654.00448.7926c-.00067-.2239-.1607.50907.473.50592.63187-.00467 1.87732-.01043 2.24546-.0129a.75682.75682 0 0 0 .75079-.696c-.0018-.38663-.00717-1.402-.01029-1.74792-.00158-.34568-.12628-.71094-.98391-.706-.85721.00513-.93878.00556-1.16254.00644-.22552.00134-.4108-.22147-.41214-.6279-.00293-.406-.00293-.34543-.00449-.56891-.00088-.22393.18329-.24572.388-.24664.20385-.00043.61108-.00266.79525-.004.18375-.00067.26691.24219.26914.587l1.10214-.00556s-.002-.36593-.00357-.67087c-.00244-.30447-.12473-.46652-.555-.46429-.42826.00223-1.79639.01089-2.12274.012-.32654.00245-.89808-.0354-.894.6557" fill="#fff"/><path d="m27.35559 34.12106s.00672 1.11869.00781 1.36222a.65383.65383 0 0 0 .67682.58539c.4285-.00245 1.14328-.0069 1.40882-.00736.26577-.00223.38916.28223.39117.52619.00067.24328.00446.77169.00513.93463a.3871.3871 0 0 1 -.36521.42913c-.28521.0011-.42828.00245-.63278.00379-.20385.00088-.3078-.22171-.30914-.64905l-1.06213.00644s.00537 1.01654.00445.79263c-.00067-.22393-.1607.509.473.50592.6319-.00467 1.87732-.01046 2.24546-.0129a.75682.75682 0 0 0 .75079-.696c-.00177-.38663-.00714-1.402-.01029-1.748-.00155-.34565-.12628-.71091-.98391-.706-.85718.00513-.93878.00559-1.16251.00647-.22552.00134-.41083-.22147-.41217-.6279-.0029-.406-.0029-.34546-.00445-.56894-.00092-.2239.18325-.24573.388-.24661.20385-.00046.61111-.00269.79528-.004.18372-.00067.26688.24216.26911.587l1.10216-.00561s-.002-.36593-.00357-.67087c-.00247-.3045-.12473-.46655-.555-.46432-.42826.00223-1.79642.01092-2.12274.012-.32659.00246-.89813-.03538-.8941.65575z" fill="none" stroke="#005a9c" stroke-linecap="round" stroke-linejoin="round" stroke-width=".41242"/><path d="m25.79166 10.12665.43609-4.554.54383 4.87921zm2.17731 3.578-1.08719-10.40814.48925.10773v-1.24536l-2.2868-.81354v1.35466l.43564.10907-.92557 9.59552-.3811-.16314v1.19281l1.74231.65014v-1.13829l-.32633-.16248.05454-1.40939 1.08786.21655.1102 1.6803-.43677-.16226v1.301l1.74209.704.05475-1.29944z" fill="#fff"/><path d="m25.79169 10.12665.43606-4.554.54383 4.87924zm2.17728 3.578-1.08719-10.40817.48928.10773v-1.24533l-2.2868-.81354v1.35466l.43564.10907-.9256 9.59552-.3811-.16314v1.19281l1.74234.65017v-1.13832l-.32636-.16251.05454-1.40939 1.08786.21658.1102 1.68027-.43678-.16226v1.301l1.74206.704.05478-1.29944z" fill="none" stroke="#005a9c" stroke-linecap="round" stroke-linejoin="round" stroke-width=".41242"/><path d="m10.67755 37.83508-1.40837.00867-.02168-3.74093 1.4086.03271zm1.02014-3.584a.81187.81187 0 0 0 -.84176-.86917c-.469.0029-1.53066.00845-1.857.01068-.32657.00156-.79506.18741-.79305.61456 0 0 .01856 3.27307.02124 3.63788.00246.36682.16831.81332.67838.81043.51028-.00379 1.73515-.01 2.10194-.01316a.68347.68347 0 0 0 .71079-.755c-.0237-.50818-.017-2.88712-.02056-3.43625" fill="#fff"/><path d="m10.67757 37.83505-1.40839.0087-.02168-3.741 1.4086.03275zm1.02012-3.584a.81184.81184 0 0 0 -.84176-.86917c-.46894.00287-1.53064.00845-1.857.01068-.32655.00156-.795.18741-.793.61453 0 0 .01855 3.27307.02122 3.63788.00246.36682.16832.81332.67838.81042.5103-.00378 1.73517-.01 2.102-.01312a.68349.68349 0 0 0 .71078-.755c-.02374-.50816-.01705-2.88713-.02062-3.43627z" fill="none" stroke="#005a9c" stroke-linecap="round" stroke-linejoin="round" stroke-width=".41242"/><path d="m18.83885 36.91474.51767-2.1782.66631 2.17127zm2.61785 1.02117-1.59659-4.42157-1.14311.00556-1.2208 4.31741-.49.00223.00336.71161 2.02216-.01135-.00336-.65018-.26554.00113.01789-.46832 1.3668-.00733.12584.52683-.388.00357.00447.67041 1.87776-.01044-.00379-.67175z" fill="#fff"/><path d="m18.83887 36.9147.51767-2.17819.6663 2.1713zm2.61783 1.02121-1.59659-4.4216-1.143.00559-1.22091 4.31741-.48994.00223.00335.71158 2.02216-.01135-.00336-.65015-.26553.0011.01787-.46829 1.3668-.00736.12584.52686-.388.00357.00447.67041 1.87776-.01047-.0038-.67175z" fill="none" stroke="#005a9c" stroke-linecap="round" stroke-linejoin="round" stroke-width=".41242"/><path d="m6.0112 35.70651-1.10306.00711-.00984-1.82473v-.02558s.81651-.02472 1.08138-.02694c.26576-.00068.39026.30359.39026.30359s.00558.97537.00648 1.27941c.00134.30561-.36522.28714-.36522.28714m1.21616 2.14856-1.009-1.49795.55164-.004a.50171.50171 0 0 0 .56817-.51169c.01744-.56872.0123-1.52426-.00982-1.82941-.02192-.30517-.06572-.85382-.86234-.84939-.79639.00491-3.02127.05856-3.02127.05856l.00334.62989.36746-.00287.02236 3.84332-.30644.00223.00425.75165 1.81742-.01069-.00336-.65106-.38847.00269-.0076-1.32105 1.19581 2.04666 1.34735-.008-.0038-.65015z" fill="#fff"/><path d="m6.0112 35.70648-1.10306.00714-.00982-1.82473v-.02561s.81649-.02472 1.08137-.02691c.26576-.00068.39026.30359.39026.30359s.00559.97534.00649 1.27938c.00132.30566-.36524.28714-.36524.28714zm1.21616 2.14859-1.009-1.498.55164-.004a.50175.50175 0 0 0 .56819-.51172c.01742-.56869.01228-1.52423-.00984-1.82941-.0219-.30514-.06572-.85382-.86232-.84936-.79641.00488-3.02129.05853-3.02129.05853l.00336.62992.36746-.0029.02244 3.84334-.30644.00223.00424.75168 1.81742-.01072-.00336-.651-.38846.00266-.00761-1.321 1.19576 2.04658 1.34737-.008-.0038-.65018z" fill="none" stroke="#005a9c" stroke-linecap="round" stroke-linejoin="round" stroke-width=".41242"/><path d="m17.00971 34.28064a9.28 9.28 0 1 0 -9.31865-9.27964 9.29982 9.29982 0 0 0 9.31865 9.27966" fill="#fff"/><path d="m17.00971 34.28064a9.28 9.28 0 1 0 -9.31864-9.27964 9.29983 9.29983 0 0 0 9.31864 9.27964z" fill="none" stroke="#005a9c" stroke-linecap="round" stroke-linejoin="round" stroke-width=".41242"/><path d="m17.38928 15.69312c-.14082-.00644-.28343-.00977-.42625-.00977a9.31926 9.31926 0 0 0 -8.9 6.52142.58059.58059 0 0 0 .54292.03873c.295-.13443.58919-.56024.7233-.53375.13343.02649.1607.42691.29527.48077.13388.053.2937-.23993.37416-.18786a5.24362 5.24362 0 0 0 1.33977.90814c.37506.05231.72329.02649.85673-.13443.135-.16-.32164-.32007-.18663-.98673.13321-.66729-.02749-2.13342 1.76756-2.00076 0 0 .07981-.71963.37485-.85293a1.17616 1.17616 0 0 1 1.15111.1856s.40233-.7463 1.01834-.479c.61713.26642.80354 1.1463 1.07176 1.25378.26845.10575.7499.24.99085-.18808.24095-.42556-.18753-.77233-.37506-.90655-.18753-.13266-.91106-.26578-1.04494-.79953-.13321-.53354.295-1.12091.45575-1.38757.16093-.26688-.0295-.92151-.0295-.92151" fill="#005a9c"/><path d="m17.71866 23.89874c.36142-.13687.43562-.8182.1674-1.51843-.26844-.6998-.78007-1.15564-1.14172-1.01855-.36121.13669-.43631.81732-.16719 1.51779.26845.70047.77917 1.15655 1.14151 1.01919" fill="#fff"/><path d="m17.71866 23.89874c.36142-.1369.43564-.8182.16742-1.51846-.26845-.6998-.78008-1.15564-1.14172-1.01852-.36121.13665-.43631.81732-.16719 1.51779.26843.70045.77917 1.15652 1.14149 1.01919z" fill="none" stroke="#005a9c" stroke-linecap="round" stroke-linejoin="round" stroke-width=".41242"/><path d="m17.60605 21.8161c-.26622-.37146-.59634-.56869-.85094-.47207-.27023.1026-.38064.51126-.30554 1.00427a1.10238 1.10238 0 0 0 .72821-.0249 1.09161 1.09161 0 0 0 .42827-.5073" fill="#005a9c"/><path d="m22.09732 22.3772c.34018-.18472.3223-.86829-.03845-1.52625-.36165-.6575-.92894-1.04123-1.26958-.85672-.34.185-.32187.86832.03978 1.52628.36077.65948.92894 1.04233 1.26825.85669" fill="#fff"/><path d="m22.09732 22.3772c.34018-.18475.3223-.86829-.03845-1.52625-.36165-.6575-.92892-1.04123-1.26956-.85672-.34.185-.32187.86829.03978 1.52625.36076.65952.92891 1.04236 1.26823.85672z" fill="none" stroke="#005a9c" stroke-linecap="round" stroke-linejoin="round" stroke-width=".41242"/><path d="m21.707 20.308c-.30935-.31827-.65312-.46161-.88849-.33365-.24408.13357-.30375.52618-.18194.98382a2.03932 2.03932 0 0 0 .58293-.13888 1.9667 1.9667 0 0 0 .4875-.51129" fill="#005a9c"/><path d="m17.01712 20.50876s-.5094-.90588-1.33932-.53241a2.05217 2.05217 0 0 0 -.48235 3.01334s-.679-2.16486.56236-2.64051a1.38426 1.38426 0 0 1 1.25931.15958" fill="#005a9c"/><path d="m19.45487 19.28259a1.65531 1.65531 0 0 1 .77649-1.38757c.77694-.39929 1.795.45386 2.46447 1.3602 0 0-1.55432-1.33371-2.11691-1.12024a2.52067 2.52067 0 0 0 -1.12405 1.14761" fill="#005a9c"/><path d="m19.9906 19.789a3.40653 3.40653 0 0 0 2.49109 3.65457s.56217 1.01407-.88444 1.84055c0 0-.37507-.08014-1.15134-.24-.77716-.15958-1.58049.21347-1.66118-.45294-.08069-.668.2148-.80042.45575-.80042s.58942.02561.58942.02561m-1.68778-.319s.0266.82577-1.42023 1.11935" fill="none" stroke="#005a9c" stroke-linecap="round" stroke-linejoin="round" stroke-width=".41242"/><path d="m19.40116 25.07019.24093.32031a4.35839 4.35839 0 0 1 1.52686.05387l.21389 1.36108-.07957-1.49484a4.12416 4.12416 0 0 0 -1.90211-.24042" fill="#005a9c"/><path d="m21.81181 23.15067a2.92636 2.92636 0 0 0 1.79485-.93442m.53577 3.4407a1.39167 1.39167 0 0 1 .50851 1.22776m-9.02652-1.3068s-1.07176-.10751-.6967 1.67963m5.57094-3.20075s.4021.82779 1.07132.72074" fill="none" stroke="#005a9c" stroke-linecap="round" stroke-linejoin="round" stroke-width=".41242"/><path d="m20.12409 30.1117a1.34065 1.34065 0 0 0 2.00918-.0532" fill="none" stroke="#005dac" stroke-linecap="round" stroke-linejoin="round" stroke-width=".41242"/><path d="m15.62451 26.53815a12.79656 12.79656 0 0 1 2.625 1.67984 4.75416 4.75416 0 0 0 2.81275 1.44076c.74966-.0267 1.82077-1.30655 1.90167-2.21423a11.71477 11.71477 0 0 0 1.20474-.87942 13.0261 13.0261 0 0 1 -3.56216 1.09332 9.01352 9.01352 0 0 1 -4.90221-1.17322z" fill="#005a9c"/><path d="m18.14212 27.76569s.37506 1.01922 2.67818.90548c1.63435-.07879 1.84868-1.17279 1.84868-1.17279a9.61912 9.61912 0 0 1 -2.0085.4267c-.77739.02692-2.51836-.15939-2.51836-.15939" fill="#fff"/><path d="m24.03476 18.85593a11.7232 11.7232 0 0 1 1.60843 4.80107 9.548 9.548 0 0 1 -.50961 3.97489c-.40168 1.19949-2.38382 4.88144-5.33043 6.054m-8.117-9.78851a5.12924 5.12924 0 0 0 .02749 2.00034 10.72519 10.72519 0 0 0 2.24993 4.2413 15.10638 15.10638 0 0 0 5.00875 3.73498 16.09489 16.09489 0 0 0 1.98238-2.56127" fill="none" stroke="#005a9c" stroke-linecap="round" stroke-linejoin="round" stroke-width=".41242"/><path d="m6.784 16.428.884 1.574.857.106.778-1.519 1.875.026 1.258-2.027 1.661.025.697-1.706-.429-.933-.777.425-1.473-3.093-.401.08-.322-.747-.295.134-.349-.8h-1.017l.053.213-.321.213.296.668-.296.185 1.715 3.229-1.019.239-.267-.506-.563.239-.134-.319-.375.159-.455-.026-.028-.454.108-.16-.08-.186-.267.053-1.072-.694-.081 1.094-.241.16.08.187.135-.053.321.479-.375.32.455.64-.16.081.401.934-.884.426.59 1.067z" fill="#005a9c"/><path d="m6.784 16.428.884 1.574.857.106.778-1.519 1.875.026 1.258-2.027 1.661.025.697-1.706-.429-.933-.777.425-1.473-3.093-.401.08-.322-.747-.295.134-.349-.8h-1.017l.053.213-.321.213.296.667-.296.186 1.715 3.229-1.019.239-.267-.506-.563.239-.134-.319-.375.159-.455-.026-.028-.454.108-.16-.08-.186-.267.053-1.072-.694-.081 1.094-.241.16.08.187.135-.053.321.479-.375.32.455.64-.16.081.401.934-.884.426.59 1.067z" fill="none" stroke="#005a9c" stroke-linecap="round" stroke-linejoin="round" stroke-width=".41242"/><path d="m8.654 14.148-.381-.735-.833.428.38.734z" fill="#fff"/><path d="m8.941 17.046-.884-1.708-.738.38.883 1.706z" fill="#fff"/><path d="m11.529 16.307-1.668-3.224-.453.232 1.669 3.224z" fill="#fff"/><path d="m12.178 16.411-1.594-3.081-.668.34 1.596 3.084z" fill="#fff"/><path d="m12.41 13.317-.466-.901-.905.465.466.901z" fill="#fff"/><path d="m12.253 12.074-1.19-2.3-.881.452 1.191 2.3z" fill="#fff"/><path d="m15.253 14.384-.871-1.683-1.333.684.871 1.683z" fill="#fff"/><path d="m5.463 17.49573s1.46448 1.10156 1.9285 1.42255a19.24907 19.24907 0 0 1 1.5 1.31521 7.81133 7.81133 0 0 0 3.82147-1.494 8.91833 8.91833 0 0 0 2.96472-2.77359 11.68587 11.68587 0 0 1 -.2148-4.48169 9.33119 9.33119 0 0 0 -1.60685 2.80988l-1.64263-.07056-1.28541 2.0627-1.82235-.10723-.71391 1.63531a14.23429 14.23429 0 0 0 -2.92874-.31858" fill="#fff"/><path d="m5.463 17.49573s1.46448 1.10156 1.9285 1.42251a19.25653 19.25653 0 0 1 1.5 1.31525 7.81118 7.81118 0 0 0 3.82146-1.494 8.91844 8.91844 0 0 0 2.96474-2.77359 11.68566 11.68566 0 0 1 -.2148-4.48169 9.33073 9.33073 0 0 0 -1.60687 2.80988l-1.64263-.07056-1.2854 2.0627-1.82233-.1073-.71391 1.63531a14.235 14.235 0 0 0 -2.92876-.31851z" fill="none" stroke="#005a9c" stroke-linecap="round" stroke-linejoin="round" stroke-width=".41242"/><g fill="#005a9c"><path d="m8.91159 18.12885a.24791.24791 0 0 0 -.314-.00644.32815.32815 0 0 0 .34242.55911.26516.26516 0 0 0 .11824-.32852l.10617-.06366a.38964.38964 0 0 1 -.19133.48434.42429.42429 0 1 1 -.42512-.73407.3514.3514 0 0 1 .47162.02494z"/><path d="m9.25068 17.67217h.12833v.80567h-.12833z" transform="matrix(.85531941 -.51810105 .51810105 .85531941 -8.017 7.44113)"/><path d="m9.891 17.262.107-.065.415.69-.124.075-.749-.31-.003.002.337.557-.108.063-.416-.689.131-.078.744.312h.002z"/><path d="m10.86734 16.96a.24886.24886 0 0 0 -.31471-.00644.32753.32753 0 0 0 .34219.5578.26218.26218 0 0 0 .1178-.32742l.10773-.06433a.38882.38882 0 0 1 -.19245.48456.39855.39855 0 0 1 -.58851-.14713.40311.40311 0 0 1 .16316-.58673.35093.35093 0 0 1 .47208.02561z"/><path d="m11.534 17.218-.111.065-.416-.689.111-.066z"/><path d="m11.846 16.092.106-.064.416.69-.123.075-.75-.31-.003.002.337.557-.108.064-.416-.691.131-.077.744.312.002-.001z"/><path d="m12.666 15.602.107-.063.416.689-.125.074-.75-.309-.003.001.337.557-.107.064-.416-.69.13-.078.744.314.003-.001z"/><path d="m13.69507 15.65241.20206.15155.12-.07145-.711-.51239-.12561.0737.11109.87385.11242-.069-.0362-.25128zm-.34219.09167-.05277-.38016.0018-.00177.30376.231z"/><path d="m13.495 15.106.662-.396.051.083-.277.164.367.607-.11.067-.366-.607-.277.165z"/><path d="m14.803 15.263-.11.066-.416-.69.11-.065z"/><path d="m10.26781 19.1575.26732-.16046c.13075-.07812.18463-.01959.219.03629a.82741.82741 0 0 0 .1236.16134l.135-.07989-.00894-.016c-.0436.00445-.05947-.00757-.08315-.04474l-.08182-.12131a.14237.14237 0 0 0 -.1759-.071.19809.19809 0 0 0 .01408-.23282c-.08851-.14557-.24632-.105-.38064-.024l-.376.22394.41551.69067.10976-.06613zm-.18932-.31451.274-.16336c.05522-.03293.152-.07947.2166.02737.06169.1015-.01386.16895-.09477.21747l-.25437.15314z"/><path d="m11.665 18.25491a.46554.46554 0 1 0 -.17813.6012.42265.42265 0 0 0 .17813-.6012m-.11442.06833a.30873.30873 0 0 1 -.1149.45053.312.312 0 0 1 -.45239-.11041.33074.33074 0 0 1 .56729-.34012"/><path d="m12.272 18.362-.111.066-.167-.278-.556-.229.128-.075.434.19.033-.471.13-.076-.058.595z"/><path d="m12.891 17.7186.20162.15246.12046-.07257-.71167-.51214-.12561.07434.11065.87253.11309-.06812-.03576-.25064zm-.34286.09213-.05231-.38125.002-.00181.30353.23151z"/><path d="m13.375 17.59.413-.247.049.083-.523.312-.416-.689.111-.066z"/><path d="m14.1424 16.57923c-.07019-.10395-.19469-.075-.28633-.01957-.07041.04071-.17681.12754-.11333.23215.03509.05875.09544.04941.14886.02939l.26062-.09326a.22459.22459 0 0 1 .29572.07321c.099.16293-.05386.31586-.1929.39975a.42513.42513 0 0 1 -.28655.081.231.231 0 0 1 -.18843-.12552l.1026-.06231c.07645.12509.2186.0899.32254.02713.08046-.047.20294-.144.14372-.24262-.04336-.07254-.097-.07254-.24722-.01867l-.1864.06631c-.06013.02161-.19916.06232-.27158-.05786-.06482-.1073-.04626-.26267.1511-.38083.28566-.16983.401-.04275.4515.03024z"/></g></svg>