<svg version="1.1" id="Layer_1" xmlns="http://www.w3.org/2000/svg" xmlns:xlink="http://www.w3.org/1999/xlink" x="0px" y="0px"
	 width="100%" viewBox="0 0 2300 1330" enable-background="new 0 0 2300 1330" xml:space="preserve">
<path fill="none" opacity="1.000000" stroke="none"
	d="
M1447.000000,1331.000000 
	C964.666687,1331.000000 482.833344,1331.000000 1.000000,1331.000000 
	C1.000000,887.666687 1.000000,444.333344 1.000000,1.000000 
	C767.666687,1.000000 1534.333374,1.000000 2301.000000,1.000000 
	C2301.000000,444.333344 2301.000000,887.666687 2301.000000,1331.000000 
	C2016.500000,1331.000000 1732.000000,1331.000000 1447.000000,1331.000000 
M161.792618,1303.989502 
	C171.564484,1298.652832 181.330124,1293.304810 191.109406,1287.981812 
	C217.684982,1273.516602 244.223663,1258.982788 270.857941,1244.626587 
	C295.818024,1231.172852 320.843475,1217.839233 345.911133,1204.586792 
	C368.248657,1192.777710 390.637299,1181.063110 413.086700,1169.468384 
	C440.345428,1155.389648 467.592590,1141.282837 495.024200,1127.546631 
	C531.101624,1109.480957 567.341675,1091.739502 603.535156,1073.906128 
	C628.552673,1061.579468 653.540894,1049.190552 678.667053,1037.088623 
	C707.447571,1023.226562 736.361450,1009.641357 765.226868,995.955811 
	C780.777466,988.583008 796.347778,981.251831 812.524963,974.197815 
	C817.526184,978.808228 822.543884,983.400879 827.525574,988.032349 
	C841.987000,1001.477478 856.209839,1015.189636 870.946716,1028.325195 
	C887.242493,1042.850220 903.797913,1057.101685 920.618103,1071.015503 
	C938.954773,1086.183960 957.381531,1101.285156 976.396606,1115.580933 
	C998.171692,1131.951782 1020.257996,1147.970825 1042.894409,1163.118530 
	C1074.090698,1183.994141 1105.984131,1203.825684 1137.409302,1224.364136 
	C1140.649170,1226.481689 1142.682251,1225.380859 1145.013916,1223.946045 
	C1161.351440,1213.892578 1177.823730,1204.040894 1193.888184,1193.565186 
	C1217.019409,1178.481323 1240.064209,1163.243164 1262.728394,1147.471069 
	C1282.935059,1133.409058 1302.981445,1119.051880 1322.361938,1103.883911 
	C1346.825317,1084.737793 1370.804932,1064.947266 1394.497681,1044.850586 
	C1413.555664,1028.685303 1432.322510,1012.118347 1450.399658,994.871338 
	C1468.449219,977.650696 1485.688232,959.560486 1502.892578,941.480286 
	C1516.368774,927.317871 1529.553223,912.850525 1542.315063,898.042725 
	C1557.089111,880.900391 1571.721313,863.595215 1585.571167,845.707275 
	C1601.945557,824.558472 1617.868164,803.024597 1633.146118,781.072693 
	C1646.555054,761.806458 1659.419922,742.098999 1671.416504,721.927185 
	C1688.499878,693.202393 1704.821411,664.013672 1720.967285,634.746704 
	C1729.209961,619.805664 1736.360596,604.262268 1744.767578,588.973083 
	C1774.974121,577.987061 1805.135010,566.873413 1835.400635,556.052612 
	C1862.905762,546.218933 1890.449341,536.482117 1918.111572,527.102295 
	C1955.667114,514.367798 1993.308716,501.882812 2030.992676,489.532227 
	C2071.467529,476.266937 2112.011963,463.211731 2152.572754,450.210815 
	C2167.165527,445.533356 2181.918945,441.360291 2196.553467,436.809692 
	C2209.680176,432.727966 2222.744141,428.443909 2236.926758,423.899567 
	C2235.349365,423.392578 2234.804688,423.036102 2234.295410,423.081177 
	C2227.434082,423.688171 2220.579834,424.371704 2213.719727,424.994720 
	C2205.853027,425.709137 2197.974609,426.304260 2190.115234,427.090729 
	C2177.704590,428.332733 2165.307373,429.707581 2152.900879,430.993744 
	C2145.869629,431.722656 2138.818359,432.272369 2131.800293,433.107361 
	C2121.716064,434.307098 2111.659668,435.738953 2101.580811,436.986389 
	C2092.624023,438.094971 2083.634033,438.951263 2074.692383,440.165863 
	C2063.830566,441.641205 2053.011719,443.431152 2042.159546,444.983124 
	C2029.673462,446.768768 2017.145752,448.277679 2004.683228,450.210236 
	C1991.281494,452.288452 1977.933105,454.712219 1964.563477,456.997253 
	C1949.583496,459.557495 1934.590454,462.045624 1919.631714,464.725220 
	C1906.772827,467.028717 1893.941040,469.490662 1881.120605,472.001923 
	C1860.122559,476.114960 1839.137573,480.294952 1818.159058,484.506622 
	C1807.760498,486.594238 1797.388794,488.815430 1787.280640,490.305695 
	C1794.377563,471.486420 1801.762817,452.769501 1808.491455,433.819397 
	C1815.438843,414.253113 1821.747925,394.460144 1829.091431,374.810333 
	C1835.018799,373.717804 1840.947632,372.633514 1846.873047,371.531189 
	C1860.331787,369.027374 1873.778564,366.458801 1887.249268,364.021698 
	C1899.916748,361.729950 1912.601929,359.534210 1925.291504,357.367950 
	C1937.998291,355.198761 1950.717407,353.102997 1963.435913,351.003235 
	C1976.144897,348.905090 1988.863647,346.865601 2001.571045,344.757263 
	C2017.012451,342.195282 2032.443359,339.570526 2047.884399,337.006195 
	C2059.794922,335.028198 2071.706055,333.050537 2083.631836,331.166779 
	C2094.932861,329.381653 2106.246826,327.676208 2117.566895,326.013855 
	C2129.859131,324.208710 2142.176025,322.568634 2154.461670,320.719849 
	C2168.826904,318.558105 2183.160400,316.186707 2197.525146,314.022064 
	C2209.866699,312.162292 2222.232666,310.465515 2235.786133,308.525146 
	C2233.814941,307.705383 2232.996094,307.105255 2232.141602,307.048798 
	C2221.117432,306.320831 2210.090332,305.637634 2199.060059,305.008972 
	C2186.704102,304.304688 2174.347412,303.592957 2161.984863,303.019714 
	C2145.964844,302.276886 2129.940186,301.615143 2113.913818,301.018799 
	C2102.487549,300.593628 2091.056885,300.229095 2079.624756,300.022278 
	C2057.030518,299.613525 2034.434204,299.094452 2011.838135,299.072083 
	C1992.579834,299.053040 1973.320801,299.660919 1954.062256,300.001404 
	C1935.633301,300.327209 1917.204712,300.669342 1898.775757,300.997711 
	C1882.850830,301.281464 1866.925781,301.556000 1851.012817,301.054718 
	C1856.400513,280.290344 1861.662109,259.491638 1867.300781,238.795685 
	C1868.235962,235.363464 1867.442505,234.120651 1864.551514,232.733353 
	C1849.436401,225.479965 1834.474854,217.904236 1819.325073,210.725250 
	C1794.019165,198.733582 1768.802124,186.525436 1743.192627,175.212204 
	C1717.478394,163.852646 1691.419678,153.253860 1665.351807,142.717880 
	C1623.453857,125.783813 1580.683472,111.343887 1537.323120,98.612373 
	C1491.838135,85.257011 1445.903442,73.789116 1399.134766,65.957115 
	C1369.234497,60.949951 1339.267090,56.276371 1309.231934,52.168419 
	C1291.417847,49.731949 1273.431274,48.453312 1255.489746,47.080715 
	C1238.328613,45.767838 1221.130859,44.890228 1203.938232,44.045109 
	C1192.664307,43.490929 1181.369141,43.007565 1170.086304,43.063381 
	C1140.134766,43.211544 1110.184082,43.618736 1080.234741,44.039825 
	C1072.780029,44.144638 1065.318237,44.517651 1057.882568,45.072289 
	C1041.733643,46.276852 1025.596924,47.650322 1009.459717,49.008259 
	C997.769348,49.991997 986.054749,50.793064 974.408020,52.161858 
	C960.168518,53.835392 945.962769,55.848251 931.789368,58.020569 
	C912.726318,60.942310 893.537048,63.362675 874.708130,67.419395 
	C841.021179,74.677299 807.457642,82.577499 774.033813,90.971146 
	C724.412659,103.432396 675.874146,119.582802 628.449097,138.596756 
	C581.911011,157.255112 536.061462,177.675369 490.257599,198.102448 
	C466.307159,208.783585 443.127808,221.189133 419.535309,232.682693 
	C416.431213,234.194931 415.604034,235.765671 416.499084,239.227859 
	C420.505188,254.723694 423.902893,270.379486 428.044952,285.836945 
	C438.212341,323.779694 447.568970,361.990509 459.333344,399.439575 
	C470.079224,433.646515 483.039032,467.196167 496.010590,500.652618 
	C504.979218,523.784668 515.548401,546.300354 525.561279,569.021484 
	C529.835327,578.719910 534.514160,588.239990 538.351501,598.177002 
	C521.793640,605.356995 505.185638,612.423889 488.690063,619.744263 
	C465.458344,630.054077 442.210785,640.337891 419.153961,651.029480 
	C396.192871,661.676758 373.397705,672.688477 350.647308,683.781311 
	C335.848206,690.997314 321.227844,698.583313 306.583832,706.113159 
	C286.672089,716.351685 266.650116,726.392517 246.973206,737.067078 
	C220.165543,751.609985 193.579971,766.566284 167.012360,781.546082 
	C149.542160,791.396423 132.169388,801.429260 114.938568,811.691956 
	C95.485588,823.278076 76.228157,835.193115 56.916267,847.015015 
	C53.259571,849.253540 49.745857,851.725586 46.166183,854.089905 
	C48.115238,854.428528 49.348671,853.628723 50.696167,853.150024 
	C82.870651,841.719604 115.048027,830.297180 147.244858,818.929993 
	C171.785324,810.265869 196.240891,801.341919 220.931442,793.126282 
	C280.193390,773.406921 339.557281,753.993347 398.909546,734.546570 
	C422.085846,726.952881 445.320465,719.535400 468.567200,712.159546 
	C488.415314,705.861938 508.318848,699.738953 528.055664,694.316101 
	C522.548828,706.191711 517.089478,718.089600 511.524994,729.938110 
	C500.744507,752.893005 489.813354,775.777527 479.114288,798.770142 
	C467.303711,824.151611 455.529572,849.552246 444.023315,875.072449 
	C432.389435,900.875732 420.583313,926.622681 409.854218,952.804810 
	C403.133484,969.205383 398.671051,986.413391 401.993683,1004.579163 
	C405.251862,1022.392639 416.108063,1033.501465 433.054352,1038.382446 
	C446.619598,1042.289429 460.525604,1041.330078 474.224609,1038.371094 
	C495.945709,1033.679443 515.911865,1024.570190 535.305969,1013.972534 
	C540.333618,1011.225159 545.819153,1009.315918 550.807495,1007.659790 
	C546.022034,1010.790894 541.181824,1013.841858 536.459961,1017.066040 
	C501.492310,1040.941772 466.411499,1064.655518 431.648315,1088.825806 
	C410.949463,1103.217407 390.671539,1118.221436 370.370850,1133.176147 
	C352.815918,1146.108154 335.391754,1159.223633 318.106018,1172.513184 
	C304.817200,1182.729858 291.793640,1193.293823 278.726501,1203.795898 
	C267.565033,1212.766357 256.480377,1221.833252 245.414749,1230.921997 
	C234.104889,1240.211182 222.841049,1249.556885 211.592026,1258.919800 
	C203.483795,1265.668579 195.340515,1272.380127 187.381012,1279.301636 
	C178.282166,1287.213867 169.369522,1295.340088 159.938187,1303.697388 
	C159.811417,1304.056396 159.684631,1304.415283 159.557861,1304.774170 
	C160.061050,1304.542358 160.564224,1304.310547 161.792618,1303.989502 
M661.021606,12.597312 
	C662.326904,14.480152 661.325378,18.813583 665.513245,17.645996 
	C672.804810,15.613113 679.967896,13.119583 687.184875,10.819160 
	C679.022034,10.000175 671.090393,9.949990 663.161804,10.080507 
	C662.398071,10.093078 661.652832,11.227998 661.021606,12.597312 
z"/>
<path fill="#012D62" opacity="1.000000" stroke="none" 
	d="
M1828.336304,374.766296 
	C1821.747925,394.460144 1815.438843,414.253113 1808.491455,433.819397 
	C1801.762817,452.769501 1794.377563,471.486420 1786.993164,490.960815 
	C1786.074951,492.764801 1785.342407,493.870087 1784.828247,495.068970 
	C1776.398926,514.726868 1768.061035,534.424194 1759.565308,554.053345 
	C1754.501831,565.752625 1749.199707,577.348694 1744.004883,588.991211 
	C1736.360596,604.262268 1729.209961,619.805664 1720.967285,634.746704 
	C1704.821411,664.013672 1688.499878,693.202393 1671.416504,721.927185 
	C1659.419922,742.098999 1646.555054,761.806458 1633.146118,781.072693 
	C1617.868164,803.024597 1601.945557,824.558472 1585.571167,845.707275 
	C1571.721313,863.595215 1557.089111,880.900391 1542.315063,898.042725 
	C1529.553223,912.850525 1516.368774,927.317871 1502.892578,941.480286 
	C1485.688232,959.560486 1468.449219,977.650696 1450.399658,994.871338 
	C1432.322510,1012.118347 1413.555664,1028.685303 1394.497681,1044.850586 
	C1370.804932,1064.947266 1346.825317,1084.737793 1322.361938,1103.883911 
	C1302.981445,1119.051880 1282.935059,1133.409058 1262.728394,1147.471069 
	C1240.064209,1163.243164 1217.019409,1178.481323 1193.888184,1193.565186 
	C1177.823730,1204.040894 1161.351440,1213.892578 1145.013916,1223.946045 
	C1142.682251,1225.380859 1140.649170,1226.481689 1137.409302,1224.364136 
	C1105.984131,1203.825684 1074.090698,1183.994141 1042.894409,1163.118530 
	C1020.257996,1147.970825 998.171692,1131.951782 976.396606,1115.580933 
	C957.381531,1101.285156 938.954773,1086.183960 920.618103,1071.015503 
	C903.797913,1057.101685 887.242493,1042.850220 870.946716,1028.325195 
	C856.209839,1015.189636 841.987000,1001.477478 827.525574,988.032349 
	C822.543884,983.400879 817.526184,978.808228 812.229736,973.709290 
	C811.827454,972.911255 811.806580,972.520020 811.601257,972.303772 
	C791.230286,950.848450 770.813782,929.436096 750.509277,907.918091 
	C748.444458,905.729797 746.904175,906.598328 744.883606,907.596008 
	C726.695435,916.576355 708.426392,925.394226 690.283752,934.465271 
	C663.807251,947.703003 637.340759,960.964844 611.014648,974.497742 
	C593.673096,983.412109 576.585876,992.821228 559.001343,1002.025513 
	C556.748535,1003.053955 554.879150,1004.065735 553.011353,1005.042725 
	C553.012939,1005.007935 553.077759,1005.033508 552.729248,1005.054565 
	C551.929504,1005.739441 551.478149,1006.403259 551.029297,1007.034424 
	C551.031738,1007.001709 551.094360,1007.021667 551.094360,1007.021667 
	C545.819153,1009.315918 540.333618,1011.225159 535.305969,1013.972534 
	C515.911865,1024.570190 495.945709,1033.679443 474.224609,1038.371094 
	C460.525604,1041.330078 446.619598,1042.289429 433.054352,1038.382446 
	C416.108063,1033.501465 405.251862,1022.392639 401.993683,1004.579163 
	C398.671051,986.413391 403.133484,969.205383 409.854218,952.804810 
	C420.583313,926.622681 432.389435,900.875732 444.023315,875.072449 
	C455.529572,849.552246 467.303711,824.151611 479.114288,798.770142 
	C489.813354,775.777527 500.744507,752.893005 511.524994,729.938110 
	C517.089478,718.089600 522.548828,706.191711 528.302612,693.701050 
	C529.080322,692.525879 529.792114,692.054321 530.115723,691.392822 
	C539.145630,672.930542 548.192139,654.475647 557.024109,635.918701 
	C557.708252,634.481201 557.363098,632.046814 556.606506,630.515381 
	C552.642456,622.491882 548.434082,614.587402 544.218567,606.690674 
	C542.607971,603.673645 540.752747,600.787109 539.009033,597.841125 
	C534.514160,588.239990 529.835327,578.719910 525.561279,569.021484 
	C515.548401,546.300354 504.979218,523.784668 496.010590,500.652618 
	C483.039032,467.196167 470.079224,433.646515 459.333344,399.439575 
	C447.568970,361.990509 438.212341,323.779694 428.044952,285.836945 
	C423.902893,270.379486 420.505188,254.723694 416.499084,239.227859 
	C415.604034,235.765671 416.431213,234.194931 419.535309,232.682693 
	C443.127808,221.189133 466.307159,208.783585 490.257599,198.102448 
	C536.061462,177.675369 581.911011,157.255112 628.449097,138.596756 
	C675.874146,119.582802 724.412659,103.432396 774.033813,90.971146 
	C807.457642,82.577499 841.021179,74.677299 874.708130,67.419395 
	C893.537048,63.362675 912.726318,60.942310 931.789368,58.020569 
	C945.962769,55.848251 960.168518,53.835392 974.408020,52.161858 
	C986.054749,50.793064 997.769348,49.991997 1009.459717,49.008259 
	C1025.596924,47.650322 1041.733643,46.276852 1057.882568,45.072289 
	C1065.318237,44.517651 1072.780029,44.144638 1080.234741,44.039825 
	C1110.184082,43.618736 1140.134766,43.211544 1170.086304,43.063381 
	C1181.369141,43.007565 1192.664307,43.490929 1203.938232,44.045109 
	C1221.130859,44.890228 1238.328613,45.767838 1255.489746,47.080715 
	C1273.431274,48.453312 1291.417847,49.731949 1309.231934,52.168419 
	C1339.267090,56.276371 1369.234497,60.949951 1399.134766,65.957115 
	C1445.903442,73.789116 1491.838135,85.257011 1537.323120,98.612373 
	C1580.683472,111.343887 1623.453857,125.783813 1665.351807,142.717880 
	C1691.419678,153.253860 1717.478394,163.852646 1743.192627,175.212204 
	C1768.802124,186.525436 1794.019165,198.733582 1819.325073,210.725250 
	C1834.474854,217.904236 1849.436401,225.479965 1864.551514,232.733353 
	C1867.442505,234.120651 1868.235962,235.363464 1867.300781,238.795685 
	C1861.662109,259.491638 1856.400513,280.290344 1850.680664,301.627350 
	C1849.363159,305.170990 1848.304688,308.120056 1847.404053,311.116577 
	C1841.030151,332.327728 1834.688354,353.548553 1828.336304,374.766296 
M1328.376831,752.043152 
	C1327.897095,752.359314 1327.417358,752.675537 1327.006348,753.002930 
	C1327.006348,753.002930 1327.019165,752.934570 1326.286011,753.056885 
	C1324.836548,753.700500 1323.387207,754.344116 1322.005005,755.000916 
	C1322.005005,755.000916 1322.017212,754.933533 1321.284058,755.052612 
	C1319.835205,755.697998 1318.386353,756.343384 1317.005371,757.001709 
	C1317.005371,757.001709 1317.018188,756.933716 1316.286621,757.052856 
	C1314.921753,757.368652 1313.557007,757.684509 1311.366089,758.008240 
	C1309.914795,759.195496 1307.194580,760.415649 1307.224365,761.564575 
	C1307.383423,767.714966 1308.228516,773.847534 1308.993164,780.793335 
	C1309.654663,783.789062 1310.366333,786.774719 1310.969849,789.782104 
	C1315.867188,814.188538 1332.741211,829.894714 1355.412476,828.140808 
	C1356.239868,828.076782 1357.185791,829.548218 1357.722290,830.887878 
	C1350.832886,836.107178 1344.106323,841.562256 1337.002197,846.470764 
	C1331.364136,850.366211 1327.243042,857.350708 1318.188110,855.952698 
	C1317.197144,855.144226 1316.284302,854.208008 1315.203247,853.546753 
	C1301.975342,845.455750 1293.077148,833.752747 1286.706665,819.841431 
	C1279.830811,804.827209 1276.874146,788.935303 1275.739624,771.908142 
	C1275.065674,771.631042 1274.276123,770.969421 1273.734253,771.132141 
	C1251.074585,777.936707 1228.487915,784.988953 1205.777466,791.617493 
	C1192.622681,795.456909 1179.273193,798.629150 1165.353516,802.551270 
	C1164.902344,805.980896 1164.254395,809.397949 1164.035645,812.842346 
	C1163.280762,824.725586 1163.090698,836.659668 1161.912231,848.497375 
	C1160.313843,864.553894 1158.457520,880.613403 1155.869141,896.534668 
	C1153.273315,912.502441 1149.106812,928.140381 1141.228760,942.996155 
	C1134.917358,944.665039 1128.639038,946.474670 1122.286621,947.969116 
	C1113.270996,950.090027 1104.200684,951.978760 1094.784790,953.331848 
	C1093.627197,953.137390 1092.469604,952.942932 1090.061523,952.538391 
	C1110.810669,936.907959 1119.466553,915.407349 1123.579956,892.034973 
	C1127.033325,872.412781 1128.788452,852.482971 1131.010986,832.657410 
	C1131.833008,825.325989 1131.842896,817.903503 1132.223755,810.512390 
	C1121.245728,812.424683 1110.957397,814.384949 1100.611816,815.971252 
	C1090.406738,817.536072 1080.167114,818.947021 1069.900269,820.020142 
	C1055.867676,821.486938 1041.799561,822.626892 1027.737427,823.794312 
	C1020.848633,824.366272 1013.938782,824.684082 1006.356812,825.570984 
	C1005.637817,833.690979 1004.918884,841.810974 1004.018555,850.749451 
	C1001.834229,857.503784 1000.053040,864.422729 997.375732,870.975586 
	C992.812256,882.144775 985.321960,891.405640 976.307251,899.849243 
	C974.687317,899.177979 972.658752,898.913818 971.516174,897.766968 
	C965.694336,891.923035 960.012024,885.930664 954.525574,879.772217 
	C953.706360,878.852722 954.183716,876.778015 954.672668,874.893066 
	C966.318298,860.114929 972.195984,843.336426 972.699524,823.999573 
	C969.864563,823.999573 967.574463,824.025146 965.285156,823.994629 
	C958.998840,823.910828 952.708862,823.910950 946.427490,823.681702 
	C935.425781,823.280273 924.171021,820.109558 913.162598,827.009705 
	C897.814392,834.220459 882.466125,841.431152 866.418213,848.968506 
	C841.289246,860.980774 816.160278,872.993103 790.932922,885.052368 
	C798.189331,893.123535 804.816162,901.107239 812.077026,908.465271 
	C844.916748,941.743713 877.810913,974.980530 913.634705,1005.122864 
	C931.532104,1020.181824 949.225708,1035.511475 967.613403,1049.952148 
	C992.207825,1069.267334 1016.835999,1088.626465 1042.456909,1106.524902 
	C1072.869385,1127.770386 1104.370117,1147.456543 1135.337646,1167.911743 
	C1137.894409,1169.600464 1139.692871,1169.570190 1142.329590,1167.931274 
	C1228.919800,1114.110596 1311.131226,1054.419800 1386.905884,986.054749 
	C1481.387451,900.812134 1562.480469,804.423035 1629.056274,695.882568 
	C1711.818481,560.953064 1768.012451,415.016724 1808.957642,262.727905 
	C1809.739868,259.818451 1809.280762,258.416199 1806.429077,256.997681 
	C1681.708496,194.956985 1552.994629,143.954544 1415.872192,116.504913 
	C1385.652466,110.455414 1355.171631,105.505333 1324.640625,101.280312 
	C1299.797119,97.842346 1274.734375,95.739960 1249.703491,93.970757 
	C1222.970581,92.081245 1196.171753,90.606346 1169.382080,90.179779 
	C1140.074951,89.713104 1110.731812,90.218254 1081.429688,91.118546 
	C1058.148438,91.833855 1034.836426,93.082832 1011.662598,95.361275 
	C982.913940,98.187828 954.125610,101.325279 925.660095,106.137169 
	C889.109863,112.315720 852.650757,119.370605 816.536133,127.709930 
	C761.822693,140.343964 708.493042,157.776062 655.946350,177.579590 
	C607.497559,195.838745 560.027405,216.375900 513.296875,238.639526 
	C498.813934,245.539612 484.425262,252.637680 470.016754,259.633789 
	C471.546814,265.988892 472.892334,271.931885 474.415894,277.828888 
	C477.274841,288.894806 480.236694,299.934174 483.048798,311.799042 
	C485.083008,318.536987 487.117249,325.274963 489.022675,331.994934 
	C489.022675,331.994934 489.047333,331.867218 489.024841,332.701050 
	C490.942261,339.341919 492.590973,346.074585 494.822052,352.608337 
	C506.552246,386.960205 517.927856,421.445923 530.430786,455.516693 
	C538.896484,478.586090 548.825012,501.130402 558.484619,523.744995 
	C563.148560,534.664185 568.700378,545.204224 574.115173,556.605042 
	C578.082825,564.280823 582.050537,571.956543 586.267151,580.113953 
	C587.565979,578.179138 588.411987,576.763916 589.406006,575.461670 
	C599.565552,562.152527 609.365845,548.543884 620.047119,535.666382 
	C628.614990,525.336731 638.259766,515.900330 647.981384,505.773163 
	C654.466370,498.867065 660.734253,491.739990 667.486694,485.106110 
	C677.909851,474.865967 688.664551,464.963348 699.872986,454.722687 
	C720.430908,438.261780 742.857117,424.834076 766.910156,414.183655 
	C764.203186,410.093689 761.895508,406.505524 759.488159,402.985565 
	C737.877686,371.387451 718.594604,338.425781 701.540344,304.157227 
	C700.017029,301.096252 698.547852,298.008301 697.284485,294.267548 
	C704.357666,291.211670 711.391113,288.058716 718.522339,285.144928 
	C721.628845,283.875610 724.935913,283.096924 728.226562,282.792938 
	C743.143372,309.697052 757.741943,336.784729 773.110840,363.428070 
	C780.826721,376.804291 789.944153,389.372101 798.207458,401.969574 
	C811.728760,397.947144 824.371155,393.820801 837.208618,390.434052 
	C879.465149,379.286194 921.652100,367.819336 964.148621,357.658173 
	C987.189575,352.148956 1010.702393,349.725006 1030.874756,367.720703 
	C1041.288696,356.642365 1051.459717,345.648163 1061.883301,334.898895 
	C1063.695068,333.030609 1066.431641,331.631317 1068.985596,330.992157 
	C1076.208862,329.184296 1083.559326,327.883545 1091.253540,326.302124 
	C1091.052490,324.181610 1090.986572,322.381256 1090.698975,320.617035 
	C1086.472290,294.689178 1082.362549,268.740997 1077.916260,242.850677 
	C1074.822388,224.835175 1071.256958,206.900665 1068.384155,188.291916 
	C1074.417603,187.439163 1080.432129,186.393997 1086.490479,185.792801 
	C1091.596191,185.286148 1096.753296,185.295303 1101.960205,185.912964 
	C1103.628052,195.231445 1105.390991,204.534134 1106.943115,213.871857 
	C1109.732178,230.651917 1112.409546,247.450607 1115.106201,264.245941 
	C1117.749390,280.708710 1120.421631,297.167358 1122.930908,313.650696 
	C1123.451904,317.072815 1124.541870,318.568451 1128.334839,317.763214 
	C1152.573608,312.617188 1176.843018,307.614471 1201.107056,302.587646 
	C1211.691772,300.394775 1222.278687,298.208252 1232.890991,296.155670 
	C1234.192017,295.903992 1235.746460,296.296387 1236.991455,296.834412 
	C1237.354614,296.991272 1237.347656,298.803375 1237.009644,299.658936 
	C1233.960449,307.375122 1230.788696,315.042816 1227.687012,322.738434 
	C1227.347900,323.580017 1227.222778,324.507843 1226.998291,325.395599 
	C1227.484131,325.804779 1227.969849,326.213959 1228.455688,326.623138 
	C1229.444214,325.081116 1230.225464,323.345734 1231.454346,322.027893 
	C1240.431152,312.401855 1249.375977,302.739014 1258.631348,293.385101 
	C1260.671387,291.323425 1263.768555,289.695496 1266.624146,289.149323 
	C1291.453125,284.400146 1316.342651,279.968079 1341.204346,275.388397 
	C1352.940552,273.226532 1364.655396,270.948242 1377.872192,268.439423 
	C1376.221436,275.156036 1374.819458,280.860077 1373.337524,286.889496 
	C1393.194214,271.996246 1415.099243,262.602722 1439.618652,259.539825 
	C1440.982056,253.830154 1442.577759,248.388748 1443.552490,242.838303 
	C1446.829834,224.178329 1449.885986,205.479523 1453.700439,186.332016 
	C1464.482788,188.583847 1475.271240,190.806931 1486.034546,193.146332 
	C1486.828613,193.318924 1487.440430,194.329788 1488.271484,195.746048 
	C1488.505859,196.846161 1489.057129,197.986160 1488.924438,199.040070 
	C1487.883301,207.310181 1486.800415,215.577255 1485.555908,223.818893 
	C1484.156250,233.086868 1482.574585,242.327316 1480.945801,252.357254 
	C1504.713867,248.893814 1527.831055,245.525223 1551.506836,242.075241 
	C1551.506836,243.785797 1551.784912,245.400513 1551.459595,246.882782 
	C1549.923950,253.879181 1548.318726,260.863464 1546.564453,267.808136 
	C1539.712402,294.932587 1532.808838,322.044037 1525.886841,349.150787 
	C1524.768188,353.532043 1524.632690,358.815460 1522.018311,362.040955 
	C1514.337036,371.517700 1505.713379,380.241272 1497.310181,389.119080 
	C1490.633789,396.172791 1483.738647,403.019379 1476.440674,410.111053 
	C1476.428467,410.332886 1476.416260,410.554688 1476.403931,410.776550 
	C1476.744385,410.676666 1477.084961,410.576782 1478.208618,410.473541 
	C1488.203125,407.343842 1498.185059,404.173035 1508.203613,401.122009 
	C1510.021973,400.568237 1511.989746,400.504822 1513.888550,400.214996 
	C1513.718994,402.193420 1513.818848,404.239594 1513.340576,406.140320 
	C1502.924072,447.532104 1492.526489,488.929077 1481.919189,530.272217 
	C1479.084595,541.320374 1478.517456,553.468323 1467.675049,561.011780 
	C1464.395142,563.293884 1461.886353,566.701416 1459.083984,569.650085 
	C1448.191528,581.110779 1437.354858,592.625061 1426.407471,604.032959 
	C1424.963257,605.537903 1423.141479,606.859192 1421.246338,607.717529 
	C1416.471558,609.880005 1411.500610,611.606384 1406.704102,613.724548 
	C1382.683960,624.332153 1358.663940,634.941711 1334.746460,645.777039 
	C1332.577271,646.759766 1330.139404,649.066711 1329.516479,651.242554 
	C1324.462036,668.899658 1319.701904,686.644043 1315.102295,704.426514 
	C1313.661377,709.997437 1312.984253,715.765991 1311.824341,722.180969 
	C1317.226807,719.897095 1321.816040,717.985291 1326.383179,716.021973 
	C1381.847656,692.178650 1432.115234,660.583008 1474.483032,617.099365 
	C1502.733032,588.105225 1526.773682,555.844482 1548.980591,522.124695 
	C1551.238281,518.696533 1553.747803,515.434326 1556.603149,512.788391 
	C1556.151367,516.186218 1555.699585,519.584106 1554.572388,523.352234 
	C1554.063110,524.738708 1553.505249,526.109497 1553.052002,527.514038 
	C1547.483276,544.768494 1542.239502,562.135986 1536.267578,579.249451 
	C1532.038574,591.368469 1526.830566,603.145935 1521.761841,615.705933 
	C1516.169556,621.960999 1510.982788,628.644958 1504.906982,634.388672 
	C1488.360352,650.031250 1472.110718,666.101257 1454.492188,680.467651 
	C1433.019653,697.976807 1409.628418,712.962830 1384.859131,725.535156 
	C1367.409546,734.392273 1349.657104,742.652771 1331.464233,751.114990 
	C1330.625122,751.400818 1329.786011,751.686646 1329.005981,751.995911 
	C1329.005981,751.995911 1329.011719,751.932495 1328.376831,752.043152 
M1047.900269,427.149719 
	C1055.758301,424.957733 1063.616455,422.765778 1071.772827,420.490601 
	C1025.625732,535.936951 979.839539,650.480408 934.053345,765.023804 
	C935.888306,765.505188 936.460693,765.303101 937.009399,765.049683 
	C978.339111,745.953064 1019.682373,726.885803 1060.941406,707.637756 
	C1062.714844,706.810486 1064.272217,704.516174 1064.981567,702.561035 
	C1078.071533,666.482910 1090.977295,630.338013 1104.010498,594.239197 
	C1110.000366,577.648743 1116.180298,561.126953 1122.559692,543.798340 
	C1141.014038,581.049500 1159.066528,617.489746 1177.187866,654.068787 
	C1205.201904,641.800476 1232.726807,629.746338 1260.592285,617.542969 
	C1259.785889,615.652954 1259.104370,613.996582 1258.377319,612.360352 
	C1242.657104,576.977966 1226.937744,541.595215 1211.194336,506.223145 
	C1210.090088,503.742096 1209.325073,501.689850 1211.195068,498.888611 
	C1241.040161,454.181244 1270.719482,409.363403 1300.566040,364.657074 
	C1301.695312,362.965454 1303.972046,361.528381 1305.977295,361.028137 
	C1312.261841,359.460236 1318.634888,358.122101 1325.049316,357.250977 
	C1328.485840,356.784210 1329.840210,355.060822 1330.800659,352.120453 
	C1336.526489,334.590607 1342.352417,317.093445 1348.122803,299.578033 
	C1348.508423,298.407593 1348.713501,297.177643 1349.062744,295.725433 
	C1348.117554,295.725433 1347.643066,295.659668 1347.192139,295.734833 
	C1323.065063,299.755005 1298.931763,303.738953 1274.833008,307.922638 
	C1273.167236,308.211792 1271.390015,309.712189 1270.292725,311.134094 
	C1259.916626,324.580719 1249.603638,338.077698 1239.411743,351.664673 
	C1211.434570,388.961487 1183.531250,426.313843 1155.561401,463.616272 
	C1154.533936,464.986420 1153.116333,466.063843 1151.880615,467.277679 
	C1151.754150,467.066345 1151.627563,466.855011 1151.501099,466.643646 
	C1169.996216,418.670044 1188.491211,370.696411 1206.957520,322.797150 
	C1206.449341,322.483307 1206.286377,322.296814 1206.168823,322.322144 
	C1164.560547,331.271545 1122.949829,340.210663 1081.372437,349.301910 
	C1079.911133,349.621460 1078.191040,351.203339 1077.584351,352.621582 
	C1067.066040,377.210602 1056.703369,401.866333 1046.131836,426.932373 
	C1046.462891,426.999298 1046.793945,427.066223 1047.900269,427.149719 
M901.412720,393.955200 
	C898.673157,394.644318 895.921692,395.289825 893.195740,396.029114 
	C859.212097,405.246582 824.623596,412.328430 791.628784,425.031097 
	C750.996033,440.674286 714.271301,462.428223 685.150024,495.262146 
	C663.625671,519.530518 646.144531,546.780151 632.208313,576.035950 
	C595.475159,653.148499 559.095459,730.430664 522.903931,807.799194 
	C508.684509,838.196716 495.117737,868.906616 481.706482,899.671631 
	C476.312927,912.044250 472.528198,925.046204 473.058167,938.837585 
	C473.534149,951.225342 481.039062,962.289368 490.907898,963.725952 
	C498.246002,964.794067 505.887238,965.132996 513.252441,964.393127 
	C531.014465,962.608887 547.452515,956.050354 563.236450,948.093506 
	C622.145386,918.396851 681.049622,888.687073 739.741638,858.565308 
	C777.353516,839.262207 812.643005,816.414062 843.121948,786.765198 
	C860.618103,769.745483 877.135864,751.670410 888.496277,730.002441 
	C900.363464,707.367798 911.079285,684.056702 921.039795,660.508972 
	C951.072388,589.508789 980.443054,518.228943 1010.199890,447.111725 
	C1015.405090,434.671753 1020.806580,422.376465 1022.653748,408.843628 
	C1025.359375,389.022217 1016.785583,377.041840 997.076233,374.859619 
	C989.571594,374.028687 981.571533,374.061401 974.262695,375.734070 
	C950.135071,381.255768 926.219971,387.706390 901.412720,393.955200 
M1303.975952,504.492523 
	C1300.384644,515.383301 1296.701294,526.244751 1293.226929,537.172729 
	C1289.443359,549.073059 1285.868530,561.037048 1285.998413,573.722778 
	C1286.182739,591.712036 1297.646240,600.948547 1315.055054,596.049988 
	C1326.512573,592.826050 1337.639404,588.292053 1348.698364,583.811462 
	C1384.420288,569.338623 1420.026367,554.579895 1455.732422,540.067566 
	C1458.653931,538.880127 1460.186401,537.368652 1460.956787,534.266663 
	C1467.489014,507.968781 1474.182251,481.710815 1480.839844,455.444122 
	C1482.987061,446.973267 1485.172485,438.512115 1487.483032,429.489441 
	C1485.944336,429.769165 1485.154785,429.830811 1484.416748,430.058838 
	C1466.793213,435.503174 1449.154663,440.901428 1431.592651,446.538330 
	C1430.092773,447.019745 1428.444824,448.918549 1427.990356,450.485199 
	C1423.822754,464.848999 1419.991821,479.310577 1415.806030,493.668854 
	C1415.258179,495.548248 1413.586792,497.887238 1411.883545,498.514984 
	C1400.820923,502.592041 1389.608398,506.263306 1378.435303,510.038849 
	C1377.301636,510.421936 1376.103638,510.615387 1374.629883,510.970459 
	C1374.887085,509.559540 1374.962524,508.728882 1375.192261,507.943329 
	C1391.559082,451.949127 1407.957764,395.964233 1424.264648,339.952637 
	C1425.169434,336.844666 1426.705566,335.377594 1429.944702,334.807739 
	C1435.009155,333.916748 1439.958252,332.383759 1444.975098,331.203339 
	C1450.070068,330.004517 1455.187988,328.903412 1461.127075,327.573334 
	C1458.232178,338.217896 1455.593750,347.919312 1452.916626,357.763153 
	C1453.545654,357.833649 1454.043701,358.021179 1454.472046,357.918427 
	C1470.638184,354.040100 1486.770508,350.013123 1502.982910,346.340302 
	C1506.088623,345.636780 1506.375610,343.675690 1506.920654,341.471100 
	C1509.873291,329.528168 1512.838135,317.588104 1515.728027,305.629944 
	C1518.832275,292.784912 1521.858398,279.920990 1525.041016,266.550995 
	C1523.094849,266.774872 1521.802856,266.868958 1520.529663,267.078186 
	C1501.484863,270.208313 1482.428345,273.270538 1463.404419,276.523193 
	C1449.639526,278.876678 1435.724854,280.728455 1422.226562,284.173584 
	C1404.887085,288.599121 1389.128052,297.033600 1376.886719,310.170197 
	C1364.512573,323.449280 1356.515869,339.636353 1350.992310,356.971313 
	C1335.403198,405.894928 1319.775757,454.806335 1303.975952,504.492523 
M1285.297729,664.976013 
	C1284.507080,665.165039 1283.711304,665.334961 1282.926514,665.545959 
	C1272.016846,668.478638 1261.179932,672.276367 1249.655029,670.588257 
	C1246.535522,670.131287 1244.679443,670.770264 1242.774414,672.990784 
	C1238.897949,677.508972 1234.828247,681.608032 1229.055176,684.060364 
	C1209.073120,692.548889 1189.276245,701.472656 1169.355591,710.107727 
	C1166.736938,711.242859 1165.564331,712.445923 1165.703247,715.577942 
	C1166.153442,725.727173 1166.225830,735.894836 1166.342041,746.056580 
	C1166.429077,753.668213 1166.359253,761.281616 1166.359253,768.906433 
	C1168.068848,768.906433 1168.774902,769.063232 1169.381714,768.884033 
	C1204.913574,758.389893 1240.447266,747.901062 1275.923950,737.222595 
	C1277.272949,736.816467 1278.800293,734.651428 1279.002441,733.140015 
	C1282.068481,710.209473 1286.157593,687.500854 1292.794067,665.298889 
	C1293.052612,664.434021 1292.827148,663.424500 1292.827148,662.226135 
	C1290.388916,663.172058 1288.236816,664.006897 1285.297729,664.976013 
M1134.192139,735.586243 
	C1134.192139,732.621887 1134.192139,729.657593 1134.192139,726.210815 
	C1127.902100,728.991699 1122.108398,731.553162 1116.123779,734.199036 
	C1109.320557,721.452759 1102.758301,709.157776 1095.782837,696.088745 
	C1092.244141,705.240417 1088.968628,713.226562 1086.082397,721.351074 
	C1084.245605,726.521729 1081.558228,730.678589 1076.973022,733.956848 
	C1070.890869,738.305359 1065.388062,743.454468 1059.445557,748.010498 
	C1043.680054,760.097534 1029.734863,774.759827 1010.571838,782.054626 
	C1003.953857,784.573975 1004.106506,784.974976 1006.681335,791.849243 
	C1007.140320,791.905457 1007.629333,792.017761 1008.118286,792.017883 
	C1049.567017,792.028198 1090.451782,787.151917 1130.861694,778.003662 
	C1133.985229,777.296509 1134.244751,775.619385 1134.227783,773.044617 
	C1134.147461,760.883728 1134.192139,748.721924 1134.192139,735.586243 
z"/>
<path fill="#007AC1" opacity="1.000000" stroke="none" 
	d="
M559.384766,1002.008789 
	C576.585876,992.821228 593.673096,983.412109 611.014648,974.497742 
	C637.340759,960.964844 663.807251,947.703003 690.283752,934.465271 
	C708.426392,925.394226 726.695435,916.576355 744.883606,907.596008 
	C746.904175,906.598328 748.444458,905.729797 750.509277,907.918091 
	C770.813782,929.436096 791.230286,950.848450 811.601257,972.303772 
	C811.806580,972.520020 811.827454,972.911255 811.921875,973.561279 
	C796.347778,981.251831 780.777466,988.583008 765.226868,995.955811 
	C736.361450,1009.641357 707.447571,1023.226562 678.667053,1037.088623 
	C653.540894,1049.190552 628.552673,1061.579468 603.535156,1073.906128 
	C567.341675,1091.739502 531.101624,1109.480957 495.024200,1127.546631 
	C467.592590,1141.282837 440.345428,1155.389648 413.086700,1169.468384 
	C390.637299,1181.063110 368.248657,1192.777710 345.911133,1204.586792 
	C320.843475,1217.839233 295.818024,1231.172852 270.857941,1244.626587 
	C244.223663,1258.982788 217.684982,1273.516602 191.109406,1287.981812 
	C181.330124,1293.304810 171.564484,1298.652832 161.269958,1303.845215 
	C160.747299,1303.700928 160.375931,1303.373291 160.375946,1303.373291 
	C169.369522,1295.340088 178.282166,1287.213867 187.381012,1279.301636 
	C195.340515,1272.380127 203.483795,1265.668579 211.592026,1258.919800 
	C222.841049,1249.556885 234.104889,1240.211182 245.414749,1230.921997 
	C256.480377,1221.833252 267.565033,1212.766357 278.726501,1203.795898 
	C291.793640,1193.293823 304.817200,1182.729858 318.106018,1172.513184 
	C335.391754,1159.223633 352.815918,1146.108154 370.370850,1133.176147 
	C390.671539,1118.221436 410.949463,1103.217407 431.648315,1088.825806 
	C466.411499,1064.655518 501.492310,1040.941772 536.459961,1017.066040 
	C541.181824,1013.841858 546.022034,1010.790894 550.950928,1007.340698 
	C551.094360,1007.021667 551.031738,1007.001709 551.396973,1006.993286 
	C552.200745,1006.334412 552.639221,1005.683960 553.077759,1005.033508 
	C553.077759,1005.033508 553.012939,1005.007935 553.354858,1005.235107 
	C555.592773,1004.311157 557.488770,1003.159973 559.384766,1002.008789 
z"/>
<path fill="#F05133" opacity="1.000000" stroke="none" 
	d="
M538.680298,598.009033 
	C540.752747,600.787109 542.607971,603.673645 544.218567,606.690674 
	C548.434082,614.587402 552.642456,622.491882 556.606506,630.515381 
	C557.363098,632.046814 557.708252,634.481201 557.024109,635.918701 
	C548.192139,654.475647 539.145630,672.930542 530.115723,691.392822 
	C529.792114,692.054321 529.080322,692.525879 528.373657,693.312378 
	C508.318848,699.738953 488.415314,705.861938 468.567200,712.159546 
	C445.320465,719.535400 422.085846,726.952881 398.909546,734.546570 
	C339.557281,753.993347 280.193390,773.406921 220.931442,793.126282 
	C196.240891,801.341919 171.785324,810.265869 147.244858,818.929993 
	C115.048027,830.297180 82.870651,841.719604 50.696167,853.150024 
	C49.348671,853.628723 48.115238,854.428528 46.166183,854.089905 
	C49.745857,851.725586 53.259571,849.253540 56.916267,847.015015 
	C76.228157,835.193115 95.485588,823.278076 114.938568,811.691956 
	C132.169388,801.429260 149.542160,791.396423 167.012360,781.546082 
	C193.579971,766.566284 220.165543,751.609985 246.973206,737.067078 
	C266.650116,726.392517 286.672089,716.351685 306.583832,706.113159 
	C321.227844,698.583313 335.848206,690.997314 350.647308,683.781311 
	C373.397705,672.688477 396.192871,661.676758 419.153961,651.029480 
	C442.210785,640.337891 465.458344,630.054077 488.690063,619.744263 
	C505.185638,612.423889 521.793640,605.356995 538.680298,598.009033 
z"/>
<path fill="#007AC1" opacity="1.000000" stroke="none" 
	d="
M1744.386230,588.982178 
	C1749.199707,577.348694 1754.501831,565.752625 1759.565308,554.053345 
	C1768.061035,534.424194 1776.398926,514.726868 1784.828247,495.068970 
	C1785.342407,493.870087 1786.074951,492.764801 1786.855347,491.296082 
	C1797.388794,488.815430 1807.760498,486.594238 1818.159058,484.506622 
	C1839.137573,480.294952 1860.122559,476.114960 1881.120605,472.001923 
	C1893.941040,469.490662 1906.772827,467.028717 1919.631714,464.725220 
	C1934.590454,462.045624 1949.583496,459.557495 1964.563477,456.997253 
	C1977.933105,454.712219 1991.281494,452.288452 2004.683228,450.210236 
	C2017.145752,448.277679 2029.673462,446.768768 2042.159546,444.983124 
	C2053.011719,443.431152 2063.830566,441.641205 2074.692383,440.165863 
	C2083.634033,438.951263 2092.624023,438.094971 2101.580811,436.986389 
	C2111.659668,435.738953 2121.716064,434.307098 2131.800293,433.107361 
	C2138.818359,432.272369 2145.869629,431.722656 2152.900879,430.993744 
	C2165.307373,429.707581 2177.704590,428.332733 2190.115234,427.090729 
	C2197.974609,426.304260 2205.853027,425.709137 2213.719727,424.994720 
	C2220.579834,424.371704 2227.434082,423.688171 2234.295410,423.081177 
	C2234.804688,423.036102 2235.349365,423.392578 2236.926758,423.899567 
	C2222.744141,428.443909 2209.680176,432.727966 2196.553467,436.809692 
	C2181.918945,441.360291 2167.165527,445.533356 2152.572754,450.210815 
	C2112.011963,463.211731 2071.467529,476.266937 2030.992676,489.532227 
	C1993.308716,501.882812 1955.667114,514.367798 1918.111572,527.102295 
	C1890.449341,536.482117 1862.905762,546.218933 1835.400635,556.052612 
	C1805.135010,566.873413 1774.974121,577.987061 1744.386230,588.982178 
z"/>
<path fill="#F05133" opacity="1.000000" stroke="none" 
	d="
M1828.713867,374.788330 
	C1834.688354,353.548553 1841.030151,332.327728 1847.404053,311.116577 
	C1848.304688,308.120056 1849.363159,305.170990 1850.674683,302.017273 
	C1866.925781,301.556000 1882.850830,301.281464 1898.775757,300.997711 
	C1917.204712,300.669342 1935.633301,300.327209 1954.062256,300.001404 
	C1973.320801,299.660919 1992.579834,299.053040 2011.838135,299.072083 
	C2034.434204,299.094452 2057.030518,299.613525 2079.624756,300.022278 
	C2091.056885,300.229095 2102.487549,300.593628 2113.913818,301.018799 
	C2129.940186,301.615143 2145.964844,302.276886 2161.984863,303.019714 
	C2174.347412,303.592957 2186.704102,304.304688 2199.060059,305.008972 
	C2210.090332,305.637634 2221.117432,306.320831 2232.141602,307.048798 
	C2232.996094,307.105255 2233.814941,307.705383 2235.786133,308.525146 
	C2222.232666,310.465515 2209.866699,312.162292 2197.525146,314.022064 
	C2183.160400,316.186707 2168.826904,318.558105 2154.461670,320.719849 
	C2142.176025,322.568634 2129.859131,324.208710 2117.566895,326.013855 
	C2106.246826,327.676208 2094.932861,329.381653 2083.631836,331.166779 
	C2071.706055,333.050537 2059.794922,335.028198 2047.884399,337.006195 
	C2032.443359,339.570526 2017.012451,342.195282 2001.571045,344.757263 
	C1988.863647,346.865601 1976.144897,348.905090 1963.435913,351.003235 
	C1950.717407,353.102997 1937.998291,355.198761 1925.291504,357.367950 
	C1912.601929,359.534210 1899.916748,361.729950 1887.249268,364.021698 
	C1873.778564,366.458801 1860.331787,369.027374 1846.873047,371.531189 
	C1840.947632,372.633514 1835.018799,373.717804 1828.713867,374.788330 
z"/>
<path fill="#002D62" opacity="1.000000" stroke="none" 
	d="
M660.960327,12.219608 
	C661.652832,11.227998 662.398071,10.093078 663.161804,10.080507 
	C671.090393,9.949990 679.022034,10.000175 687.184875,10.819160 
	C679.967896,13.119583 672.804810,15.613113 665.513245,17.645996 
	C661.325378,18.813583 662.326904,14.480152 660.960327,12.219608 
z"/>
<path fill="#007AC1" opacity="1.000000" stroke="none" 
	d="
M160.907349,1303.889771 
	C160.564224,1304.310547 160.061050,1304.542358 159.557861,1304.774170 
	C159.684631,1304.415283 159.811417,1304.056396 160.157059,1303.535400 
	C160.375931,1303.373291 160.747299,1303.700928 160.907349,1303.889771 
z"/>
<path fill="#FEFEFE" opacity="1.000000" stroke="none" 
	d="
M1095.153809,953.966675 
	C1104.200684,951.978760 1113.270996,950.090027 1122.286621,947.969116 
	C1128.639038,946.474670 1134.917358,944.665039 1141.956787,942.991211 
	C1143.125122,942.931396 1143.565308,942.876526 1144.188232,943.121704 
	C1145.808105,943.227478 1147.297729,943.213318 1148.674805,942.812500 
	C1199.351807,928.061707 1247.181030,906.886597 1291.980469,878.963013 
	C1302.226929,872.576477 1312.194702,865.742798 1322.640625,858.885254 
	C1320.947632,857.655701 1319.899170,856.894287 1318.850830,856.132935 
	C1327.243042,857.350708 1331.364136,850.366211 1337.002197,846.470764 
	C1344.106323,841.562256 1350.832886,836.107178 1358.246338,830.465393 
	C1360.498413,829.148560 1362.472168,828.543945 1363.919556,827.318115 
	C1428.812988,772.357178 1479.688599,706.513245 1516.777954,630.013489 
	C1519.145508,625.130005 1520.923950,619.960876 1522.983887,614.958252 
	C1522.991211,614.991821 1522.923828,615.005737 1523.118530,614.959717 
	C1523.435547,614.673279 1523.500610,614.418213 1523.748901,613.843994 
	C1530.327026,597.504150 1537.176758,581.647461 1542.845337,565.379150 
	C1547.684082,551.492249 1551.165771,537.132507 1555.247803,522.981934 
	C1555.699585,519.584106 1556.151367,516.186218 1556.326660,512.425232 
	C1556.050049,512.062073 1556.007935,512.149170 1556.198486,512.328674 
	C1556.555054,512.454529 1556.721069,512.400940 1557.182617,512.088196 
	C1557.878906,510.919708 1558.449829,510.047150 1558.655518,509.095612 
	C1565.346313,478.140076 1570.024048,446.890564 1571.953125,415.266022 
	C1574.056519,380.785828 1573.739380,346.347656 1570.095215,311.953705 
	C1566.650757,279.444611 1560.498291,247.471359 1551.680908,216.010925 
	C1551.240356,214.439102 1549.531860,212.500778 1548.025024,212.058960 
	C1528.103027,206.217499 1508.111206,200.613998 1488.136841,194.950989 
	C1487.440430,194.329788 1486.828613,193.318924 1486.034546,193.146332 
	C1475.271240,190.806931 1464.482788,188.583847 1452.943604,186.441330 
	C1442.705200,184.972183 1433.223511,183.393738 1423.995117,181.574951 
	C1425.397339,181.066864 1426.546387,180.799103 1428.247192,180.402756 
	C1412.915039,177.558807 1398.233643,174.697388 1383.501221,172.128357 
	C1336.340210,163.904480 1288.818359,158.563751 1241.090454,155.177719 
	C1219.043823,153.613663 1196.933838,152.678696 1174.836304,152.177597 
	C1158.732666,151.812408 1142.583130,152.229019 1126.489136,153.015884 
	C1108.112671,153.914307 1089.739990,155.249100 1071.429077,157.041916 
	C1043.126343,159.813034 1014.784912,162.466110 986.626221,166.369080 
	C937.015869,173.245361 887.973755,183.257675 839.412170,195.549194 
	C751.932983,217.691147 667.242554,247.723801 585.297546,285.502441 
	C579.900330,287.990662 574.569092,290.622101 569.244324,293.169159 
	C569.575806,294.458191 569.732361,295.270325 569.992126,296.047913 
	C583.951904,337.839264 597.127747,379.915497 612.160217,421.317627 
	C622.591919,450.048248 635.580444,477.850525 647.426697,506.067566 
	C638.259766,515.900330 628.614990,525.336731 620.047119,535.666382 
	C609.365845,548.543884 599.565552,562.152527 589.406006,575.461670 
	C588.411987,576.763916 587.565979,578.179138 586.267151,580.113953 
	C582.050537,571.956543 578.082825,564.280823 574.051636,555.883423 
	C573.887878,554.525574 573.918518,553.832214 573.668701,553.261536 
	C563.002930,528.890808 551.467041,504.859955 541.825134,480.091675 
	C527.832336,444.146881 515.093079,407.710693 502.054626,371.399597 
	C497.368164,358.348083 493.363281,345.051788 489.047333,331.867218 
	C489.047333,331.867218 489.022675,331.994934 489.016357,331.591125 
	C487.058624,324.453033 485.107208,317.718811 483.155792,310.984558 
	C480.236694,299.934174 477.274841,288.894806 474.415894,277.828888 
	C472.892334,271.931885 471.546814,265.988892 470.016754,259.633789 
	C484.425262,252.637680 498.813934,245.539612 513.296875,238.639526 
	C560.027405,216.375900 607.497559,195.838745 655.946350,177.579590 
	C708.493042,157.776062 761.822693,140.343964 816.536133,127.709930 
	C852.650757,119.370605 889.109863,112.315720 925.660095,106.137169 
	C954.125610,101.325279 982.913940,98.187828 1011.662598,95.361275 
	C1034.836426,93.082832 1058.148438,91.833855 1081.429688,91.118546 
	C1110.731812,90.218254 1140.074951,89.713104 1169.382080,90.179779 
	C1196.171753,90.606346 1222.970581,92.081245 1249.703491,93.970757 
	C1274.734375,95.739960 1299.797119,97.842346 1324.640625,101.280312 
	C1355.171631,105.505333 1385.652466,110.455414 1415.872192,116.504913 
	C1552.994629,143.954544 1681.708496,194.956985 1806.429077,256.997681 
	C1809.280762,258.416199 1809.739868,259.818451 1808.957642,262.727905 
	C1768.012451,415.016724 1711.818481,560.953064 1629.056274,695.882568 
	C1562.480469,804.423035 1481.387451,900.812134 1386.905884,986.054749 
	C1311.131226,1054.419800 1228.919800,1114.110596 1142.329590,1167.931274 
	C1139.692871,1169.570190 1137.894409,1169.600464 1135.337646,1167.911743 
	C1104.370117,1147.456543 1072.869385,1127.770386 1042.456909,1106.524902 
	C1016.835999,1088.626465 992.207825,1069.267334 967.613403,1049.952148 
	C949.225708,1035.511475 931.532104,1020.181824 913.634705,1005.122864 
	C877.810913,974.980530 844.916748,941.743713 812.077026,908.465271 
	C804.816162,901.107239 798.189331,893.123535 790.932922,885.052368 
	C816.160278,872.993103 841.289246,860.980774 867.073853,848.967285 
	C869.412781,850.808411 871.144897,852.608887 872.772339,854.499451 
	C929.839478,920.793640 992.427795,981.402527 1061.213257,1035.422852 
	C1089.718018,1057.809204 1119.542725,1078.515137 1148.780396,1099.967163 
	C1150.761108,1101.420410 1152.560059,1103.032715 1155.388550,1100.971436 
	C1162.902588,1095.495605 1170.614136,1090.290894 1178.599854,1085.010132 
	C1180.395630,1084.296875 1181.939575,1083.698364 1183.267456,1082.785767 
	C1289.743652,1009.609558 1385.200439,924.162659 1468.686523,825.519836 
	C1601.322021,668.804565 1696.296631,491.789490 1754.003418,294.754883 
	C1755.095825,291.025055 1754.702759,289.286377 1750.860352,287.685730 
	C1714.643799,272.599182 1678.762817,256.672516 1642.266479,242.305328 
	C1620.201782,233.619324 1597.973267,224.896484 1574.463623,220.452530 
	C1572.643188,220.108429 1570.786011,219.958176 1568.615479,219.674652 
	C1570.765137,227.509186 1572.544556,234.565842 1574.650146,241.523773 
	C1577.290161,250.247971 1580.597656,258.785858 1582.916382,267.588684 
	C1590.515259,296.436340 1592.482544,326.061920 1593.645508,355.669800 
	C1595.961426,414.625183 1589.994263,472.867676 1574.581543,529.825256 
	C1532.182495,686.510864 1442.198853,808.304749 1304.242676,893.977539 
	C1227.415527,941.688293 1143.403320,969.290100 1053.315918,979.056824 
	C1047.775757,973.639038 1042.484131,968.429077 1037.619385,963.169800 
	C1044.302979,962.395935 1050.603394,961.932251 1056.807373,960.892761 
	C1069.616699,958.746582 1082.374756,956.293457 1095.153809,953.966675 
z"/>
<path fill="#FEFFFF" opacity="1.000000" stroke="none" 
	d="
M901.817993,393.877808 
	C926.219971,387.706390 950.135071,381.255768 974.262695,375.734070 
	C981.571533,374.061401 989.571594,374.028687 997.076233,374.859619 
	C1016.785583,377.041840 1025.359375,389.022217 1022.653748,408.843628 
	C1020.806580,422.376465 1015.405090,434.671753 1010.199890,447.111725 
	C980.443054,518.228943 951.072388,589.508789 921.039795,660.508972 
	C911.079285,684.056702 900.363464,707.367798 888.496277,730.002441 
	C877.135864,751.670410 860.618103,769.745483 843.121948,786.765198 
	C812.643005,816.414062 777.353516,839.262207 739.741638,858.565308 
	C681.049622,888.687073 622.145386,918.396851 563.236450,948.093506 
	C547.452515,956.050354 531.014465,962.608887 513.252441,964.393127 
	C505.887238,965.132996 498.246002,964.794067 490.907898,963.725952 
	C481.039062,962.289368 473.534149,951.225342 473.058167,938.837585 
	C472.528198,925.046204 476.312927,912.044250 481.706482,899.671631 
	C495.117737,868.906616 508.684509,838.196716 522.903931,807.799194 
	C559.095459,730.430664 595.475159,653.148499 632.208313,576.035950 
	C646.144531,546.780151 663.625671,519.530518 685.150024,495.262146 
	C714.271301,462.428223 750.996033,440.674286 791.628784,425.031097 
	C824.623596,412.328430 859.212097,405.246582 893.195740,396.029114 
	C895.921692,395.289825 898.673157,394.644318 901.817993,393.877808 
M673.210999,797.400696 
	C700.397156,784.956116 727.551392,772.440552 754.809692,760.156067 
	C758.253784,758.603882 760.295166,756.555603 761.803650,753.140442 
	C801.938171,662.278320 842.169312,571.458923 882.380859,480.630859 
	C883.018738,479.190094 883.615417,477.731140 884.543823,475.544861 
	C882.495728,476.035187 881.240295,476.260529 880.031738,476.636261 
	C857.032166,483.786591 834.064636,491.042053 811.016785,498.032715 
	C807.186829,499.194458 804.919617,501.091492 803.260803,504.751953 
	C766.030457,586.910034 728.630310,668.991211 691.418945,751.157898 
	C684.577942,766.263550 678.416931,781.677124 671.496521,797.094727 
	C671.836243,797.262512 672.176025,797.430298 673.210999,797.400696 
z"/>
<path fill="#FEFEFE" opacity="1.000000" stroke="none" 
	d="
M1046.306763,426.507446 
	C1056.703369,401.866333 1067.066040,377.210602 1077.584351,352.621582 
	C1078.191040,351.203339 1079.911133,349.621460 1081.372437,349.301910 
	C1122.949829,340.210663 1164.560547,331.271545 1206.168823,322.322144 
	C1206.286377,322.296814 1206.449341,322.483307 1206.957520,322.797150 
	C1188.491211,370.696411 1169.996216,418.670044 1151.501099,466.643646 
	C1151.627563,466.855011 1151.754150,467.066345 1151.880615,467.277679 
	C1153.116333,466.063843 1154.533936,464.986420 1155.561401,463.616272 
	C1183.531250,426.313843 1211.434570,388.961487 1239.411743,351.664673 
	C1249.603638,338.077698 1259.916626,324.580719 1270.292725,311.134094 
	C1271.390015,309.712189 1273.167236,308.211792 1274.833008,307.922638 
	C1298.931763,303.738953 1323.065063,299.755005 1347.192139,295.734833 
	C1347.643066,295.659668 1348.117554,295.725433 1349.062744,295.725433 
	C1348.713501,297.177643 1348.508423,298.407593 1348.122803,299.578033 
	C1342.352417,317.093445 1336.526489,334.590607 1330.800659,352.120453 
	C1329.840210,355.060822 1328.485840,356.784210 1325.049316,357.250977 
	C1318.634888,358.122101 1312.261841,359.460236 1305.977295,361.028137 
	C1303.972046,361.528381 1301.695312,362.965454 1300.566040,364.657074 
	C1270.719482,409.363403 1241.040161,454.181244 1211.195068,498.888611 
	C1209.325073,501.689850 1210.090088,503.742096 1211.194336,506.223145 
	C1226.937744,541.595215 1242.657104,576.977966 1258.377319,612.360352 
	C1259.104370,613.996582 1259.785889,615.652954 1260.592285,617.542969 
	C1232.726807,629.746338 1205.201904,641.800476 1177.187866,654.068787 
	C1159.066528,617.489746 1141.014038,581.049500 1122.559692,543.798340 
	C1116.180298,561.126953 1110.000366,577.648743 1104.010498,594.239197 
	C1090.977295,630.338013 1078.071533,666.482910 1064.981567,702.561035 
	C1064.272217,704.516174 1062.714844,706.810486 1060.941406,707.637756 
	C1019.682373,726.885803 978.339111,745.953064 937.009399,765.049683 
	C936.460693,765.303101 935.888306,765.505188 934.053345,765.023804 
	C979.839539,650.480408 1025.625732,535.936951 1071.772827,420.490601 
	C1063.616455,422.765778 1055.758301,424.957733 1047.319580,426.969849 
	C1046.594849,426.695801 1046.450806,426.601624 1046.306763,426.507446 
z"/>
<path fill="#F05133" opacity="1.000000" stroke="none" 
	d="
M1067.902100,188.929962 
	C1071.256958,206.900665 1074.822388,224.835175 1077.916260,242.850677 
	C1082.362549,268.740997 1086.472290,294.689178 1090.698975,320.617035 
	C1090.986572,322.381256 1091.052490,324.181610 1091.253540,326.302124 
	C1083.559326,327.883545 1076.208862,329.184296 1068.985596,330.992157 
	C1066.431641,331.631317 1063.695068,333.030609 1061.883301,334.898895 
	C1051.459717,345.648163 1041.288696,356.642365 1030.874756,367.720703 
	C1010.702393,349.725006 987.189575,352.148956 964.148621,357.658173 
	C921.652100,367.819336 879.465149,379.286194 837.208618,390.434052 
	C824.371155,393.820801 811.728760,397.947144 798.207458,401.969574 
	C789.944153,389.372101 780.826721,376.804291 773.110840,363.428070 
	C757.741943,336.784729 743.143372,309.697052 728.497803,282.267761 
	C729.693787,281.382324 730.625305,281.038300 731.542480,280.659515 
	C798.395813,253.048706 866.940125,230.577774 937.360474,214.085251 
	C968.764221,206.730453 1000.454102,200.569046 1032.093018,194.261627 
	C1043.913940,191.905060 1055.959229,190.674118 1067.902100,188.929962 
z"/>
<path fill="#FDBB33" opacity="1.000000" stroke="none" 
	d="
M1068.143188,188.610931 
	C1055.959229,190.674118 1043.913940,191.905060 1032.093018,194.261627 
	C1000.454102,200.569046 968.764221,206.730453 937.360474,214.085251 
	C866.940125,230.577774 798.395813,253.048706 731.542480,280.659515 
	C730.625305,281.038300 729.693787,281.382324 728.460449,281.919006 
	C724.935913,283.096924 721.628845,283.875610 718.522339,285.144928 
	C711.391113,288.058716 704.357666,291.211670 696.821899,294.668121 
	C681.582764,301.892120 666.806274,308.715576 651.909180,315.594696 
	C665.221802,363.234375 681.572388,409.305481 699.278687,454.917603 
	C688.664551,464.963348 677.909851,474.865967 667.486694,485.106110 
	C660.734253,491.739990 654.466370,498.867065 647.704041,505.920349 
	C635.580444,477.850525 622.591919,450.048248 612.160217,421.317627 
	C597.127747,379.915497 583.951904,337.839264 569.992126,296.047913 
	C569.732361,295.270325 569.575806,294.458191 569.244324,293.169159 
	C574.569092,290.622101 579.900330,287.990662 585.297546,285.502441 
	C667.242554,247.723801 751.932983,217.691147 839.412170,195.549194 
	C887.973755,183.257675 937.015869,173.245361 986.626221,166.369080 
	C1014.784912,162.466110 1043.126343,159.813034 1071.429077,157.041916 
	C1089.739990,155.249100 1108.112671,153.914307 1126.489136,153.015884 
	C1142.583130,152.229019 1158.732666,151.812408 1174.836304,152.177597 
	C1196.933838,152.678696 1219.043823,153.613663 1241.090454,155.177719 
	C1288.818359,158.563751 1336.340210,163.904480 1383.501221,172.128357 
	C1398.233643,174.697388 1412.915039,177.558807 1428.247192,180.402756 
	C1426.546387,180.799103 1425.397339,181.066864 1423.662354,181.631256 
	C1421.680786,181.532715 1420.307495,180.927216 1418.886230,180.777756 
	C1411.571655,180.008682 1404.250244,179.291489 1396.920410,178.686783 
	C1392.042725,178.284378 1387.147095,178.096176 1382.259155,177.820450 
	C1374.529663,177.384415 1366.800903,176.938293 1359.070190,176.527695 
	C1349.050781,175.995544 1339.033936,175.384018 1329.008179,175.011047 
	C1319.388672,174.653183 1309.759399,174.556366 1300.500244,174.223419 
	C1302.231445,173.969070 1303.596680,173.836151 1304.962036,173.703217 
	C1283.779175,173.181183 1262.640869,173.124756 1241.503906,173.255539 
	C1238.978638,173.271179 1236.459595,174.305679 1233.478027,174.929718 
	C1211.831787,176.010956 1190.640259,176.937820 1169.461426,178.096237 
	C1161.208008,178.547684 1152.971191,179.408218 1144.747925,180.280945 
	C1130.452515,181.798080 1116.173462,183.469437 1101.887573,185.076126 
	C1096.753296,185.295303 1091.596191,185.286148 1086.490479,185.792801 
	C1080.432129,186.393997 1074.417603,187.439163 1068.143188,188.610931 
z"/>
<path fill="#F05133" opacity="1.000000" stroke="none" 
	d="
M1101.923828,185.494537 
	C1116.173462,183.469437 1130.452515,181.798080 1144.747925,180.280945 
	C1152.971191,179.408218 1161.208008,178.547684 1169.461426,178.096237 
	C1190.640259,176.937820 1211.831787,176.010956 1233.955566,174.944656 
	C1238.397583,174.841125 1241.902466,174.784424 1245.750244,174.810928 
	C1247.915405,174.774796 1249.737549,174.655441 1252.046509,174.441498 
	C1268.400391,174.346207 1284.267456,174.345520 1300.134399,174.344833 
	C1309.759399,174.556366 1319.388672,174.653183 1329.008179,175.011047 
	C1339.033936,175.384018 1349.050781,175.995544 1359.070190,176.527695 
	C1366.800903,176.938293 1374.529663,177.384415 1382.259155,177.820450 
	C1387.147095,178.096176 1392.042725,178.284378 1396.920410,178.686783 
	C1404.250244,179.291489 1411.571655,180.008682 1418.886230,180.777756 
	C1420.307495,180.927216 1421.680786,181.532715 1423.409180,181.871582 
	C1433.223511,183.393738 1442.705200,184.972183 1452.606689,186.673096 
	C1449.885986,205.479523 1446.829834,224.178329 1443.552490,242.838303 
	C1442.577759,248.388748 1440.982056,253.830154 1439.618652,259.539825 
	C1415.099243,262.602722 1393.194214,271.996246 1373.337524,286.889496 
	C1374.819458,280.860077 1376.221436,275.156036 1377.872192,268.439423 
	C1364.655396,270.948242 1352.940552,273.226532 1341.204346,275.388397 
	C1316.342651,279.968079 1291.453125,284.400146 1266.624146,289.149323 
	C1263.768555,289.695496 1260.671387,291.323425 1258.631348,293.385101 
	C1249.375977,302.739014 1240.431152,312.401855 1231.454346,322.027893 
	C1230.225464,323.345734 1229.444214,325.081116 1228.455688,326.623138 
	C1227.969849,326.213959 1227.484131,325.804779 1226.998291,325.395599 
	C1227.222778,324.507843 1227.347900,323.580017 1227.687012,322.738434 
	C1230.788696,315.042816 1233.960449,307.375122 1237.009644,299.658936 
	C1237.347656,298.803375 1237.354614,296.991272 1236.991455,296.834412 
	C1235.746460,296.296387 1234.192017,295.903992 1232.890991,296.155670 
	C1222.278687,298.208252 1211.691772,300.394775 1201.107056,302.587646 
	C1176.843018,307.614471 1152.573608,312.617188 1128.334839,317.763214 
	C1124.541870,318.568451 1123.451904,317.072815 1122.930908,313.650696 
	C1120.421631,297.167358 1117.749390,280.708710 1115.106201,264.245941 
	C1112.409546,247.450607 1109.732178,230.651917 1106.943115,213.871857 
	C1105.390991,204.534134 1103.628052,195.231445 1101.923828,185.494537 
z"/>
<path fill="#FEFEFE" opacity="1.000000" stroke="none" 
	d="
M1304.069702,504.107544 
	C1319.775757,454.806335 1335.403198,405.894928 1350.992310,356.971313 
	C1356.515869,339.636353 1364.512573,323.449280 1376.886719,310.170197 
	C1389.128052,297.033600 1404.887085,288.599121 1422.226562,284.173584 
	C1435.724854,280.728455 1449.639526,278.876678 1463.404419,276.523193 
	C1482.428345,273.270538 1501.484863,270.208313 1520.529663,267.078186 
	C1521.802856,266.868958 1523.094849,266.774872 1525.041016,266.550995 
	C1521.858398,279.920990 1518.832275,292.784912 1515.728027,305.629944 
	C1512.838135,317.588104 1509.873291,329.528168 1506.920654,341.471100 
	C1506.375610,343.675690 1506.088623,345.636780 1502.982910,346.340302 
	C1486.770508,350.013123 1470.638184,354.040100 1454.472046,357.918427 
	C1454.043701,358.021179 1453.545654,357.833649 1452.916626,357.763153 
	C1455.593750,347.919312 1458.232178,338.217896 1461.127075,327.573334 
	C1455.187988,328.903412 1450.070068,330.004517 1444.975098,331.203339 
	C1439.958252,332.383759 1435.009155,333.916748 1429.944702,334.807739 
	C1426.705566,335.377594 1425.169434,336.844666 1424.264648,339.952637 
	C1407.957764,395.964233 1391.559082,451.949127 1375.192261,507.943329 
	C1374.962524,508.728882 1374.887085,509.559540 1374.629883,510.970459 
	C1376.103638,510.615387 1377.301636,510.421936 1378.435303,510.038849 
	C1389.608398,506.263306 1400.820923,502.592041 1411.883545,498.514984 
	C1413.586792,497.887238 1415.258179,495.548248 1415.806030,493.668854 
	C1419.991821,479.310577 1423.822754,464.848999 1427.990356,450.485199 
	C1428.444824,448.918549 1430.092773,447.019745 1431.592651,446.538330 
	C1449.154663,440.901428 1466.793213,435.503174 1484.416748,430.058838 
	C1485.154785,429.830811 1485.944336,429.769165 1487.483032,429.489441 
	C1485.172485,438.512115 1482.987061,446.973267 1480.839844,455.444122 
	C1474.182251,481.710815 1467.489014,507.968781 1460.956787,534.266663 
	C1460.186401,537.368652 1458.653931,538.880127 1455.732422,540.067566 
	C1420.026367,554.579895 1384.420288,569.338623 1348.698364,583.811462 
	C1337.639404,588.292053 1326.512573,592.826050 1315.055054,596.049988 
	C1297.646240,600.948547 1286.182739,591.712036 1285.998413,573.722778 
	C1285.868530,561.037048 1289.443359,549.073059 1293.226929,537.172729 
	C1296.701294,526.244751 1300.384644,515.383301 1304.069702,504.107544 
z"/>
<path fill="#F05134" opacity="1.000000" stroke="none" 
	d="
M1488.204102,195.348526 
	C1508.111206,200.613998 1528.103027,206.217499 1548.025024,212.058960 
	C1549.531860,212.500778 1551.240356,214.439102 1551.680908,216.010925 
	C1560.498291,247.471359 1566.650757,279.444611 1570.095215,311.953705 
	C1573.739380,346.347656 1574.056519,380.785828 1571.953125,415.266022 
	C1570.024048,446.890564 1565.346313,478.140076 1558.655518,509.095612 
	C1558.449829,510.047150 1557.878906,510.919708 1557.117676,511.843079 
	C1556.507446,511.954437 1556.257690,512.051758 1556.007935,512.149170 
	C1556.007935,512.149170 1556.050049,512.062073 1556.095215,512.078613 
	C1553.747803,515.434326 1551.238281,518.696533 1548.980591,522.124695 
	C1526.773682,555.844482 1502.733032,588.105225 1474.483032,617.099365 
	C1432.115234,660.583008 1381.847656,692.178650 1326.383179,716.021973 
	C1321.816040,717.985291 1317.226807,719.897095 1311.824341,722.180969 
	C1312.984253,715.765991 1313.661377,709.997437 1315.102295,704.426514 
	C1319.701904,686.644043 1324.462036,668.899658 1329.516479,651.242554 
	C1330.139404,649.066711 1332.577271,646.759766 1334.746460,645.777039 
	C1358.663940,634.941711 1382.683960,624.332153 1406.704102,613.724548 
	C1411.500610,611.606384 1416.471558,609.880005 1421.246338,607.717529 
	C1423.141479,606.859192 1424.963257,605.537903 1426.407471,604.032959 
	C1437.354858,592.625061 1448.191528,581.110779 1459.083984,569.650085 
	C1461.886353,566.701416 1464.395142,563.293884 1467.675049,561.011780 
	C1478.517456,553.468323 1479.084595,541.320374 1481.919189,530.272217 
	C1492.526489,488.929077 1502.924072,447.532104 1513.340576,406.140320 
	C1513.818848,404.239594 1513.718994,402.193420 1513.888550,400.214996 
	C1511.989746,400.504822 1510.021973,400.568237 1508.203613,401.122009 
	C1498.185059,404.173035 1488.203125,407.343842 1477.704834,410.336975 
	C1477.201172,410.200439 1476.940552,409.957916 1476.940552,409.957916 
	C1483.738647,403.019379 1490.633789,396.172791 1497.310181,389.119080 
	C1505.713379,380.241272 1514.337036,371.517700 1522.018311,362.040955 
	C1524.632690,358.815460 1524.768188,353.532043 1525.886841,349.150787 
	C1532.808838,322.044037 1539.712402,294.932587 1546.564453,267.808136 
	C1548.318726,260.863464 1549.923950,253.879181 1551.459595,246.882782 
	C1551.784912,245.400513 1551.506836,243.785797 1551.506836,242.075241 
	C1527.831055,245.525223 1504.713867,248.893814 1480.945801,252.357254 
	C1482.574585,242.327316 1484.156250,233.086868 1485.555908,223.818893 
	C1486.800415,215.577255 1487.883301,207.310181 1488.924438,199.040070 
	C1489.057129,197.986160 1488.505859,196.846161 1488.204102,195.348526 
z"/>
<path fill="#F05234" opacity="1.000000" stroke="none" 
	d="
M1094.969238,953.649231 
	C1082.374756,956.293457 1069.616699,958.746582 1056.807373,960.892761 
	C1050.603394,961.932251 1044.302979,962.395935 1037.313232,962.997559 
	C1019.754395,945.732178 1002.869934,928.646606 986.151733,911.399841 
	C982.753357,907.894043 979.981262,903.781189 976.920471,899.948120 
	C985.321960,891.405640 992.812256,882.144775 997.375732,870.975586 
	C1000.053040,864.422729 1001.834229,857.503784 1004.425842,850.122437 
	C1005.568237,841.369202 1006.303345,833.243042 1007.038452,825.116943 
	C1013.938782,824.684082 1020.848633,824.366272 1027.737427,823.794312 
	C1041.799561,822.626892 1055.867676,821.486938 1069.900269,820.020142 
	C1080.167114,818.947021 1090.406738,817.536072 1100.611816,815.971252 
	C1110.957397,814.384949 1121.245728,812.424683 1132.223755,810.512390 
	C1131.842896,817.903503 1131.833008,825.325989 1131.010986,832.657410 
	C1128.788452,852.482971 1127.033325,872.412781 1123.579956,892.034973 
	C1119.466553,915.407349 1110.810669,936.907959 1090.061523,952.538391 
	C1092.469604,952.942932 1093.627197,953.137390 1094.969238,953.649231 
z"/>
<path fill="#F05234" opacity="1.000000" stroke="none" 
	d="
M1318.519531,856.042847 
	C1319.899170,856.894287 1320.947632,857.655701 1322.640625,858.885254 
	C1312.194702,865.742798 1302.226929,872.576477 1291.980469,878.963013 
	C1247.181030,906.886597 1199.351807,928.061707 1148.674805,942.812500 
	C1147.297729,943.213318 1145.808105,943.227478 1144.176514,942.753906 
	C1145.328369,938.785645 1147.079346,935.588501 1147.951050,932.167419 
	C1151.796753,917.075073 1156.281738,902.067078 1158.839355,886.745544 
	C1161.803101,868.990723 1163.078491,850.948425 1164.908691,833.012756 
	C1165.611450,826.124512 1165.823242,819.186096 1166.227661,811.949951 
	C1166.948242,808.617859 1164.410278,804.526978 1169.644409,803.037170 
	C1205.022827,792.967224 1240.364014,782.766541 1275.717163,772.608154 
	C1276.874146,788.935303 1279.830811,804.827209 1286.706665,819.841431 
	C1293.077148,833.752747 1301.975342,845.455750 1315.203247,853.546753 
	C1316.284302,854.208008 1317.197144,855.144226 1318.519531,856.042847 
z"/>
<path fill="#FDBB31" opacity="1.000000" stroke="none" 
	d="
M976.613892,899.898682 
	C979.981262,903.781189 982.753357,907.894043 986.151733,911.399841 
	C1002.869934,928.646606 1019.754395,945.732178 1036.886475,963.046875 
	C1042.484131,968.429077 1047.775757,973.639038 1053.476196,979.361084 
	C1054.533691,980.613770 1055.106323,981.441650 1055.841919,982.082458 
	C1082.024658,1004.893921 1108.026489,1027.918945 1134.498047,1050.390869 
	C1148.661499,1062.414307 1163.637695,1073.480225 1178.247070,1084.978271 
	C1170.614136,1090.290894 1162.902588,1095.495605 1155.388550,1100.971436 
	C1152.560059,1103.032715 1150.761108,1101.420410 1148.780396,1099.967163 
	C1119.542725,1078.515137 1089.718018,1057.809204 1061.213257,1035.422852 
	C992.427795,981.402527 929.839478,920.793640 872.772339,854.499451 
	C871.144897,852.608887 869.412781,850.808411 867.423706,848.803955 
	C882.466125,841.431152 897.814392,834.220459 913.708862,827.251221 
	C919.303528,833.863342 924.210022,840.352966 929.432861,846.577209 
	C937.529053,856.225769 945.840881,865.693359 954.061279,875.237732 
	C954.183716,876.778015 953.706360,878.852722 954.525574,879.772217 
	C960.012024,885.930664 965.694336,891.923035 971.516174,897.766968 
	C972.658752,898.913818 974.687317,899.177979 976.613892,899.898682 
z"/>
<path fill="#F05234" opacity="1.000000" stroke="none" 
	d="
M1522.976440,614.924622 
	C1520.923950,619.960876 1519.145508,625.130005 1516.777954,630.013489 
	C1479.688599,706.513245 1428.812988,772.357178 1363.919556,827.318115 
	C1362.472168,828.543945 1360.498413,829.148560 1358.423340,830.173462 
	C1357.185791,829.548218 1356.239868,828.076782 1355.412476,828.140808 
	C1332.741211,829.894714 1315.867188,814.188538 1310.969849,789.782104 
	C1310.366333,786.774719 1309.654663,783.789062 1308.983765,779.933472 
	C1308.659424,775.212769 1308.049927,771.345398 1308.134521,767.493286 
	C1308.189697,764.977783 1309.252319,762.484375 1310.225830,760.080688 
	C1311.057495,759.757019 1311.526978,759.333740 1311.994629,758.946350 
	C1311.992676,758.982239 1311.924683,758.958496 1312.271729,759.148621 
	C1314.085205,758.537109 1315.551758,757.735413 1317.018188,756.933716 
	C1317.018188,756.933716 1317.005371,757.001709 1317.327515,757.162415 
	C1319.105591,756.526611 1320.561401,755.730103 1322.017212,754.933594 
	C1322.017212,754.933533 1322.005005,755.000916 1322.322144,755.170898 
	C1324.099243,754.538818 1325.559204,753.736633 1327.019165,752.934570 
	C1327.019165,752.934570 1327.006348,753.002930 1327.329834,753.131653 
	C1328.106079,752.817749 1328.558960,752.375122 1329.011719,751.932495 
	C1329.011719,751.932495 1329.005981,751.995911 1329.203979,752.236572 
	C1330.281250,752.044617 1331.160522,751.612061 1332.039795,751.179565 
	C1349.657104,742.652771 1367.409546,734.392273 1384.859131,725.535156 
	C1409.628418,712.962830 1433.019653,697.976807 1454.492188,680.467651 
	C1472.110718,666.101257 1488.360352,650.031250 1504.906982,634.388672 
	C1510.982788,628.644958 1516.169556,621.960999 1522.136719,615.335205 
	C1522.511597,614.964539 1522.976440,614.924622 1522.976440,614.924622 
z"/>
<path fill="#EF5234" opacity="1.000000" stroke="none" 
	d="
M699.575806,454.820160 
	C681.572388,409.305481 665.221802,363.234375 651.909180,315.594696 
	C666.806274,308.715576 681.582764,301.892120 696.706421,295.000793 
	C698.547852,298.008301 700.017029,301.096252 701.540344,304.157227 
	C718.594604,338.425781 737.877686,371.387451 759.488159,402.985565 
	C761.895508,406.505524 764.203186,410.093689 766.910156,414.183655 
	C742.857117,424.834076 720.430908,438.261780 699.575806,454.820160 
z"/>
<path fill="#EF5134" opacity="1.000000" stroke="none" 
	d="
M1285.691284,664.908936 
	C1288.236816,664.006897 1290.388916,663.172058 1292.827148,662.226135 
	C1292.827148,663.424500 1293.052612,664.434021 1292.794067,665.298889 
	C1286.157593,687.500854 1282.068481,710.209473 1279.002441,733.140015 
	C1278.800293,734.651428 1277.272949,736.816467 1275.923950,737.222595 
	C1240.447266,747.901062 1204.913574,758.389893 1169.381714,768.884033 
	C1168.774902,769.063232 1168.068848,768.906433 1166.359253,768.906433 
	C1166.359253,761.281616 1166.429077,753.668213 1166.342041,746.056580 
	C1166.225830,735.894836 1166.153442,725.727173 1165.703247,715.577942 
	C1165.564331,712.445923 1166.736938,711.242859 1169.355591,710.107727 
	C1189.276245,701.472656 1209.073120,692.548889 1229.055176,684.060364 
	C1234.828247,681.608032 1238.897949,677.508972 1242.774414,672.990784 
	C1244.679443,670.770264 1246.535522,670.131287 1249.655029,670.588257 
	C1261.179932,672.276367 1272.016846,668.478638 1282.926514,665.545959 
	C1283.711304,665.334961 1284.507080,665.165039 1285.691284,664.908936 
z"/>
<path fill="#EF5134" opacity="1.000000" stroke="none" 
	d="
M1134.192139,736.073364 
	C1134.192139,748.721924 1134.147461,760.883728 1134.227783,773.044617 
	C1134.244751,775.619385 1133.985229,777.296509 1130.861694,778.003662 
	C1090.451782,787.151917 1049.567017,792.028198 1008.118286,792.017883 
	C1007.629333,792.017761 1007.140320,791.905457 1006.681335,791.849243 
	C1004.106506,784.974976 1003.953857,784.573975 1010.571838,782.054626 
	C1029.734863,774.759827 1043.680054,760.097534 1059.445557,748.010498 
	C1065.388062,743.454468 1070.890869,738.305359 1076.973022,733.956848 
	C1081.558228,730.678589 1084.245605,726.521729 1086.082397,721.351074 
	C1088.968628,713.226562 1092.244141,705.240417 1095.782837,696.088745 
	C1102.758301,709.157776 1109.320557,721.452759 1116.123779,734.199036 
	C1122.108398,731.553162 1127.902100,728.991699 1134.192139,726.210815 
	C1134.192139,729.657593 1134.192139,732.621887 1134.192139,736.073364 
z"/>
<path fill="#EF5234" opacity="1.000000" stroke="none" 
	d="
M954.366943,875.065430 
	C945.840881,865.693359 937.529053,856.225769 929.432861,846.577209 
	C924.210022,840.352966 919.303528,833.863342 914.072998,827.202271 
	C924.171021,820.109558 935.425781,823.280273 946.427490,823.681702 
	C952.708862,823.910950 958.998840,823.910828 965.285156,823.994629 
	C967.574463,824.025146 969.864563,823.999573 972.699524,823.999573 
	C972.195984,843.336426 966.318298,860.114929 954.366943,875.065430 
z"/>
<path fill="#000000" opacity="1.000000" stroke="none" 
	d="
M489.036072,332.284119 
	C493.363281,345.051788 497.368164,358.348083 502.054626,371.399597 
	C515.093079,407.710693 527.832336,444.146881 541.825134,480.091675 
	C551.467041,504.859955 563.002930,528.890808 573.668701,553.261536 
	C573.918518,553.832214 573.887878,554.525574 573.919128,555.538818 
	C568.700378,545.204224 563.148560,534.664185 558.484619,523.744995 
	C548.825012,501.130402 538.896484,478.586090 530.430786,455.516693 
	C517.927856,421.445923 506.552246,386.960205 494.822052,352.608337 
	C492.590973,346.074585 490.942261,339.341919 489.036072,332.284119 
z"/>
<path fill="#000000" opacity="1.000000" stroke="none" 
	d="
M1166.258789,812.270569 
	C1165.823242,819.186096 1165.611450,826.124512 1164.908691,833.012756 
	C1163.078491,850.948425 1161.803101,868.990723 1158.839355,886.745544 
	C1156.281738,902.067078 1151.796753,917.075073 1147.951050,932.167419 
	C1147.079346,935.588501 1145.328369,938.785645 1143.993896,942.453735 
	C1143.565308,942.876526 1143.125122,942.931396 1142.357910,942.911743 
	C1149.106812,928.140381 1153.273315,912.502441 1155.869141,896.534668 
	C1158.457520,880.613403 1160.313843,864.553894 1161.912231,848.497375 
	C1163.090698,836.659668 1163.280762,824.725586 1164.035645,812.842346 
	C1164.254395,809.397949 1164.902344,805.980896 1165.679321,802.767212 
	C1166.089600,806.078979 1166.174194,809.174744 1166.258789,812.270569 
z"/>
<path fill="#FDEFEC" opacity="1.000000" stroke="none" 
	d="
M1166.227661,811.949951 
	C1166.174194,809.174744 1166.089600,806.078979 1166.008301,802.542358 
	C1179.273193,798.629150 1192.622681,795.456909 1205.777466,791.617493 
	C1228.487915,784.988953 1251.074585,777.936707 1273.734253,771.132141 
	C1274.276123,770.969421 1275.065674,771.631042 1275.728394,772.258179 
	C1240.364014,782.766541 1205.022827,792.967224 1169.644409,803.037170 
	C1164.410278,804.526978 1166.948242,808.617859 1166.227661,811.949951 
z"/>
<path fill="#000000" opacity="1.000000" stroke="none" 
	d="
M1522.983887,614.958252 
	C1522.976440,614.924622 1522.511597,614.964539 1522.285645,615.020203 
	C1526.830566,603.145935 1532.038574,591.368469 1536.267578,579.249451 
	C1542.239502,562.135986 1547.483276,544.768494 1553.052002,527.514038 
	C1553.505249,526.109497 1554.063110,524.738708 1554.910156,523.167114 
	C1551.165771,537.132507 1547.684082,551.492249 1542.845337,565.379150 
	C1537.176758,581.647461 1530.327026,597.504150 1523.554199,613.892944 
	C1522.905396,614.461304 1522.840454,614.714355 1522.923828,615.005737 
	C1522.923828,615.005737 1522.991211,614.991821 1522.983887,614.958252 
z"/>
<path fill="#000000" opacity="1.000000" stroke="none" 
	d="
M1309.863770,759.981079 
	C1309.252319,762.484375 1308.189697,764.977783 1308.134521,767.493286 
	C1308.049927,771.345398 1308.659424,775.212769 1308.905518,779.529968 
	C1308.228516,773.847534 1307.383423,767.714966 1307.224365,761.564575 
	C1307.194580,760.415649 1309.914795,759.195496 1311.681641,758.235657 
	C1311.973022,758.628235 1311.948853,758.793396 1311.924683,758.958496 
	C1311.924683,758.958496 1311.992676,758.982239 1311.662598,758.983154 
	C1310.842773,759.316406 1310.353271,759.648743 1309.863770,759.981079 
z"/>
<path fill="#000000" opacity="1.000000" stroke="none" 
	d="
M1006.697632,825.343933 
	C1006.303345,833.243042 1005.568237,841.369202 1004.516479,849.713135 
	C1004.918884,841.810974 1005.637817,833.690979 1006.697632,825.343933 
z"/>
<path fill="#000000" opacity="1.000000" stroke="none" 
	d="
M483.102295,311.391785 
	C485.107208,317.718811 487.058624,324.453033 489.080750,331.600098 
	C487.117249,325.274963 485.083008,318.536987 483.102295,311.391785 
z"/>
<path fill="#000000" opacity="1.000000" stroke="none" 
	d="
M559.001343,1002.025513 
	C557.488770,1003.159973 555.592773,1004.311157 553.353271,1005.269897 
	C554.879150,1004.065735 556.748535,1003.053955 559.001343,1002.025513 
z"/>
<path fill="#FDEBE8" opacity="1.000000" stroke="none" 
	d="
M1326.652588,752.995728 
	C1325.559204,753.736633 1324.099243,754.538818 1322.288574,755.164307 
	C1323.387207,754.344116 1324.836548,753.700500 1326.652588,752.995728 
z"/>
<path fill="#FDEBE8" opacity="1.000000" stroke="none" 
	d="
M1321.650635,754.993103 
	C1320.561401,755.730103 1319.105591,756.526611 1317.293579,757.155884 
	C1318.386353,756.343384 1319.835205,755.697998 1321.650635,754.993103 
z"/>
<path fill="#FDEBE8" opacity="1.000000" stroke="none" 
	d="
M1312.271729,759.148621 
	C1311.948853,758.793396 1311.973022,758.628235 1312.094727,758.231689 
	C1313.557007,757.684509 1314.921753,757.368652 1316.652344,756.993286 
	C1315.551758,757.735413 1314.085205,758.537109 1312.271729,759.148621 
z"/>
<path fill="#FDEBE8" opacity="1.000000" stroke="none" 
	d="
M1331.751953,751.147278 
	C1331.160522,751.612061 1330.281250,752.044617 1329.174438,752.224854 
	C1329.786011,751.686646 1330.625122,751.400818 1331.751953,751.147278 
z"/>
<path fill="#000000" opacity="1.000000" stroke="none" 
	d="
M552.729248,1005.054565 
	C552.639221,1005.683960 552.200745,1006.334412 551.394531,1007.026001 
	C551.478149,1006.403259 551.929504,1005.739441 552.729248,1005.054565 
z"/>
<path fill="#FDEBE8" opacity="1.000000" stroke="none" 
	d="
M1328.694336,751.987793 
	C1328.558960,752.375122 1328.106079,752.817749 1327.295410,753.126099 
	C1327.417358,752.675537 1327.897095,752.359314 1328.694336,751.987793 
z"/>
<path fill="#F05134" opacity="1.000000" stroke="none" 
	d="
M1477.313232,410.338684 
	C1477.084961,410.576782 1476.744385,410.676666 1476.403931,410.776550 
	C1476.416260,410.554688 1476.428467,410.332886 1476.690674,410.034485 
	C1476.940552,409.957916 1477.201172,410.200439 1477.313232,410.338684 
z"/>
<path fill="#FEFEFE" opacity="1.000000" stroke="none" 
	d="
M1046.932007,426.961548 
	C1046.793945,427.066223 1046.462891,426.999298 1046.219238,426.719910 
	C1046.450806,426.601624 1046.594849,426.695801 1046.932007,426.961548 
z"/>
<path fill="#017AC1" opacity="1.000000" stroke="none" 
	d="
M1178.599854,1085.010132 
	C1163.637695,1073.480225 1148.661499,1062.414307 1134.498047,1050.390869 
	C1108.026489,1027.918945 1082.024658,1004.893921 1055.841919,982.082458 
	C1055.106323,981.441650 1054.533691,980.613770 1053.724854,979.568848 
	C1143.403320,969.290100 1227.415527,941.688293 1304.242676,893.977539 
	C1442.198853,808.304749 1532.182495,686.510864 1574.581543,529.825256 
	C1589.994263,472.867676 1595.961426,414.625183 1593.645508,355.669800 
	C1592.482544,326.061920 1590.515259,296.436340 1582.916382,267.588684 
	C1580.597656,258.785858 1577.290161,250.247971 1574.650146,241.523773 
	C1572.544556,234.565842 1570.765137,227.509186 1568.615479,219.674652 
	C1570.786011,219.958176 1572.643188,220.108429 1574.463623,220.452530 
	C1597.973267,224.896484 1620.201782,233.619324 1642.266479,242.305328 
	C1678.762817,256.672516 1714.643799,272.599182 1750.860352,287.685730 
	C1754.702759,289.286377 1755.095825,291.025055 1754.003418,294.754883 
	C1696.296631,491.789490 1601.322021,668.804565 1468.686523,825.519836 
	C1385.200439,924.162659 1289.743652,1009.609558 1183.267456,1082.785767 
	C1181.939575,1083.698364 1180.395630,1084.296875 1178.599854,1085.010132 
z"/>
<path fill="#012D62" opacity="1.000000" stroke="none" 
	d="
M1556.198486,512.328613 
	C1556.257690,512.051758 1556.507446,511.954437 1556.822144,512.102234 
	C1556.721069,512.400940 1556.555054,512.454529 1556.198486,512.328613 
z"/>
<path fill="#F05234" opacity="1.000000" stroke="none" 
	d="
M1523.118530,614.959717 
	C1522.840454,614.714355 1522.905396,614.461304 1523.313477,614.197571 
	C1523.500610,614.418213 1523.435547,614.673279 1523.118530,614.959717 
z"/>
<path fill="#012E63" opacity="1.000000" stroke="none" 
	d="
M671.942078,796.948608 
	C678.416931,781.677124 684.577942,766.263550 691.418945,751.157898 
	C728.630310,668.991211 766.030457,586.910034 803.260803,504.751953 
	C804.919617,501.091492 807.186829,499.194458 811.016785,498.032715 
	C834.064636,491.042053 857.032166,483.786591 880.031738,476.636261 
	C881.240295,476.260529 882.495728,476.035187 884.543823,475.544861 
	C883.615417,477.731140 883.018738,479.190094 882.380859,480.630859 
	C842.169312,571.458923 801.938171,662.278320 761.803650,753.140442 
	C760.295166,756.555603 758.253784,758.603882 754.809692,760.156067 
	C727.551392,772.440552 700.397156,784.956116 672.729248,797.328857 
	C672.247437,797.256958 671.942078,796.948608 671.942078,796.948608 
z"/>
<path fill="#012E63" opacity="1.000000" stroke="none" 
	d="
M672.381592,797.427490 
	C672.176025,797.430298 671.836243,797.262512 671.719299,797.021667 
	C671.942078,796.948608 672.247437,797.256958 672.381592,797.427490 
z"/>
<path fill="#FEEECB" opacity="1.000000" stroke="none" 
	d="
M1245.407227,174.727722 
	C1241.902466,174.784424 1238.397583,174.841125 1234.415283,174.882874 
	C1236.459595,174.305679 1238.978638,173.271179 1241.503906,173.255539 
	C1262.640869,173.124756 1283.779175,173.181183 1304.962036,173.703217 
	C1303.596680,173.836151 1302.231445,173.969070 1300.500244,174.223419 
	C1284.267456,174.345520 1268.400391,174.346207 1251.723389,174.293045 
	C1249.078003,174.402023 1247.242554,174.564865 1245.407227,174.727722 
z"/>
<path fill="#FDBB33" opacity="1.000000" stroke="none" 
	d="
M1245.750244,174.810913 
	C1247.242554,174.564865 1249.078003,174.402023 1251.236450,174.387650 
	C1249.737549,174.655441 1247.915405,174.774796 1245.750244,174.810913 
z"/>
<path fill="#FDEBE8" opacity="1.000000" stroke="none" 
	d="
M1310.225830,760.080688 
	C1310.353271,759.648743 1310.842773,759.316406 1311.664551,758.947266 
	C1311.526978,759.333740 1311.057495,759.757019 1310.225830,760.080688 
z"/>
</svg>