<?xml version="1.0" encoding="utf-8"?>
<!-- Generator: Adobe Illustrator 24.0.1, SVG Export Plug-In . SVG Version: 6.00 Build 0)  -->
<svg version="1.1" id="Layer_2_1_" xmlns="http://www.w3.org/2000/svg" xmlns:xlink="http://www.w3.org/1999/xlink" x="0px" y="0px"
	 viewBox="0 0 400 400" style="enable-background:new 0 0 400 400;" xml:space="preserve">
<g>
	<path fill="#919798" opacity="1.000000" stroke="none" d="M249.3,189l0.4-33.7c0-15.8-16.5-18.5-28.7-18.3c8.2-2.7,18-7.3,25.1-15c7.4-6.9,12.8-16.6,11.8-30.2
		c-1.5-22.9-30.2-34.3-77.6-29.7c-0.8,0.1-1.6,0.2-2.3,0.2c-2.2-16.9-5.7-33.3-11-48.4l-2.3,2.3c-6.3,19.6-10.1,35.2-12.3,49.6
		c-28.3,4.9-48.1,11.4-48.1,11.4l-2.3,2.3c0,0,22.9-2.1,49-1.7c-2.9,29.7,0.1,57.8,0,111.1c-42.1-1.2-79.1,5.8-88.2,17.1
		c-3,2.4-4.6,5.1-4.5,8c0.5,12.9,38.8,24.7,92.6,29.3l2.3,73.2l2.3-2.3l3.8-49.6c0-0.8,0.1-1.5,0.3-2.1c1.1,0.2,2.2,1.6,2.2,4.1
		l1.7,65.3l2.3-2.3l4-53.2c0-1.2,0.1-2.2,0.3-2.9c1.1,0.2,2.2,1.9,2.1,4.9l1.9,68.1l2.3-2.3l3.2-99.1c6.2,0.2,12.5,0.3,18.9,0.3
		c6.8,0,13.5-0.1,20.1-0.3l3.3,103.3l2.3-2.3l2.8-54.1c0-1.1,0.1-2,0.3-2.7c1.1,0.2,2,1.8,2,4.6l2.8,75.9l2.3-2.3l2.8-65.5
		c0-0.9,0.2-1.7,0.4-2.4c1.3,0,2.7,1.6,2.8,4.7l2.3,86.9l2.3-2.3l3.4-145.4c46-4,81-13.3,89.6-24c2.9-2.4,4.4-4.9,4.4-7.5
		C342.1,197.6,299.5,186.7,249.3,189 M150.5,228c-36.9-3.6-61.8-11-61.8-20.5c0-0.7,0.2-1.4,0.6-2c8.6-6.1,35.2-9.9,61.7-13.9
		c0,10.4-0.2,21.7-0.5,34.2L150.5,228z M225.7,101c1.4,10.4-1.6,18.3-7,24.3c-9.6,8.7-24.7,12.7-37,14.5c0.2-19.7-0.1-40.2-1.8-60.2
		C203.6,82.1,223.9,88.1,225.7,101 M218.7,230c-5.8,0.2-11.7,0.3-17.7,0.3c-7.1,0-14.1-0.1-20.8-0.4l0.3-8.4
		c-0.6-21.3,0.7-48,1.1-76.6c17.3,2,38.1,6.9,37.8,19.1L218.7,230z M310.5,213.6c-8.6,6.8-31.5,12-61.6,14.7l0.4-36.3
		c34.5,4.5,62.6,9.6,62.6,17.8C311.9,211.1,311.4,212.4,310.5,213.6"/>
	<path fill="#FFFFFF" opacity="1.000000" stroke="none" d="M342.7,211.8c-0.6-14.2-43.2-25.1-93.4-22.7l0.4-33.7c-0.1-20.9-28.6-18.8-38.3-17.6
		c11.2-2,48.9-11.4,46.5-45.9c-1.6-22.9-30.2-34.3-77.6-29.7c-0.8,0.1-1.6,0.2-2.3,0.2c-2.2-16.9-5.7-33.3-11-48.4
		c-6.6,20.5-10.4,36.6-12.6,51.6c-29.4,4.9-50.2,11.7-50.2,11.7s22.9-2.1,49-1.7c-2.9,30.1,0.1,58.7,0,113.5
		c-49.9-1.8-93.1,8-92.6,22.7c0.4,12.9,38.8,24.8,92.6,29.3l2.3,73.1l3.8-49.6c0.1-6.2,4.8-5.6,4.8-0.3l1.7,65.3l4-53.2
		c-0.1-7.2,5-6.8,4.8-0.4l1.9,68.1l3.3-101.5c6.9,0.2,14,0.4,21.2,0.4c6.8,0,13.5-0.1,20.1-0.3l3.3,103.3l2.8-54.1
		c0-6.9,4.7-6.5,4.7-0.4l2.8,75.9l2.8-65.5c0.2-6.4,5.4-6.2,5.5,0l2.3,86.9l3.5-147.5v-0.1C303.2,236.6,342.7,224.7,342.7,211.8
		 M228,98.7c3.9,28.6-25.3,38-46.3,41.1c0.2-20.5-0.1-41.9-2-62.8C204.4,79.3,226.2,85.3,228,98.7 M88.7,207.5
		c0-8.7,32.3-13.4,64.6-18.2c0,10.4-0.2,21.7-0.5,34.2l0.1,4.8C114.7,224.8,88.7,217.2,88.7,207.5 M180.2,229.9l0.3-8.4
		c-0.7-21.9,0.8-49.6,1.2-79.1c17.7,1.8,40.4,6.6,40.1,19.3l-0.6,68.2c-6.5,0.2-13.2,0.3-20.1,0.3
		C193.9,230.3,186.9,230.2,180.2,229.9 M248.9,228.3l0.5-38.9c35.6,4.6,64.9,9.7,64.9,18.2C314.2,217.2,287.5,224.8,248.9,228.3"/>
</g>
</svg>
