<svg version="1.1" id="Layer_1" xmlns="http://www.w3.org/2000/svg" xmlns:xlink="http://www.w3.org/1999/xlink" x="0px" y="0px"
	 width="100%" viewBox="0 0 695 804" enable-background="new 0 0 695 804" xml:space="preserve">
<path fill="none" opacity="1.000000" stroke="none"
	d="
M226.000000,805.000000 
	C151.010574,805.000000 76.021164,805.000000 1.015872,805.000000 
	C1.015872,537.048401 1.015872,269.096771 1.015872,1.072588 
	C232.585571,1.072588 464.171173,1.072588 695.878418,1.072588 
	C695.878418,268.881042 695.878418,536.762207 695.878418,805.000000 
	C540.307678,805.000000 384.615082,805.000000 228.466309,804.599487 
	C228.209732,803.774414 228.473145,803.367981 228.599670,802.922607 
	C233.467407,785.786499 238.273239,768.632568 243.193802,751.511658 
	C247.802216,735.476929 252.497238,719.466797 257.218201,703.464722 
	C260.113556,693.650879 263.129333,683.872498 266.041168,674.242981 
	C313.171844,686.379578 359.810150,698.389404 406.448456,710.399231 
	C404.475098,706.554749 401.841553,703.709961 399.327606,700.763123 
	C389.988312,689.815613 380.742279,678.788147 371.356140,667.881104 
	C364.185791,659.548889 356.805847,651.397217 349.610443,643.086182 
	C339.430969,631.328430 329.485229,619.363464 319.101776,607.790161 
	C316.419617,604.800781 316.730591,603.233398 319.513550,601.055969 
	C324.508789,597.147644 329.467957,593.189148 334.344971,589.134705 
	C341.009338,583.594299 347.522797,577.871826 354.209015,572.358459 
	C364.894745,563.547058 375.680817,554.857422 386.402374,546.089294 
	C393.849640,539.998840 401.302795,533.914368 408.672485,527.730896 
	C414.130005,523.151794 419.457489,518.417725 424.842896,513.752625 
	C419.158417,513.078369 413.839325,513.609924 408.509064,513.981018 
	C398.174744,514.700500 387.838928,515.417664 377.495117,515.976135 
	C361.378326,516.846375 345.254364,517.583496 329.109680,518.378174 
	C329.152924,518.006226 329.069214,517.578918 329.244232,517.384521 
	C341.904388,503.324738 354.635529,489.328461 367.243378,475.222015 
	C373.792908,467.893982 380.074432,460.326965 386.582153,452.960754 
	C389.742615,449.383423 392.915192,446.757751 398.626160,446.812073 
	C437.121674,447.178223 475.622559,446.950439 514.120972,447.099518 
	C517.297791,447.111786 519.364685,446.286896 520.804626,443.622040 
	C524.239136,437.266235 527.591675,430.865051 531.101135,424.550995 
	C539.146973,410.075470 547.216980,395.612885 555.369629,381.197327 
	C564.865173,364.407166 574.496033,347.693604 583.997925,330.907043 
	C590.571167,319.294434 596.967651,307.581726 603.546753,295.972473 
	C612.978943,279.328888 622.514282,262.743835 631.989197,246.124451 
	C640.187866,231.743469 648.425659,217.384201 656.522705,202.946167 
	C660.403809,196.025711 663.333984,189.201813 663.249878,180.573654 
	C662.749817,129.246536 663.002747,77.912048 663.002747,26.580042 
	C663.002747,24.807518 663.002808,23.034994 663.002808,20.997456 
	C628.847595,20.997456 595.211365,20.982555 561.575500,21.073254 
	C560.619507,21.075830 559.265747,21.974253 558.772949,22.839643 
	C552.415039,34.004192 546.217041,45.259609 539.903015,56.449383 
	C534.133850,66.673508 528.214966,76.813286 522.467163,87.049263 
	C515.784668,98.949814 508.815369,110.586922 507.836273,124.901314 
	C506.927002,138.195465 504.726471,151.406128 502.937073,164.632248 
	C502.421234,168.444778 502.194611,172.641769 500.414124,175.881378 
	C489.499695,195.740601 478.134033,215.351196 467.001709,235.091431 
	C454.368744,257.492615 441.846283,279.956177 429.172699,302.334198 
	C428.511841,303.501068 426.891968,304.875854 425.709259,304.884552 
	C404.637115,305.038879 383.563538,304.996582 362.114441,304.996582 
	C363.365234,302.388916 364.278290,300.162750 365.453705,298.084961 
	C376.612885,278.358795 387.802521,258.649841 399.012177,238.952301 
	C407.202271,224.560776 415.604126,210.285721 423.528595,195.749954 
	C425.459259,192.208572 426.841431,187.850800 426.858124,183.861633 
	C427.076019,131.697235 427.002869,79.531609 427.002869,27.366289 
	C427.002869,25.614243 427.002869,23.862198 427.002869,21.997198 
	C391.841858,21.997198 357.351624,21.968004 322.862061,22.105413 
	C321.502197,22.110832 319.586945,23.381596 318.879517,24.609562 
	C312.137329,36.312313 305.573364,48.118259 299.011688,59.924294 
	C291.668793,73.136055 284.318573,86.344597 277.111084,99.630226 
	C275.148407,103.248039 272.943939,106.991447 272.164917,110.936745 
	C270.873169,117.478813 270.771179,124.246689 269.944702,130.891678 
	C268.378784,143.481796 266.730682,156.063065 264.943085,168.623306 
	C264.494568,171.774673 263.984680,175.161789 262.485840,177.879654 
	C252.474182,196.034058 242.138214,214.009171 232.004318,232.096725 
	C223.519897,247.240250 215.234802,262.495544 206.738602,277.632416 
	C196.270386,296.282654 185.660797,314.853485 175.139267,333.473907 
	C167.866409,346.344910 160.436279,359.134216 153.518295,372.194061 
	C151.510666,375.984100 147.445312,379.473389 149.265182,384.590851 
	C151.033798,389.564240 153.144333,394.414917 155.019714,399.351807 
	C157.745880,406.528290 160.395767,413.733734 162.903931,421.130859 
	C162.625885,421.480530 162.522095,421.626221 162.158386,421.550720 
	C156.208115,415.169952 150.517761,409.010315 144.009796,401.965637 
	C144.009796,405.679565 143.834946,408.135742 144.038300,410.560150 
	C145.310944,425.733063 146.789566,440.889557 147.957077,456.070160 
	C148.827545,467.388336 149.288757,478.737457 150.018524,490.067230 
	C150.355408,495.297516 150.896515,500.514679 151.348557,505.737488 
	C151.951294,512.701660 152.557480,519.665527 153.152420,526.517029 
	C149.177536,527.065369 145.815384,527.776917 142.425308,527.954041 
	C127.763306,528.720337 113.093132,529.330322 98.425926,529.997070 
	C83.758720,530.663696 69.093727,531.384888 54.423569,531.978210 
	C43.844910,532.406067 33.259132,532.656555 22.677216,533.007019 
	C21.471483,533.046997 20.270216,533.221680 17.610670,533.469727 
	C54.597824,559.699280 90.436409,585.114319 126.608192,610.765686 
	C101.115166,648.586121 75.921875,685.961853 50.728584,723.337585 
	C50.946114,723.696899 51.163643,724.056152 51.381168,724.415405 
	C93.013741,710.799866 134.646317,697.184326 176.146790,683.611938 
	C177.846756,687.586853 179.313263,690.940857 180.720673,694.319580 
	C186.818512,708.958252 192.892822,723.606750 198.987686,738.246643 
	C205.267090,753.329834 211.632080,768.377808 217.816116,783.499939 
	C220.717850,790.595581 223.282562,797.828979 226.000000,805.000000 
z"/>
<path fill="#FEFEFE" opacity="1.000000" stroke="none" 
	d="
M163.078171,420.926849 
	C160.395767,413.733734 157.745880,406.528290 155.019714,399.351807 
	C153.144333,394.414917 151.033798,389.564240 149.265182,384.590851 
	C147.445312,379.473389 151.510666,375.984100 153.518295,372.194061 
	C160.436279,359.134216 167.866409,346.344910 175.139267,333.473907 
	C185.660797,314.853485 196.270386,296.282654 206.738602,277.632416 
	C215.234802,262.495544 223.519897,247.240250 232.004318,232.096725 
	C242.138214,214.009171 252.474182,196.034058 262.485840,177.879654 
	C263.984680,175.161789 264.494568,171.774673 264.943085,168.623306 
	C266.730682,156.063065 268.378784,143.481796 269.944702,130.891678 
	C270.771179,124.246689 270.873169,117.478813 272.164917,110.936745 
	C272.943939,106.991447 275.148407,103.248039 277.111084,99.630226 
	C284.318573,86.344597 291.668793,73.136055 299.011688,59.924294 
	C305.573364,48.118259 312.137329,36.312313 318.879517,24.609562 
	C319.586945,23.381596 321.502197,22.110832 322.862061,22.105413 
	C357.351624,21.968004 391.841858,21.997198 427.002869,21.997198 
	C427.002869,23.862198 427.002869,25.614243 427.002869,27.366289 
	C427.002869,79.531609 427.076019,131.697235 426.858124,183.861633 
	C426.841431,187.850800 425.459259,192.208572 423.528595,195.749954 
	C415.604126,210.285721 407.202271,224.560776 399.012177,238.952301 
	C387.802521,258.649841 376.612885,278.358795 365.453705,298.084961 
	C364.278290,300.162750 363.365234,302.388916 362.114441,304.996582 
	C383.563538,304.996582 404.637115,305.038879 425.709259,304.884552 
	C426.891968,304.875854 428.511841,303.501068 429.172699,302.334198 
	C441.846283,279.956177 454.368744,257.492615 467.001709,235.091431 
	C478.134033,215.351196 489.499695,195.740601 500.414124,175.881378 
	C502.194611,172.641769 502.421234,168.444778 502.937073,164.632248 
	C504.726471,151.406128 506.927002,138.195465 507.836273,124.901314 
	C508.815369,110.586922 515.784668,98.949814 522.467163,87.049263 
	C528.214966,76.813286 534.133850,66.673508 539.903015,56.449383 
	C546.217041,45.259609 552.415039,34.004192 558.772949,22.839643 
	C559.265747,21.974253 560.619507,21.075830 561.575500,21.073254 
	C595.211365,20.982555 628.847595,20.997456 663.002808,20.997456 
	C663.002808,23.034994 663.002747,24.807518 663.002747,26.580042 
	C663.002747,77.912048 662.749817,129.246536 663.249878,180.573654 
	C663.333984,189.201813 660.403809,196.025711 656.522705,202.946167 
	C648.425659,217.384201 640.187866,231.743469 631.989197,246.124451 
	C622.514282,262.743835 612.978943,279.328888 603.546753,295.972473 
	C596.967651,307.581726 590.571167,319.294434 583.997925,330.907043 
	C574.496033,347.693604 564.865173,364.407166 555.369629,381.197327 
	C547.216980,395.612885 539.146973,410.075470 531.101135,424.550995 
	C527.591675,430.865051 524.239136,437.266235 520.804626,443.622040 
	C519.364685,446.286896 517.297791,447.111786 514.120972,447.099518 
	C475.622559,446.950439 437.121674,447.178223 398.626160,446.812073 
	C392.915192,446.757751 389.742615,449.383423 386.582153,452.960754 
	C380.074432,460.326965 373.792908,467.893982 367.243378,475.222015 
	C354.635529,489.328461 341.904388,503.324738 329.244232,517.384521 
	C329.069214,517.578918 329.152924,518.006226 329.109680,518.378174 
	C345.254364,517.583496 361.378326,516.846375 377.495117,515.976135 
	C387.838928,515.417664 398.174744,514.700500 408.509064,513.981018 
	C413.839325,513.609924 419.158417,513.078369 424.842896,513.752625 
	C419.457489,518.417725 414.130005,523.151794 408.672485,527.730896 
	C401.302795,533.914368 393.849640,539.998840 386.402374,546.089294 
	C375.680817,554.857422 364.894745,563.547058 354.209015,572.358459 
	C347.522797,577.871826 341.009338,583.594299 334.344971,589.134705 
	C329.467957,593.189148 324.508789,597.147644 319.513550,601.055969 
	C316.730591,603.233398 316.419617,604.800781 319.101776,607.790161 
	C329.485229,619.363464 339.430969,631.328430 349.610443,643.086182 
	C356.805847,651.397217 364.185791,659.548889 371.356140,667.881104 
	C380.742279,678.788147 389.988312,689.815613 399.327606,700.763123 
	C401.841553,703.709961 404.475098,706.554749 406.448456,710.399231 
	C359.810150,698.389404 313.171844,686.379578 266.041168,674.242981 
	C263.129333,683.872498 260.113556,693.650879 257.218201,703.464722 
	C252.497238,719.466797 247.802216,735.476929 243.193802,751.511658 
	C238.273239,768.632568 233.467407,785.786499 228.599670,802.922607 
	C228.473145,803.367981 228.209732,803.774414 228.005066,804.599487 
	C227.555557,805.000000 227.111099,805.000000 226.333328,805.000000 
	C223.282562,797.828979 220.717850,790.595581 217.816116,783.499939 
	C211.632080,768.377808 205.267090,753.329834 198.987686,738.246643 
	C192.892822,723.606750 186.818512,708.958252 180.720673,694.319580 
	C179.313263,690.940857 177.846756,687.586853 176.146790,683.611938 
	C134.646317,697.184326 93.013741,710.799866 51.381168,724.415405 
	C51.163643,724.056152 50.946114,723.696899 50.728584,723.337585 
	C75.921875,685.961853 101.115166,648.586121 126.608192,610.765686 
	C90.436409,585.114319 54.597824,559.699280 17.610670,533.469727 
	C20.270216,533.221680 21.471483,533.046997 22.677216,533.007019 
	C33.259132,532.656555 43.844910,532.406067 54.423569,531.978210 
	C69.093727,531.384888 83.758720,530.663696 98.425926,529.997070 
	C113.093132,529.330322 127.763306,528.720337 142.425308,527.954041 
	C145.815384,527.776917 149.177536,527.065369 153.152420,526.517029 
	C152.557480,519.665527 151.951294,512.701660 151.348557,505.737488 
	C150.896515,500.514679 150.355408,495.297516 150.018524,490.067230 
	C149.288757,478.737457 148.827545,467.388336 147.957077,456.070160 
	C146.789566,440.889557 145.310944,425.733063 144.038300,410.560150 
	C143.834946,408.135742 144.009796,405.679565 144.009796,401.965637 
	C150.517761,409.010315 156.208115,415.169952 162.349976,421.772675 
	C163.136154,422.348907 163.470856,422.482025 163.805542,422.615173 
	C163.563080,422.052399 163.320633,421.489624 163.078171,420.926849 
M546.151184,77.666367 
	C539.265564,89.812790 532.309326,101.920174 525.558228,114.140862 
	C524.312073,116.396698 523.478088,119.059387 523.163452,121.621429 
	C521.235413,137.321655 519.649475,153.064606 517.643677,168.754211 
	C516.958374,174.114868 516.555847,180.005157 514.044434,184.562469 
	C489.175049,229.690781 463.863373,274.575165 438.784424,319.588470 
	C437.199341,322.433472 435.463287,323.429474 432.189026,323.415161 
	C400.524292,323.276886 368.858704,323.335907 337.193359,323.319427 
	C335.803864,323.318695 334.414459,323.132660 332.498108,322.995117 
	C333.631439,320.887329 334.450134,319.293091 335.332214,317.734711 
	C359.404633,275.204437 383.523865,232.700485 407.466919,190.097549 
	C408.997192,187.374619 409.861481,183.891602 409.871948,180.758286 
	C410.023499,135.427353 409.975769,90.095772 409.975739,44.764339 
	C409.975739,42.980064 409.975739,41.195786 409.975739,39.569603 
	C409.233063,39.292152 408.939636,39.086765 408.645996,39.086452 
	C383.147491,39.059265 357.648560,38.988232 332.151611,39.180351 
	C330.585083,39.192154 328.413452,40.946747 327.569092,42.470093 
	C314.274506,66.455452 301.137970,90.528557 288.020691,114.611763 
	C287.165771,116.181381 286.392242,117.956848 286.205475,119.703354 
	C284.700348,133.778671 283.234650,147.860184 281.979309,161.959625 
	C280.989990,173.071289 279.048401,183.469437 273.243286,193.631927 
	C237.956146,255.406052 203.344223,317.565735 168.406754,379.540253 
	C166.776184,382.432709 166.596756,384.734009 167.886612,387.792084 
	C173.307724,400.644836 178.589233,413.561188 183.613678,426.573242 
	C184.917328,429.949371 186.672043,430.861511 190.137634,430.832489 
	C210.135391,430.664856 230.135269,430.750702 250.134430,430.750702 
	C251.735245,430.750702 253.336060,430.750732 255.653305,430.750732 
	C244.835037,458.203705 234.295258,484.950012 223.556854,512.200317 
	C203.560959,490.507355 183.996735,469.282684 163.477692,447.022186 
	C165.843689,479.903656 168.104706,511.326080 170.384247,543.005981 
	C135.508713,544.564331 101.325951,546.091675 65.674561,547.684631 
	C94.260056,567.672791 121.585594,586.779907 148.982407,605.936890 
	C129.376404,635.139648 110.119728,663.822144 90.863060,692.504578 
	C91.064545,692.834656 91.266029,693.164734 91.467514,693.494812 
	C122.675423,683.469666 153.883331,673.444519 185.348587,663.336670 
	C198.371567,694.790344 211.241364,725.874146 224.481796,757.853027 
	C234.754456,722.802124 244.723145,688.788391 254.796997,654.415894 
	C290.114410,663.388306 324.868103,672.217529 360.959625,681.386658 
	C337.413818,654.320007 314.849579,628.381714 292.088074,602.216675 
	C320.108826,578.966309 347.827026,555.967041 376.332031,532.314880 
	C346.828766,534.198669 318.586121,536.002014 289.460999,537.861694 
	C290.891113,536.130554 291.596985,535.225525 292.354614,534.366211 
	C321.996582,500.746033 351.607727,467.098450 381.395447,433.607880 
	C382.867401,431.952972 385.880310,430.878876 388.181427,430.868927 
	C426.512421,430.703125 464.844543,430.701263 503.175812,430.832520 
	C506.741302,430.844757 508.777527,429.953674 510.610291,426.693512 
	C554.923828,347.867462 599.380859,269.122070 643.704468,190.301651 
	C645.007568,187.984360 645.735107,185.014435 645.742126,182.346207 
	C645.863525,136.181793 645.829468,90.016968 645.829529,43.852230 
	C645.829529,42.237579 645.829590,40.622929 645.829590,39.073437 
	C644.785095,38.871181 644.302429,38.696281 643.819641,38.695904 
	C619.654053,38.676861 595.487976,38.610321 571.324036,38.807285 
	C569.710693,38.820431 567.496033,40.480343 566.607300,41.990150 
	C559.778137,53.592319 553.207886,65.346878 546.151184,77.666367 
M197.005402,459.504181 
	C204.020187,467.131622 211.034988,474.759064 218.207642,482.558197 
	C222.947845,470.616211 227.377777,459.455902 231.868561,448.142273 
	C216.664642,448.142273 202.103333,448.142273 186.680984,448.142273 
	C190.259064,452.096771 193.382294,455.548584 197.005402,459.504181 
z"/>
<path fill="#020202" opacity="1.000000" stroke="none" 
	d="
M546.354187,77.360245 
	C553.207886,65.346878 559.778137,53.592319 566.607300,41.990150 
	C567.496033,40.480343 569.710693,38.820431 571.324036,38.807285 
	C595.487976,38.610321 619.654053,38.676861 643.819641,38.695904 
	C644.302429,38.696281 644.785095,38.871181 645.829590,39.073437 
	C645.829590,40.622929 645.829529,42.237579 645.829529,43.852230 
	C645.829468,90.016968 645.863525,136.181793 645.742126,182.346207 
	C645.735107,185.014435 645.007568,187.984360 643.704468,190.301651 
	C599.380859,269.122070 554.923828,347.867462 510.610291,426.693512 
	C508.777527,429.953674 506.741302,430.844757 503.175812,430.832520 
	C464.844543,430.701263 426.512421,430.703125 388.181427,430.868927 
	C385.880310,430.878876 382.867401,431.952972 381.395447,433.607880 
	C351.607727,467.098450 321.996582,500.746033 292.354614,534.366211 
	C291.596985,535.225525 290.891113,536.130554 289.460999,537.861694 
	C318.586121,536.002014 346.828766,534.198669 376.332031,532.314880 
	C347.827026,555.967041 320.108826,578.966309 292.088074,602.216675 
	C314.849579,628.381714 337.413818,654.320007 360.959625,681.386658 
	C324.868103,672.217529 290.114410,663.388306 254.796997,654.415894 
	C244.723145,688.788391 234.754456,722.802124 224.481796,757.853027 
	C211.241364,725.874146 198.371567,694.790344 185.348587,663.336670 
	C153.883331,673.444519 122.675423,683.469666 91.467514,693.494812 
	C91.266029,693.164734 91.064545,692.834656 90.863060,692.504578 
	C110.119728,663.822144 129.376404,635.139648 148.982407,605.936890 
	C121.585594,586.779907 94.260056,567.672791 65.674561,547.684631 
	C101.325951,546.091675 135.508713,544.564331 170.384247,543.005981 
	C168.104706,511.326080 165.843689,479.903656 163.477692,447.022186 
	C183.996735,469.282684 203.560959,490.507355 223.556854,512.200317 
	C234.295258,484.950012 244.835037,458.203705 255.653305,430.750732 
	C253.336060,430.750732 251.735245,430.750702 250.134430,430.750702 
	C230.135269,430.750702 210.135391,430.664856 190.137634,430.832489 
	C186.672043,430.861511 184.917328,429.949371 183.613678,426.573242 
	C178.589233,413.561188 173.307724,400.644836 167.886612,387.792084 
	C166.596756,384.734009 166.776184,382.432709 168.406754,379.540253 
	C203.344223,317.565735 237.956146,255.406052 273.243286,193.631927 
	C279.048401,183.469437 280.989990,173.071289 281.979309,161.959625 
	C283.234650,147.860184 284.700348,133.778671 286.205475,119.703354 
	C286.392242,117.956848 287.165771,116.181381 288.020691,114.611763 
	C301.137970,90.528557 314.274506,66.455452 327.569092,42.470093 
	C328.413452,40.946747 330.585083,39.192154 332.151611,39.180351 
	C357.648560,38.988232 383.147491,39.059265 408.645996,39.086452 
	C408.939636,39.086765 409.233063,39.292152 409.975739,39.569603 
	C409.975739,41.195786 409.975739,42.980064 409.975739,44.764339 
	C409.975769,90.095772 410.023499,135.427353 409.871948,180.758286 
	C409.861481,183.891602 408.997192,187.374619 407.466919,190.097549 
	C383.523865,232.700485 359.404633,275.204437 335.332214,317.734711 
	C334.450134,319.293091 333.631439,320.887329 332.498108,322.995117 
	C334.414459,323.132660 335.803864,323.318695 337.193359,323.319427 
	C368.858704,323.335907 400.524292,323.276886 432.189026,323.415161 
	C435.463287,323.429474 437.199341,322.433472 438.784424,319.588470 
	C463.863373,274.575165 489.175049,229.690781 514.044434,184.562469 
	C516.555847,180.005157 516.958374,174.114868 517.643677,168.754211 
	C519.649475,153.064606 521.235413,137.321655 523.163452,121.621429 
	C523.478088,119.059387 524.312073,116.396698 525.558228,114.140862 
	C532.309326,101.920174 539.265564,89.812790 546.354187,77.360245 
M505.392761,318.906464 
	C527.855286,278.773926 550.317749,238.641373 573.064941,198.000153 
	C561.583557,198.000153 550.927063,198.186371 540.283081,197.903824 
	C536.309814,197.798370 534.107361,199.019379 532.119507,202.537750 
	C506.348206,248.151505 480.381683,293.654968 454.586090,339.255096 
	C452.979034,342.095917 451.296051,343.087555 448.021942,343.081848 
	C384.697449,342.971497 321.372650,343.001617 258.047943,342.988464 
	C256.843079,342.988220 255.638290,342.814362 254.028580,342.690277 
	C281.682159,294.337799 309.038971,246.504181 336.779175,198.000214 
	C324.667389,198.000214 313.538849,198.155273 302.419403,197.905716 
	C299.084900,197.830872 297.473450,198.981598 295.875916,201.794739 
	C264.173187,257.621613 232.355286,313.383118 200.571640,369.164032 
	C199.783844,370.546600 199.119888,371.999725 198.116150,373.974976 
	C234.878601,373.974976 270.953522,373.974976 307.857727,373.974976 
	C280.916595,435.469879 254.240219,496.360382 227.295044,557.864502 
	C215.072327,544.734314 203.372314,532.165649 190.956833,518.828430 
	C192.226837,535.935364 193.405273,551.808960 194.616531,568.124695 
	C176.755814,568.929626 159.324203,569.715210 141.892609,570.500793 
	C141.839340,570.859131 141.786072,571.217468 141.732803,571.575806 
	C155.611862,581.457153 169.490921,591.338440 183.453522,601.279236 
	C173.428513,616.427124 163.764099,631.030151 153.258148,646.904724 
	C170.603241,641.212219 186.470215,636.004761 202.566238,630.722168 
	C209.332825,646.768982 215.959564,662.484192 223.109711,679.440613 
	C228.519455,660.636108 233.472031,643.420776 238.487518,625.986694 
	C256.741211,630.724854 274.673492,635.379639 293.810059,640.346924 
	C281.406006,625.966980 269.824341,612.540466 258.094238,598.941833 
	C272.552216,586.915955 286.553009,575.270447 301.709045,562.663940 
	C279.158813,564.161011 258.117493,565.557922 236.274475,567.007996 
	C237.269547,565.253296 237.628021,564.523010 238.073227,563.850098 
	C279.303558,501.527008 320.560913,439.221741 361.702911,376.840424 
	C363.359863,374.328064 365.158356,373.831604 367.829865,373.836334 
	C401.991791,373.896912 436.154083,373.820160 470.315491,373.965668 
	C473.621674,373.979736 475.325439,372.942474 476.877167,370.116669 
	C486.162872,353.206726 495.635223,336.399323 505.392761,318.906464 
M351.139893,109.462486 
	C354.950012,110.157623 357.028076,108.587547 358.775665,105.037041 
	C365.515259,91.344505 372.644531,77.843925 379.598938,64.256668 
	C380.153687,63.172775 380.482635,61.973282 381.072021,60.416866 
	C369.374451,60.416866 358.249878,60.562672 347.133362,60.328354 
	C343.782288,60.257721 342.171967,61.475239 340.622131,64.309326 
	C333.057129,78.142860 325.237122,91.836861 317.528351,105.592033 
	C316.931915,106.656342 316.498291,107.811897 315.743164,109.462296 
	C327.672913,109.462296 338.943756,109.462296 351.139893,109.462486 
M573.402588,72.882477 
	C566.600525,84.822342 559.798462,96.762215 552.569946,109.450592 
	C565.113892,109.450592 576.876953,109.537605 588.634033,109.312737 
	C589.779358,109.290840 591.251282,107.544647 591.957703,106.260994 
	C599.731628,92.134727 607.392761,77.946281 615.047974,63.754993 
	C615.534851,62.852406 615.719727,61.786884 616.170471,60.415825 
	C608.457581,60.415825 601.202515,61.193748 594.185608,60.232800 
	C583.760925,58.805168 577.085632,62.295925 573.402588,72.882477 
M343.756683,157.236526 
	C344.510437,148.146683 345.264221,139.056854 346.041840,129.679245 
	C333.980682,129.679245 322.247681,129.679245 310.194489,129.679245 
	C308.664398,143.766815 307.153351,157.678741 305.629486,171.709106 
	C318.260986,171.709106 330.151459,171.709106 342.337036,171.709106 
	C342.791840,167.040100 343.224762,162.595718 343.756683,157.236526 
M544.757629,150.113556 
	C543.956604,157.284073 543.155579,164.454575 542.357971,171.594620 
	C554.839844,171.594620 566.720886,171.594620 578.647400,171.594620 
	C579.310730,164.282455 579.969543,157.339508 580.562622,150.390976 
	C581.148438,143.527863 581.667969,136.659103 582.225159,129.684692 
	C570.068176,129.684692 558.663574,129.684692 546.933228,129.684692 
	C546.224426,136.347122 545.540100,142.779892 544.757629,150.113556 
z"/>
<path fill="#000000" opacity="1.000000" stroke="none" 
	d="
M196.755463,459.252258 
	C193.382294,455.548584 190.259064,452.096771 186.680984,448.142273 
	C202.103333,448.142273 216.664642,448.142273 231.868561,448.142273 
	C227.377777,459.455902 222.947845,470.616211 218.207642,482.558197 
	C211.034988,474.759064 204.020187,467.131622 196.755463,459.252258 
z"/>
<path fill="#000000" opacity="1.000000" stroke="none" 
	d="
M162.903931,421.130859 
	C163.320633,421.489624 163.563080,422.052399 163.805542,422.615173 
	C163.470856,422.482025 163.136154,422.348907 162.609894,421.993835 
	C162.522095,421.626221 162.625885,421.480530 162.903931,421.130859 
z"/>
<path fill="#C2CCD2" opacity="1.000000" stroke="none" 
	d="
M505.218872,319.231995 
	C495.635223,336.399323 486.162872,353.206726 476.877167,370.116669 
	C475.325439,372.942474 473.621674,373.979736 470.315491,373.965668 
	C436.154083,373.820160 401.991791,373.896912 367.829865,373.836334 
	C365.158356,373.831604 363.359863,374.328064 361.702911,376.840424 
	C320.560913,439.221741 279.303558,501.527008 238.073227,563.850098 
	C237.628021,564.523010 237.269547,565.253296 236.274475,567.007996 
	C258.117493,565.557922 279.158813,564.161011 301.709045,562.663940 
	C286.553009,575.270447 272.552216,586.915955 258.094238,598.941833 
	C269.824341,612.540466 281.406006,625.966980 293.810059,640.346924 
	C274.673492,635.379639 256.741211,630.724854 238.487518,625.986694 
	C233.472031,643.420776 228.519455,660.636108 223.109711,679.440613 
	C215.959564,662.484192 209.332825,646.768982 202.566238,630.722168 
	C186.470215,636.004761 170.603241,641.212219 153.258148,646.904724 
	C163.764099,631.030151 173.428513,616.427124 183.453522,601.279236 
	C169.490921,591.338440 155.611862,581.457153 141.732803,571.575806 
	C141.786072,571.217468 141.839340,570.859131 141.892609,570.500793 
	C159.324203,569.715210 176.755814,568.929626 194.616531,568.124695 
	C193.405273,551.808960 192.226837,535.935364 190.956833,518.828430 
	C203.372314,532.165649 215.072327,544.734314 227.295044,557.864502 
	C254.240219,496.360382 280.916595,435.469879 307.857727,373.974976 
	C270.953522,373.974976 234.878601,373.974976 198.116150,373.974976 
	C199.119888,371.999725 199.783844,370.546600 200.571640,369.164032 
	C232.355286,313.383118 264.173187,257.621613 295.875916,201.794739 
	C297.473450,198.981598 299.084900,197.830872 302.419403,197.905716 
	C313.538849,198.155273 324.667389,198.000214 336.779175,198.000214 
	C309.038971,246.504181 281.682159,294.337799 254.028580,342.690277 
	C255.638290,342.814362 256.843079,342.988220 258.047943,342.988464 
	C321.372650,343.001617 384.697449,342.971497 448.021942,343.081848 
	C451.296051,343.087555 452.979034,342.095917 454.586090,339.255096 
	C480.381683,293.654968 506.348206,248.151505 532.119507,202.537750 
	C534.107361,199.019379 536.309814,197.798370 540.283081,197.903824 
	C550.927063,198.186371 561.583557,198.000153 573.064941,198.000153 
	C550.317749,238.641373 527.855286,278.773926 505.218872,319.231995 
M196.088043,604.151611 
	C201.519608,612.270447 209.347687,615.004700 217.026825,611.465393 
	C224.340942,608.094177 228.045883,599.587708 225.623230,591.728210 
	C222.984283,583.166931 213.762955,578.335815 205.355408,581.109741 
	C196.247406,584.114746 192.181839,593.617065 196.088043,604.151611 
z"/>
<path fill="#C1CBD1" opacity="1.000000" stroke="none" 
	d="
M350.677246,109.462387 
	C338.943756,109.462296 327.672913,109.462296 315.743164,109.462296 
	C316.498291,107.811897 316.931915,106.656342 317.528351,105.592033 
	C325.237122,91.836861 333.057129,78.142860 340.622131,64.309326 
	C342.171967,61.475239 343.782288,60.257721 347.133362,60.328354 
	C358.249878,60.562672 369.374451,60.416866 381.072021,60.416866 
	C380.482635,61.973282 380.153687,63.172775 379.598938,64.256668 
	C372.644531,77.843925 365.515259,91.344505 358.775665,105.037041 
	C357.028076,108.587547 354.950012,110.157623 350.677246,109.462387 
z"/>
<path fill="#C1CBD0" opacity="1.000000" stroke="none" 
	d="
M573.605469,72.575432 
	C577.085632,62.295925 583.760925,58.805168 594.185608,60.232800 
	C601.202515,61.193748 608.457581,60.415825 616.170471,60.415825 
	C615.719727,61.786884 615.534851,62.852406 615.047974,63.754993 
	C607.392761,77.946281 599.731628,92.134727 591.957703,106.260994 
	C591.251282,107.544647 589.779358,109.290840 588.634033,109.312737 
	C576.876953,109.537605 565.113892,109.450592 552.569946,109.450592 
	C559.798462,96.762215 566.600525,84.822342 573.605469,72.575432 
z"/>
<path fill="#C0CAD0" opacity="1.000000" stroke="none" 
	d="
M343.707184,157.693924 
	C343.224762,162.595718 342.791840,167.040100 342.337036,171.709106 
	C330.151459,171.709106 318.260986,171.709106 305.629486,171.709106 
	C307.153351,157.678741 308.664398,143.766815 310.194489,129.679245 
	C322.247681,129.679245 333.980682,129.679245 346.041840,129.679245 
	C345.264221,139.056854 344.510437,148.146683 343.707184,157.693924 
z"/>
<path fill="#C0CAD0" opacity="1.000000" stroke="none" 
	d="
M544.806702,149.663116 
	C545.540100,142.779892 546.224426,136.347122 546.933228,129.684692 
	C558.663574,129.684692 570.068176,129.684692 582.225159,129.684692 
	C581.667969,136.659103 581.148438,143.527863 580.562622,150.390976 
	C579.969543,157.339508 579.310730,164.282455 578.647400,171.594620 
	C566.720886,171.594620 554.839844,171.594620 542.357971,171.594620 
	C543.155579,164.454575 543.956604,157.284073 544.806702,149.663116 
z"/>
<path fill="#030303" opacity="1.000000" stroke="none" 
	d="
M195.943726,603.798218 
	C192.181839,593.617065 196.247406,584.114746 205.355408,581.109741 
	C213.762955,578.335815 222.984283,583.166931 225.623230,591.728210 
	C228.045883,599.587708 224.340942,608.094177 217.026825,611.465393 
	C209.347687,615.004700 201.519608,612.270447 195.943726,603.798218 
z"/>
</svg>