<svg version="1.1" id="Layer_1" xmlns="http://www.w3.org/2000/svg" xmlns:xlink="http://www.w3.org/1999/xlink" x="0px" y="0px"
	 width="100%" viewBox="0 0 1270 1263" enable-background="new 0 0 1270 1263" xml:space="preserve">
<path fill="#E03A3E" opacity="1.000000" stroke="none" 
	d="
M586.000000,1.000003 
	C619.354248,1.000000 652.708435,1.000000 686.389404,1.423537 
	C687.560669,2.228989 688.378540,2.859488 689.254028,2.953391 
	C696.113342,3.689119 703.010986,4.116909 709.845154,5.027196 
	C726.543884,7.251372 743.427490,8.704263 759.845947,12.268023 
	C783.061035,17.307081 806.225037,23.019320 828.854248,30.198271 
	C851.950684,37.525436 874.727844,46.149010 897.004211,55.699013 
	C925.902954,68.088043 953.654907,82.977249 979.818115,100.487129 
	C997.864258,112.564613 1015.580872,125.208862 1032.755249,138.491318 
	C1047.165039,149.635620 1061.067383,161.550079 1074.318237,174.052139 
	C1095.014526,193.578888 1114.868408,213.994843 1132.162109,236.698456 
	C1143.152954,251.127441 1154.524292,265.323303 1164.602661,280.375153 
	C1175.458374,296.587799 1185.315552,313.498535 1195.050049,330.425751 
	C1210.772705,357.765961 1223.562134,386.492249 1234.133301,416.208191 
	C1243.573364,442.744598 1251.485474,469.683136 1257.255127,497.294739 
	C1262.841309,524.027527 1267.242310,550.878479 1269.077759,578.138489 
	C1269.144653,579.130981 1270.333862,580.047852 1271.000000,581.000000 
	C1271.000000,614.354248 1271.000000,647.708435 1270.576416,681.389282 
	C1269.438965,686.494690 1268.685303,691.268127 1268.018066,696.053467 
	C1265.668457,712.906006 1263.688965,729.818420 1260.942261,746.605530 
	C1256.148438,775.901978 1248.915405,804.665405 1238.962158,832.612244 
	C1231.421021,853.786377 1222.944702,874.654663 1214.164551,895.353577 
	C1203.023071,921.618591 1189.454224,946.703918 1173.789185,970.533142 
	C1162.855469,987.164917 1151.310059,1003.448608 1139.160522,1019.211609 
	C1127.637573,1034.161743 1115.589233,1048.811768 1102.662842,1062.550293 
	C1084.047852,1082.334961 1064.737427,1101.512085 1043.222900,1118.255249 
	C1029.531982,1128.910034 1016.107117,1139.960938 1001.905823,1149.894775 
	C971.436340,1171.208618 939.582764,1190.274170 905.417725,1205.155884 
	C887.174683,1213.102051 868.899658,1221.085815 850.209778,1227.869995 
	C819.576355,1238.989502 788.173523,1247.438354 756.018921,1253.210449 
	C734.071167,1257.150391 712.116821,1260.602539 689.861450,1262.078369 
	C688.869507,1262.144043 687.952148,1263.333862 687.000000,1264.000000 
	C653.645752,1264.000000 620.291565,1264.000000 586.610657,1263.576416 
	C585.772461,1262.787720 585.288574,1262.153076 584.745239,1262.097412 
	C574.289917,1261.025024 563.793701,1260.282837 553.375122,1258.937012 
	C539.774963,1257.180298 526.113159,1255.548096 512.700928,1252.781372 
	C496.645905,1249.469482 480.789337,1245.158569 464.912140,1241.029297 
	C428.821014,1231.642700 394.202545,1218.211914 360.600311,1202.168823 
	C325.397949,1185.361694 292.095856,1165.367432 260.565735,1142.333984 
	C238.907715,1126.512329 218.184891,1109.595459 198.786469,1091.135376 
	C177.707504,1071.075928 157.431534,1050.189453 139.637390,1027.077637 
	C129.877563,1014.401062 119.839249,1001.871033 111.038818,988.540527 
	C99.375404,970.873657 88.255882,952.792847 77.922646,934.319397 
	C69.148994,918.634033 61.822243,902.139343 54.089310,885.731689 
	C101.774109,865.380859 149.036789,844.841492 196.722015,825.335022 
	C259.799408,799.532288 323.229614,774.583130 388.783325,755.574402 
	C400.967285,752.041382 413.415405,749.419434 425.741608,746.377014 
	C425.681763,747.773010 425.339203,748.115540 424.928375,748.322449 
	C398.301331,761.730286 375.414673,780.136414 354.678009,801.312317 
	C339.993134,816.308289 326.193451,832.083130 314.563110,849.949707 
	C314.713379,850.290344 315.103180,850.493286 315.838074,850.597046 
	C395.947083,809.553528 479.001312,777.246094 566.317627,756.535522 
	C589.022034,751.150330 612.210999,747.648865 635.307556,744.138611 
	C648.211182,742.177551 661.368469,741.452637 674.436157,741.108521 
	C692.820496,740.624451 711.254761,740.411499 729.615906,741.235840 
	C741.952820,741.789673 754.285278,743.875305 766.466675,746.110046 
	C782.729431,749.093567 798.244568,754.335999 812.649597,762.843689 
	C824.867310,770.059509 828.297852,780.704834 826.554688,793.857422 
	C825.947754,798.436584 824.956543,802.964783 824.052979,808.006348 
	C825.486816,807.165222 826.645081,806.629883 827.641907,805.879944 
	C855.079529,785.238098 875.308899,759.128784 886.979614,726.721985 
	C892.757690,710.677734 893.957214,694.147034 893.291077,677.006775 
	C892.241394,649.995544 885.173767,625.419739 869.526855,603.381592 
	C856.523621,585.067017 839.872925,570.521118 821.456238,557.986450 
	C774.747925,526.196167 731.939514,489.848907 692.221497,449.679199 
	C682.590881,439.939117 671.449402,431.395813 660.000244,423.816406 
	C639.778748,410.429688 617.033691,402.057678 594.309387,393.934082 
	C521.472168,367.895905 447.040436,346.957825 372.925903,325.017639 
	C291.310883,300.857056 209.639130,276.888092 128.131668,252.533722 
	C130.146194,249.949966 131.997452,247.648239 133.899857,245.389572 
	C146.049911,230.964279 157.600677,215.973251 170.514297,202.266571 
	C189.132767,182.504730 208.409454,163.311920 229.931839,146.599823 
	C243.622604,135.968979 257.105835,125.027092 271.265778,115.053276 
	C301.662140,93.643021 333.569214,74.707726 367.691010,59.786396 
	C385.911346,51.818733 404.201050,43.899288 422.879578,37.114876 
	C453.495544,25.994547 484.879303,17.545704 517.019470,11.786701 
	C538.955933,7.856028 560.896362,4.388560 583.140930,2.921959 
	C584.131897,2.856622 585.048645,1.666314 586.000000,1.000003 
M1096.665405,448.989410 
	C1091.590332,437.559631 1086.932495,425.921417 1081.351807,414.744080 
	C1070.229980,392.468628 1057.623047,371.069794 1043.449219,350.527649 
	C1028.395630,328.710510 1011.703247,308.296417 993.453979,289.177673 
	C983.976807,279.249054 973.866577,269.828156 963.330750,261.029999 
	C948.433167,248.589340 933.241943,236.432968 917.522888,225.057938 
	C889.242981,204.593185 858.489380,188.433929 826.278870,175.038300 
	C800.807983,164.445526 774.726379,155.515808 747.718384,149.998337 
	C726.770081,145.718750 705.514282,142.751190 684.280640,140.126678 
	C669.405273,138.288055 654.340881,137.302841 639.354004,137.222946 
	C622.480896,137.133026 605.482422,137.489380 588.752075,139.462708 
	C567.225098,142.001801 545.762817,145.633972 524.537903,150.065567 
	C489.727509,157.333725 456.470062,169.494827 424.347260,184.715729 
	C416.464966,188.450623 408.733948,192.504761 399.927826,196.915817 
	C402.582855,197.893616 404.015137,198.550293 405.515381,198.954620 
	C439.515686,208.117844 473.744659,216.512192 507.474823,226.578506 
	C551.395508,239.686081 595.096619,253.593277 638.559998,268.148773 
	C671.303711,279.114380 703.247192,292.249481 733.218689,309.728180 
	C755.500244,322.722229 775.021973,338.723480 790.383728,359.698029 
	C799.186584,371.717224 808.590576,383.319580 821.644592,391.245270 
	C847.433777,406.903137 873.277954,422.457947 897.121399,441.093750 
	C917.860352,457.303131 937.185486,475.012421 954.269165,495.004425 
	C973.004333,516.929077 988.654663,540.864075 1000.204346,567.473328 
	C1013.110168,597.207153 1019.704468,628.257324 1020.924011,660.486328 
	C1021.669434,680.186707 1019.531860,699.678162 1016.204102,719.151733 
	C1011.933167,744.144958 1003.863647,767.757812 992.611023,790.300659 
	C968.647156,838.308533 933.161865,876.317688 889.949097,907.545837 
	C850.231079,936.248535 806.475098,957.023621 759.961548,971.598083 
	C733.517151,979.884155 706.186035,985.372498 679.179871,991.808838 
	C673.071350,993.264648 666.653931,993.424255 659.808533,994.249268 
	C667.252625,981.425964 674.395935,969.585876 681.075867,957.489929 
	C688.520813,944.008728 695.032349,930.073669 698.616333,914.984070 
	C700.385559,907.535645 698.471008,901.789368 692.882751,898.495239 
	C689.130554,896.283325 685.170410,894.048462 681.006714,892.984131 
	C670.438660,890.282654 659.793457,887.583008 649.011780,886.096680 
	C636.811218,884.414734 624.438171,883.519104 612.121338,883.288879 
	C601.922913,883.098328 591.679810,884.171265 581.487549,885.046082 
	C567.893616,886.212769 554.232483,887.108521 540.771851,889.216370 
	C505.103119,894.801758 470.064850,903.333679 435.808411,914.683350 
	C413.894226,921.943848 392.062286,929.684021 370.822968,938.693176 
	C342.329865,950.779297 314.441650,964.291992 286.309723,977.226990 
	C285.044220,977.808899 283.936768,978.734619 282.137512,979.900879 
	C287.794006,985.163025 292.789612,990.248108 298.234833,994.794617 
	C315.357361,1009.090881 332.103149,1023.920471 349.997009,1037.192261 
	C380.205048,1059.597412 413.299194,1077.186768 448.050812,1091.500000 
	C475.854279,1102.951416 504.564453,1111.604248 534.003662,1117.867920 
	C559.038940,1123.194580 584.368103,1126.920776 609.860474,1127.700928 
	C633.876160,1128.435913 658.027039,1127.503296 682.006714,1125.764160 
	C700.041748,1124.456055 718.058044,1121.492554 735.807495,1117.904785 
	C790.620728,1106.824951 841.974243,1086.586670 890.082214,1058.035156 
	C921.552124,1039.358154 950.487549,1017.327576 977.114563,992.317200 
	C1013.437256,958.199829 1043.787964,919.304504 1068.083984,875.786072 
	C1099.063354,820.296631 1119.796387,761.335205 1126.988159,697.970337 
	C1129.040527,679.886963 1130.583740,661.729370 1131.722656,643.565857 
	C1132.259521,635.007385 1131.535034,626.337463 1130.947998,617.747742 
	C1129.803589,601.008545 1128.950073,584.215271 1126.860474,567.584595 
	C1124.805176,551.226135 1122.485352,534.744995 1118.271729,518.850525 
	C1112.097168,495.558441 1104.132202,472.741058 1096.665405,448.989410 
z"/>
<path fill="#FFFFFF" opacity="1.000000" stroke="none"
	d="
M127.992073,252.835663 
	C209.639130,276.888092 291.310883,300.857056 372.925903,325.017639 
	C447.040436,346.957825 521.472168,367.895905 594.309387,393.934082 
	C617.033691,402.057678 639.778748,410.429688 660.000244,423.816406 
	C671.449402,431.395813 682.590881,439.939117 692.221497,449.679199 
	C731.939514,489.848907 774.747925,526.196167 821.456238,557.986450 
	C839.872925,570.521118 856.523621,585.067017 869.526855,603.381592 
	C885.173767,625.419739 892.241394,649.995544 893.291077,677.006775 
	C893.957214,694.147034 892.757690,710.677734 886.979614,726.721985 
	C875.308899,759.128784 855.079529,785.238098 827.641907,805.879944 
	C826.645081,806.629883 825.486816,807.165222 824.052979,808.006348 
	C824.956543,802.964783 825.947754,798.436584 826.554688,793.857422 
	C828.297852,780.704834 824.867310,770.059509 812.649597,762.843689 
	C798.244568,754.335999 782.729431,749.093567 766.466675,746.110046 
	C754.285278,743.875305 741.952820,741.789673 729.615906,741.235840 
	C711.254761,740.411499 692.820496,740.624451 674.436157,741.108521 
	C661.368469,741.452637 648.211182,742.177551 635.307556,744.138611 
	C612.210999,747.648865 589.022034,751.150330 566.317627,756.535522 
	C479.001312,777.246094 395.947083,809.553528 315.679932,850.364746 
	C315.052032,850.091736 314.927338,849.951843 314.802643,849.812012 
	C326.193451,832.083130 339.993134,816.308289 354.678009,801.312317 
	C375.414673,780.136414 398.301331,761.730286 424.928375,748.322449 
	C425.339203,748.115540 425.681763,747.773010 425.741608,746.377014 
	C413.415405,749.419434 400.967285,752.041382 388.783325,755.574402 
	C323.229614,774.583130 259.799408,799.532288 196.722015,825.335022 
	C149.036789,844.841492 101.774109,865.380859 53.769508,885.557129 
	C51.935699,882.378967 50.721596,879.076660 49.365532,875.833740 
	C36.727219,845.610046 26.489296,814.650269 18.783335,782.756226 
	C11.033686,750.681580 5.254815,718.381104 2.922494,685.464233 
	C2.861385,684.601746 1.666262,683.819580 0.999994,683.000000 
	C1.000000,649.645752 1.000000,616.291565 1.378095,582.771484 
	C2.170708,581.260742 2.838404,579.937317 2.954827,578.567078 
	C3.400061,573.326904 3.293186,568.015381 4.071353,562.832397 
	C6.549197,546.328735 8.631885,529.718994 12.165383,513.431885 
	C17.102867,490.673279 22.235785,467.867676 29.095676,445.640961 
	C35.789276,423.953003 43.852787,402.569855 52.975765,381.781738 
	C62.774952,359.452850 73.395226,337.321075 85.703491,316.301514 
	C98.527458,294.401276 113.793678,273.931091 127.992073,252.835663 
M518.865906,547.713013 
	C532.560486,551.407593 546.351318,553.154846 560.582275,551.150024 
	C582.999695,547.991882 601.260376,538.048889 614.261841,519.271240 
	C624.833313,504.003326 629.541077,486.766479 630.699280,468.524109 
	C623.255432,467.998871 615.735840,468.134094 608.483704,466.807220 
	C596.302368,464.578491 583.715027,462.857941 572.347656,458.304443 
	C556.529114,451.967926 541.610718,443.345917 526.428101,435.468903 
	C502.731232,423.174561 478.468231,413.452423 450.929962,418.020996 
	C437.138550,420.308960 425.541046,426.979370 415.402252,436.643372 
	C418.562134,436.875244 421.597931,436.321655 424.624542,436.368073 
	C432.079010,436.482300 439.565399,436.551025 446.955078,437.382996 
	C448.745850,437.584595 451.867920,441.031189 451.574463,442.372131 
	C448.195404,457.812225 449.944611,472.914246 454.122009,487.802795 
	C460.517975,510.598755 474.090576,527.869141 495.430359,538.444824 
	C502.690430,542.042786 510.533844,544.463623 518.865906,547.713013 
z"/>
<path fill="none" opacity="1.000000" stroke="none"
	d="
M128.131668,252.533722 
	C113.793678,273.931091 98.527458,294.401276 85.703491,316.301514 
	C73.395226,337.321075 62.774952,359.452850 52.975765,381.781738 
	C43.852787,402.569855 35.789276,423.953003 29.095676,445.640961 
	C22.235785,467.867676 17.102867,490.673279 12.165383,513.431885 
	C8.631885,529.718994 6.549197,546.328735 4.071353,562.832397 
	C3.293186,568.015381 3.400061,573.326904 2.954827,578.567078 
	C2.838404,579.937317 2.170708,581.260742 1.378095,582.302856 
	C1.000000,388.405975 1.000000,194.811981 1.000000,1.000000 
	C195.687500,1.000000 390.375092,1.000000 585.531372,1.000003 
	C585.048645,1.666314 584.131897,2.856622 583.140930,2.921959 
	C560.896362,4.388560 538.955933,7.856028 517.019470,11.786701 
	C484.879303,17.545704 453.495544,25.994547 422.879578,37.114876 
	C404.201050,43.899288 385.911346,51.818733 367.691010,59.786396 
	C333.569214,74.707726 301.662140,93.643021 271.265778,115.053276 
	C257.105835,125.027092 243.622604,135.968979 229.931839,146.599823 
	C208.409454,163.311920 189.132767,182.504730 170.514297,202.266571 
	C157.600677,215.973251 146.049911,230.964279 133.899857,245.389572 
	C131.997452,247.648239 130.146194,249.949966 128.131668,252.533722 
z"/>
<path fill="none" opacity="1.000000" stroke="none"
	d="
M0.999994,683.468628 
	C1.666262,683.819580 2.861385,684.601746 2.922494,685.464233 
	C5.254815,718.381104 11.033686,750.681580 18.783335,782.756226 
	C26.489296,814.650269 36.727219,845.610046 49.365532,875.833740 
	C50.721596,879.076660 51.935699,882.378967 53.535454,885.828247 
	C61.822243,902.139343 69.148994,918.634033 77.922646,934.319397 
	C88.255882,952.792847 99.375404,970.873657 111.038818,988.540527 
	C119.839249,1001.871033 129.877563,1014.401062 139.637390,1027.077637 
	C157.431534,1050.189453 177.707504,1071.075928 198.786469,1091.135376 
	C218.184891,1109.595459 238.907715,1126.512329 260.565735,1142.333984 
	C292.095856,1165.367432 325.397949,1185.361694 360.600311,1202.168823 
	C394.202545,1218.211914 428.821014,1231.642700 464.912140,1241.029297 
	C480.789337,1245.158569 496.645905,1249.469482 512.700928,1252.781372 
	C526.113159,1255.548096 539.774963,1257.180298 553.375122,1258.937012 
	C563.793701,1260.282837 574.289917,1261.025024 584.745239,1262.097412 
	C585.288574,1262.153076 585.772461,1262.787720 586.141968,1263.576416 
	C391.073151,1264.000000 196.146317,1264.000000 1.000000,1264.000000 
	C1.000000,1070.645874 1.000000,877.291565 0.999994,683.468628 
z"/>
<path fill="none" opacity="1.000000" stroke="none"
	d="
M687.468689,1264.000000 
	C687.952148,1263.333862 688.869507,1262.144043 689.861450,1262.078369 
	C712.116821,1260.602539 734.071167,1257.150391 756.018921,1253.210449 
	C788.173523,1247.438354 819.576355,1238.989502 850.209778,1227.869995 
	C868.899658,1221.085815 887.174683,1213.102051 905.417725,1205.155884 
	C939.582764,1190.274170 971.436340,1171.208618 1001.905823,1149.894775 
	C1016.107117,1139.960938 1029.531982,1128.910034 1043.222900,1118.255249 
	C1064.737427,1101.512085 1084.047852,1082.334961 1102.662842,1062.550293 
	C1115.589233,1048.811768 1127.637573,1034.161743 1139.160522,1019.211609 
	C1151.310059,1003.448608 1162.855469,987.164917 1173.789185,970.533142 
	C1189.454224,946.703918 1203.023071,921.618591 1214.164551,895.353577 
	C1222.944702,874.654663 1231.421021,853.786377 1238.962158,832.612244 
	C1248.915405,804.665405 1256.148438,775.901978 1260.942261,746.605530 
	C1263.688965,729.818420 1265.668457,712.906006 1268.018066,696.053467 
	C1268.685303,691.268127 1269.438965,686.494690 1270.576416,681.857910 
	C1271.000000,875.927185 1271.000000,1069.854370 1271.000000,1264.000000 
	C1076.645874,1264.000000 882.291565,1264.000000 687.468689,1264.000000 
z"/>
<path fill="none" opacity="1.000000" stroke="none"
	d="
M1271.000000,580.531372 
	C1270.333862,580.047852 1269.144653,579.130981 1269.077759,578.138489 
	C1267.242310,550.878479 1262.841309,524.027527 1257.255127,497.294739 
	C1251.485474,469.683136 1243.573364,442.744598 1234.133301,416.208191 
	C1223.562134,386.492249 1210.772705,357.765961 1195.050049,330.425751 
	C1185.315552,313.498535 1175.458374,296.587799 1164.602661,280.375153 
	C1154.524292,265.323303 1143.152954,251.127441 1132.162109,236.698456 
	C1114.868408,213.994843 1095.014526,193.578888 1074.318237,174.052139 
	C1061.067383,161.550079 1047.165039,149.635620 1032.755249,138.491318 
	C1015.580872,125.208862 997.864258,112.564613 979.818115,100.487129 
	C953.654907,82.977249 925.902954,68.088043 897.004211,55.699013 
	C874.727844,46.149010 851.950684,37.525436 828.854248,30.198271 
	C806.225037,23.019320 783.061035,17.307081 759.845947,12.268023 
	C743.427490,8.704263 726.543884,7.251372 709.845154,5.027196 
	C703.010986,4.116909 696.113342,3.689119 689.254028,2.953391 
	C688.378540,2.859488 687.560669,2.228989 686.858032,1.423537 
	C881.593506,1.000000 1076.187012,1.000000 1271.000000,1.000000 
	C1271.000000,194.020844 1271.000000,387.041748 1271.000000,580.531372 
z"/>
<path fill="#FFFFFF" opacity="1.000000" stroke="none" 
	d="
M1096.797729,449.355408 
	C1104.132202,472.741058 1112.097168,495.558441 1118.271729,518.850525 
	C1122.485352,534.744995 1124.805176,551.226135 1126.860474,567.584595 
	C1128.950073,584.215271 1129.803589,601.008545 1130.947998,617.747742 
	C1131.535034,626.337463 1132.259521,635.007385 1131.722656,643.565857 
	C1130.583740,661.729370 1129.040527,679.886963 1126.988159,697.970337 
	C1119.796387,761.335205 1099.063354,820.296631 1068.083984,875.786072 
	C1043.787964,919.304504 1013.437256,958.199829 977.114563,992.317200 
	C950.487549,1017.327576 921.552124,1039.358154 890.082214,1058.035156 
	C841.974243,1086.586670 790.620728,1106.824951 735.807495,1117.904785 
	C718.058044,1121.492554 700.041748,1124.456055 682.006714,1125.764160 
	C658.027039,1127.503296 633.876160,1128.435913 609.860474,1127.700928 
	C584.368103,1126.920776 559.038940,1123.194580 534.003662,1117.867920 
	C504.564453,1111.604248 475.854279,1102.951416 448.050812,1091.500000 
	C413.299194,1077.186768 380.205048,1059.597412 349.997009,1037.192261 
	C332.103149,1023.920471 315.357361,1009.090881 298.234833,994.794617 
	C292.789612,990.248108 287.794006,985.163025 282.137512,979.900879 
	C283.936768,978.734619 285.044220,977.808899 286.309723,977.226990 
	C314.441650,964.291992 342.329865,950.779297 370.822968,938.693176 
	C392.062286,929.684021 413.894226,921.943848 435.808411,914.683350 
	C470.064850,903.333679 505.103119,894.801758 540.771851,889.216370 
	C554.232483,887.108521 567.893616,886.212769 581.487549,885.046082 
	C591.679810,884.171265 601.922913,883.098328 612.121338,883.288879 
	C624.438171,883.519104 636.811218,884.414734 649.011780,886.096680 
	C659.793457,887.583008 670.438660,890.282654 681.006714,892.984131 
	C685.170410,894.048462 689.130554,896.283325 692.882751,898.495239 
	C698.471008,901.789368 700.385559,907.535645 698.616333,914.984070 
	C695.032349,930.073669 688.520813,944.008728 681.075867,957.489929 
	C674.395935,969.585876 667.252625,981.425964 659.808533,994.249268 
	C666.653931,993.424255 673.071350,993.264648 679.179871,991.808838 
	C706.186035,985.372498 733.517151,979.884155 759.961548,971.598083 
	C806.475098,957.023621 850.231079,936.248535 889.949097,907.545837 
	C933.161865,876.317688 968.647156,838.308533 992.611023,790.300659 
	C1003.863647,767.757812 1011.933167,744.144958 1016.204102,719.151733 
	C1019.531860,699.678162 1021.669434,680.186707 1020.924011,660.486328 
	C1019.704468,628.257324 1013.110168,597.207153 1000.204346,567.473328 
	C988.654663,540.864075 973.004333,516.929077 954.269165,495.004425 
	C937.185486,475.012421 917.860352,457.303131 897.121399,441.093750 
	C873.277954,422.457947 847.433777,406.903137 821.644592,391.245270 
	C808.590576,383.319580 799.186584,371.717224 790.383728,359.698029 
	C775.021973,338.723480 755.500244,322.722229 733.218689,309.728180 
	C703.247192,292.249481 671.303711,279.114380 638.559998,268.148773 
	C595.096619,253.593277 551.395508,239.686081 507.474823,226.578506 
	C473.744659,216.512192 439.515686,208.117844 405.515381,198.954620 
	C404.015137,198.550293 402.582855,197.893616 399.927826,196.915817 
	C408.733948,192.504761 416.464966,188.450623 424.347260,184.715729 
	C456.470062,169.494827 489.727509,157.333725 524.537903,150.065567 
	C545.762817,145.633972 567.225098,142.001801 588.752075,139.462708 
	C605.482422,137.489380 622.480896,137.133026 639.354004,137.222946 
	C654.340881,137.302841 669.405273,138.288055 684.280640,140.126678 
	C705.514282,142.751190 726.770081,145.718750 747.718384,149.998337 
	C774.726379,155.515808 800.807983,164.445526 826.278870,175.038300 
	C858.489380,188.433929 889.242981,204.593185 917.522888,225.057938 
	C933.241943,236.432968 948.433167,248.589340 963.330750,261.029999 
	C973.866577,269.828156 983.976807,279.249054 993.453979,289.177673 
	C1011.703247,308.296417 1028.395630,328.710510 1043.449219,350.527649 
	C1057.623047,371.069794 1070.229980,392.468628 1081.351807,414.744080 
	C1086.932495,425.921417 1091.590332,437.559631 1096.797729,449.355408 
z"/>
<path fill="#FFFFFF" opacity="1.000000" stroke="none" 
	d="
M315.334839,850.463867 
	C315.103180,850.493286 314.713379,850.290344 314.563110,849.949707 
	C314.927338,849.951843 315.052032,850.091736 315.334839,850.463867 
z"/>
<path fill="#E03B3F" opacity="1.000000" stroke="none" 
	d="
M518.488281,547.567688 
	C510.533844,544.463623 502.690430,542.042786 495.430359,538.444824 
	C474.090576,527.869141 460.517975,510.598755 454.122009,487.802795 
	C449.944611,472.914246 448.195404,457.812225 451.574463,442.372131 
	C451.867920,441.031189 448.745850,437.584595 446.955078,437.382996 
	C439.565399,436.551025 432.079010,436.482300 424.624542,436.368073 
	C421.597931,436.321655 418.562134,436.875244 415.402252,436.643372 
	C425.541046,426.979370 437.138550,420.308960 450.929962,418.020996 
	C478.468231,413.452423 502.731232,423.174561 526.428101,435.468903 
	C541.610718,443.345917 556.529114,451.967926 572.347656,458.304443 
	C583.715027,462.857941 596.302368,464.578491 608.483704,466.807220 
	C615.735840,468.134094 623.255432,467.998871 630.699280,468.524109 
	C629.541077,486.766479 624.833313,504.003326 614.261841,519.271240 
	C601.260376,538.048889 582.999695,547.991882 560.582275,551.150024 
	C546.351318,553.154846 532.560486,551.407593 518.488281,547.567688 
z"/>
</svg>