<?xml version="1.0" encoding="UTF-8"?>
<svg id="Layer_1" data-name="Layer 1" xmlns="http://www.w3.org/2000/svg" version="1.1" viewBox="0 0 1584.8 354.6">
  <path fill="#ef4135" stroke-width="0px" d="M1209.1,40.4h-403c-41.3,0-68.7,21.8-72.5,54.1l-2.7,22.5h536.9l1.8-14.4c4.2-32.5-9.7-62.2-60.5-62.2h0ZM1264.2,146.4s-1.1,10.8-2.9,22.7c-3.4,23.4-20.7,40.9-53.2,40.9h-114.3l-13,104h-90.9l20.7-167.5c-.2-.1,253.6-.1,253.6-.1ZM478.4,40.4h243.6l-9.4,76.8h-243.6l9.4-76.8h0ZM465.4,146.4h243.4l-7.9,63.6h-152.4l-3.8,31.2h152.5l-9,72.8h-243.7l20.9-167.6h0ZM1295.8,40.4h198.5c31.4,0,64,14.6,57.5,64.9l-1.6,11.9h-263.9l9.5-76.8ZM1282.8,146.4h90.9l-20.7,167.5h-91.1l20.9-167.5h0ZM1455.7,146.4h91.2l-20.9,167.5h-91.2l20.9-167.5ZM927.3,146.4h-200.1c-6.7,43.8,15,63.6,46,63.6h123.3l-3.8,31.4h-177.1l-9,72.8h200.8c6.5-.4,51.6-1.8,66.9-38.6,4.9-11.9,9.4-55,10.8-64,6.9-52.6-29.3-65.2-57.8-65.2h0Z"/>
  <path fill="#0a1320" stroke-width="0px" d="M228,177.9c0,11.3-9.1,20.4-20.4,20.4s-20.4-9.1-20.4-20.4,9.1-20.4,20.4-20.4,20.4,9.1,20.4,20.4ZM109.9,157.6c-11.3,0-20.4,9.1-20.4,20.4s9.1,20.4,20.4,20.4,20.4-9.1,20.4-20.4-9.1-20.4-20.4-20.4ZM373.7,177.9c0,91.7-74.4,166.2-166.2,166.2S41.4,269.7,41.4,177.9,115.9,11.8,207.6,11.8s166.2,74.4,166.2,166.2ZM155.8,177.9c0-25.4-20.6-45.9-45.9-45.9s-45.9,20.6-45.9,45.9,20.6,45.9,45.9,45.9,20.4-8.6,20.4-8.6v7.9h25.5v-45.1ZM253.4,177.9c0-25.4-20.6-45.9-45.9-45.9s-20.4,6.8-20.4,6.8v-29.1h-25.5v68.2c0,25.4,20.6,45.9,45.9,45.9s45.9-20.5,45.9-45.9ZM350.8,183.8h-26c-2.5,8.4-10.3,14.5-19.5,14.5s-20.4-9.1-20.4-20.4,9.1-20.4,20.4-20.4,17.1,6.1,19.5,14.5h26c-2.9-22.6-22.2-40.1-45.5-40.1s-45.9,20.6-45.9,45.9,20.6,45.9,45.9,45.9c23.4.1,42.6-17.3,45.5-39.9Z"/>
</svg>