<?xml version="1.0" encoding="utf-8"?>
<!-- Generator: Adobe Illustrator 25.4.1, SVG Export Plug-In . SVG Version: 6.00 Build 0)  -->
<svg version="1.1" id="Logo" xmlns="http://www.w3.org/2000/svg" xmlns:xlink="http://www.w3.org/1999/xlink" x="0px" y="0px"
	 viewBox="0 0 300 300" style="enable-background:new 0 0 300 300;" xml:space="preserve">
<circle fill="#FFFFFF" cx="150.5" cy="150.5" r="145.5"/>
<g>
	<path fill="#0A1320" d="M168.4,150c0,10.2-8.2,18.4-18.4,18.4c-10.2,0-18.4-8.2-18.4-18.4s8.2-18.4,18.4-18.4
		C160.2,131.6,168.4,139.8,168.4,150z M61.8,131.6c-10.2,0-18.4,8.2-18.4,18.4s8.2,18.4,18.4,18.4c10.2,0,18.4-8.2,18.4-18.4
		S72,131.6,61.8,131.6z M300,150c0,82.8-67.2,150-150,150C67.2,300,0,232.8,0,150S67.2,0,150,0C232.8,0,300,67.2,300,150z
		 M103.3,150c0-22.9-18.6-41.4-41.4-41.4c-22.9,0-41.4,18.6-41.4,41.4c0,22.9,18.6,41.4,41.4,41.4c12,0,18.4-7.8,18.4-7.8v7.1h23
		V150z M191.4,150c0-22.9-18.6-41.4-41.4-41.4c-11.2,0-18.4,6.1-18.4,6.1l0-26.3h-23V150c0,22.9,18.6,41.4,41.4,41.4
		C172.9,191.4,191.4,172.9,191.4,150z M279.3,155.3h-23.5c-2.3,7.6-9.3,13.1-17.6,13.1c-10.2,0-18.4-8.2-18.4-18.4
		s8.2-18.4,18.4-18.4c8.3,0,15.4,5.5,17.6,13.1h23.5c-2.6-20.4-20-36.2-41.1-36.2c-22.9,0-41.4,18.6-41.4,41.4
		c0,22.9,18.6,41.4,41.4,41.4C259.3,191.4,276.7,175.7,279.3,155.3z"/>
</g>
</svg>
