<svg xmlns="http://www.w3.org/2000/svg" viewBox="0 0 493.5 121.9"  fill="#ef4135">
  <path d="M340.5 0H161c-18.4 0-30.6 9.7-32.3 24.1l-1.2 10h239.1s.5-3.5.8-6.4C369.3 13.2 363.1 0 340.5 0zM365 47.2s-.5 4.8-1.3 10.1c-1.5 10.4-9.2 18.2-23.7 18.2h-50.9l-5.8 46.3h-40.5l9.2-74.6h113zM15.1 0h108.5l-4.2 34.2H10.9zM9.3 47.2h108.4l-3.5 28.3H46.3l-1.7 13.9h67.9l-4 32.4H0zM379.1 0h88.4c14 0 28.5 6.5 25.6 28.9l-.7 5.3H374.9L379.1 0zm-5.8 47.2h40.5l-9.2 74.6H364zm77 0h40.6l-9.3 74.6H441zm-235.3 0h-89.1c-3 19.5 6.7 28.3 20.5 28.3h54.9l-1.7 14h-78.9l-4 32.4h89.4c2.9-.2 23-.8 29.8-17.2 2.2-5.3 4.2-24.5 4.8-28.5 3.1-23.4-13-29-25.7-29z"/>
</svg>