<?xml version="1.0" encoding="UTF-8"?>
<svg xmlns="http://www.w3.org/2000/svg" version="1.1" viewBox="0 0 600 200">

  <!-- Generator: Adobe Illustrator 28.6.0, SVG Export Plug-In . SVG Version: 1.2.0 Build 709)  -->
  <g>
    <g id="Layer_1">
      <g>
        <path fill="#fff" d="M570.8,138c0,5-.9,7.5-4.3,7.5s-4.3-2.9-4.3-7.5v-11.6h-17.1v10.4c0,17.3,6.2,23.4,21.1,23.4s21.8-8.6,21.8-24.6-3.8-19.3-13.6-30.9c-8.8-10.4-12.1-16.2-12.1-24.1s1.2-7.9,4.5-7.9,4.1,2.1,4.1,9.3v10.7h17v-11.2c0-17.7-6.4-23.4-21.4-23.4s-21.2,10-21.2,24.3,5.9,23,14.3,32.9c8.4,9.6,11.4,16.4,11.4,22.9M521.5,138c0,5-.9,7.5-4.3,7.5s-4.3-2.9-4.3-7.5v-11.6h-17.1v10.4c0,17.3,6.2,23.4,21.1,23.4s21.8-8.6,21.8-24.6-3.8-19.3-13.6-30.9c-8.8-10.4-12.1-16.2-12.1-24.1s1.2-7.9,4.5-7.9,4.1,2.1,4.1,9.3v10.7h17v-11.2c0-17.7-6.4-23.4-21.4-23.4s-21.2,10-21.2,24.3,5.9,23,14.3,32.9c8.4,9.6,11.4,16.4,11.4,22.9M463.1,137.3v-15.4c0-6.4,2.1-8.8,8.6-8.9v30.9c-1.4.5-2.9.9-4.1.9-3.8,0-4.5-2.9-4.5-7.5M474.3,159h14.5v-75.7c0-18.4-5.9-25.4-21.2-25.4s-21.2,6.1-21.2,24.3v12.5h16.8v-12.5c0-7.1,1.1-8.9,4.3-8.9s4.3,1.6,4.3,8.9v20c-16.1-2.1-25.7,4.8-25.7,20.5v19.8c0,12.1,4.8,17.5,13.8,17.5s10.4-3.2,13-7.1c.5,2.3,1,4.6,1.6,6.1M415.6,47.6c5.4,0,7,3,7,9.1v40.2c0,5.9-1.6,8.9-7,8.9h-2.9v-58.2h2.9ZM416.8,121.2c14.5,0,22.9-8.6,22.9-26.1v-37.9c0-17.5-8.4-25.7-22.9-25.7h-21.2v127.5h17.1v-37.9h4.1ZM347.3,80.8c0-5.7,1.2-7.5,4.3-7.5s4.3,1.8,4.3,7.5v21.6h-8.6v-21.6h0ZM373,135.3v-15.2h-17.1v17.1c0,5.7-1.1,7.5-4.3,7.5s-4.3-1.8-4.3-7.5v-23.6h25.7v-30.9c0-20.2-8-24.8-21.4-24.8s-21.4,4.6-21.4,24.8v52.5c0,20.2,8,24.8,21.4,24.8s21.4-4.6,21.4-24.8M308.1,159h14.5V59h-17.1v85c-1.2.4-2.7.7-4.3.7-3,0-4.3-1.8-4.3-5.9V59h-17.1v84.8c0,11.6,5.9,16.2,13.4,16.2s10.7-3.6,13.4-7.1c.5,2.5,1.1,4.6,1.6,6.1M238.9,167.3c0-1.8.4-3.2,1.2-4.6,2.7.9,5.7,1.4,9.1,1.6,7.1.5,9.3,1.2,9.3,4.3s-3.2,5-8.6,5c-5.7,0-11.1-1.6-11.1-6.3M253.2,80.8v38.2c0,5.9-.9,7.5-4.3,7.5s-4.3-1.6-4.3-7.5v-38.2c0-5.7,1.4-7.5,4.3-7.5s4.3,1.8,4.3,7.5M273.2,166.2c0-11.6-5.7-16.8-16.8-18.2-12.1-1.4-15.7-2.1-15.7-5.4s.2-.9.5-1.2c2.3.5,4.8.7,7.7.7,13.6,0,21.4-4.6,21.4-24.8v-34.5c0-3.4-.2-6.2-.7-8.8l3.9-1.1c.5-4.6,1.1-9.3,1.1-13.8s-.5-1.2-1.4-1.2c-3.9,0-7,1.6-8.8,4.5-3.8-3.4-8.9-4.5-15.5-4.5-13.4,0-21.4,4.6-21.4,24.8v34.5c0,11.4,2.7,18,7.3,21.4-3.8,2.7-6.2,6.2-6.2,10.7s2.1,8.2,5.7,10.5c-4.5,2.7-7.9,7-7.9,12,0,9.3,8,13.9,23.9,13.9,16.1,0,22.9-8.7,22.9-19.6M194.4,137.3v-15.4c0-6.4,2.1-8.8,8.6-8.9v30.9c-1.4.5-2.9.9-4.1.9-3.8,0-4.5-2.9-4.5-7.5M205.6,159h14.5v-75.7c0-18.4-5.9-25.4-21.2-25.4s-21.2,6.1-21.2,24.3v12.5h16.8v-12.5c0-7.1,1.1-8.9,4.3-8.9s4.3,1.6,4.3,8.9v20c-16.1-2.1-25.7,4.8-25.7,20.5v19.8c0,12.1,4.8,17.5,13.8,17.5s10.4-3.2,13-7.1c.5,2.3,1.1,4.6,1.6,6.1M143.9,80.8c0-5.7,1.2-7.5,4.3-7.5s4.3,1.8,4.3,7.5v21.6h-8.6v-21.6h0ZM169.6,135.3v-15.2h-17.1v17.1c0,5.7-1.1,7.5-4.3,7.5s-4.3-1.8-4.3-7.5v-23.6h25.7v-30.9c0-20.2-8-24.8-21.4-24.8s-21.4,4.6-21.4,24.8v52.5c0,20.2,8,24.8,21.4,24.8s21.4-4.6,21.4-24.8M121.9,143h-14.1V31.6h-17.1v127.5h31.3v-16.1Z"/>
        <g>
          <path fill="#fff" d="M57,28.6h-31.3c-7.6,0-13.8,6.2-13.8,13.8v105.9c0,7.6,6.2,13.9,13.8,13.9h31.3c7.6,0,13.9-6.2,13.9-13.9V42.4c0-7.6-6.2-13.8-13.8-13.8"/>
          <path fill="#1d428a" d="M55.7,146.3c-1.7-1.5-.6-2.2-.6-2.8-1.1-4.6-4.8-7.4-2.9-9-.5-1.5-1.4-3.5-1.4-3.4-5.7-3.3-10.6-8.6-11.4-9.4-1-1.1-2.7-2.2-3-3.1-1.4-1.3-8.1-10.8-9.7-14.4l-2.7-.4c-1.2-5.1-5.4-9.4-5.5-14.5,0-1.9.9-6.1,1.2-6.9.3-.8,1.9-2.2,1.9-2.2v-1.4c-6,.2-4.3-.4-5.3-2.8-.7-1.6-.2-2,0-3.1.8-3.3,3.5-8.4,4.6-10.7.3-1.2,1.5-4,1.5-4,4.5-9.1,6.1-8.4,11.4-8.9l.3-.4c5.3-.2,4.4-.6,5.2-5.7-.8.3-1-1.6-1-1.6-.4-2.9.8-2.4,1.4-2.4.1-4.8.6-6.3,4.1-7.6h-17.9c-5.8,0-10.6,4.7-10.6,10.6v105.9c0,5.9,4.7,10.6,10.6,10.6h31.3c-3.6-1.9-1.5-5.6-1.3-12.6Z"/>
          <path fill="#c8102e" d="M49.3,53.1v.5c1,.6,1.5,1,2.4,1.6,2.6,1.6,5.7,4.5,5.3,14.3.7,2.1,1,6.4,1.7,7.7,1.3,2.6,2.2,4.4,2.6,6.8,0,0,.4,3.9.9,4.1,2.6.6,1.9.9,2.3,1.3.4.5,1.9.5,1.9,1.9.5.7.9,1.4,1.2,2.2v-51.2c0-5.8-4.7-10.6-10.6-10.6h-10.1c1.6.6,2.5,1.3,3.1,2.3,1.3.1,2.9,3,.4,7.4,1.1.7.2,1.8-.5,3-.2.4-.5,1.1-1.2,1-.9,1.9-2,3.8-2.9,3.9-.2.3-.4,1.1,0,1.5,1.2.6,2.7,1.3,3.5,2"/>
          <path fill="#c8102e" d="M67.6,100.5c-1.4,3.5-4.8,5.9-8.8,5.9s-9.4-4.2-9.4-9.4,3.1-8.2,7.2-9.2c-1.1-2.7-3.4-7.1-4.1-8.6-.6-1.4-2.2-10.4-2.5-12.2,0-.4-4.1,2.3-4.1,2.5-.2.2-3,7.4-3.1,7.8,0,.2,0,1.2,0,1.2,0,0,1.4.2,2.1,2.5.8,2.4,3.1,11,3.1,11,0,0-.6.7-.7.6,3,10,1.9,14.3,3.3,17.2,1.7,4.1,2.1,3.6,3.6,7,1,2.5,2.2,12.5,2.6,12.9,1.6,2,2.5,3.6,2.5,4.8s-1.4,4.6-.9,6.6c.3,1.2.5,3.8,1,4.3,0,0,.5,1,.2,1.4,0,.1-.2.4-.2.6.9,3.1,3.8,8.5-.9,11.3h0c5.1-.8,8.9-5.1,8.9-10.5v-47.8h0Z"/>
          <path fill="#fff" d="M31.7,152.3v-19.2h3.7c2.2,0,3.5,1.2,3.5,3.8v2.9c0,1.7-.5,2.6-1.3,3.1.8.5,1.3,1.4,1.3,2.8v2.8c0,2.6-1.4,3.8-3.5,3.8h-3.7ZM34.2,143.9v5.9h1c.9,0,1.1-.5,1.1-1.4v-3.2c0-.9-.3-1.3-1.1-1.3h-1ZM34.2,135.5v6.3h1c.9,0,1.1-.3,1.1-1.4v-3.7c0-.9-.3-1.3-1.1-1.3h-1ZM44.9,148.4h-2.3l-.3,3.9h-2.6l2.3-19.2h3.7l2.2,19.2h-2.7l-.3-3.9ZM43.7,135.2h-.1c-.2,2.3-.5,6.4-.6,7.7l-.3,3.3h2l-.3-3.3c0-1.3-.5-5.3-.7-7.7M24.1,152.3h-2.2v-19.2h3.5l2.8,15.7c-.2-3.8-.6-8.3-.6-12.2v-3.5h2.2v19.2h-3.2l-2.8-15.4c.2,3.5.3,6.4.3,9.3v6h0Z"/>
        </g>
      </g>
    </g>
  </g>
</svg>