<?xml version="1.0" encoding="UTF-8" standalone="no"?><svg xmlns:rdf="http://www.w3.org/1999/02/22-rdf-syntax-ns#" xmlns="http://www.w3.org/2000/svg" height="279.56915" width="327.92088" version="1.1" xmlns:cc="http://creativecommons.org/ns#" xmlns:dc="http://purl.org/dc/elements/1.1/" viewBox="0 0 327.92088 279.56915">
    <polygon fill="#ffffff" points="163.96 279.569 0 79.746 70.007 0 257.914 0 327.921 79.746 163.96 279.569"/>
    <path fill="#1d428a" d="M96.70343,67.94447c.45831-1.71866,1.83324-5.04141,2.5207-6.87465A92.3204,92.3204,0,0,0,70.57975,11.34318L13.7493,75.9649H92.69322C94.2973,72.75673,95.67223,69.89229,96.70343,67.94447Z"/><path fill="#1d428a" d="M104.72386,50.75784c5.6143-8.59331,9.50993-8.02043,17.87409-8.82247l.57288-.802c10.65572-.45831,8.93705-1.26035,10.42656-11.57234-1.60409.68747-2.0624-3.20816-2.0624-3.20816-.802-5.84346,1.60408-4.69768,2.74986-4.81226.22915-7.79127.91662-11.2286,4.92684-13.7493H78.371A101.16314,101.16314,0,0,1,104.72386,50.75784Z"/><path fill="#1d428a" d="M168.65811,261.4659c-6.07262-4.01022-2.177-11.34317-1.83325-24.86332-3.43733-3.09359-1.14578-4.35395-1.26036-5.49973-2.29155-9.28078-9.62451-14.89507-5.84346-17.98866a69.08491,69.08491,0,0,0-2.74986-6.87465c-11.57232-6.6455-21.31141-17.41578-23.03007-18.90529-2.0624-2.177-5.49973-4.35395-6.07262-6.18718-2.74986-2.52071-16.38459-21.76973-19.47818-28.87354l-5.49972-.802c-1.60409-6.76007-5.84345-12.71812-8.47874-18.9053a100.20379,100.20379,0,0,1-20.96769,24.17587l90.74539,110.56731Z"/><path fill="#1d428a" d="M91.662,120.65013a67.36224,67.36224,0,0,1,2.40612-12.25979c.68747-1.71866,3.89564-4.46852,3.89564-4.46852V101.172c-12.03064.34373-8.59331-.91662-10.65571-5.49972-1.48951-3.20817-.45832-3.89564.11457-6.18719a44.139,44.139,0,0,1,1.83324-5.49972H13.52015l54.65347,66.56953A89.5445,89.5445,0,0,0,91.662,120.65013Z"/><path fill="#c8102e" d="M259.28893,151.01317l55.11178-67.14242h-57.6325v-.11458a39.39256,39.39256,0,0,0-.68747-7.79127h58.0908l-57.17416-65.08a92.82479,92.82479,0,0,0-19.59276,24.405h-8.937a99.61352,99.61352,0,0,1,20.16565-27.384H152.50269a8.23372,8.23372,0,0,1,2.86443,3.09359c2.63529.22916,5.72888,6.07261.91663,14.7805,2.177,1.48951.4583,3.5519-1.03119,6.07261-.45831.802-.91663,2.177-2.40614,2.177-1.83325,3.89564-4.1248,7.6767-5.72887,7.90585-.45831.57289-.91663,2.29156-.11459,3.0936a30.3749,30.3749,0,0,1,6.98924,4.01021l.11458.91662c1.94782,1.14578,2.86444,2.0624,4.81225,3.32275,4.58311,2.86444,10.08283,7.79127,10.65572,22.80093h26.00909a73.8916,73.8916,0,0,0-1.03119,7.90585h-24.405c1.14578,4.5831,1.71867,11.2286,2.86444,13.63472,2.63529,5.27057,4.46852,8.70789,5.27058,13.7493,0,0,.802,7.79128,1.71866,8.36417,5.27057,1.14577,3.78106,1.71866,4.5831,2.63528.802,1.0312,3.89563,1.0312,3.89563,3.89564a16.85929,16.85929,0,0,1,2.40613,4.46853,17.18241,17.18241,0,0,1,1.37493,7.10381,17.87168,17.87168,0,0,1-1.37493,6.87465,18.95129,18.95129,0,1,1-22.11344-25.43622c-2.177-5.49972-6.76007-14.32219-8.135-17.18662-1.26036-2.86444-4.46851-20.96768-5.0414-24.51959-.11458-.802-8.135,4.69767-8.24958,5.04141-.4583.45831-6.07261,15.00965-6.30176,15.69711a20.46024,20.46024,0,0,0-.11458,2.40613s2.74987.34374,4.35395,5.156,6.30177,22.11346,6.30177,22.11346-1.26035,1.37493-1.37492,1.26035c5.958,20.05108,3.89563,28.64439,6.53091,34.60242,3.32274,8.24958,4.23937,7.21839,7.21839,14.20761,2.0624,5.0414,4.35395,24.9779,5.156,25.89452,3.20817,4.1248,4.92684,7.333,4.92684,9.62451s-2.74986,9.1662-1.71867,13.17641c.57289,2.40614.91663,7.67669,2.0624,8.59332,0,0,1.03119,1.94781.45831,2.86443-.11459.34374-.45831.802-.34374,1.14578.91662,3.09359,2.74985,7.33295,3.20817,11.45775l76.65237-93.38068a99.89115,99.89115,0,0,1-25.89452-32.54h8.93705A94.36827,94.36827,0,0,0,259.28893,151.01317ZM219.416,50.87242l-4.1248,11.114c-4.35395,11.57233-4.12479,23.71755-4.12479,48.46629v6.76008h-10.312v-4.69768c0-28.98811,1.37493-39.18552,6.98923-52.4765l3.43733-8.02043H194.43805V42.62284h25.09247v8.24958Zm4.23937,51.90361v-15.468h10.08282v16.38459c0,3.78106.91662,4.81225,2.979,4.81225,1.83325,0,2.86444-1.0312,2.86444-4.81225V83.87074c0-3.5519-.34373-6.30176-4.01021-6.30176-2.29155,0-3.78106,1.60408-4.92684,3.5519l-6.87465-3.43733V42.62284h25.43621V52.0182h-16.27V70.236a18.92367,18.92367,0,0,1,6.53092-1.26035c8.47873,0,10.08282,7.10381,10.08282,14.7805v18.90529c0,11.34318-4.1248,15.12423-12.83268,15.12423C227.78011,117.90027,223.65532,114.11921,223.65532,102.776Z"/>
</svg>