<svg xmlns="http://www.w3.org/2000/svg" width="160" height="55">
  <path fill="#231f20" d="M14.710938 31.074219c1.160156 0 2.085937-.230469 2.773437-.695313.6875-.460937 1.03125-1.09375 1.03125-1.894531 0-.5-.160156-.917969-.476563-1.257813-.421874-.425781-1.179687-.640624-2.273437-.640624h-2.773437l-1.214844 4.488281Zm-5.695313-8.921875h6.976563c1.546874 0 2.84375.167968 3.882812.503906 1.039062.339844 1.863281.816406 2.476562 1.433594.492188.5.851563 1.070312 1.078126 1.714844.226562.644531.34375 1.339843.34375 2.085937 0 1.554687-.449219 2.914063-1.34375 4.074219-.894532 1.160156-2.289063 1.996094-4.191407 2.507812l2.851563 6.265625H15.4375l-2.457031-5.628906h-2.273438l-1.507812 5.628906H4.046875ZM33.34375 36.636719c.773438 0 1.472656-.171875 2.105469-.511719.628906-.339844 1.164062-.785156 1.601562-1.335938.4375-.554687.777344-1.164062 1.019531-1.835937.246094-.671875.367188-1.335937.367188-2 0-.5625-.085938-1.082031-.253906-1.566406-.167969-.484375-.414063-.90625-.742188-1.261719-.328125-.355469-.730468-.632812-1.210937-.828125-.480469-.195313-1.03125-.292969-1.652344-.292969-.773437 0-1.46875.167969-2.09375.507813-.621094.339843-1.15625.789062-1.601563 1.339843-.445312.550782-.789062 1.164063-1.03125 1.832032-.246093.671875-.367187 1.339844-.367187 2 0 .5625.085937 1.085937.253906 1.570312.167969.484375.414063.902344.742188 1.261719.328125.355469.730469.632813 1.210937.828125.480469.195312 1.03125.292969 1.652344.292969Zm-.433594 4.433593c-1.269531 0-2.421875-.207031-3.464844-.613281-1.039062-.40625-1.929687-.96875-2.675781-1.679687-.742187-.714844-1.316406-1.558594-1.722656-2.539063-.40625-.972656-.609375-2.03125-.609375-3.171875 0-1.359375.261719-2.671875.785156-3.9375.523438-1.261718 1.257813-2.378906 2.195313-3.347656s2.054687-1.746094 3.347656-2.332031c1.292969-.585938 2.710937-.878907 4.246094-.878907 1.269531 0 2.421875.203126 3.464843.609376 1.039063.410156 1.929688.96875 2.671876 1.683593.746093.710938 1.320312 1.558594 1.726562 2.535157.40625.976562.609375 2.035156.609375 3.171874 0 1.359376-.261719 2.671876-.789063 3.9375-.523437 1.265626-1.253906 2.382813-2.191406 3.351563-.9375.96875-2.054687 1.742187-3.347656 2.332031-1.292969.585938-2.710938.878906-4.246094.878906ZM48.183594 27.234375h-4.730469l1.167969-4.335937h14.949218l-1.140624 4.335937h-5.324219l-3.601563 13.503906h-4.945312ZM66.160156 36.636719c.773438 0 1.472656-.171875 2.105469-.511719.628906-.339844 1.164063-.785156 1.597656-1.335938.4375-.554687.777344-1.164062 1.023438-1.835937.242187-.671875.367187-1.335937.367187-2 0-.5625-.085937-1.082031-.253906-1.566406-.167969-.484375-.417969-.90625-.742188-1.261719-.328124-.355469-.734374-.632812-1.210937-.828125-.480469-.195313-1.03125-.292969-1.652344-.292969-.773437 0-1.472656.167969-2.09375.507813-.621093.339843-1.15625.789062-1.601562 1.339843-.445313.550782-.789063 1.164063-1.035157 1.832032-.242187.671875-.363281 1.339844-.363281 2 0 .5625.082031 1.085937.25 1.570312.167969.484375.417969.902344.746094 1.261719.328125.355469.730469.632813 1.210937.828125.476563.195312 1.027344.292969 1.652344.292969Zm-.4375 4.433593c-1.265625 0-2.421875-.207031-3.460937-.613281-1.039063-.40625-1.929688-.96875-2.675781-1.679687-.742188-.714844-1.316407-1.558594-1.722657-2.539063-.40625-.972656-.609375-2.03125-.609375-3.171875 0-1.359375.261719-2.671875.785156-3.9375.523438-1.261718 1.257813-2.378906 2.195313-3.347656s2.054687-1.746094 3.347656-2.332031c1.292969-.585938 2.707031-.878907 4.246094-.878907 1.269531 0 2.421875.203126 3.460937.609376 1.042969.410156 1.933594.96875 2.675782 1.683593.746094.710938 1.320312 1.558594 1.726562 2.535157.402344.976562.609375 2.035156.609375 3.171874 0 1.359376-.265625 2.671876-.789062 3.9375-.523438 1.265626-1.253907 2.382813-2.191407 3.351563-.941406.96875-2.054687 1.742187-3.347656 2.332031-1.292968.585938-2.710937.878906-4.25.878906ZM77.402344 22.898438H82.5l.625 10.324218 5.246094-10.074218h4.261718l.683594 10.074218 4.941406-10.324218h5.351563l-9.242187 17.964843h-4.410157l-1.109375-9.542969-4.726562 9.542969h-4.980469ZM105.488281 22.898438h4.917969l-4.765625 17.839843h-4.921875ZM119.054688 31.460938c1.113281 0 2-.222657 2.660156-.664063.660156-.445313.992187-1.050781.992187-1.820313 0-.480468-.152343-.878906-.457031-1.203124-.40625-.414063-1.132812-.617188-2.183594-.617188h-2.660156l-1.167969 4.304688Zm-5.464844-8.5625h6.695312c1.484375 0 2.730469.164062 3.726563.484374.996093.324219 1.789062.785157 2.378906 1.378907.46875.476562.816406 1.023437 1.035156 1.644531.214844.617188.324219 1.285156.324219 2 0 1.492188-.425781 2.796875-1.285156 3.910156-.859375 1.113282-2.199219 1.914063-4.023438 2.40625l2.738282 6.015625H119.75l-2.355469-5.402343h-2.183593l-1.445313 5.402343h-4.945313ZM131.859375 22.898438h14.226563l-1.140626 4.207031h-9.332031l-.734375 2.699219h8.46875l-1.039062 3.902343h-8.472656l-.757813 2.824219h9.484375l-1.117188 4.207031H127.09375ZM112.304688 16.371094c0 1.695312-1.425782 3.070312-3.183594 3.070312-1.753906 0-3.179688-1.375-3.179688-3.070312 0-1.695313 1.425782-3.070313 3.179688-3.070313 1.757812 0 3.183594 1.375 3.183594 3.070313ZM102.71875 16.085938l-8.128906-1.257813.851562 2.167969-7.792968-.578125L97.6875 18.78125l-.851562-2.121094ZM103.835938 12.390625l-3.300782-5.511719-1.550781 2.023438-5.195313-4.335938 5.046876 6.742188 1.5-1.972656ZM108.230469 11.136719l4.738281-5.605469-2.847656.480469 1.050781-5.109375-3.644531 6.648437 2.84375-.480469ZM116.464844 9.816406l9.089844-3.804687-5.84375 3.851562 2.644531.964844-9.386719 2.285156 5.945312-2.476562ZM113.875 16.136719l9.78125 2.980469-.800781-2.070313 8.492187.671875-10.6875-2.265625.75 1.882813Zm0 0"/>
  <path fill="#231f20" d="m153.539062 43.898438-.070312.359374-1.0625 3.160157-2.917969-10.308594-.023437-.113281-2.617188 9.929687H.890625v.980469h146.707031l.023438-.089844-.015625.078125 1.8125-2.929687 2.761719 9.128906.191406.882812 1.96875-10.097656h5.453125v-.980468Zm0 0"/>
  <path fill="#fff" d="M13.816406 30.175781c1.164063 0 2.089844-.230469 2.773438-.691406.6875-.464844 1.03125-1.097656 1.03125-1.898437 0-.496094-.15625-.914063-.476563-1.253907-.421875-.425781-1.179687-.640625-2.269531-.640625h-2.773438l-1.21875 4.484375ZM8.125 21.257812h6.972656c1.550782 0 2.847656.167969 3.882813.503907 1.039062.335937 1.867187.8125 2.480469 1.433593.488281.496094.847656 1.066407 1.078124 1.714844.226563.644532.339844 1.339844.339844 2.082032 0 1.558593-.445312 2.917968-1.339844 4.074218-.894531 1.160156-2.292968 1.996094-4.195312 2.507813l2.855469 6.269531h-5.65625l-2.457031-5.628906H9.816406L8.308594 39.84375H3.15625ZM32.449219 35.738281c.773437 0 1.476562-.167969 2.105469-.507812.632812-.339844 1.164062-.785157 1.601562-1.339844.4375-.550781.777344-1.164063 1.023438-1.832031.242187-.671875.363281-1.339844.363281-2 0-.5625-.082031-1.085938-.25-1.570313-.167969-.484375-.417969-.902343-.746094-1.261719-.328125-.355468-.730469-.628906-1.210937-.824218-.476563-.195313-1.027344-.296875-1.648438-.296875-.773438 0-1.472656.171875-2.09375.511719-.621094.339843-1.15625.785156-1.601562 1.335937-.445313.554687-.789063 1.164063-1.035157 1.835937-.242187.671876-.363281 1.335938-.363281 2 0 .5625.082031 1.082032.25 1.566407.167969.484375.417969.90625.746094 1.261719.328125.355468.730468.632812 1.210937.828124.476563.195313 1.027344.292969 1.648438.292969Zm-.433594 4.433594c-1.265625 0-2.421875-.203125-3.460937-.609375-1.039063-.410156-1.933594-.96875-2.675782-1.683594-.746094-.714844-1.320312-1.558594-1.722656-2.535156-.40625-.976562-.609375-2.035156-.609375-3.171875 0-1.359375.261719-2.671875.785156-3.9375.523438-1.265625 1.253907-2.382813 2.195313-3.351563.9375-.964843 2.054687-1.742187 3.347656-2.332031 1.292969-.585937 2.707031-.878906 4.246094-.878906 1.269531 0 2.421875.207031 3.460937.613281 1.039063.40625 1.933594.96875 2.675781 1.679688.746094.714844 1.320313 1.5625 1.726563 2.539062.402344.972656.605469 2.03125.605469 3.167969 0 1.359375-.261719 2.675781-.785156 3.941406-.523438 1.261719-1.253907 2.382813-2.191407 3.347657-.941406.96875-2.054687 1.746093-3.347656 2.332031-1.296875.585937-2.710937.878906-4.25.878906ZM47.292969 26.335938H42.5625l1.164062-4.332032h14.953126l-1.140626 4.332032h-5.328124L48.609375 39.84375h-4.945313ZM65.265625 35.738281c.773437 0 1.476563-.167969 2.105469-.507812.632812-.339844 1.164062-.785157 1.601562-1.339844.4375-.550781.777344-1.164063 1.023438-1.832031.242187-.671875.363281-1.339844.363281-2 0-.5625-.082031-1.085938-.25-1.570313-.167969-.484375-.417969-.902343-.746094-1.261719-.328125-.355468-.730469-.628906-1.210937-.824218-.476563-.195313-1.027344-.296875-1.648438-.296875-.773437 0-1.472656.171875-2.09375.511719-.621094.339843-1.15625.785156-1.601562 1.335937-.445313.554687-.789063 1.164063-1.035156 1.835937-.242188.671876-.367188 1.335938-.367188 2 0 .5625.085938 1.082032.253906 1.566407.167969.484375.417969.90625.746094 1.261719.324219.355468.730469.632812 1.207031.828124.480469.195313 1.03125.292969 1.652344.292969Zm-.433594 4.433594c-1.269531 0-2.421875-.203125-3.460937-.609375-1.039063-.410156-1.933594-.96875-2.675782-1.683594-.746093-.714844-1.320312-1.558594-1.726562-2.535156-.40625-.976562-.605469-2.035156-.605469-3.171875 0-1.359375.261719-2.671875.785157-3.9375.523437-1.265625 1.253906-2.382813 2.191406-3.351563.941406-.964843 2.054687-1.742187 3.347656-2.332031 1.292969-.585937 2.710938-.878906 4.25-.878906 1.265625 0 2.421875.207031 3.460938.613281 1.039062.40625 1.929687.96875 2.675781 1.679688.742187.714844 1.316406 1.5625 1.722656 2.539062.40625.972656.609375 2.03125.609375 3.167969 0 1.359375-.261719 2.675781-.785156 3.941406-.523438 1.261719-1.257813 2.382813-2.191406 3.347657-.941407.96875-2.058594 1.746093-3.351563 2.332031-1.292969.585937-2.707031.878906-4.246094.878906ZM76.511719 22.003906h5.097656l.625 10.320313 5.246094-10.070313h4.261719l.683593 10.070313 4.941407-10.320313h5.351562L93.476562 39.96875H89.0625l-1.105469-9.542969-4.726562 9.542969h-4.984375ZM104.59375 22.003906h4.921875l-4.769531 17.839844h-4.917969ZM118.160156 30.566406c1.117188 0 2.003906-.222656 2.664063-.667968.660156-.441407.988281-1.050782.988281-1.820313 0-.476563-.152344-.878906-.457031-1.203125-.402344-.410156-1.132813-.613281-2.179688-.613281h-2.664062l-1.164063 4.304687Zm-5.464844-8.5625h6.695313c1.488281 0 2.730469.164063 3.730469.484375.996094.324219 1.789062.78125 2.375 1.375.472656.476563.816406 1.023438 1.035156 1.644531.21875.621094.328125 1.289063.328125 2 0 1.496094-.429687 2.800782-1.285156 3.910157-.859375 1.113281-2.199219 1.917969-4.027344 2.410156l2.738281 6.015625h-5.425781L116.5 34.4375h-2.179688L112.875 39.84375h-4.945312ZM130.96875 22.003906h14.226562l-1.140624 4.207032h-9.332032l-.738281 2.699218h8.472656l-1.039062 3.898438h-8.472657l-.757812 2.828125h9.480469l-1.113281 4.207031h-14.355469Zm0 0"/>
  <path fill="#ec2c2e" d="M111.410156 15.476562c0 1.691407-1.421875 3.066407-3.179687 3.066407-1.757813 0-3.179688-1.375-3.179688-3.066407 0-1.695312 1.421875-3.070312 3.179688-3.070312 1.757812 0 3.179687 1.375 3.179687 3.070312Zm0 0"/>
  <path fill="#faeb28" d="m102.886719 16.152344-9.1875-2.222656.847656 2.167968-7.792969-.574218 10.042969 2.363281-.851563-2.121094ZM103.835938 12.390625l-4.195313-6.40625-1.546875 2.023437-5.195312-4.339843 5.042968 6.746093 1.5-1.976562ZM108.28125 11.136719l3.796875-6.503907-2.847656.480469 1.046875-5.1054685-3.644532 6.6484375 2.84375-.480469Zm0 0"/>
  <path fill="#f6e53e" d="m115.570312 8.921875 9.089844-3.808594-5.839844 3.855469 2.644532.964844-8.640625 3.277344 5.195312-3.46875Zm0 0"/>
  <path fill="#faeb28" d="m113.574219 16.152344 9.191406 2.066406-.800781-2.066406 8.488281.671875-10.6875-2.265625.753906 1.878906ZM152.648438 43l-.070313.359375-1.0625 3.160156-2.917969-10.304687-.027344-.113282-2.613281 9.929688H0v.976562h146.707031l.023438-.085937-.015625.074219 1.8125-2.925782 2.757812 9.128907.191406.878906 1.972657-10.097656h5.453125V43Zm0 0"/>
</svg>
