<?xml version="1.0" encoding="utf-8"?>
<!-- Generator: Adobe Illustrator 26.2.1, SVG Export Plug-In . SVG Version: 6.00 Build 0)  -->
<svg version="1.1" id="Layer_1" xmlns="http://www.w3.org/2000/svg" xmlns:xlink="http://www.w3.org/1999/xlink" x="0px" y="0px"
	 viewBox="0 0 500 500" style="enable-background:new 0 0 500 500;" xml:space="preserve">
<circle fill="#FFFFFF" cx="250.5" cy="250.5" r="245.5"/>
<g>
	<path d="M164.1,177.2h5.5h42.6c12.1,0,18.1,3.4,24.2,13.4l49.7,77.4h1.7v-90.8h44.6h5.5h146.9C453.7,77.4,360.5,5,250.5,5
		S47.3,77.4,16.1,177.2H164.1z"/>
	<path d="M439.2,212.9v145.1h-48.9V212.9h-55.9v145.1h-32.6c-12.1,0-17.9-3.4-24.2-13.4l-63.3-94.7h-1v108.1h-47.5V212.9h-55.7
		v145.1H60.3V212.9H7.9C6,225.1,5,237.7,5,250.5C5,386.1,114.9,496,250.5,496S496,386.1,496,250.5c0-12.8-1-25.4-2.9-37.6H439.2z"/>
</g>
<g>
	<path d="M416.1,485.8h-2v-9.7h-3.7v-1.7h9.3v1.7h-3.6L416.1,485.8L416.1,485.8z M431.7,485.8h-2l0.1-7l0.1-2.3l-0.5,1.9l-2.3,7.5
		h-1.8l-2.3-7.5l-0.6-1.9l0.1,2.3l0.1,7h-1.9v-11.4h2.7l2.9,9l2.8-9h2.7L431.7,485.8L431.7,485.8z"/>
</g>
</svg>
