<?xml version="1.0" encoding="UTF-8" standalone="no"?>
<svg xmlns:rdf="http://www.w3.org/1999/02/22-rdf-syntax-ns#" xmlns="http://www.w3.org/2000/svg" height="296.9948" width="296.9948" version="1.1" xmlns:cc="http://creativecommons.org/ns#" xmlns:dc="http://purl.org/dc/elements/1.1/" viewBox="0 0 296.9948 296.9948"><path d="M148.4974,0A148.4974,148.4974,0,1,0,296.9948,148.4974,148.49608,148.49608,0,0,0,148.4974,0" fill="#c8102e"/><path d="M148.4974,7.42487A141.07252,141.07252,0,1,0,289.56991,148.4974,141.0693,141.0693,0,0,0,148.4974,7.42487" fill="#fff"/><path d="M148.3324,14.70537A133.64767,133.64767,0,1,0,281.98006,148.353,133.64913,133.64913,0,0,0,148.3324,14.70537"/><path d="M148.5438,56.84151a91.65588,91.65588,0,1,0,91.6559,91.65589,91.65588,91.65588,0,0,0-91.6559-91.65589" fill="#fff"/><path d="M148.78614,62.90515a85.82428,85.82428,0,1,0,85.81912,85.82943v-.01547a85.82427,85.82427,0,0,0-85.81912-85.814" fill="#c8102e"/><path d="M46.74575,99.4056c-5.017-2.805-9.28109-6.83707-6.636-11.61168a3.19247,3.19247,0,0,1,3.23291-1.93871l-1.454-.80952,1.5056-2.69667,6.2802,3.52166-1.72216,3.05761c-2.52136-1.13436-3.56806-.81468-4.30539.51561-.97451,1.74279.35578,3.45463,5.29022,6.21833s7.01754,3.06276,8.11064,1.10857c.76827-1.37154.22171-2.68636-1.98512-4.192L57.12509,89.547c3.70212,2.48527,5.15616,5.51709,3.006,9.37389-2.88229,5.15616-7.87346,3.60931-13.406.51562" fill="#fff"/><path d="M58.51726,80.14219c-4.34665-3.764-7.84252-8.50251-3.95993-12.98837s8.7036-2.02122,13.406,2.06246c4.30023,3.72275,7.81674,8.48188,3.9393,12.96259s-8.88922,1.86652-13.406-2.02637m6.703-7.60534c-3.74854-3.24322-6.22349-4.54772-7.70846-2.83073s.15984,3.9754,3.90837,7.21862,6.18739,4.48071,7.66205,2.78949-.13922-3.95993-3.862-7.18253" fill="#fff"/><polygon points="78.951 69.593 80.101 68.706 70.588 56.444 69.438 57.336 67.288 54.562 73.119 50.041 75.27 52.809 73.981 53.81 83.587 66.19 86.381 64.019 83.751 60.626 86.856 58.218 91.475 64.168 81.029 72.269 78.951 69.593" fill="#fff"/><polygon points="95.549 57.574 96.843 56.924 89.877 43.049 88.583 43.698 87.005 40.564 93.605 37.253 95.183 40.388 93.718 41.12 100.751 55.135 103.917 53.542 101.989 49.7 105.505 47.937 108.883 54.671 97.065 60.606 95.549 57.574" fill="#fff"/><polygon points="114.147 48.999 115.55 48.612 111.456 33.644 110.058 34.025 109.135 30.638 122.18 27.075 124.057 33.964 120.267 35 119.236 31.236 115.529 32.247 117.132 38.114 120.52 37.191 121.438 40.543 118.05 41.471 119.736 47.627 123.495 46.601 122.366 42.456 126.187 41.409 128.172 48.679 115.039 52.263 114.147 48.999" fill="#fff"/><path d="M134.02405,36.55717c-.40218-6.00692.63936-11.74573,5.9863-12.1015a3.345,3.345,0,0,1,3.43916,1.58809l-.10827-1.59841,3.09369-.20624.47952,7.18253-3.41337.22687c-.28358-2.43371-1.20138-3.434-2.65028-3.34119-2.145.14437-2.87713,1.86137-2.46464,8.023.36094,5.43459,1.06733,7.41971,3.4237,7.25987,1.93356-.1289,2.51105-1.43856,2.3409-4.03727l-.08766-1.26841-2.9287.19593-.22687-3.47525,6.42457-.428.80952,12.07572-2.872.19593-.428-1.91293a3.83073,3.83073,0,0,1-3.60931,2.39761c-4.98085.33-6.703-3.831-7.17738-10.77637" fill="#fff"/><polygon points="155.52 43.461 156.959 43.652 158.99 28.271 157.552 28.08 158.011 24.605 171.411 26.379 170.478 33.453 166.58 32.938 167.091 29.07 163.285 28.565 162.486 34.593 165.966 35.052 165.508 38.501 162.032 38.042 161.197 44.369 165.064 44.874 165.626 40.62 169.55 41.141 168.565 48.607 155.077 46.823 155.52 43.461" fill="#fff"/><path d="M185.57534,49.91678l1.32.60327L193.356,36.4128l-1.32-.60327,1.45919-3.19166L199.796,35.495c5.15616,2.346,5.21287,5.976,3.55774,9.60592-1.69638,3.71243-4.64054,6.26473-9.7142,3.9393l-1.155-.51561-1.72216,3.76915,1.59325.73217-1.40764,3.0937-6.76488-3.0937Zm9.41516-4.027c2.00575.9178,3.3154,0,4.3982-2.346s.91264-3.97024-1.09826-4.888l-1.09827-.51562-3.3051,7.21863Z" fill="#fff"/><path d="M202.15239,57.80571l.99.69608,14.83943-12.99352,3.60931,2.52136-7.14644,18.392.86623.60843L213.367,69.80925l-5.976-4.192,1.89747-2.71214,1.485,1.03123.99-2.26355-3.56807-2.50074L206.365,60.84268l1.51075,1.06217-1.89746,2.69667-5.76974-4.04759Zm10.82794,1.0931,3.037-6.96082-5.646,5.1407Z" fill="#fff"/><path d="M220.61144,71.76859l.99,1.06733,11.37449-10.54435-.98483-1.06733,2.57808-2.38214,4.60444,4.96538c3.8465,4.12493,2.62965,7.461-.25264,10.13185-2.02122,1.87169-4.192,2.68637-6.39364,2.13465L229.81,81.68389l.6703.71154-2.48528,2.30481-4.21773-4.54774,2.41824-2.24293.66.71155,2.2223-4.45492-1.27357-1.37154-3.41854,3.16588.72186.77342-2.41824,2.24294-4.54257-4.90351Zm10.39482-.397c1.50044,1.62419,2.97,1.33544,4.83132-.39186s2.2584-3.171.73733-4.8107l-.758-.81983-5.58928,5.15616Z" fill="#fff"/><polygon points="234.801 88.103 235.544 89.351 248.883 81.411 248.14 80.163 251.151 78.368 254.699 84.319 251.76 86.067 251.11 84.979 244.845 88.707 253.095 88.304 252.657 87.577 255.596 85.829 258.834 91.259 255.818 93.053 255.06 91.78 248.609 91.893 242.128 100.401 242.731 101.417 239.818 103.149 236.333 97.302 239.168 95.616 239.818 96.704 243.747 91.475 239.88 91.666 237.622 93.012 238.271 94.105 235.435 95.791 231.888 89.841 234.801 88.103" fill="#fff"/><path d="M62.55453,234.95588l-1.14467,1.19623-2.15527-2.03153,5.15616-5.48616L66.7929,230.867c-1.95935,2.31-1.99543,3.8929-.64968,5.15616,1.25811,1.18077,2.36668,1.14467,3.42369,0,2.609-2.77917-3.3051-9.11608,1.2942-14.01444,2.57808-2.73275,5.84708-2.57808,8.09517-.48984,1.3045,1.222,1.96449,2.57808,1.43341,3.95993l1.13435-1.2117,2.16559,2.02637-4.89836,5.21806-2.48011-2.2945c1.54685-1.85106,1.86653-3.1865.65484-4.326s-2.25324-.91264-3.0937,0c-2.40277,2.57808,3.2587,9.03874-1.2581,13.84429-2.83589,3.0215-6.08427,2.54714-8.56954.20624-1.14982-1.07763-1.96449-2.50588-1.49528-3.97539" fill="#fff"/><polygon points="78.363 246.341 79.59 247.109 87.804 233.945 86.572 233.177 88.428 230.202 94.306 233.868 92.496 236.766 91.419 236.095 87.562 242.278 94.703 238.142 93.986 237.694 95.796 234.796 101.159 238.142 99.297 241.117 98.044 240.334 92.362 243.381 90.496 253.915 91.496 254.539 89.707 257.411 83.932 253.807 85.675 251.012 86.758 251.682 87.851 245.237 84.504 247.176 83.112 249.409 84.19 250.084 82.447 252.879 76.569 249.213 78.363 246.341" fill="#fff"/><polygon points="103.077 259.803 104.835 260.453 106.289 256.503 106.403 244.484 105.237 244.056 106.454 240.762 112.724 243.077 111.543 246.284 110.409 245.866 109.904 253.095 114.24 247.279 113.162 246.882 114.343 243.67 120.561 245.964 119.344 249.259 118.097 248.8 110.28 258.102 108.867 261.933 110.625 262.583 109.455 265.764 101.901 262.98 103.077 259.803" fill="#fff"/><polygon points="124.351 266.46 125.79 266.651 127.842 251.27 126.408 251.079 126.867 247.599 134.096 248.568 133.643 251.956 132.111 251.749 131.358 257.385 136.159 258.03 136.912 252.394 135.349 252.183 135.803 248.795 143.032 249.759 142.563 253.24 141.098 253.044 139.041 268.425 140.511 268.62 140.062 271.977 132.833 271.013 133.271 267.744 134.834 267.95 135.664 261.716 130.868 261.077 130.033 267.311 131.565 267.517 131.126 270.781 123.903 269.817 124.351 266.46" fill="#fff"/><path d="M149.45644,269.1206l1.20654-.08765,3.269-19.44389,4.37243-.31968,6.1152,18.74779,1.057-.07735.2475,3.37728-7.27018.51561-.24234-3.28963,1.80981-.1289-.66-2.35634-4.34664.31968-.36608,2.45434,1.84075-.13407.24234,3.28963-7.02785.51562Zm9.08-6.00694-2.06247-7.31143-1.10857,7.54346Z" fill="#fff"/><polygon points="169.39 251.461 168.086 251.853 167.08 248.491 173.685 246.506 174.665 249.78 173.366 250.172 177.614 259.381 176.031 245.799 179.568 244.742 185.797 256.957 184.261 246.903 183.013 247.274 182.028 244 188.257 242.128 189.267 245.49 187.906 245.897 190.34 265.037 186.576 266.171 180.089 253.523 181.734 267.62 177.908 268.77 169.39 251.461" fill="#fff"/><polygon points="203.606 255.539 204.849 254.792 196.867 241.489 195.62 242.236 193.815 239.225 199.755 235.662 201.513 238.591 200.425 239.246 204.179 245.495 203.741 237.25 203.019 237.689 201.255 234.76 206.674 231.506 208.484 234.512 207.211 235.276 207.345 241.726 215.873 248.171 216.884 247.568 218.626 250.471 212.79 253.972 211.093 251.146 212.186 250.497 206.948 246.583 207.149 250.45 208.505 252.703 209.593 252.049 211.289 254.879 205.349 258.442 203.606 255.539" fill="#fff"/><path d="M227.41242,241.41655,228.521,242.654l-2.20684,1.98-5.02725-5.60991,2.42854-2.18106c2.13466,2.15013,3.71244,2.32543,5.084,1.08794,1.28388-1.14983,1.34575-2.2584.31452-3.40821-2.54715-2.83589-9.36875,2.51621-13.8546-2.48527-2.50589-2.78949-2.0934-6.04819.2011-8.10549,1.33028-1.19107,2.75338-1.73762,4.06305-1.08794l-1.10857-1.23748,2.20684-1.98,4.76428,5.316-2.51621,2.26356c-1.70668-1.72215-3.01635-2.13466-4.25383-1.03123a1.94908,1.94908,0,0,0-.27327,3.0937c2.346,2.609,9.28108-2.48012,13.68445,2.42854,2.76885,3.0937,2.01606,6.2802-.51562,8.55923-1.17044,1.03123-2.66574,1.74279-4.08883,1.155" fill="#fff"/><polygon points="273.472 145.553 264.923 144.244 261.098 136.097 257.277 144.244 248.723 145.553 254.91 151.895 253.451 160.846 261.098 156.618 268.749 160.846 267.285 151.895 273.472 145.553" fill="#fdb927"/><polygon points="39.713 144.244 35.887 136.097 32.066 144.244 23.512 145.553 29.699 151.895 28.24 160.846 35.887 156.618 43.533 160.846 42.074 151.895 48.262 145.553 39.713 144.244" fill="#fdb927"/><path d="M231.44454,125.66076c-.27844-.99513-.55686-1.99027-.8714-2.96995-.0825-.263-.18046-.51562-.26811-.78889a91.68026,91.68026,0,0,0-14.82912-7.79611,8.19826,8.19826,0,0,0,1.18076-4.84679,1.46194,1.46194,0,0,0-.03609-.397c-.0361-.1289,0-.26812-.03094-.40218s0-.27843-.03093-.41764,0-.26813-.03094-.397,0-.26812-.03094-.40733a2.78,2.78,0,0,1-.03609-.40734,2.83031,2.83031,0,0,0-.03094-.41249c-.03093-.13922,0-.26812-.03093-.397a6.49958,6.49958,0,0,0-.067-.80952c-.51561-3.532-3.49587-6.4916-8.89953-8.79641a55.68875,55.68875,0,0,0-6.538-2.32027c-1.64482-.51561-3.202-.99-4.60961-1.54685-1.27873-.51561-2.98026-1.222-4.93959-2.03668-6.1152-2.52651-14.48365-5.9863-20.05746-7.925a62.90494,62.90494,0,0,0-25.05378-3.12979c-1.09826.0825-2.19653.20109-3.27416.35061-6.49677.87139-14.59193,4.44461-18.84061,6.49677-6.39364,3.09369-12.15823,6.57925-15.04567,9.12124-.98483.86623-2.32028,2.06247-3.86712,3.49588-6.44,5.87286-18.423,16.80907-24.85785,19.9234a8.023,8.023,0,0,0-2.01089,1.2942,3.19168,3.19168,0,0,0-1.09311,2.8926,3.12478,3.12478,0,0,0,.03094.40734,2.90755,2.90755,0,0,0,.0361.40218,2.4222,2.4222,0,0,0,.03093.40734,2.32016,2.32016,0,0,0,.03094.40218,3.13876,3.13876,0,0,0,.03093.41249,2.33409,2.33409,0,0,0,.03094.40218,1.657,1.657,0,0,0,.03093.40734,3.09347,3.09347,0,0,0,.0361.40734,2.89256,2.89256,0,0,0,.07219.61358,3.0936,3.0936,0,0,0,.397.93843c-.51561.40734-1.07248.81466-1.62935,1.2581-7.49189,5.96568-11.9365,11.591-13.21007,16.71628a4.47963,4.47963,0,0,0-.11344.74249v.20624c0,.66-.0464,1.30967-.0464,1.9748,0,1.748.067,3.48557.17015,5.21287.04125.64452.09281,1.28388.14437,1.92325s.0825,1.17561.14437,1.75826c.04641.46921.11859.9281.17531,1.39731a85.66952,85.66952,0,0,0,3.64541,16.49971h0c.14953.44343.29906.88686.45374,1.33029h0c.15469.44858.28875.90232.45375,1.3406h0a85.33024,85.33024,0,0,0,5.46037,11.9623c.76827,1.39731,1.58295,2.76369,2.42856,4.12492.23718.37641.47951.74765.7167,1.1189s.47437.75279.71671,1.11889a85.80365,85.80365,0,0,0,138.0974,6.06363c.51561-.66,1.06217-1.33028,1.57778-2.01089a80.034,80.034,0,0,1-8.487-10.35357,21.27989,21.27989,0,0,0,3.49587.48985,3.30549,3.30549,0,0,0,.39188,0,3.00088,3.00088,0,0,0,2.57808-1.949,2.86681,2.86681,0,0,0,.13921-1.2478,2.707,2.707,0,0,0-.03094-.40734q-.03132-.40473-.06187-.80952a2.71643,2.71643,0,0,0-.0361-.40734,2.64037,2.64037,0,0,0-.03093-.40218,2.77824,2.77824,0,0,0-.03094-.41249,2.64165,2.64165,0,0,0-.03093-.40218,3.52119,3.52119,0,0,0-.03094-.40218,3.006,3.006,0,0,0-.892-2.32543c-2.77918-2.73792-5.19226-8.16736-6.703-12.78213l.8817-3.90321c3.40307.31452,6.52254.51561,9.28109.51561a29.73869,29.73869,0,0,0,8.34782-.88686c.37641-.11343.56718-.30937.61359-.55686.47951.29906.95389.60328,1.39731.892,1.77372,1.16529,3.24323,2.21714,4.42914,3.05245h0c.19594-.84046.397-1.68091.57233-2.53168a85.9634,85.9634,0,0,0-1.46435-40.08914Z"/><path d="M195.38752,176.27363c-.51562,3.56807-1.06733,9.44093.10313,13.04508l1.20137,3.71244-3.09369-2.39761c-.38671-.30422-8.41486-6.57411-11.94167-12.37479-2.06246,5.00663-5.01695,13.73086-3.77946,17.83l1.21685,4.02179-3.16073-2.77917c-.36608-.31452-8.04876-7.15676-10.36388-15.948l-13.06055,19.07779-.98483-1.4334c-.2475-.35061-5.481-7.89924-6.13068-16.08722L130.63129,194.5058s-5.63568-8.5747-2.79979-18.459l-27.802,14.066s-2.1759-15.221,4.4446-25.03831c-11.622,8.17766-20.38229,20.51636-27.0028,31.401a85.80365,85.80365,0,0,0,138.10774,6.1049c-4.12493-4.30023-11.03418-12.28712-14.20521-20.42354A23.35715,23.35715,0,0,1,195.38752,176.27363Z" fill="#9ea2a2"/><path d="M177.19142,162.21279c-11.79729-.06188-23.59973,1.36123-31.06586,2.15527a42.50892,42.50892,0,0,1-4.68178.263c-5.91928-.03094-6.868-1.75826-6.91958-1.86653l-.41765.10827-.58264.12375c-.25265.05156-.51562.10313-.7528.13921s-.38671.04124-.57749.05671-.48984.0464-.73218.0464h-.19077c-.14437,0-.28359-.02577-.428-.0361a3.57838,3.57838,0,0,1-.58781-.0464,5.9979,5.9979,0,0,1-.60327-.13406,4.84372,4.84372,0,0,1-.51562-.14438,4.67209,4.67209,0,0,1-.56718-.2578,4.28573,4.28573,0,0,1-.48468-.24751,5.40732,5.40732,0,0,1-.51562-.40734,4.66968,4.66968,0,0,1-.42281-.36608,6.79123,6.79123,0,0,1-.45374-.58781c-.11344-.15984-.23718-.299-.34031-.47437a7.9415,7.9415,0,0,1-.38155-.81467c-.08766-.19594-.18047-.36608-.25781-.57749-.1186-.34547-.20624-.74765-.29905-1.14466-.05156-.20625-.11343-.38156-.15468-.59812s-.07219-.62389-.10827-.93326a45.44113,45.44113,0,0,0-10.94653,3.16072c-12.679,8.42-11.26106,18.78905-11.85917,25.67253l5.66147-2.774.36609-.2114-.28875.17014,23.0532-11.24042s-3.16073,10.64232.63421,19.10357l16.113-12.57588-.13407,2.72245c-.30937,6.2441,3.0937,12.79759,4.79523,15.66441l14.51458-21.18664.35062,3.22776c.67545,6.2338,5.01179,11.9262,7.78064,14.989a37.84917,37.84917,0,0,1,2.09856-10.00811,85.43781,85.43781,0,0,1,3.19683-8.24985l1.23233-2.66058.99,2.75855c1.39731,3.86712,6.6205,8.82734,9.7967,11.60136a53.59031,53.59031,0,0,1,1.03123-13.8907l.65483-3.16589,1.57262,2.82558c4.43945,7.96628,10.7609,10.16279,14.43725,10.7506-4.558-5.67178-6.7752-13.406-6.801-14.35991v-.91263l.70639-3.05246c-4.12492-.46405-8.59016-1.03123-13.26164-1.71185A103.07832,103.07832,0,0,0,177.19142,162.21279Z" fill="#9ea2a2"/><path d="M63.60123,159.01082a85.66968,85.66968,0,0,0,3.64541,16.49971,57.43159,57.43159,0,0,1,8.6572-8.85828c1.60872-1.24264,3.3051-2.44918,5.03241-3.63509,4.38273-3.01119,8.99234-5.79037,13.28226-8.188,2.81011-1.57262,5.49131-3.00089,7.82705-4.19712,2.72245-1.39217,6.404-3.31027,9.7967-5.0685l3.68151-1.9284,3.73821-1.96966a29.9523,29.9523,0,0,0-5.9502-5.2335c-.18562-.12374-.36093-.2475-.55172-.36608a13.32856,13.32856,0,0,0-1.29935-.71671l-4.4343-2.24808h4.9035a119.73581,119.73581,0,0,0,15.98411-2.52652,12.58124,12.58124,0,0,1,2.0934-.63421c1.90778-.428,4.00118-.98483,6.12552-1.59325a57.64089,57.64089,0,0,0,13.28742-5.96052c-.04641-.19594-.067-.40734-.10828-.61358a6.796,6.796,0,0,1-.19594-1.41279c-2.84619,1.76342-7.32689,2.35637-14.891.33515a37.12584,37.12584,0,0,0,18.24766-8.04361c-9.575-1.93872-19.80481-2.57808-28.29185,1.45918,0,0,9.87405-9.28108,18.56218-10.79183,0,0,9.94623,4.12492,18.93858,7.17737.22687.05156.81466.24749,1.88715.629,1.9645.63937,3.83619,1.20654,5.50678,1.63966a37.78892,37.78892,0,0,0,19.07779-.28875c13.87523-3.40822,8.72937-7.63112,8.72937-7.63112s7.42487,5.45007,12.8904,3.04214c2.65028-1.17045,1.94387-3.34119.51562-5.27475-2.83589-2.53168-6.703-3.74853-10.47732-4.919-1.72732-.51561-3.35667-1.03123-4.91382-1.66028-1.2942-.51562-2.99573-1.22717-4.97055-2.06246-6.07395-2.511-14.38568-5.95021-19.85637-7.85283a59.50207,59.50207,0,0,0-26.58516-2.609c-9.71936,1.31482-26.513,9.97717-31.91147,14.726-.95905.84046-2.28418,2.06247-3.81556,3.44947-7.06394,6.40909-18.85092,17.15968-25.77564,20.51634l-.29391.14954a35.38147,35.38147,0,0,0,6.50192.43311l4.64055-.06187-4.00634,2.30481A90.57822,90.57822,0,0,0,78.683,131.99769c-6.64629,5.29022-10.74544,10.31232-11.85917,14.51974A29.56061,29.56061,0,0,0,78.0952,142.872h0A101.983,101.983,0,0,0,63.60123,159.01082Z" fill="#9ea2a2"/><path d="M173.94819,123.54673c-6.84221,5.36241-21.60946,14.95287-33.79862,9.32233a17.90938,17.90938,0,0,1-1.70152-.892c-.40734-.24234-.81467-.51561-1.21685-.78373v-.03093c-6.2441,1.37154-11.14245,2.25324-11.14245,2.25324h-.04124c-.51562.10313-.98483.19077-1.47982.28358-3.57838.69092-6.703,1.14467-8.92531,1.40764.28874.20624.55171.4228.825.63421s.48984.3764.72186.57232l.51561.44343c.22688.20109.45891.397.67546.593l.42795.40734c.21141.19594.42281.397.61359.593s.232.23718.35061.35577.37125.37641.51562.55172l.2939.32484c.14438.15984.29905.32484.42281.46921s.15468.18561.23718.27844l.30421.35577c.10313.12375.17015.20625.23718.299l.10828.13407a1.63957,1.63957,0,0,1,.15468.2011l.84045,1.11889h0l-1.20139.64452c-.1186.06187-12.05511,6.3627-18.52608,9.6678-2.32027,1.18591-5.46037,2.84619-8.93047,4.821a147.465,147.465,0,0,0-16.83486,10.962c-.758.58265-1.52107,1.24264-2.28934,1.95419h0c-.2578.23718-.51561.51562-.76827.76312a76.60979,76.60979,0,0,0-6.15645,6.9041,85.32858,85.32858,0,0,0,5.46037,11.9623c.76827,1.39732,1.58294,2.7637,2.42855,4.12493a137.368,137.368,0,0,1,13.8546-19.07779,84.89688,84.89688,0,0,1,6.27505-6.39364c8.95109-8.19314,18.56218-13.11727,28.6373-14.65895q4.77462-.7322,9.52859-1.54685l-.93326-5.548h.47437a21.30323,21.30323,0,0,0,2.13981-.11859h.07734c.44342-.05157.94357-.1186,1.47465-.20625l.24234-.04124c.54139-.09281,1.11889-.20624,1.73762-.35577l.21141-.05157c.63421-.15468,1.29934-.34031,2.00059-.562h.06187c.69092-.22171,1.41794-.51561,2.16559-.78889l.36094-.14953q1.106-.46407,2.27387-1.03124l.34547-.18561c.81467-.42281,1.64482-.892,2.48527-1.42825a67.42741,67.42741,0,0,1,19.12418-8.2035,31.08669,31.08669,0,0,1,4.50133-.78373S171.76715,127.50152,173.94819,123.54673Z" fill="#9ea2a2"/><path d="M217.29089,159.413l-.6703-.29391-.71671-.30937-.30937-.1186a57.00259,57.00259,0,0,0-7.1-2.34605c-1.03123-.263-2.06246-.51561-3.16589-.72186-.94873-.18046-1.91809-.3403-2.90292-.46921h-.09281q-2.95448-.39187-5.79037-.78889c-3.202-.43828-6.2802-.87139-9.19859-1.26841l-.45374-.06187-1.89746-.25781-.58781-.07734-1.68606-.22171-.9178-.11344-1.69122-.2114-1.74794-.21141-.62389-.067h-.15468l-1.30451-.14437-.7992-.07734-1.2117-.1186-.73733-.06187-1.1395-.0928-.69609-.04641-1.06733-.06187-.63421-.03094-1.03123-.03093h-1.94387c-.42281,0-.825.03093-1.20138.06187h-.067a34.6542,34.6542,0,0,0-7.1,1.58295,130.67637,130.67637,0,0,0-17.39687,7.12581l-.29391.14437-.66515.33515-.2011.098-.88169.43311-.37125.17015-.80952.37125-.47437.19593-.33515.13921a16.76139,16.76139,0,0,0,4.24867.397c1.30451-.04124,2.78948-.07734,4.41367-.2475l2.35121-.25265a256.12727,256.12727,0,0,1,28.98277-1.91809,105.70135,105.70135,0,0,1,13.95257.91264c4.36726.61358,9.01811,1.24779,13.473,1.73762l.562.067,1.20654.1186c.80952.08766,1.619.17014,2.40794.24234,3.18135.28874,6.18739.47437,8.76547.48984a39.34548,39.34548,0,0,0,5.00148-.2475A62.32706,62.32706,0,0,0,217.29089,159.413Z" fill="#fdb927"/><path d="M170.69466,117.39544c-2.94416-.81983-6.239-1.79435-9.7503-2.73792-.45891-.12374-.9178-.25265-1.38185-.37124l-1.29934-.33-1.29935-.33c-.93326-.22687-1.882-.44343-2.83589-.65483-.20624.562-.42281,1.12919-.66515,1.70669a12.81336,12.81336,0,0,0-.7992,3.98572,8.32751,8.32751,0,0,0,.12375,1.70669,5.90294,5.90294,0,0,0,.27843,1.00029c.04125.1186.10313.232.15468.34547a5.5994,5.5994,0,0,0,.41249.825h.02063c.47952.0722.94873.11344,1.41278.15984a28.82792,28.82792,0,0,0,11.24042-1.11373c.80952-.2475,1.54685-.51562,2.25324-.78889.7992-.31968,1.50561-.64452,2.1295-.959a22.86751,22.86751,0,0,0,2.83072-1.67575C172.63338,117.93168,171.70012,117.66872,170.69466,117.39544Z" fill="#fff"/><path d="M240.43172,131.48207c-9.04906-13.99382-38.91354-22.37773-38.91354-22.37773-6.18739,4.44461-16.608,8.6572-23.77506,11.20434s-4.64054,12.8079-4.64054,12.8079a31.25677,31.25677,0,0,0-4.50648.78373,67.34465,67.34465,0,0,0-19.16544,8.15189c-.84562.51561-1.67059,1.00546-2.48527,1.42825l-.34547.18561c-.77859.397-1.54685.74249-2.27387,1.03124l-.36094.14953c-.74765.299-1.47465.56718-2.16559.78889h-.067c-.69609.22171-1.36124.40734-1.99543.562l-.21141.05156c-.61874.14954-1.19623.263-1.73762.35578l-.24234.04124c-.51562.08766-1.03123.15468-1.47982.20625h-.04124c-.43828.0464-.81983.07219-1.16013.08766h-1.485l1.08794,5.71818-9.17278,1.36639h0l-.51562.07734c.34547,6.09973,3.23291,9.13156,6.46067,9.15218,3.47525,0,7.56409-2.09339,9.96685-3.3051,4.64054-2.346,17.73719-8.17766,24.49692-8.70874h.06187c.38155-.03094.78373-.0464,1.20138-.06187h1.9748l1.03123.03093.63422.03094,1.06733.06187.69608.0464,1.13951.09281.73733.06187,1.2117.1186.794.07734,1.30967.14437.77858.0825,1.70669.20624,1.74279.21657.90232.11344,1.70153.22171.57233.07734,1.89231.25264.47438.067c4.64054.63421,9.6781,1.35091,14.97863,2.06246a54.45393,54.45393,0,0,1,13.26165,3.5526l.30937.1186.71671.30937c1.9645.8353,3.79493,1.73246,5.48617,2.64511.51561.27328,1.00029.55172,1.485.825,1.99027,1.13436,3.74852,2.2584,5.2696,3.28447.562.37641,1.08794.73733,1.58294,1.0828l.36094.2475c1.24264.87139,2.2584,1.60872,3.03182,2.11918a4.125,4.125,0,0,1,.63936.51561c.05671.05671.10828.12891.165.19078a5.33926,5.33926,0,0,1,.40218.47952c.06188.0825.1186.1753.17531.263.11344.17014.22171.3403.32484.51561l.165.31452c.09281.18561.18562.37641.27328.57233.05156.11859.098.232.14437.35061.0825.20624.15984.41765.23718.62905l.12374.35578c.0722.232.13921.46921.20625.71155.03093.10828.067.21657.0928.33q.1186.43828.21657.89717a.8899.8899,0,0,0,.0361.15984c.0825.37124.15467.74765.21656,1.11889a2.24292,2.24292,0,0,0,2.23777,1.882,2.18105,2.18105,0,0,0,2.03153-1.31482C247.97518,162.83152,248.20722,143.49592,240.43172,131.48207Z"/><path d="M238.50848,132.77627c-7.51253-11.60652-31.138-19.41294-36.46952-21.05261-6.89378,4.64055-17.50517,8.76548-23.3935,10.82794-.74248.263-3.00088,1.06733-3.41853,5.22319a16.20548,16.20548,0,0,0,.2939,4.75914l.6703,2.73792-2.82042.22171c-4.3054.34031-14.15367,3.2226-22.56851,8.56954a33.76256,33.76256,0,0,1-14.51975,5.20772l.63422,3.03183.38671,2.29449-2.28417.45375-7.858,1.03123a11.29719,11.29719,0,0,0,1.717,3.84649,3.06031,3.06031,0,0,0,2.45948.923c2.82042,0,6.50191-1.85106,8.7036-2.96479l.165-.0825c4.2229-2.13981,17.9589-8.3736,25.39409-8.96141.77858-.06187,1.66028-.08766,2.62964-.0825,5.78.02577,14.58162,1.25294,24.7805,2.67088,3.12464.43312,6.3524.8817,9.69358,1.32514,14.64349,1.93872,25.48689,9.61624,30.69978,13.30289.71155.51561,1.33028.93842,1.82012,1.26326,2.12434,1.41279,3.55775,4.20227,4.37243,8.53344C245.85085,161.49607,245.4332,143.45467,238.50848,132.77627Z" fill="#fdb927"/></svg>