<?xml version="1.0" encoding="UTF-8" standalone="no"?>
<svg xmlns:rdf="http://www.w3.org/1999/02/22-rdf-syntax-ns#" xmlns="http://www.w3.org/2000/svg" height="116.67902" width="116.67999" version="1.1" xmlns:cc="http://creativecommons.org/ns#" xmlns:dc="http://purl.org/dc/elements/1.1/" viewBox="0 0 116.67999 116.67902"><path d="M58.339,0A58.33951,58.33951,0,1,0,116.68,58.33905,58.4054,58.4054,0,0,0,58.339,0" fill="#061922"/><path d="M58.339.75781a57.58151,57.58151,0,1,0,57.583,57.58105A57.64682,57.64682,0,0,0,58.339.75781" fill="#fff"/><path d="M115.2146,58.339a56.875,56.875,0,1,0-56.876,56.875,56.93937,56.93937,0,0,0,56.876-56.875" fill="#006bb5"/><path d="M20.4453,71.08978l-.464-1.463q.219.738.464,1.463" fill="#061922"/><path d="M98.3041,57.32538v-.007a39.98286,39.98286,0,0,0-79.084-7.275q-.384,1.815-.597,3.687l-.113,1.13c-.004.037-.005.073-.009.108-.03.367-.063.732-.083,1.099h0c-.043.75305-.07,1.51-.07,2.271a40.34589,40.34589,0,0,0,.207,4.076v.003l.001.005a11.91523,11.91523,0,0,0,.397,2.797l.001.006.001.002q.315,1.79846.781,3.539h.001c.042.154.087.306.131.46v-.001c.01.037.021.073.031.11l.547,1.755a39.80533,39.80533,0,0,0,4.158,8.681v.002a39.987,39.987,0,0,0,2.621,3.64795h-.001a39.96535,39.96535,0,0,0,69.892-15.306l.001-.001q.25351-1.00342.453-2.028l.071-.403c.008-.036.014-.072.021-.109.032-.178.065-.354.094-.533h.001q.174-1.03043.297-2.076h-.001c.109-.934.188-1.876.231-2.827.018-.406.025-.815.031-1.224l-.011-1.586.025,1.024.001-.014c0-.339-.017-.675-.026-1.013" fill="#061922"/><path d="M88.365,70.57886Z" fill="#fff"/><path d="M90.3652,69.95386c-.648.23706-1.313.447-2,.625-.392.165-.784.332-1.203.496h-.001a78.24844,78.24844,0,0,1-8.577,2.695l.001.001c-.212.054-.434.109-.65.165h-.002c-.065.017-.131.033-.196.05h-.001c-.123.031-.246.063-.371.094l-.014.008.013-.007c-1.111.279-2.258.557-3.48.833v-.043c-.077.019-.154.031-.229.048-.262.063-.524.108-.785.165h-.001c-.13.02905-.259.056-.389.083v-.001c-1.203.252-2.41.461-3.625.604h-.001c-.128.015-.256.04-.385.054h-.001l-.022.004c-.154.027-.309.046-.463.073q-1.0065.17551-2.017.325l-.001-.001c-.36.053-.719.102-1.079.15v-.001c-1.012.136-2.026.248-3.043.342-.21.018-.422.032-.634.05h-.001c-.094.008-.189.016-.283.023-.371.029-.741.066-1.112.09v-.001q-3.4455.22357-6.907.132c-.24-.006-.482-.019-.721-.028-.061-.001-.121-.003-.181-.006-.143-.006-.286-.01-.427-.016l-.001-.001c-.665-.028-1.329-.063-1.993-.11v.001q-1.539-.10657-3.073-.275v.001q-.561-.06143-1.122-.132c-.087-.01-.176-.019-.263-.03v-.001l-.016-.001h-.001c-.094-.012-.189-.021-.282-.033l-.001-.001c-.127-.016-.254-.026-.38-.044v.053c-.238-.042-.473-.088-.709-.135-.161-.031-.323-.06-.485-.093-.169-.026-.338-.048-.506-.075a1.07078,1.07078,0,0,1-.27-.082c-.568-.12-1.128-.263-1.692-.398-.367-.088-.737-.166-1.102-.261v-.001c-.086-.021-.169-.049-.254-.072l-.019-.005h-.001c-.09-.024-.18-.053-.272-.078-.352-.095-.702-.198-1.052-.299v-.001c-1.095-.317-2.181-.66-3.255-1.041-.358-.126-.715-.26-1.071-.394h-.001c-.082-.032-.164-.066-.246-.098l-.001.001-.018-.008c-.09-.034-.178-.06995-.267-.105-.343-.133-.686-.263-1.027-.403-.155-.064-.312-.118-.467-.183-.819-.346-1.583-.708-2.313-1.078q-.534-.27145-1.034-.55c-.08-.043-.162-.087-.24-.13l-.018-.01c-.085-.048-.175-.093-.258-.142-.339-.195-.664-.392-.982-.592v.001c-.542-.34-1.05-.682-1.531-1.027q-.5025-.35843-.961-.717h-.001l-.168-.132c-.016-.014-.033-.027-.049-.04l-.001.001c-.078-.064-.161-.125-.238-.189-.277-.225-.541-.45-.795-.674l.001-.001a23.267,23.267,0,0,1-3.032-3.22,38.44478,38.44478,0,0,0,.88,4.18h0c.098.369.203.734.312,1.097.027.092.051.187.079.27905h.001c.009.028.015.058.024.086.02.064.043.127.063.192.124.392.259.778.396,1.165h-.001a38.56022,38.56022,0,0,0,3.163,6.783v.001q.393.66293.811,1.309l.001-.001c.07.111.14.222.212.331l.015.024c.067.101.128.207.197.307l-.009.036.009-.036c.403.597.826,1.181,1.26,1.753v.001c.096.125.195.246.291.37l.001.001c.029.038.06.074.089.112.055.071.11.142.167.213q.495.62247,1.015,1.224h.001a38.88746,38.88746,0,0,0,12.304,9.502h.001a25.581,25.581,0,0,0,6.945.966,32.50735,32.50735,0,0,0,3.792-.238,35.55106,35.55106,0,0,0,12.483-3.802c.62-.305,1.229-.62195,1.838-.937.515-.269,1.028-.538,1.552-.799,3.602-1.889,7.468-3.938,12.153-6.446,1.652-.89,3.3-1.82794,4.891-2.738l1.868-1.038c.72-.389,1.404-.756,2.087-1.168.06-.044.139-.093.228-.146a35.52308,35.52308,0,0,0,.937-4.851h.001c.054-.431.099-.867.139-1.306v-.001c.008-.075.015-.149.021-.224.003-.03.007-.06.009-.091.009-.104.02-.207.029-.312" fill="#fff"/><path d="M95.9851,67.1344c.034-.144.069-.28894.101-.435v.001a.09055.09055,0,0,1-.018.015,20.24588,20.24588,0,0,1-3.116,2.076h0c-.01.112-.023.223-.034.336-.004.03-.006.061-.01.092-.008.082-.015.163-.024.245l-.002.001c-.052.477-.118.951-.191,1.426l-.001-.001a34.69013,34.69013,0,0,1-1.04,4.659,1.87865,1.87865,0,0,1,1.343-.081,38.35679,38.35679,0,0,0,2.402-6.1q.267-.89246.49-1.801c.027-.108.051-.218.076-.327h0l.024-.105" fill="#fff"/><path d="M89.2361,81.55591a38.93147,38.93147,0,0,0,2.905-4.468l.006-.009h-.001a3.17874,3.17874,0,0,0-.667.35c-.096.072-.207.142-.313.212-.096.062-.188.126-.274.186a34.78042,34.78042,0,0,1-1.694,3.78094v.001c.013-.018.025-.036.038-.053l-.059.09Z" fill="#fff"/><path d="M48.3067,95.6781h0a38.55755,38.55755,0,0,0,35.492-8.27295l.001-.001v.001a27.96183,27.96183,0,0,0,4.479-7.737c-.078.055-.153.11-.231.168-.509.361-1.026.729-1.588,1.119-1.489,1.034-2.94,1.909-4.478,2.834-.723.432-1.457.879-2.225,1.354-5.283,3.267-11.602,6.892-18.383,8.967a39.51152,39.51152,0,0,1-5.539,1.328,31.65435,31.65435,0,0,1-4.688.36h-.296c-.859-.007-1.706-.051-2.544-.119" fill="#fff"/><path d="M41.3829,41.49878l.062.028-.062-.028v-.001c-.081-.035-.164-.075-.243-.111a.108.108,0,0,1-.019-.009h-.001c-.087-.038-.176-.08-.262-.117-.353-.153-.688-.286-1.03-.427-.869-.357-1.715-.688-2.512-.967h-.001c-.721-.253-1.401-.465-2.064-.66h-.001c-.117-.03595-.231-.067-.345-.099h-.001c-.05-.014-.098-.029-.147-.042h.001c-.158-.044-.32-.094-.474-.136l-.001.001c-.613-.166-1.196-.305-1.756-.424a22.72494,22.72494,0,0,0-7.03-.544,38.44183,38.44183,0,0,0-4.06,8.824c-.304.965-.56,1.95-.787,2.946h0c-.069.305-.145.608-.207.917h0c-.009.04205-.015.083-.022.124l-.001.001c-.049.248-.09.499-.134.749h.001a38.53762,38.53762,0,0,0-.501,3.993v.001c-.067.933-.114,1.872-.114,2.821,0,1.205.064,2.395.172,3.571a23.71129,23.71129,0,0,0,4.643,3.744h.001c.289.183.595.367.909.553v.001c.084.049.165.098.25.147h.001c.011.008.022.014.035.022.071.04.133.08.205.121v.001c.324.183.67.367,1.02.551.209.11.42.22.639.331.326.164.658.328,1.007.491.087.042.173.082.261.124v-.001a.16675.16675,0,0,1,.019.009c.078.035.165.071.245.107.342.156.691.311,1.055.46405l-.001.001c.876.368,1.823.73,2.824,1.082.337.119.662.238,1.013.35394a.164.164,0,0,0,.024.00806c.093.03094.178.05695.27.087v.001l.019.006c.086.028.167.053.252.08v.001c.366.119.728.237,1.081.349,1.151.366,2.233.695,3.267.993.355.103.708.205,1.051.299.094.027.182.049.274.075.008.001.014.004.02.005.086.02295.169.045.254.068v.001c.278.075.563.155.833.226a1.17543,1.17543,0,0,1,.276.011c.021.003.04-.002.063.003.96.199,1.923.375,2.888.538v-.001c.361.061.722.113,1.083.168.095.015.188.027.282.041l.02.002v.001c.087.012.175.025.262.037v.001c.376.054.75.111,1.127.16v.001c.087.011.173.025.26.036.405.052.812.098,1.219.143.093.011.187.019.28.029v-.001a.32055.32055,0,0,0,.033.004c.104.01.207.02.312.03v.002c.411.041.819.087,1.229.12195h0c1.285.113,2.571.205,3.857.25305.794-.011,1.587-.037,2.38-.063a5.69588,5.69588,0,0,0,.889.069,7.96674,7.96674,0,0,0,1.192-.097c.157-.024.311-.058.466-.091q2.5155-.13953,5.024-.388h.001q1.275-.12451,2.548-.277v-.001q4.2225-.50546,8.411-1.313l.001-.001c.087-.016.174-.035.261-.051l.001-.001c.635-.123,1.27-.245,1.904-.37994a1.0673,1.0673,0,0,1,.349-.015,75.5821,75.5821,0,0,0,11.815-4.113h.001c.238-.111.485-.22095.709-.33-.004-.62805-.023-1.259-.051-1.891a49.80368,49.80368,0,0,0-.697-6.403,9.75076,9.75076,0,0,1-2.04.933,10.82607,10.82607,0,0,1-1.053.278v-.001c-.095.021-.187.043-.283.061h-.001l-.038.008v.001c-.082.014-.168.025-.252.039v-.001a13.551,13.551,0,0,1-1.597.157v-.001c-.091.004-.184.005-.278.008h0l-.048.001c-.108.003-.211.009-.32.009l-.006-.001h0c-.382,0-.78-.014-1.193-.039l-.001.001c-.371-.023-.754-.053-1.159-.097-.018.009-.032.02-.049.028-.13-.016-.26-.032-.391-.046-.113-.017-.227-.03406-.34-.052v.001c-.244-.038-.489-.076-.733-.11-.052-.015-.102-.03-.152-.044-.101-.017-.209-.036-.314-.053h0c-.084-.013-.167-.027-.252-.043v.001l-.043-.008c-.099-.016-.193-.032-.293-.05h0c-.352-.063-.722-.133-1.102-.209h0c-.558-.109-1.14-.232-1.764-.37-.115-.02-.227-.049-.342-.07-.374-.069-.742-.151-1.111-.23-.086-.019-.172-.03406-.258-.053v-.001l-.02-.003v-.001c-.092-.02-.185-.035-.277-.057l-.001.001c-.355-.082-.706-.177-1.058-.269v-.001q-1.398-.366-2.761-.827c-.363-.123-.726-.24005-1.085-.371v-.001c-.081-.029-.159-.063-.24-.092l-.018-.008h-.001c-.09-.034-.178-.07-.267-.103v-.001c-.567-.215-1.133-.436-1.692-.67l-.001-.001c-.092-.039-.183-.082-.275-.121l-.002-.001c-.094-.04-.186-.082-.278-.122-.389-.17-.779-.335-1.165-.513v-.001c-1.273-.587-2.528-1.226-3.77-1.895h-.001q-.7215-.39-1.439-.794c-.077-.043-.152-.086-.228-.129-.028-.015-.056-.032-.084-.047-.098-.056-.198-.11-.295-.166l-.001-.001q-.5415-.31046-1.084-.627l.001-.001c-1.703-1-3.389-2.042-5.067-3.103-.338-.213-.675-.425-1.012-.64-.078-.049-.157-.1-.235-.149l-.019-.012c-.084-.053-.167-.107-.252-.16q-.489-.31055-.976-.62-1.3365-.85052-2.677-1.692v.001c-.337-.213-.676-.426-1.014-.636-.078-.049-.156-.097-.235-.146h-.001l-.017-.011h-.001c-.084-.052-.168-.103-.253-.155-.057-.035-.112-.069-.169-.103l-.001-.001c-.064-.039-.129-.078-.194-.118h0c-.019-.011-.036-.023-.055-.034-.083-.051-.166-.101-.248-.152h0c-.306-.187-.612-.377-.919-.562q-.9015-.54153-1.808-1.064v-.001c-.071-.04-.142-.083-.211-.123-.31-.14795-.602-.274-.902-.413l-.216-.099c-.019-.009-.038-.018-.057-.026-.091-.041-.181-.084-.271-.124" fill="#fff"/><path d="M96.9983,58.673c.001-.111.009-.222.009-.334,0-.271-.015-.54-.022-.81h.001a38.59554,38.59554,0,0,0-.876-7.446l-.001-.002a13.44347,13.44347,0,0,1-3.853,6.305l-.001-.001c-.043.043-.081.087-.126.129a38.84148,38.84148,0,0,1,.955,6.93005h0c.006.121.006.241.01.362h0c.001.029.001.05695.002.086h.001l.006.25995c.011.359.032.72.031,1.078.099-.06995.199-.136.285-.2a10.53739,10.53739,0,0,0,3.507-4.31v-.002c.026-.438.042-.88.054-1.321.002-.097.005-.19305.007-.29v-.001c0-.03.001-.059.003-.089l-.001-.005C96.99229,58.898,96.9973,58.787,96.9983,58.673Z" fill="#fff"/><polyline points="96.11 50.083 96.11 50.08 96.11 50.081 96.11 50.082 96.11 50.081 96.11 50.083" fill="#fff"/><path d="M52.6561,44.6922c-.084-.051-.169-.101-.255-.152-.328-.194-.657-.384-.986-.577l.001-.001q-1.35-.792-2.707-1.567v-.001q-.831-.4725-1.667-.935v-.001q-.954-.52808-1.916-1.041h-.001c-.371-.198-.742-.397-1.115-.591-.07-.036-.139-.074-.209-.11-.02-.01-.04-.021-.062-.033h0c-.09-.045-.181-.088-.269-.133h-.001c-.337-.172-.677-.339-1.015-.507v.001c-.02-.011-.042-.021-.062-.031h0c-.281-.139-.558-.283-.839-.418a1.03429,1.03429,0,0,0-.515-.105c-.17-.076-.328-.143-.495-.216l-.002-.001-.002-.001a2.47092,2.47092,0,0,0-.879-.383l-.002-.001c-.793-.332-1.558-.624-2.305-.893a24.58857,24.58857,0,0,0-8.06-1.683,11.619,11.619,0,0,0-2.129.189v-.001h-.001a38.74939,38.74939,0,0,1,22.981-14.945h.001c9.648.038,17.577,4.155,23.722,9.703l.001.001c.26.235.524.469.779.71h0c.07.065.134.132.202.198.019.017.036.034.053.052h.001c.051.049.099.098.149.146v.001c.296.285.593.569.878.861v.001c.907.923,1.766,1.876,2.582,2.848.295.35.587.704.871,1.06.075.094.148.188.223.283a.15062.15062,0,0,0,.017.02c.069.09.136.179.205.269.302.389.599.778.886,1.169q.99,1.34692,1.868,2.704c.202.313.397.625.59.937.054.086.11.172.163.258l.05.079h-.001c.037.061.072.12.109.181q.333.55051.648,1.099c.182.315.355.628.527.943v-.001q.312.57.606,1.13v.001c.052.1.103.2.154.3v-.001c.008.017.017.033.024.048.041.078.084.159.123.237q.46949.93146.883,1.834l-.001.001c.044.09595.084.18994.128.28595.013.031.027.06.041.091h-.001c.031.07.062.138.093.206l-.001.001c.541,1.223.996,2.391,1.37,3.486h.001c.18.527.344,1.039.485,1.527v.001c.124.428.238.846.332,1.241.065.214.106.424.149.639.015.057.026.113.036.171-.188.095-.397.168-.595.251h0a11.85068,11.85068,0,0,1-2.808.773q-.5505.08249-1.133.128a18.49445,18.49445,0,0,1-2.109.043v.001c-.414-.014-.841-.046-1.274-.085h.001c-.088-.008-.175-.016-.263-.025v.001c-.015-.002-.03-.003-.046-.004h0c-.104-.011-.203-.01605-.308-.028-.369-.043-.75-.104-1.133-.163v-.001c-.906-.142-1.834-.318-2.805-.559-.054-.014-.113-.032-.165-.046-.354-.092-.718-.195-1.093-.312v.001c-.082-.026-.166-.054-.25-.08l-.02-.007v.001c-.091-.029-.179-.057-.27-.087-.106-.034-.208-.064-.315-.1l-.017-.003a1.05393,1.05393,0,0,1-.112-.011c-.086-.02-.171-.037-.257-.055a1.19675,1.19675,0,0,1-.19-.028c-.058-.015-.117-.029-.175-.044-.091-.023-.181-.045-.271-.068-.031-.008-.055-.02-.082-.029-.31-.075-.618-.154-.924-.25a1.23931,1.23931,0,0,1-.227-.099c-.134-.035-.269-.071-.403-.106-.028-.004-.054-.01-.081-.015a2.42756,2.42756,0,0,1-.461-.115,1.08407,1.08407,0,0,1-.255-.114c-.02-.006-.04-.015-.059-.022h-.001c-.358-.133-.712-.279-1.071-.415-.08-.031-.161-.064-.242-.094l-.019-.008c-.089-.03406-.178-.069-.267-.103-.343-.132-.686-.264-1.027-.399-.393-.155-.791-.298-1.181-.458-.087-.038-.173-.079-.258-.119h-.001q-2.0625-.927-4.083-1.944h.001q-2.1-1.06055-4.149-2.22c-1.592-.926-3.176-1.869-4.759-2.81h-.001c-.339-.202-.68-.404-1.02-.606-.08-.047-.158-.094-.237-.141" fill="#fff"/><path d="M57.8476,19.68591A37.38325,37.38325,0,0,1,76.2636,29.202h0q.4815.43945.955.895c.092.089.183.176.274.264v.001c.031.029.061.057.091.086v.001c.067.065.136.127.203.194v.001q1.179,1.16858,2.295,2.441c.082.093.163.189.245.284l.01.013c.074.086.148.175.223.263v.001c.306.357.608.718.906,1.087l-.001.001a53.25434,53.25434,0,0,1,3.621,5.077c.203.32306.403.652.601.981h.001c.065.109.13.219.195.329.023.039.046.077.07.116l-.001.001c.212.358.419.721.622,1.086h.001l.001.002c.077.14.154.279.231.419v.001c.269.491.531.99.786,1.493h.001a57.26262,57.26262,0,0,1,3.763,9.36,8.08625,8.08625,0,0,0,1.447-2.03,12.95748,12.95748,0,0,0,.862-8.923l-.002-.004-.001-.002a38.712,38.712,0,0,0-35.323-22.968c-.164,0-.328.012-.492.013h-.001" fill="#fff"/><polygon points="13.922 49.331 11.286 47.415 8.65 49.33 9.656 46.232 7.022 44.317 10.279 44.317 11.286 41.219 12.292 44.317 15.551 44.317 12.915 46.232 13.922 49.331" fill="#fff"/><polygon points="14.31 59.919 11.052 59.919 10.045 56.82 9.039 59.919 5.78 59.919 8.416 61.833 7.409 64.932 10.045 63.017 12.681 64.932 11.674 61.833 14.31 59.919" fill="#fff"/><polygon points="17.645 83.403 16.638 80.305 19.274 78.39 16.016 78.39 15.009 75.292 14.003 78.39 10.744 78.39 13.38 80.305 12.373 83.403 15.009 81.488 17.645 83.403" fill="#fff"/><polygon points="106.401 56.82 105.394 59.918 102.136 59.918 104.772 61.833 103.765 64.931 106.401 63.016 106.49 63.081 109.037 64.931 108.03 61.833 110.666 59.918 107.408 59.918 106.401 56.82" fill="#fff"/><polygon points="103.801 44.317 100.542 44.317 103.178 46.232 102.172 49.33 104.808 47.415 105.127 47.648 105.128 47.649 107.443 49.33 106.436 46.232 109.072 44.318 105.814 44.318 104.807 41.218 103.801 44.317" fill="#fff"/><polygon points="102.504 78.389 101.497 75.292 100.491 78.389 97.232 78.389 99.868 80.305 98.862 83.404 101.497 81.489 104.133 83.404 103.127 80.305 105.763 78.391 102.504 78.389" fill="#fff"/><path d="M20.0684,31.80829l2.078,1.478,1.451-2.04a.32693.32693,0,0,1,.21-.131.32312.32312,0,0,1,.241.05505l.55.392a.32258.32258,0,0,1,.076.451l-2.074,2.916a.31987.31987,0,0,1-.264.136.32594.32594,0,0,1-.187-.059l-2.889-2.056h-.001l-5.946-4.23a.3225.3225,0,0,1-.077-.45l.437-.614a.32069.32069,0,0,1,.21-.132.32944.32944,0,0,1,.241.056l5.944,4.227" fill="#fff"/><path d="M29.401,25.73029a2.995,2.995,0,0,0-.871-1.481l-.801-.823-3.366-3.459a3.70559,3.70559,0,0,0-1.811-1.232,2.32446,2.32446,0,0,0-2.103.734,2.47129,2.47129,0,0,0-.836,2.185,3.16049,3.16049,0,0,0,.989,1.652l3.499,3.595H24.1l.765.785a2.91885,2.91885,0,0,0,2.029,1.061,2.4424,2.4424,0,0,0,1.694-.803,2.41741,2.41741,0,0,0,.813-2.214m-1.413.761a1.03313,1.03313,0,0,1-.301.484,1.228,1.228,0,0,1-.639.344c-.384.053-.678-.048-1.405-.796l-.597-.613h.001l-3.571-3.669a1.54536,1.54536,0,0,1-.51-1.027,1.13,1.13,0,0,1,.372-.765,1.14147,1.14147,0,0,1,.749-.341h.009c.511.01605,1.102.624,1.576,1.111l3.025,3.108v.001l.659.678c.521.535.792.948.632,1.485" fill="#fff"/><path d="M33.2238,19.33337l2.602,2.48a.32286.32286,0,0,0,.396.04l.972-.619a.32254.32254,0,0,0,.099-.446l-1.796-2.823-4.025-6.328a.32832.32832,0,0,0-.447-.1l-.622.397a.32341.32341,0,0,0-.098.448l4.041,6.245.073.111-.1-.094v-.001l-5.62-5.335a.32418.32418,0,0,0-.396-.038l-.932.594a.32163.32163,0,0,0-.1.446l4.023,6.323,1.798,2.827a.32914.32914,0,0,0,.274.15.32669.32669,0,0,0,.174-.051l.596-.378a.33337.33337,0,0,0,.142-.204.32562.32562,0,0,0-.044-.245l-1.84-2.867h-.001l-2.19-3.412,3.02,2.879" fill="#fff"/><path d="M43.1503,14.5061l.301.808c.437,1.174-.098,1.871-.537,2.035a.97433.97433,0,0,1-1.125-.326,4.44306,4.44306,0,0,1-.642-1.342l-.138-.369-1.652-4.439c-.308-.828-.393-1.08295-.284-1.45795a1.015,1.015,0,0,1,.715-.684c.607-.228.888-.051,1.045.102a2.5815,2.5815,0,0,1,.506.941l.391,1.051a.3229.3229,0,0,0,.168.182.33269.33269,0,0,0,.248.008l.691-.257a.33666.33666,0,0,0,.182-.168.33263.33263,0,0,0,.008-.248l-.525-1.411a2.31093,2.31093,0,0,0-1.603-1.581,2.83273,2.83273,0,0,0-1.519.153,2.40764,2.40764,0,0,0-1.444,3.521l1.796,4.825.001-.001.191.517a3.82787,3.82787,0,0,0,1.236,1.985,2.04054,2.04054,0,0,0,1.255.418,2.48582,2.48582,0,0,0,.869-.163,2.31075,2.31075,0,0,0,1.214-.962l.001.001a.31954.31954,0,0,0,.168.182.32769.32769,0,0,0,.248.009l.533-.198a.32611.32611,0,0,0,.18-.17.32063.32063,0,0,0,.009-.247l-1.176-3.158-.549-1.476a.32433.32433,0,0,0-.417-.191l-2.187.815a.324.324,0,0,0-.191.416l.231.619a.323.323,0,0,0,.416.19l1.193-.445.192.516" fill="#fff"/><path d="M56.7853,11.89111l.164,3.536a.32484.32484,0,0,1-.308.339l-.783.036h-.015a.32167.32167,0,0,1-.322-.308l-.163-3.512-.001-.001-.339-7.319a.323.323,0,0,1,.308-.338l.783-.037a.329.329,0,0,1,.337.308l.338,7.295" fill="#fff"/><path d="M61.1162,11.89471l-.173,1.498a2.44779,2.44779,0,0,0,.551,2.001,2.73509,2.73509,0,0,0,1.74.799,3.68036,3.68036,0,0,0,.448.028,2.1211,2.1211,0,0,0,1.824-.84,3.68932,3.68932,0,0,0,.579-1.781,4.11444,4.11444,0,0,0-.023-1.224,5.41508,5.41508,0,0,0-1.3-2.326c-1.393-1.791-1.509-2.19-1.401-3.119a1.73383,1.73383,0,0,1,.336-.986c.104-.112.3-.253.789-.197.879.101.884.64.791,1.451l-.112.961a.32483.32483,0,0,0,.285.358l.732.084a.32369.32369,0,0,0,.358-.284l.091-.778c.112-.981.323-2.807-2.013-3.078a2.1304,2.1304,0,0,0-2.121.786,3.45721,3.45721,0,0,0-.54,1.644c-.19,1.645.466,2.472,1.554,3.844a7.69437,7.69437,0,0,1,.999,1.442,2.40122,2.40122,0,0,1,.169,1.398,1.9824,1.9824,0,0,1-.361,1.082.91.91,0,0,1-.872.229,1.26164,1.26164,0,0,1-.953-.495c-.207-.34-.177-.682-.084-1.493v-.002l.099-.854a.309.309,0,0,0-.005-.054.32016.32016,0,0,0-.279-.30505l-.748-.085a.32365.32365,0,0,0-.359.284l-.001.011" fill="#fff"/><path d="M71.8597,13.63641l-.834,2.656,2.389.749a.32382.32382,0,0,1,.212.405l-.202.645a.32543.32543,0,0,1-.159.19.33266.33266,0,0,1-.15.037.31228.31228,0,0,1-.096-.015l-3.416-1.071a.32446.32446,0,0,1-.212-.406l1.117-3.55695h-.001l2.131-6.79a.3225.3225,0,0,1,.405-.211l.718.225a.32342.32342,0,0,1,.212.405l-2.113,6.737" fill="#fff"/><path d="M84.18979,10.77283l-.921-.492a.32273.32273,0,0,0-.406.085l-4.463,5.643v-.001l-2.413,3.052a.32173.32173,0,0,0-.063.266.32778.32778,0,0,0,.164.22l.705.375a.324.324,0,0,0,.408-.087l1.887-2.433,1.524.812-.977,2.915a.32346.32346,0,0,0,.154.389l.705.376a.32649.32649,0,0,0,.153.037.301.301,0,0,0,.121-.024.31939.31939,0,0,0,.187-.201l1.222-3.8h-.001l2.171-6.749a.31964.31964,0,0,0-.157-.383m-3.159,6.12994-1.099-.586,2.269-2.91095Z" fill="#fff"/><path d="M90.1223,23.48859l4.213-5.125a.32347.32347,0,0,0-.044-.455l-.57-.468a.32387.32387,0,0,0-.457.046l-4.156,5.136v-.001l-.606.75.423-.892v-.001l2.961-6.23a.32479.32479,0,0,0-.087-.389l-.854-.702a.32237.32237,0,0,0-.238-.072.32759.32759,0,0,0-.218.116l-4.296,5.225v-.001l-2.592,3.154a.31881.31881,0,0,0-.071.236.31552.31552,0,0,0,.116.218l.545.449a.3227.3227,0,0,0,.238.072.31788.31788,0,0,0,.218-.118l2.639-3.234,2.077-2.547-1.446,3.031-.001-.001-1.901,3.978a.32387.32387,0,0,0,.087.389l.889.733a.32437.32437,0,0,0,.206.073c.01,0,.022,0,.032-.001a.33171.33171,0,0,0,.218-.116l2.674-3.254" fill="#fff"/><path d="M99.8515,23.66583l-.576-.72a.31849.31849,0,0,0-.217-.119.32377.32377,0,0,0-.238.068l-5.086,4.066-3.395,2.713a.33882.33882,0,0,0-.12.218.32356.32356,0,0,0,.069.237l.893,1.116a3.0016,3.0016,0,0,0,2.394,1.276,2.923,2.923,0,0,0,1.002-.179,7.00094,7.00094,0,0,0,1.989-1.272l.383-.306h-.001l1.501-1.2c2.475-1.978,3.372-3.433,1.402-5.898m-.568,3.166a8.13074,8.13074,0,0,1-1.697,1.651l-1.492,1.19305-.441.351c-1.616,1.293-2.166,1.148-2.489,1.063-.471-.13306-.716-.386-1.171-.947l2.685-2.144v-.001l4.21-3.365c.614.798.905,1.393.395,2.199" fill="#fff"/><path d="M31.1522,98.42328l-1.023,1.466.671-1.717,2.193-5.628a.32207.32207,0,0,0-.115-.381l-.902-.639a.31686.31686,0,0,0-.241-.055.321.321,0,0,0-.209.132l-3.258,4.597-3.009,4.25a.32082.32082,0,0,0-.056.242.32457.32457,0,0,0,.133.209l.576.408a.32583.32583,0,0,0,.452-.078l2.945-4.193,1.341-1.911-.889,2.267v.001l-1.945,4.961a.3206.3206,0,0,0,.113.382l.94.666a.32672.32672,0,0,0,.187.06.321.321,0,0,0,.264-.137l2.925-4.129,3.342-4.718a.323.323,0,0,0-.077-.451l-.601-.427a.32522.32522,0,0,0-.242-.054.32067.32067,0,0,0-.21.134l-3.305,4.743" fill="#fff"/><path d="M33.9415,105.9538a.32313.32313,0,0,0,.158.429l3.471,1.607a.323.323,0,0,0,.429-.157l.284-.614a.32071.32071,0,0,0,.01-.247.31673.31673,0,0,0-.168-.18195l-2.508-1.162,1.623-3.504.061-.132,2.02.936a.32806.32806,0,0,0,.248.00995.3228.3228,0,0,0,.182-.168l.278-.599a.32354.32354,0,0,0-.158-.429l-2.007-.93,1.484-3.204,2.508,1.16a.323.323,0,0,0,.43-.156l.284-.614a.32125.32125,0,0,0-.158-.429l-3.485-1.614a.32387.32387,0,0,0-.429.158Z" fill="#fff"/><path d="M52.8953,100.54181a.31835.31835,0,0,0-.215-.165l-.734-.166a.32133.32133,0,0,0-.372.196l-1.907,4.809c-.182.449-.326.808-.451,1.122h-.001q-.138.348-.248.63l.045-.677.001-.001.428-6.366a.32272.32272,0,0,0-.252-.337l-.778-.177a.32136.32136,0,0,0-.372.197l-2.312,5.86.001.001-.13.327-.109.28c-.02.05-.038.098-.057.144.018-.241.036-.511.056-.819v-.001c.019-.3.04-.638.063-1.02l.023-.393c.114-1.918.139-2.32.303-4.87a.32559.32559,0,0,0-.253-.336l-.748-.171a.32146.32146,0,0,0-.266.059.31725.31725,0,0,0-.129.239l-.331,6.083-.266,4.9a.32376.32376,0,0,0,.253.333l.762.173a.325.325,0,0,0,.376-.202c.137-.367,1.146-2.95,1.707-4.371v-.001c.059-.149.115-.291.161-.412l.036-.089c.329-.833.556-1.407.736-1.874-.01.128-.02.255-.029.382l-.162,2.164-.349,4.681a.3241.3241,0,0,0,.251.339l.793.18a.36084.36084,0,0,0,.073.007.32085.32085,0,0,0,.299-.202l1.784-4.415h.001l2.333-5.769a.32753.32753,0,0,0-.014-.272" fill="#fff"/><path d="M65.3961,100.14111a.32565.32565,0,0,0-.278-.11l-.825.086a.32225.32225,0,0,0-.281.25l-.985,4.321-1.843-4.025a.32572.32572,0,0,0-.328-.187l-.795.083a.31725.31725,0,0,0-.247.163.32452.32452,0,0,0-.012.297l2.729,5.748.041.397.451,4.314a.32524.32524,0,0,0,.321.29c.012,0,.023-.001.034-.002l.734-.076a.32282.32282,0,0,0,.217-.119.31825.31825,0,0,0,.071-.237l-.447-4.284h-.001l-.044-.425,1.557-6.194a.32215.32215,0,0,0-.069-.29" fill="#fff"/><path d="M74.816,106.73987l-.57-1.959v.001l-1.099-3.778a3.70929,3.70929,0,0,0-1.022-1.938,2.326,2.326,0,0,0-2.201-.34,2.47437,2.47437,0,0,0-1.765,1.537,3.17292,3.17292,0,0,0,.099,1.923l1.152,3.956v.001l.556,1.912a3.56473,3.56473,0,0,0,.749,1.479,2.01,2.01,0,0,0,1.519.635,3.23341,3.23341,0,0,0,.898-.139,2.41866,2.41866,0,0,0,1.758-1.572,3.01329,3.01329,0,0,0-.074-1.718m-1.531,1.727a1.04918,1.04918,0,0,1-.492.285,1.23651,1.23651,0,0,1-.728.004c-.364-.132-.575-.36-.866-1.363l-.454-1.558-1.216-4.178a1.55018,1.55018,0,0,1,.033-1.147,1.12973,1.12973,0,0,1,.687-.502,1.32616,1.32616,0,0,1,.361-.05.9831.9831,0,0,1,.469.106c.443.255.679,1.067.869,1.72l.998,3.429-.001.001.479,1.644c.21.717.255,1.208-.139,1.60895" fill="#fff"/><path d="M84.9672,104.41992l-3.199-2.933-.001.001-.74-.68a2.01353,2.01353,0,0,0,.287-2.552l-.768-1.504a2.00447,2.00447,0,0,0-1.681-1.262,3.10673,3.10673,0,0,0-1.527.413l-1.861.949a.32322.32322,0,0,0-.141.435l3.002,5.89,1.922,3.77a.32291.32291,0,0,0,.288.177.31761.31761,0,0,0,.146-.036l.671-.342a.32143.32143,0,0,0,.142-.435l-1.893-3.713v.001l-.36-.70605.565-.288.623.569h.001l3.376,3.086a.32189.32189,0,0,0,.365.049l.711-.362a.32339.32339,0,0,0,.072-.527m-5.37-4.152-.929.47406-1.645-3.22705.97-.495a1.0103,1.0103,0,0,1,.699-.165c.219.061.44.306.658.73l.76,1.492c.194.383.268.793-.513,1.191" fill="#fff"/><path d="M87.4407,97.84528l-.124-.739.584.378v-.001l3.803,2.468a.32165.32165,0,0,0,.373-.013l.633-.487a.32248.32248,0,0,0-.021-.528l-3.634-2.34595v-.001l-2.068-1.335-.773-4.685a.32452.32452,0,0,0-.517-.204l-.671.514a.32632.32632,0,0,0-.121.316l.841,4.534-2.411-3.146a.32435.32435,0,0,0-.453-.061l-.598.459a.32339.32339,0,0,0-.059.453l4.034,5.263v.001l2.561,3.341a.31686.31686,0,0,0,.215.123.19988.19988,0,0,0,.042.004.32969.32969,0,0,0,.197-.067l.584-.448a.32175.32175,0,0,0,.06-.453l-2.454-3.203-.023-.138" fill="#fff"/><path d="M100.886,58.55121l-.001-.001a3.54518,3.54518,0,0,0-2.357-1.391,3.24871,3.24871,0,0,0-.893.01l-.021.003a3.57649,3.57649,0,0,0-.533.132c-.074.026-.148.056-.225.091a3.76078,3.76078,0,0,0-1.028.66l-.037.033a7.99681,7.99681,0,0,0-1.489,1.982l-.015.027a8.48692,8.48692,0,0,1-.479.77,12.96045,12.96045,0,0,0-2.336-6.073,23.7859,23.7859,0,0,1-1.297-2.319c-.006-.011-.011-.023-.017-.035-.118-.255-.215-.481-.299-.696-.001-.039-.003-.08-.005-.123v-.009l-.003-.086c-.05-1.379-.166-4.61-2.843-5.06a3.29247,3.29247,0,0,0-.407-.043c.067-.104.133-.211.199-.322a8.30708,8.30708,0,0,0,1.25-4.153,2.50017,2.50017,0,0,0-2.474-2.368,2.80171,2.80171,0,0,0-1.664.577c-.24.046-.462.088-.675.12805l-.029.00494-.037.007c-1.393.257-2.212.378-3.082.497l1.005-4.211.009-.036.658-2.758a3.4296,3.4296,0,0,0,.069-.433l.005-.041a3.89168,3.89168,0,0,0-.732-2.927,4.17249,4.17249,0,0,0-3.263-1.513c-.026-.001-.052-.001-.079-.001a6.19683,6.19683,0,0,0-1.063.071,6.66627,6.66627,0,0,0-2.626.949l-.03.021a2.83878,2.83878,0,0,0-1.209,1.669,2.71907,2.71907,0,0,0,.136,1.667,3.3092,3.3092,0,0,1-.084.462l-1.996,8.363c-1.772.225-3.042.362-3.557.415-.015.001-.027.003-.038.004l-.036.004c-.027.002-.054.006-.081.01-1.958.3-3.254,2.207-3.08,4.534.162,2.184,1.61,3.70795,3.52,3.70795a3.50843,3.50843,0,0,0,.427-.027c.139-.011.402-.035.779-.075l-.607,2.475-.015.059-.278,1.135a5.2819,5.2819,0,0,0-.977-2.106,5.13335,5.13335,0,0,0-4.264-1.923,8.3291,8.3291,0,0,0-1.249.098,9.58071,9.58071,0,0,0-2.141.61l-.013.006c-3.141,1.279-6.198,4.201-8.474,7.843l2.584-10.83h.001l1.396-5.85c.561-2.357.312-4.238-.74-5.59a4.54251,4.54251,0,0,0-3.683-1.716,5.85049,5.85049,0,0,0-.852.064,13.811,13.811,0,0,0-6.663,3.568c-.015.013-.029.026-.043.039-.116.101-.231.204-.347.309a3.70282,3.70282,0,0,0-.496-.853,3.77206,3.77206,0,0,0-3.615-1.35,23.59065,23.59065,0,0,0-3.638.886c-.013.004-.027.008-.04.013a28.00192,28.00192,0,0,0-15.945,13.157c-.009.018-.018.035-.026.053-.361.681-.704,1.405-1.02,2.153l-.021.053c-.125.301-.238.601-.347.892l-.037.1c-.005.011-.009.02295-.013.034-.186.499-.365,1.028-.532,1.569l-.043.139c-.16.52-.326,1.05695-.467,1.645a18.14529,18.14529,0,0,0-.372,7.109,10.56556,10.56556,0,0,0,1.926,4.805,6.06676,6.06676,0,0,0,.781.834l.02.018a4.83743,4.83743,0,0,0,.886.62l.035.019a3.92892,3.92892,0,0,0,.432.196c.011.005.023.009.034.013a3.6423,3.6423,0,0,0,1.386.256,3.33006,3.33006,0,0,0,.477-.036,6.58986,6.58986,0,0,0,3.329-1.83l.029-.028a9.83234,9.83234,0,0,0,1.738-2.199l.017-.03a7.57772,7.57772,0,0,0,.799-1.959,2.83005,2.83005,0,0,0-.452-2.464,2.48766,2.48766,0,0,0-2.247-.947,8.81768,8.81768,0,0,1,.161-4.027,16.22658,16.22658,0,0,1,6.946-10.024l-4.785,20.043c-.003.016-.007.031-.01.046l-.677,2.836-.009.037-2.118,8.875-.01.043a3.00261,3.00261,0,0,0,.561,2.552,3.78842,3.78842,0,0,0,1.819,1.233c.019.007.038.014.058.02a5.46462,5.46462,0,0,0,1.711.273,5.88877,5.88877,0,0,0,.888-.067,4.39291,4.39291,0,0,0,3.8-3.303l2.343-9.815c.003-.015.007-.03.01-.046l3.03-12.697c.584-2.444,3.103-6.267,5.547-9.324l-5.528,23.167c-.004.015-.008.029-.011.044l-1.27,5.324c-.656,2.881-.384,5.11.81,6.625a4.72016,4.72016,0,0,0,3.753,1.762,5.64422,5.64422,0,0,0,.845-.064c2.504-.386,4.828-2.21,5.291-4.153a2.90947,2.90947,0,0,0-1.49-3.265,1.57419,1.57419,0,0,1-.185-.137,2.45172,2.45172,0,0,1,.049-.975l.005-.027.015-.081c.022-.123.041-.228.07-.346.424-1.779.605-2.537.682-2.899l.009.002.087-.367a9.51944,9.51944,0,0,0,.308,1c.008.025.018.05.027.076a8.3767,8.3767,0,0,0,1.203,2.152,7.82185,7.82185,0,0,0,3.266,2.445l.03.012a9.48239,9.48239,0,0,0,3.58.675,12.02049,12.02049,0,0,0,1.803-.14,18.36549,18.36549,0,0,0,2.662-.619c.01-.002.02-.006.03-.00806a17.91762,17.91762,0,0,0,5.232-2.647,5.24547,5.24547,0,0,0,3.788,1.379,9.25879,9.25879,0,0,0,1.375-.111,11.43451,11.43451,0,0,0,5.196-2.318,10.57427,10.57427,0,0,0,2.38.648c.012.002.024.004.036.005a10.3497,10.3497,0,0,0,1.599.136,9.91135,9.91135,0,0,0,1.49-.112,14.801,14.801,0,0,0,6.784-3.056c.012-.01.025-.019.037-.029l.054-.042c.141-.035.278-.072.412-.107l.048-.013c.012-.003.023-.006.035-.008.723-.188,1.451-.415,2.166-.677l.046-.018a21.94152,21.94152,0,0,0,2.739-1.231l.035-.018a22.34611,22.34611,0,0,0,3.357-2.233c.033-.026.065-.053.097-.081.272-.227.567-.499.929-.858l.029-.029c.012-.011.023-.022.034-.033.312-.315.589-.612.847-.907a12.07847,12.07847,0,0,0,2.616-4.254,4.13031,4.13031,0,0,0-.817-3.401m-17.944,6.941c.107-.174.195-.334.271-.49.848-1.739,1.442-2.92,2.006-3.981a5.38244,5.38244,0,0,1-.045,2.636,6.149,6.149,0,0,1-1.021,2.062,8.24388,8.24388,0,0,1-1.218-.213Zm-2.235-14.322a5.97232,5.97232,0,0,0-.078,2.545q-.249.45-.5.904l-.08.144c-.005.009-.01.017-.014.026l-.393.71c-.006.011-.012.022-.019.033-.567,1.027-1.169,2.121-1.723,3.161-.79,1.485-1.395,2.696-1.843,3.694a7.5918,7.5918,0,0,0-.361.742c-.14.328-.288.66095-.443.995a4.82431,4.82431,0,0,0-.998.711l1.462-5.985.009-.038,2.318-9.486c.356-.045.654-.077.946-.109.733-.081,1.439-.158,2.778-.371a6.279,6.279,0,0,0-1.061,2.324m-22.175,19.594c-.164.025-.32.043-.468.053a23.35512,23.35512,0,0,0,7.747-7.878l-.203.826c-1.253,2.919-3.487,6.448-7.076,6.999" fill="#061922"/><path d="M99.9693,59.265h0a2.36986,2.36986,0,0,0-1.581-.953,2.10866,2.10866,0,0,0-.584.007,2.28653,2.28653,0,0,0-.348.085,1.1668,1.1668,0,0,0-.129.054,2.57029,2.57029,0,0,0-.736.474l-.019.01605a6.96107,6.96107,0,0,0-1.267,1.71,9.87608,9.87608,0,0,1-2.572,3.014l-.016.013c-.103.08-.203.154-.3.224.843-3.96906-.569-6.276-1.936-8.509a24.53234,24.53234,0,0,1-1.359-2.432l-.011-.022c-.164-.355-.293-.662-.403-.961-.005-.08-.01-.191-.015-.313v-.009l-.004-.095c-.046-1.28-.131-3.662-1.873-3.955a2.02485,2.02485,0,0,0-.61-.006A4.94206,4.94206,0,0,0,81.8373,51.44a4.61,4.61,0,0,0,.032,2.432q-.3585.651-.724,1.31l-.494.893-.011.019c-.565,1.02295-1.164,2.113-1.714,3.146-.786,1.475-1.382,2.67-1.823,3.654l-.007.013a6.87846,6.87846,0,0,0-.331.678c-.201.469-.416.946-.644,1.421a4.87377,4.87377,0,0,0-2.568,3.013,5.0536,5.0536,0,0,0-.25,1.236,2.34751,2.34751,0,0,1-1.104.58905,1.48126,1.48126,0,0,1-.217.018,2.69673,2.69673,0,0,1,.105-1.051l2.501-10.236.005-.023,2.511-10.272c.764-.109,1.269-.164,1.759-.218,1.038-.114,2.018-.221,4.91-.733a3.34573,3.34573,0,0,0,2.024-1.815,7.31412,7.31412,0,0,0,1.096-3.459,1.34163,1.34163,0,0,0-1.317-1.312,1.81266,1.81266,0,0,0-1.173.503c-.349.068-.66.126-.953.181l-.045.009-.023.004c-1.685.311-2.543.426-3.634.573l-.084.012c-.335.044-.693.092-1.099.149l1.402-5.875.006-.022.656-2.75a2.45223,2.45223,0,0,0,.046-.297l.008-.066a2.70343,2.70343,0,0,0-.498-2.062,3.03784,3.03784,0,0,0-2.38-1.066c-.014,0-.028,0-.042.001a5.00137,5.00137,0,0,0-.889.057,5.60742,5.60742,0,0,0-2.153.764l-.015.01a1.70761,1.70761,0,0,0-.743.985,1.60827,1.60827,0,0,0,.111,1.031c.048.117.128.313-.059,1.1l-2.182,9.142c-2.199.288-3.788.46-4.381.521l-.071.007-.028.004c-1.521.233-2.207,1.836-2.098,3.299a2.5432,2.5432,0,0,0,2.362,2.633,2.38974,2.38974,0,0,0,.306-.021c.261-.022,1.095-.097,2.427-.274l-1.011,4.13c-.004.011-.007.023-.01.034l-.823,3.36c-.003.012-.006.023-.008.035l-1.784,7.28c-1.363,3.207-3.854,7.141-8.007,7.779a6.18479,6.18479,0,0,1-.932.076,2.04669,2.04669,0,0,1-2.136-1.17c6.175-2.973,10.036-8.709,11.02-12.836a9.01,9.01,0,0,0,.268-2.143l-.001-.024a4.66593,4.66593,0,0,0-.897-2.89,4.05326,4.05326,0,0,0-3.347-1.475,7.15753,7.15753,0,0,0-1.073.085,8.46083,8.46083,0,0,0-1.885.54l-.007.003c-4.742,1.931-9.472,8.219-11.001,14.626a11.74928,11.74928,0,0,0,.123,6.886c.004.014.009.028.014.041a7.21739,7.21739,0,0,0,1.035,1.855,6.672,6.672,0,0,0,2.788,2.084l.017.007a8.35,8.35,0,0,0,3.154.593,10.73258,10.73258,0,0,0,1.627-.127,17.15046,17.15046,0,0,0,2.503-.582l.017-.005a16.85669,16.85669,0,0,0,5.779-3.168,3.158,3.158,0,0,0,.276.426,3.9559,3.9559,0,0,0,3.313,1.421,8.18475,8.18475,0,0,0,1.198-.097,10.62011,10.62011,0,0,0,5.207-2.525,8.86983,8.86983,0,0,0,2.724.855l.021.003a9.39587,9.39587,0,0,0,1.436.124,8.72625,8.72625,0,0,0,1.313-.098,13.63356,13.63356,0,0,0,6.255-2.832.1682.1682,0,0,0,.021-.016l.096-.074c.054-.043.108-.085.16-.127.218-.05.429-.106.635-.16l.066-.018.023-.005c.686-.178,1.378-.394,2.057-.643l.026-.01a20.70008,20.70008,0,0,0,2.621-1.178l.02-.01a21.06475,21.06475,0,0,0,3.194-2.127c.021-.01605.038-.031.053-.044.25-.208.526-.462.867-.8l.041-.041.018-.018c.295-.297.556-.577.799-.854a11.6969,11.6969,0,0,0,2.36-3.76,2.94825,2.94825,0,0,0-.604-2.416m-13.665,4.662h0a7.7898,7.7898,0,0,1-1.595,2.966c-.061.002-.127.004-.199.004a11.19359,11.19359,0,0,1-3.236-.663q.31651-.606.603-1.209l.041-.086a4.51062,4.51062,0,0,0,.25-.446c.917-1.881,1.541-3.115,2.149-4.251l.011-.02c.317-.593.629-1.156.947-1.708a7.35682,7.35682,0,0,1,.783,1.379,6.25591,6.25591,0,0,1,.246,4.034m-30.181.586c.849-2.65594,2.462-5.91895,3.934-6.662-.014.102-.036.225-.071.371a12.77678,12.77678,0,0,1-3.863,6.291" fill="#fff"/><path d="M46.0592,78.772c-.46-.305-.936-.621-.637-2.28595l.002-.017.017-.093c.025-.13495.048-.262.083-.408.486-2.037.638-2.675.686-2.898l.005.001,6.043-25.324.001-.001.001.001,1.395-5.85c.476-1.99695.299-3.547-.527-4.607a3.54463,3.54463,0,0,0-3.441-1.217,12.70344,12.70344,0,0,0-6.076,3.296.25777.25777,0,0,0-.025.022c-.666.581-1.346,1.237-2.022,1.951l-.016.016c-.041.043-.081.08606-.121.129l.061-.258a2.9294,2.9294,0,0,0-.443-2.527,2.5927,2.5927,0,0,0-2.523-.916,22.5158,22.5158,0,0,0-3.457.843l-.023.008A26.8226,26.8226,0,0,0,19.7502,51.24l-.015.03c-.349.656-.681,1.356-.986,2.081l-.012.03c-.12.288-.231.584-.339.871l-.038.101-.007.02c-.18.481-.353.991-.515,1.516l-.043.14c-.155.502-.315,1.022-.447,1.572-1.24,5.198-.12,9.055,1.341,10.931a4.84984,4.84984,0,0,0,.637.68l.011.011a3.765,3.765,0,0,0,.683.477l.018.01a3.24175,3.24175,0,0,0,.312.141l.018.006a2.41137,2.41137,0,0,0,.957.182,2.26538,2.26538,0,0,0,.322-.022,5.47776,5.47776,0,0,0,2.706-1.525l.016-.016a8.67593,8.67593,0,0,0,1.547-1.955l.009-.016a6.4197,6.4197,0,0,0,.68-1.657,1.67469,1.67469,0,0,0-.24-1.48,1.32659,1.32659,0,0,0-1.285-.495,2.47463,2.47463,0,0,0-.723.254c-.376-.591-1.064-2.475-.291-5.716a17.04279,17.04279,0,0,1,9.797-11.957L28.4882,67.97l-.006.027-.684,2.871-.006.021L25.6742,79.767l-.01.039a1.82412,1.82412,0,0,0,.349,1.571,2.66541,2.66541,0,0,0,1.291.851l.03.00995a4.29845,4.29845,0,0,0,1.349.215,4.60037,4.60037,0,0,0,.711-.054,3.2632,3.2632,0,0,0,2.846-2.424l2.343-9.814a.26272.26272,0,0,0,.006-.027l3.035-12.717c.877-3.673,5.563-9.922,8.62-13.036l.018-.017c.085-.087.167-.169.247-.248l-6.611,27.702-.006.026-1.267,5.312c-.575,2.522-.376,4.423.589,5.649a3.5254,3.5254,0,0,0,2.841,1.319,4.46185,4.46185,0,0,0,.668-.052c2.209-.34,4.026-1.966,4.337-3.272a1.845,1.845,0,0,0-1.001-2.028" fill="#fff"/><path d="M99.491,59.6377a1.77544,1.77544,0,0,0-1.176-.724,1.53544,1.53544,0,0,0-.412.00305,1.58856,1.58856,0,0,0-.251.062v-.001c-.032.012-.064.028-.096.042a1.959,1.959,0,0,0-.575.377H96.98a6.40831,6.40831,0,0,0-1.144,1.553,10.46367,10.46367,0,0,1-2.732,3.202v.001a9.58955,9.58955,0,0,1-1.06.722l-.615.356.202-.682c.045-.155.087-.307.123-.453.936-3.927-.388-6.089-1.79-8.379a24.97957,24.97957,0,0,1-1.391-2.492h-.001c-.159-.342-.311-.696-.448-1.072l-.016-.071c-.008-.09-.014-.239-.02-.384l-.001-.001-.003-.107c-.041-1.127-.117-3.169-1.367-3.379h0a1.32733,1.32733,0,0,0-.215-.022,1.224,1.224,0,0,0-.204.017,4.30031,4.30031,0,0,0-3.871,3.375,3.87141,3.87141,0,0,0,.059,2.217l.048.124-.064.11505q-.423.771-.857,1.552l-.03.053c-.136.248-.274.497-.412.745-.583,1.056-1.166,2.116-1.71,3.138-.69,1.295-1.317,2.531-1.806,3.619l-.017.037a6.06857,6.06857,0,0,0-.315.642c-.235.55-.476,1.077-.715,1.571l-.055.113-.122.036a4.18609,4.18609,0,0,0-2.302,2.67,4.43187,4.43187,0,0,0-.229,1.21l-.006.116-.088.08a3.00746,3.00746,0,0,1-1.514.824c-.396.062-.655.009-.782-.153-.113-.149-.266-.555-.011-1.622L74,58.43073h-.001l.82-3.352v-.001l1.793-7.34.188-.027c.89-.13,1.453-.192,1.997-.251,1.036-.114,2.001-.22,4.862-.726a2.92681,2.92681,0,0,0,1.615-1.526,6.86223,6.86223,0,0,0,1.015-3.097.73587.73587,0,0,0-.713-.762,1.31733,1.31733,0,0,0-.841.412l-.057.05-.076.014c-.413.081-.772.148-1.109.211h-.001c-1.668.308-2.541.427-3.658.577l-.09.013c-.456.06-.954.127-1.563.216l-.413.059,1.615-6.765.656-2.746a3.02013,3.02013,0,0,0,.043-.305,2.12323,2.12323,0,0,0-.376-1.611,2.43242,2.43242,0,0,0-1.919-.831l-.005.001a4.336,4.336,0,0,0-.815.049,4.84234,4.84234,0,0,0-1.914.673h-.001a1.136,1.136,0,0,0-.499.627.99647.99647,0,0,0,.083.661,2.18257,2.18257,0,0,1-.031,1.47095l-2.278,9.546-.194.027c-2.776.367-4.634.553-4.652.556l-.036.004c-1.154.176-1.673,1.47-1.585,2.65405.092,1.239.798,2.072,1.757,2.072a1.84526,1.84526,0,0,0,.242-.018c.126-.01,1.135-.092,2.88-.336l.413-.058-1.233,5.032h-.001l-.823,3.36h.001l-1.805,7.362c-1.425,3.373-4.04,7.503-8.492,8.187a6.91511,6.91511,0,0,1-1.023.083,2.62294,2.62294,0,0,1-2.814-1.852l-.08-.24.23-.106c6.15-2.848,9.992-8.505,10.958-12.556a8.36038,8.36038,0,0,0,.251-1.999,4.10555,4.10555,0,0,0-.771-2.544,3.44748,3.44748,0,0,0-2.868-1.242,6.68133,6.68133,0,0,0-.981.078,7.83374,7.83374,0,0,0-1.755.506c-4.504,1.834-9.119,7.832-10.64,14.205a11.0138,11.0138,0,0,0,.114,6.569h-.001a6.63662,6.63662,0,0,0,.947,1.701,6.10632,6.10632,0,0,0,2.54,1.894h.001a7.721,7.721,0,0,0,2.94.555,10.18888,10.18888,0,0,0,1.536-.12,16.48373,16.48373,0,0,0,2.43-.566,16.26785,16.26785,0,0,0,5.882-3.32l.292-.255.154.356a3.15753,3.15753,0,0,0,.387.683,3.38113,3.38113,0,0,0,2.834,1.187,7.53058,7.53058,0,0,0,1.106-.09,10.13893,10.13893,0,0,0,5.072-2.53l.152-.131.174.099a8.12233,8.12233,0,0,0,2.718.892h.001a8.87152,8.87152,0,0,0,1.363.12,8.05761,8.05761,0,0,0,1.222-.091,12.9696,12.9696,0,0,0,5.99-2.723l.001-.001c.103-.081.21-.163.305-.241l.053-.044.066-.016c.265-.058.521-.127.78-.195.687-.178,1.353-.388,2.001-.625v-.001a19.85435,19.85435,0,0,0,2.586-1.16095,20.25206,20.25206,0,0,0,3.116-2.077.06533.06533,0,0,0,.018-.015c.269-.222.553-.49.841-.775l.057-.057v.001c.259-.262.518-.536.773-.827a10.41778,10.41778,0,0,0,2.226-3.502,2.36355,2.36355,0,0,0-.492-1.902M55.245,65.36475c.622-2.403,2.769-7.815,5.091-8.247l.283-.053.048.286a2.66846,2.66846,0,0,1-.091,1.011,13.53582,13.53582,0,0,1-4.884,7.299l-.653.5Zm31.649-1.29706a8.49654,8.49654,0,0,1-1.816,3.327l-.076.085-.115.009c-.12.011-.246.014-.376.014a12.7747,12.7747,0,0,1-3.792-.814l-.317-.108.158-.29395c.268-.499.527-1.009.768-1.517l.057-.122a4.14457,4.14457,0,0,0,.239-.421c.804-1.65,1.485-3.012,2.169-4.29l.001-.001c.392-.732.786-1.438,1.205-2.153l.212-.363.257.334a8.74744,8.74744,0,0,1,1.148,1.901,6.79861,6.79861,0,0,1,.278,4.413" fill="#ec174c"/><path d="M51.6692,47.6059l-6.043,25.324-.691,2.898c-.05.202-.077.374-.11.55v.001c-.336,1.873.202,2.436.899,2.899.47.311.915.675.746,1.381-.26,1.093-1.901,2.516-3.839,2.814a3.83539,3.83539,0,0,1-.576.044,2.92865,2.92865,0,0,1-2.364-1.087c-.846-1.075-1.007-2.805-.475-5.139l.465-1.949.8-3.357h.001l6.521-27.326.539-2.255-.653.54c-.294.244-.654.582-1.06.995-2.8,2.847-7.831,9.3-8.794,13.337l-3.042,12.744h.001l-.769,3.222h-.001l-1.573,6.593a2.64683,2.64683,0,0,1-2.35,1.965,3.95528,3.95528,0,0,1-.618.047,3.69666,3.69666,0,0,1-1.16-.185h0a2.12653,2.12653,0,0,1-1.031-.657,1.232,1.232,0,0,1-.238-1.06l.009-.035v-.001l2.119-8.88.001-.001.696-2.91705h-.001l5.642-23.634-.498.184a17.567,17.567,0,0,0-10.745,12.61c-.937,3.925.14,6.033.591,6.463l.135.129.172-.074c.066-.029.145-.067.212-.1a2.04252,2.04252,0,0,1,.586-.217.716.716,0,0,1,.713.268,1.09677,1.09677,0,0,1,.129.968,5.88312,5.88312,0,0,1-.617,1.499h-.001a8.05707,8.05707,0,0,1-1.461,1.844,4.84189,4.84189,0,0,1-2.381,1.367,1.774,1.774,0,0,1-.254.015h.001a1.97817,1.97817,0,0,1-.729-.146h-.001a2.52138,2.52138,0,0,1-.25-.113,3.10645,3.10645,0,0,1-.586-.408h0a4.31483,4.31483,0,0,1-.568-.606c-1.375-1.766-2.42-5.431-1.23-10.419.139-.579.311-1.124.48-1.673q.237-.771.51-1.501v-.001c.123-.329.246-.659.379-.977l.001-.002q.4515-1.07245.977-2.059V51.5249a25.9515,25.9515,0,0,1,14.966-12.319h-.001a22.15212,22.15212,0,0,1,3.363-.821,2.00485,2.00485,0,0,1,1.954.69,2.33671,2.33671,0,0,1,.331,2.013l-.04.173-.579,2.423.754-.86c.299-.341.619-.694.955-1.049h.001c.621-.656,1.301-1.322,2.02-1.948v-.001a12.352,12.352,0,0,1,5.77-3.154,4.00155,4.00155,0,0,1,.584-.044,2.81276,2.81276,0,0,1,2.287,1.034c.707.909.846,2.286.416,4.095l-.665,2.78406-.731,3.06494" fill="#ec174c"/></svg>