<?xml version="1.0" encoding="UTF-8" standalone="no"?><svg xmlns:rdf="http://www.w3.org/1999/02/22-rdf-syntax-ns#" xmlns="http://www.w3.org/2000/svg" height="192.86166" width="459.63026" version="1.1" xmlns:cc="http://creativecommons.org/ns#" xmlns:dc="http://purl.org/dc/elements/1.1/" viewBox="0 0 459.63026 192.86166"><defs><style>.cls-1{fill:#fff;}.cls-2{fill:#850038;}.cls-3{fill:#fcba30;}</style></defs><title>Canton Charge logo</title><path class="cls-1" d="M446.50486,80.74239c-1.01649.0829-101.80969,8.19357-141.25712,11.40409l-2.12716.17326a57.22653,57.22653,0,0,0-19.42036,5.55047,3.31645,3.31645,0,0,0-2.6275-2.31623c32.69186-6.61847,69.16121-14.03545,73.35252-15.05962,1.03593-.25209,2.34787-.54371,3.87622-.88637a146.7054,146.7054,0,0,0,39.932-13.6729,647.43928,647.43928,0,0,0,54.791-37.19445l6.60583-5.02258-8.1545-1.52067c-1.29951-.24011-31.99813-5.95617-45.08373-7.57894a39.89817,39.89817,0,0,0-4.87668-.29161A101.1888,101.1888,0,0,0,361.205,26.35732c-1.70974.81161-3.18681,1.50892-4.31736,1.99728-5.18,2.23741-48.559,23.84027-80.5811,39.84138.76033-1.166,1.37474-2.0838,1.78044-2.65506a7.9399,7.9399,0,0,0,1.2566-8.93426,6.81251,6.81251,0,0,0-6.295-3.13982,11.17578,11.17578,0,0,0-3.12785.44116,12.9189,12.9189,0,0,0-6.13733,4.274,160.513,160.513,0,0,1-17.64375,15.99275,11.26821,11.26821,0,0,0-3.6754-.91778c-3.16241-2.32821-7.53964-5.55432-11.27014-8.29206-3.32866-2.44635-5.33771-3.91958-6.6257-4.806a95.324,95.324,0,0,0,46.4594-17.8841,101.51916,101.51916,0,0,1-37.85607-1.99322c-6.54708-2.09961-9.28867-2.85588-10.27353-3.3325-3.15971-7.33792-8.87938-19.07678-13.79533-20.99523a4.278,4.278,0,0,0-1.72169-.27581c-2.02079,0-3.46645.03953-4.51773.1064-1.0131-.88232-2.64783-2.36368-4.05015-3.66343a6.03383,6.03383,0,0,0-4.22293-1.29613,49.10912,49.10912,0,0,0-10.80527,1.8159,32.20074,32.20074,0,0,0-11.42781-4.65326l-.54823-.09329a11.21274,11.21274,0,0,0-2.78043-1.824A69.35279,69.35279,0,0,0,145.64945.87847a3.94537,3.94537,0,0,0-1.80709.44116A13.002,13.002,0,0,0,138.39737,0a11.29828,11.29828,0,0,0-1.426.10233,167.79712,167.79712,0,0,1-19.99093,1.20939c-5.4599,0-8.7924-.29139-8.82379-.29139L97.41347.03953l7.91009,7.33476a106.51976,106.51976,0,0,0,14.906,11.26133l-.55161,1.43483c-.73278,1.90264-.01966,3.14344,1.78834,5.117a34.97374,34.97374,0,0,0,3.55319,24.77385L82.56146,71.9186l2.90715,2.47006-8.91053,3.27355-.89023.32708L0,165.14867s44.76164-5.01468,51.24954-5.77885a72.74469,72.74469,0,0,0-9.30064,17.88027A11.85066,11.85066,0,0,0,43.71375,188.07,13.67132,13.67132,0,0,0,56.35864,192.675l.73662-.01581c.62231-.01965,1.27241-.06778,1.89089-.14186l67.83367-5.77477a16.23506,16.23506,0,0,0,4.62863-1.15811,22.96875,22.96875,0,0,0,3.81228-1.97245c.38988-.24847.77208-.50824,1.15021-.77207L266.10651,171.6811l5.16444-7.88637L278.1379,176.349l41.93331,6.23581-9.09576-14.63427c9.56831-.78383,33.86556-2.77321,95.83769-7.85475l1.8238-.15361,18.089-28.46484-6.79919.37813L454.013,80.13725Z"/><path class="cls-2" d="M305.52536,95.56211l-2.12717.17325a53.62818,53.62818,0,0,0-22.38284,7.56719,35.14538,35.14538,0,0,1-.76033-4.39235,64.33644,64.33644,0,0,0-36.38284,7.26c.497-.47662.9336-.87464,1.28756-1.166a67.82179,67.82179,0,0,0,7.59091-7.75242c28.78785-5.80641,95.19166-19.22293,100.84447-20.606a160.67589,160.67589,0,0,0,42.90305-14.19312,639.98425,639.98425,0,0,0,54.47971-36.9855s-31.77406-5.92793-44.91932-7.55431a100.90143,100.90143,0,0,0-47.66089,13.48c-5.85045,2.52992-62.58655,30.8441-92.15057,45.629,3.35237-5.61351,7.25207-11.75468,8.7845-13.90556,2.06822-2.89925,1.35892-4.471,1.06369-4.99209-.89812-1.57172-3.77773-1.426-5.16445-1.00045a9.34153,9.34153,0,0,0-4.43956,3.16715A156.2472,156.2472,0,0,1,246.14909,78.376a6.98983,6.98983,0,0,0-5.08246-1.78044c-6.38151-4.69956-19.54256-14.386-19.60557-14.386-.09035.00406-.717.07883-1.67812.20487a25.98379,25.98379,0,0,1-2.90964-5.37429,160.37066,160.37066,0,0,0,45.34465-10.72643A56.25742,56.25742,0,0,1,232.098,43.50886c-13.26336-3.57285-12.40478-4.71515-12.40478-4.71515s-7.66973-18.04968-12.10547-19.7829c-.14954-.059-5.86152.11814-6.00338.21662-.15359.11046-5.47165-4.80189-5.47165-4.80189s-1.19721-1.363-13.27534,1.85227l-.65372-.49311A28.16189,28.16189,0,0,0,171.532,11.24664l-1.60717-.27964a9.703,9.703,0,0,0-2.56833-1.89881,66.48411,66.48411,0,0,0-21.9417-4.88931c-.31127,0-1.5166,1.09126-1.5166,1.09126a11.43673,11.43673,0,0,0-5.74633-1.969,8.09369,8.09369,0,0,0-.98487.075,155.82819,155.82819,0,0,1-29.627.92614,83.49737,83.49737,0,0,0,25.6119,16.20554q-4.97516.13552-10.29726.51953a25.84159,25.84159,0,0,0,2.41879,2.74949,30.72644,30.72644,0,0,0,6.83464,29.39075c-3.28529-.50011-4.92-.63406-4.92-.63406L88.80792,72.38753l3.57285,3.04517c-.16942.00406-14.87846,5.40862-14.87846,5.40862S8.70343,160.53583,9.06982,160.323c1.44567-.16964,49.28772-5.81024,51.17387-6.04268-.96521,1.265-1.91845,2.55251-2.84029,3.84865a77.48923,77.48923,0,0,0-10.829,19.77093,8.10456,8.10456,0,0,0,1.16986,7.52788,9.75266,9.75266,0,0,0,8.26067,3.44679l.61938-.01107c.54755-.01965,1.10684-.063,1.6309-.13012l67.98343-5.7881a12.43413,12.43413,0,0,0,3.58866-.91393,19.04877,19.04877,0,0,0,3.20262-1.65462q.94534-.60853,1.80416-1.25253l70.11061-6.035,11.27352-9.57148,4.66411-.40975-5.96747,9.13033,49.01981-4.21888,7.27174-11.11654.49244-.04338,8.73727,15.97017,32.30966,4.806-8.09508-13.023c.13778,0,101.97911-8.35508,101.97911-8.35508l13.2871-20.91346-6.95278.38988L446.9756,84.14153s-101.49073,8.166-141.45,11.41991"/><path class="cls-3" d="M362.17382,115.24721l25.6955-2.25639c1.65844-.11813,3.32482-2.663,3.4075-2.777l9.789-15.01241a2.43123,2.43123,0,0,0,.46509-1.21007.96767.96767,0,0,0-.24846-.74836,1.64212,1.64212,0,0,0-.83894-.44522,3.923,3.923,0,0,0-1.02825-.09442l-.25593.01581-22.4181,1.92726a6.63634,6.63634,0,0,0-4.69844,2.88751l-10.15926,15.58367s-.41744.7208-.49243.89405c-.49244,1.11882.78381,1.23695.78381,1.23695M379.082,100.09813l10.72642-.92162-5.87305,8.98553-10.72961.92613Z"/><path class="cls-3" d="M349.34189,116.19366l8.99322-15.20531,9.56041-.82313,3.39957-5.18408L344.87453,97.254l-.65393.063-3.42332,5.2392,8.82-.82742s-9.13508,15.16216-9.03275,15.19763Z"/><path class="cls-3" d="M315.31458,109.4871l5.105,9.30652,8.38039-.72283,1.62637-2.50734,11.63316-18.00314-8.19968.768-5.986,9.1258-5.89563-8.10932-8.35779.72284-13.34987,20.44271,8.33521-.70025Z"/><path class="cls-3" d="M296.742,120.71365,310.1235,100.324a55.36973,55.36973,0,0,0-28.398,8.20939,174.8144,174.8144,0,0,0-17.1947,14.94938l9.15089-.78767,6.74406-5.72373,11.77432-1.03591-3.58481,5.47549Zm-10.30043-9.25343a13.15275,13.15275,0,0,1,3.81319-2.3596,40.47513,40.47513,0,0,1,7.72531-2.59589l-2.651,4.1048Z"/><path class="cls-3" d="M271.12423,109.92058l4.64829-6.57059-.2679-.6894c-.457-.02757-1.77661-.08268-3.66342-.01966a49.28454,49.28454,0,0,0-29.304,10.246,35.83392,35.83392,0,0,0-8.43776,12.08154.66076.66076,0,0,0,.03546.60673,1.61778,1.61778,0,0,0,1.27241.323l.42919-.03547,25.089-2.13508a2.31906,2.31906,0,0,0,.63813-.1771,4.492,4.492,0,0,0,.77207-.398c.2679-.17326.50824-.34651.7208-.51593a1.803,1.803,0,0,0,.42149-.46894l2.8403-4.81771-8.18183.68557-.98759,1.20984-.1222.012c-.44522.03931-10.90376.9808-11.69572,1.00836l-.21279.00406-.18522-.27965.08268-.14976a24.97624,24.97624,0,0,1,18.74675-10.93923l.64989-.05128-1.35126,1.745Z"/><path class="cls-3" d="M247.04294,80.561l-1.43777.87463a24.57646,24.57646,0,0,0-11.38038,12.89811c-.21279.4136-3.14751,5.83419-5.32187,9.84435l-2.33589,4.30947s-3.66342,4.87688-7.45312,9.986c-3.99819,5.38875-8.13462,11.04155-8.26066,11.50642-.57895,2.17845,2.60785,3.26948,4.32912,2.26112a111.47614,111.47614,0,0,0,9.21773-9.02868c1.426-1.54415,2.911-3.14343,4.39213-4.73887,2.37542-2.55659,4.75062-5.09351,6.9015-7.35464l.11023-.03953c1.65845-1.745,3.19471-3.33273,4.50644-4.64038,1.31579-1.31556,2.40682-2.35171,3.16715-2.986.6736-.55929,1.38672-1.19359,2.12716-1.89067,1.22115-1.14637,2.38718-2.30833,3.59656-3.59159l-9.62275,1.93811s-2.50936-.22837-1.59927-2.13892a81.18377,81.18377,0,0,1,10.55318-11.88162s5.65664-2.84029,14.42149-7.21661c3.78563-6.40117,9.50982-15.15811,11.15879-17.52878,2.11543-3.0332-2.35169-4.29365-5.78268-.33884a133.58073,133.58073,0,0,1-20.9017,19.515l-.386.24418"/><path class="cls-3" d="M170.1336,78.80677,164.146,74.45394a180.21841,180.21841,0,0,0-29.19762,11.4434,154.769,154.769,0,0,0-19.49919,11.94758l19.73162,12.67652,29.627-1.90671A91.5774,91.5774,0,0,1,180.427,79.55491l-1.304-.72058-7.1606.60267A150.47032,150.47032,0,0,0,151.242,101.86751l3.05285-13.9094a78.51071,78.51071,0,0,1,15.8396-9.15088"/><path class="cls-3" d="M179.383,125.49341a12.52854,12.52854,0,0,1-.72871-9.32911,6.41283,6.41283,0,0,0-2.10345-.46081h-.05919l-.01581.02757a9.03815,9.03815,0,0,0-1.56,7.23242,5.99412,5.99412,0,0,0,4.46713,2.52993"/><path class="cls-3" d="M173.708,116.81259a5.7896,5.7896,0,0,0-.29929,2.14592,6.81125,6.81125,0,0,0,.4215,2.17844,13.34716,13.34716,0,0,1,1.7452-5.35735,4.43509,4.43509,0,0,0-1.86718,1.03208"/><path class="cls-3" d="M180.07079,112.99783l.09849.01581a4.89639,4.89639,0,0,1,1.27242-.86289,6.649,6.649,0,0,0-1.45358-.122l-.1457.00385a4.22328,4.22328,0,0,0-1.07138.12221l-.01966.02756a4.305,4.305,0,0,0-.44115.5873c.47278.03547.977.11023,1.63474.20873Z"/><path class="cls-3" d="M179.74258,115.81056a11.30906,11.30906,0,0,1,6.17665,6.50755,6.7076,6.7076,0,0,0,.9966-3.71063,5.72258,5.72258,0,0,0-.30335-1.76192,13.20723,13.20723,0,0,0-4.97922-2.75333,16.005,16.005,0,0,0-4.75062-.65506,6.02278,6.02278,0,0,0-.93743.08268,6.21548,6.21548,0,0,0-1.88683,2.23356,5.75531,5.75531,0,0,1,2.50531-.6736,8.1269,8.1269,0,0,1,3.17889.72871"/><path class="cls-3" d="M174.94657,129.84646c1.50485-.11813,24.99049-5.85045,27.76775-6.52811l.07094-.08268.23244-.05919,6.08606-9.2139-.28371-.48068-.2758-.48453-.08268-.14457-.24418-.45335-.14976-.27965-.197-.37813-.36141-.72488-.68151,1.12265-4.07,7.27987s.457-7.89044.69325-14.01986A25.86044,25.86044,0,0,1,208.052,90.19007c2.97424-3.73435,4.25435-6.98418,7.461-7.59475l.40976-.09035.1694-.03547.29931-.07093.21663-.05511.30314-.07567.25209-.06777.30336-.07883.27963-.07884.31127-.08267.30336-.08674.31916-.09035.319-.09442.31126-.08674.34651-.10165.29545-.09035.37022-.11024.26-.07883.41358-.126.14977-.04337c.78383-.24012,1.55207-.48046,2.265-.70906l.07885-.01965.52789-.16941.02755-.01175.47662-.1536.04722-.01581.7129-.2286c-3.07205-.29139-25.98325-2.44228-36.958-2.32008-5.5385.063-10.45085,7.3151-14.09846,14.981a122.24123,122.24123,0,0,0-6.65348,17.87236,95.09829,95.09829,0,0,0,7.37428,19.57012m-2.06031-8.96182a7.41658,7.41658,0,0,1-.30337-1.90648,7.58165,7.58165,0,1,1,14.49241,2.89518,4.66709,4.66709,0,0,1-.55139,1.57963,8.57673,8.57673,0,0,1-2.12717,2.60379,5.69393,5.69393,0,0,1-2.09577,1.05172,4.65762,4.65762,0,0,1-.9887.27581,6.59255,6.59255,0,0,1-2.30834-.01581,6.19969,6.19969,0,0,1-3.86039-2.06822,5.64708,5.64708,0,0,1-1.06347-1.22091,9.20512,9.20512,0,0,1-1.19359-3.19471"/><path class="cls-3" d="M186.14714,115.65041a7.03021,7.03021,0,0,0-3.5464-3.09622,3.01684,3.01684,0,0,0-1.51659.65778,12.41567,12.41567,0,0,1,5.06187,2.43844"/><path class="cls-3" d="M179.35361,116.45524a11.67357,11.67357,0,0,0,1.05172,9.08063,7.01508,7.01508,0,0,0,4.89247-2.27693c.25616-1.27243-2.0366-5.19539-5.9442-6.80325"/><path class="cls-3" d="M177.65765,112.7437l.25977-.433c-.17325.07093-.61848.35058-.78789.43325h.52789"/><path class="cls-3" d="M196.90814,71.99517a57.64438,57.64438,0,0,1,39.873,3.39959L220.67748,63.522c-8.37089,1.162-17.175,2.10345-17.175,2.10345s-6.74407,6.43279-6.59431,6.37"/><path class="cls-3" d="M166.17427,21.906a226.81173,226.81173,0,0,1-40.94438-10.89585c7.29952,2.32821,45.68325,11.45921,46.06545,11.53014a102.0353,102.0353,0,0,1,22.80865,6.0664,106.6934,106.6934,0,0,0-12.23582-11.59745,26.4012,26.4012,0,0,0-9.87845-4.20669l3.7723,7.05511s-5.04585-7.918-8.10661-9.25321A61.51154,61.51154,0,0,0,146.4702,5.96791a21.6252,21.6252,0,0,1,7.09848,9.12716s-8.56787-10.91166-14.658-9.95435c-8.24462,1.297-24.79306,1.6702-24.79306,1.6702A49.81614,49.81614,0,0,0,140.652,20.50754c10.77772.0707,25.76257,1.43392,25.52222,1.39846"/><path class="cls-3" d="M168.32109,51.21159a8.11858,8.11858,0,0,0,3.00565,7.457s-3.75807-6.75175,4.9713-17.8841c-.44522.46081-7.66567,6.37768-7.97695,10.42714"/><path class="cls-3" d="M192.04841,72.81084a204.03744,204.03744,0,0,0-64.07966-18.995L94.65865,71.42526a224.19242,224.19242,0,0,1,55.48785-5.78269A229.78385,229.78385,0,0,0,78.26314,82.30936L22.46424,148.7832s114.624-93.24972,169.58417-75.97235"/><path class="cls-3" d="M421.11974,99.50293l-5.9182-8.08673-8.35781.70025-13.34988,20.46531,8.3352-.72284,6.73142-10.30041,5.08245,9.28392,8.38039-.72284,13.34987-20.44271-8.29.70025Z"/><path class="cls-3" d="M118.89242,160.78589,116.194,164.0556l-.24035.02258c-1.20533.11431-31.88024,2.67065-34.00741,2.726-.99661.02258-.65394-.85092-.65394-.85092A71.40876,71.40876,0,0,1,133.05392,135.394l2.36751-.19314-4.41585,5.81838,22.45761-1.87915L166.19866,121.13l-.80754-2.08787c-.99278-.05128-3.99051-.17325-8.72532-.0079A371.33127,371.33127,0,0,0,27.62417,152.11613c2.3944-.28348,19.31012-2.592,22.78448-3.01739,10.59655-1.304,25.54593-3.04066,25.54593-3.04066l-1.26044,1.22905a103.52585,103.52585,0,0,0-22.04786,32.45535,1.94958,1.94958,0,0,0,.13011,1.82786,4.57164,4.57164,0,0,0,3.628.95324,10.66644,10.66644,0,0,0,1.166-.09442l68.12529-5.79872a9.32915,9.32915,0,0,0,7.07025-4.33319l7.91009-13.41764Z"/><path class="cls-3" d="M207.27315,134.65084l-14.07272,1.21978-8.10933,12.53669L167.44938,149.74l8.019-12.356-14.45672,1.24237-22.00133,33.77,14.45672-1.24237L161.6441,158.64l17.73207-1.536-8.17708,12.53669,14.45672-1.24237-.22589-.2033Z"/><path class="cls-3" d="M333.30058,144.036l9.37428-.81139-2.9591,4.37271-.18908.01581-19.7079,1.72939.4373-.79173a40.08154,40.08154,0,0,1,30.07608-17.5534l1.03907-.07478-2.16264,2.79692,12.93245-1.08425,7.45312-10.53736-.42916-1.103c-.73256-.04337-2.84413-.13395-5.87305-.02756A79.00058,79.00058,0,0,0,316.28116,137.394a57.73371,57.73371,0,0,0-13.53511,19.38489,1.06479,1.06479,0,0,0,.05917.97311,2.6144,2.6144,0,0,0,2.04451.51593,6.84541,6.84541,0,0,0,.68534-.059l40.24729-3.41924a5.45337,5.45337,0,0,0,4.09283-2.50147l9.59588-15.76077s-21.37427.11023-26.17233,7.508"/><path class="cls-3" d="M374.31608,124.9829l-19.22292,29.50075.33884-.02258-.0226.04517,10.323-.92613,3.79488-.33883.02257-.02258,33.40859-3.00429,5.873-9.19358-33.273,3.00429,2.16852-3.32053,17.73207-1.51343,5.71493-8.69662-17.6643,1.31014,2.14591-3.27535,24.28279-2.10074,5.85048-9.19358-38.67174,3.34312Z"/><path class="cls-3" d="M215.82928,143.27179a319.64949,319.64949,0,0,0-28.74087,24.99455l15.29612-1.31578,11.27015-9.57239c1.21324-.1064,17.65956-1.55591,19.68826-1.73322l-5.98757,9.15472,13.57848-1.166,22.1739-33.75916a87.46176,87.46176,0,0,0-47.278,13.39732m22.74518,3.46645-14.69346,1.44568a18.17943,18.17943,0,0,1,6.21618-3.96272,67.39,67.39,0,0,1,12.90487-4.34109Z"/><path class="cls-3" d="M303.38553,146.23881l13.04675-20.03115-.56335-1.02417-47.07,4.04946-22.1267,33.90939,13.64556-1.17778,7.2837-11.14026,7.6894-.60673,9.19357,16.80594,15.64263,2.32414L287.97443,149.801s12.46781-.53174,15.41019-3.5611M272.74924,143.628l4.24261-6.67291,20.161-1.73322-4.41585,6.803Z"/><path class="cls-3" d="M214.92347,52.01326l-3.73841.64219-.86673,11.01016c2.56042-.34268,5.4913-.73662,7.70522-1.02417L215.148,55.23575Z"/><path class="cls-1" d="M246.23426,91.7487c40.94845-15.38648,168.21348-58.95453,168.21348-58.95453s-128.93593,42.06-164.9438,56.08758a23.43636,23.43636,0,0,0-3.26948,2.86876"/><path class="cls-1" d="M214.92347,52.01326l-1.51344.26406.02755,3.9433,1.25276,6.86694c2.56042-.34651,1.11882-.15812,3.3325-.445l-2.87554-7.40568Z"/><path class="cls-1" d="M253.59385,48.31708a90.46882,90.46882,0,0,1-23.072-3.64761,314.61722,314.61722,0,0,1-30.20212-10.50191,157.51058,157.51058,0,0,0,28.82739,12.00676,91.40279,91.40279,0,0,0,24.447,2.14276"/><path class="cls-1" d="M196.18982,63.22558l1.58346,1.95008s-1.11091-.36639-2.0838-.73278a9.32373,9.32373,0,0,0-2.8403-.86266c-.583.01582-1.39845.62639-.5672,1.20917a6.24416,6.24416,0,0,0,2.09961.91394l2.01288.68466-1.06755.47436-2.15088.01581s-.99661-.382-1.80709,1.00859a4.6533,4.6533,0,0,0-.721,2.97718l3.99436,1.489a64.81224,64.81224,0,0,0,12.5071-15.59925,29.1634,29.1634,0,0,0,.73278-3.61238,8.89784,8.89784,0,0,1-4.6562-.84684c-.77593-.49244-1.92637,2.99773-1.92637,2.99773l.5358-5.07363.48046-.77615-2.005-.42918-1.87915,6.39258-.14185,1.3c-.11431,1.39846,2.39123.72487,2.39123.72487s-.07885,3.32459-1.22522,3.30494c-.48069-.00791-2.26111-1.10684-2.52994-.92952-2.81657,1.86717-.73661,3.41924-.73661,3.41924"/><path class="cls-1" d="M214.27563,116.09564c1.82381.36141,2.44229-2.46985,2.44229-2.46985a16.42191,16.42191,0,0,1-2.87147-6.3072c-.00383-.09036,4.93991,6.64558,6.79917,4.76259a15.07829,15.07829,0,0,0,2.67472-3.50124,25.1331,25.1331,0,0,1-3.58865-10.23016,42.79548,42.79548,0,0,0,5.04607,8.44566l2.77321-5.19539a58.54772,58.54772,0,0,1,1.12672-11.92792l.75626,8.96949a65.07172,65.07172,0,0,1,7.61056-13.25953,32.98729,32.98729,0,0,1,7.88636-5.99931c-1.79241-2.14592-4.2347-2.13124-10.08832-1.0637a137.13287,137.13287,0,0,0-15.95006,5.0542c-6.52336,1.4773-7.79579,6.73616-9.77727,9.29251a12.30765,12.30765,0,0,0-2.94262,10.20284c2.10752,5.42828,5.36142,12.68035,8.103,13.2279"/><path class="cls-1" d="M240.7739,97.58515c.03141.00406,103.71231-22.59158,110.25511-24.19085.9887-.24418,2.25321-.5279,3.71469-.85475A147.58889,147.58889,0,0,0,393.86722,59.2484a384.40654,384.40654,0,0,0,44.76547-31.38781c-7.09462-1.41021-24.26561-4.74677-34.2281-5.97582a41.00825,41.00825,0,0,0-10.632.20872,114.19247,114.19247,0,0,0-30.927,10.64376c-1.61508.76033-3.00949,1.414-4.14795,1.90264-7.48451,3.23808-102.80629,48.9647-109.10107,51.9979,0,0-11.71536,10.72261-8.8238,10.94713"/><path class="cls-1" d="M161.66671,139.84622l11.24914-.97131-7.99638,12.3108,20.82673-1.55861,8.10933-12.53668,10.86513-.94872-20.23942,31.05937-10.86513.94872,8.19967-12.53669-20.96225,1.80709-8.17708,12.53669-11.24915.94872Z"/><path class="cls-1" d="M190.44462,166.69666a276.32787,276.32787,0,0,1,26.0621-22.39844,70.46126,70.46126,0,0,1,27.80322-11.4434,94.8206,94.8206,0,0,1,16.529-1.77253l-20.69684,31.34059-10.36818.89406,5.99548-9.1667-2.60379.23245c-2.18229.19313-18.56175,1.63474-19.68825,1.73322l-.40185.03139-11.27015,9.57239Zm52.21859-28.05509a67.70927,67.70927,0,0,0-13.20035,4.44748,29.62537,29.62537,0,0,0-8.93538,6.4477l18.7113-1.59137,6.43776-9.97423Z"/><path class="cls-1" d="M285.22924,165.86246l-9.28867-16.97423-9.12717.7208-7.28756,11.14816-10.43594.89813,20.36591-31.21071,45.16733-3.88412-12.29047,18.869a33.30884,33.30884,0,0,1-14.48066,3.10028l-2.17055.09442L297.53869,167.689Zm-9.04066-30.11562-5.9408,9.3517,23.147-1.85928,6.16489-9.5053Z"/><path class="cls-1" d="M55.93586,181.26339c-1.54416,0-2.46216-.51954-1.68985-2.54868a108.11284,108.11284,0,0,1,21.24822-30.50166l.93359-.87056,3.47052-2.92681c-1.13847.0393-16.3675,1.7845-29.54029,3.40343,0,0-14.54369,1.98147-14.88252,2.01694a369.26862,369.26862,0,0,1,121.167-29.53644c1.56787-.05512,3.09238-.08268,4.52608-.08268,1.426,0,2.52112.02756,3.26948.059l.26384.6815-11.99886,16.97038-19.03431,1.59137,4.41585-5.81432-5.20374.42919a72.50818,72.50818,0,0,0-52.78557,31.23737s-1.2094,2.61576,1.70973,2.70635l.1143-.00791c2.13124-.0707,32.353-2.56832,34.07835-2.726l.77614-.075,2.69053-3.26563,18.80188-1.64671-6.66906,11.3169a9.61232,9.61232,0,0,1-6.07838,3.69121s-69.46841,5.897-69.58271,5.897"/><path class="cls-1" d="M304.53416,155.33525A59.697,59.697,0,0,1,317.02952,138.373a77.75969,77.75969,0,0,1,46.24278-16.1389c.91779-.0314,1.82786-.04721,2.70635-.04721.76419,0,1.41019.01175,1.91846.02756l-6.51546,9.21007-9.46984.79173,2.143-2.7653-3.88412.28348a50.467,50.467,0,0,0-12.40861,2.95053,33.41962,33.41962,0,0,0-18.69955,15.28438l-.46127.88976-.83127,1.83579,22.59542-1.88683,4.77841-7.07476-8.43392.72871a48.833,48.833,0,0,1,20.40136-4.60108l-8.13054,13.31848a4.72871,4.72871,0,0,1-3.37993,2.34787l-40.3259,3.431c-.063.00791-1.80032.21256-.74045-1.623"/><path class="cls-1" d="M357.80382,152.97022l-.31624.02258L375.31,125.66056l2.48476-3.86266,35.48673-3.07206-4.15631,6.50553L384.865,127.33211l-3.86265,5.94081,17.61915-1.33273-3.953,6.03117-17.73208,1.536L373.006,145.516l33.29566-2.9817L402.168,149.0172l-33.40859,3.00429h-.02258l-3.185.29365-7.77049.70025Z"/><path class="cls-3" d="M249.672,88.79862c36.01261-14.02754,164.94378-56.08283,164.94378-56.08283S287.35462,76.28384,246.40234,91.67054a23.17239,23.17239,0,0,1,3.26948-2.87169"/></svg>