<svg xmlns="http://www.w3.org/2000/svg" viewBox="0 0 250 208" width="250" height="208">
	<style>
		tspan { white-space:pre }
		.shp0 { fill: #ffffff } 
		.shp1 { fill: #3e4a98 } 
		.shp2 { fill: #fff02d } 
		.shp3 { fill: #32338d } 
	</style>
	<g >
		<path class="shp0" d="M117.52 2.57C116.37 3.99 115.42 5.16 115.42 5.17C115.41 5.19 114.53 5.24 113.47 5.28L111.52 5.37C105.78 12.65 104.06 14.77 103.99 14.78C103.93 14.78 103.11 15.16 102.17 15.63C101.24 16.09 99.74 16.92 98.83 17.47C97.93 18.02 96.55 18.95 95.77 19.54C94.98 20.12 93.7 21.16 92.92 21.84C92.13 22.53 90.9 23.72 90.19 24.48C89.47 25.24 88.47 26.38 87.96 27.01C87.46 27.65 86.71 28.64 86.29 29.23C85.88 29.81 85.17 30.87 84.72 31.59C84.27 32.3 83.47 33.73 82.94 34.77C82.41 35.8 81.75 37.19 81.47 37.86C81.19 38.52 80.75 39.64 80.5 40.34C80.25 41.04 79.9 42.13 79.72 42.76L79.4 43.91C77.66 44.25 77.16 44.36 77.15 44.37C77.15 44.39 75.59 46.35 73.69 48.73C71.79 51.12 70.16 53.09 70.06 53.12C69.96 53.14 68.03 53.59 65.77 54.11L61.67 55.06L52.88 66.4L45.59 105.66C40.89 107.31 38.7 108.09 37.7 108.45C36.7 108.82 34.65 109.6 33.15 110.18C31.64 110.77 29.24 111.73 27.8 112.33C26.37 112.92 23.8 114.03 22.1 114.78C20.4 115.53 17.55 116.84 15.78 117.69C14.01 118.54 11.2 119.94 9.53 120.81C7.86 121.68 5.29 123.05 3.82 123.87C2.36 124.69 0.89 125.5 0.58 125.67L0 125.99L0 191.46C15.56 202.54 20.81 206.26 21.7 206.88L23.31 208C27.22 206.28 29.12 205.46 30.05 205.07C30.99 204.67 32.84 203.91 34.18 203.37C35.51 202.84 37.32 202.13 38.19 201.8C39.05 201.47 40.94 200.77 42.37 200.25C43.81 199.73 46.32 198.86 47.96 198.31C49.6 197.77 52.25 196.92 53.85 196.43C55.45 195.95 58.05 195.19 59.62 194.75C61.19 194.32 63.89 193.61 65.63 193.17C67.36 192.74 69.99 192.11 71.45 191.78C72.92 191.45 75.66 190.88 77.53 190.51C79.4 190.14 82.05 189.65 83.41 189.42C84.78 189.18 87.19 188.8 88.76 188.57C90.33 188.33 92.7 188.01 94.04 187.84C95.37 187.67 97.48 187.43 98.71 187.29C99.95 187.16 102.24 186.94 103.81 186.81C105.38 186.67 107.98 186.48 109.58 186.38C111.18 186.28 113.86 186.14 115.53 186.07C117.2 186 121.46 185.95 125 185.95C128.54 185.95 132.8 186 134.47 186.07C136.14 186.14 138.41 186.25 139.51 186.32C140.61 186.39 142.63 186.52 144 186.63C145.37 186.73 147.86 186.95 149.53 187.11C151.2 187.28 153.68 187.55 155.05 187.72C156.42 187.89 158.85 188.22 160.45 188.45C162.06 188.68 164.19 189 165.19 189.17C166.19 189.34 168.35 189.72 169.99 190.03C171.62 190.33 174.33 190.87 176 191.22C177.67 191.58 180.29 192.17 181.82 192.53C183.36 192.9 186.06 193.58 187.83 194.05C189.6 194.52 192.34 195.29 193.9 195.75C195.47 196.21 198.07 197.01 199.67 197.52C201.27 198.04 203.87 198.91 205.44 199.46C207.01 200.01 209.06 200.75 209.99 201.1C210.93 201.44 212.84 202.18 214.24 202.73C215.64 203.28 217.78 204.14 218.98 204.64C220.18 205.14 222.42 206.11 223.96 206.78L226.75 208.02C227.88 207.22 233.11 203.5 239.11 199.23L250.01 191.46L249.94 125.96C247.96 124.83 246.24 123.88 244.84 123.11C243.44 122.34 240.38 120.74 238.04 119.57C235.7 118.39 232.51 116.84 230.94 116.12C229.37 115.4 226.58 114.17 224.75 113.39C222.91 112.61 220.23 111.5 218.8 110.93C217.36 110.36 215.06 109.47 213.7 108.96C212.33 108.45 209.9 107.57 208.29 107.01C206.69 106.45 205.19 105.93 204.97 105.84C204.74 105.76 204.51 105.61 204.46 105.51C204.4 105.41 202.77 96.72 200.83 86.19C198.89 75.66 197.27 66.92 197.24 66.75C197.21 66.58 195.2 63.88 192.77 60.75L188.36 55.06C181.88 53.55 179.94 53.08 179.86 53.05C179.79 53.02 178.21 51.09 176.36 48.76C174.51 46.43 172.93 44.46 172.85 44.4C172.77 44.33 172.24 44.21 171.68 44.12L170.65 43.96C170.03 41.76 169.54 40.34 169.17 39.37C168.8 38.4 168.15 36.88 167.72 35.98C167.29 35.08 166.66 33.85 166.32 33.25C165.98 32.65 165.14 31.32 164.45 30.29C163.76 29.25 162.72 27.81 162.14 27.08C161.55 26.34 160.14 24.81 159 23.67C157.86 22.54 156.33 21.13 155.6 20.55C154.86 19.96 153.63 19.06 152.87 18.54C152.1 18.02 150.87 17.25 150.13 16.83C149.4 16.41 148.14 15.75 147.34 15.37L145.88 14.68L138.48 5.33C137.25 5.33 136.39 5.29 135.76 5.24L134.62 5.15L130.46 0.01L119.61 0" />
		<path class="shp1" d="M119.33 6.84L117.23 9.44C115.25 9.45 114.39 9.49 114.03 9.54L113.37 9.63L106.58 18.23C105.23 18.79 104.3 19.22 103.63 19.56C102.96 19.9 101.83 20.53 101.1 20.96C100.38 21.39 98.99 22.34 98.01 23.07C96.94 23.87 95.5 25.11 94.42 26.16C93.42 27.13 92.22 28.39 91.73 28.95C91.25 29.52 90.43 30.57 89.9 31.28C89.37 31.99 88.59 33.13 88.16 33.82C87.73 34.51 87.01 35.78 86.55 36.65C86.1 37.51 85.48 38.82 85.17 39.55C84.86 40.29 84.4 41.48 84.15 42.22C83.9 42.95 83.55 44.07 83.38 44.7C83.21 45.33 82.98 46.26 82.87 46.76L82.68 47.67C80.47 48.03 79.71 48.16 79.57 48.2C79.41 48.25 77.93 50.01 75.88 52.58L72.46 56.88C64.54 58.71 63.89 58.9 63.7 59.14C63.58 59.29 61.93 61.41 60.05 63.84L56.62 68.26C50.83 99.62 49.08 108.78 49.01 108.86C48.93 108.93 47.86 109.33 46.62 109.75C45.39 110.17 43.09 110.97 41.53 111.53C39.96 112.1 37.17 113.13 35.33 113.84C33.5 114.54 30.66 115.68 29.02 116.36C27.38 117.04 24.79 118.16 23.25 118.84C21.72 119.53 19.07 120.75 17.36 121.56C15.66 122.37 12.85 123.78 11.11 124.69C9.37 125.59 7.08 126.82 6.01 127.41L4.07 128.49L4.07 189.27C10.37 193.77 14.76 196.89 17.88 199.12L23.56 203.15C26.99 201.63 29.11 200.73 30.48 200.16C31.84 199.6 34.22 198.66 35.76 198.07C37.29 197.48 39.56 196.64 40.8 196.19C42.03 195.74 44.57 194.87 46.44 194.25C48.31 193.63 51.29 192.68 53.06 192.15C54.83 191.62 57.7 190.8 59.43 190.33C61.17 189.86 64.04 189.12 65.81 188.69C67.58 188.26 70.42 187.61 72.12 187.24C73.83 186.87 76.67 186.3 78.44 185.96C80.21 185.63 82.83 185.17 84.26 184.93C85.7 184.7 88.02 184.34 89.42 184.15C90.83 183.95 93.09 183.65 94.46 183.48C95.83 183.31 98.05 183.06 99.38 182.93C100.72 182.8 102.79 182.61 103.99 182.51C105.2 182.4 107.46 182.24 109.03 182.14C110.6 182.04 113.33 181.9 115.1 181.82C116.87 181.75 121.25 181.69 124.82 181.69C128.39 181.69 132.71 181.75 134.41 181.82C136.11 181.9 138.84 182.04 140.48 182.14C142.12 182.24 144.41 182.41 145.58 182.5C146.75 182.6 148.8 182.79 150.13 182.93C151.47 183.06 153.9 183.33 155.54 183.54C157.17 183.74 159.63 184.07 161 184.27C162.37 184.47 164.91 184.87 166.65 185.16C168.38 185.46 171.09 185.95 172.66 186.26C174.23 186.56 176.88 187.11 178.55 187.48C180.21 187.85 183.3 188.58 185.41 189.11C187.51 189.63 190.76 190.5 192.63 191.03C194.5 191.56 197.34 192.4 198.94 192.9C200.55 193.4 203.07 194.22 204.56 194.73C206.05 195.23 208.37 196.05 209.72 196.54C211.07 197.03 213.3 197.87 214.67 198.4C216.04 198.93 218.22 199.81 219.52 200.35C220.83 200.89 222.82 201.73 223.96 202.22L226.02 203.12C226.98 202.44 231.36 199.33 236.38 195.76L245.5 189.28L245.5 128.47C242.35 126.75 240.48 125.75 239.32 125.13C238.15 124.51 235.61 123.23 233.67 122.28C231.73 121.34 229 120.05 227.6 119.41C226.2 118.78 223.93 117.79 222.56 117.21C221.19 116.63 218.73 115.62 217.1 114.96C215.46 114.31 212.73 113.26 211.02 112.63C209.32 111.99 206.51 110.98 204.77 110.39C203.04 109.79 201.37 109.22 201.07 109.12C200.68 109 200.5 108.86 200.43 108.65C200.38 108.49 198.7 99.48 196.7 88.62C194.7 77.75 193.01 68.71 192.96 68.51C192.9 68.31 191.25 66.08 189.28 63.55C187.32 61.03 185.65 58.93 185.59 58.89C185.52 58.85 183.58 58.38 181.28 57.85L177.09 56.87C171.87 50.3 170.29 48.35 170.2 48.3C170.12 48.25 169.34 48.08 168.48 47.94L166.92 47.67C166.11 44.48 165.66 42.92 165.39 42.16C165.13 41.39 164.65 40.16 164.34 39.43C164.02 38.7 163.56 37.69 163.31 37.19C163.06 36.69 162.54 35.74 162.15 35.07C161.77 34.4 161.06 33.29 160.59 32.59C160.12 31.89 159.18 30.63 158.51 29.8C157.85 28.97 156.59 27.57 155.72 26.7C154.85 25.83 153.51 24.61 152.74 23.99C151.98 23.37 150.58 22.35 149.65 21.73C148.71 21.11 147.16 20.21 146.19 19.71C145.22 19.22 144.1 18.68 143.7 18.51C142.97 18.21 142.96 18.2 139.58 13.92C137.72 11.56 136.17 9.6 136.14 9.57C136.11 9.54 135.24 9.48 134.2 9.45L132.31 9.39C129.95 6.48 129 5.32 128.68 4.94L128.1 4.24L121.43 4.24" />
		<path class="shp2" d="M123.36 7.32C123.39 7.36 124.46 7.71 125.73 8.11C127 8.51 128.12 8.84 128.22 8.84C128.32 8.84 128.04 8.49 127.61 8.06L126.82 7.27C124.09 7.26 123.33 7.29 123.36 7.32ZM118.81 13.34C117.61 13.4 116.51 13.5 116.38 13.55C116.25 13.61 115.77 14.12 115.32 14.7C114.87 15.28 114.51 15.77 114.53 15.81C114.54 15.84 115.16 15.73 115.89 15.57C116.63 15.4 117.94 15.16 118.81 15.03C119.68 14.9 121.26 14.73 122.33 14.65C123.45 14.57 125.05 14.55 126.09 14.59C127.09 14.64 128.76 14.78 129.8 14.91C130.83 15.04 132.52 15.33 133.56 15.56C134.6 15.78 135.5 15.98 135.58 16.01C135.66 16.03 135.74 16.02 135.76 15.99C135.79 15.96 135.37 15.37 134.83 14.69L133.86 13.46C132.55 13.36 129.65 13.31 126.58 13.28C123.51 13.25 120.01 13.28 118.81 13.34ZM121.66 18.92C120.63 18.97 118.85 19.15 117.71 19.32C116.58 19.49 114.89 19.81 113.95 20.04C113.02 20.27 111.65 20.65 110.92 20.88C110.18 21.12 108.9 21.59 108.06 21.93C107.23 22.27 105.94 22.86 105.21 23.25C104.47 23.63 103.35 24.27 102.72 24.66C102.09 25.06 101.14 25.7 100.63 26.08C100.11 26.46 99.7 26.8 99.71 26.83C99.73 26.87 100.29 26.65 100.96 26.36C101.63 26.07 102.88 25.58 103.75 25.26C104.62 24.95 106.15 24.48 107.15 24.22C108.15 23.97 109.57 23.64 110.31 23.5C111.04 23.36 112.35 23.17 113.22 23.06C114.12 22.96 115.82 22.88 117.17 22.88C118.95 22.88 119.97 22.94 121.3 23.13C122.27 23.27 123.77 23.56 124.64 23.76C125.5 23.97 126.99 24.41 127.94 24.73C128.9 25.05 130.43 25.65 131.34 26.05C132.26 26.46 133.7 27.15 134.53 27.59C135.37 28.03 136.92 28.91 137.99 29.54C139.06 30.17 141.36 31.59 143.09 32.68C144.83 33.78 146.33 34.75 146.43 34.83C146.53 34.91 147.09 35.29 147.67 35.66C148.26 36.04 148.76 36.3 148.79 36.25C148.83 36.2 148.43 35.53 147.91 34.76C147.4 34 146.62 32.91 146.18 32.34C145.73 31.78 144.8 30.69 144.1 29.92C143.39 29.16 142.23 28 141.5 27.35C140.77 26.7 139.66 25.76 139.02 25.25C138.39 24.75 136.94 23.71 135.81 22.96C134.67 22.2 133.2 21.27 132.53 20.89C131.86 20.51 130.79 19.94 130.16 19.62L129.01 19.04C125.43 18.84 124.2 18.79 123.97 18.8C123.73 18.8 122.7 18.86 121.66 18.92ZM139.88 21.78C139.88 21.83 140.19 22.09 140.58 22.37C140.96 22.65 141.87 23.39 142.61 24.02C143.34 24.65 144.68 25.92 145.58 26.85C146.49 27.77 147.7 29.13 148.29 29.86C148.88 30.59 149.82 31.88 150.37 32.71C150.93 33.54 151.65 34.7 151.97 35.28C152.49 36.22 152.58 36.32 152.71 36.13C152.79 36.01 152.92 35.56 153 35.13C153.1 34.6 153.11 33.81 153.05 32.71C153.01 31.81 152.93 30.83 152.88 30.53C152.81 30.03 152.7 29.9 151.41 28.73C150.64 28.04 149.45 27.06 148.77 26.55C148.08 26.04 146.94 25.25 146.22 24.81C145.5 24.36 144.28 23.67 143.52 23.27C142.75 22.88 141.64 22.36 141.06 22.12C140.47 21.88 139.97 21.68 139.93 21.68C139.9 21.68 139.88 21.73 139.88 21.78ZM114.56 26.17C113.89 26.23 112.58 26.39 111.64 26.53C110.71 26.68 109.02 27.03 107.88 27.31C106.74 27.6 105.11 28.09 104.24 28.4C103.37 28.71 101.78 29.4 100.72 29.92C99.65 30.44 98.25 31.2 97.62 31.62C96.99 32.04 96.14 32.63 95.74 32.93C95.34 33.24 94.42 34.06 93.69 34.76C92.97 35.47 91.98 36.56 91.5 37.19C91.02 37.82 90.43 38.7 90.18 39.13C89.94 39.56 89.46 40.62 89.11 41.49C88.77 42.36 88.31 43.69 88.09 44.46C87.87 45.23 87.65 46.1 87.61 46.4L87.53 46.94C88.43 46.81 89.93 46.6 91.43 46.4C92.93 46.2 95.36 45.91 96.83 45.74C98.3 45.57 101.09 45.3 103.02 45.13C104.96 44.96 107.86 44.74 109.46 44.65C111.06 44.55 114.09 44.4 116.2 44.33C118.59 44.24 122.74 44.21 127.31 44.25C131.31 44.29 135.66 44.38 136.96 44.45C138.26 44.53 140.86 44.69 142.73 44.83C144.6 44.96 147.55 45.2 149.28 45.37C151.02 45.54 152.45 45.66 152.47 45.64C152.48 45.62 152.39 45.2 152.25 44.7C152.12 44.2 151.76 43.06 151.45 42.16L150.9 40.52C149.46 40.19 148.55 39.86 147.95 39.57C147.35 39.28 146.09 38.54 145.16 37.92C144.22 37.3 142.14 35.96 140.54 34.95C138.94 33.94 136.89 32.68 135.99 32.14C135.09 31.61 133.67 30.81 132.83 30.37C132 29.93 130.63 29.28 129.8 28.91C128.96 28.55 127.54 28.01 126.64 27.71C125.74 27.41 124.37 27.02 123.6 26.85C122.84 26.68 121.66 26.45 120.99 26.35C120.33 26.25 118.88 26.14 117.78 26.11C116.67 26.08 115.23 26.11 114.56 26.17ZM156.39 34.68C156.39 34.86 156.3 35.43 156.19 35.95C156.09 36.47 155.85 37.21 155.66 37.61C155.47 38.01 155.04 38.64 154.7 39.01L154.09 39.67C154.56 40.89 154.9 41.96 155.16 42.82C155.42 43.69 155.7 44.77 155.79 45.23C155.89 45.69 156.02 46.08 156.08 46.11C156.15 46.13 157.49 46.31 159.06 46.52C160.63 46.72 161.93 46.88 161.95 46.86C161.97 46.84 161.85 46.3 161.68 45.67C161.51 45.04 161.19 43.97 160.96 43.31C160.73 42.64 160.35 41.61 160.1 41.01C159.85 40.41 159.31 39.27 158.9 38.47C158.48 37.67 157.75 36.42 157.27 35.68C156.55 34.59 156.39 34.4 156.39 34.68ZM119.54 49.07C117.67 49.13 114.63 49.26 112.8 49.36C110.96 49.47 108.39 49.63 107.09 49.73C105.79 49.83 103.28 50.06 101.51 50.22C99.74 50.39 96.98 50.69 95.37 50.89C93.77 51.08 91.48 51.38 90.27 51.55C89.07 51.72 86.61 52.11 84.81 52.41C83.01 52.72 81.46 53.03 81.38 53.1C81.3 53.18 81.2 53.43 81.16 53.67C81.13 53.9 81.11 54.1 81.13 54.12C81.15 54.14 81.55 54.07 82.02 53.98C82.49 53.88 84.02 53.61 85.42 53.38C86.82 53.14 89.33 52.76 91 52.53C92.67 52.29 95.49 51.94 97.26 51.74C99.03 51.54 101.7 51.26 103.21 51.13C104.71 50.99 107.06 50.8 108.43 50.7C109.8 50.61 111.98 50.47 113.28 50.4C114.59 50.33 117.29 50.22 119.29 50.15C121.3 50.09 124.58 50.03 126.58 50.03C128.58 50.03 131.86 50.09 133.86 50.15C135.87 50.22 138.84 50.36 140.48 50.46C142.12 50.56 144.66 50.75 146.13 50.88C147.6 51.02 149.75 51.23 150.92 51.37C152.09 51.5 154.03 51.75 155.23 51.91C156.44 52.08 158.59 52.41 160.03 52.65C161.46 52.89 163.81 53.32 165.25 53.61C166.69 53.9 167.87 54.13 167.88 54.12C167.9 54.1 167.84 53.85 167.76 53.57C167.64 53.12 167.56 53.03 167.19 52.94C166.96 52.88 165.78 52.64 164.58 52.41C163.38 52.17 161.6 51.84 160.64 51.67C159.67 51.51 157.54 51.18 155.9 50.95C154.26 50.71 151.7 50.39 150.19 50.22C148.69 50.06 146.48 49.84 145.28 49.74C144.07 49.64 141.73 49.47 140.06 49.37C138.39 49.27 135.16 49.13 132.89 49.06C130.62 49 127.45 48.95 125.85 48.96C124.25 48.97 121.41 49.02 119.54 49.07ZM115.89 55C114.56 55.05 112.37 55.16 111.04 55.24C109.7 55.31 107.19 55.48 105.45 55.61C103.72 55.74 100.93 55.99 99.26 56.15C97.59 56.32 95.1 56.59 93.73 56.76C92.37 56.92 89.88 57.25 88.21 57.49C86.54 57.73 83.7 58.17 81.9 58.46C80.09 58.76 76.87 59.36 74.73 59.79C72.6 60.21 70.24 60.72 69.49 60.9L68.13 61.24C65.76 64.24 65.09 65.13 65.11 65.15C65.13 65.17 65.8 65.03 66.6 64.82C67.4 64.62 69.15 64.21 70.48 63.91C71.82 63.61 74 63.15 75.34 62.89C76.68 62.62 79.03 62.18 80.56 61.91C82.1 61.64 84.8 61.2 86.57 60.94C88.34 60.67 91.1 60.29 92.7 60.09C94.31 59.89 96.96 59.59 98.59 59.42C100.23 59.26 102.93 59.01 104.6 58.88C106.27 58.75 108.57 58.59 109.7 58.52C110.84 58.45 113.16 58.34 114.86 58.28C116.56 58.21 119.6 58.12 121.6 58.08C123.6 58.04 127.56 58.07 130.4 58.14C133.24 58.21 136.63 58.32 137.93 58.39C139.23 58.46 141.53 58.6 143.03 58.7C144.53 58.8 146.96 58.99 148.43 59.12C149.9 59.26 152.58 59.53 154.38 59.73C156.19 59.93 159.37 60.34 161.46 60.63C163.54 60.93 165.33 61.18 165.43 61.18C165.54 61.18 165.09 60.49 164.31 59.48C163.14 57.97 162.96 57.78 162.58 57.73C162.35 57.7 160.73 57.48 159 57.25C157.26 57.02 154.61 56.69 153.11 56.52C151.61 56.35 149.23 56.11 147.83 55.98C146.42 55.84 143.69 55.63 141.76 55.49C139.82 55.35 137.2 55.18 135.93 55.11C134.66 55.04 130.18 54.96 125.97 54.94C121.76 54.92 117.23 54.94 115.89 55ZM167.19 58.57C167.19 58.61 167.75 59.35 168.42 60.24C169.1 61.12 169.66 61.86 169.67 61.88C169.68 61.89 170.61 62.09 171.75 62.32C172.88 62.54 173.82 62.7 173.84 62.68C173.86 62.65 173.28 61.86 172.57 60.92C171.85 59.98 171.23 59.19 171.2 59.17C171.17 59.15 170.35 59 169.38 58.82C168.41 58.65 167.52 58.51 167.41 58.51C167.29 58.51 167.19 58.54 167.19 58.57ZM175.59 60.1C175.59 60.19 176.17 61.02 176.88 61.95L178.18 63.63C182.6 64.73 183.93 65.04 183.98 65.02C184.03 65.01 183.46 64.23 182.73 63.3C181.99 62.36 181.29 61.49 181.18 61.35C181.02 61.17 180.42 60.99 178.55 60.59C177.21 60.3 176 60.04 175.86 60C175.7 59.96 175.6 60 175.59 60.1ZM123.12 65.23L123.12 66.99L126.64 66.99L126.64 63.48L123.12 63.48M114.44 63.69C113.7 63.7 112.98 63.75 112.83 63.78C112.56 63.84 112.55 63.88 112.55 65.57L112.55 67.29C115.24 67.14 116.03 67.09 116.04 67.07C116.05 67.06 116.1 66.28 116.14 65.33C116.21 63.71 116.2 63.6 115.99 63.63C115.87 63.64 115.17 63.67 114.44 63.69ZM133.47 63.75C133.45 63.8 133.47 64.56 133.51 65.45L133.59 67.05C135.31 67.19 136.12 67.23 136.5 67.23C137.16 67.23 137.2 67.22 137.14 66.96C137.11 66.81 137.08 66.05 137.08 65.26C137.08 63.89 137.07 63.84 136.81 63.79C136.66 63.75 135.85 63.71 135.02 63.69C134.19 63.68 133.49 63.7 133.47 63.75ZM104.02 64.37C102.87 64.47 102.44 64.56 102.36 64.69C102.3 64.79 102.23 65.55 102.19 66.39C102.15 67.22 102.13 67.91 102.14 67.93C102.16 67.95 102.94 67.9 103.87 67.83C104.81 67.75 105.61 67.66 105.65 67.62C105.7 67.57 105.77 66.79 105.81 65.87C105.87 64.55 105.85 64.21 105.73 64.22C105.64 64.23 104.87 64.3 104.02 64.37ZM143.8 65.7C143.85 66.51 143.91 67.28 143.94 67.42C143.98 67.62 144.13 67.67 145 67.75C145.55 67.8 146.35 67.88 146.78 67.93L147.55 68.02C147.41 65.39 147.37 64.61 147.36 64.59C147.35 64.57 146.82 64.51 146.19 64.45C145.55 64.38 144.74 64.31 144.38 64.28L143.72 64.22M93.15 65.52C91.84 65.7 91.65 65.75 91.61 65.96C91.58 66.09 91.51 66.86 91.44 67.66C91.37 68.46 91.33 69.12 91.34 69.14C91.36 69.16 92.16 69.08 93.13 68.96L94.89 68.74C95.01 67.9 95.08 67.13 95.11 66.48C95.18 65.32 95.18 65.3 94.91 65.31C94.77 65.32 93.97 65.41 93.15 65.52ZM154.46 65.75C154.46 66 154.53 66.78 154.61 67.47L154.75 68.74C157.48 69.08 158.28 69.16 158.3 69.14C158.32 69.12 158.26 68.35 158.18 67.42L158.03 65.72C155.67 65.4 154.87 65.31 154.72 65.3C154.48 65.3 154.45 65.35 154.46 65.75ZM82.62 67.09C81.69 67.24 80.9 67.4 80.86 67.43C80.83 67.47 80.72 68.24 80.61 69.15C80.5 70.06 80.42 70.82 80.43 70.84C80.43 70.86 81.18 70.76 82.08 70.62C82.98 70.48 83.8 70.32 83.9 70.26C84.03 70.18 84.14 69.68 84.28 68.54C84.39 67.65 84.44 66.9 84.39 66.87C84.35 66.83 83.55 66.93 82.62 67.09ZM165.18 66.83C165.14 66.85 165.23 67.62 165.36 68.53C165.5 69.45 165.64 70.23 165.69 70.26C165.73 70.3 166.54 70.45 167.48 70.6C168.42 70.75 169.21 70.86 169.22 70.84C169.23 70.82 169.15 70.07 169.05 69.17C168.94 68.27 168.83 67.5 168.79 67.45C168.74 67.41 167.93 67.24 166.97 67.08C166.02 66.92 165.21 66.8 165.18 66.83ZM72.12 69.11C71.01 69.34 70.35 69.54 70.29 69.66C70.24 69.76 70.05 70.55 69.88 71.41C69.71 72.28 69.6 73.02 69.63 73.05C69.67 73.08 70.4 72.96 71.25 72.77C72.1 72.58 72.9 72.39 73.03 72.33C73.24 72.25 73.33 71.95 73.61 70.52C73.79 69.57 73.92 68.79 73.9 68.77C73.88 68.75 73.08 68.91 72.12 69.11ZM175.74 69.05C175.77 69.22 175.92 70 176.08 70.79C176.31 71.97 176.4 72.25 176.6 72.32C176.74 72.37 177.54 72.57 178.39 72.76C179.24 72.95 179.96 73.08 180 73.05C180.04 73.02 179.93 72.22 179.75 71.29C179.57 70.36 179.39 69.57 179.36 69.54C179.33 69.5 178.49 69.31 177.49 69.11L175.68 68.75M123.12 73.29L123.12 76.92L126.64 76.92L126.64 69.66L123.12 69.66M114.23 69.9C113.32 69.93 112.53 70 112.47 70.06C112.42 70.12 112.34 71.26 112.29 72.6C112.24 73.95 112.2 75.54 112.2 76.14L112.19 77.23C114.87 77.07 115.67 77.02 115.69 77.01C115.71 76.99 115.78 75.6 115.84 73.9C115.91 72.2 115.95 70.59 115.93 70.32L115.89 69.84M133.73 71.96C133.77 73.12 133.84 74.73 133.88 75.53L133.95 76.99C135.76 77.13 136.57 77.17 136.9 77.17L137.51 77.17C137.35 71.68 137.27 70.05 137.24 70.02C137.21 69.99 136.39 69.93 135.42 69.9L133.65 69.84M103.55 70.55C102.71 70.62 101.99 70.71 101.95 70.75C101.92 70.78 101.78 72.39 101.66 74.32C101.53 76.25 101.45 77.86 101.47 77.89C101.5 77.93 102.3 77.89 103.24 77.8C104.19 77.72 104.98 77.63 104.99 77.62C105.01 77.6 105.1 76.34 105.2 74.8C105.3 73.27 105.41 71.65 105.43 71.2C105.48 70.5 105.45 70.39 105.29 70.4C105.18 70.41 104.4 70.48 103.55 70.55ZM144.22 70.46C144.19 70.52 144.26 72.15 144.39 74.08C144.52 76.01 144.64 77.6 144.65 77.62C144.66 77.63 145.44 77.72 146.39 77.8C147.34 77.89 148.14 77.93 148.17 77.89C148.21 77.86 148.13 76.25 148 74.32C147.83 71.9 147.71 70.78 147.61 70.73C147.53 70.68 146.86 70.61 146.13 70.57C145.39 70.52 144.68 70.46 144.54 70.43C144.4 70.39 144.25 70.41 144.22 70.46ZM92.64 71.73C91.74 71.85 91 71.97 91 71.98C90.99 72 90.83 73.61 90.63 75.55C90.43 77.5 90.3 79.12 90.34 79.16C90.37 79.19 91.08 79.14 91.91 79.04C92.75 78.94 93.54 78.81 93.67 78.75C93.9 78.66 93.94 78.37 94.25 75.22C94.44 73.32 94.59 71.71 94.59 71.62C94.59 71.54 94.52 71.48 94.43 71.49C94.35 71.5 93.54 71.6 92.64 71.73ZM155.06 71.68C155.06 71.8 155.21 73.41 155.39 75.26C155.64 77.87 155.76 78.65 155.9 78.74C156 78.8 156.63 78.9 157.3 78.98C157.97 79.05 158.7 79.14 158.94 79.18L159.36 79.25C158.82 73.65 158.65 72 158.65 71.99C158.64 71.97 158.03 71.88 157.3 71.78C156.56 71.68 155.76 71.57 155.51 71.54C155.13 71.48 155.05 71.51 155.06 71.68ZM81.84 73.36C80.93 73.52 80.16 73.69 80.12 73.74C80.08 73.79 79.85 75.44 79.61 77.41C79.37 79.37 79.18 80.99 79.2 81.01C79.21 81.02 80.02 80.89 80.99 80.72C81.95 80.55 82.76 80.4 82.78 80.39C82.79 80.38 83 78.85 83.23 76.99C83.46 75.12 83.65 73.47 83.66 73.32C83.66 73.17 83.62 73.05 83.57 73.06C83.52 73.07 82.74 73.2 81.84 73.36ZM165.98 73.23C165.98 73.33 166.18 74.98 166.42 76.89C166.66 78.81 166.86 80.38 166.87 80.39C166.88 80.4 167.68 80.54 168.65 80.71C169.62 80.88 170.43 81.01 170.44 81C170.46 80.99 170.28 79.35 170.04 77.35C169.8 75.35 169.59 73.7 169.58 73.69C169.57 73.68 168.88 73.56 168.04 73.42C167.21 73.28 166.4 73.14 166.25 73.11C166.07 73.06 165.98 73.1 165.98 73.23ZM177.01 75.28C177.02 75.35 177.29 77 177.61 78.94C177.92 80.88 178.21 82.51 178.24 82.55C178.28 82.59 179.11 82.8 180.09 83.01C181.59 83.34 181.88 83.38 181.88 83.22C181.89 83.12 181.63 81.46 181.32 79.53C181 77.6 180.74 76 180.74 75.99C180.73 75.98 179.89 75.78 178.85 75.56C177.72 75.31 176.99 75.2 177.01 75.28ZM70.59 75.57C69.78 75.75 69.07 75.94 69.01 76C68.95 76.06 68.65 77.66 68.33 79.57C68.01 81.48 67.76 83.12 67.76 83.22C67.76 83.38 68.05 83.34 69.54 83.01C70.53 82.8 71.37 82.58 71.41 82.53C71.45 82.48 71.74 80.86 72.05 78.92C72.36 76.99 72.61 75.37 72.61 75.32C72.61 75.27 72.49 75.23 72.33 75.24C72.18 75.25 71.4 75.4 70.59 75.57ZM121.48 84.02C121.21 84.05 120.31 84.13 119.48 84.2C118.64 84.27 117.06 84.46 115.95 84.63C114.85 84.8 113.21 85.1 112.31 85.3C111.41 85.5 109.8 85.91 108.73 86.21C107.66 86.51 105.91 87.08 104.84 87.47C103.78 87.86 102.08 88.54 101.08 88.98C100.08 89.42 98.58 90.14 97.74 90.58C96.91 91.02 95.62 91.73 94.89 92.17C94.15 92.6 92.9 93.39 92.1 93.92C91.29 94.46 90.09 95.3 89.42 95.8C88.76 96.3 87.91 96.95 87.54 97.25C87.18 97.54 86.21 98.36 85.4 99.07C84.58 99.78 83.96 100.38 84 100.4C84.05 100.42 84.96 100.3 86.02 100.13C87.09 99.96 89.14 99.66 90.58 99.46C92.46 99.19 93.27 99.03 93.49 98.87C93.66 98.75 94.31 98.29 94.95 97.85C95.58 97.41 96.89 96.59 97.86 96.01C98.83 95.43 100.5 94.53 101.57 94.01C102.63 93.49 104.41 92.7 105.51 92.27C106.61 91.84 108.14 91.29 108.91 91.04C109.68 90.8 111.18 90.39 112.25 90.13C113.32 89.86 114.99 89.51 115.95 89.35C116.92 89.19 118.56 88.97 119.6 88.87C120.63 88.77 122.38 88.65 123.48 88.61C124.58 88.56 126.5 88.59 127.73 88.66C128.97 88.74 130.66 88.88 131.5 88.98C132.33 89.09 133.75 89.31 134.65 89.47C135.55 89.64 137.08 89.97 138.05 90.21C139.02 90.45 140.55 90.89 141.45 91.19C142.35 91.48 143.72 91.97 144.49 92.27C145.26 92.57 146.89 93.31 148.13 93.9C149.37 94.5 151.2 95.48 152.2 96.08C153.2 96.67 154.66 97.61 155.44 98.16L156.86 99.15C159.36 99.5 161.29 99.79 162.76 100.01C164.23 100.24 165.46 100.39 165.49 100.35C165.53 100.32 165.31 100.07 165.01 99.81C164.71 99.54 163.81 98.77 163 98.1C162.2 97.42 160.84 96.34 159.97 95.69C159.1 95.05 157.76 94.11 156.99 93.61C156.23 93.11 154.86 92.28 153.96 91.76C153.06 91.24 151.39 90.37 150.25 89.82C149.12 89.28 147.62 88.6 146.92 88.31C146.21 88.03 144.9 87.54 144 87.22C143.1 86.9 141.57 86.42 140.6 86.15C139.63 85.87 138.24 85.52 137.51 85.35C136.77 85.19 135.35 84.91 134.35 84.75C133.35 84.58 131.74 84.36 130.77 84.25C129.71 84.13 127.61 84.04 125.49 84.02C123.55 83.99 121.75 84 121.48 84.02Z" />
		<path class="shp0" d="M118.02 107.21C116.25 107.26 113.49 107.37 111.89 107.44C110.28 107.52 108.85 107.61 108.7 107.64L108.43 107.69L108.43 116.66C110.64 115.6 111.53 115.25 111.83 115.2C112.13 115.15 113.15 115.07 114.1 115.03L115.83 114.96L115.83 144.7C114.14 147.1 113.66 147.81 113.68 147.84C113.69 147.86 114.86 147.84 116.26 147.78C117.66 147.73 120.49 147.68 122.54 147.68C124.59 147.67 126.3 147.63 126.32 147.58C126.35 147.53 125.88 146.84 125.29 146.04L124.21 144.58L124.21 114.84L128.52 114.84C130.83 115.87 131.55 116.17 131.62 116.17C131.7 116.17 131.74 114.62 131.74 111.75C131.74 108.93 131.69 107.31 131.62 107.27C131.55 107.24 129.19 107.19 126.37 107.16C123.54 107.13 119.79 107.15 118.02 107.21ZM137.48 109.24L138.46 111.03C138.16 112.53 136.51 120.2 134.6 129.05L131.13 145.13L129.07 147.67C129.96 147.67 131.7 147.73 133.5 147.79C135.3 147.86 137.71 147.97 138.84 148.03C139.98 148.1 140.92 148.13 140.94 148.09C140.95 148.06 140.64 147.5 140.24 146.85C139.84 146.2 139.52 145.56 139.52 145.43C139.52 145.3 139.79 143.99 140.12 142.52C140.45 141.06 140.74 139.84 140.75 139.82C140.77 139.8 142.34 139.9 144.24 140.05C146.15 140.19 147.73 140.35 147.77 140.4C147.8 140.45 148.1 141.91 148.43 143.65L149.04 146.8C147.77 148.13 147.42 148.54 147.43 148.58C147.45 148.61 148.8 148.77 150.44 148.94C152.07 149.11 154.72 149.42 156.33 149.62C157.93 149.82 159.28 149.96 159.33 149.95C159.38 149.93 158.99 149.34 158.45 148.64L157.48 147.37C154.18 131.13 152.4 122.35 151.39 117.39C150.38 112.42 149.55 108.35 149.54 108.34C149.53 108.33 148.22 108.21 146.61 108.07C145.01 107.93 142.41 107.74 140.85 107.64C139.28 107.53 137.66 107.45 137.25 107.45L136.5 107.45M104.91 107.9C104.67 107.92 103.25 108.05 101.75 108.18C100.25 108.32 98.06 108.53 96.89 108.67C95.72 108.8 94.76 108.92 94.74 108.94C94.73 108.95 95.15 109.65 95.69 110.48L96.65 112L96.65 145.85C95.14 148.48 94.74 149.29 94.77 149.34C94.81 149.39 96.22 149.28 97.9 149.09C99.58 148.9 102.19 148.65 103.69 148.52C105.19 148.39 106.43 148.27 106.44 148.25C106.45 148.23 106.02 147.56 105.5 146.76L104.55 145.31L104.54 111.27C105.78 109.11 106.22 108.33 106.31 108.15L106.48 107.82C105.59 107.85 105.14 107.87 104.91 107.9ZM159.42 109.57C159.42 109.61 159.83 110.37 160.33 111.27L161.24 112.9L161.24 148.03C160.11 149.58 159.82 150.05 159.87 150.06C159.93 150.07 161.25 150.28 162.82 150.52C164.39 150.76 166.9 151.17 168.41 151.43C169.91 151.69 171.21 151.91 171.29 151.91C171.38 151.91 171.13 151.33 170.72 150.55L169.99 149.19C169.98 138.19 170.03 135.31 170.09 135.38C170.15 135.44 170.37 135.96 170.59 136.53C170.8 137.09 172.16 140.66 173.6 144.46C175.73 150.05 176.24 151.52 176.29 152.15L176.36 152.94C178.81 153.46 181.05 153.97 182.92 154.4C184.79 154.84 186.33 155.16 186.35 155.13C186.36 155.09 185.97 154.41 185.47 153.61L184.56 152.15L184.56 116.96C185.79 115.18 186.13 114.65 186.11 114.64C186.09 114.63 185.25 114.42 184.25 114.18C183.25 113.94 181.23 113.48 179.76 113.15C178.29 112.83 176.41 112.42 175.57 112.24C174.74 112.06 173.99 111.93 173.92 111.95C173.84 111.98 174.25 112.83 174.86 113.93L175.94 115.87C175.94 128.11 175.91 129.05 175.77 128.89C175.68 128.79 175.31 127.98 174.96 127.08C174.61 126.18 173.04 122.2 171.48 118.23C169.91 114.27 168.6 111 168.57 110.97C168.53 110.93 168.14 110.84 167.7 110.76C167.25 110.68 165.26 110.37 163.28 110.06C161.29 109.76 159.61 109.51 159.54 109.51C159.48 109.51 159.42 109.54 159.42 109.57Z" />
		<path class="shp3" d="M120.05 110.11L111.1 110.3L111.1 110.97L119.72 110.78L119.72 144.16L120.33 144.16L120.39 110.78C125.75 110.67 127.76 110.63 128.31 110.62L129.31 110.6C129.26 110.1 129.19 109.95 129.13 109.94C129.06 109.92 124.98 110 120.05 110.11Z" />
		<path class="shp0" d="M81.35 110.86C79.85 111.12 76.87 111.68 74.73 112.11C72.6 112.54 69.89 113.11 68.72 113.38C67.55 113.65 66.58 113.9 66.57 113.93C66.55 113.97 66.89 114.61 67.32 115.36L68.11 116.72L68.11 151C66.7 153.63 66.3 154.41 66.32 154.42C66.34 154.44 67.8 154.13 69.57 153.73C71.34 153.34 73.95 152.79 75.37 152.5C76.79 152.21 77.96 151.94 77.96 151.91C77.96 151.88 77.63 151.25 77.22 150.52L76.48 149.19L76.55 141.2C77.87 140.96 79.51 140.67 81.05 140.4C82.58 140.13 83.98 139.88 84.14 139.85C84.34 139.82 84.87 139.32 85.66 138.43C86.33 137.69 87.84 135.99 89.03 134.68L91.19 132.29L91.19 115.99C85.23 110.68 84.83 110.36 84.48 110.37C84.26 110.38 82.85 110.6 81.35 110.86Z" />
		<path class="shp3" d="M144.13 111.42C144.07 111.67 142.12 119.1 139.82 127.93C137.51 136.75 135.59 144.07 135.56 144.19C135.52 144.35 135.58 144.4 135.84 144.4L136.17 144.41C137.82 137.97 138.33 136.08 138.37 136.04C138.4 136.01 141.26 136.25 144.71 136.58C148.16 136.91 151 137.18 151.01 137.18C151.03 137.19 151.56 139.13 152.2 141.49C152.84 143.86 153.38 145.81 153.39 145.83C153.4 145.85 153.55 145.85 153.73 145.83L154.04 145.79C146.65 118.8 144.44 110.97 144.38 110.97C144.31 110.97 144.2 111.17 144.13 111.42ZM100.29 128.23C100.29 139.58 100.33 145.37 100.41 145.37C100.48 145.37 100.62 145.34 100.72 145.31C100.88 145.26 100.9 143.24 100.9 128.17L100.9 111.09L100.29 111.09M164.89 115.75C164.89 117.08 164.97 124.09 165.07 131.32C165.17 138.55 165.25 145.13 165.25 145.95C165.25 147.39 165.26 147.43 165.52 147.49C165.67 147.52 165.83 147.5 165.88 147.46C165.92 147.41 165.88 141.86 165.79 135.13C165.7 128.4 165.62 121.51 165.62 119.81C165.61 118.1 165.66 116.77 165.71 116.84C165.77 116.91 169.16 124.4 173.26 133.5C177.35 142.59 180.74 150.09 180.81 150.15C180.87 150.23 180.92 149.07 180.91 147.19C180.91 145.49 180.83 137.83 180.73 130.17C180.63 122.5 180.55 116.22 180.55 116.21C180.55 116.19 180.4 116.15 180.21 116.13L179.88 116.08C180.02 127.47 180.1 134.4 180.14 138.83C180.19 144.14 180.17 146.84 180.1 146.76C180.03 146.7 176.63 139.2 172.54 130.11C168.44 121.01 165.05 113.52 164.99 113.45C164.93 113.38 164.88 114.33 164.89 115.75ZM77.16 114.53L72.08 115.51C72.11 143.93 72.16 149.73 72.24 149.73C72.31 149.73 72.45 149.7 72.55 149.67C72.71 149.62 72.73 148.87 72.73 143.92C72.73 140.78 72.77 138.22 72.82 138.22C72.87 138.22 75.04 137.81 77.65 137.3C80.25 136.8 82.51 136.35 82.68 136.31C82.85 136.26 83.76 135.32 84.89 134.01L86.81 131.8C86.81 120.58 86.77 117.27 86.72 117.2C86.67 117.13 85.73 116.35 84.63 115.46C83.53 114.57 82.54 113.77 82.43 113.69C82.28 113.58 81.24 113.74 77.16 114.53Z" />
		<path class="shp0" d="M141.41 124.38C139.83 130.36 138.57 135.28 138.61 135.32C138.65 135.35 141.4 135.63 144.71 135.94C148.03 136.24 150.77 136.47 150.8 136.45C150.83 136.42 149.43 131.25 147.68 124.95C145.93 118.66 144.45 113.51 144.39 113.51C144.33 113.51 142.99 118.4 141.41 124.38ZM77.82 115.08C75.52 115.53 73.44 115.93 73.18 115.98L72.73 116.05C72.73 136.22 72.75 137.5 72.91 137.5C73.01 137.5 75.1 137.11 77.56 136.64C80.01 136.17 82.15 135.75 82.32 135.7C82.49 135.65 83.32 134.81 84.35 133.62L86.09 131.62L86.07 117.45C83.14 115.1 82.22 114.38 82.14 114.34C82.06 114.3 80.11 114.63 77.82 115.08ZM189.05 115.54C189.05 115.59 189.4 116.49 189.84 117.54L190.63 119.45L190.62 153.43C189.4 155.35 189.06 155.93 189.08 155.96C189.1 155.98 189.76 156.18 190.57 156.39C191.37 156.6 193.25 157.13 194.75 157.56C196.26 157.99 198.61 158.7 199.98 159.12C201.34 159.55 203.91 160.39 205.68 160.98C207.45 161.58 209.45 162.26 210.11 162.5C210.78 162.74 211.37 162.94 211.42 162.94C211.47 162.94 211.51 160.89 211.51 158.39C211.51 154.15 211.5 153.85 211.3 153.85C211.18 153.85 210.43 153.97 209.63 154.11L208.17 154.37C202.15 152.39 200.06 151.72 199.64 151.59L198.88 151.37C198.88 143.22 198.92 142.22 199.03 142.22C199.12 142.22 200.25 142.56 201.55 142.98L203.91 143.73C205.9 145.5 206.68 146.21 206.93 146.45L207.39 146.88L207.38 135.86C206.02 136 205.27 136.08 204.83 136.12C204.09 136.19 203.88 136.15 201.4 135.36L198.76 134.53C198.76 126.6 198.79 125.62 198.91 125.62C199 125.62 200.95 126.23 203.24 126.98L207.42 128.35C209.04 130.13 209.77 130.95 210.08 131.32L210.66 131.98L210.67 122.05C202.71 119.38 199.12 118.23 197.55 117.76C195.98 117.3 193.49 116.58 192.02 116.18C190.55 115.78 189.28 115.45 189.2 115.45C189.12 115.45 189.05 115.49 189.05 115.54ZM55.73 116.66C55.56 116.72 53.95 117.2 52.15 117.73C50.35 118.27 47.83 119.04 46.56 119.45C45.3 119.86 44.2 120.24 44.14 120.3C44.06 120.37 44.31 120.87 44.83 121.68L45.65 122.96C43.12 136.43 41.56 144.81 40.55 150.28L38.72 160.21L37.52 162.03C37.52 155.71 37.47 154.1 37.41 154.12C37.35 154.14 36.61 154.75 35.77 155.49L34.24 156.82C28.26 159.23 26.42 159.96 26.29 159.99C26.14 160.03 25.72 159.89 25.22 159.62L24.41 159.18L24.41 137.62C26.18 135.03 26.51 134.64 26.83 134.5C27.07 134.4 28.95 133.64 31.02 132.81L34.79 131.29C36.82 131.55 37.44 131.59 37.47 131.56C37.5 131.53 37.52 129.5 37.52 127.05C37.52 124.6 37.49 122.6 37.46 122.6C37.42 122.6 36.4 122.97 35.18 123.43C33.96 123.89 31.6 124.81 29.93 125.48C28.26 126.15 25.9 127.13 24.69 127.65L22.48 128.59C21.31 130.19 19.91 132.03 18.62 133.71L16.27 136.77L16.27 165.18C17.73 166 19.23 166.86 20.55 167.62L22.95 168.99C27.61 167.04 29.94 166.08 31.14 165.6C32.35 165.12 34.34 164.35 35.58 163.88C36.81 163.41 38.94 162.64 40.31 162.15C41.68 161.67 43.99 160.88 45.44 160.41C46.89 159.93 48.08 159.5 48.08 159.45C48.08 159.4 47.82 158.95 47.51 158.45L46.95 157.54C47.74 152.94 48.01 151.51 48.06 151.38C48.1 151.26 48.36 151.09 48.63 151C48.9 150.92 50.4 150.46 51.97 149.99C53.54 149.52 54.85 149.16 54.88 149.2C54.91 149.24 55.19 150.5 55.49 152L56.03 154.73C54.48 156.91 54.03 157.59 54.03 157.64C54.03 157.69 54.51 157.59 55.09 157.42C55.68 157.25 57.06 156.87 58.16 156.56C59.26 156.26 61.45 155.68 63.02 155.29C64.59 154.89 65.88 154.55 65.89 154.54C65.89 154.53 65.51 153.97 65.04 153.3L64.17 152.09C56.84 118.13 56.48 116.54 56.27 116.55C56.14 116.55 55.9 116.6 55.73 116.66Z" />
		<path class="shp1" d="M80.74 118.67C80.64 118.69 79.64 118.88 78.51 119.09L76.46 119.47C76.49 130.44 76.53 133.62 76.58 133.62C76.63 133.62 77.5 133.47 78.5 133.29L80.32 132.95L82.56 130.59L82.57 120.11C81.39 118.94 81.02 118.61 80.99 118.61C80.95 118.62 80.84 118.64 80.74 118.67Z" />
		<path class="shp3" d="M194.32 136.89L194.33 154L207.69 158.3C207.74 157.81 207.71 157.64 207.64 157.61C207.57 157.57 204.7 156.65 201.26 155.55L195 153.55C195 141.01 195.04 137.38 195.09 137.38C195.14 137.38 196.94 137.9 199.1 138.53C201.25 139.16 203.04 139.68 203.07 139.68C203.11 139.68 203.12 139.53 203.1 139.34C203.07 139.02 203.02 138.99 199.92 138.08C198.18 137.57 196.36 137.04 195.88 136.9L195 136.65C195 124.35 195.04 120.78 195.09 120.78C195.14 120.78 197.8 121.62 201.01 122.64C204.21 123.67 206.96 124.54 207.11 124.58C207.34 124.64 207.38 124.61 207.38 124.35C207.38 124.15 207.29 124.01 207.11 123.93C206.96 123.87 204.08 122.93 200.7 121.86C197.33 120.78 194.51 119.87 194.44 119.84C194.34 119.8 194.31 124.52 194.32 136.89ZM50.39 121.9C50.32 122.25 48.62 130.33 46.62 139.86C44.62 149.39 42.95 157.36 42.89 157.58L42.8 157.98L43.53 157.73C44.94 150.86 45.38 148.82 45.41 148.76C45.44 148.71 48.23 147.79 51.6 146.72C54.98 145.65 57.75 144.79 57.76 144.8C57.78 144.81 58.33 146.57 58.99 148.7C60.15 152.42 60.21 152.58 60.48 152.54C60.64 152.51 60.79 152.49 60.81 152.48C60.82 152.46 58.65 145.7 55.97 137.44C53.3 129.17 51.03 122.15 50.93 121.84C50.83 121.52 50.7 121.26 50.64 121.26C50.58 121.26 50.47 121.55 50.39 121.9Z" />
		<path class="shp1" d="M143.16 127.11C142.61 129.86 142.14 132.16 142.14 132.22C142.13 132.29 143.08 132.41 144.31 132.5C145.51 132.58 146.51 132.64 146.52 132.62C146.54 132.6 146.07 130.26 145.46 127.41C144.86 124.56 144.37 122.2 144.37 122.17C144.37 122.14 144.32 122.11 144.27 122.11C144.22 122.11 143.72 124.36 143.16 127.11Z" />
		<path class="shp0" d="M48.12 135.83C46.71 142.44 45.56 147.87 45.57 147.89C45.58 147.91 48.27 147.07 51.54 146.04C54.81 145 57.51 144.14 57.52 144.12C57.54 144.11 56.06 139.57 54.22 134.04C52.38 128.51 50.88 123.95 50.88 123.9C50.88 123.85 50.83 123.81 50.78 123.81C50.72 123.81 49.52 129.22 48.12 135.83ZM217.27 127.7C215.67 128.77 214.19 129.78 213.97 129.94L213.57 130.23L213.58 139.13C217.22 144.2 218.76 146.35 219.34 147.19C219.93 148.02 221.47 150.23 222.77 152.09L225.12 155.49L225.05 159.34L223.53 160.27C219.44 158.61 218 158.03 217.7 157.92C217.36 157.8 216.53 157.2 215.46 156.29C214.52 155.49 213.72 154.87 213.67 154.89C213.62 154.92 213.57 156.9 213.57 159.3L213.57 163.66C214.19 163.94 215.81 164.59 217.58 165.28C219.35 165.98 222.15 167.12 223.8 167.83L226.81 169.11C230.62 166.89 232.07 166.06 232.48 165.83L233.24 165.42L233.25 155.61C228.57 148.66 226.02 144.92 224.58 142.83L221.95 139.01L221.95 135.74C223.17 134.85 223.57 134.59 223.62 134.59C223.67 134.58 224.7 135.01 225.9 135.54C227.1 136.06 228.54 136.7 229.11 136.96L230.13 137.44C232.45 140.3 233.15 141.13 233.18 141.13C233.22 141.13 233.24 138.94 233.24 136.25L233.24 131.38C231.22 130.46 229.54 129.7 228.21 129.11C226.87 128.51 224.55 127.51 223.05 126.88C221.54 126.25 220.28 125.74 220.25 125.74C220.21 125.74 218.87 126.62 217.27 127.7Z" />
		<path class="shp3" d="M29.36 128.93L24.41 131.01L19.79 137.25L19.8 162.15L24.28 165.24C32.42 161.9 34.85 160.89 34.94 160.85C35.02 160.8 35.09 160.62 35.09 160.45C35.09 160.29 35.06 160.15 35.03 160.15C35 160.15 32.61 161.11 29.72 162.29C26.83 163.47 24.41 164.43 24.34 164.43C24.28 164.43 23.39 163.83 22.37 163.11L20.52 161.78L20.52 137.37L24.9 131.5C30.68 129.1 32.89 128.19 33.54 127.92C34.59 127.49 34.73 127.41 34.73 127.14C34.73 126.93 34.66 126.84 34.51 126.85C34.4 126.85 32.08 127.79 29.36 128.93ZM219.11 130.76L216.98 132.1L216.98 138.28L228.63 156.15L228.63 162.39C226.33 164.08 225.62 164.58 225.57 164.6C225.52 164.62 223.51 163.81 221.1 162.81C218.7 161.81 216.7 161 216.67 161C216.64 161 216.61 161.15 216.61 161.33C216.61 161.65 216.75 161.72 220.95 163.47C223.34 164.47 225.39 165.29 225.51 165.29C225.63 165.29 226.54 164.73 227.54 164.03L229.35 162.75L229.36 156.03L217.58 137.98C217.58 134.37 217.62 133.11 217.67 132.85C217.76 132.41 217.85 132.33 219.49 131.31C220.45 130.71 221.28 130.23 221.35 130.23C221.41 130.23 223.34 131.05 225.63 132.06C227.91 133.07 229.96 133.97 230.18 134.06L230.57 134.22C230.51 133.48 230.46 133.46 226.26 131.6C223.93 130.57 221.84 129.66 221.63 129.57C221.25 129.41 221.21 129.43 219.11 130.76Z" />
		<path class="shp1" d="M50.39 137.67C49.82 140.7 49.38 143.21 49.42 143.25C49.45 143.29 50.41 143.05 51.54 142.71C52.68 142.37 53.63 142.07 53.67 142.03C53.7 142 53.25 139.8 52.66 137.16C52.08 134.51 51.6 132.31 51.6 132.26C51.6 132.21 51.56 132.17 51.51 132.17C51.46 132.17 50.95 134.64 50.39 137.67Z" />
		<path class="shp0" d="M154.9 160.1C154.25 160.53 153.73 160.92 153.75 160.97C153.77 161.02 153.86 161.21 153.96 161.39C154.06 161.58 154.19 161.73 154.26 161.73C154.33 161.73 154.98 161.47 155.72 161.16C156.45 160.85 157.08 160.57 157.12 160.55C157.15 160.53 156.98 160.24 156.75 159.91C156.52 159.57 156.27 159.31 156.2 159.31C156.14 159.32 155.55 159.67 154.9 160.1ZM117.41 162.91C117.41 164.09 117.45 166.55 117.5 168.37L117.59 171.68C121.02 171.6 121.16 171.58 121.61 171.29C121.9 171.1 122.2 170.75 122.39 170.38C122.69 169.78 122.69 169.77 122.68 166.51C122.67 164.37 122.61 162.99 122.51 162.51C122.4 161.99 122.25 161.68 121.98 161.41C121.77 161.2 121.38 160.97 121.11 160.89C120.85 160.82 119.9 160.76 119.02 160.76L117.41 160.75M126.72 162.6C126.68 163.62 126.62 166.07 126.58 168.05L126.52 171.66C131 171.66 131.38 171.63 131.44 171.48C131.47 171.38 131.5 171.02 131.5 170.69L131.5 170.08C130.04 170.08 129.33 170.04 128.97 169.99L128.34 169.9L128.34 166.93L131.07 166.98L131.13 165.36C129.67 165.36 129.07 165.32 128.85 165.27L128.45 165.18L128.46 162.45L131.62 162.45L131.56 160.82L126.79 160.75M140.84 161.27C140.84 161.35 140.71 163.6 140.54 166.27C140.37 168.93 140.24 171.32 140.24 171.57L140.24 172.02C141.5 172.07 141.87 172.03 141.89 171.96C141.91 171.89 142.01 170.56 142.11 168.99C142.21 167.43 142.32 166.12 142.35 166.09C142.38 166.05 142.5 166.35 142.61 166.75C142.72 167.15 142.98 168.01 143.19 168.67L143.58 169.86L144.65 169.78C145.74 167.34 146.1 166.62 146.15 166.6C146.21 166.59 146.23 166.8 146.22 167.09C146.2 167.37 146.13 168.47 146.07 169.54C146 170.6 145.94 171.68 145.94 171.93L145.94 172.38L147.58 172.39C147.72 171.21 147.88 168.82 148.03 166.31C148.19 163.8 148.27 161.7 148.21 161.64C148.15 161.59 147.79 161.53 147.39 161.51L146.67 161.48C145.67 163.59 145.14 164.76 144.84 165.45C144.55 166.13 144.27 166.64 144.23 166.6C144.18 166.55 144 166.02 143.82 165.42C143.64 164.82 143.28 163.65 143.02 162.81L142.54 161.3C141.84 161.16 141.46 161.12 141.24 161.12C141 161.12 140.84 161.18 140.84 161.27ZM103.11 161.44L102.36 161.48C102.36 162.19 102.5 164.63 102.67 167.36C102.84 170.09 102.99 172.34 103 172.36C103.01 172.38 103.73 172.34 104.6 172.29C105.81 172.21 106.31 172.12 106.73 171.92C107.03 171.78 107.39 171.48 107.54 171.27C107.69 171.05 107.87 170.54 107.95 170.14C108.05 169.58 108.04 168.77 107.89 166.6C107.78 165.05 107.64 163.52 107.58 163.21C107.51 162.89 107.33 162.44 107.18 162.21C107.03 161.98 106.71 161.69 106.48 161.57C106.16 161.41 105.8 161.37 104.97 161.38C104.36 161.4 103.53 161.42 103.11 161.44ZM95.56 162.06C95.19 162.08 94.85 162.14 94.8 162.19C94.76 162.23 94.47 164.56 94.17 167.36C93.86 170.16 93.61 172.61 93.61 172.81L93.61 173.17C94.79 173.1 95.17 173.05 95.22 173.01C95.27 172.96 95.35 172.45 95.4 171.85C95.45 171.26 95.55 170.76 95.62 170.74C95.68 170.72 96.12 170.68 96.59 170.64L97.44 170.57L98.05 172.69C99.36 172.64 99.76 172.61 99.77 172.59C99.79 172.58 99.09 170.19 98.22 167.3C97.36 164.4 96.65 162.01 96.65 162C96.65 161.98 96.55 161.98 96.44 161.99C96.32 162 95.92 162.03 95.56 162.06ZM152.35 162.59C152.3 162.94 152.07 165.36 151.83 167.96C151.59 170.56 151.41 172.7 151.43 172.72C151.45 172.74 152.53 172.86 153.84 172.98C155.14 173.11 156.21 173.21 156.22 173.19C156.23 173.18 156.27 172.83 156.31 172.41C156.37 171.86 156.35 171.64 156.23 171.6C156.15 171.57 155.45 171.49 154.69 171.41C153.92 171.34 153.28 171.27 153.28 171.26C153.27 171.24 153.32 170.6 153.4 169.82C153.47 169.04 153.56 168.37 153.59 168.33C153.63 168.29 154.23 168.31 154.93 168.38C155.63 168.44 156.22 168.48 156.23 168.47C156.25 168.46 156.3 168.09 156.35 167.64L156.45 166.84C154.85 166.71 154.23 166.65 154.05 166.62C153.73 166.57 153.72 166.55 153.77 165.93C153.8 165.58 153.86 164.94 153.9 164.51L153.98 163.72C156.36 163.95 157.06 164 157.07 163.99C157.08 163.98 157.13 163.61 157.18 163.18L157.26 162.39C154.75 162.15 153.66 162.05 153.23 162.01L152.44 161.93" />
		<path class="shp1" d="M119.15 164.12C119.2 165.03 119.23 166.76 119.23 167.96L119.23 170.14C120.22 170 120.6 169.87 120.72 169.75C120.92 169.56 120.94 169.25 120.94 166.42C120.93 164.63 120.88 163.17 120.81 163C120.74 162.83 120.58 162.64 120.45 162.57C120.31 162.51 119.95 162.45 119.64 162.45L119.07 162.45" />
		<path class="shp0" d="M160.35 162.95C160.39 163.11 160.71 164.33 161.06 165.66L161.69 168.08C158.92 173.26 158.85 173.42 159.1 173.49C159.24 173.52 159.66 173.59 160.03 173.64L160.7 173.72C161.92 171.16 162.3 170.4 162.34 170.38C162.37 170.36 162.55 171.11 162.75 172.06C162.94 173 163.16 173.84 163.23 173.92C163.31 173.99 163.75 174.09 164.22 174.14L165.07 174.21L163.52 168.33C166.02 163.84 166.19 163.47 166.01 163.41C165.89 163.37 165.47 163.3 165.07 163.25L164.34 163.17C163.32 165.38 162.99 166.07 162.95 166.11C162.91 166.16 162.78 165.73 162.66 165.15C162.54 164.56 162.39 163.83 162.33 163.51C162.23 163.01 162.17 162.93 161.88 162.88C161.7 162.85 161.26 162.79 160.91 162.75C160.29 162.67 160.28 162.67 160.35 162.95ZM85.42 163.14C84.62 163.24 83.95 163.33 83.93 163.34C83.91 163.35 84.17 165.68 84.51 168.51C84.85 171.34 85.15 173.77 85.17 173.9C85.23 174.13 85.26 174.14 86.6 173.99C87.35 173.9 88.17 173.78 88.42 173.71C88.67 173.65 89.07 173.42 89.31 173.2C89.62 172.92 89.8 172.61 89.94 172.14C90.07 171.66 90.1 171.24 90.04 170.63C89.99 170.16 89.85 168.88 89.71 167.78C89.58 166.68 89.42 165.51 89.35 165.18C89.29 164.84 89.12 164.33 88.97 164.03C88.82 163.73 88.53 163.39 88.33 163.28C88.13 163.17 87.72 163.05 87.42 163.02C87.12 162.99 86.22 163.04 85.42 163.14Z" />
		<path class="shp1" d="M104.17 163.27C104.17 163.39 104.26 164.93 104.36 166.69C104.47 168.46 104.58 170.06 104.61 170.26C104.66 170.63 104.67 170.63 105.3 170.55C105.72 170.5 105.99 170.4 106.09 170.25C106.19 170.1 106.24 169.63 106.24 168.93C106.23 168.33 106.16 166.88 106.08 165.7C105.96 163.86 105.9 163.53 105.69 163.31C105.5 163.11 105.31 163.05 104.81 163.05C104.29 163.06 104.18 163.09 104.17 163.27Z" />
		<path class="shp0" d="M78.89 164.04C78.35 164.12 78.19 164.19 78.19 164.36C78.19 164.48 78.47 166.4 78.81 168.63C79.3 171.86 79.4 172.76 79.3 173.02C79.22 173.2 79.01 173.41 78.83 173.48C78.65 173.55 78.37 173.58 78.22 173.54C78.07 173.51 77.87 173.35 77.78 173.2C77.68 173.05 77.33 171.12 76.97 168.75C76.63 166.45 76.34 164.55 76.33 164.53C76.32 164.51 75.97 164.53 75.55 164.56C75.12 164.6 74.76 164.7 74.72 164.78C74.68 164.87 74.93 166.79 75.27 169.05C75.61 171.32 75.95 173.36 76.02 173.6C76.1 173.83 76.27 174.17 76.39 174.35C76.51 174.54 76.83 174.8 77.1 174.93C77.41 175.08 77.83 175.17 78.28 175.17C78.67 175.17 79.23 175.09 79.53 174.99C79.83 174.88 80.23 174.65 80.42 174.47C80.62 174.29 80.85 173.96 80.94 173.75C81.03 173.53 81.11 173.07 81.11 172.72C81.11 172.37 80.83 170.28 80.5 168.08C80.17 165.89 79.89 164.05 79.89 164C79.89 163.95 79.82 163.91 79.74 163.92C79.66 163.93 79.28 163.98 78.89 164.04ZM169.82 164.05C169.78 164.13 169.42 166.55 169.01 169.42C168.6 172.28 168.29 174.64 168.31 174.65C168.33 174.67 168.7 174.74 169.14 174.81C169.57 174.88 169.94 174.92 169.95 174.9C169.96 174.88 170.3 172.63 170.71 169.9C171.11 167.17 171.46 164.76 171.5 164.54C171.56 164.16 171.55 164.15 171.05 164.08C170.76 164.04 170.39 163.98 170.21 163.95C170 163.91 169.86 163.94 169.82 164.05Z" />
		<path class="shp1" d="M86.18 164.71C85.99 164.73 85.84 164.82 85.84 164.9C85.84 164.99 86.03 166.61 86.27 168.51C86.5 170.41 86.69 172.03 86.69 172.11C86.69 172.2 86.86 172.26 87.12 172.26C87.35 172.26 87.68 172.2 87.85 172.11C88.02 172.03 88.2 171.82 88.26 171.66C88.34 171.45 88.26 170.38 88.02 168.39C87.82 166.75 87.61 165.3 87.54 165.15C87.48 165 87.28 164.82 87.12 164.75C86.95 164.69 86.75 164.64 86.66 164.65C86.58 164.66 86.36 164.69 86.18 164.71ZM95.87 165.36C95.84 165.59 95.77 166.54 95.71 167.46L95.62 169.13C96.65 169.01 96.97 168.96 96.99 168.95C97.01 168.94 96.8 168.06 96.52 166.99C96.25 165.93 96 165.03 95.97 164.99C95.95 164.96 95.9 165.12 95.87 165.36Z" />
		<path class="shp0" d="M176.94 165.13C176.6 165.2 176.26 165.39 175.96 165.69C175.69 165.96 175.41 166.39 175.29 166.75C175.18 167.08 174.87 168.64 174.6 170.2C174.33 171.77 174.11 173.35 174.12 173.72C174.12 174.18 174.2 174.53 174.39 174.87C174.59 175.23 174.84 175.44 175.39 175.71C175.95 175.98 176.29 176.06 176.85 176.06C177.25 176.06 177.71 175.99 177.88 175.9C178.04 175.82 178.36 175.58 178.58 175.37C178.81 175.15 179.05 174.74 179.16 174.38C179.27 174.05 179.34 173.78 179.31 173.77C179.29 173.77 178.91 173.66 178.47 173.53L177.66 173.29C177.55 173.81 177.4 174.07 177.27 174.2C177.14 174.33 176.88 174.45 176.69 174.45C176.5 174.45 176.24 174.33 176.09 174.17C175.93 174.01 175.82 173.75 175.82 173.54C175.82 173.34 176.06 171.86 176.34 170.25C176.79 167.67 176.88 167.28 177.15 167C177.32 166.83 177.58 166.69 177.73 166.69C177.88 166.69 178.14 166.83 178.3 166.99C178.51 167.2 178.61 167.43 178.61 167.72L178.61 168.14C179.69 168.14 180.08 168.1 180.16 168.05C180.27 168 180.32 167.75 180.32 167.39C180.31 167.07 180.23 166.63 180.15 166.42C180.06 166.2 179.8 165.88 179.57 165.71C179.34 165.53 178.96 165.33 178.73 165.26C178.49 165.19 178.11 165.11 177.88 165.08C177.64 165.05 177.22 165.07 176.94 165.13ZM69.63 165.52C69.02 165.64 68.91 165.7 68.92 165.91C68.93 166.04 69.34 168.44 69.82 171.23C70.31 174.03 70.71 176.34 70.72 176.36C70.72 176.38 71.11 176.32 71.58 176.24C72.38 176.09 72.42 176.06 72.39 175.78C72.36 175.61 71.97 173.32 71.51 170.69C71.05 168.06 70.64 165.78 70.61 165.63C70.57 165.48 70.5 165.36 70.45 165.37C70.4 165.38 70.03 165.45 69.63 165.52ZM62.17 166.87C61.87 166.96 61.43 167.22 61.19 167.45C60.96 167.67 60.7 168.07 60.62 168.33C60.54 168.59 60.47 169.03 60.47 169.3C60.47 169.56 60.73 171.12 61.06 172.75C61.4 174.38 61.73 175.91 61.81 176.14C61.89 176.37 62.05 176.7 62.17 176.87C62.28 177.03 62.61 177.29 62.91 177.44C63.2 177.59 63.66 177.71 63.93 177.71C64.19 177.72 64.71 177.63 65.08 177.52C65.52 177.39 65.9 177.17 66.19 176.88C66.5 176.56 66.66 176.27 66.76 175.81C66.84 175.46 66.86 175.01 66.81 174.8C66.75 174.55 66.65 174.44 66.48 174.44C66.34 174.44 65.97 174.48 65.66 174.53C65.08 174.62 65.08 174.63 65.08 175.08C65.08 175.37 64.99 175.62 64.84 175.78C64.69 175.93 64.43 176.02 64.17 176.02C63.86 176.02 63.69 175.94 63.57 175.75C63.47 175.6 63.11 174.15 62.78 172.54C62.44 170.92 62.16 169.48 62.16 169.33C62.16 169.18 62.27 168.9 62.4 168.72C62.59 168.47 62.75 168.39 63.08 168.39C63.4 168.39 63.56 168.47 63.75 168.72C63.88 168.9 63.99 169.15 63.99 169.26C63.99 169.38 64.06 169.45 64.14 169.43C64.22 169.4 64.58 169.25 64.93 169.09C65.36 168.91 65.57 168.74 65.57 168.6C65.57 168.48 65.46 168.18 65.34 167.93C65.21 167.68 65 167.39 64.88 167.27C64.76 167.16 64.45 166.98 64.2 166.88C63.95 166.78 63.51 166.69 63.23 166.7C62.94 166.7 62.47 166.78 62.17 166.87ZM185.17 166.86C184.93 166.95 184.6 167.2 184.43 167.43C184.26 167.66 184.05 168.03 183.97 168.27C183.89 168.5 183.56 170.05 183.22 171.72C182.89 173.38 182.61 174.99 182.61 175.29C182.62 175.59 182.72 176.07 182.86 176.35C183.02 176.71 183.26 176.96 183.61 177.16C183.9 177.32 184.43 177.51 184.8 177.58C185.17 177.66 185.66 177.68 185.89 177.64C186.12 177.6 186.47 177.49 186.65 177.4C186.83 177.3 187.11 177.05 187.27 176.84C187.42 176.62 187.62 176.28 187.69 176.08C187.77 175.88 188.11 174.35 188.44 172.69C188.78 171.02 189.05 169.4 189.05 169.08C189.05 168.77 188.97 168.33 188.88 168.11C188.79 167.9 188.56 167.58 188.36 167.4C188.17 167.22 187.76 166.99 187.44 166.88C187.12 166.78 186.58 166.69 186.23 166.7C185.87 166.7 185.4 166.77 185.17 166.86Z" />
		<path class="shp2" d="M51.24 168.09C49.94 168.46 47.53 169.17 45.9 169.68C44.26 170.18 41.72 171 40.25 171.5C38.78 172 36.4 172.85 34.97 173.38C33.53 173.91 31.27 174.78 29.93 175.32C28.59 175.85 26.38 176.76 25.01 177.35C23.64 177.93 21.51 178.88 20.28 179.45C19.04 180.01 17.36 180.81 16.54 181.22L15.06 181.95L17.24 183.53C20.49 182.01 22.41 181.13 23.62 180.6C24.82 180.06 26.65 179.27 27.68 178.84C28.72 178.4 30.71 177.6 32.12 177.05C33.52 176.5 35.76 175.65 37.09 175.17C38.43 174.69 40.4 174 41.46 173.64C42.53 173.28 44.55 172.62 45.96 172.19C47.36 171.75 49.85 171.02 51.48 170.55C53.12 170.09 54.47 169.7 54.48 169.68C54.49 169.67 54.35 169.17 54.16 168.57C53.97 167.97 53.77 167.47 53.71 167.45C53.65 167.44 52.54 167.73 51.24 168.09ZM195.37 168.54C195.17 169.15 195.02 169.67 195.03 169.68C195.05 169.7 196.15 170.01 197.49 170.38C198.82 170.76 201.14 171.44 202.65 171.9C204.15 172.36 206.58 173.14 208.05 173.64C209.52 174.13 211.87 174.96 213.27 175.47C214.67 175.99 217.02 176.89 218.49 177.48C219.96 178.06 221.96 178.88 222.92 179.29C223.89 179.7 225.48 180.4 226.44 180.83C227.41 181.26 229.12 182.05 230.24 182.57L232.27 183.53C233.9 182.36 234.39 181.99 234.41 181.95C234.43 181.92 233.48 181.43 232.3 180.87C231.11 180.31 229.38 179.5 228.45 179.08C227.51 178.65 225.68 177.85 224.38 177.29C223.08 176.74 221.14 175.93 220.07 175.49C219 175.06 216.73 174.19 215.03 173.56C213.33 172.92 210.62 171.96 209.02 171.42C207.42 170.88 204.88 170.06 203.38 169.6C201.87 169.14 199.58 168.46 198.28 168.09C196.97 167.72 195.87 167.42 195.83 167.42C195.78 167.42 195.58 167.92 195.37 168.54Z" />
		<path class="shp1" d="M186.04 168.42C185.89 168.5 185.69 168.76 185.59 168.99C185.49 169.23 185.16 170.72 184.85 172.32C184.41 174.61 184.32 175.29 184.42 175.5C184.5 175.65 184.68 175.84 184.83 175.91C184.98 175.99 185.25 176.01 185.44 175.97C185.62 175.93 185.85 175.77 185.95 175.62C186.05 175.48 186.4 173.98 186.74 172.29C187.07 170.61 187.32 169.11 187.29 168.96C187.26 168.81 187.16 168.63 187.08 168.55C186.99 168.47 186.79 168.38 186.62 168.34C186.45 168.31 186.19 168.34 186.04 168.42Z" />
		<path class="shp2" d="M53.23 172.59C52.17 172.88 50.02 173.5 48.45 173.96C46.88 174.42 44.23 175.24 42.56 175.78C40.89 176.33 38.24 177.23 36.67 177.8C35.1 178.36 32.53 179.33 30.96 179.95C29.39 180.57 27.43 181.36 26.59 181.71C25.76 182.06 23.78 182.92 22.19 183.63C20.61 184.34 19.33 184.95 19.35 184.98C19.38 185.02 19.87 185.38 20.44 185.8L21.49 186.56C25.3 184.89 27.09 184.12 27.93 183.77C28.76 183.42 30.59 182.68 31.99 182.13C33.4 181.58 35.83 180.67 37.4 180.1C38.97 179.54 41.62 178.63 43.29 178.08C44.96 177.54 47.5 176.75 48.93 176.33C50.37 175.91 52.53 175.3 53.73 174.98C54.93 174.66 55.94 174.38 55.97 174.36C56.01 174.33 55.87 173.82 55.67 173.21C55.47 172.61 55.27 172.1 55.23 172.09C55.2 172.08 54.29 172.3 53.23 172.59ZM194.16 172.3C194.1 172.44 193.94 172.95 193.8 173.41C193.66 173.88 193.54 174.29 193.54 174.32C193.54 174.36 193.85 174.46 194.24 174.55C194.62 174.64 196.66 175.2 198.76 175.8C200.87 176.4 204.61 177.56 207.08 178.38C209.55 179.2 212.69 180.29 214.06 180.8C215.43 181.31 217.94 182.29 219.65 182.98C221.35 183.67 223.93 184.75 225.38 185.39L228.02 186.56C229.71 185.38 230.2 185.02 230.21 184.98C230.21 184.95 229.33 184.52 228.24 184.02C227.15 183.53 225.25 182.69 224.02 182.16C222.78 181.64 220.49 180.7 218.92 180.08C217.35 179.46 214.78 178.49 213.21 177.92C211.64 177.36 208.94 176.43 207.2 175.86C205.46 175.29 203.03 174.52 201.8 174.16C200.56 173.79 198.43 173.18 197.06 172.81C195.69 172.44 194.5 172.11 194.41 172.08C194.33 172.05 194.21 172.15 194.16 172.3ZM54.46 177.3C53.32 177.6 51 178.25 49.3 178.74C47.59 179.24 45.11 179.99 43.77 180.42C42.44 180.85 40.36 181.54 39.16 181.95C37.96 182.36 35.8 183.14 34.36 183.67C32.93 184.21 31.07 184.92 30.23 185.25C29.4 185.58 27.55 186.34 26.14 186.93L23.56 188.01L25.86 189.71C27.6 188.94 29.31 188.24 30.78 187.65C32.25 187.06 34.22 186.3 35.15 185.95C36.09 185.6 38.05 184.89 39.52 184.38C40.99 183.86 43.42 183.06 44.92 182.58C46.43 182.11 49.08 181.31 50.81 180.82C52.55 180.33 54.77 179.71 55.75 179.45C56.73 179.2 57.51 178.93 57.49 178.87C57.47 178.8 57.31 178.29 57.14 177.74C56.96 177.17 56.76 176.75 56.67 176.75C56.59 176.76 55.59 177.01 54.46 177.3ZM192.38 177.83C192.18 178.43 192.05 178.94 192.08 178.98C192.12 179.01 193.07 179.28 194.21 179.58C195.34 179.88 196.98 180.32 197.85 180.56C198.72 180.8 200.52 181.33 201.86 181.73C203.19 182.13 205.76 182.95 207.56 183.55C209.37 184.15 212.43 185.23 214.36 185.95C216.3 186.68 219.2 187.81 220.8 188.47L223.71 189.67C225.44 188.43 225.9 188.04 225.86 188C225.81 187.96 224.79 187.51 223.59 187.01C222.39 186.51 220.56 185.76 219.52 185.34C218.49 184.93 216.28 184.09 214.61 183.47C212.94 182.85 210.18 181.88 208.47 181.31C206.77 180.74 203.93 179.84 202.16 179.31C200.39 178.78 197.59 177.98 195.94 177.54C194.29 177.1 192.89 176.75 192.83 176.75C192.77 176.75 192.57 177.23 192.38 177.83Z" />
	</g>
</svg>