<?xml version="1.0" encoding="UTF-8" standalone="no"?>
<svg xmlns:rdf="http://www.w3.org/1999/02/22-rdf-syntax-ns#" xmlns="http://www.w3.org/2000/svg" height="94.79898" width="116.68" version="1.1" xmlns:cc="http://creativecommons.org/ns#" xmlns:dc="http://purl.org/dc/elements/1.1/" viewBox="0 0 116.68 94.79898"><path d="M61.949,94.799,56.313,79.722,27.622,63.157c-3.271.575-12.868,2.678-12.868,2.678l-7.91-3.469.015-12.669,2.778-.576L6.864,47.223l.017-13.038L0,27.427s11.496-.899,13.077-1.012l-.002-9.633,2.984-3.242s9.955-.964,24.802-1.497L61.721,0l20.83,12.027c8.289.298,24.636,1.478,24.636,1.478l3.027,3.263v9.769c.333.023,2.451.182,2.451.182l4.01,4.352.005,31.808-8.709,3.369s-12.301-2.696-12.707-2.77L67.19,79.686Z" fill="#a0a0a3"/><path d="M115.71151,31.444l-3.494-3.794s-2.338-.17-2.966-.216V17.146l-2.517-2.713c-8.405-.712-16.615-1.172-24.452-1.45L61.7205,1.111,41.1345,12.997c-15.129.536-24.616,1.465-24.616,1.465l-2.481,2.695.003,10.161c-1.877.133-11.858.902-11.858.902l5.662,5.561-.018,12.935,4.252,2.911c-.681.13-4.258.853-4.258.853l-.013,11.257,7.042,3.089s9.609-2.096,12.952-2.678L57.0935,79.06l4.821,12.898,4.483-12.926,28.692-16.566c.526.097,12.812,2.776,12.812,2.776l7.817-3.023Z" fill="#1d1160"/><path d="M61.7209,6.58969l10.61,6.126q1.602.02852,3.235.067l-13.845-7.994-13.87,8.009q1.5885-.039,3.238-.069Z" fill="#a0a0a3"/><path d="M54.5819,16.84058v8.259c.481-.005.96-.011,1.441-.015v-7.612q.816-.009,1.634-.015v7.613q.723-.006,1.446-.009v-8.254q-.318-.31947-.636-.637-1.9455.01048-3.892.035c.002.212.004.423.007.635" fill="#fff"/><path d="M65.4435,19.63339v-2.183q.747.003,1.493.011v.584q.7095.006,1.421.015v-1.859q-2.47049-.02852-4.941-.037.31049.31952.624.637-.0045,1.905-.005,3.812,1.4565.426,2.911.862v2.322c-.497-.004-.993-.009-1.491-.012v-.476c-.474-.003-.947-.006-1.423-.008v.476q0,.642-.001,1.283,2.1645.009,4.326.036v-4.609q-1.4565-.43048-2.914-.854" fill="#fff"/><path d="M30.7948,22.29559c.18-.01.358-.02.537-.03v-4.671q-.315-.291-.629-.581-2.202.12149-4.404.26c.207.2.413.398.622.598v8.257q.7035-.042,1.408-.085v-3.608q.531-.03,1.058-.062.408,1.782.816,3.562c.467-.026.936-.052,1.404-.077q-.405-1.782-.812-3.563m-.871-1.238q-.798.045-1.595.092v-2.725q.798-.04646,1.595-.092Z" fill="#fff"/><path d="M91.9871,25.875c.469.025.939.052,1.407.078V22.346c.354.019.705.04,1.059.06q.408,1.82854.816,3.656.702.04349,1.404.086-.405-1.82849-.811-3.658c.18.011.358.023.537.034q-.00149-2.337-.002-4.673-.3135-.32552-.628-.653-2.20052-.13353-4.403-.25l.621.668Zm3.004-4.724c-.533-.031-1.064-.062-1.597-.092V18.334c.533.03,1.064.061,1.597.093Z" fill="#fff"/><path d="M87.09,17.37427c-.213-.222-.424-.444-.637-.665q-2.208-.0975-4.414-.178c.203.213.405.426.609.64q.0015,3.822.002,7.645c.214.219.427.437.641.657q1.899.072,3.799.159Zm-1.41,6.922q-.8115-.03447-1.624-.067v-6.336q.813.033,1.624.067Z" fill="#fff"/><path d="M105.7238,18.52881q-.318-.34351-.637-.685-2.202-.17253-4.406-.325.30448.33.607.66.003,3.822.005,7.645.3195.339.637.678,1.8975.13651,3.794.286Zm-1.407,6.876c-.54-.041-1.081-.081-1.62-.121v-6.336c.539.04,1.08.081,1.62.121Z" fill="#fff"/><path d="M77.4115,20.76788c.125-.135.249-.271.373-.406q0-1.66653-.001-3.332c-.21-.219-.418-.437-.628-.655q-1.94849-.05251-3.896-.094.0015.32552.006.65v8.245q2.259.045,4.519.108,0-2.07152-.001-4.142c-.125-.125-.248-.25-.372-.374m-2.714-3.174q.819.018,1.639.04v2.493q-.819-.0195-1.639-.04Zm0,3.803q.819.018,1.639.041v2.522q-.819-.021-1.639-.041Z" fill="#fff"/><path d="M40.4734,17.84378v-1.284q-2.42551.09151-4.849.204l.641.62v8.246q2.1045-.096,4.208-.175v-1.276q-1.3695.05251-2.74.11v-2.532q1.371-.06,2.74-.11v-1.286q-1.3695.051-2.74.11v-2.517q1.371-.0585,2.74-.11" fill="#fff"/><path d="M49.6552,17.57169v-1.283q-2.106.045-4.21.106,0,.32547.002.649v8.246q2.103-.06152,4.208-.106v-1.276q-1.3695.02847-2.739.065v-2.532q1.3695-.036,2.739-.065v-1.286q-1.3695.03-2.739.065v-2.517q1.3695-.036,2.739-.066" fill="#fff"/><path d="M20.6378,19.40628q.678-.04948,1.359-.098v-1.11q-.3135-.297-.628-.592-1.587.114-3.17.237-.3165.345-.634.69v4.22q0,1.701.001,3.402.3195.291.638.583.402-.03149.802-.063c.545-.042,1.088-.082,1.632-.121q.678-.051,1.359-.098v-5.09q-.681.04651-1.359.097c-.249.018-.497.037-.746.055v1.287c.219-.016.436-.031.653-.048v2.53c-.503.037-1.008.074-1.511.113v-6.336c.509-.039,1.016-.078,1.524-.115v.463l.08-.006" fill="#fff"/><path d="M15.0511,40.623q.003-3.348.008-6.696,2.364-.21,4.731-.398-.0015.873-.004,1.747,2.2515-.19652,4.503-.373.0045-2.73152.011-5.462-7.833.432-15.658,1.05.99.92853,1.975,1.838-.006,5.98347-.015,11.967,4.5945.62553,9.198,1.258-.0075,3.48-.013,6.96-2.358.396-4.714.838.003-.7305.002-1.461-2.2425.40352-4.484.847v1.495q-.0045,2.01448-.007,4.027,6.8115-1.554,13.659-2.687.015-6.768.03-13.538-4.614-.71548-9.222-1.412" fill="#fff"/><path d="M84.1799,43.6745q.85049.0645,1.705.136-.018-6.585-.035-13.169-1.002-.906-2.002-1.803-6.99-.243-13.986-.339.9855.88051,1.973,1.77v-.003q.0165,11.28452.031,22.568,2.244.111,4.486.268-.0075-4.965-.017-9.931,1.683.08551,3.365.19,1.3065,5.08351,2.616,10.24,2.235.216,4.464.477-1.30051-5.24849-2.6-10.404m-2.78-3.784q-2.535-.1485-5.071-.262-.0075-3.74849-.014-7.497,2.535.07649,5.069.177.00751,3.79047.016,7.582" fill="#fff"/><path d="M112.9408,32.516q-1.00651-1.1055-2.012-2.184-12.009-.909-24.037-1.381.9915.939,1.982,1.89.0285,11.751.057,23.502,2.2875.291,4.573.629-.027-11.00853-.053-22.018,2.589.162,5.176.349.0225,11.247.047,22.494h.002q2.28.39153,4.557.829l.018.004q-.021-11.4825-.043-22.965,2.58149.21,5.159.446.01051,11.784.021,23.568,1.107.24,2.213.49,1.17451.264,2.345.543-.00149-13.098-.005-26.196" fill="#fff"/><path d="M66.789,28.46979q-2.57849-.024-5.158-.029-2.58-.00151-5.159.016-1.00651.873-2.012,1.752-.01051,11.21851-.024,22.44,2.295-.0645,4.588-.084.0015-4.665.002-9.33h.02q2.586-.015,5.174.014h.018q.0015,4.66951.005,9.336,2.2935.036,4.588.119-.01349-11.238-.029-22.475-1.0065-.882-2.013-1.759m-2.553,11.287h-.018q-2.586-.027-5.171-.013h-.02q.00151-3.91054.002-7.821l.019-.001v-.004q1.2915-.003,2.583,0,1.2915.00151,2.584.009v.004h.019q0,3.912.002,7.826" fill="#fff"/><path d="M46.8379,28.58487q-.018,10.446-.035,20.893v.003c-.688.039-1.378.081-2.066.125q-1.554.102-3.108.225v-.005h-.006q.0255-10.55553.05-21.112h-.001q-2.2875.06747-4.574.148l-.018.001q-.021,10.683-.044,21.366h-.005v.004q-1.035.099-2.068.208-1.551.16351-3.098.349v-.006l-.017.002q.027-10.85852.054-21.718-2.2875.099-4.572.213-.027,11.979-.051,23.957,1.0035.783,2.008,1.559l.001.002q11.03251-1.572,22.113-2.04.012-11.262.027-22.523.987-.882,1.975-1.757-3.282.03749-6.565.106" fill="#fff"/><path d="M55.1967,67.207c-6.48-1.406-9.162-4.599-9.162-4.599a17.61654,17.61654,0,0,0,5.791,6.708s2.733-.792,3.371-2.109" fill="#00788c"/><path d="M51.2298,60.28577c-.454-.447-.921-.909-1.381-1.387a11.519,11.519,0,0,0-3.867,2.066c1.437,1.366,4.169,3.181,9.078,4.203-.594-1.684-2.119-3.192-3.83-4.882" fill="#00788c"/><path d="M66.0563,76.605c.535-1.006,1.156-2.025,1.745-2.925a11.81582,11.81582,0,0,1-3.471-.121,22.14078,22.14078,0,0,0,5.391-2.658.0049.0049,0,0,0,.005-.005c-.222-.094-.456-.198-.688-.316l-.008-.004a7.13926,7.13926,0,0,1-1.932-1.36,3.58882,3.58882,0,0,1-1.104-2.552c0-3.221,2.166-4.307,4.599-6.709.489-.48,1.013-.977,1.547-1.501a38.8639,38.8639,0,0,0-9.353-1.141l-1.061,13.653-1.068-13.653a38.89946,38.89946,0,0,0-9.356,1.141c.536.524,1.06,1.021,1.549,1.501,2.434,2.402,4.6,3.488,4.6,6.709a3.60516,3.60516,0,0,1-1.104,2.552,7.14908,7.14908,0,0,1-1.934,1.36l-.007.004c-.233.118-.463.222-.688.316,0,0,0,.005.004.005a22.1942,22.1942,0,0,0,5.392,2.658,11.81582,11.81582,0,0,1-3.471.121c.59.901,1.21,1.92,1.747,2.927a9.26248,9.26248,0,0,1,8.666-.002" fill="#00788c"/><path d="M68.2469,67.207c.638,1.32,3.371,2.109,3.371,2.109a17.6376,17.6376,0,0,0,5.793-6.708s-2.683,3.193-9.164,4.599" fill="#00788c"/><path d="M68.3852,65.16809c4.907-1.022,7.641-2.837,9.074-4.203a11.43038,11.43038,0,0,0-3.864-2.066c-.459.478-.926.94-1.379,1.387-1.712,1.689-3.235,3.197-3.831,4.882" fill="#00788c"/><path d="M61.7328,77.66608a5.00693,5.00693,0,0,0-2.34.579l1.103,3.927,1.332,4.741,1.251-4.797,1.013-3.887a.09294.09294,0,0,0-.011.019,5.01724,5.01724,0,0,0-2.348-.582" fill="#fff"/><path d="M35.3172,60.99988c-.536.072-1.074.132-1.608.208l-.922.132,15.129,8.736a18.66145,18.66145,0,0,1-2.256-3.104Z" fill="#a0a0a3"/><path d="M88.3964,61.356c-.237-.035-.475-.067-.712-.102l-9.902,5.717a18.57841,18.57841,0,0,1-2.256,3.104l14.646-8.456Z" fill="#a0a0a3"/></svg>