<?xml version="1.0" encoding="UTF-8" standalone="no"?>
<svg xmlns:rdf="http://www.w3.org/1999/02/22-rdf-syntax-ns#" xmlns="http://www.w3.org/2000/svg" height="84.79346" width="116.67963" version="1.1" xmlns:cc="http://creativecommons.org/ns#" xmlns:dc="http://purl.org/dc/elements/1.1/" viewBox="0 0 116.67963 84.79346"><path d="M77.69493,84.79346h-36.648a3.59794,3.59794,0,0,1-3.594-3.595v-2.538a146.85982,146.85982,0,0,0-21.162,5.62805l-.449.166-7.371-3.791,2.037-6.742-2.591-20.596-2.107-6.971h4.807c-4.391-2.173-5.756-4.927-6.173-6.28a1.7592,1.7592,0,0,1,1.562-2.268,56.85705,56.85705,0,0,0,8.264-1.298,22.849,22.849,0,0,1-9.536-4.942c-5.215-4.648-6.198-12.221-2.567-19.764a37.43317,37.43317,0,0,1,8.333-11.407,1.48549,1.48549,0,0,1,2.474,1.137c-.223,12.259,1.937,13.308,3.227,13.935.122.059.239.116.351.175,1.189.627,9.39.986,19.081.842,6.312-.096,9.208-.025,12.474,1.08a37.431,37.431,0,0,0,10.259,2.12994,35.80035,35.80035,0,0,0,10.245-1.87c3.17-.943,6.094-1.435,12.436-1.34l.18.003c4.263.063,17.242.262,18.773-.765.197-.143.409-.273.628-.407,1.39-.849,3.295-2.011,3.077-13.815a1.47114,1.47114,0,0,1,2.449-1.128,37.34055,37.34055,0,0,1,8.358,11.43c3.632,7.543,2.649,15.116-2.566,19.764a22.84906,22.84906,0,0,1-9.536,4.942,56.684,56.684,0,0,0,8.261,1.297,1.76109,1.76109,0,0,1,1.564,2.272c-.407,1.316-1.726,4.001-5.934,6.157l6.904-.017-4.938,6.811-2.425,10.976v9.45795l2.141,7.203-7.374,3.792-.454-.174a108.21094,108.21094,0,0,0-18.865-5.086v2.001a3.59879,3.59879,0,0,1-3.595,3.595" fill="#bbbdbf"/><path d="M113.53213,12.27418a36.19347,36.19347,0,0,0-8.103-11.09.38253.38253,0,0,0-.636.296c.256,13.874-2.46,13.899-4.158,15.125-1.733,1.251-13.571,1.059-19.604.967-6.034-.091-8.937.351-12.11,1.295a36.52977,36.52977,0,0,1-10.575,1.915h-.012a37.9594,37.9594,0,0,1-10.576-2.187c-3.136-1.061-6.076-1.114-12.109-1.023-6.033.092-17.714.03-19.604-.967-1.588-.837-4.41-1.251-4.159-15.093a.39691.39691,0,0,0-.66-.306,36.23169,36.23169,0,0,0-8.079,11.068c-3.753,7.796-2.117,14.533,2.31,18.48a22.43138,22.43138,0,0,0,14.534,5.389,72.48389,72.48389,0,0,1-13.911,2.749.6695.6695,0,0,0-.596.862c.539,1.749,2.775,5.84,11.972,7.688H7.27513l1.71,5.657,2.631,20.916-1.842,6.095,6.139,3.158a147.13731,147.13731,0,0,1,22.628-5.914v3.845a2.506,2.506,0,0,0,2.506,2.506h36.648a2.506,2.506,0,0,0,2.506-2.506v-3.304a112.68558,112.68558,0,0,1,20.343,5.373l6.139-3.158-1.93-6.489v-9.735l2.5-11.313,3.815-5.263-11.347.029c8.777-1.892,10.943-5.864,11.474-7.58295a.67155.67155,0,0,0-.598-.864,72.44684,72.44684,0,0,1-13.908-2.749,22.42706,22.42706,0,0,0,14.533-5.389c4.427-3.947,6.064-10.684,2.31-18.48" fill="#061922"/><path d="M42.459,44.40974l.004.026c-5.057.203-4.605-4.6-4.386-5.92a1.41413,1.41413,0,0,0-1.793.609s-1.936,6.584,6.651,5.95c0,0-.184-.254-.476-.665" fill="#fff"/><path d="M74.10192,44.40974l-.004.026c5.057.203,4.605-4.6,4.386-5.92a1.41413,1.41413,0,0,1,1.793.609s1.936,6.584-6.651,5.95c0,0,.184-.254.476-.665" fill="#fff"/><path d="M28.15253,36.55775s-4.559,1.30505-7.201,2.249a44.75627,44.75627,0,0,1-10.398,2.265s-.377.967,1.115,1.533c1.491.565,6.123,2.402,8.9,2.042,2.777-.359,4.799-1.46,5.245-2.825.447-1.365.159-3.845,2.339-5.264" fill="#b90d35"/><path d="M88.52713,36.55775s4.559,1.30505,7.201,2.249a44.75629,44.75629,0,0,0,10.398,2.265s.377.967-1.115,1.533c-1.491.565-6.123,2.402-8.9,2.042-2.777-.359-4.799-1.46-5.245-2.825-.447-1.365-.159-3.845-2.339-5.264" fill="#b90d35"/><path d="M35.66722,22.76527h-.017a10.29435,10.29435,0,0,1,.896-2.04,145.21885,145.21885,0,0,1-21.175-1.227c-6.493-.892-6.022-12.229-6.022-12.229s-3.507,4.909-4.469,8.951c-.963,4.042-.866,8.181,2.021,11.453,2.887,3.273,6.737,5.294,16.266,5.294l6.998-.141a6.02363,6.02363,0,0,1,5.016-3.762,16.2027,16.2027,0,0,1,.414-6.143c.024-.052.047-.104.072-.156" fill="#fff"/><path d="M81.09593,22.81458a16.39655,16.39655,0,0,1,.235,6.322,6.3999,6.3999,0,0,1,5.178,3.69l6.998.141c9.528,0,13.378-2.021,16.266-5.294,2.887-3.272,2.983-7.41095,2.021-11.453-.962-4.043-4.469-8.951-4.469-8.951s.471,11.337-6.023,12.229a142.5514,142.5514,0,0,1-20.92,1.227,21.40123,21.40123,0,0,1,.714,2.089" fill="#fff"/><path d="M32.03233,42.55427a11.0829,11.0829,0,0,0-.11,4.888h5.555c-4.56-1.777-5.445-4.888-5.445-4.888" fill="#b90d35"/><path d="M47.25642,76.47419a2.27141,2.27141,0,0,0,1.124-1.909,2.17411,2.17411,0,0,0-1.982-2.026h-4.001c-.324,0-.343.019-.343.253v1.013c0,.156.016.176.248.176h.267c.152,0,.152.039.152.253v4.694c0,.166-.038.176-.2.176h-.257c-.191,0-.219.029-.21.253v.974c0,.175.032.195.248.195h4.344a1.98965,1.98965,0,0,0,1.886-2.085,2.27451,2.27451,0,0,0-1.276-1.967m-2.401-2.279c0-.273.01-.292.286-.292.286,0,1.429.038,1.429,1.012s-1.048.936-1.391.936c-.324,0-.324-.02-.324-.283Zm0,4.519V77.36024c0-.263.019-.282.324-.282.286,0,1.391.039,1.391,1.012,0,.974-1.048.936-1.391.936-.305,0-.324,0-.324-.312" fill="#fff"/><path d="M56.11273,72.53919h-2.058c-.247,0-.247.02905-.247.263v.925c0,.205.028.214.266.214h.191c.19,0,.209,0,.209.205v3.925a1.112,1.112,0,0,1-1.2,1.169,1.17729,1.17729,0,0,1-1.2-1.169v-3.944c0-.166.009-.186.142-.186h.22c.295,0,.304-.009.304-.214v-.925c0-.253-.038-.263-.247-.263h-2.773c-.286,0-.314,0-.314.302v.925c0,.195.009.215.248.215h.238c.152,0,.181.009.181.185v4.061a2.83691,2.83691,0,0,0,3.048,2.552,2.4012,2.4012,0,0,0,2.592-2.552v-4.071c0-.175.009-.175.181-.175h.314c.248,0,.248-.01.248-.215v-.954c0-.273-.01-.273-.343-.273" fill="#fff"/><path d="M70.00212,77.70118h-.743c-.229,0-.238.019-.238.29205v.809c0,.311-.029.321-.239.321h-1.133c-.343,0-.353-.02905-.353-.243v-4.608c0-.301,0-.331.181-.331h.276c.22,0,.229-.019.229-.21405v-.896c0-.282,0-.292-.247-.292h-2.744c-.334,0-.343.023-.343.273v.954c0,.195.019.215.247.215h.22c.19,0,.2.013.2.291v4.617c0,.195-.01.215-.181.215h-.277c-.19,0-.209.029-.209.292v.935c0,.195.019.195.247.195h5.107c.225,0,.247,0,.247-.312v-2.299c0-.204-.009-.21405-.247-.21405" fill="#fff"/><path d="M74.72893,75.81177c-.896-.429-1.41-.838-1.41-1.305a.49088.49088,0,0,1,.533-.526,1.66653,1.66653,0,0,1,1.525,1.091c.047.153.057.175.248.175h.495c.152,0,.152-.009.152-.351v-2.201c0-.172-.009-.175-.324-.175h-.342c-.105,0-.105,0-.229.21405-.062.108-.286.332-.515.137a2.25337,2.25337,0,0,0-1.41-.526,2.4157,2.4157,0,0,0-2.229,2.396c0,1.694,1.182,2.162,1.963,2.571s1.219.584,1.219,1.324c0,.351-.334.449-.715.449a1.53279,1.53279,0,0,1-1.438-1.091c-.048-.164-.057-.176-.248-.176h-.495c-.134,0-.153,0-.153.351v2.201c0,.176-.009.176.324.176h.343c.105,0,.115-.02.229-.215.063-.107.286-.331.515-.136a2.41926,2.41926,0,0,0,1.467.526,2.4664,2.4664,0,0,0,2.267-2.416,2.6436,2.6436,0,0,0-1.772-2.493" fill="#fff"/><path d="M62.90753,77.70118h-.743c-.229,0-.238.019-.238.29205v.809c0,.311-.029.321-.238.321h-1.134c-.343,0-.353-.02905-.353-.243v-4.608c0-.301,0-.331.181-.331h.277c.219,0,.228-.019.228-.21405v-.896c0-.282,0-.292-.248-.292h-2.743c-.334,0-.343.023-.343.273v.954c0,.195.019.215.248.215h.219c.19,0,.2.013.2.291v4.617c0,.195-.01.215-.181.215h-.277c-.19,0-.209.029-.209.292v.935c0,.195.019.195.248.195h5.106c.225,0,.248,0,.248-.312v-2.299c0-.204-.01-.21405-.248-.21405" fill="#fff"/><path d="M28.43673,71.73725l.559-1.469.239-18.593-.494-1.305,4.592-.001-.536,1.283-.242,18.009.487,1.108-.334.065c-1.253.244-2.524.511-3.778.792Z" fill="#bbbdbf"/><path d="M33.44623,70.69153l.567-1.39294.239-17.671-.501-1.259,4.011-.001.055.199c.784,2.802,1.594,5.63306,2.416,8.437l.092-7.42-.512-1.217,4.622-.001-.547,1.206-.183,16.438.518,1.091-.38.042c-1.136.124-2.29.265-3.429.419l-.23.032-.067-.222c-.827-2.734-1.641-5.487-2.429-8.207l-.101,7.639.501,1.094-.355.055c-1.264.198-2.542.416-3.798.648Z" fill="#bbbdbf"/><path d="M44.63383,69.057l.513-1.268.163-16.262-.475-1.161,8.459-.001,1.69,1.222-.052,15.585-.11.081q-.7665.56406-1.533,1.139l-.068.052-.084.003c-2.677.107-5.387.298-8.056.566Zm4.262-15.934-.103,12.786q1.254-.07947,2.509-.139l.074-12.667q-1.24049.009-2.48.02" fill="#bbbdbf"/><path d="M62.63973,68.39783l-.439-.012c-1.271-.034-2.564-.048-3.84-.048h-.429l.548-1.166-.001-7.234q-1.398-4.22552-2.777-8.448l-1.113-1.125h5.316l-.378.855.738,3.292q.36449-1.63943.726-3.283l-.439-.864h5.388l-1.123,1.106q-1.365,4.31543-2.751,8.587l.02,7.151Z" fill="#bbbdbf"/><path d="M14.566,75.51215l.469-1.683q-1.2435-10.218-2.542-21.179c-.199-.613-.409-1.282-.62-1.957l-.11-.353h4.54l-.388,1.145q.5415,5.247,1.072,10.34c.396-3.435.803-6.879,1.214-10.271l-.411-1.21405h4.631l-.439,1.183q.5175,4.80743,1.027,9.485.627-4.872,1.26-9.613l-.382-1.05505h4.577l-.146.372q-.321.81454-.641,1.641c-.987,6.283-1.949,12.636-2.86,18.884l.462,1.126-.304.077c-1.241.313-2.5.649-3.741,1l-.483.136.31-.995q-.525-4.84351-1.057-9.827c-.424,3.513-.845,7.08105-1.254,10.635l.293.69-.29.088c-1.231.374-2.477.772-3.701,1.182Z" fill="#bbbdbf"/><path d="M77.44533,69.699l-.099-.014c-2.025-.288-4.083-.533-6.118-.728l-.083-.00806-.064-.053q-.768-.63446-1.535-1.251l-.1-.08-.144-15.949.112-.083q.75-.55206,1.498-1.113l.072-.054,6.254.001.073.056q.7635.58649,1.527,1.185l.103.08.035,2.741.553,1.244-.437-.017q-1.896-.075-3.795-.136l-.404-.013.517-1.162-.014-1.12805q-1.257-.0195-2.513-.038l.142,13.123q1.2675.12,2.533.263l-.013-1.087-.566-1.272.465.045q1.9095.183,3.817.408l.368.043-.504,1.118.037,2.786-.127.081q-.753.483-1.506.959Z" fill="#bbbdbf"/><path d="M84.51933,70.902l-.49-.095c-1.252-.243-2.529-.471-3.794-.679l-.351-.058.498-1.096-.232-17.355-.542-1.251,4.604.001-.5,1.268.241,17.856Z" fill="#bbbdbf"/><path d="M91.84883,72.49409l-.496-.124c-1.254-.313-2.52-.61-3.762-.883l-.322-.071.48-1.12006-.215-16.788q-1.395-.039-2.791-.074l-.304-.008.427-3.057,8.788.00305.496,3.343-.326-.011q-1.365-.048-2.73-.09l.202,17.358Z" fill="#bbbdbf"/><path d="M101.84323,75.44587l-.495-.165c-1.225-.408-2.47-.804-3.703-1.176l-.278-.084.456-1.223-.066-9.768c-.912-3.76-1.876-7.599-2.861-11.351q-.33751-.43652-.674-.866l-.346-.441,5.179.003-.335,1.038q.384,2.23947.765,4.523.354-2.226.71-4.494l-.397-1.067,5.198.002-.302.429q-.336.474-.67.94c-.923,4.126-1.844,8.147-2.738,11.952l.039,10.001Z" fill="#bbbdbf"/><path d="M32.28173,69.717q.1875.42609.374.85-1.8975.37051-3.785.794c.132-.348.264-.696.397-1.041q.12-9.34653.24-18.693-.1875-.49054-.374-.985,1.8945-.00156,3.79-.001-.1995.47552-.399.955-.1215,9.06-.243,18.121" fill="#fff"/><path d="M37.31473,68.86054q.189.41254.377.824-1.90651.297-3.806.649.19949-.492.399-.98.12-8.88748.24-17.776-.186-.46655-.373-.937,1.70249,0,3.404-.001c.972,3.475,1.947,6.86,2.927,10.177q.057-4.644.115-9.287-.1875-.44394-.375-.89,1.8945-.00156,3.79-.001-.198.43506-.396.873-.0915,8.27856-.184,16.557.1905.402.381.803-1.72049.189-3.436.421-1.476-4.87949-2.937-9.97095-.063,4.77-.126,9.53894" fill="#fff"/><path d="M45.582,51.47535l-.342-.837q3.9825-.00146,7.966-.001.7515.54593,1.505,1.088-.02551,7.65454-.051,15.309-.7665.564-1.535,1.141-4.041.162-8.071.566.1815-.45.364-.89795.08249-8.184.164-16.368m3.044,1.378q-.054,6.67355-.108,13.346,1.527-.10043,3.054-.169.039-6.6015.077-13.201-1.512.00906-3.023.024" fill="#fff"/><path d="M61.79343,60.01539q.01049,3.627.02,7.255.198.42151.394.84406-1.923-.05255-3.847-.049.195-.41556.392-.832-.00151-3.67044-.001-7.34-1.416-4.27652-2.811-8.549-.351-.354-.7-.707h4.246c-.082.185-.163.37-.245.555q.51,2.28305,1.025,4.56805.507-2.28149,1.011-4.56805l-.282-.555h4.282q-.34949.34351-.699.686-1.3815,4.36945-2.785,8.692" fill="#fff"/><path d="M27.41253,52.282q-1.446,9.21-2.876,18.99005.186.453.372.904-1.8795.474-3.748,1.002.0885-.285.178-.569-.654-6.021-1.317-12.257-.783,6.417-1.551,13.078.102.23849.203.477-1.86.56552-3.708,1.184.1725-.62247.346-1.24-1.2465-10.245-2.548-21.233-.315-.99454-.631-2.006h3.79c-.094.28-.189.56-.284.842q.6765,6.555,1.335,12.87.744-6.52057,1.505-12.799-.1545-.45456-.31-.913h3.861q-.1635.43652-.324.877.645,6.015,1.282,11.827.7755-6.078,1.56-11.951-.1365-.375-.273-.753h3.79q-.3255.82956-.652,1.67" fill="#fff"/><path d="M71.25423,68.68574q-.7695-.63446-1.537-1.253-.07051-7.83893-.141-15.68.75-.55344,1.499-1.115,3.036.00146,6.071.001.762.585,1.524,1.183.018,1.33347.035,2.667.1995.447.398.895-1.8975-.07352-3.797-.135.189-.42307.377-.848l-.018-1.451q-1.5285-.02554-3.057-.046l.147,13.646q1.542.144,3.08.32l-.018-1.451q-.1995-.45-.399-.897,1.908.18292,3.811.407-.1875.41849-.376.835.018,1.347.035,2.694-.7515.48148-1.504.958-3.0585-.43506-6.13-.73" fill="#fff"/><path d="M83.68193,69.54767q.19949.495.399.992-1.8975-.36749-3.802-.68.189-.414.376-.829-.117-8.7345-.234-17.47-.198-.462-.398-.921,1.8945,0,3.79.001-.1875.47552-.373.947.1215,8.9805.242,17.96" fill="#fff"/><path d="M93.41912,50.64387q.207,1.38757.414,2.788-1.50748-.051-3.015-.099.1035,8.84555.206,17.689.198.54.395,1.084-1.881-.46948-3.77-.885c.124-.289.248-.58.372-.871q-.1095-8.553-.218-17.106-1.527-.04349-3.053-.082.17551-1.25546.352-2.521,4.158.00156,8.317.003" fill="#fff"/><path d="M101.01353,63.66724q.01948,5.03558.039,10.072.192.639.382,1.283-1.8495-.61652-3.711-1.178.186-.49649.372-.998-.033-4.90952-.067-9.818-1.428-5.943-2.883-11.472-.354-.46051-.71-.912,2.124,0,4.246.002-.12.37354-.241.746.528,3.078,1.051,6.238.489-3.06747.983-6.217-.141-.384-.284-.767,2.1405.00156,4.281.002-.351.49649-.701.984-1.3965,6.249-2.757,12.035" fill="#fff"/><path d="M80.60643,30.99647a7.06275,7.06275,0,0,0-4.795,1.648s.108-2.055,3.024-3.195l.276-.079s1.057-4.562-.476-7.748a3.12027,3.12027,0,0,0-2.67-1.527,10.22378,10.22378,0,0,0-2.594.019,8.86022,8.86022,0,0,0-1.788.297c-.915.289-1.611.635-2.228.875a30.27348,30.27348,0,0,1-10.964,2.003l.013.002c-.074-.001-.115-.002-.115-.002a29.64831,29.64831,0,0,1-10.964-2.275,14.95921,14.95921,0,0,0-2.855-.991,9.01442,9.01442,0,0,0-.955-.152,11.14084,11.14084,0,0,0-3.007-.06494,2.61877,2.61877,0,0,0-2.238,1.206,13.52884,13.52884,0,0,0-1.03,6.206c.014,1.244.069,2.036.069,2.036a4.99059,4.99059,0,0,1,3.404,3.39,7.06272,7.06272,0,0,0-4.795-1.648c-2.986.08-5.512,3.735-5.742,6.50806,0,0,1.302-3.937,4.563-3.816,3.261.12,4.951,3.776,5.344,4.419s2.986,5.102,4.322,6.267,4.125,3.495,7.819,3.375c3.693-.121,4.99-4.33905,4.951-6.348a29.02572,29.02572,0,0,0-6.816,1.125,26.468,26.468,0,0,1,6.878-2.664l-.027-2.008a23.37455,23.37455,0,0,1-11.589-3.462,39.80135,39.80135,0,0,0,11.566,1.693l-.029-2.232c-.009-.027-.013-.051-.023-.079a22.32335,22.32335,0,0,1-12.738-5.79l.391.192a29.56307,29.56307,0,0,0,13.408,3.744h.132a29.2982,29.2982,0,0,0,13.357-3.685l.471-.278a22.73633,22.73633,0,0,1-12.877,5.80695v2.31805a42.598,42.598,0,0,0,11.624-1.69c-4.663,3.272-10.57,3.456-11.624,3.462v2.006a26.46477,26.46477,0,0,1,6.886,2.666,27.25464,27.25464,0,0,0-6.815-1.125c-.04,2.009,1.257,6.227,4.95,6.348,3.694.12,6.483-2.21,7.819-3.375s3.929-5.624,4.322-6.267,2.083-4.299,5.344-4.419c3.261-.121,4.563,3.816,4.563,3.816-.23-2.773-2.756-6.428-5.742-6.50806" fill="#b90d35"/></svg>