<?xml version="1.0" encoding="UTF-8" standalone="no"?><svg xmlns:rdf="http://www.w3.org/1999/02/22-rdf-syntax-ns#" xmlns="http://www.w3.org/2000/svg" height="193.74601" width="460.78959" version="1.1" xmlns:cc="http://creativecommons.org/ns#" xmlns:dc="http://purl.org/dc/elements/1.1/" viewBox="0 0 460.78959 193.74601"><defs><style>.cls-1{fill:#fff;}.cls-2{fill:#6f263d;}.cls-3{fill:#ffb81c;}</style></defs><title>Cleveland Charge logo</title><path class="cls-1" d="M303.48559,96.57366l-2.136.176L272.49432,99.0696a.48082.48082,0,1,1-.136-.952h0c21.50349-4.3759,79.89406-16.2636,83.326-17.10359,1.04-.256,2.35194-.552,3.8959-.896,9.31977-2.07995,26.66337-5.95185,40.151-13.74366,24.31142-14.04766,54.79066-37.16709,55.09466-37.39909l5.77583-4.3919a.488.488,0,0,0-.208-.864l-7.1278-1.32c-1.304-.248-32.1752-5.99186-45.32688-7.62382a40.58361,40.58361,0,0,0-4.90389-.296c-15.01565,0-30.99124,7.56783-40.535,12.09571-1.72.8-3.19992,1.52-4.34389,2.00794-5.20788,2.25595-48.79882,23.99943-81.022,40.063.76-1.168,1.384-2.09594,1.79195-2.67193,3.07993-4.3279,2.112-7.47982,1.264-8.98379-1.16-2.032-3.40792-3.19992-6.33586-3.19992a11.33464,11.33464,0,0,0-3.13593.448,13.02363,13.02363,0,0,0-6.17585,4.29589,159.20422,159.20422,0,0,1-17.52758,15.91961.472.472,0,0,1-.472.056,11.359,11.359,0,0,0-3.31193-.8.4559.4559,0,0,1-.224-.088l-11.19973-8.26378c-2.59193-1.904-4.39188-3.19993-5.67186-4.13592a.48.48,0,0,1,.208-.864c10.11177-1.472,30.82326-5.74386,44.27894-16.7996a.48.48,0,0,0-.36-.848c-5.33588.6-22.99944,2.112-36.47111-2.2-6.23984-2.008-9.03977-2.79194-10.15976-3.27993a.47194.47194,0,0,1-.24-.24c-3.19992-7.39183-8.89578-19.03154-13.79966-20.9515a4.352,4.352,0,0,0-1.728-.272c-1.912,0-3.31193,0-4.3519.096a.46392.46392,0,0,1-.336-.112c-1.024-.904-2.584-2.31194-3.92791-3.55991a6.08014,6.08014,0,0,0-4.24789-1.304,48.4902,48.4902,0,0,0-10.65575,1.776.49593.49593,0,0,1-.384-.064,32.26328,32.26328,0,0,0-11.31173-4.55988l-.552-.096a11.24749,11.24749,0,0,0-2.79993-1.83995A69.678,69.678,0,0,0,145.79333.888a3.79194,3.79194,0,0,0-1.6.352.48.48,0,0,1-.392,0A12.95169,12.95169,0,0,0,138.5215,0a11.85711,11.85711,0,0,0-1.432.104A168.7956,168.7956,0,0,1,116.986,1.32c-5.48787,0-8.83979-.288-8.87178-.296L98.73047.168a.488.488,0,0,0-.376.84l6.91183,6.39985A107.41385,107.41385,0,0,0,119.914,18.52755a.472.472,0,0,1,.192.576l-.408,1.072c-.712,1.856-.064,3.07993,1.6,4.95988a.464.464,0,0,1,.12.416c-.952,4.53589-2.10395,14.63965,3.36792,24.23941a.488.488,0,0,1-.18111.66592l-.01089.00606-41.599,21.51947a.48.48,0,0,0-.088.8l1.736,1.48a.48.48,0,0,1-.144.8L76.323,78.0701l-.8.28a.576.576,0,0,0-.2.144L.12486,165.1a.48.48,0,0,0,.408.8c6.91183-.8,40.991-4.59989,49.27081-5.55187a.48.48,0,0,1,.456.744c-3.43192,5.17588-7.07983,11.48771-8.79979,17.11157a11.92769,11.92769,0,0,0,1.776,10.87974c1.72,2.23994,5.10387,4.98389,12.71969,4.6319h.736a19.05912,19.05912,0,0,0,1.904-.144l68.20634-5.80787a16.064,16.064,0,0,0,4.6559-1.16,23.94419,23.94419,0,0,0,3.8319-1.984c.352-.232.704-.464,1.048-.704a.512.512,0,0,1,.24-.088L266.62239,172.6278a.504.504,0,0,0,.36-.216l4.62389-7.06382a.48.48,0,0,1,.8,0l6.39985,11.70372a.472.472,0,0,0,.352.248l40.887,6.07985a.488.488,0,0,0,.488-.736l-8.1758-13.15168a.48.48,0,0,1,.368-.736l95.58167-7.8398,1.6-.128a.488.488,0,0,0,.368-.224l17.62364-27.49533a.488.488,0,0,0-.432-.744l-4.94387.28a.488.488,0,0,1-.432-.752L443.69022,98.8936a8.42378,8.42378,0,0,0-7.79185-13.0157l-49.43879,3.9999c-6.57585.568-10.99173,1.488-14.99964,3.80792l1.6-2.72794S318.98919,95.30968,303.48559,96.57366Z"/><path class="cls-2" d="M301.34963,100.81355c-40.511,2.65594-47.05487,2.09594-57.59861,8.0478.6-.344,7.01583-7.87181,9.68776-10.99973,28.9513-5.83985,95.71767-19.32754,101.40555-20.7195,7.27983-1.784,27.90332-5.46385,43.13494-14.27165,24.42343-14.11167,54.78265-37.1911,54.78265-37.1911S420.8107,19.71952,407.595,18.08755c-17.91958-2.21595-39.927,10.09575-47.92684,13.55167-5.87986,2.54394-62.92648,31.01524-92.65376,45.8789,3.36791-5.63986,7.28781-11.81571,8.79979-13.98367,2.07995-2.91195,1.36-4.49589,1.064-5.01587-.904-1.6-3.7919-1.432-5.19187-1.008a9.4317,9.4317,0,0,0-4.46388,3.19993,155.84142,155.84142,0,0,1-20.45551,18.19155,6.96779,6.96779,0,0,0-5.10388-1.79195c-6.39984-4.72789-19.64752-14.46364-19.71951-14.46364s-.72.072-1.688.2c-1.112-1.79995-3.27192-5.36786-2.91993-5.39986,4.2719-.408,28.79931-2.96793,45.5989-10.78375,0,0-8.26379,3.11193-30.28728-2.82393-13.33569-3.59192-12.47169-4.74388-12.47169-4.74388s-7.71183-18.14356-12.1677-19.88752c-.152-.064-5.89586.12-6.03985.216s-5.50387-4.79989-5.50387-4.79989-1.2-1.376-13.34367,1.856l-.656-.496a28.24729,28.24729,0,0,0-10.71174-4.55989l-1.6-.28a9.70366,9.70366,0,0,0-2.58393-1.912,66.91849,66.91849,0,0,0-22.06343-4.9599c-.312,0-1.528,1.104-1.528,1.104a11.4396,11.4396,0,0,0-5.77586-1.98395,8.16128,8.16128,0,0,0-.992.08,156.891,156.891,0,0,1-29.79128.928S121.018,16.98358,133.1697,20.69549c-3.32793.096-6.77584.264-10.34375.528a26.38871,26.38871,0,0,0,2.39995,2.75994S119.706,40.991,132.10573,53.53469c-3.31192-.504-4.95188-.64-4.95188-.64L88.56278,72.89423l3.59192,3.05593c-.168,0-14.95964,5.43986-14.95964,5.43986S8.05274,161.49208,8.42873,161.26008l51.45476-6.07986c-.968,1.272-1.928,2.56793-2.85594,3.87191-3.8639,5.40787-8.88778,13.25568-10.88773,19.87952a8.13584,8.13584,0,0,0,1.176,7.56781c1.216,1.6,3.63991,3.4639,8.3038,3.4639h.624a11.14189,11.14189,0,0,0,1.6-.136l68.35834-5.81585a12.6078,12.6078,0,0,0,3.60791-.92,18.9345,18.9345,0,0,0,3.19992-1.66395,21.42633,21.42633,0,0,0,1.816-1.256l70.5023-6.06384L216.70368,164.46l4.68788-.416-5.99185,9.21577,49.30281-4.23989,7.31183-11.19973.496-.048,8.79978,16.0636,32.4872,4.79988-8.13581-13.0877c.136,0,102.54153-8.4078,102.54153-8.4078l13.35969-21.02349-6.99182.392,25.64737-39.00706a4.90388,4.90388,0,0,0-4.48788-7.58382l-48.4308,3.75191c-11.06373.592-20.2875,4.51988-27.23933,12.6077l6.87983-11.03174Z"/><path class="cls-3" d="M247.71094,81.078l-1.448.88c-5.23188,3.19992-7.19983,4.70389-11.43972,12.96768-.216.416-3.19992,5.86384-5.35187,9.89575l-2.368,4.33591s-3.67992,4.90388-7.49581,10.03975c-3.99991,5.42386-8.17581,11.10373-8.30381,11.56771-.584,2.19194,2.62394,3.29591,4.3519,2.27995.736-.424,4.3519-3.9439,9.27177-9.07979l4.41589-4.79988c2.39994-2.56793,4.79988-5.11987,6.94382-7.39982h.104c1.672-1.752,3.19993-3.35192,4.5359-4.67188a39.52689,39.52689,0,0,1,3.19993-2.99993c.8-.6,1.376-1.23195,2.17594-1.89593,1.232-1.16,2.39995-2.31994,3.61591-3.6159l-9.67977,1.95195s-2.51994-.232-1.6-2.15195c1.56-3.27992,10.61573-11.95171,10.61573-11.95171l14.49565-7.25583c3.81589-6.39984,9.59976-15.23962,11.19972-17.59957,2.128-3.04793-2.36-4.31989-5.80786-.336S254.95075,76.46214,248.10292,80.83c-.136.088-.264.176-.392.248"/><path class="cls-3" d="M170.3768,79.31807,164.353,74.94218S145.7694,80.42205,134.99366,86.4459c-15.95161,8.91978-19.59952,11.99971-19.59952,11.99971l19.83952,12.74369,29.79127-1.928s7.09582-21.14348,15.70362-29.21528l-1.312-.728-7.19982.608c-10.91174,9.10378-20.7995,22.55145-20.7995,22.55145s3.03192-13.95967,3.06393-13.98367c11.30373-7.67982,15.92762-9.19978,15.92762-9.19978"/><path class="cls-3" d="M179.68058,126.26093c-1.216-2.50394-1.928-6.39985-.736-9.38378a6.49535,6.49535,0,0,0-2.112-.464h-.064c-1.728,3.19992-2.256,5.59986-1.6,7.27182a6.04783,6.04783,0,0,0,4.49589,2.54393"/><path class="cls-3" d="M173.96872,117.53314a5.66393,5.66393,0,0,0-.296,2.15195,6.5841,6.5841,0,0,0,.424,2.19194,13.1811,13.1811,0,0,1,1.752-5.38388,4.36,4.36,0,0,0-1.88,1.04"/><path class="cls-3" d="M180.36855,113.69324h.104a4.9929,4.9929,0,0,1,1.272-.864,6.3516,6.3516,0,0,0-1.46395-.12h-.144a4.47225,4.47225,0,0,0-1.08.12h0a4.94342,4.94342,0,0,0-.44.592c.472.04.976.112,1.63995.216Z"/><path class="cls-3" d="M180.04058,116.52515c3.69591,1.672,5.83985,4.88787,6.20786,6.53586a6.71176,6.71176,0,0,0,1.008-3.72792,5.83225,5.83225,0,0,0-.312-1.76795,13.27953,13.27953,0,0,0-4.99988-2.76792,15.99887,15.99887,0,0,0-4.79988-.656,5.60088,5.60088,0,0,0-.936.08,6.20789,6.20789,0,0,0-1.904,2.23994,5.86391,5.86391,0,0,1,2.51993-.68,8.11178,8.11178,0,0,1,3.19993.736"/><path class="cls-3" d="M175.21669,130.63682c1.512-.12,25.12738-5.87986,27.91933-6.55985l.072-.088.232-.056,6.11985-9.27177q-.144-.224-.288-.48l-.272-.488a1.29479,1.29479,0,0,1-.08-.144c-.088-.152-.168-.304-.248-.456l-.152-.288-.2-.376c-.12-.232-.24-.48-.36-.728l-.688,1.128-4.0959,7.31982s.464-7.93582.704-14.09566,1.6-11.54371,4.62389-15.29562,4.2799-7.01582,7.50382-7.63182l.408-.088.168-.04.304-.072.224-.056.296-.072.256-.072.304-.08.288-.072.304-.088.312-.088.32-.088.32-.096.312-.088.352-.104.296-.088.376-.112.256-.08.416-.128.152-.04,2.27195-.712h.08l.536-.168h0l.48-.16h.048c.248-.08.496-.152.712-.232-3.08791-.288-26.11936-2.456-37.15911-2.328-5.59986.064-10.50375,7.35182-14.17566,15.06362a123.29527,123.29527,0,0,0-6.68783,17.96756s5.80785,19.80753,7.41582,19.67953m-2.07195-9.01577a7.52008,7.52008,0,0,1-.304-1.912,7.62381,7.62381,0,0,1,15.23962-.4,7.51166,7.51166,0,0,1-.672,3.31193,4.36814,4.36814,0,0,1-.552,1.6,8.616,8.616,0,0,1-2.128,2.59188,5.75163,5.75163,0,0,1-2.096,1.056,5.24655,5.24655,0,0,1-1,.272,6.64722,6.64722,0,0,1-2.31994,0,6.20781,6.20781,0,0,1-3.87991-2.08793,5.6,5.6,0,0,1-1.072-1.224,9.26359,9.26359,0,0,1-1.2-3.19992"/><path class="cls-3" d="M186.48042,116.36517a7.0238,7.0238,0,0,0-3.56791-3.11193,2.98383,2.98383,0,0,0-1.52.656,12.39978,12.39978,0,0,1,5.08787,2.45594"/><path class="cls-3" d="M179.64857,117.17316c-.344.888-1.28795,4.1999,1.056,9.12778a7.05576,7.05576,0,0,0,4.91988-2.28793c.256-1.28-2.04795-5.22387-5.97586-6.83983"/><path class="cls-3" d="M177.94461,113.43724a2.53528,2.53528,0,0,1,.256-.432c-.168.072-.616.352-.8.432h.528"/><path class="cls-3" d="M197.29614,72.46223c16.67961-7.39181,40.095,3.41591,40.095,3.41591s-16.10361-11.95171-16.1916-11.9437c-8.41579,1.176-17.29558,2.12795-17.29558,2.12795s-6.77583,6.47184-6.63184,6.39984"/><path class="cls-3" d="M166.3929,22.10346a228.05082,228.05082,0,0,1-41.167-10.95974c7.34381,2.34394,45.93488,11.52773,46.31887,11.59972,15.99961,2.83994,22.92744,6.09585,22.92744,6.09585s-6.96782-7.73581-12.29569-11.66372a26.55948,26.55948,0,0,0-9.93576-4.23189l3.79191,7.09582s-5.07187-7.9598-8.1438-9.30377c-9.87976-4.3039-21.53547-4.83989-21.31148-4.66389a21.74009,21.74009,0,0,1,7.14383,9.18377s-8.6158-10.97572-14.74366-9.99175c-8.2878,1.296-24.91939,1.672-24.91939,1.672s14.14365,13.69566,26.67135,13.77567c10.83974.072,25.91137,1.44,25.66338,1.408"/><path class="cls-3" d="M168.55285,51.56674c-.4,5.19187,2.95193,7.45583,3.02392,7.49582s-3.7839-6.78385,4.99988-17.98356c-.448.472-7.71181,6.39985-7.9998,10.48774"/><path class="cls-3" d="M192.40828,73.26221c-33.67919-16.38361-64.43045-19.09553-64.43045-19.09553L94.49064,71.87025a225.315,225.315,0,0,1,55.81465-5.80786A230.39088,230.39088,0,0,0,78.027,82.862L21.90041,149.67635s115.2532-93.76572,170.50787-76.41414"/><path class="cls-3" d="M118.85005,161.74806l-2.70394,3.2879h-.248c-1.216.112-32.05523,2.67994-34.19118,2.736-1.008,0-.664-.856-.664-.856,13.83966-26.70335,51.67875-30.69525,52.04673-30.72725l2.4-.192-4.4399,5.84785,22.58345-1.88794L166.43288,121.853l-.8-2.104c-1-.056-3.9999-.176-8.79979,0-15.99961.552-72.67824,6.63185-129.74885,33.26321,2.39994-.288,19.41553-2.60794,22.90344-3.03193,10.66374-1.312,25.69538-3.06392,25.69538-3.06392l-1.272,1.24c-6.05585,5.67987-19.07153,22.39946-22.16746,32.63122a1.968,1.968,0,0,0,.128,1.83994c.52.672,1.84795,1.024,3.64791.96a7.00667,7.00667,0,0,0,1.176-.096l68.49434-5.83187c1.776-.136,5.85587-1.496,7.11183-4.35189l7.95181-13.49567Z"/><polygon class="cls-3" points="207.728 135.469 193.56 136.685 185.416 149.292 167.673 150.62 175.729 138.221 161.201 139.469 139.082 173.42 153.609 172.172 161.841 159.572 179.681 158.044 171.441 170.644 185.968 169.388 185.752 169.196 207.728 135.469"/><path class="cls-3" d="M334.43684,144.90047l9.43178-.8-2.96792,4.39989h-.192l-19.82352,1.736.448-.8c8.20781-15.83961,30.01526-17.59958,30.23127-17.64757l1.056-.08-2.18395,2.81593,13.00769-1.088,7.49576-10.57575-.432-1.112c-.744,0-2.86392-.136-5.91187,0-10.67174.36-31.00726,2.99992-47.26284,16.51161-3.99991,3.31193-11.81571,13.59967-13.59968,19.49552a1.07194,1.07194,0,0,0,.056.976,2.584,2.584,0,0,0,2.056.52,4.02338,4.02338,0,0,0,.688-.056l40.471-3.43991a5.47982,5.47982,0,0,0,4.11191-2.51993l9.64777-15.84762s-21.48749.12-26.31936,7.55182"/><polygon class="cls-3" points="375.676 125.741 356.34 155.412 356.692 155.38 356.66 155.42 367.052 154.492 370.868 154.156 370.876 154.14 404.483 151.116 410.379 141.877 376.932 144.884 379.1 141.565 396.939 140.029 402.683 131.277 384.932 132.613 387.076 129.309 411.491 127.205 417.395 117.965 378.5 121.309 375.676 125.741"/><path class="cls-3" d="M216.32769,144.13249c-13.53568,9.96775-28.9033,25.1274-28.9033,25.1274l15.38363-1.328,11.32773-9.59977,19.79952-1.736L227.90341,165.78l13.65568-1.168s22.34345-33.99117,22.34345-33.95118-28.31931-.68-47.53484,13.47167m22.82343,3.52792-14.77565,1.448s.848-1.28795,6.25586-3.9999a66.18055,66.18055,0,0,1,12.97568-4.36789Z"/><path class="cls-3" d="M304.36555,147.11643l13.13569-20.14351-.56-1.024-47.35883,4.11189L247.335,164.156l13.71966-1.184,7.32782-11.19973,7.73583-.616,9.23976,16.90359,15.72763,2.336-12.21572-19.69554s12.5357-.536,15.49562-3.58393m-30.80724-2.65591,4.26389-6.71185,20.2715-1.736-4.43988,6.84786Z"/><path class="cls-3" d="M215.41573,52.37473l-3.75992.64-.872,11.07973c2.57594-.352,5.51986-.744,7.74381-1.032l-2.88792-7.44782Z"/><path class="cls-1" d="M246.89494,92.32574c41.175-15.46361,169.1399-59.27857,169.1399-59.27857S286.39,75.34214,250.18285,89.44581a23.34614,23.34614,0,0,0-3.28791,2.87993"/><path class="cls-1" d="M215.41573,52.37473l-1.52.264v3.99991l1.256,6.90383c2.584-.352,1.128-.16,3.35192-.448l-2.88792-7.44782Z"/><path class="cls-1" d="M254.30277,48.6548c-4.99187,0-12.5037-.8-23.19944-3.6639-13.23967-3.56792-30.19926-10.49574-30.39926-10.55974,0,0,15.73563,8.5678,28.99129,12.07172,10.12776,2.68792,24.05542,2.34393,24.5754,2.15195"/><path class="cls-1" d="M196.57617,63.66245l1.6,1.96s-1.12-.368-2.09595-.736a9.29547,9.29547,0,0,0-2.85593-.864c-.584,0-1.4.624-.568,1.216a6.33569,6.33569,0,0,0,2.112.92l2.024.688-1.072.472h-2.16s-1.008-.384-1.824,1.016a4.71191,4.71191,0,0,0-.728,2.99191l3.9999,1.496c3.42392-3.39991,10.35976-10.44774,12.58371-15.67962a32.19283,32.19283,0,0,0,.736-3.63192,9.05569,9.05569,0,0,1-4.67989-.856c-.8-.496-1.944,3.01591-1.944,3.01591l.544-5.10388.48-.8-2.01594-.432-1.88794,6.39984s-.144,1.272-.144,1.312c-.112,1.408,2.39994.728,2.39994.728s-.08,3.34391-1.232,3.32792c-.488,0-2.27995-1.12-2.55194-.944-2.83193,1.88-.736,3.4399-.736,3.4399"/><path class="cls-1" d="M214.75974,116.80515c1.83994.368,2.45594-2.47994,2.45594-2.47994s-2.66392-3.64791-2.87993-6.34384c0-.088,4.95989,6.68782,6.83184,4.79988a15.00807,15.00807,0,0,0,2.68792-3.51991c-2.67193-3.15993-3.60792-10.28774-3.60792-10.28774a42.9355,42.9355,0,0,0,5.07187,8.48778c.064.08,2.79193-5.22387,2.79193-5.22387a58.77532,58.77532,0,0,1,1.136-11.99971l.76,9.02378s4.15991-9.53578,7.65582-13.33568A33.06329,33.06329,0,0,1,245.583,79.894c-1.8-2.15995-4.25591-2.14394-10.13577-1.072-9.68775,1.776-9.47977,3.59992-16.0396,5.08787s-7.8398,6.76783-9.83177,9.33578-4.16789,7.14382-2.95994,10.26374c2.11995,5.45588,5.39187,12.7517,8.1438,13.29568"/><path class="cls-1" d="M241.40709,98.19762S345.68456,75.47818,352.26841,73.87021c1-.248,2.26394-.528,3.73592-.856,9.30378-2.10395,26.62336-6.02385,39.33506-13.36767,19.11155-11.03174,38.27109-26.11136,45.01492-31.55923-7.13581-1.416-24.3994-4.79988-34.39916-6.00785a41.391,41.391,0,0,0-10.69574.208c-11.7917,1.648-23.87142,7.31982-31.08723,10.70374-1.6.8-3.03194,1.424-4.1759,1.912C352.46846,38.15908,256.62278,84.142,250.29493,87.1899c0,0-11.78372,10.78375-8.87178,11.00774"/><polygon class="cls-1" points="161.865 140.685 173.169 139.717 165.129 152.092 186.08 150.516 194.224 137.901 205.16 136.965 184.808 168.204 173.873 169.14 182.113 156.548 161.041 158.364 152.809 170.956 141.506 171.924 161.865 140.685"/><path class="cls-1" d="M190.80031,167.65992c4.90388-4.72788,16.08759-15.19963,26.20737-22.52745,7.47982-5.42387,16.88758-9.29577,27.95132-11.50373a95.42906,95.42906,0,0,1,16.6236-1.784c.072.072-20.7995,31.51923-20.7995,31.51923l-10.39974.896,6.03186-9.21577-2.62394.232-19.79151,1.744h-.408L202.264,166.61994Zm52.50273-28.2153a68.6665,68.6665,0,0,0-13.27168,4.47189,29.79972,29.79972,0,0,0-8.98379,6.48783l18.81554-1.6,6.43985-9.99175Z"/><path class="cls-1" d="M286.102,166.85994l-9.33578-17.07158-9.17578.728-7.32783,11.19972-10.49574.904,20.47951-31.38325,45.41489-3.90391-12.35971,18.97554c-2.032,1.904-9.96775,2.91992-14.55966,3.11194l-2.176.096,11.91971,19.19953Zm-9.08777-30.27927-5.97585,9.39978,23.27944-1.872,6.19985-9.55177Z"/><path class="cls-1" d="M55.54759,182.33957c-1.552,0-2.47194-.528-1.696-2.56793,3.83191-10.06374,15.39963-25.07139,21.36748-30.66327l.936-.88,3.48791-2.94392c-1.144.04-16.4556,1.79194-29.70328,3.42391l-14.95964,2.032c53.16671-23.51142,106.74141-29.1833,121.82905-29.70328,1.6-.056,3.11192-.08,4.55189-.08s2.53593,0,3.28792.056l.272.688-12.07171,17.05559-19.13553,1.6,4.43989-5.83985-5.23186.432c-.368,0-38.87106,3.9999-53.07871,31.40725,0,0-1.216,2.63194,1.71995,2.71993h.112c2.14394-.072,32.53521-2.59193,34.27117-2.74393l.8-.08,2.70394-3.27993,18.85553-1.656-6.70384,11.37573a9.65572,9.65572,0,0,1-6.11185,3.71192s-69.8463,5.93587-69.9663,5.93587"/><path class="cls-1" d="M305.50153,156.2602c2.47994-5.59986,8.79979-13.94366,12.56769-17.05559,15.95161-13.27168,35.99913-15.86361,46.48688-16.22361.928,0,1.83995-.048,2.72794-.048h1.928l-6.55185,9.25578-9.51976.8,2.15195-2.78394-3.90391.288a50.27011,50.27011,0,0,0-12.4717,2.96792c-8.79978,3.27992-15.29562,8.59979-18.80755,15.36762l-.464.896-.8,1.83995,22.71144-1.89595,4.79988-7.11184-8.47979.736c5.02387-3.19992,14.79964-4.36788,20.51149-4.63189l-8.17581,13.39167a4.74389,4.74389,0,0,1-3.39191,2.39994l-40.519,3.448c-.064,0-1.808.208-.744-1.63995"/><polygon class="cls-1" points="359.084 153.884 358.772 153.916 376.676 126.437 379.164 122.533 414.859 119.453 410.691 125.997 386.284 128.093 382.388 134.077 400.131 132.741 396.147 138.813 378.308 140.349 374.356 146.388 407.843 143.373 403.675 149.908 370.084 152.924 370.076 152.94 366.876 153.22 359.06 153.924 359.084 153.884"/><path class="cls-3" d="M250.35086,89.36583c36.20713-14.11167,165.86-56.39864,165.86-56.39864S288.214,76.77414,247.071,92.24576a23.67416,23.67416,0,0,1,3.27993-2.87993"/><path class="cls-3" d="M262.09457,115.2372l3.35993-4.79989-.192-.496c-.328,0-1.288-.064-2.65594,0-4.79988.168-13.94365,1.368-21.23947,7.44782-1.784,1.496-5.31188,6.11186-6.11187,8.79978a.456.456,0,0,0,0,.432c.12.168.456.256.92.24h.312l18.19155-1.6a1.4075,1.4075,0,0,0,.464-.128,2.60738,2.60738,0,0,0,.552-.288,6.03012,6.03012,0,0,0,.528-.376,1.28016,1.28016,0,0,0,.304-.336l2.05595-3.49591-5.92786.504-.72.872h-.032c-.32,0-7.90381.72-8.4798.744h-.152l-.136-.208.056-.112c3.6879-7.11982,13.48766-7.93582,13.59967-7.9438h.472l-.976,1.26395Z"/><polygon class="cls-3" points="274.51 108.853 267.71 109.493 258.151 124.893 276.35 123.293 279.182 118.653 267.734 119.741 274.51 108.853"/><polygon class="cls-3" points="355.972 101.838 349.172 102.47 339.621 117.869 357.812 116.277 360.644 111.637 349.196 112.717 355.972 101.838"/><polygon class="cls-3" points="299.478 111.093 302.302 106.461 287.902 107.749 278.358 123.125 296.542 121.557 299.366 116.917 287.918 117.997 288.662 116.861 294.462 116.301 296.846 112.413 291.078 112.893 291.782 111.797 299.478 111.093"/><polygon class="cls-3" points="340.773 107.541 343.597 102.901 329.197 104.189 327.949 106.237 319.581 119.693 319.717 119.677 319.701 119.693 324.589 119.245 326.173 119.101 326.301 119.093 337.837 117.997 340.661 113.357 329.213 114.437 329.957 113.301 335.757 112.741 338.141 108.853 332.381 109.333 333.077 108.237 340.773 107.541"/><polygon class="cls-3" points="405.859 97.566 401.867 103.941 397.939 98.278 391.891 98.822 382.308 114.221 388.724 113.637 393.195 106.453 396.579 112.933 402.659 112.397 403.859 110.469 412.187 96.958 405.859 97.566"/><path class="cls-3" d="M432.58644,96.46165a.984.984,0,0,0-.24-.744c-.168-.192-.4-.216-.712-.304a4.62394,4.62394,0,0,0-.984-.064l-16.14361,1.368-1.272,2.008-7.08781,11.38373c0,.096-1.27995,2.136-1.27995,2.136l1.72-.144,16.23959-1.504c1.104-.08,2.16-1.512,2.57592-2.14394l6.82385-10.95974a2.13595,2.13595,0,0,0,.36-1.032m-17.79957,10.52774,3.71993-5.95986,5.12785-.472-3.73594,5.99182Z"/><path class="cls-3" d="M389.56351,99.16559l-.072-.168h-.168c-.488,0-11.92771.056-19.70352,5.97586a121.59922,121.59922,0,0,0-11.87171,10.82373l-.512.528,7.10383-.624,4.64788-4.14389,7.47182-.68-2.47191,3.98388,6.27184-.56,7.84783-12.53571c1.52795-2.39994,1.52795-2.39994,1.456-2.56793m-17.0556,8.79979c.392-.256,2.39994-1.6,3.25593-2.096a29.18418,29.18418,0,0,1,4.90388-1.856l-2.39994,3.42392Z"/><path class="cls-3" d="M298.38969,121.13305l.072.16h.16c.464,0,11.45573-.056,18.92755-5.73588,5.30387-3.9999,9.94375-11.24772,9.94375-11.24772l-6.24785.552s-3.12793,4.98389-6.01584,7.13583a21.12751,21.12751,0,0,1-7.67982,3.79191l6.88782-10.39975-6.76783.6-7.8878,12.67169c-1.464,2.328-1.464,2.328-1.392,2.46393"/></svg>