<?xml version="1.0" encoding="UTF-8" standalone="no"?>
<svg xmlns:rdf="http://www.w3.org/1999/02/22-rdf-syntax-ns#" xmlns="http://www.w3.org/2000/svg" height="275.96986" width="275.77714" version="1.1" xmlns:cc="http://creativecommons.org/ns#" xmlns:dc="http://purl.org/dc/elements/1.1/" viewBox="0 0 275.77714 275.96986"><path d="M0,130.2676c.447-.01383.42642-.34315.4466-.65267.07449-1.142.1551-2.28367.23016-3.42566a123.242,123.242,0,0,1,1.56191-12.242A132.82882,132.82882,0,0,1,8.10584,91.60081a138.28763,138.28763,0,0,1,5.412-13.01914,136.54215,136.54215,0,0,1,9.85917-17.333,141.16955,141.16955,0,0,1,9.16255-12.17668,143.30838,143.30838,0,0,1,11.62909-12.213A130.798,130.798,0,0,1,58.10361,25.48855,132.28057,132.28057,0,0,1,79.88906,12.8082c3.71312-1.70237,7.52909-3.18975,11.34052-4.666a102.45631,102.45631,0,0,1,14.47474-4.34582c3.827-.86357,7.69351-1.568,11.56282-2.2228,2.81544-.47648,5.65952-.79879,8.49972-1.10812,1.63006-.17753,3.27692-.233,4.91791-.27174,3.93777-.093,7.87805-.24054,11.81442-.17927,2.85505.04444,5.70806.358,8.55708.60767,2.278.19963,4.55666.42659,6.82022.74629,2.33894.33034,4.66836.74451,6.98733,1.19694a134.85926,134.85926,0,0,1,19.09675,5.21886c4.14725,1.4644,8.20387,3.14722,12.20307,4.98285a136.03524,136.03524,0,0,1,20.37385,11.6901,134.12762,134.12762,0,0,1,10.98188,8.46142,131.69866,131.69866,0,0,1,9.87539,9.25556q4.55115,4.77057,8.66188,9.93355A122.36271,122.36271,0,0,1,254.072,63.28434c2.10474,3.37032,4.05373,6.84034,6.00236,10.30521A115.94092,115.94092,0,0,1,267.208,89.35681a129.41255,129.41255,0,0,1,5.34826,17.87837c.85291,3.83509,1.57445,7.69129,2.094,11.58714a74.069,74.069,0,0,1,.91934,10.24969,2.75615,2.75615,0,0,0,.20751.736v16.087a1.473,1.473,0,0,0-.20316.50685,56.87013,56.87013,0,0,1-.71694,8.89c-.38846,2.75294-.723,5.52062-1.28106,8.24081-.77369,3.77093-1.68537,7.51584-2.62716,11.24939a110.1635,110.1635,0,0,1-4.59244,13.80013,115.29631,115.29631,0,0,1-6.63221,14.23128c-1.6383,2.89268-3.25379,5.8024-5.01019,8.62308a128.0539,128.0539,0,0,1-8.46834,11.97614c-2.71255,3.41345-5.55858,6.708-8.57436,9.85174a137.28355,137.28355,0,0,1-10.35822,9.74092A141.31035,141.31035,0,0,1,215.658,251.901a136.60058,136.60058,0,0,1-20.35922,11.474c-4.07323,1.858-8.21365,3.53592-12.4453,4.9816a125.15451,125.15451,0,0,1-21.05255,5.347c-3.72367.58452-7.4594,1.111-11.20417,1.53595-2.53714.28786-5.09951.35334-7.6506.51826q-4.94258-.00109-9.88516-.00221l-.68677-.01667-.24309-.00471-.42739-.00384-.68121-.14928-.50407-.01442-.432-.01456c-3.30025-.31534-6.60754-.57175-9.89858-.96436-2.72155-.32469-5.44261-.716-8.13-1.24872-3.25162-.64456-6.48347-1.407-9.69531-2.22983a123.83735,123.83735,0,0,1-15.32914-5.069,110.28181,110.28181,0,0,1-13.30361-6.17651c-3.16055-1.7853-6.32721-3.56493-9.42266-5.459a107.27724,107.27724,0,0,1-12.38769-8.86656c-2.08908-1.72818-4.16343-3.47675-6.189-5.27838-1.91256-1.70113-3.80148-3.435-5.61015-5.245-1.67329-1.67454-3.24985-3.44828-4.82616-5.21652-1.62678-1.82484-3.27006-3.64181-4.78563-5.55753a147.15069,147.15069,0,0,1-9.2934-13.07239A137.35172,137.35172,0,0,1,10.71286,190.9357,131.8752,131.8752,0,0,1,3.90149,169.928,109.36379,109.36379,0,0,1,1.588,157.574c-.307-2.72506-.62321-5.44916-.91054-8.17629-.11178-1.061-.15347-2.12926-.23151-3.19389-.02383-.325.08254-.7332-.446-.7685v-1.6087c.02985-.02336.08863-.05619.08461-.06843A.95728.95728,0,0,0,0,143.59683V130.2676Zm6.01082,7.51075c.07132,72.75111,58.8629,132.06151,131.94756,132.11756,73.4755.05633,132.01623-59.69133,132.12538-131.79838.11011-72.725-59.021-132.102-131.80773-132.24175A132.25448,132.25448,0,0,0,6.01082,137.77835Z" fill="#bac3ca"/><path d="M142.94614,275.7578l-.00166.21206h-9.882l-.00147-.21439Q138.00355,275.75678,142.94614,275.7578Z" fill="#fafbfc"/><path d="M0,131.8763v0Z" fill="#fff"/><path d="M0,143.59683a.95728.95728,0,0,1,.08461.16139c.004.01224-.05476.04507-.08461.06843Z" fill="#fff"/><path d="M6.01082,137.77835A132.25448,132.25448,0,0,1,138.276,5.85578c72.78677.13975,131.91784,59.51671,131.80773,132.24175-.10915,72.107-58.64988,131.85471-132.12538,131.79838C64.87372,269.83986,6.08214,210.52946,6.01082,137.77835Zm235.94844.00542A104.0346,104.0346,0,1,0,137.84834,241.74445,104.20112,104.20112,0,0,0,241.95926,137.78377ZM163.71712,263.32884c2.25254-.557,4.3991-1.08054,6.5414-1.62088a7.83567,7.83567,0,0,0,2.71257-.8136c.71495-.52968,1.03657-1.57181,1.58489-2.35114a1.82165,1.82165,0,0,0,.23842-1.72018c-.37365-1.24241-.73158-2.49418-.99586-3.763a1.80342,1.80342,0,0,0-1.06915-1.35891c-.60713-.30295-1.18174-.67107-1.78918-1.02143a2.75764,2.75764,0,0,1,.26369-.48109,3.99861,3.99861,0,0,0,.67508-4.53734c-.35189-.87875-.3157-2.0037-.86526-2.68761a9.47251,9.47251,0,0,0-2.5025-1.56385,1.61083,1.61083,0,0,0-1.38852-.21556c-2.58384.68125-5.18506,1.29644-7.77841,1.942a6.69239,6.69239,0,0,0-.70734.27125C160.33439,250.06383,162.01883,256.66919,163.71712,263.32884ZM61.75054,241.191c1.81524,1.208,3.55861,2.375,5.30974,3.53031a8.21676,8.21676,0,0,0,2.52146,1.52681,10.57491,10.57491,0,0,0,3.03155-.3829,1.63157,1.63157,0,0,0,1.26872-.8434c.73876-1.16018,1.499-2.30849,2.2983-3.42752a1.67451,1.67451,0,0,0,.28635-1.49879c-.174-.6877-.30216-1.38705-.46223-2.13815.81248-.15059,1.48271-.28559,2.1569-.3964a1.65874,1.65874,0,0,0,1.27788-.83159,23.56807,23.56807,0,0,1,1.64761-2.48183,2.59723,2.59723,0,0,0,.53933-2.74448,5.60139,5.60139,0,0,1-.27943-1.34258,1.89945,1.89945,0,0,0-.95961-1.448c-2.123-1.36057-4.21274-2.773-6.31737-4.1623-.242-.15979-.49926-.29661-.78262-.46364ZM189.72322,43.037c1.67481-3.04537,3.30351-6.00686,4.9322-8.96834l.15924.087q-.81511,5.37832-1.633,10.77506l3.66443,1.99746c3.30665-6.05692,6.57911-12.05115,9.887-18.11041l-3.82739-2.06638c-1.64789,3.00674-3.23239,5.89785-4.81689,8.789l-.16253-.08084c.50527-3.51545,1.01053-7.0309,1.52539-10.61311l-3.64654-1.98067c-3.31945,6.08-6.57824,12.049-9.88314,18.10234ZM200.389,49.24761c1.79012,1.37021,3.56146,2.59077,5.17029,3.99723,1.47443,1.289,2.97982,2.0738,4.9587,1.42656a.63954.63954,0,0,1,.22837-.01729,1.686,1.686,0,0,0,1.51875-.82294c2.32387-3.08964,4.68392-6.15206,7.02559-9.22838a7.49548,7.49548,0,0,0,1.55736-2.23374,8.9266,8.9266,0,0,0-.249-2.70944,2.28085,2.28085,0,0,0-1.064-1.77621c-1.58119-1.14383-3.11413-2.35429-4.66755-3.53655-.63612-.48412-1.275-.96459-1.96461-1.486ZM111.4946,263.244c1.62862.26387,3.1968.51795,4.91535.79641a11.23844,11.23844,0,0,1,2.4359-6.86357c.14122,2.52307.27462,4.90622.41027,7.32985,1.741.18094,3.34761.64986,5.0507.67224-.39811-3.91545-.767-7.684-1.1776-11.4481a2.701,2.701,0,0,1,.38977-1.7318c1.17812-2.05769,2.32235-4.13489,3.47367-6.20784.14055-.25308.24707-.525.42905-.91668l-4.78819-.71755-4.12383,8.37784-.23391-.08629c.46534-2.89667.93066-5.79333,1.40918-8.772-1.59328-.25883-3.12634-.50788-4.784-.77714C113.76456,249.68665,112.63733,256.419,111.4946,263.244Zm60.44513-242.3292.81473-3.82553q-.73014-1.16317-1.46075-2.32605c-.08145-.12937-.18186-.24811-.25245-.38279a1.247,1.247,0,0,0-.98594-.67366c-1.05219-.18744-2.089-.45913-3.13609-.67774a8.26511,8.26511,0,0,0-2.89067-.48973,9.76991,9.76991,0,0,0-2.57393,1.45123,1.57775,1.57775,0,0,0-.81073,1.16234c-.81982,3.77109-1.67137,7.53527-2.49694,11.30513a7.78489,7.78489,0,0,0-.46907,2.90461,9.46956,9.46956,0,0,0,1.51712,2.52923,1.60172,1.60172,0,0,0,1.16064.80959q2.63872.53907,5.25812,1.17032a1.40016,1.40016,0,0,0,1.18093-.21559c.70737-.45488,1.42294-.89812,2.14922-1.322a1.32207,1.32207,0,0,0,.68977-.97633c.27616-1.42509.61288-2.83843.92543-4.25648.268-1.21614.53514-2.43247.81625-3.71048l-6.26977-1.3733c-.29547,1.3857-.56163,2.634-.82581,3.873l1.43209.4526c-.182.85709-.32222,1.64538-.52156,2.41844a1.15151,1.15151,0,0,1-1.51932.81741,1.13674,1.13674,0,0,1-.879-1.37594q1.1211-5.15278,2.27578-10.29824a1.23843,1.23843,0,1,1,2.42293.51392c-.08388.4772-.192.95013-.30445,1.4992,1.427.32521,2.76137.632,4.09756.93059A6.17136,6.17136,0,0,0,171.93973,20.91478Zm59.56785,37.04135a6.13392,6.13392,0,0,0,.49409-.41751c.72938-.727,1.7265-1.34754,2.09487-2.22888.36962-.8843.09179-2.03276.13174-3.06414a1.48485,1.48485,0,0,0-.48191-1.21709,26.84981,26.84981,0,0,1-2.30355-2.40352,4.11329,4.11329,0,0,0-4.098-1.86866,2.31572,2.31572,0,0,1-.79991-.04382,1.26782,1.26782,0,0,0-1.21946.4508c-1.05564,1.056-2.14112,2.08225-3.21533,3.11971-1.75479,1.69474-1.7376,1.69443-1.71418,4.13984a1.69313,1.69313,0,0,0,.5703,1.30108c.74168.71935,1.46054,1.46409,2.15786,2.22666a.85872.85872,0,0,1-.02317,1.39062c-.502.52587-1.02214,1.03767-1.56729,1.51826a1.11928,1.11928,0,0,1-1.62412-.08869,1.02072,1.02072,0,0,1-.01484-1.60333,14.63768,14.63768,0,0,1,1.19005-.983l-3.61348-3.51561c-.73081.7-1.49313,1.45285-2.28267,2.176a1.34245,1.34245,0,0,0-.43991,1.12234c.02226.80369.028,1.60924-.00176,2.41245a1.50973,1.50973,0,0,0,.48778,1.21837q1.86909,1.86691,3.67548,3.79619a1.47724,1.47724,0,0,0,1.18525.54743c.84141-.015,1.68646.00312,2.52509.06927a1.30092,1.30092,0,0,0,1.11827-.42134c1.08538-1.08051,2.1978-2.13385,3.29751-3.2,1.76-1.70622,1.74789-1.70686,1.7091-4.14051a1.58282,1.58282,0,0,0-.48866-1.21706c-.76761-.74754-1.50572-1.52673-2.23125-2.31562a.84842.84842,0,0,1,.01372-1.381c.47629-.49754.97026-.9808,1.48526-1.4379a1.12479,1.12479,0,0,1,1.63087.03411,1.1565,1.1565,0,0,1-.12167,1.62922c-.33019.34733-.671.68454-1.08508,1.10556C229.16665,55.79228,230.31327,56.85216,231.50758,57.95613ZM109.41505,248.41041c.38715-1.20543.75334-2.28847,1.07237-3.38522a1.19219,1.19219,0,0,0-.07718-.76193c-.833-1.82165-1.68089-3.6336-4.09194-3.75788a4.61768,4.61768,0,0,1-.98065-.30758,8.07966,8.07966,0,0,0-2.73839-.71657,10.7045,10.7045,0,0,0-2.7002,1.18131,1.74353,1.74353,0,0,0-1.041,1.24863c-.40578,1.35324-.844,2.69684-1.27871,4.04119-.781,2.41485-.77168,2.40691.45121,4.55387a1.45,1.45,0,0,0,.93779.74527c.99111.282,1.97409.59476,2.95253.91869.80675.26707.98351.58082.76134,1.36506-.18719.66074-.40486,1.31419-.64023,1.95951a1.12384,1.12384,0,0,1-1.53337.728,1.10217,1.10217,0,0,1-.72885-1.44785c.1244-.47138.29365-.93092.46441-1.463-.83126-.27122-1.585-.52426-2.34347-.76266-.75248-.23657-1.50962-.45836-2.29639-.69623-.13556.37042-.25281.64986-.34061.93825a8.23,8.23,0,0,0-.76685,2.83739c.08577.91653.84606,1.76159,1.2673,2.65837a1.54974,1.54974,0,0,0,1.0771.91671c.957.26109,1.89391.59462,2.84374.88295a8.2246,8.2246,0,0,0,2.84842.757,9.98719,9.98719,0,0,0,2.79854-1.24485,1.5315,1.5315,0,0,0,.92128-1.06951,34.88188,34.88188,0,0,1,1.40659-4.35777,4.04354,4.04354,0,0,0-.45524-4.361,2.02077,2.02077,0,0,0-1.11178-.87561c-.99019-.28544-1.97728-.58519-2.95271-.917-.7185-.24443-.87027-.56744-.66314-1.29857.17689-.62433.36733-1.24616.58509-1.85722a1.13323,1.13323,0,1,1,2.13341.72995c-.12022.43292-.26582.8588-.42571,1.37ZM105.18879,28.90719c.08139.41465.1233.71174.19927.99985a7.93921,7.93921,0,0,0,.84074,2.8118,9.85245,9.85245,0,0,0,2.57665,1.657,1.4439,1.4439,0,0,0,1.29605.15837c.98917-.28821,2.00071-.49893,3.00024-.75256a7.88406,7.88406,0,0,0,2.72075-.78733,9.83073,9.83073,0,0,0,1.67691-2.42291,1.59856,1.59856,0,0,0,.25384-1.491c-.40816-1.4316-.71144-2.89285-1.06918-4.33914-.58935-2.38271-.59753-2.37441-2.70734-3.56224a1.5281,1.5281,0,0,0-1.29586-.18536c-.98607.29715-1.99248.53081-2.99755.75964-.81546.18565-1.14256-.01029-1.36527-.79366-.17746-.62423-.33217-1.25605-.46783-1.89073a1.13611,1.13611,0,1,1,2.20771-.53326c.13729.466.24384.94111.37734,1.46386.86663-.20057,1.64625-.37024,2.42007-.56315.76261-.1901,1.51935-.40374,2.31745-.61744-.28807-1.191-.52657-2.26866-.8212-3.33077a1.29941,1.29941,0,0,0-.50812-.703,10.39516,10.39516,0,0,0-2.89477-1.58332c-.80353-.181-1.76314.32825-2.65279.53329-.29777.06863-.59524.13951-.89021.21915a8.612,8.612,0,0,0-2.81846.844A9.72641,9.72641,0,0,0,102.918,17.233a1.49646,1.49646,0,0,0-.236,1.38267c.398,1.43473.72,2.89044,1.079,4.33612.58459,2.35388.58691,2.35327,2.7331,3.53231a1.00471,1.00471,0,0,1,.09556.06351,1.17066,1.17066,0,0,0,1.07765.13113c1.02994-.28533,2.07225-.53081,3.118-.753.825-.17528,1.11686.01933,1.33367.82.16966.6266.33338,1.25614.46315,1.89185a1.18776,1.18776,0,1,1-2.31294.53824c-.13667-.46118-.27043-.92323-.416-1.42084ZM89.45686,42.27924c-.33925-.3592-.58791-.63758-.85234-.90008-2.09167-2.07635-4.18-4.15617-6.28545-6.21846a3.10755,3.10755,0,0,1-.85966-1.447c-.5598-2.02568-1.1557-4.04144-1.74576-6.05867-.2877-.98355-.59276-1.962-.91909-3.03889l-4.18369,2.45544c.90693,2.51065,1.75943,4.87066,2.61194,7.23067l-.16162.09553-5.06459-5.798-4.29436,2.52335c.30048.33309.49643.56345.706.78062,1.94029,2.0102,3.89625,4.00556,5.81272,6.03816a3.55082,3.55082,0,0,1,.78738,1.34585c.77348,2.52052,1.49076,5.05825,2.23179,7.58877.20137.68763.41715,1.371.6627,2.17555l4.26182-2.49473c-.84575-2.53459-1.66279-4.98312-2.47983-7.43166l.1845-.10272,5.25538,5.79792ZM86.72154,20.944c1.63941,6.76911,3.26245,13.47053,4.9093,20.2703l4.2589-1.73873-1.08156-4.05978,2.69175-1.07951,2.03825,3.67993,4.485-1.83982c-3.55946-6.04751-7.0471-11.973-10.57-17.95838ZM193.16191,253.61186c-3.63665-5.98246-7.22588-11.88694-10.85824-17.86233-2.206.90307-4.38087,1.7934-6.65005,2.72231,1.71813,6.76126,3.41581,13.442,5.13773,20.2181,1.51778-.622,2.87642-1.17884,4.27684-1.75275l-1.1584-4.04,2.70394-1.09919,2.066,3.6683C190.20322,254.836,191.63925,254.24183,193.16191,253.61186ZM88.60438,256.26727c2.09495-6.71643,4.14914-13.30216,6.21356-19.92065l-6.48739-3.063L76.53964,250.544l4.11494,1.97423c.79537-1.20916,1.56049-2.37234,2.33038-3.54279l2.60232,1.25587-1.39059,3.96494C85.70568,254.9053,87.08118,255.55157,88.60438,256.26727ZM153.62852,27.26554l-5.30119-.48368c.05225-.79782.08425-1.48341.14557-2.16637.05971-.665.14949-1.3273.227-1.99925l4.6718.33423c.11146-1.42025.215-2.73914.3251-4.14239l-4.726-.44008.31821-3.69942,5.27507.39416.3284-4.18444-10.15943-.81456c-.55229,6.90306-1.0948,13.68385-1.645,20.56088l10.21664.8165C153.41583,30.0078,153.5184,28.6853,153.62852,27.26554ZM54.57244,41.06461l12.81021,16.176,8.04843-6.37452L72.80772,47.5662,68.59327,50.878,65.9938,47.59,69.685,44.60369,67.0865,41.33328,63.35305,44.258l-2.30688-2.91249,4.139-3.32084-2.622-3.2901Zm133.4154-17.08556L189.456,20.036l-9.55108-3.56836c-2.41708,6.4761-4.80035,12.86159-7.21417,19.329L182.301,39.382l1.46229-3.9377-5.00658-1.91669,1.48174-3.92081,4.43954,1.62924,1.46385-3.91171-4.428-1.69318c.44658-1.18528.86881-2.30591,1.31106-3.47971ZM130.263,265.64884c3.55553.10337,6.938.25416,10.32435.179v-4.24744h-5.167V257.3158h4.69457v-4.17667h-4.53551v-3.73024H140.832c.01016-1.41109.07351-2.75777.02743-4.2225H130.744C130.58519,251.94243,130.42552,258.73522,130.263,265.64884ZM47.24542,54.28414,58.95384,65.55359l3.39025-3.52237L50.66221,50.754l2.4484-2.605-3.14438-3.00556-8.35445,8.6744,3.10332,2.98056ZM154.47329,264.74066c-.6232-5.41124-1.23415-10.716-1.85551-16.11124,1.18915-.16156,2.30733-.3135,3.5256-.479-.171-1.4702-.33161-2.85111-.49878-4.28846-4.03837.44807-7.93435.88035-11.904,1.32082.17185,1.52429.32719,2.90211.48517,4.30332,1.2552-.12217,2.346-.22833,3.52348-.34292.61609,5.40386,1.22466,10.7416,1.84029,16.14139C151.29147,265.095,152.8364,264.923,154.47329,264.74066ZM130.06457,30.97737l9.10509-.42529V26.45435h-4.40274c-.28628-5.45376-.43711-10.86144-.75267-16.3043l-4.86484.22775C129.45658,17.29187,129.75823,24.0816,130.06457,30.97737ZM187.78282,233.1271c3.48633,5.99,6.93426,11.91408,10.40627,17.87952,2.747-1.58,5.35321-3.079,8.03986-4.62426-.73711-1.24521-1.427-2.41069-2.14817-3.629-1.32278.7451-2.53928,1.4303-3.81789,2.15049-2.78021-4.76177-5.51105-9.439-8.27786-14.17779Zm24.5875,3.77458c-3.32724-4.42186-6.58378-8.74978-9.878-13.12781l-3.87663,2.87507c4.17807,5.56369,8.28409,11.03143,12.42143,16.54085,2.51054-1.8749,4.92213-3.6759,7.40154-5.52758-.8869-1.16138-1.71069-2.24018-2.57019-3.36571C214.6794,235.182,213.57892,236.00159,212.37032,236.90168Z" fill="#022c5d"/><path d="M131.70373,275.73037q-.341-.07517-.68162-.14978Q131.36332,275.656,131.70373,275.73037Z" fill="#fafbfc"/><path d="M130.51845,275.56667q-.21614-.00757-.43212-.01486Q130.30254,275.55955,130.51845,275.56667Z" fill="#fafbfc"/><path d="M132.37421,275.73892l-.243-.00465Z" fill="#fafbfc"/><path d="M241.95926,137.78377a104.03475,104.03475,0,1,1-102.84541-104.071A104.16788,104.16788,0,0,1,241.95926,137.78377ZM69.37215,69.60577a35.79128,35.79128,0,0,1,9.95671-3.71019A119.83437,119.83437,0,0,1,96.59694,63.6642a26.3812,26.3812,0,0,0,14.41764-5.337,13.793,13.793,0,0,0,3.059-3.08055,5.38709,5.38709,0,0,0-.56114-7.12682,14.14839,14.14839,0,0,0-3.60435-2.61966,2.54772,2.54772,0,0,0-2.26991-.18937A103.44246,103.44246,0,0,0,92.27211,51.929a98.08671,98.08671,0,0,0-23.37841,17.43l-.79313.75286.1738.19177Zm-1.5079,88.48579L77.63,174.04683c2.98642-.49389,5.88855-.97883,8.79248-1.45271,2.9441-.48043,5.89018-.94877,8.835-1.42462q4.36074-.70461,8.72082-1.41334c2.90664-.47019,5.79987-1.03771,8.86028-1.38779-.21591.54584-.348.90238-.4966,1.25191-1.40713,3.30981-2.86331,6.59979-4.20625,9.93538a10.65445,10.65445,0,0,1-2.91755,4.0551c-.54455.4822-1.0887.96657-1.65668,1.42037A138.20773,138.20773,0,0,1,87.7069,195.58844c-.42292.25143-.83951.51352-1.34722.82471l9.73166,15.90452c.35623-.04459.65683-.07189.95382-.121q5.20745-.86085,10.414-1.7273,8.60336-1.42674,17.20681-2.85281,8.65866-1.43883,17.31633-2.88366,7.97943-1.32764,15.9594-2.652,8.65917-1.43823,17.31843-2.87593c5.32-.88485,10.63642-1.79171,15.96247-2.63815a2.40956,2.40956,0,0,0,1.66432-1.03732q13.17548-17.32727,26.37057-34.63964c.2515-.33027.48419-.67487.74474-1.03949l-8.3718-13.77277c-.30822.14734-.5163.23645-.71489.34325q-9.20594,4.95051-18.83059,9.02742a139.3023,139.3023,0,0,1-23.00531,7.80151c-1.16741.26979-2.35007.47343-3.68894.74022.20966-.51986.33144-.83555.46336-1.147q11.08059-26.1586,22.17751-52.31027a12.07935,12.07935,0,0,1,1.49185-2.55925q10.50072-13.80552,21.04719-27.57627c.25246-.33052.49055-.672.76282-1.04618q-5.19672-8.475-10.321-16.832a1.76342,1.76342,0,0,0-.41242-.04623Q128.5195,74.90353,56.44093,87.34484a6.29862,6.29862,0,0,0-.663.17959.1879.1879,0,0,0-.09278.06524.87313.87313,0,0,0-.05009.2023q12.53972,19.61293,25.25739,39.50418c.2473-.50958.3675-.82434.542-1.10543.86542-1.39435,1.65147-2.85139,2.64352-4.15034a7.78128,7.78128,0,0,1,5.00494-2.98652c2.06941-.36518,4.11214-.88193,6.166-1.33484,1.36933-.302,2.73765-.60847,4.24825-.94448-.21262.53947-.35445.92479-.51473,1.30228-3.3047,7.783-6.62687,15.55871-9.90378,23.35343a10.335,10.335,0,0,1-2.5251,3.64641c-.72973.67631-1.46963,1.34555-2.24493,1.96821a140.11659,140.11659,0,0,1-15.208,10.28937C68.71606,157.56769,68.33335,157.80409,67.86425,158.09156Zm1.44653-42.01142c-.22524.171-.38291.276-.524.3999a109.66108,109.66108,0,0,0-8.32853,8.06875A78.46428,78.46428,0,0,0,48.4777,141.18471a49.09354,49.09354,0,0,0-5.19755,15.0089,8.909,8.909,0,0,0-.16232,3.5232,95.426,95.426,0,0,0,9.78327,25.40887A97.56206,97.56206,0,0,0,92.12393,223.784c.31877.17362.65633.31275,1.01167.48052.018-.1722.04965-.24921.02874-.30728a40.74237,40.74237,0,0,1-2.19308-11.33911,6.52861,6.52861,0,0,0-1.0385-3.2121c-1.85433-2.90334-3.61611-5.86582-5.41234-8.80623-1.05362-1.7248-2.1036-3.45183-3.20765-5.26392.427-.25581.776-.47583,1.13488-.67821,4.93805-2.78415,9.78418-5.71743,14.44378-8.94984a42.21068,42.21068,0,0,0,6.54979-5.21309,6.745,6.745,0,0,0,1.21-1.77935c.68439-1.453,1.2811-2.94756,1.90228-4.4299.12339-.29445.19671-.60989.336-1.05153-1.88415.31535-3.60963.612-5.3378.892-8.26553,1.33929-16.53375,2.66223-24.79419,4.03206a1.13,1.13,0,0,1-1.38939-.59339q-5.96574-9.81442-11.972-19.60425c-.18962-.3104-.33992-.64485-.52255-.995.35451-.2191.612-.37745.86873-.537,4.09617-2.54571,8.22213-5.04511,12.27812-7.65333a59.07889,59.07889,0,0,0,8.02228-6.13236,6.77777,6.77777,0,0,0,1.68589-2.42365c2.42072-5.7487,4.87492-11.48328,7.31309-17.22464a8.936,8.936,0,0,0,.25353-.8584c-1.26542.26689-2.36944.569-3.49376.71679a4.19715,4.19715,0,0,0-2.56631,1.385,13.38616,13.38616,0,0,0-2.81393,4.69625c-.72493,1.97536-1.41469,3.96363-2.12638,5.9439-.094.26169-.22736.50926-.39673.88312C77.65525,129.12715,73.4958,122.62364,69.31078,116.08014ZM171.8705,158.79135l.20827.1907c14.42353-4.167,27.95518-10.439,41.10032-17.64787.16922.25672.27849.41144.3766.57293q5.27733,8.68754,10.55755,17.3733c.67533,1.10769.62914,1.04863-.08815,1.98889q-8.84826,11.59907-17.68456,23.20728-5.63757,7.40227-11.26274,14.81394a2.02428,2.02428,0,0,1-1.49211.90516c-1.3277.15189-2.6422.4206-3.96119.64665-1.45761.2498-2.9141.50606-4.43313.77028.17589,7.74571.12335,15.37415-2.55318,22.85832.47161-.22718.75182-.34938,1.02036-.49335a97.61234,97.61234,0,0,0,29.44632-24.035,96.108,96.108,0,0,0,19.73973-39.6222,6.486,6.486,0,0,0,.11138-2.15454,45.73983,45.73983,0,0,0-4.17523-14.37185,77.65448,77.65448,0,0,0-15.29309-21.38758A121.77072,121.77072,0,0,0,199.182,109.9996c-1.3093-.97869-2.627-1.94622-3.99558-2.95946-.85856,1.11739-1.6736,2.12872-2.43,3.18212a9.90366,9.90366,0,0,0-1.09629,1.86663q-9.20568,21.66021-18.37859,43.33436C172.80655,156.544,172.34061,157.66855,171.8705,158.79135Zm8.28779,43.74509c-1.56977.14265-83.70161,13.63933-84.55192,14.15048.07941.88726.10254,1.80951.25458,2.71.34341,2.034.74937,4.05742,1.13238,6.08469a1.53676,1.53676,0,0,0,1.04657,1.24186c.89346.3392,1.757.75624,2.63956,1.12527a97.22462,97.22462,0,0,0,55.1499,5.83416,98.70377,98.70377,0,0,0,21.87128-6.78666,2.15886,2.15886,0,0,0,1.31937-1.56606,46.80057,46.80057,0,0,0,1.34491-8.60374,102.51357,102.51357,0,0,0-.00782-12.62307C180.33354,203.57722,180.2261,203.05481,180.15829,202.53644ZM162.81422,43.873a95.67456,95.67456,0,0,0-49.81214-.12512c.50173.293.81407.48549,1.13552.66136a15.16289,15.16289,0,0,1,4.34628,3.3434,6.83568,6.83568,0,0,1,1.743,4.27092,6.5481,6.5481,0,0,1-2.15654,5.13167,35.52486,35.52486,0,0,1-12.4119,7.888A44.8029,44.8029,0,0,1,92.851,67.46854c-3.93782.27316-7.83458.80374-11.72353,1.44571a44.20979,44.20979,0,0,0-18.48253,7.715,4.1518,4.1518,0,0,0-.92748.84139c-1.3169,1.73989-2.60745,3.4998-3.898,5.25946a7.17722,7.17722,0,0,0-.42976.81808l110.7476-19.13338a1.2449,1.2449,0,0,0-.58721-.537,36.189,36.189,0,0,1-7.452-4.72443,20.33941,20.33941,0,0,1-2.80674-2.69818,6.46987,6.46987,0,0,1-.03011-8.44435,14.28814,14.28814,0,0,1,4.268-3.43379C161.95391,44.33595,162.3857,44.10734,162.81422,43.873Zm35.18349,59.4704c.44626.35548.76665.62228,1.0988.87353a161.6548,161.6548,0,0,1,13.78081,11.42761A89.04325,89.04325,0,0,1,226.59043,131.8a52.63314,52.63314,0,0,1,7.47983,17.16191c.13174.589.25745,1.17938.386,1.76911a95.82071,95.82071,0,0,0-18.40052-71.01273C210.04685,87.57966,204.05857,95.41405,197.99771,103.3434ZM52.958,90.49879a96.96069,96.96069,0,0,0-11.47644,59.727,1.45719,1.45719,0,0,0,.28565-.60237,51.56546,51.56546,0,0,1,7.50721-17.63318,92.47645,92.47645,0,0,1,16.62895-18.90842c.304-.27076.59406-.55721.93362-.87683C62.213,104.97328,57.646,97.83061,52.958,90.49879Zm142.90476-30.8879c-.38077-.30387-.55237-.4523-.73531-.58512a98.12211,98.12211,0,0,0-11.4712-7.17963,92.94964,92.94964,0,0,0-15.71853-6.65356,1.69748,1.69748,0,0,0-1.08722-.04194,12.36651,12.36651,0,0,0-4.73452,3.35142,5.21737,5.21737,0,0,0-.49255,6.2929,12.31171,12.31171,0,0,0,2.2131,2.61188,25.10482,25.10482,0,0,0,11.0508,5.57482,3.40356,3.40356,0,0,0,1.23138.03412q5.71026-.95035,11.41328-1.94434C190.23187,60.60519,192.92945,60.12569,195.86277,59.61089Z" fill="#b8c2c9"/><path d="M163.71712,263.32884c-1.69829-6.65965-3.38273-13.265-5.08017-19.92132a6.69239,6.69239,0,0,1,.70734-.27125c2.59335-.64554,5.19457-1.26073,7.77841-1.942a1.61083,1.61083,0,0,1,1.38852.21556,9.47251,9.47251,0,0,1,2.5025,1.56385c.54956.68391.51337,1.80886.86526,2.68761a3.99861,3.99861,0,0,1-.67508,4.53734,2.75764,2.75764,0,0,0-.26369.48109c.60744.35036,1.18205.71848,1.78918,1.02143a1.80342,1.80342,0,0,1,1.06915,1.35891c.26428,1.26878.62221,2.52055.99586,3.763a1.82165,1.82165,0,0,1-.23842,1.72018c-.54832.77933-.86994,1.82146-1.58489,2.35114a7.83567,7.83567,0,0,1-2.71257.8136C168.11622,262.2483,165.96966,262.77184,163.71712,263.32884Zm2.61878-9.51151c.41275,1.577.81194,3.10221,1.21937,4.65884.47081-.10607.84166-.16823,1.19936-.27458a1.11821,1.11821,0,0,0,.89283-1.51935c-.146-.62809-.31748-1.25026-.4794-1.87462-.36007-1.38846-.70545-1.58533-2.10895-1.20162C166.846,253.66427,166.6348,253.72972,166.3359,253.81733Zm-.95371-3.692c.47081-.10425.84077-.16414,1.19734-.26946a1.112,1.112,0,0,0,.92211-1.51982c-.14745-.66723-.31548-1.33153-.51225-1.98577a1.12571,1.12571,0,0,0-1.47338-.86946c-.3938.0871-.77562.22855-1.22654.36469C164.65486,247.27668,164.99975,248.62749,165.38219,250.12535Z" fill="#fbfcfd"/><path d="M61.75054,241.191l11.53658-17.10447c.28336.167.54057.30385.78262.46364,2.10463,1.38931,4.19437,2.80173,6.31737,4.1623a1.89945,1.89945,0,0,1,.95961,1.448,5.60139,5.60139,0,0,0,.27943,1.34258,2.59723,2.59723,0,0,1-.53933,2.74448,23.56807,23.56807,0,0,0-1.64761,2.48183,1.65874,1.65874,0,0,1-1.27788.83159c-.67419.11081-1.34442.24581-2.1569.3964.16007.7511.28822,1.45045.46223,2.13815a1.67451,1.67451,0,0,1-.28635,1.49879c-.79928,1.119-1.55954,2.26734-2.2983,3.42752a1.63157,1.63157,0,0,1-1.26872.8434,10.57491,10.57491,0,0,1-3.03155.3829,8.21676,8.21676,0,0,1-2.52146-1.52681C65.30915,243.566,63.56578,242.39891,61.75054,241.191Zm6.17782-.48549c.36306.262.65814.49915.97629.69971a1.116,1.116,0,0,0,1.74955-.33779q.69743-.97973,1.34043-1.99783a1.10561,1.10561,0,0,0-.39536-1.72543c-.30333-.20861-.62726-.38725-.99284-.61067C69.69942,238.07867,68.82955,239.36885,67.92836,240.70546Zm4.80935-7.14572c.395.28026.69366.51634,1.01527.71538a1.09723,1.09723,0,0,0,1.66847-.31562c.42463-.58971.83107-1.19471,1.209-1.81523a1.08538,1.08538,0,0,0-.3282-1.58052c-.32975-.24071-.68975-.44-1.09976-.698Z" fill="#fbfcfd"/><path d="M189.72322,43.037,185.922,40.968c3.3049-6.05339,6.56369-12.02232,9.88314-18.10234l3.64654,1.98067c-.51486,3.58221-1.02012,7.09766-1.52539,10.61311l.16253.08084c1.5845-2.89111,3.169-5.78222,4.81689-8.789l3.82739,2.06638c-3.30793,6.05926-6.58039,12.05349-9.887,18.11041l-3.66443-1.99746q.8193-5.40594,1.633-10.77506l-.15924-.087C193.02673,37.03012,191.398,39.99161,189.72322,43.037Z" fill="#fbfcfc"/><path d="M200.389,49.24761l12.51393-16.38677c.6896.52142,1.32849,1.00189,1.96461,1.486,1.55342,1.18226,3.08636,2.39272,4.66755,3.53655a2.28085,2.28085,0,0,1,1.064,1.77621,8.9266,8.9266,0,0,1,.249,2.70944,7.49548,7.49548,0,0,1-1.55736,2.23374c-2.34167,3.07632-4.70172,6.13874-7.02559,9.22838a1.686,1.686,0,0,1-1.51875.82294.63954.63954,0,0,0-.22837.01729c-1.97888.64724-3.48427-.13756-4.9587-1.42656C203.95047,51.83838,202.17913,50.61782,200.389,49.24761ZM214.38111,38.991c-2.58294,3.38276-5.125,6.712-7.69231,10.07424.18966.17586.3243.30367.46208.428.989.89243,1.679.81663,2.5113-.33226,1.74692-2.41131,3.55035-4.78562,5.42185-7.10135C216.37851,40.45787,215.96013,39.86288,214.38111,38.991Z" fill="#fbfcfd"/><path d="M111.4946,263.244c1.14273-6.825,2.27-13.55733,3.40639-20.34468,1.65763.26926,3.19069.51831,4.784.77714-.47852,2.97872-.94384,5.87538-1.40918,8.772l.23391.08629,4.12383-8.37784,4.78819.71755c-.182.39165-.2885.6636-.42905.91668-1.15132,2.073-2.29555,4.15015-3.47367,6.20784a2.701,2.701,0,0,0-.38977,1.7318c.4106,3.76405.77949,7.53265,1.1776,11.4481-1.70309-.02238-3.3097-.4913-5.0507-.67224-.13565-2.42363-.269-4.80678-.41027-7.32985a11.23844,11.23844,0,0,0-2.4359,6.86357C114.6914,263.76193,113.12322,263.50785,111.4946,263.244Z" fill="#fafcfc"/><path d="M171.93973,20.91478a6.17136,6.17136,0,0,1-.65595-.0663c-1.33619-.2986-2.67054-.60538-4.09756-.93059.11245-.54907.22057-1.022.30445-1.4992a1.23843,1.23843,0,1,0-2.42293-.51392q-1.1568,5.1449-2.27578,10.29824a1.13674,1.13674,0,0,0,.879,1.37594,1.15151,1.15151,0,0,0,1.51932-.81741c.19934-.77306.33957-1.56135.52156-2.41844l-1.43209-.4526c.26418-1.239.53034-2.48727.82581-3.873l6.26977,1.3733c-.28111,1.278-.54823,2.49434-.81625,3.71048-.31255,1.418-.64927,2.83139-.92543,4.25648a1.32207,1.32207,0,0,1-.68977.97633c-.72628.4239-1.44185.86714-2.14922,1.322a1.40016,1.40016,0,0,1-1.18093.21559q-2.61778-.63269-5.25812-1.17032a1.60172,1.60172,0,0,1-1.16064-.80959,9.46956,9.46956,0,0,1-1.51712-2.52923A7.78489,7.78489,0,0,1,158.147,26.458c.82557-3.76986,1.67712-7.534,2.49694-11.30513a1.57775,1.57775,0,0,1,.81073-1.16234,9.76991,9.76991,0,0,1,2.57393-1.45123,8.26511,8.26511,0,0,1,2.89067.48973c1.047.21861,2.0839.4903,3.13609.67774a1.247,1.247,0,0,1,.98594.67366c.07059.13468.171.25342.25245.38279q.73165,1.16223,1.46073,2.326C172.48622,18.34872,172.218,19.60821,171.93973,20.91478Z" fill="#fbfcfd"/><path d="M231.50758,57.95613c-1.19431-1.104-2.34093-2.16385-3.559-3.28982.414-.421.75489-.75823,1.08508-1.10556a1.1565,1.1565,0,0,0,.12167-1.62922,1.12479,1.12479,0,0,0-1.63087-.03411c-.515.4571-1.009.94036-1.48526,1.4379a.84842.84842,0,0,0-.01372,1.381c.72553.78889,1.46364,1.56808,2.23125,2.31562a1.58282,1.58282,0,0,1,.48866,1.21706c.03879,2.43365.05085,2.43429-1.7091,4.14051-1.09971,1.06615-2.21213,2.11949-3.29751,3.2a1.30092,1.30092,0,0,1-1.11827.42134c-.83863-.06615-1.68368-.08431-2.52509-.06927a1.47724,1.47724,0,0,1-1.18525-.54743Q217.101,63.469,215.23467,61.598a1.50973,1.50973,0,0,1-.48778-1.21837c.02972-.80321.024-1.60876.00176-2.41245a1.34245,1.34245,0,0,1,.43991-1.12234c.78954-.72314,1.55186-1.476,2.28267-2.176l3.61348,3.51561a14.63768,14.63768,0,0,0-1.19005.983,1.02072,1.02072,0,0,0,.01484,1.60333,1.11928,1.11928,0,0,0,1.62412.08869c.54515-.48059,1.06526-.99239,1.56729-1.51826a.85872.85872,0,0,0,.02317-1.39062c-.69732-.76257-1.41618-1.50731-2.15786-2.22666a1.69313,1.69313,0,0,1-.5703-1.30108c-.02342-2.44541-.04061-2.4451,1.71418-4.13984,1.07421-1.03746,2.15969-2.06368,3.21533-3.11971a1.26782,1.26782,0,0,1,1.21946-.4508,2.31572,2.31572,0,0,0,.79991.04382,4.11329,4.11329,0,0,1,4.098,1.86866,26.84981,26.84981,0,0,0,2.30355,2.40352,1.48485,1.48485,0,0,1,.48191,1.21709c-.04,1.03138.23788,2.17984-.13174,3.06414-.36837.88134-1.36549,1.50193-2.09487,2.22888A6.13392,6.13392,0,0,1,231.50758,57.95613Z" fill="#fafbfc"/><path d="M109.41505,248.41041l-4.64527-1.44832c.15989-.51119.30549-.93707.42571-1.37a1.13323,1.13323,0,1,0-2.13341-.72995c-.21776.61106-.4082,1.23289-.58509,1.85722-.20713.73113-.05536,1.05414.66314,1.29857.97543.33182,1.96252.63157,2.95271.917a2.02077,2.02077,0,0,1,1.11178.87561,4.04354,4.04354,0,0,1,.45524,4.361,34.88188,34.88188,0,0,0-1.40659,4.35777,1.5315,1.5315,0,0,1-.92128,1.06951,9.98719,9.98719,0,0,1-2.79854,1.24485,8.2246,8.2246,0,0,1-2.84842-.757c-.94983-.28833-1.88678-.62186-2.84374-.88295a1.54974,1.54974,0,0,1-1.0771-.91671c-.42124-.89678-1.18153-1.74184-1.2673-2.65837a8.23,8.23,0,0,1,.76685-2.83739c.0878-.28839.205-.56783.34061-.93825.78677.23787,1.54391.45966,2.29639.69623.75842.2384,1.51221.49144,2.34347.76266-.17076.53207-.34.99161-.46441,1.463a1.10217,1.10217,0,0,0,.72885,1.44785,1.12384,1.12384,0,0,0,1.53337-.728c.23537-.64532.453-1.29877.64023-1.95951.22217-.78424.04541-1.098-.76134-1.36506-.97844-.32393-1.96142-.63664-2.95253-.91869a1.45,1.45,0,0,1-.93779-.74527c-1.22289-2.147-1.23217-2.139-.45121-4.55387.43476-1.34435.87293-2.688,1.27871-4.04119a1.74353,1.74353,0,0,1,1.041-1.24863,10.7045,10.7045,0,0,1,2.7002-1.18131,8.07966,8.07966,0,0,1,2.73839.71657,4.61768,4.61768,0,0,0,.98065.30758c2.41105.12428,3.25894,1.93623,4.09194,3.75788a1.19219,1.19219,0,0,1,.07718.76193C110.16839,246.12194,109.8022,247.205,109.41505,248.41041Z" fill="#fbfcfc"/><path d="M105.18879,28.90719l4.66437-1.15212c.14559.49761.27935.95966.416,1.42084a1.18776,1.18776,0,1,0,2.31294-.53824c-.12977-.63571-.29349-1.26525-.46315-1.89185-.21681-.80072-.50869-.99533-1.33367-.82-1.0457.22216-2.088.46764-3.118.753a1.17066,1.17066,0,0,1-1.07765-.13113,1.00471,1.00471,0,0,0-.09556-.06351c-2.14619-1.179-2.14851-1.17843-2.7331-3.53231-.359-1.44568-.681-2.90139-1.079-4.33612a1.49646,1.49646,0,0,1,.236-1.38267,9.72641,9.72641,0,0,1,1.66926-2.43469,8.612,8.612,0,0,1,2.81846-.844c.295-.07964.59244-.15052.89021-.21915.88965-.205,1.84926-.71433,2.65279-.53329a10.39516,10.39516,0,0,1,2.89477,1.58332,1.29941,1.29941,0,0,1,.50812.703c.29463,1.06211.53313,2.13979.8212,3.33077-.7981.2137-1.55484.42734-2.31745.61744-.77382.19291-1.55344.36258-2.42007.56315-.1335-.52275-.24-.99783-.37734-1.46386a1.13611,1.13611,0,1,0-2.20771.53326c.13566.63468.29037,1.2665.46783,1.89073.22271.78337.54981.97931,1.36527.79366,1.00507-.22883,2.01148-.46249,2.99755-.75964a1.5281,1.5281,0,0,1,1.29586.18536c2.10981,1.18783,2.118,1.17953,2.70734,3.56224.35774,1.44629.661,2.90754,1.06918,4.33914a1.59856,1.59856,0,0,1-.25384,1.491,9.83073,9.83073,0,0,1-1.67691,2.42291,7.88406,7.88406,0,0,1-2.72075.78733c-.99953.25363-2.01107.46435-3.00024.75256a1.4439,1.4439,0,0,1-1.29605-.15837,9.85245,9.85245,0,0,1-2.57665-1.657,7.93921,7.93921,0,0,1-.84074-2.8118C105.31209,29.61893,105.27018,29.32184,105.18879,28.90719Z" fill="#fbfcfd"/><path d="M89.45686,42.27924l-4.33212,2.54169L79.86936,39.023l-.1845.10272c.817,2.44854,1.63408,4.89707,2.47983,7.43166l-4.26182,2.49473c-.24555-.80453-.46133-1.48792-.6627-2.17555-.741-2.53052-1.45831-5.06825-2.23179-7.58877A3.55082,3.55082,0,0,0,74.221,37.942c-1.91647-2.0326-3.87243-4.028-5.81272-6.03816-.20961-.21717-.40556-.44753-.706-.78062l4.29436-2.52335,5.06459,5.798.16162-.09553c-.85251-2.36-1.705-4.72-2.61194-7.23067l4.18369-2.45544c.32633,1.07688.63139,2.05534.91909,3.03889.59006,2.01723,1.186,4.033,1.74576,6.05867a3.10755,3.10755,0,0,0,.85966,1.447c2.10547,2.06229,4.19378,4.14211,6.28545,6.21846C88.869,41.64166,89.11761,41.92,89.45686,42.27924Z" fill="#fafbfc"/><path d="M86.72154,20.944l6.73168-2.726c3.52288,5.98538,7.01052,11.91087,10.57,17.95838l-4.485,1.83982-2.03825-3.67993-2.69175,1.07951,1.08156,4.05978-4.2589,1.73873C89.984,34.41452,88.361,27.7131,86.72154,20.944Zm5.16959,2.94714-.48024-.9502-.19755.07707.42168,1.115,2.08031,7.53811,1.94255-.797Z" fill="#fbfcfd"/><path d="M193.16191,253.61186c-1.52266.63-2.95869,1.22412-4.48218,1.85445l-2.066-3.6683-2.70394,1.09919,1.1584,4.04c-1.40042.57391-2.75906,1.13072-4.27684,1.75275-1.72192-6.7761-3.4196-13.45684-5.13773-20.2181,2.26918-.92891,4.44405-1.81924,6.65005-2.72231C185.936,241.72492,189.52526,247.6294,193.16191,253.61186Zm-12.33864-11.16319c.64187,2.21474,1.28375,4.42948,1.948,6.72137.71473-.31148,1.28781-.56118,1.91837-.836-1.23395-2.21257-2.402-4.30713-3.57015-6.40169l-.71784-1.46574-.23842.10183Z" fill="#fbfcfc"/><path d="M88.60438,256.26727c-1.5232-.7157-2.8987-1.362-4.40769-2.071l1.39059-3.96494L82.985,248.97546c-.76989,1.17045-1.535,2.33363-2.33038,3.54279L76.53964,250.544l11.79091-17.26037,6.48739,3.063C92.75352,242.96511,90.69933,249.55084,88.60438,256.26727Zm1.2515-18.21146-.64161.95412-4.16985,6.64888,1.75222.80878c.131-.12972.21087-.17289.23339-.23638q1.202-3.38872,2.394-6.781.21129-.70147.42253-1.40315l.03774-.02155Z" fill="#fbfcfc"/><path d="M153.62852,27.26554c-.11012,1.41976-.21269,2.74226-.32385,4.17558l-10.21664-.8165c.55022-6.877,1.09273-13.65782,1.645-20.56088l10.15943.81456-.3284,4.18444-5.27507-.39416L148.9708,18.368l4.726.44008c-.11012,1.40325-.21364,2.72214-.3251,4.14239l-4.6718-.33423c-.07754.67195-.16732,1.33425-.227,1.99925-.06132.683-.09332,1.36855-.14557,2.16637Z" fill="#fafbfc"/><path d="M54.57244,41.06461l7.99076-6.33,2.622,3.2901-4.139,3.32084L63.35305,44.258l3.73345-2.92474L69.685,44.60369,65.9938,47.59,68.59327,50.878l4.21445-3.31176,2.62336,3.29988L67.38265,57.2406Z" fill="#fbfcfc"/><path d="M187.98784,23.97905l-4.9629-1.8276c-.44225,1.1738-.86448,2.29443-1.31106,3.47971l4.428,1.69318L184.678,31.23605l-4.43954-1.62924-1.48174,3.92081,5.00658,1.91669L182.301,39.382l-9.61027-3.58545c2.41382-6.46738,4.79709-12.85287,7.21417-19.329L189.456,20.036Z" fill="#fbfcfc"/><path d="M130.263,265.64884c.16251-6.91362.32218-13.70641.481-20.46245h10.11542c.04608,1.46473-.01727,2.81141-.02743,4.2225h-5.25256v3.73024h4.53551v4.17667h-4.69457v4.26463h5.167v4.24744C137.201,265.903,133.81854,265.75221,130.263,265.64884Z" fill="#fafcfc"/><path d="M47.24542,54.28414,44.7151,56.79838l-3.10332-2.98056,8.35445-8.6744L53.11061,48.149l-2.4484,2.605L62.34409,62.03122l-3.39025,3.52237Z" fill="#fafcfc"/><path d="M154.47329,264.74066c-1.63689.18229-3.18182.35437-4.88372.5439-.61563-5.39979-1.2242-10.73753-1.84029-16.14139-1.17753.11459-2.26828.22075-3.52348.34292-.158-1.40121-.31332-2.779-.48517-4.30332,3.96962-.44047,7.8656-.87275,11.904-1.32082.16717,1.43735.32778,2.81826.49878,4.28846-1.21827.16551-2.33645.31745-3.5256.479C153.23914,254.02462,153.85009,259.32942,154.47329,264.74066Z" fill="#fbfcfc"/><path d="M130.06457,30.97737c-.30634-6.89577-.608-13.6855-.91516-20.59957l4.86484-.22775c.31556,5.44286.46639,10.85054.75267,16.3043h4.40274v4.09773Z" fill="#fafbfc"/><path d="M187.78282,233.1271,191.985,230.726c2.76681,4.7388,5.49765,9.416,8.27786,14.17779,1.27861-.72019,2.49511-1.40539,3.81789-2.15049.72117,1.21833,1.41106,2.38381,2.14817,3.629-2.68665,1.54528-5.29286,3.04429-8.03986,4.62426C194.71708,245.04118,191.26915,239.11713,187.78282,233.1271Z" fill="#fafcfc"/><path d="M212.37032,236.90168c1.2086-.90009,2.30908-1.71968,3.49812-2.60518.8595,1.12553,1.68329,2.20433,2.57019,3.36571-2.47941,1.85168-4.891,3.65268-7.40154,5.52758-4.13734-5.50942-8.24336-10.97716-12.42143-16.54085l3.87663-2.87507C205.78654,228.1519,209.04308,232.47982,212.37032,236.90168Z" fill="#fafcfc"/><path d="M67.86425,158.09156c.4691-.28747.85181-.52387,1.23631-.75732a140.11659,140.11659,0,0,0,15.208-10.28937c.7753-.62266,1.5152-1.2919,2.24493-1.96821a10.335,10.335,0,0,0,2.5251-3.64641c3.27691-7.79472,6.59908-15.5704,9.90378-23.35343.16028-.37749.30211-.76281.51473-1.30228-1.5106.336-2.87892.64253-4.24825.94448-2.05385.45291-4.09658.96966-6.166,1.33484a7.78128,7.78128,0,0,0-5.00494,2.98652c-.992,1.299-1.7781,2.756-2.64352,4.15034-.17446.28109-.29466.59585-.542,1.10543Q68.14465,107.35785,55.635,87.792a.87313.87313,0,0,1,.05009-.2023.1879.1879,0,0,1,.09278-.06524,6.29862,6.29862,0,0,1,.663-.17959q72.07869-12.44072,144.159-24.87192a1.76342,1.76342,0,0,1,.41242.04623q5.12806,8.3631,10.321,16.832c-.27227.37415-.51036.71566-.76282,1.04618q-10.52862,13.78433-21.04719,27.57627a12.07935,12.07935,0,0,0-1.49185,2.55925Q176.92,136.67826,165.854,162.84311c-.13192.3114-.2537.62709-.46336,1.147,1.33887-.26679,2.52153-.47043,3.68894-.74022a139.3023,139.3023,0,0,0,23.00531-7.80151q9.62084-4.08309,18.83059-9.02742c.19859-.1068.40667-.19591.71489-.34325l8.3718,13.77277c-.26055.36462-.49324.70922-.74474,1.03949q-13.18708,17.31848-26.37057,34.63964a2.40956,2.40956,0,0,1-1.66432,1.03732c-5.32605.84644-10.64251,1.7533-15.96247,2.63815q-8.65885,1.44022-17.31843,2.87593-7.97981,1.32537-15.9594,2.652-8.65837,1.44055-17.31633,2.88366-8.60289,1.42953-17.20681,2.85281-5.207.86354-10.41395,1.7273c-.297.04909-.59759.07639-.95382.121l-9.73166-15.90452c.50771-.31119.9243-.57328,1.34722-.82471a138.20773,138.20773,0,0,0,15.85463-10.55731c.568-.4538,1.11213-.93817,1.65668-1.42037a10.65445,10.65445,0,0,0,2.91755-4.0551c1.34294-3.33559,2.79912-6.62557,4.20625-9.93538.14859-.34953.28069-.70607.4966-1.25191-3.06041.35008-5.95364.9176-8.86028,1.38779q-4.36062.70542-8.72082,1.41334c-2.94485.47585-5.89093.94419-8.835,1.42462-2.90393.47388-5.80606.95882-8.79248,1.45271Zm137.51435-3.71591.04016-.05466.6639-.7917-.16753-.14193-.68476.54393c-.26293.15348-.52833.30288-.78842.461a109.32959,109.32959,0,0,1-36.16159,14.3489,58.61291,58.61291,0,0,1-17.48771.77944c-1.31164-.14062-2.60884-.41606-3.99225-.64246.21351-.512.35625-.8641.50647-1.213q11.65994-27.08179,23.30368-54.17053A19.37436,19.37436,0,0,1,174.5146,107.6c.95621-.991,1.97625-1.92044,2.97095-2.87406.26665-.25564.54578-.49825.81919-.74685l-.09086-.18807L137.158,110.93619c2.741-6.54729,5.397-12.89144,8.06377-19.26149.43947-.08524.84909-.17224,1.26145-.24341q3.05306-.52689,6.10731-1.04666c6.07059-1.03492,12.14812-2.0314,18.20863-3.12232a7.77835,7.77835,0,0,1,6.06271,1.447,15.27579,15.27579,0,0,1,3.47372,3.48236c.17471.23341.373.44918.60812.73013,6.31648-8.22937,12.57326-16.38094,18.97943-24.72714L67.35493,91.30887l11.13215,17.43025c.17715-.342.26363-.51062.35169-.67844.10666-.20326.20825-.40951.323-.60813a11.05437,11.05437,0,0,1,7.818-5.84359c3.23889-.57441,6.48481-1.10914,9.72714-1.6643q9.84-1.68482,19.68009-3.36982c.41839-.07144.844-.10034,1.4083-.16538-.22639.55654-.36308.90913-.51206,1.25645Q107.1752,121.23141,97.07893,144.802a13.27365,13.27365,0,0,1-2.881,4.238,45.94191,45.94191,0,0,1-7.02566,5.53481c-.28418.19036-.5654.38511-.848.57782,3.68013-.44129,7.26116-1.04712,10.84521-1.63455q11.49468-1.88391,22.9937-3.74117a1.3274,1.3274,0,0,0,1.14154-.93619c1.38215-3.401,2.79636-6.789,4.20174-10.18057.72974-1.7611,1.46327-3.52061,2.23965-5.388l-11.80217-5.24362a3.74293,3.74293,0,0,1,.53221-.22765c4.52228-.78705,9.04156-1.59263,13.57169-2.33162a1.657,1.657,0,0,0,1.45382-1.18543c1.264-3.15982,2.587-6.29608,3.89279-9.43916.15572-.37481.33679-.73909.58371-1.27743,1.34694,3.46256,2.63184,6.7656,3.94787,10.14867l15.56226-2.68381.09015.22659c-4.34636,3.29469-8.6927,6.58938-13.08456,9.91854l3.8399,10.48839L135.19,136.73486c-.18114.38958-.3511.72688-.49753,1.0741q-9.54013,22.62213-19.06216,45.25186a14.35523,14.35523,0,0,1-3.18285,4.72084,38.69751,38.69751,0,0,1-6.62727,5.108c-.32057.20294-.63191.42048-.94753.63126,2.87057-.34743,5.661-.81411,8.45-1.29q9.841-1.67934,19.68067-3.366,9.10494-1.559,18.20947-3.1203,9.04929-1.54557,18.10019-3.08185c5.24095-.89542,10.47787-1.81527,15.72424-2.67762a2.002,2.002,0,0,0,1.37564-.87552c1.80678-2.37786,3.6349-4.7395,5.45175-7.10973q6.67284-8.70528,13.34236-17.41309Z" fill="#012c5d"/><path d="M69.31078,116.08014c4.185,6.5435,8.34447,13.047,12.58734,19.68093.16937-.37386.30268-.62143.39673-.88312.71169-1.98027,1.40145-3.96854,2.12638-5.9439a13.38616,13.38616,0,0,1,2.81393-4.69625,4.19715,4.19715,0,0,1,2.56631-1.385c1.12432-.14782,2.22834-.4499,3.49376-.71679a8.936,8.936,0,0,1-.25353.8584c-2.43817,5.74136-4.89237,11.47594-7.31309,17.22464a6.77777,6.77777,0,0,1-1.68589,2.42365,59.07889,59.07889,0,0,1-8.02228,6.13236c-4.056,2.60822-8.18195,5.10762-12.27812,7.65333-.25674.15954-.51422.31789-.86873.537.18263.35012.33293.68457.52255.995q5.98776,9.80108,11.972,19.60425a1.13,1.13,0,0,0,1.38939.59339c8.26044-1.36983,16.52866-2.69277,24.79419-4.03206,1.72817-.28,3.45365-.57668,5.3378-.892-.13927.44164-.21259.75708-.336,1.05153-.62118,1.48234-1.21789,2.97688-1.90228,4.4299a6.745,6.745,0,0,1-1.21,1.77935,42.21068,42.21068,0,0,1-6.54979,5.21309c-4.6596,3.23241-9.50573,6.16569-14.44378,8.94984-.35891.20238-.70787.4224-1.13488.67821,1.10405,1.81209,2.154,3.53912,3.20765,5.26392,1.79623,2.94041,3.558,5.90289,5.41234,8.80623a6.52861,6.52861,0,0,1,1.0385,3.2121,40.74237,40.74237,0,0,0,2.19308,11.33911c.02091.05807-.01075.13508-.02874.30728-.35534-.16777-.6929-.3069-1.01167-.48052A97.56206,97.56206,0,0,1,52.9011,185.12568a95.426,95.426,0,0,1-9.78327-25.40887,8.909,8.909,0,0,1,.16232-3.5232,49.09354,49.09354,0,0,1,5.19755-15.0089,78.46428,78.46428,0,0,1,11.98056-16.63592A109.66108,109.66108,0,0,1,68.78679,116.48C68.92787,116.35614,69.08554,116.25111,69.31078,116.08014Z" fill="#0153bc"/><path d="M171.8705,158.79135c.47011-1.1228.936-2.24735,1.411-3.3681q9.18268-21.67,18.37859-43.33436a9.90366,9.90366,0,0,1,1.09629-1.86663c.75645-1.0534,1.57149-2.06473,2.43-3.18212,1.36862,1.01324,2.68628,1.98077,3.99558,2.95946a121.77072,121.77072,0,0,1,14.30567,12.40681A77.65448,77.65448,0,0,1,228.78074,143.794a45.73983,45.73983,0,0,1,4.17523,14.37185,6.486,6.486,0,0,1-.11138,2.15454,96.108,96.108,0,0,1-19.73973,39.6222,97.61234,97.61234,0,0,1-29.44632,24.035c-.26854.144-.54875.26617-1.02036.49335,2.67653-7.48417,2.72907-15.11261,2.55318-22.85832,1.519-.26422,2.97552-.52048,4.43313-.77028,1.319-.22605,2.63349-.49476,3.96119-.64665a2.02428,2.02428,0,0,0,1.49211-.90516q5.6166-7.41816,11.26274-14.81394,8.83917-11.606,17.68456-23.20728c.71729-.94026.76348-.8812.08815-1.98889q-5.29134-8.679-10.55755-17.3733c-.09811-.16149-.20738-.31621-.3766-.57293-13.14514,7.20888-26.67679,13.48091-41.10032,17.64787Z" fill="#0154bc"/><path d="M180.15829,202.53644c.06781.51837.17525,1.04078.19881,1.56694a102.51357,102.51357,0,0,1,.00782,12.62307,46.80057,46.80057,0,0,1-1.34491,8.60374,2.15886,2.15886,0,0,1-1.31937,1.56606,98.70377,98.70377,0,0,1-21.87128,6.78666,97.22462,97.22462,0,0,1-55.1499-5.83416c-.88253-.369-1.7461-.78607-2.63956-1.12527a1.53676,1.53676,0,0,1-1.04657-1.24186c-.383-2.02727-.789-4.0507-1.13238-6.08469-.152-.9005-.17517-1.82275-.25458-2.71C96.45668,216.17577,178.58852,202.67909,180.15829,202.53644Z" fill="#0153bc"/><path d="M162.81422,43.873c-.42852.23434-.86031.46295-1.285.70405a14.28814,14.28814,0,0,0-4.268,3.43379,6.46987,6.46987,0,0,0,.03011,8.44435,20.33941,20.33941,0,0,0,2.80674,2.69818,36.189,36.189,0,0,0,7.452,4.72443,1.2449,1.2449,0,0,1,.58721.537L57.38971,83.54817a7.17722,7.17722,0,0,1,.42976-.81808c1.29056-1.75966,2.58111-3.51957,3.898-5.25946a4.1518,4.1518,0,0,1,.92748-.84139,44.20979,44.20979,0,0,1,18.48253-7.715c3.889-.642,7.78571-1.17255,11.72353-1.44571a44.8029,44.8029,0,0,0,12.80741-2.42526,35.52486,35.52486,0,0,0,12.4119-7.888,6.5481,6.5481,0,0,0,2.15654-5.13167,6.83568,6.83568,0,0,0-1.743-4.27092,15.16289,15.16289,0,0,0-4.34628-3.3434c-.32145-.17587-.63379-.36838-1.13552-.66136A95.67456,95.67456,0,0,1,162.81422,43.873Z" fill="#0154bc"/><path d="M197.99771,103.3434c6.06086-7.92935,12.04914-15.76374,18.058-23.62508a95.82071,95.82071,0,0,1,18.40052,71.01273c-.12852-.58973-.25423-1.1801-.386-1.76911A52.63314,52.63314,0,0,0,226.59043,131.8a89.04325,89.04325,0,0,0-13.71311-16.15549,161.6548,161.6548,0,0,0-13.78081-11.42761C198.76436,103.96568,198.444,103.69888,197.99771,103.3434Z" fill="#0154bc"/><path d="M52.958,90.49879c4.688,7.33182,9.255,14.47449,13.879,21.70619-.33956.31962-.62961.60607-.93362.87683a92.47645,92.47645,0,0,0-16.62895,18.90842,51.56546,51.56546,0,0,0-7.50721,17.63318,1.45719,1.45719,0,0,1-.28565.60237A96.96069,96.96069,0,0,1,52.958,90.49879Z" fill="#0154bc"/><path d="M68.8937,69.35906a98.08671,98.08671,0,0,1,23.37841-17.43,103.44246,103.44246,0,0,1,15.36606-6.61823,2.54772,2.54772,0,0,1,2.26991.18937,14.14839,14.14839,0,0,1,3.60435,2.61966,5.38709,5.38709,0,0,1,.56114,7.12682,13.793,13.793,0,0,1-3.059,3.08055,26.3812,26.3812,0,0,1-14.41764,5.337,119.83437,119.83437,0,0,0-17.26808,2.23138,35.78816,35.78816,0,0,0-9.95631,3.71005Q69.13352,69.4822,68.8937,69.35906Z" fill="#0254bc"/><path d="M195.86277,59.61089c-2.93332.5148-5.6309.9943-8.33077,1.46055q-5.70441.98514-11.41328,1.94434a3.40356,3.40356,0,0,1-1.23138-.03412,25.10482,25.10482,0,0,1-11.0508-5.57482,12.31171,12.31171,0,0,1-2.2131-2.61188,5.21737,5.21737,0,0,1,.49255-6.2929,12.36651,12.36651,0,0,1,4.73452-3.35142,1.69748,1.69748,0,0,1,1.08722.04194,92.94964,92.94964,0,0,1,15.71853,6.65356,98.12211,98.12211,0,0,1,11.4712,7.17963C195.3104,59.15859,195.482,59.307,195.86277,59.61089Z" fill="#0154bc"/><path d="M68.8937,69.35906q.23964.12321.47885.24657-.5495.34917-1.09818.69806l-.1738-.19177Z" fill="#7286a2"/><path d="M166.3359,253.81733c.2989-.08761.51007-.15306.72321-.21133,1.4035-.38371,1.74888-.18684,2.10895,1.20162.16192.62436.33344,1.24653.4794,1.87462a1.11821,1.11821,0,0,1-.89283,1.51935c-.3577.10635-.72855.16851-1.19936.27458C167.14784,256.91954,166.74865,255.3943,166.3359,253.81733Z" fill="#0b3362"/><path d="M165.38219,250.12535c-.38244-1.49786-.72733-2.84867-1.09272-4.27982.45092-.13614.83274-.27759,1.22654-.36469a1.12571,1.12571,0,0,1,1.47338.86946c.19677.65424.3648,1.31854.51225,1.98577a1.112,1.112,0,0,1-.92211,1.51982C166.223,249.96121,165.853,250.0211,165.38219,250.12535Z" fill="#0b3362"/><path d="M67.92836,240.70546c.90119-1.33661,1.77106-2.62679,2.67807-3.972.36558.22342.68951.40206.99284.61067a1.10561,1.10561,0,0,1,.39536,1.72543q-.6407,1.01766-1.34043,1.99783a1.116,1.116,0,0,1-1.74955.33779C68.5865,241.20461,68.29142,240.96748,67.92836,240.70546Z" fill="#0b3362"/><path d="M72.73771,233.55974l2.46478-3.694c.41.258.77.45726,1.09976.698a1.08538,1.08538,0,0,1,.3282,1.58052c-.37793.62052-.78437,1.22552-1.209,1.81523a1.09723,1.09723,0,0,1-1.66847.31562C73.43137,234.07608,73.13268,233.84,72.73771,233.55974Z" fill="#0b3362"/><path d="M214.38111,38.991c1.579.87191,1.9974,1.4669.70292,3.06863-1.8715,2.31573-3.67493,4.69-5.42185,7.10135-.83234,1.14889-1.5223,1.22469-2.5113.33226-.13778-.12433-.27242-.25214-.46208-.428C209.2561,45.703,211.79817,42.37373,214.38111,38.991Z" fill="#093161"/><path d="M91.89113,23.89113l3.76675,6.983-1.94255.797L91.635,24.133Z" fill="#123967"/><path d="M91.89113,23.89113l-.2561.24191-.42169-1.115.19755-.07707Z" fill="#7286a2"/><path d="M181.11944,241.93238c1.16812,2.09456,2.33622,4.18912,3.57017,6.40169-.63056.27479-1.20364.52449-1.91837.836-.66422-2.29189-1.3061-4.50663-1.948-6.72134Z" fill="#123967"/><path d="M181.11945,241.93238l-.29618.51632-.66007-1.88023.23842-.10183Z" fill="#7286a2"/><path d="M89.424,239.45026q-1.195,3.39117-2.394,6.781c-.02252.06349-.10243.10666-.23339.23638l-1.75222-.80878c1.43222-2.2837,2.801-4.46629,4.16986-6.64888Z" fill="#123967"/><path d="M89.424,239.45026l-.20973-.44033.6416-.95412-.00929-.00853Z" fill="#7286a2"/><polygon points="89.856 238.056 89.884 238.026 89.847 238.047 89.856 238.056" fill="#7286a2"/><path d="M205.207,154.58683q-6.671,8.70671-13.34238,17.41309c-1.81685,2.37023-3.645,4.73187-5.45175,7.10973a2.002,2.002,0,0,1-1.37564.87552c-5.24637.86235-10.48329,1.7822-15.72424,2.67762q-9.04922,1.5461-18.10019,3.08185-9.1056,1.5552-18.20947,3.1203-9.84,1.68488-19.68067,3.366c-2.78891.47592-5.57939.9426-8.45,1.29.31562-.21078.627-.42832.94753-.63126a38.69751,38.69751,0,0,0,6.62727-5.108,14.35523,14.35523,0,0,0,3.18285-4.72084q9.5-22.639,19.06216-45.25186c.14643-.34722.31639-.68452.49753-1.0741l11.14372,4.93067-3.8399-10.48839c4.39186-3.32916,8.7382-6.62385,13.08456-9.91854l-.09015-.22659L139.926,123.71582c-1.316-3.38307-2.60093-6.68611-3.94787-10.14867-.24692.53834-.428.90262-.58371,1.27743-1.30577,3.14308-2.62874,6.27934-3.89279,9.43916a1.657,1.657,0,0,1-1.45382,1.18543c-4.53013.739-9.04941,1.54457-13.57169,2.33162a3.74293,3.74293,0,0,0-.53221.22765l11.80217,5.24362c-.77638,1.86741-1.50991,3.62692-2.23965,5.388-1.40538,3.39157-2.81959,6.77956-4.20174,10.18057a1.3274,1.3274,0,0,1-1.14154.93619q-11.50032,1.84906-22.9937,3.74117c-3.584.58743-7.16508,1.19326-10.84521,1.63455.28259-.19271.56381-.38746.848-.57782a45.94191,45.94191,0,0,0,7.02566-5.53481,13.27365,13.27365,0,0,0,2.881-4.238q10.07492-23.57967,20.20436-47.13606c.149-.34732.28567-.69991.51206-1.25645-.56425.065-.98991.09394-1.4083.16538Q106.5462,98.25507,96.707,99.94466c-3.24233.55516-6.48825,1.08989-9.72714,1.6643a11.05437,11.05437,0,0,0-7.818,5.84359c-.11476.19862-.21635.40487-.323.60813-.08806.16782-.17454.33647-.35169.67844L67.35493,91.30887,199.92314,68.19466c-6.40617,8.3462-12.66295,16.49777-18.97943,24.72714-.23513-.281-.43341-.49672-.60812-.73013a15.27579,15.27579,0,0,0-3.47372-3.48236,7.77835,7.77835,0,0,0-6.06271-1.447c-6.06051,1.09092-12.138,2.0874-18.20863,3.12232q-3.05414.52065-6.10731,1.04666c-.41236.07117-.822.15817-1.26145.24341-2.66681,6.37-5.32276,12.7142-8.06377,19.26149l41.05588-7.14522.09086.18807c-.27341.2486-.55254.49121-.81919.74685-.9947.95362-2.01474,1.8831-2.97095,2.87406a19.37436,19.37436,0,0,0-3.90405,5.8947q-11.6145,27.10127-23.30368,54.17053c-.15022.34893-.293.70106-.50647,1.213,1.38341.2264,2.68061.50184,3.99225.64246a58.61291,58.61291,0,0,0,17.48771-.77944,109.32959,109.32959,0,0,0,36.16159-14.3489c.26009-.15816.52549-.30756.78832-.461q.09416.19488.18851.38965l-.04014.05461Z" fill="#fefefe"/><path d="M205.41876,154.321q-.09428-.19477-.18849-.38964.34254-.272.68486-.544l.16753.14193Z" fill="#b8c2c9"/><path d="M205.207,154.58683l.17165-.21122Z" fill="#b8c2c9"/></svg>