<svg version="1.2" baseProfile="tiny-ps" xmlns="http://www.w3.org/2000/svg" viewBox="0 0 200 106" width="200" height="106">
	<title>Grand_Rapids_Gold_logo-svg</title>
	<style>
		tspan { white-space:pre }
		.shp0 { fill: #0d2240 } 
		.shp1 { fill: #ffffff } 
		.shp2 { fill: #ffc627 } 
		.shp3 { fill: #8b2332 } 
	</style>
	<g >
		<path class="shp0" d="M1.86 0.16C1.5 0.28 1.24 0.43 0.94 0.71C0.67 0.96 0.44 1.27 0.28 1.61L0.04 2.12C0.01 13.55 0.03 36.41 0.06 60.29L0.13 103.72C0.44 104.5 0.65 104.81 0.88 105.04C1.08 105.24 1.43 105.49 1.65 105.6C2.01 105.78 2.15 105.8 3.76 105.85C4.71 105.88 48.7 105.93 101.52 105.96C191.06 106 197.59 106 198 105.87C198.24 105.8 198.58 105.65 198.76 105.53C198.94 105.42 199.18 105.22 199.31 105.08C199.43 104.95 199.6 104.71 199.68 104.56C199.76 104.4 199.87 104.06 199.92 103.8C199.99 103.43 199.98 91.19 199.89 52.8C199.77 2.48 199.77 2.28 199.61 1.84C199.52 1.59 199.29 1.22 199.07 0.97C198.85 0.73 198.54 0.47 198.36 0.38C198.18 0.29 197.88 0.17 197.68 0.11C197.38 0.02 181.62 0 99.84 0.01C3.53 0.01 2.35 0.01 1.86 0.16Z" />
		<path class="shp1" d="M199.8 6.49C199.8 8.45 199.81 9.26 199.82 8.29C199.83 7.32 199.83 5.72 199.82 4.73C199.81 3.74 199.8 4.53 199.8 6.49ZM3.17 31.95C3.14 47.76 3.12 70.13 3.12 81.66L3.12 102.63L9.44 96.27L9.44 9.61L190.16 9.61C191.37 8.38 192.8 6.94 194.12 5.61L196.52 3.2L3.23 3.2L3.17 31.95Z" />
		<path class="shp2" d="M193.32 6.42L190.2 9.57L190.24 96.23L9.48 96.22L3.16 102.59C152.94 102.63 196.44 102.63 196.45 102.61C196.46 102.6 196.47 80.25 196.46 52.93L196.44 3.27L193.32 6.42Z" />
		<path class="shp0" d="M9.44 52.92L9.44 96.23L190.24 96.23L190.27 9.61L9.44 9.61L9.44 52.92Z" />
		<path class="shp3" d="M199.79 11.18C199.79 11.84 199.8 12.09 199.82 11.74C199.83 11.39 199.83 10.84 199.82 10.54C199.8 10.23 199.79 10.52 199.79 11.18Z" />
		<path class="shp1" d="M51.96 15.86C51.7 15.89 51.26 15.98 50.98 16.05C50.7 16.12 50.26 16.29 50 16.42L49.52 16.67L49.52 28.2L52.08 28.2L52.08 23.56L53.6 23.56L53.6 28.2L56.16 28.2L56.16 16.34C55.7 16.35 55.43 16.29 55.26 16.23C55.09 16.16 54.72 16.05 54.42 15.99C54.12 15.93 53.56 15.86 53.16 15.83C52.76 15.81 52.22 15.82 51.96 15.86ZM119.48 15.83C119.3 15.85 118.85 15.94 118.48 16.03C118.11 16.12 117.58 16.31 117.32 16.45L116.84 16.71L116.84 28.16L119.44 28.2L119.44 23.56L120.96 23.56L120.96 28.2L123.52 28.2L123.52 16.34C123.06 16.35 122.78 16.29 122.62 16.23C122.45 16.16 122.08 16.05 121.78 15.99C121.48 15.93 120.92 15.86 120.52 15.84C120.12 15.82 119.66 15.82 119.48 15.83ZM175.44 15.9C175.11 15.96 174.62 16.1 174.36 16.19C174.1 16.29 173.76 16.44 173.62 16.52L173.36 16.67C173.4 21.81 173.41 21.92 173.57 22.15C173.66 22.29 173.88 22.47 174.05 22.55C174.33 22.7 174.54 22.72 176.02 22.73L177.68 22.75L177.69 26.24C177.37 26.58 177.2 26.7 177.1 26.73C177 26.75 176.78 26.74 176.62 26.69C176.46 26.64 176.27 26.52 176.2 26.42C176.11 26.29 176.08 26.01 176.08 25.38L176.08 24.52L173.36 24.52L173.36 27.4C173.76 27.65 174.08 27.8 174.32 27.89C174.56 27.98 175.01 28.11 175.32 28.19C175.68 28.27 176.24 28.31 176.88 28.31C177.63 28.31 178.06 28.26 178.6 28.13C179 28.04 179.56 27.84 179.86 27.7L180.41 27.44C180.4 22.44 180.38 21.9 180.28 21.67C180.21 21.51 180.02 21.3 179.83 21.17L179.49 20.95L176.08 20.91L176.08 18.19C176.49 17.76 176.62 17.71 176.85 17.7C177.04 17.7 177.25 17.77 177.38 17.86C177.6 18.02 177.6 18.04 177.6 18.87L177.6 19.71L180.4 19.71L180.4 16.34C179.81 16.3 179.32 16.19 178.92 16.07C178.32 15.89 178.02 15.84 177.12 15.82C176.4 15.8 175.84 15.83 175.44 15.9ZM20.4 16.03C20.03 16.11 19.49 16.3 19.2 16.44L18.68 16.71L18.68 27.52C19.42 27.88 19.91 28.05 20.24 28.13C20.57 28.22 21.22 28.32 21.68 28.36C22.32 28.42 22.7 28.41 23.28 28.32C23.7 28.26 24.27 28.14 24.56 28.05C24.85 27.96 25.22 27.8 25.4 27.7L25.72 27.52L25.76 20.99L22.48 20.99C22.42 21.33 22.38 21.61 22.36 21.83C22.33 22.05 22.29 22.32 22.27 22.43C22.24 22.61 22.27 22.64 22.6 22.73L22.96 22.83C22.96 26.37 22.96 26.4 22.78 26.58C22.68 26.68 22.47 26.78 22.32 26.81C22.14 26.84 21.95 26.82 21.8 26.74C21.67 26.68 21.51 26.52 21.46 26.39C21.38 26.21 21.36 25.26 21.38 22.13L21.4 18.09C21.79 17.75 21.93 17.71 22.22 17.7C22.53 17.7 22.64 17.74 22.8 17.91C22.98 18.1 23 18.19 23.02 18.95L23.04 19.79L25.72 19.75L25.72 16.4C25.22 16.38 24.76 16.27 24.36 16.15C23.72 15.95 23.5 15.92 22.36 15.9C21.3 15.87 20.96 15.9 20.4 16.03ZM132.24 22.07L132.24 28.2L134.92 28.16L134.96 23.84C136.17 23.83 136.79 23.78 137.12 23.72C137.45 23.66 137.97 23.53 138.28 23.41C138.59 23.3 138.92 23.16 139.02 23.1L139.2 22.99L139.18 16.52C138.67 16.46 138.27 16.37 137.96 16.28C137.65 16.19 137.12 16.08 136.78 16.03C136.44 15.98 135.28 15.94 134.2 15.94L132.24 15.94L132.24 22.07ZM63.78 16.96L63.8 17.91L64.4 17.95L64.4 28.28L67.04 28.28C67.08 23.73 67.1 23.36 67.2 23.36C67.27 23.36 67.64 24.17 68.29 25.8L69.26 28.24L71.84 28.28L71.84 16.02L69.11 16.02C69.09 19.94 69.05 20.79 69 20.78C68.96 20.78 68.52 19.71 68.03 18.42L67.15 16.06L63.76 16.02L63.78 16.96ZM80.4 22.11L80.4 28.2C83.64 28.2 84.41 28.17 84.9 28.08C85.28 28.02 85.84 27.87 86.14 27.76C86.44 27.64 86.78 27.48 86.9 27.4L87.12 27.24L87.12 16.59C86.66 16.58 86.32 16.51 86.08 16.42C85.84 16.33 85.35 16.2 85 16.14C84.57 16.06 83.73 16.02 82.38 16.02L80.4 16.02L80.4 22.11ZM147.6 22.07L147.6 28.12L150.24 28.12L150.24 16.02L147.6 16.02L147.6 22.07ZM158.48 22.11L158.48 28.2C161.63 28.2 162.51 28.16 162.96 28.09C163.33 28.03 163.82 27.92 164.04 27.84C164.26 27.77 164.61 27.61 164.82 27.49L165.2 27.28L165.2 16.59C164.74 16.58 164.4 16.51 164.16 16.42C163.92 16.33 163.43 16.2 163.08 16.14C162.65 16.06 161.81 16.02 160.46 16.02L158.48 16.02L158.48 22.11ZM33.87 22.17L33.88 28.24L36.4 28.28C36.52 27.82 36.56 27.61 36.56 27.52C36.56 27.43 36.51 27.18 36.44 26.96C36.37 26.74 36.17 26.34 36 26.08C35.82 25.81 35.66 25.45 35.63 25.28C35.6 25.1 35.62 24.83 35.67 24.68C35.72 24.5 35.93 24.23 36.22 23.97C36.49 23.72 36.85 23.48 37.08 23.4C37.3 23.32 37.5 23.27 37.52 23.28C37.54 23.3 37.43 23.45 37.27 23.62C37.11 23.78 36.96 23.99 36.95 24.08C36.94 24.16 36.95 24.33 36.98 24.44C37.01 24.55 37.4 25 37.86 25.45C38.35 25.93 38.76 26.41 38.88 26.65C39.05 26.98 39.08 27.13 39.06 27.66L39.04 28.28C41.1 28.28 41.28 28.26 41.28 28.16C41.28 28.1 40.94 27.07 40.52 25.88C40.1 24.69 39.76 23.66 39.76 23.6C39.76 23.53 39.81 23.48 39.88 23.48C39.95 23.48 40.18 23.39 40.4 23.28L40.8 23.07L40.8 16.63C40.27 16.61 39.78 16.5 39.36 16.38C38.62 16.17 38.53 16.16 36.23 16.12L33.85 16.09L33.87 22.17ZM101.23 22.17L101.24 28.24L103.76 28.28C103.89 27.75 103.91 27.44 103.89 27.24C103.86 27.04 103.71 26.67 103.55 26.4C103.39 26.14 103.19 25.79 103.11 25.64C103.03 25.48 102.96 25.24 102.96 25.1C102.96 24.95 103.01 24.72 103.07 24.58C103.13 24.43 103.37 24.14 103.61 23.93C103.85 23.72 104.22 23.48 104.44 23.4C104.66 23.32 104.86 23.27 104.88 23.28C104.9 23.3 104.79 23.45 104.62 23.62C104.37 23.86 104.32 23.97 104.32 24.24C104.32 24.54 104.38 24.61 105.18 25.41C105.69 25.91 106.12 26.42 106.24 26.65C106.41 26.98 106.44 27.13 106.42 27.66L106.4 28.28C108.46 28.28 108.64 28.26 108.64 28.16C108.64 28.1 108.3 27.07 107.88 25.88C107.46 24.69 107.12 23.66 107.12 23.6C107.12 23.53 107.17 23.48 107.24 23.48C107.31 23.48 107.54 23.39 107.76 23.28L108.16 23.07L108.16 16.63C107.63 16.61 107.14 16.5 106.72 16.38C105.98 16.17 105.89 16.16 103.59 16.12L101.21 16.09L101.23 22.17Z" />
		<path class="shp0" d="M52.38 17.75C52.24 17.83 52.13 17.97 52.08 18.17C52.03 18.35 52 19.11 52.02 20.07L52.04 21.67L53.56 21.67C53.6 19.25 53.59 18.43 53.56 18.29C53.54 18.14 53.42 17.94 53.3 17.82C53.16 17.7 52.99 17.62 52.84 17.63C52.71 17.63 52.5 17.69 52.38 17.75ZM119.74 17.75C119.6 17.83 119.49 17.97 119.44 18.17C119.39 18.35 119.36 19.11 119.38 20.07L119.4 21.67L120.92 21.67C120.96 19.25 120.95 18.43 120.92 18.29C120.9 18.14 120.78 17.94 120.66 17.82C120.52 17.7 120.35 17.62 120.2 17.63C120.07 17.63 119.86 17.69 119.74 17.75ZM83.55 17.92C83.45 17.94 83.3 18.01 83.21 18.09C83.04 18.23 83.04 18.27 83.04 22.17C83.04 24.65 83.07 26.18 83.12 26.28C83.16 26.37 83.33 26.48 83.48 26.52C83.69 26.58 83.83 26.57 84.04 26.48C84.19 26.41 84.36 26.29 84.4 26.2C84.45 26.1 84.48 24.6 84.48 22.19L84.48 18.35C84.2 18.04 84.03 17.94 83.92 17.92C83.81 17.9 83.64 17.9 83.55 17.92ZM135.16 18.03L134.94 18.2C134.96 21.44 134.97 21.56 135.12 21.71C135.21 21.8 135.41 21.9 135.58 21.92C135.8 21.96 135.95 21.93 136.14 21.82C136.29 21.74 136.44 21.58 136.47 21.47C136.51 21.36 136.55 20.61 136.55 19.81L136.56 18.35C136.13 17.91 136.01 17.87 135.73 17.87C135.5 17.87 135.31 17.92 135.16 18.03ZM161.68 17.94C161.57 17.96 161.41 18.03 161.33 18.09C161.2 18.19 161.19 18.45 161.13 22.17C161.08 26.07 161.08 26.14 161.24 26.32C161.33 26.41 161.51 26.52 161.64 26.55C161.77 26.58 161.98 26.57 162.1 26.52C162.22 26.48 162.37 26.36 162.44 26.26C162.53 26.11 162.56 25.43 162.58 22.22L162.6 18.35C162.29 18.05 162.13 17.95 162.04 17.93C161.95 17.9 161.79 17.91 161.68 17.94ZM36.76 18.19L36.54 18.36C36.56 21.35 36.58 21.71 36.68 21.85C36.75 21.95 36.92 22.05 37.06 22.08C37.2 22.11 37.44 22.11 37.58 22.08C37.73 22.05 37.89 21.95 37.95 21.85C38.03 21.73 38.08 21.22 38.12 20.11L38.17 18.55C37.78 18.06 37.71 18.03 37.37 18.03C37.1 18.03 36.92 18.08 36.76 18.19ZM104.12 18.19L103.9 18.36C103.92 21.35 103.94 21.71 104.04 21.85C104.11 21.95 104.28 22.05 104.42 22.08C104.56 22.11 104.8 22.11 104.94 22.08C105.09 22.05 105.25 21.95 105.31 21.85C105.39 21.72 105.44 21.22 105.48 20.11L105.54 18.55C105.14 18.06 105.07 18.03 104.73 18.03C104.46 18.03 104.28 18.08 104.12 18.19Z" />
		<path class="shp2" d="M32.04 33.06C31.86 33.08 31.23 33.15 30.64 33.22C30.05 33.28 29.24 33.39 28.84 33.46C28.44 33.52 27.51 33.7 26.76 33.86C26.01 34.02 24.97 34.27 24.44 34.42C23.91 34.58 23.07 34.86 22.56 35.07C22.05 35.27 21.21 35.65 20.68 35.91C20.15 36.18 19.48 36.53 19.18 36.7L18.64 37.02L18.64 85.49C19.23 85.87 19.96 86.25 20.64 86.59C21.45 86.99 22.38 87.36 23.32 87.67C24.11 87.93 25.25 88.26 25.84 88.41C26.43 88.56 27.39 88.77 27.96 88.88C28.53 88.99 29.61 89.17 30.36 89.27C31.57 89.43 32.05 89.45 34.6 89.45C37.14 89.45 37.63 89.43 38.8 89.27C39.53 89.17 40.73 88.97 41.48 88.82C42.23 88.66 43.31 88.41 43.88 88.25C44.45 88.1 45.32 87.84 45.8 87.68C46.28 87.52 47.02 87.25 47.44 87.07C47.86 86.9 48.54 86.58 48.96 86.36C49.38 86.15 49.89 85.87 50.1 85.73L50.48 85.49L50.48 56.08L35.96 56.08C35.1 62.27 34.95 63.56 35 63.61C35.04 63.65 35.81 63.85 36.7 64.07L38.33 64.46C38.25 76.01 38.22 79.5 38.2 79.68C38.18 79.86 38.06 80.22 37.93 80.48C37.8 80.75 37.52 81.13 37.31 81.33C37.09 81.53 36.74 81.79 36.52 81.9C36.3 82.01 35.92 82.16 35.68 82.24C35.44 82.31 34.97 82.37 34.64 82.36C34.27 82.36 33.79 82.29 33.4 82.19C32.99 82.08 32.59 81.89 32.28 81.69C31.96 81.47 31.71 81.21 31.5 80.88C31.33 80.62 31.14 80.22 31.08 80C30.97 79.65 30.96 77.19 30.96 61.81C30.96 46.19 30.97 43.98 31.08 43.61C31.15 43.37 31.35 42.96 31.54 42.69C31.76 42.38 32.06 42.07 32.38 41.85C32.66 41.66 33.07 41.45 33.3 41.38C33.53 41.31 34.04 41.24 34.44 41.21C34.98 41.17 35.29 41.2 35.68 41.3C35.97 41.37 36.37 41.53 36.59 41.65C36.8 41.77 37.17 42.06 37.4 42.3C37.63 42.55 37.89 42.89 37.98 43.07C38.07 43.24 38.18 43.6 38.23 43.87C38.29 44.17 38.32 45.53 38.32 47.49L38.32 50.64L50.48 50.64L50.48 35.37C50.02 35.47 49.54 35.52 49.12 35.55C48.49 35.59 48.22 35.57 47.56 35.42C47.12 35.32 46.6 35.15 46.4 35.05C46.2 34.95 45.59 34.73 45.04 34.55C44.49 34.37 43.55 34.11 42.96 33.98C42.37 33.85 41.48 33.67 41 33.57C40.52 33.48 39.54 33.33 38.84 33.24C37.82 33.1 37.04 33.07 34.96 33.05C33.53 33.04 32.22 33.04 32.04 33.06ZM81.48 33.58C80.95 33.62 79.91 33.74 79.16 33.85C78.41 33.97 77.19 34.22 76.44 34.41C75.69 34.6 74.56 34.94 73.92 35.17C73.28 35.4 72.04 35.93 71.16 36.37C70.28 36.8 69.22 37.36 68.8 37.61C68.38 37.87 67.7 38.31 67.28 38.61C66.86 38.9 66.16 39.42 65.72 39.77C65.28 40.12 64.29 41.04 63.52 41.81C62.74 42.59 61.8 43.62 61.41 44.11C61.02 44.59 60.41 45.44 60.04 45.99C59.68 46.54 59.15 47.39 58.87 47.87C58.6 48.36 58.2 49.11 58 49.55C57.79 50 57.49 50.7 57.32 51.12C57.16 51.54 56.9 52.24 56.75 52.68C56.6 53.12 56.39 53.79 56.28 54.16C56.18 54.54 56 55.24 55.89 55.72C55.78 56.21 55.61 57.11 55.53 57.73C55.44 58.34 55.33 59.48 55.28 60.25C55.23 61.18 55.23 62.14 55.28 63.1C55.32 63.89 55.42 64.97 55.48 65.5C55.55 66.03 55.7 66.91 55.81 67.46C55.92 68.01 56.17 69 56.36 69.67C56.55 70.33 56.86 71.26 57.04 71.75C57.23 72.23 57.57 73.06 57.81 73.59C58.05 74.12 58.46 74.95 58.73 75.43C59 75.92 59.56 76.82 59.96 77.44C60.37 78.05 61.01 78.94 61.38 79.4C61.75 79.86 62.37 80.58 62.76 81C63.15 81.42 63.81 82.09 64.23 82.48C64.66 82.87 65.38 83.5 65.84 83.87C66.3 84.24 67.22 84.9 67.88 85.35C68.63 85.86 69.69 86.47 70.68 86.97C71.56 87.42 72.87 88 73.6 88.27C74.33 88.54 75.32 88.87 75.8 89.01C76.28 89.14 77 89.32 77.4 89.41C77.8 89.5 78.77 89.67 79.56 89.79C80.87 89.98 81.21 90.01 83.32 90.01C84.76 90.01 85.96 89.98 86.48 89.91C86.94 89.86 87.81 89.72 88.4 89.61C88.99 89.51 89.89 89.31 90.4 89.18C90.91 89.05 91.91 88.74 92.64 88.49C93.37 88.24 94.32 87.87 94.76 87.68C95.2 87.48 95.99 87.1 96.52 86.82C97.05 86.54 97.8 86.12 98.2 85.87C98.6 85.63 99.33 85.13 99.84 84.77C100.35 84.41 101.16 83.78 101.64 83.37C102.12 82.96 103.01 82.12 103.6 81.51C104.2 80.9 105 80 105.39 79.52C105.78 79.04 106.49 78.04 106.97 77.32C107.53 76.48 108.14 75.42 108.63 74.43C109.06 73.57 109.6 72.37 109.83 71.75C110.05 71.13 110.37 70.19 110.52 69.67C110.68 69.14 110.91 68.2 111.04 67.58C111.16 66.97 111.33 66.05 111.4 65.54C111.47 65.03 111.56 64 111.59 63.26C111.64 62.44 111.64 61.29 111.59 60.41C111.55 59.6 111.44 58.42 111.35 57.81C111.26 57.19 111.1 56.27 110.99 55.76C110.89 55.26 110.65 54.36 110.47 53.76C110.29 53.17 109.99 52.25 109.79 51.72C109.59 51.19 109.19 50.25 108.89 49.63C108.59 49.02 108.12 48.12 107.84 47.63C107.57 47.15 107.08 46.37 106.77 45.91C106.46 45.45 105.84 44.62 105.4 44.07C104.96 43.52 104.2 42.65 103.72 42.15C103.24 41.65 102.46 40.91 102 40.51C101.54 40.11 100.87 39.56 100.52 39.29C100.17 39.02 99.45 38.52 98.92 38.16C98.39 37.81 97.58 37.31 97.12 37.05C96.66 36.8 95.92 36.42 95.48 36.21C95.04 36.01 94.27 35.67 93.76 35.47C93.25 35.28 92.35 34.96 91.76 34.78C91.17 34.6 90.3 34.37 89.84 34.26C89.38 34.15 88.69 34.01 88.32 33.94C87.95 33.88 87.33 33.78 86.96 33.74C86.59 33.69 85.69 33.62 84.96 33.57C84.23 33.53 83.37 33.5 83.04 33.5C82.71 33.51 82.01 33.54 81.48 33.58ZM113.48 34.02C113.44 34.05 113.42 35.96 113.43 38.27L113.44 42.46L116.4 42.46L116.4 88.97C127.03 88.88 133.55 88.85 137.74 88.85L145.36 88.85L145.36 80.36L129.8 80.36C129.71 70.4 129.64 62.35 129.6 56.04C129.56 49.74 129.5 42.2 129.48 39.28L129.44 33.97C117.12 33.97 113.52 34 113.48 34.02ZM150.08 61.41L150.08 88.85C167.63 88.81 168 88.8 169.12 88.63C169.76 88.54 170.6 88.41 171 88.34C171.4 88.27 172.26 88.09 172.92 87.93C173.58 87.78 174.59 87.49 175.16 87.3C175.73 87.11 176.61 86.76 177.12 86.54C177.63 86.31 178.38 85.94 178.8 85.71C179.22 85.49 179.75 85.18 179.98 85.04L180.4 84.77C180.4 37.64 180.39 36.46 180.26 36.5C180.18 36.53 179.63 36.57 179.04 36.59L177.96 36.64C176.78 36.13 175.98 35.82 175.42 35.62C174.86 35.42 173.76 35.09 172.98 34.9C172.2 34.71 170.93 34.45 170.16 34.34C169.39 34.23 168.29 34.1 167.72 34.05C167.1 34 163.37 33.97 158.38 33.97L150.08 33.97L150.08 61.41Z" />
		<path class="shp3" d="M80.64 38.03C80.49 38.05 79.78 38.17 79.08 38.3C78.38 38.43 77.42 38.65 76.96 38.78C76.5 38.92 75.67 39.2 75.12 39.4C74.57 39.61 73.53 40.07 72.8 40.43C72.07 40.79 71.14 41.31 70.72 41.58L69.96 42.08C70.33 42.38 70.76 42.73 71.16 43.04C71.56 43.35 72.2 43.82 72.6 44.09C73 44.35 73.68 44.75 74.12 44.99C74.56 45.22 75.39 45.6 75.96 45.83C76.53 46.06 77.43 46.37 77.96 46.52C78.49 46.67 79.32 46.87 79.8 46.95C80.28 47.04 80.76 47.11 80.86 47.11L81.04 47.11C81.04 40.03 81.01 37.98 80.98 37.99C80.95 38 80.79 38.02 80.64 38.03ZM85.79 38.04C85.76 38.06 85.74 40.12 85.75 42.62L85.76 47.15C86.47 47.06 87.06 46.96 87.52 46.87C87.98 46.77 88.72 46.59 89.16 46.45C89.6 46.32 90.45 46.02 91.04 45.78C91.63 45.54 92.44 45.16 92.84 44.95C93.24 44.73 93.88 44.35 94.28 44.08C94.68 43.82 95.32 43.35 95.72 43.04C96.12 42.73 96.55 42.38 96.68 42.27L96.92 42.08C95.74 41.32 94.99 40.89 94.48 40.63C93.97 40.37 93.22 40 92.8 39.82C92.38 39.64 91.52 39.31 90.88 39.1C90.24 38.88 89.31 38.62 88.8 38.51C88.29 38.39 87.56 38.25 87.16 38.19C86.76 38.12 86.31 38.05 86.14 38.03C85.98 38.01 85.82 38.01 85.79 38.04Z" />
		<path class="shp1" d="M199.88 43.07C199.88 45 199.89 45.78 199.9 44.79C199.91 43.8 199.91 42.21 199.9 41.26C199.89 40.31 199.88 41.13 199.88 43.07Z" />
		<path class="shp3" d="M0.04 44.47C0.04 45.9 0.05 46.48 0.06 45.75C0.07 45.02 0.07 43.85 0.06 43.15C0.05 42.44 0.04 43.03 0.04 44.47Z" />
		<path class="shp0" d="M164.84 42.44C164.71 42.46 164.42 42.53 164.2 42.6C163.98 42.68 163.64 42.83 163.44 42.94C163.24 43.05 162.9 43.32 162.67 43.54C162.41 43.81 162.2 44.11 162.07 44.43L161.88 44.91C161.84 78.96 161.84 79.25 162 79.58C162.08 79.77 162.29 80.08 162.46 80.28C162.63 80.48 162.95 80.76 163.17 80.91C163.38 81.05 163.79 81.24 164.08 81.33C164.42 81.44 164.81 81.49 165.2 81.49C165.53 81.49 165.94 81.44 166.12 81.4C166.3 81.35 166.65 81.19 166.91 81.06C167.17 80.92 167.59 80.59 167.84 80.32C168.14 80 168.35 79.68 168.47 79.36L168.66 78.88C168.77 63.48 168.79 55.82 168.78 51.92L168.76 44.83C168.42 44.11 168.13 43.72 167.9 43.48C167.67 43.25 167.32 42.96 167.12 42.85C166.92 42.73 166.54 42.58 166.28 42.51C166.02 42.44 165.64 42.39 165.44 42.4C165.24 42.4 164.97 42.42 164.84 42.44ZM65.91 45.62C65.7 45.84 65.27 46.35 64.95 46.75C64.62 47.15 64.1 47.85 63.79 48.32C63.48 48.78 62.99 49.55 62.72 50.04C62.44 50.52 62.07 51.22 61.9 51.6C61.72 51.97 61.43 52.68 61.24 53.16C61.05 53.64 60.76 54.47 60.6 55C60.44 55.53 60.21 56.49 60.08 57.13C59.96 57.77 59.83 58.46 59.81 58.67L59.76 59.05L81.04 59.05L81.04 51.92C80.61 51.92 80.11 51.86 79.66 51.8C79.21 51.73 78.26 51.53 77.56 51.36C76.86 51.19 75.76 50.87 75.12 50.64C74.48 50.42 73.31 49.91 72.52 49.52C71.63 49.08 70.61 48.5 69.84 47.98C69.16 47.53 68.35 46.95 68.04 46.7C67.73 46.46 67.22 46.01 66.9 45.72C66.58 45.43 66.31 45.19 66.3 45.2C66.29 45.2 66.11 45.39 65.91 45.62ZM99.79 45.85C99.4 46.2 98.74 46.75 98.32 47.07C97.9 47.38 97.29 47.82 96.96 48.04C96.63 48.26 96.07 48.61 95.72 48.81C95.37 49.02 94.59 49.42 94 49.7C93.41 49.99 92.45 50.39 91.88 50.6C91.31 50.8 90.23 51.13 89.48 51.32C88.73 51.51 87.73 51.72 87.26 51.79C86.79 51.86 86.27 51.92 86.12 51.92L85.84 51.92L85.84 59.05L107.12 59.05C107.06 58.65 106.98 58.19 106.92 57.77C106.85 57.35 106.69 56.59 106.56 56.08C106.43 55.58 106.22 54.82 106.08 54.4C105.94 53.98 105.66 53.24 105.47 52.76C105.27 52.27 104.86 51.39 104.55 50.8C104.24 50.2 103.65 49.21 103.24 48.59C102.83 47.98 102.12 47.02 101.66 46.47C101.2 45.92 100.75 45.41 100.67 45.34C100.52 45.22 100.47 45.24 99.79 45.85Z" />
		<path class="shp3" d="M199.87 47.71C199.87 48.37 199.88 48.63 199.9 48.27C199.91 47.92 199.91 47.38 199.9 47.07C199.88 46.76 199.87 47.05 199.87 47.71Z" />
		<path class="shp1" d="M0.04 54.72C0.04 58.98 0.05 60.71 0.06 58.57C0.07 56.43 0.07 52.95 0.06 50.84C0.05 48.72 0.04 50.47 0.04 54.72Z" />
		<path class="shp0" d="M59.79 64.4C59.82 64.74 59.9 65.36 59.97 65.78C60.04 66.2 60.23 67.08 60.4 67.74C60.57 68.4 60.89 69.45 61.12 70.07C61.35 70.68 61.72 71.58 61.95 72.07C62.18 72.55 62.58 73.31 62.83 73.75C63.09 74.19 63.53 74.9 63.83 75.31C64.12 75.73 64.64 76.42 64.98 76.84C65.32 77.25 65.76 77.78 65.95 78L66.3 78.4C67.46 77.34 68.16 76.76 68.6 76.42C69.04 76.09 69.83 75.55 70.36 75.22C70.89 74.88 71.76 74.39 72.3 74.12C72.84 73.85 73.72 73.46 74.26 73.24C74.8 73.02 75.58 72.74 76 72.61C76.42 72.47 77.32 72.24 78 72.08C78.68 71.93 79.56 71.76 79.96 71.71C80.36 71.66 80.76 71.6 80.86 71.58L81.04 71.55L81.04 63.78L59.73 63.78L59.79 64.4ZM85.8 63.83C85.76 63.86 85.74 65.61 85.75 67.72L85.76 71.55C86.16 71.6 86.86 71.71 87.56 71.82C88.26 71.94 89.42 72.19 90.12 72.39C90.82 72.59 91.9 72.96 92.52 73.2C93.14 73.45 94.05 73.86 94.56 74.12C95.07 74.37 95.93 74.86 96.48 75.21C97.03 75.55 97.82 76.1 98.24 76.41C98.66 76.73 99.34 77.3 99.76 77.67L100.52 78.35C101 77.89 101.43 77.4 101.8 76.96C102.16 76.52 102.64 75.9 102.86 75.59C103.08 75.29 103.49 74.65 103.78 74.19C104.06 73.73 104.5 72.95 104.74 72.47C104.98 71.98 105.34 71.17 105.54 70.67C105.74 70.16 106.03 69.33 106.19 68.82C106.35 68.32 106.57 67.47 106.68 66.94C106.8 66.41 106.94 65.62 107 65.18C107.07 64.74 107.12 64.24 107.12 64.08L107.12 63.78C90.65 63.78 85.84 63.8 85.8 63.83Z" />
		<path class="shp1" d="M199.96 79.64C199.96 81.6 199.97 82.41 199.98 81.44C199.99 80.47 199.99 78.87 199.98 77.88C199.97 76.89 199.96 77.68 199.96 79.64Z" />
		<path class="shp3" d="M80.28 76.49C80.15 76.51 79.52 76.65 78.88 76.79C78.24 76.94 77.34 77.2 76.88 77.36C76.42 77.52 75.68 77.82 75.24 78.02C74.8 78.23 74.15 78.55 73.8 78.75C73.45 78.94 72.8 79.33 72.36 79.63C71.92 79.92 71.21 80.44 70.78 80.78C70.35 81.12 70 81.44 70 81.48C70 81.53 70.3 81.75 70.66 81.98C71.02 82.2 71.79 82.63 72.36 82.93C72.93 83.23 73.8 83.64 74.28 83.83C74.76 84.03 75.63 84.34 76.2 84.52C76.77 84.71 77.6 84.95 78.04 85.05C78.48 85.15 79.18 85.29 79.6 85.36C80.02 85.42 80.51 85.5 80.7 85.52L81.04 85.57L81.04 76.44C80.64 76.45 80.41 76.47 80.28 76.49ZM85.82 77.45C85.79 78.01 85.76 80.07 85.76 82.02C85.76 84.33 85.79 85.57 85.84 85.57C85.88 85.57 86.33 85.51 86.82 85.44C87.31 85.38 88.17 85.21 88.72 85.08C89.27 84.95 90.12 84.71 90.6 84.56C91.08 84.4 91.84 84.12 92.28 83.95C92.72 83.77 93.57 83.39 94.16 83.09C94.75 82.8 95.61 82.32 96.07 82.04L96.89 81.52C96.29 80.96 95.77 80.55 95.36 80.23C94.94 79.92 94.26 79.45 93.84 79.2C93.42 78.95 92.73 78.56 92.3 78.35C91.87 78.13 91.16 77.81 90.72 77.64C90.28 77.46 89.57 77.21 89.14 77.09C88.71 76.96 88 76.78 87.56 76.69C87.12 76.6 86.56 76.5 86.32 76.47L85.88 76.42L85.82 77.45ZM199.95 84.29C199.95 84.93 199.96 85.2 199.98 84.89C199.99 84.58 199.99 84.06 199.98 83.73C199.96 83.4 199.95 83.65 199.95 84.29ZM3.28 105.9C3.57 105.91 4 105.91 4.24 105.9C4.48 105.88 4.25 105.87 3.72 105.87C3.19 105.87 2.99 105.88 3.28 105.9Z" />
	</g>
</svg>