<svg height="244.47009" viewBox="0 0 345.98237 206.88998" width="409.047994" xmlns="http://www.w3.org/2000/svg"><path d="m170.65176 171.924-35.21622-77.83131-47.86873-65.16279 83.069 13.781 82.89865-13.781-49.26865 67.26-33.614 75.73935z" fill="#fdbb30"/><path d="m134.26451 109.33211a26.17775 26.17775 0 0 0 -10.66707-6.20116 36.43269 36.43269 0 0 0 -13.1635-1.17636l-17.26213 1.14441-.10645 8.50066-.13839 8.12272q-2.3474-6.17189-4.66285-12.42362l-8.38887-22.61162-8.87325 22.43065c-3.6515 9.22456-7.138 18.28411-10.52335 27.29576l-7.65431-61.53255-13.057 36.9568c-2.15577 6.11067-4.26363 12.29055-6.3502 18.47042-1.55961-4.8385-3.12454-9.71427-4.68947-14.66988l-12.25867-38.85178-5.71145 40.33685c-3.07663 21.69609-6.0468 43.77011-8.84664 65.59926l-1.91091 14.92538 25.6989-9.13405s.13839-1.038.25018-1.84171c2.17173 6.31826 7.633 22.21772 7.633 22.21772s6.95169-22.5158 7.85126-25.43808c.72391-.19162 10.04429-2.66677 10.04429-2.66677l7.72351-2.044 12.727-3.09792 1.76188-4.7214s1.57025-4.35412 2.96485-8.21854c1.6288-.30341 3.25229-.58552 4.88109-.873.64939 1.70864 4.13588 10.90128 4.13588 10.90128l7.56383-1.32009 8.33564-1.42653 9.87928-1.46912a43.25828 43.25828 0 0 0 12.49814-3.3268 34.38163 34.38163 0 0 0 19.47644-30.77694v-.50035c0-9.24586-3.07662-16.8363-9.15-22.57437z" fill="#fdbb30"/><path d="m336.35858 145.22966c1.46912-.99 9.62379-6.46731 9.62379-6.46731l-2.555-6.77071c-4.80659-13.10495-12.62588-16.87355-18.33736-17.72522a19.40964 19.40964 0 0 0 -7.58511.3247v-.60681l-7.89385-1.08055c-6.82928-.93682-13.73838-1.79381-20.63152-2.59757v-.07452l-7.22316-.76117-7.87254-.8836v.0479l-9.70894-1.02731.21291 10.45947s.07453 4.15718.10113 5.74339c-4.46591-5.81259-9.06487-11.64115-13.9087-17.57617l-16.8576-20.63684.58552 34.3273q-2.531-6.116-5.20045-12.48217l-8.4847-20.23762-8.5592 20.20568c-6.10535 14.4197-12.67379 29.44622-20.07793 45.92587l-5.39742 12.0244 26.4654 1.98012 2.67741-5.98292s.97408-2.225 1.88962-4.31685c1.86834.17033 3.73135.346 5.59967.53761 1.22959 3.15647 4.44462 11.391 4.44462 11.391l5.40272.80376 8.19725 1.19232 18.694 3.10324-.13308-11.08757s-.05854-3.55569-.07984-4.69479c4.59366 6.37682 9.03827 12.7696 13.3498 19.2582l17.48567 26.28442-.38856-22.57968 18.90691 5.21112-.02661-2.59225a25.02212 25.02212 0 0 0 11.10886 7.78739c7.21251 2.48579 14.15887.77714 19.04528-4.68946 3.94424-4.40735 5.94565-10.59788 5.94565-18.40123v-.181a35.09323 35.09323 0 0 0 -3.1884-14.96263 33.08194 33.08194 0 0 0 -5.63162-8.18127z" fill="#fdbb30"/><path d="m171.53005 133.55125a54.804 54.804 0 1 0 -.00532 0z" fill="#fdbb30"/><path d="m170.59855 156.67386-.70263-1.55429s-27.93452-61.75082-29.047-64.19934c-1.52766-2.08125-38.06928-51.82364-38.06928-51.82364l-1.11249-1.51169 1.85237.30872s63.82142 10.58723 67.11629 11.13016c3.28954-.54825 66.97258-11.13548 66.97258-11.13548l1.847-.30872-1.10715 1.51169s-37.95218 51.80767-39.5118 53.94214c-1.08588 2.44854-27.55127 62.07552-27.55127 62.07552l-.692 1.55961z" fill="#bec0c2"/><path d="m123.33663 78.35823a48.19609 48.19609 0 1 0 48.19875-48.19876 48.25182 48.25182 0 0 0 -48.19875 48.19876z" fill="#002d62"/><path d="m146.198 87.881 24.347 53.809 23.011-51.808 32.081-43.791-54.996 9.145-55.124-9.145z" fill="#002d62"/><path d="m171.53005 34.75846a43.59711 43.59711 0 1 0 43.59978 43.59977 43.64937 43.64937 0 0 0 -43.59978-43.59977z" fill="#fff"/><path d="m195.97274 54.76719c.09581.14371.33.692.33.692l-13.79691 12.73233s-3.65149-2.93824-10.31043-2.89033-10.24123 3.12981-10.24123 3.12981l-13.33917-12.49277s2.08125-2.9063 2.1877-3.03937a28.30257 28.30257 0 0 1 45.16471 1.86833" fill="#002d62"/><path d="m180.547 106.06918 3.63021 2.885-4.22637 9.09681 9.24585-10.28914.10114-4.57236-2.03866-6.41408s.0479 4.37542-6.71216 9.29376" fill="#002d62"/><path d="m191.78363 74.55768-1.93753.89425-3.77926-3.38-13.93 11.05564-13.946-11.06628-3.77926 3.38-1.93754-.89425-4.32218 4.32219.39922 5.0248s-.04791 6.462 8.79873 7.9524c0 0-1.09118 10.0709 14.76037 18.31606v.03726a.14624.14624 0 0 0 .03727-.02129c.00533 0 .01064.00532.016.01065v-.02129c15.84623-8.24515 14.755-18.31074 14.755-18.31074 8.84664-1.49041 8.79341-7.95239 8.79341-7.95239l.39921-5.01948-4.32214-4.32221z" fill="#002d62"/><path d="m172.15282 76.59635 8.39419-7.15928a10.59881 10.59881 0 0 0 -4.07733-1.74058 11.2712 11.2712 0 0 0 -4.32219-.05856 11.29162 11.29162 0 0 0 -4.37541.04791 10.50553 10.50553 0 0 0 -4.07733 1.74058l8.39418 7.15928v.05855l.03194-.02661.0213.016v-.03727z" fill="#002d62"/><path d="m165.244 86.625-6.361-10.737-5.025 2.135-.495 1.24 1.938-.591z" fill="#fdbb30"/><path d="m212.06384 70.85828-10.19333-16.94807-29.739 25.124-29.75491-25.13465-10.188 16.94807-.54826 9.59185s1.54364-9.496 9.198-11.18339l3.577-10.34237 27.68428 22.12728v.05323l.03727-.02662.02129.016v-.03194l27.68435-22.12724 3.577 10.337c7.65431 1.69267 9.19795 11.18338 9.19795 11.18338l-.54293-9.59716z" fill="#002d62"/><path d="m163.70007 106.05854-3.63021 2.885 4.22638 9.09681-9.24053-10.28914-.10114-4.57236 2.03866-6.41408s-.05323 4.37542 6.70684 9.29376" fill="#002d62"/><path d="m158.19621 83.761-1.43186.61213-.09049 1.65542-1.5117-2.94888.93683-1.02731-1.64477-1.34136-2.5816.54826c-1.59154 2.736 1.4904 5.26965 1.4904 5.26965a9.6382 9.6382 0 0 0 10.24123 1.63945l-5.40806-4.40736z" fill="#bec0c2"/><path d="m168.52261 41.43868 3.61956-4.35413 3.32147 4.20509a11.8667 11.8667 0 0 0 -6.941.149" fill="#002d62"/><path d="m183.80463 63.50737c-.65472-3.08727-2.59757-6.15325-4.93964-8.89987q1.08586-.91819 2.07593-1.78849a21.72034 21.72034 0 0 0 9.58652 3.75264 27.117 27.117 0 0 1 -8.61243-4.61494c2.93292-2.62419 4.92367-4.61494 4.92367-4.61494-.29275-.51633-2.43256-1.39992-2.43256-1.39992a27.80428 27.80428 0 0 1 -3.86973 4.67349c-3.0713-3.43326-2.33676-6.3715-2.33676-6.3715-.44179-.51632-2.43787-.3726-2.43787-.3726a12.39236 12.39236 0 0 0 3.78456 7.74481c-.57486.57487-1.17635 1.15506-1.78848 1.74058a63.8 63.8 0 0 0 -10.85338-9.11279 16.29184 16.29184 0 0 0 -3.98683 1.18169 29.15546 29.15546 0 0 1 14.10037 8.63372c-1.00071.94215-2.02269 1.87366-3.0234 2.7679-3.231-3.51843-9.6983-6.05212-22.59033-.65472l2.36869 2.28885s12.64718-6.73346 19.63081-1.10716c-3.7686 3.34809-7.01025 6.00954-7.01025 6.00954a51.76536 51.76536 0 0 0 7.95772-5.12594 12.3085 12.3085 0 0 1 2.81582 5.42934 13.14179 13.14179 0 0 0 -2.3261-5.79662c1.11781-.86231 2.21432-1.74059 3.26293-2.61354a41.71472 41.71472 0 0 1 5.70081 8.26112z" fill="#fdbb30"/><path d="m179.009 86.635 6.361-10.736 5.024 2.135.49 1.245-1.937-.596z" fill="#fdbb30"/><path d="m173.787 102.34316v2.53369s3.02873-1.54364 3.082-3.48117a2.49184 2.49184 0 0 1 -3.082.94748" fill="#fff"/><path d="m192.3798 81.26453-2.58692-.54294-1.63944 1.336.93683 1.02731-1.5117 2.94888-.09049-1.65542-1.43719-.61213-5.40806 4.40735a9.63887 9.63887 0 0 0 10.24124-1.63945s3.08195-2.53369 1.4904-5.26965z" fill="#bec0c2"/><path d="m170.46548 102.33252v2.53369s-3.03406-1.54364-3.082-3.48117a2.48541 2.48541 0 0 0 3.082.94748" fill="#fff"/><g fill="#002d62"><path d="m130.55978 113.70752a19.09606 19.09606 0 0 0 -7.91513-4.599 30.05146 30.05146 0 0 0 -10.60319-.86231l-10.699.70795-.02662 1.98011-.75053 43.95108c-6.17987-15.298-12.01908-30.34578-17.79441-45.9099l-1.9535-5.26434-2.06528 5.22175c-7.35623 18.58221-14.07372 36.52033-20.52506 54.7459l-7.57447-60.88316-3.03937 8.6071c-4.52446 12.82284-8.87858 25.84263-13.05172 38.80386-3.77925-11.30581-7.61705-23.10666-11.44421-35.23219l-2.85307-9.04891-1.33072 9.38954c-3.07131 21.69077-6.0468 43.72753-8.83067 65.50346l-.44712 3.47585 10.74691-3.82183.181-1.33073s2.07592-16.49562 3.37471-26.85928c2.76258 8.39951 5.53048 16.69789 8.27177 24.6769l2.14512 6.24375 1.94818-6.30762c2.99678-9.709 6.14793-19.44984 9.35231-29.12685 1.022 9.2565 2.65612 24.01687 2.65612 24.01687l10.24656-2.71468 9.16069-2.23029.40986-1.10184s3.66747-10.16672 4.36477-12.09893c4.86512-.93683 9.79411-1.8151 14.70714-2.62951.91022 2.40594 4.14653 10.92256 4.14653 10.92256l1.76187-.30872 8.46872-1.44782 10.01235-1.48509a36.53089 36.53089 0 0 0 10.49673-2.73065 26.16778 26.16778 0 0 0 7.78739-5.68484 26.517 26.517 0 0 0 7.57447-18.74721c.08516-7.40946-2.24094-13.40835-6.92508-17.83167zm-53.59616 27.7216c1.05926-2.80515 1.94818-5.1632 3.36939-8.9318 1.32008 3.56633 2.15577 5.82324 2.92759 7.90449-2.06528.33534-3.68344.60149-6.297 1.022zm49.83819-9.49071a15.591 15.591 0 0 1 -4.237 10.91192 15.181 15.181 0 0 1 -4.49252 3.3268 22.63435 22.63435 0 0 1 -6.41408 1.63413s-.28743.03726-.3726.0479c.06387-4.05071.43115-26.311.47374-28.717.36728-.02662.857-.06387.857-.06387 4.65221-.33535 8.16531.58552 10.43287 2.74128 2.523 2.42191 3.75263 5.64226 3.75263 9.83669v.28212z"/><path d="m335.57613 156.43967a27.763 27.763 0 0 0 -7.80867-9.6291l-4.072-3.28423c-2.44852-1.9535-3.64617-3.90167-3.67281-5.96695a4.24111 4.24111 0 0 1 1.01666-3.15647 2.33014 2.33014 0 0 1 2.31015-.676 3.68907 3.68907 0 0 1 2.1877 1.14442c.40987.4205 1.171 1.45847 2.25157 4.37009l.95278 2.555 8.6071-5.786-.59616-1.57558c-2.89565-7.89916-7.18057-12.32248-12.727-13.15286a11.54918 11.54918 0 0 0 -10.59785 3.67812 13.86459 13.86459 0 0 0 -2.82645 4.56172l-.1118-9.363-1.8364-.25018c-8.27176-1.13378-16.71918-2.1877-25.10272-3.12453l-1.54895-.17566-10.56061-1.11781.05324 2.58693s.33 18.82705.48438 27.67369c-8.341-11.62519-17.161-23.14925-26.88058-35.04589l-3.9283-4.80657.88361 51.92476c-5.88712-14.84021-12.26925-30.45756-19.48178-47.65581l-1.97478-4.71076-1.99076 4.70543c-6.12132 14.45164-12.70573 29.52073-20.13649 46.06427l-1.25619 2.79985 11.4176.857.62278-1.3946s3.00212-6.87718 3.93362-9.01164c5.00884.40985 10.05493.89424 15.05846 1.44249.76649 1.96948 4.52978 11.61986 4.52978 11.61986l1.25619.18631 8.38355 1.21894 10.3477 1.7193-.03194-2.5816s-.38325-21.86644-.46309-26.67831c9.5599 12.397 18.3746 24.62368 26.73686 37.191l4.072 6.12132-.88359-51.50427c1.96415.27147 6.6962.91554 8.55389 1.171.05321 3.40132.69729 44.84.69729 44.84l10.47544 2.89032-.02661-2.86372s-.56422-39.29356-.62276-43.31766c2.11849.33 6.71215 1.04329 8.55388 1.3254a20.12009 20.12009 0 0 0 -.36728 4.13056c.07986 6.77072 3.11388 12.55136 9.27779 17.672.01065.00533 3.907 3.25761 3.907 3.25761a20.30129 20.30129 0 0 1 2.36337 2.38466 12.28915 12.28915 0 0 1 1.533 2.3048 10.28089 10.28089 0 0 1 .857 2.40594 13.5677 13.5677 0 0 1 .29808 2.78388c.01065 2.31013-.42583 4.0028-1.30412 5.03013a1.91844 1.91844 0 0 1 -2.3953.59084 7.04994 7.04994 0 0 1 -4.19443-4.20508c-.43116-.89424-.99538-2.72532-1.352-6.58974l-.18628-2.03335-10.534.40455.27148 2.31013a33.425 33.425 0 0 0 4.6788 14.17485 19.09432 19.09432 0 0 0 9.79942 8.07483c4.5138 1.55429 8.474.61746 11.44954-2.70935 2.77324-3.09792 4.16783-7.75012 4.14122-13.82887a28.038 28.038 0 0 0 -2.50709-11.9552zm-118.02971-17.29938c.93684-2.193 1.74591-4.09862 3.10324-7.29236 1.33072 3.31084 2.12915 5.291 3.15647 7.83529-2.50177-.21824-4.01878-.35132-6.25972-.54826z"/><path d="m127.40032 15.45469h3.0926v14.56874h-3.0926z" transform="matrix(.79420256 -.60765311 .60765311 .79420256 12.71942 83.03445)"/><path d="m142.057 6.723-2.768 1.373 3.652 7.367-12.498-5.142 7.335 14.787 2.768-1.373-3.689-7.436 12.493 5.12z"/><path d="m157.813 4.3488a6.0558 6.0558 0 0 0 -2.571-.92086 9.08177 9.08177 0 0 0 -3.15115.26614l-3.10857.70262 3.2097 14.20679 3.07663-.6973a9.29472 9.29472 0 0 0 2.91162-1.0699 6.347 6.347 0 0 0 1.92689-1.9322 7.22136 7.22136 0 0 0 .91553-5.75937 7.28775 7.28775 0 0 0 -3.20965-4.79592zm-3.29487 10.518-1.82578-8.0908.20227-.04791a4.26209 4.26209 0 0 1 3.2789.31937 4.2003 4.2003 0 0 1 1.82575 2.78387 4.1189 4.1189 0 0 1 -.46842 3.26826 3.518 3.518 0 0 1 -1.04328 1.0699 5.799 5.799 0 0 1 -1.76188.65471l-.20227.04791z"/><path d="m165.66179 1.47658h3.0926v14.56874h-3.0926z" transform="matrix(.99837182 -.05704129 .05704129 .99837182 -.22749 9.55203)"/><path d="m171.58327 15.54815 3.3268.35664 1.70334-3.07131 4.37008.47374.92618 3.35342 3.35341.362-4.95561-17.02264-8.7242 15.54283zm7.83529-7.83529.65472 2.3474-1.84171-.20226 1.187-2.14513z"/><path d="m200.636 6.882-2.774 7.745-4.966-12.572-5.562 15.542 2.911 1.038 2.795-7.808 4.977 12.546 5.525-15.447z"/><path d="m200.64093 22.51049 2.77855 1.863 2.93291-1.93221 3.65149 2.44321-.73456 3.40132 2.80516 1.87366 3.50245-17.37923-14.936 9.73024zm10.57657-3.31084-.50568 2.38466-1.53832-1.03264 2.044-1.352z"/></g></svg>