<svg height="294.689846" viewBox="0 0 37.60591 33.09361" width="339.339823" xmlns="http://www.w3.org/2000/svg"><path d="m20.45549 20.382a9.122 9.122 0 0 1 -6.00736-2.2561 1.00709 1.00709 0 0 1 -.18242-.11732l-.02353-.0203-6.56333-6.24558a.66256.66256 0 0 1 -.19338-.73323.59576.59576 0 0 1 .56854-.38.84805.84805 0 0 1 .42318.1228l.00774.00451 2.99288 2.1578c-.00644-.03707-.01321-.07381-.01934-.11055l-5.94934-5.14327-.00935-.01128c-.31489-.3787-.29362-.6446-.22045-.80124a.62455.62455 0 0 1 .58755-.31875.7425.7425 0 0 1 .418.12022l4.08516 2.56712a.671.671 0 0 1 .157-.46153.65619.65619 0 0 1 .50279-.233.69966.69966 0 0 1 .41093.13633l.21562.15567c.078-.28137.16985-.56016.27492-.83315l-.60238-.33648a.678.678 0 0 1 -.15567.50472.65782.65782 0 0 1 -.50247.23206.70413.70413 0 0 1 -.40707-.13311l-4.64017-3.29877a.63264.63264 0 0 1 -.31553-.722.64126.64126 0 0 1 .61753-.466.76353.76353 0 0 1 .3397.0838l2.287 1.07423-.09862-.4783a.69347.69347 0 0 1 .136-.58014.66386.66386 0 0 1 .51665-.24431.70716.70716 0 0 1 .33616.08638l3.75415 2.01116q.10249-.13392.21014-.26493l-6.12204-3.36546-.00612-.00419a.68339.68339 0 0 1 -.313-.75322.6331.6331 0 0 1 .64787-.42125 1.11851 1.11851 0 0 1 .17307.01418l.01773.00226 3.9008 1.4423a.68881.68881 0 0 1 .14665-.4986.67273.67273 0 0 1 .52728-.25075.71953.71953 0 0 1 .26558.05156l3.66294 1.45071.07381-.03545c.04-.02031.07929-.04.11893-.05866l-3.89049-1.80589-.00967-.0058c-.49924-.313-.46734-.64557-.43027-.77384a.68651.68651 0 0 1 .69745-.43736.96994.96994 0 0 1 .11313.00645l.00935.001.0274.0058 9.572 2.30574.82509.27428a1.58107 1.58107 0 0 1 .22013.09734 9.13154 9.13154 0 0 1 -3.17885 17.69139" fill="#fcb827"/><path d="m1.095 33.07261a.899.899 0 0 1 -.91018-.30747 1.03458 1.03458 0 0 1 -.10152-1.00687l.46314-1.21217v-5.4401l-.4158-1.3208a1.20511 1.20511 0 0 1 .17275-1.0001 1.40109 1.40109 0 0 1 .877-.61269l.24011-.04705v-1.334l-.29587-.6504a1.093 1.093 0 0 1 .09476-.99623 1.33077 1.33077 0 0 1 .866-.63461l13.04253-2.56454a.85215.85215 0 0 1 .86892.29684.98733.98733 0 0 1 .088.96529l-.29136.73871.82412 1.2415 19.88561-3.9614a.90689.90689 0 0 1 .88536.27653 1.00485 1.00485 0 0 1 .15664.95014l-.41158 1.35463v5.48975l.41609 1.16479a1.18575 1.18575 0 0 1 -.15019 1.01621 1.40009 1.40009 0 0 1 -.88794.62945z" fill="#fcb827"/><path d="m36.92507 24.79364-.45025-1.25955v-5.70085l.44381-1.45938a.4016.4016 0 0 0 -.06253-.3787.36135.36135 0 0 0 -.3526-.11023l-21.36884 4.20216v-2.1462l.34486-.87279a.36432.36432 0 0 0 -.03255-.35485.31311.31311 0 0 0 -.31908-.10894l-13.04253 2.56455a.488.488 0 0 0 -.31779.233.40379.40379 0 0 0 -.03513.36613l.34647.7616v2.1246l-.89857.17694a.55568.55568 0 0 0 -.34937.244.478.478 0 0 0 -.06833.39837l.44252 1.40716v5.66669l-.5131 1.3427a.41339.41339 0 0 0 .04029.40158.35824.35824 0 0 0 .36259.12215l35.41662-6.96427a.55758.55758 0 0 0 .35388-.25043.47232.47232 0 0 0 .05963-.40546" fill="#00285d"/><g fill="#bdd3e8"><path d="m4.448 28.125 1.7-.335v-.862l-2.574.506v2.274l3.499-.688v-.8l-2.625.517z"/><path d="m3.574 27.059 2.574-.506v-.874l-1.7.334v-.793l2.625-.516v-.749l-3.499.687z"/><path d="m11.26335 23.46306a.84432.84432 0 0 0 -.36839-.19628 1.06869 1.06869 0 0 0 -.48152-.00483l-1.324.2601v6.328l.86183-.16921v-5.52903l.37484-.07381a.35516.35516 0 0 1 .25655.04383.26326.26326 0 0 1 .118.24527v5.16648l.87472-.17211v-5.12876a1.1473 1.1473 0 0 0 -.08122-.428.94364.94364 0 0 0 -.23077-.34164"/><path d="m15.643 25.878 1.699-.333v-.863l-2.573.506v2.358l3.498-.688v-.799l-2.624.516z"/><path d="m14.769 24.813 2.573-.506v-.874l-1.699.334v-.76l2.624-.516v-.749l-3.498.689z"/><path d="m22.51163 24.44749a1.70035 1.70035 0 0 0 -.24366-.24495 2.13913 2.13913 0 0 0 -.18693-.13827 1.4768 1.4768 0 0 1 -.31263.09895l-1.58668.31167v3.194l.87408-.17179v-2.30671l.61269-.12054a.31165.31165 0 0 1 .26815.05318.28919.28919 0 0 1 .10733.23592v1.94379l.77352-.1518v-1.98246a.8516.8516 0 0 0 -.09347-.39385 1.97582 1.97582 0 0 0 -.21239-.32714"/><path d="m22.5117 23.31748a1.495 1.495 0 0 0 .26848-.409 1.16428 1.16428 0 0 0 .09991-.47508v-.43607a1.01646 1.01646 0 0 0 -.09991-.46186.88432.88432 0 0 0 -.26848-.32166.92828.92828 0 0 0 -.37516-.16405 1.07672 1.07672 0 0 0 -.41867.00064l-1.53608.30232v2.735l1.49869-.29458a1.45141 1.45141 0 0 0 .44929-.16921 1.63478 1.63478 0 0 0 .38193-.3065m-.468-.80769a.46935.46935 0 0 1 -.10056.27557.40972.40972 0 0 1 -.26268.17049l-.62429.12312v-1.09867l.612-.12054a.2998.2998 0 0 1 .27492.05866.30392.30392 0 0 1 .10056.23044z"/><path d="m28.465 21.37961v-.72485a.91932.91932 0 0 0 -.0751-.35388.95385.95385 0 0 0 -.21884-.31908.85676.85676 0 0 0 -.35582-.20531 1.016 1.016 0 0 0 -.48732-.01l-.312.06156a1.44878 1.44878 0 0 0 -.5189.20208 1.50613 1.50613 0 0 0 -.36807.33423 1.27033 1.27033 0 0 0 -.21884.4177 1.50708 1.50708 0 0 0 -.06865.439v3.205a1.17184 1.17184 0 0 0 .0622.37484.84253.84253 0 0 0 .20015.32907.78526.78526 0 0 0 .36227.2037 1.21123 1.21123 0 0 0 .54984-.00161l.32456-.06381a1.24371 1.24371 0 0 0 .47475-.20015 1.52546 1.52546 0 0 0 .35582-.33841 1.46177 1.46177 0 0 0 .21884-.40513 1.26134 1.26134 0 0 0 .07511-.41456v-1.0955l-1.19928.2356v.68682l.36162-.07123v.409a.49381.49381 0 0 1 -.36162.44542l-.23721.04641a.27037.27037 0 0 1 -.2688-.06478.33654.33654 0 0 1 -.09379-.23786v-3.21788a.45821.45821 0 0 1 .10023-.282.40107.40107 0 0 1 .24978-.16115l.24978-.04931a.31333.31333 0 0 1 .24914.05092.29834.29834 0 0 1 .11248.26526v.6749z"/><path d="m2.3 24.506v6.037l-.237.649 5.01-.985v-.8l-3.886.765v-5.841l3.886-.764v-.799l-5.01.985z"/><path d="m12.20018 22.36662a1.589 1.589 0 0 0 -.6807-.3223 2.105 2.105 0 0 0 -.85571.00613l-2.82367.55532v7.49023l.84958-.1676v-6.71574l1.73623-.34131a1.38651 1.38651 0 0 1 .56209.00258 1.25471 1.25471 0 0 1 .49344.22078 1.22854 1.22854 0 0 1 .35647.42995 1.33306 1.33306 0 0 1 .1373.61688v5.14134l.83669-.16469v-5.32893a1.991 1.991 0 0 0 -.16212-.82412 1.62839 1.62839 0 0 0 -.44961-.59852"/><path d="m13.494 28.984 4.773-.938v-.8l-3.886.764v-5.891l3.886-.764v-.8l-4.773.939z"/><path d="m23.33025 20.1529a1.75157 1.75157 0 0 0 -.67522-.30457 1.84774 1.84774 0 0 0 -.7616-.00645l-2.96065.5824v7.49026l.86183-.16953v-6.70288l1.97345-.38772a1.24862 1.24862 0 0 1 .54308.011 1.28717 1.28717 0 0 1 .488.23625 1.22578 1.22578 0 0 1 .35034.42995 1.32975 1.32975 0 0 1 .13053.59915v.42415a1.57752 1.57752 0 0 1 -.24334.85958 2.223 2.223 0 0 1 -.58111.62655c.05.04.11861.09476.20595.16534a1.63537 1.63537 0 0 1 .25591.26171 1.55275 1.55275 0 0 1 .2124.35872 1.11283 1.11283 0 0 1 .08766.44993v1.99526l.77384-.15245v-2.16903a1.02358 1.02358 0 0 0 -.06832-.39252 1.37416 1.37416 0 0 0 -.15567-.28814 1.42979 1.42979 0 0 0 -.23754-.24043 2.51539 2.51539 0 0 0 .46153-1.4149v-.81123a1.92993 1.92993 0 0 0 -.18049-.85828 1.60611 1.60611 0 0 0 -.48055-.59207"/><path d="m29.1079 18.91079a1.69576 1.69576 0 0 0 -.66813-.34325 1.87663 1.87663 0 0 0 -.86247-.01225l-.87376.17146a2.35976 2.35976 0 0 0 -.89309.37 2.89154 2.89154 0 0 0 -.66265.62333 2.649 2.649 0 0 0 -.40578.761 2.44912 2.44912 0 0 0 -.13762.78416v3.60456a1.75425 1.75425 0 0 0 .175.80768 1.62969 1.62969 0 0 0 .468.5708 1.67173 1.67173 0 0 0 .67522.30361 1.93226 1.93226 0 0 0 .79415.00064l.8483-.167a2.48494 2.48494 0 0 0 .7935-.30554 2.69346 2.69346 0 0 0 .6749-.56435 2.89823 2.89823 0 0 0 .47475-.7616 2.22394 2.22394 0 0 0 .18113-.88472v-2.29532l-2.4237.47668v.624l1.58735-.31268v1.47194a2.05324 2.05324 0 0 1 -.05737.41093 1.87 1.87 0 0 1 -.21852.54211 1.84994 1.84994 0 0 1 -.46218.52213 1.76409 1.76409 0 0 1 -.77449.33358.65937.65937 0 0 1 -.16212.03835c-.06736.009-.12022.01708-.16244.02546a1.46041 1.46041 0 0 1 -.768-.01772 1.07713 1.07713 0 0 1 -.48152-.31714 1.283 1.283 0 0 1 -.24914-.45058 1.41954 1.41954 0 0 1 -.07574-.40449v-3.22946a1.68465 1.68465 0 0 1 .09991-.55049 1.92611 1.92611 0 0 1 .30038-.54695 2.18978 2.18978 0 0 1 .49312-.45927 1.81738 1.81738 0 0 1 .681-.27718l.32456-.06382a1.33726 1.33726 0 0 1 .65556.01418 1.1836 1.1836 0 0 1 .76256.70584 1.31841 1.31841 0 0 1 .09444.46895v.72518l.83637-.16438v-.88729a1.891 1.891 0 0 0 -.15019-.75129 1.56515 1.56515 0 0 0 -.43124-.58981"/><path d="m32.64289 21.24917 1.4742-.29007v-3.6175l-.83733.1647-.01225.00322v2.82883s-.55855.10991-.5998.118a.28711.28711 0 0 1 -.25655-.06188.31355.31355 0 0 1 -.11764-.214v-2.4801l-.82509.16179v2.44364a.92933.92933 0 0 0 1.17447.94337"/><path d="m30.91839 22.15a1.715 1.715 0 0 0 .68134.291 2.00335 2.00335 0 0 0 .78093-.00323l.839-.165v.846l-2.872.56435v.80511l.00834-.00123 3.76253-.74v-2.41371l-1.501.29491a1.34014 1.34014 0 0 1 -.643-.01031 1.15378 1.15378 0 0 1 -.77546-.68489 1.373 1.373 0 0 1 -.10571-.52857v-2.46818l-.83669.16437v2.64351a1.80069 1.80069 0 0 0 .18178.83218 1.55028 1.55028 0 0 0 .47991.57369"/><path d="m35.61743 17.04647-1.11355.21917v.01483l-.011.00225s-.02546 6.78378 0 6.77895l-1.57379.30941-2.56326.50408-.00838.00129v.799l5.26994-1.03619-.23722-.71905v-6.03769z"/></g><path d="m5.60485 22.104a.9242.9242 0 0 1 -.35808.00226.74257.74257 0 0 1 -.30425-.13182.69837.69837 0 0 1 -.21111-.25623.8337.8337 0 0 1 -.078-.3729v-.95691a1.00307 1.00307 0 0 1 .07542-.38161 1.3076 1.3076 0 0 1 .50859-.60915 1.06387 1.06387 0 0 1 .36743-.14764l.42254-.08316a.86513.86513 0 0 1 .35131.00161.74942.74942 0 0 1 .30425.13762.72329.72329 0 0 1 .21143.26009.83038.83038 0 0 1 .07832.37226v.95047a1.03206 1.03206 0 0 1 -.07542.389 1.22581 1.22581 0 0 1 -.20788.33842 1.33768 1.33768 0 0 1 -.30619.26139 1.05171 1.05171 0 0 1 -.35582.14278zm.15309-2.10237a.34266.34266 0 0 0 -.15857.0896.29007.29007 0 0 0 -.09669.22238c.00387.3916.00612.76579.00612.76579a.22037.22037 0 0 0 .06672.1676.20561.20561 0 0 0 .18855.04383l.1286-.02546a.29377.29377 0 0 0 .15857-.10281.29917.29917 0 0 0 .07832-.19918v-.779a.21243.21243 0 0 0 -.067-.16179.205.205 0 0 0 -.18822-.04383z" fill="#fff"/><path d="m8.59357 21.44229a.79407.79407 0 0 1 -.64847-.157.82411.82411 0 0 1 -.21562-.27041.79122.79122 0 0 1 -.08122-.36291v-1.71197l.87343-.17146v1.63245a.19417.19417 0 0 0 .0838.16856.22242.22242 0 0 0 .17791.03513l.194-.038v-1.88779l.83089-.16341v1.88772l.4986-.098v-1.888l.86763-.17082v2.68862z" fill="#fff"/><path d="m13.35018 20.577c-.00193-.22142 0-.52245 0-.52245l-.64653.127v.52277l-.83282.16373v-1.81651a1.04135 1.04135 0 0 1 .08154-.40739 1.21579 1.21579 0 0 1 .21658-.3439 1.29525 1.29525 0 0 1 .30844-.253 1.1178 1.1178 0 0 1 .35292-.13762l1.37687-.27073.077-.01386-.077.20079v2.58292zm-.37838-1.9177a.31588.31588 0 0 0 -.18693.11861.35055.35055 0 0 0 -.0809.18113l-.00032.35485.64653-.127v-.60206z" fill="#fff"/><path d="m3.021 22.466v-2.43l-.083-.168.083-.016v-.002l.873-.171v2.615z" fill="#fff"/><path d="m23.36956 3.26549a.88807.88807 0 0 0 -.15471-.07316l-.79931-.26622-9.5433-2.29833c-.05769-.01128-.05931-.00516-.00387.01353l5.20676 2.41629a8.32852 8.32852 0 0 0 -.90824.35517c-.17436.07316-.34454.15342-.51278.23754-.13569.06511-.22239.10862-.22239.10862a.27406.27406 0 0 1 -.19531.0087l-3.82441-1.51481c-.05479-.02159-.089.00806-.07639.06511l.20369.93145c.01257.05737-.02256.088-.07767.06736l-4.85932-1.79651c-.05511-.02031-.05834-.01418-.00677.0145l6.27809 3.4512c.05157.02836.0867.00387.07832-.05447l-.12731-.8657c-.00838-.05866.02933-.088.08412-.06639l1.34077.53663a8.54325 8.54325 0 0 0 -1.86253 1.99632l-4.24216-2.27254c-.05221-.028-.08477-.00355-.07284.05415l.33132 1.608c.01128.05737-.02224.08412-.07542.05931l-3.33452-1.56643c-.05318-.02481-.05738-.0174-.00938.01676l4.64532 3.302c.048.03384.07928.0145.06994-.04351l-.1879-1.13031c-.00967-.058.02417-.08219.07542-.0535l2.14491 1.1996a8.42813 8.42813 0 0 0 -.66523 2.18262l-.99494-.71809c-.048-.0348-.07864-.01547-.06865.04287l.20337 1.18027c.00967.058-.02289.07961-.07252.04834l-5.191-3.262c-.05-.03126-.05447-.02546-.01.01289l6.11275 5.28444a8.4274 8.4274 0 0 0 .5463 2.00019.06176.06176 0 0 1 -.04512-.01418l-4.42351-3.18887c-.0477-.03481-.05189-.02933-.009.011l6.55043 6.23393a.41019.41019 0 0 0 .12666.06736 8.49937 8.49937 0 1 0 8.57835-14.3211" fill="#00285d"/><path d="m16.35163 16.27876a4.08258 4.08258 0 0 0 -.13891-.53953 5.73491 5.73491 0 0 0 -.43317-.99236c-.47346-.86377-.92726-1.625-1.20347-2.07916-.1012-.16566-.1792-.29136-.225-.36517-.03062-.04931-.0245-.077.02-.07767a4.68786 4.68786 0 0 1 .65943.04577 10.04679 10.04679 0 0 1 2.47914.69391c.70874.2891 1.26084.73452 1.73366.88536a1.21376 1.21376 0 0 0 .13375.03578 4.08267 4.08267 0 0 0 .84346.05994c.224-.06446.44961-.12183.6778-.16985.25945-.05189.52052-.097.78351-.1286.21659-.02578.4306-.04512.64976-.057a.05259.05259 0 0 0 .0506-.04319c.03-.17468.04835-.35259.087-.52728.02707-.12151-.00644-.156-.06414-.1605-.66233-.05286-1.32143-.12344-1.97473-.2269a20.91112 20.91112 0 0 1 -3.84279-.974 14.45981 14.45981 0 0 1 -1.81938-.80285c-.10378-.05608-.20595-.11474-.30844-.17308-.186-.107-.37065-.21658-.55081-.33422-.22754-.15052-.448-.311-.66233-.47959-.02063-.01644-.07058.00548-.07832.03255l-.011.06156c-.01386.07993-.0274.16051-.039.24173-.00548.039-.01.07864-.01483.11829-.00935.07348-.01869.147-.02578.22174-.00548.05769-.009.11667-.01321.17533-.00419.05769-.00935.11473-.01192.17275-.0058.11925-.00935.2385-.00935.35936 0 .09347.00258.18693.00613.27976.00064.02288.00193.04641.0029.06929v.00419c.001.01483.001.03029.00226.04512.001.02224.00355.04383.00483.06575.00258.04383.00451.08767.00806.13086l.00258.03771c.00194.02256.00516.04512.00741.06768l.00194.02482c.00161.021.00387.04223.00612.06318.00129.01418.00355.02772.00548.0419.00258.02417.00451.04931.00741.07381.0029.02288.0058.04545.00935.06833.00322.02546.00741.0506.01063.07606.0029.01869.00451.03835.00774.057l.00935.06059.00226.01193.00258.018.0087.05382c.0087.05189.019.10314.029.15438.00516.02675.009.05382.0145.08025l.00612.02966.00161.00741.01128.05124c.01547.07188.03255.14375.05.215l.00516.02063.01032.0419.0058.02288c.00677.0261.01515.05156.02224.07767.01386.05189.0274.10378.04254.155l.01418.04641.001.0029.00032.001c.009.02933.01773.05866.02707.08767l.02.059.01966.06156.02288.06736.01354.03706.01354.04c.0116.03223.02385.06446.0361.09669l.00774.01934c.00644.0174.01225.03545.019.05286l.01128.02772.02868.06929c.009.02256.0174.04512.02643.06736.01128.02675.02256.05318.03416.07961l.01418.0332.01676.03835c.01128.02514.02321.04964.03449.07445l.03159.06994c.00935.02.01837.04029.02836.06059l.01644.03481.02482.04964c.02417.04834.049.096.07381.14375l.01547.03029.00129.0029c.01289.0245.02611.04867.03932.07284l.02933.05415c.01579.02869.03288.05737.04931.08573l.01386.02514c.01257.02192.02514.04416.038.06575l.0058.00934.00483.009c.02772.04673.0564.09283.08509.13859l.01708.02707.01193.019c.01257.02.02578.03932.03835.059l.01612.02482c.02868.04415.05834.088.08831.13182l.04415.06414.01579.02288.02063.02836.01611.02288c.03126.04319.06253.08638.09443.12892l.01966.02546c.02449.03223.04931.06446.07413.096.01257.01547.02482.03158.03707.04737a7.5471 7.5471 0 0 0 .66426.72711l.00806.00806q.1431.13682.29329.26622v.00032q.07687.06575.15471.12924a.11805.11805 0 0 0 .12247-.009 5.74161 5.74161 0 0 1 .41964-.59207.2679.2679 0 0 0 .02965-.12086" fill="#7398c5"/><path d="m27.2851 8.37079a.05361.05361 0 0 0 -.08412-.00838c-.04577.07542-.10443.1547-.167.2414-.06027.088-.13343.17791-.21207.27363a5.07338 5.07338 0 0 1 -.57853.5969 4.82752 4.82752 0 0 1 -1.79908.992c-.09057.02514-.17984.05479-.272.07606-.09185.02063-.185.04126-.27847.06156-.09347.02-.19209.03159-.28846.04738l-.14536.02192-.13827.01257-.07832.00677c-.02321.00193-.04319.03448-.03578.09153.01321.1763.02449.35389.03287.53147.00451.11538.00774.23044.01.34647.0029.12473.00419.24946.00419.37483 0 .01773.01837.05254.04254.05189l.10507-.00226.48861-.01193.47636-.02353c.15857-.00516.31714-.01966.476-.03255.15857-.01386.31779-.02224.47443-.04383l.4712-.0564.468-.07413c.15567-.0245.31005-.05995.46508-.08928.155-.02836.30973-.06575.46379-.10249.10539-.02353.21078-.04931.3165-.07606.09089-.02321.18146-.04706.27234-.07155a.18.18 0 0 0 .08863-.079c.00129-.058.00451-.1157.00451-.174a7.37994 7.37994 0 0 0 -.58272-2.881" fill="#7398c5"/><path d="m25.78814 15.44905a5.66236 5.66236 0 0 0 -.585-.37838 5.52447 5.52447 0 0 0 -.63074-.2978 5.75669 5.75669 0 0 0 -.66877-.21175 5.91449 5.91449 0 0 0 -.69585-.12215l-.02675-.0029c-.04448-.00451-.07284.00193-.07961.05608-.03706.30586-.08025.60625-.12892.89922a19.20865 19.20865 0 0 1 -.52857 2.31573c-.08154.27428-.14664.48345-.20756.66136-.01676.04834.00677.07639.06349.06188.186-.04737.36807-.10216.54759-.1634l.05-.01676c.07606-.02643.15116-.05447.22593-.08315.02965-.01128.059-.02288.08831-.03481.067-.02675.13343-.05415.19951-.08283.04-.0174.07928-.03578.11925-.05383.05673-.02578.11345-.05156.16953-.07864q.13972-.06768.27589-.14117c.02772-.01483.05447-.03126.08186-.04641.07058-.03932.14117-.07961.21046-.12119.03191-.019.06285-.03867.09411-.05834q.09717-.05946.19177-.1228c.03094-.02031.06188-.04126.09282-.06253q.09379-.06478.18564-.13214c.02933-.02159.059-.04254.088-.06478.06349-.048.12634-.09766.18855-.14794.02449-.0203.05-.04.07477-.06027.07961-.06575.1576-.13375.23431-.203.0477-.04287.09379-.08767.14052-.1315.02836-.0274.05737-.05415.08573-.08186.05512-.05479.10991-.11055.16373-.16663l.04448-.04673c.1286-.13762.253-.28008.37129-.42737a.07919.07919 0 0 0 -.00419-.09443c-.147-.13375-.27686-.24076-.43156-.35872" fill="#7398c5"/><path d="m22.14147 14.40148c-.1286.00323-.25752.00838-.38515.01644-.24366.01612-.48571.04415-.72808.079a8.16138 8.16138 0 0 0 -2.76663.93306 6.03466 6.03466 0 0 0 -2.03275 1.81.11425.11425 0 0 0 .00774.10443c.07413.05124.14955.10153.22625.15019l.0029.00226a7.47507 7.47507 0 0 0 .93113.50633l.05737.02578c.0693.03062.13924.06059.20982.08928l.0751.02965c.15116.05962.30425.11506.46025.165l.00806.00258c.0564.018.11377.03416.1705.05124.04931.01418.098.028.147.04158q.07928.02127.15922.04061c.05866.01482.118.028.17727.04125.04609.00967.09185.021.13827.03.10314.02031.20595.039.31005.05543.02965.00451.05995.00774.08928.01193.08283.01193.16566.02256.24946.03159.039.00451.078.00806.11732.0116.079.00741.15857.01321.23818.01837.03578.00161.07155.00451.10733.0058.11409.00548.22883.009.34422.009.16179 0 .1937-.039.24817-.12956a10.829 10.829 0 0 0 .642-1.33432 17.34951 17.34951 0 0 0 .68682-2.07433q.08509-.32247.16179-.66007a.049.049 0 0 0 -.05286-.06414" fill="#7398c5"/><path d="m27.652 12.60237c-.08638.01676-.17275.0332-.2601.048-.16469.0303-.32907.06092-.496.08316-.16663.02288-.332.05156-.49957.06929l-.5015.05286-.50214.03448c-.1676.01386-.3339.01418-.50118.02031-.167.00483-.33326.01128-.50086.0087l-.50086-.00129-.48925-.01353-.0535-.00129c-.08734-.0029-.11055.018-.117.09927q-.01354.263-.0332.5247c-.00322.03642.02063.05318.06736.05543l.01418.001a6.14131 6.14131 0 0 1 1.61118.30167 6.3894 6.3894 0 0 1 .76708.31134 6.73784 6.73784 0 0 1 .72.41061c.14245.09443.2949.20627.43382.31521a.08544.08544 0 0 0 .08992-.01161q.07348-.12859.14181-.26074l.00194-.00419a7.33946 7.33946 0 0 0 .68876-1.99343c.00451-.02288-.04964-.05608-.0809-.05" fill="#7398c5"/><path d="m23.28129 4.39863c-.03191-.01321-.06446-.02514-.09669-.03835q.15374.0614.30393.1286c-.0274-.01225-.05447-.02514-.08251-.03739-.04125-.018-.08283-.03545-.12473-.05286" fill="#7398c5"/><path d="m14.13134 9.9939c.274.16309.55661.31263.84378.45284.22142.106.447.20369.67425.29684q.54726.2248 1.11226.4061a20.30543 20.30543 0 0 0 3.76447.79318c.63719.07477 1.27792.12408 1.917.14181.03.001.05963.00161.08928.00161.01773.00032.05737-.03932.059-.05962q.01789-.18323.03126-.36645c.0087-.116.01644-.23174.02256-.34712.009-.17565.01708-.3484.02-.52019.001-.04222-.01612-.07251-.08058-.07091-.13923.00032-.27879-.00612-.418-.00774-.19338-.00612-.38612-.029-.57756-.04318-.19016-.02933-.38064-.0477-.56661-.08605-.18629-.03771-.371-.07123-.54984-.12312-.0896-.02385-.1792-.04577-.26686-.07123-.087-.02868-.17308-.057-.25881-.08477-.17243-.05156-.33455-.12473-.496-.18564-.15922-.0664-.31134-.14149-.46025-.21046-.14407-.07929-.28717-.14987-.419-.23012-.13021-.08315-.26074-.1547-.37645-.23947a6.98953 6.98953 0 0 1 -.61624-.47411q-.1286-.11651-.23947-.21723l-.19241-.1966c-.10507-.10314-.17726-.195-.23367-.26074-.07445-.08122-.10958-.12795-.10958-.12795a2.22276 2.22276 0 0 1 1.97667-.29265 3.60328 3.60328 0 0 1 2.11139 1.363 1.79309 1.79309 0 0 0 1.7285.8715c.039.00032.05221-.0332.05157-.07091-.00451-.41577-.02514-.81735-.05447-1.19831s-.07123-.74032-.11861-1.07068c-.04544-.331-.10249-.63171-.15406-.89825-.05511-.26558-.10894-.496-.15664-.68457-.01644-.06317-.03159-.12118-.04609-.175-.02868-.10668.00258-.11989.0419-.01676q.02949.07687.06349.1676c.06672.1821.14407.40513.22658.66491.07961.26009.16792.55565.24817.88407.08251.32746.16212.6865.23109 1.07036a9.75772 9.75772 0 0 1 .18113 1.21733c.00225.04705.02256.08058.08186.0751a1.62006 1.62006 0 0 0 1.11418-.48932c.45477-.48055.41-.80156 1.10485-1.41619a2.75155 2.75155 0 0 1 1.35785-.61109c.028-.00419.06607-.03287.05995-.04318a7.46706 7.46706 0 0 0 -.99172-1.32724l-.00806-.0087q-.15083-.15954-.30973-.31005l-.02643-.02482q-.07783-.073-.15793-.14375l-.04383-.038q-.13826-.12038-.28266-.234c-.02256-.01773-.0448-.03545-.06736-.05286q-.07493-.05753-.15116-.11313c-.03-.02191-.06059-.04286-.09057-.06446-.07864-.05511-.15793-.10926-.23818-.16147l-.069-.04416-.00064-.00032c-.06672-.04222-.1344-.08316-.20273-.12344.06833.03964.136.08122.20273.12344l-.048-.03062c-.04544-.02869-.09185-.0564-.13826-.0838-.048-.02869-.09669-.05673-.14536-.08412-.02578-.01451-.05157-.028-.077-.0419l.00774.00451-.04448-.02449c-.02321-.01257-.04577-.02546-.069-.03739q-.0846-.045-.17082-.08766c-.04125-.02031-.08186-.04-.12312-.05931-.02192-.01031-.04448-.02-.06639-.03029l-.05253-.02351c-.10185-.04577-.20531-.08928-.30909-.13086-.04029-.01579-.08058-.03223-.12118-.0477l-.10829-.03932c-.02675-.00967-.05447-.01837-.0809-.02739-.021-.00742-.0419-.01515-.06285-.02224l-.01612-.00516-.03449-.011c-.01934-.00612-.03771-.01321-.05672-.01934l-.07445-.02321-.03932-.01128-.01708-.00548-.03448-.01c-.03545-.01032-.07155-.01966-.10733-.02933-.02321-.00645-.04673-.01386-.07026-.02031l-.02966-.00738-.049-.01225-.0174-.00483-.04507-.0106c-.04415-.011-.08831-.02159-.13311-.03159l-.06124-.01353-.01547-.0029-.03872-.0093-.03223-.00644c-.02-.00419-.04-.00709-.05995-.01064l-.03964-.00806c-.02385-.00451-.0477-.00934-.07155-.01353-.03384-.0058-.068-.011-.10217-.01644l-.03292-.00618-.04383-.00644-.04347-.00677-.0367-.0055q-.08654-.01257-.17372-.02256l-.08638-.01-.00613-.00032-.0203-.0029-.00741-.001c-.019-.00161-.039-.00226-.05769-.00387-.02772-.00258-.05479-.00548-.08219-.00774-.02933-.00258-.05834-.00516-.08767-.00709-.03-.00226-.05962-.00322-.08928-.00515l-.01354-.001c-.02707-.00161-.05415-.00258-.08154-.00387l-.00355-.00032c-.02514-.00129-.04963-.00322-.07477-.00387-.08734-.00323-.17565-.00483-.26429-.00483-.11828 0-.23624.00354-.35324.009-.03771.00161-.07509.00451-.11248.00709-.07993.00483-.15986.01064-.23882.01837-.04287.00387-.08573.0087-.12828.01321q-.11167.01257-.22239.02836c-.04222.00612-.08444.01225-.12667.019-.07735.01225-.15374.02643-.23012.04093-.03642.00677-.07316.01353-.10926.021-.10733.02224-.21433.04673-.31972.07348l-.01257.00322q-.16389.04254-.32488.0925c-.03513.01064-.06962.02256-.10443.03384q-.10926.03481-.21691.07316c-.03932.01418-.07929.02933-.11893.04448-.06639.02482-.13214.05093-.19789.078-.03964.01644-.079.03223-.11828.04931-.068.02933-.135.05994-.20208.09153-.03416.01612-.06865.03126-.10281.048q-.13488.06575-.26719.13665l-.02868.01483c-.09637.05253-.19112.10732-.28459.1634l-.09572.05995c-.06188.03867-.12344.07767-.18436.11829-.0361.02417-.07155.04867-.107.07284q-.08412.0585-.16663.11893c-.03513.02546-.07058.05156-.10539.078q-.08412.0643-.16631.13086c-.03094.02482-.06253.04964-.09315.0751-.07091.059-.14085.11989-.2095.18146-.01321.01193-.02643.02256-.039.03448q-.11941.10829-.234.22271c-.02772.02772-.05511.0564-.08251.08477-.049.05028-.0983.10088-.14568.15277-.0303.0332-.06027.0664-.09024.09992-.04383.04931-.0867.09927-.12956.14954-.029.03481-.05834.06962-.087.10507-.04254.05253-.08444.10636-.126.16018-.02578.03385-.05189.06672-.077.10088-.05157.06962-.10153.1402-.15052.21143-.01386.02031-.028.03964-.0419.05962-.0593.08831-.11667.17823-.17211.2688-.02127.03481-.04158.07058-.0622.10572-.03545.05995-.07058.12022-.1041.18113-.02256.04029-.04383.08058-.06543.12119-.03062.05834-.06092.117-.09024.176-.02031.04158-.04061.08316-.06059.12538q-.04351.09234-.08412.18629c-.0174.04-.03545.07928-.05221.11925-.0332.07961-.06446.16018-.09508.2414-.009.02321-.01837.04642-.02707.06962q-.05608.15422-.10507.31134c-.00451.01321-.00806.02707-.01225.04061-.00774.02482-.01483.05-.02224.0751-.01515.05093-.03126.10185-.04544.15309l-.00064.0087a.758.758 0 0 0 .03449.16083 9.52949 9.52949 0 0 0 .79189.53373" fill="#7398c5"/><path d="m24.416 4.98779a7.432 7.432 0 0 0 -.87472-.47507l-.05254-.02385q-.30312-.13633-.61978-.245c-.021-.00741-.04125-.01547-.06253-.02256l-.01612-.00516-.03448-.011c-.05673-.01837-.11345-.03642-.17082-.0535l-.01708-.00548-.03449-.01c-.03545-.01031-.07123-.01966-.107-.02965-.0332-.009-.06639-.019-.10023-.02772l-.04867-.01225c-.02063-.00548-.04158-.01032-.06253-.01515-.04416-.01063-.08831-.02159-.13279-.03158l-.06156-.01386-.01515-.0029c-.04383-.00935-.08734-.018-.1315-.02643l-.03934-.00763c-.02385-.00483-.04738-.00934-.07155-.01353-.03384-.00612-.068-.011-.10217-.01676-.02546-.00419-.05092-.0087-.07671-.01257l-.04351-.00677-.03673-.00548c-.05769-.00838-.11571-.01515-.17372-.02224l-.08605-.01-.00613-.00065c-.02869-.0029-.05769-.00516-.08606-.00774l-.08186-.00741c-.02933-.00226-.05834-.00548-.08766-.00742-.03-.00225-.05963-.00322-.0896-.00515l-.09444-.00483-.00387-.00032c-.02514-.001-.05-.00322-.07477-.00387q-.132-.00435-.26461-.00451c-.11829 0-.23592.00355-.35292.0087-.038.00193-.07542.00483-.1128.00709-.07961.00515-.15954.01063-.2385.01837-.04286.00387-.08573.0087-.1286.01354-.07413.00838-.14826.0174-.22207.028-.04222.00612-.08444.01225-.127.019-.077.01225-.15341.02643-.2298.04093-.03642.00709-.07316.01353-.10958.021-.107.02224-.214.04705-.31972.07413l-.01225.0029c-.10926.028-.21755.059-.32488.09186-.03545.011-.06994.02288-.10475.03416-.07252.02353-.14471.0477-.21626.07316-.04.0145-.07929.02933-.11925.04448q-.09959.03722-.19789.078c-.03964.01644-.079.03255-.11829.04931-.068.02933-.13537.06027-.20208.09153-.03416.01612-.069.03126-.10281.048q-.13537.06575-.26751.137l-.02836.01482c-.09637.05221-.19112.10733-.28459.16341-.03223.01934-.06414.03964-.09572.05962-.06188.039-.12344.078-.18436.11861-.03578.02385-.07155.04834-.107.07284-.05608.03867-.11184.07832-.16663.11828-.03545.02611-.07058.05189-.10539.07864-.05608.04254-.11152.0867-.16631.13053-.03126.02514-.06253.04964-.09315.0751q-.10636.089-.2095.18178c-.01289.01161-.02643.02256-.039.03416-.07993.07252-.1576.14665-.234.22271-.028.02772-.05511.05672-.08283.08477-.049.0506-.09766.1012-.14568.15309q-.045.04931-.08992.09959-.06575.074-.12924.14954c-.02965.03513-.05866.06962-.08734.10507-.04287.05254-.08477.10636-.126.16019-.02611.03384-.05189.067-.077.10088-.05157.06962-.10153.1402-.15052.21176l-.0419.0593c-.05931.08831-.11667.17824-.17211.2688-.02159.03481-.04158.07059-.06253.10539-.03513.06027-.07026.12054-.1041.18146-.02224.04029-.04351.0809-.06478.12119q-.04689.0875-.09025.1763c-.02063.04158-.04125.08283-.06091.12505q-.04351.09282-.08444.18661c-.01708.03964-.03513.079-.05189.11893-.0332.07993-.06446.16051-.09508.24173-.0087.02321-.01837.04609-.02707.06962q-.05608.15422-.10539.311l-.01193.04061a8.91263 8.91263 0 0 0 .758.50408c.274.16308.55661.31263.84378.45251a13.81768 13.81768 0 0 0 1.60377.642c-.63622-.38289-1.72753-.94853-1.62343-1.246 1.01557-2.90457 4.19345-4.66659 7.478-4.66659a8.328 8.328 0 0 1 1.98311.23979z" fill="#bdd3e8"/><path d="m14.31708 11.25164c.05962-.25365.08444-.37258.14278-.5695-.18629-.10668-.37064-.21658-.55081-.3339q-.34131-.22577-.66265-.4799c-.02063-.01612-.07026.00548-.078.0332l-.011.06091c-.01386.07993-.0274.16051-.039.24173-.00548.03932-.01.079-.01515.11829-.009.07381-.01837.14762-.02546.22174-.00548.058-.00935.11667-.01354.17533-.00387.05769-.009.11506-.01193.17275q-.00918.17887-.009.35936c0 .09379.00225.18693.0058.27976.00064.0232.00194.04673.0029.06962v.00419c.00193.03675.00483.07381.00709.11087.0029.04383.00484.08767.00838.13118l.0029.03707c.00161.02288.00483.04512.00677.06768.00419.04351.0087.0867.01354.12989.0029.0245.00483.04931.00773.07413l.009.068c.00322.02578.00774.0506.011.07606.00644.04319.01225.08638.019.12989l.0029.018.00838.05415c.009.05157.01934.10281.02933.15406.00709.03642.01321.07316.02063.10959l.00161.00773.01128.05092c.01547.07219.03223.14375.05.2153l.00516.02063.01031.04158c.0087.03384.01837.06736.02772.10088.01386.05157.02772.10346.04287.15471l.01418.04641.001.0029c.01515.04931.03126.09862.04738.14794l.01966.06156.02288.06736.01354.03674q.02756.07832.057.15632l.01934.05254.01128.02772c.00935.02353.019.04641.02868.06961.01966.049.03964.098.06059.14665l.01418.03352.01676.038c.011.02514.02321.04964.03449.07445.01966.04383.03932.08734.05962.13053l.01644.03513c.03191.0651.06543.12924.09895.19306l.01515.03029.00161.0029c.01289.0245.02611.04867.03932.07284q.03868.07058.07832.1402l.01418.0245c.01257.02224.02482.04448.038.06639l.0058.00935q.05221.088.107.17436l.0116.01934.03835.05866.01611.02482c.029.04415.05866.08831.08863.13182.0145.02159.029.04319.04416.06414l.01579.0232.0203.028c.03674.05124.07316.10185.11087.15213l.01966.02514a8.299 8.299 0 0 1 -.43188-2.39082c-.00194-.068.30135.253.43994.36194a11.98641 11.98641 0 0 0 -1.13482-1.97764 11.31141 11.31141 0 0 1 1.97474.07832l.00322-.0116s-1.13611-.30748-1.08261-.5347" fill="#bdd3e8"/><path d="m17.58866 13.621a6.05487 6.05487 0 0 0 -1.81165-.24108 6.26457 6.26457 0 0 1 .58272 1.02362l.04383-.01289c.08283-.02159.17533-.0506.27847-.07284.10281-.0232.21272-.05189.33132-.07155.11828-.02191.24173-.04705.37226-.06188.12956-.018.26268-.03642.4003-.04383.06833-.00484.1373-.01.20595-.01515l.02578-.00193.018-.001.01289-.00065h.05028l.10153-.00064c.13472-.00193.27009-.0029.408.00516q.07493.0029.14794.00677a4.07746 4.07746 0 0 0 -1.16769-.51214" fill="#fff"/><path d="m18.622 14.387c-.06575.00548-.13311.01386-.20079.02353q-.09621.014-.194.03l-.09991.0158-.0503.00767-.01225.00225c.00612-.00032-.00516.00129-.00709.00194l-.02385.00548c-.06381.01418-.12763.029-.19048.04319-.12634.02546-.24817.06156-.36581.09637-.118.03126-.2298.07219-.33584.10829-.10668.03448-.20434.07639-.29491.11184-.09153.03448-.17179.07348-.2443.1041l-.01837.009c.0896.24269.15793.46766.19983.61334.02933.1041.04544.16856.04544.16856a6.6256 6.6256 0 0 1 .97786-.78126c.38515-.24592.81607-.47249 1.031-.58207-.07155.00645-.14375.01418-.21626.02191" fill="#fff"/></svg>