<?xml version="1.0" encoding="UTF-8" standalone="no"?>
<svg xmlns:rdf="http://www.w3.org/1999/02/22-rdf-syntax-ns#" xmlns="http://www.w3.org/2000/svg" height="178.18921" width="286.06" version="1.1" xmlns:cc="http://creativecommons.org/ns#" xmlns:dc="http://purl.org/dc/elements/1.1/" viewBox="0 0 286.06 178.18921"><path d="M285.06,95.94H263.28C273.54,78.3,282.54,45.6,282.54,45.6H48.9L40.5,61.56H51.18L18.42,124.8l-.18.3H8.46l-4.14,7.14L0,140.52H75.06l5.22-9.54H199.86c5.1,10.38,11.94,15.78,18.6,18.42,21.78,7.14,42.3-9.3,47.58-14.1.9-.78,1.38-1.26,1.38-1.26A56.1484,56.1484,0,0,0,285,95.94Z" fill="#fff"/><path d="M228.78,88.56A88.61108,88.61108,0,1,1,140.16,0,88.74566,88.74566,0,0,1,228.78,88.56Z" fill="#fff"/><path d="M222.66,88.56A82.47975,82.47975,0,1,0,67.32,127.2H213.06a81.62879,81.62879,0,0,0,9.48-38.64Z" fill="#fcb724"/><path d="M67.32,127.2a82.41408,82.41408,0,0,0,145.68,0Z" fill="#7ca3dc"/><path d="M148.26,40.2l-.54-.96Z" fill="#ffe3a8"/><path d="M146.4,38.94l-.54-1.02Z" fill="#fff"/><path d="M110.76,55.14a10.20929,10.20929,0,0,1,3.06.48h.36l.84-.18h.42a1.279,1.279,0,0,1,1.2.96,2.03456,2.03456,0,0,1,0,1.86,1.89564,1.89564,0,0,1-.84.84,1.84626,1.84626,0,0,1-1.14.36,1.59766,1.59766,0,0,1-.72-.18,11.51865,11.51865,0,0,1-.9-.84,3.26351,3.26351,0,0,0-2.4-1.02,2.68645,2.68645,0,0,0-1.2.24,1.52676,1.52676,0,0,0-.72.66c-.24.48.18.9,1.32,1.2a20.83044,20.83044,0,0,1,2.76.78c1.74.72,2.22,1.86,1.5,3.36a7.05422,7.05422,0,0,1-3.66,3.18,15.67341,15.67341,0,0,1-6.24,1.26,18.30953,18.30953,0,0,1-3.12-.3,5.341,5.341,0,0,1-2.16-.66c-.3-.18-.42-.6-.42-1.26a4.26663,4.26663,0,0,1,.42-1.92,2.07575,2.07575,0,0,1,.6-.66,1.61679,1.61679,0,0,1,.9-.3.85532.85532,0,0,1,.72.36,5.093,5.093,0,0,1,.54,1.32,1.74553,1.74553,0,0,0,1.02.84,4.04911,4.04911,0,0,0,1.86.3,3.80923,3.80923,0,0,0,1.62-.24,1.49447,1.49447,0,0,0,.84-.66.4284.4284,0,0,0-.18-.6,3.97914,3.97914,0,0,0-1.14-.54,15.85813,15.85813,0,0,1-2.4-.72,4.80485,4.80485,0,0,1-1.26-.9,2.306,2.306,0,0,1-.54-2.88,4.52706,4.52706,0,0,1,1.26-1.56A9.1388,9.1388,0,0,1,105,56.4a12.06021,12.06021,0,0,1,5.58-1.26Z" fill="#752f8a"/><path d="M127.56,57.78a3.64686,3.64686,0,0,0-3,1.86,8.29276,8.29276,0,0,0-.6,2.4,8.16458,8.16458,0,0,0,.24,2.4,1.76369,1.76369,0,0,0,.6.72,1.97194,1.97194,0,0,0,1.02.24,3.12629,3.12629,0,0,0,1.74-.54,3.33479,3.33479,0,0,0,1.26-1.32,7.96425,7.96425,0,0,0,.72-2.4,6.59238,6.59238,0,0,0-.18-2.16,1.96178,1.96178,0,0,0-.66-.9,2.07214,2.07214,0,0,0-1.08-.3Zm2.46-2.64a7.40971,7.40971,0,0,1,4.74,1.32,3.8902,3.8902,0,0,1,1.44,2.34,4.95193,4.95193,0,0,1-.48,2.94,9.99759,9.99759,0,0,1-3.84,3.9,17.106,17.106,0,0,1-8.58,2.4,9.47864,9.47864,0,0,1-3.66-.72,3.8693,3.8693,0,0,1-2.4-2.34,4.64747,4.64747,0,0,1,.36-3.36,10.72132,10.72132,0,0,1,3.48-3.84,15.904,15.904,0,0,1,4.98-2.16,17.34037,17.34037,0,0,1,3.9-.48Z" fill="#752f8a"/><path d="M156.72,59.94l-1.08,2.22a10.14594,10.14594,0,0,1-1.8,2.88,9.97163,9.97163,0,0,1-4.98,2.58,20.60449,20.60449,0,0,1-4.26.48,8.43475,8.43475,0,0,1-5.58-1.44,1.99009,1.99009,0,0,1-.78-1.56,5.94148,5.94148,0,0,1,.84-2.64q.27-.63,1.08-2.16l.72-1.44a3.2768,3.2768,0,0,0,.36-1.08.76329.76329,0,0,0-.42-.54c-.42-.24-.54-.54-.36-.84a1.52681,1.52681,0,0,1,.72-.66,3.05529,3.05529,0,0,1,1.26-.36,21.991,21.991,0,0,1,6.48,0c.78.18,1.08.48.78,1.02a1.09059,1.09059,0,0,1-.66.6l-.84.3a1.54621,1.54621,0,0,0-.78.48,7.0683,7.0683,0,0,0-.66,1.14c-.24.48-.84,1.62-1.74,3.42q-.81,1.53,0,2.34a2.87708,2.87708,0,0,0,2.16.72,6.69032,6.69032,0,0,0,1.86-.3,5.25261,5.25261,0,0,0,1.56-.72,5.18044,5.18044,0,0,0,.84-.78,7.68546,7.68546,0,0,0,.66-1.2l1.02-1.98c.42-.9.78-1.8,1.14-2.76,0-.24,0-.48-.48-.6a1.43025,1.43025,0,0,1-.66-.36.29.29,0,0,1,0-.42,1.57841,1.57841,0,0,1,1.26-.84,11.68477,11.68477,0,0,1,2.88-.24,7.41209,7.41209,0,0,1,2.58.24c.48.12.66.42.48.78a.70021.70021,0,0,1-.36.36A4.64537,4.64537,0,0,1,159,57a2.54873,2.54873,0,0,0-1.02.6c-.42.78-.84,1.56-1.2,2.4Z" fill="#752f8a"/><path d="M167.94,55.38h6.36a11.1539,11.1539,0,0,0,1.98-.24h.66a1.41229,1.41229,0,0,1,1.38,1.14,2.85576,2.85576,0,0,1-.18,2.22,2.3424,2.3424,0,0,1-1.2,1.2,3.13367,3.13367,0,0,1-1.26.24,1.97219,1.97219,0,0,1-1.02-.24,1.65091,1.65091,0,0,1-.48-.9,1.5399,1.5399,0,0,0-.3-.72.68125.68125,0,0,0-.48-.18,1.41273,1.41273,0,0,0-.78.3,2.37358,2.37358,0,0,0-.6.9l-2.4,5.16a2.32857,2.32857,0,0,0-.36,1.14c0,.24.24.42.6.54a1.43022,1.43022,0,0,1,.66.36.45.45,0,0,1,0,.54,2.19487,2.19487,0,0,1-1.62.96,22.62425,22.62425,0,0,1-8.04,0c-.72-.18-.96-.54-.78-.96a1.40111,1.40111,0,0,1,.72-.6l.96-.18a1.40925,1.40925,0,0,0,.84-.42,3.73669,3.73669,0,0,0,.84-1.08,25.03453,25.03453,0,0,0,1.26-2.4c.6-1.14,1.08-1.98,1.44-2.76a3.71467,3.71467,0,0,0,.42-1.14c0-.24-.12-.36-.42-.36a2.43892,2.43892,0,0,0-1.14.48,13.21869,13.21869,0,0,1-1.92,1.26,2.78733,2.78733,0,0,1-1.38.36.97014.97014,0,0,1-.9-.36.92089.92089,0,0,1,0-.96,3.9145,3.9145,0,0,1,.96-1.26,7.598,7.598,0,0,1,1.5-1.26,4.20242,4.20242,0,0,1,2.4-.9h.48l1.02.12h.78Z" fill="#752f8a"/><path d="M186.66,55.2c2.52,0,3.54.36,3.18,1.2a1.61752,1.61752,0,0,1-.42.48,7.16188,7.16188,0,0,1-.96.48,2.25931,2.25931,0,0,0-.9.54,7.37537,7.37537,0,0,0-.84,1.5c-.18.42-.18.66,0,.78H189a7.3125,7.3125,0,0,0,1.62,0,1.17745,1.17745,0,0,0,.54-.54,8.1517,8.1517,0,0,0,.66-1.68.71388.71388,0,0,0-.24-.66.87371.87371,0,0,1-.54-.36.51258.51258,0,0,1,0-.42,2.06845,2.06845,0,0,1,.72-.72,3.98265,3.98265,0,0,1,1.2-.36,19.6349,19.6349,0,0,1,3.24-.24,11.23218,11.23218,0,0,1,3.18.3c.6.18.78.54.6.96a1.81306,1.81306,0,0,1-1.14.84,3.01391,3.01391,0,0,0-.78.3,3.88117,3.88117,0,0,0-.48.54c-.12.18-.48.84-1.14,2.04L195,63.06a11.30044,11.30044,0,0,0-.96,2.34.38256.38256,0,0,0,0,.36,1.59883,1.59883,0,0,0,.6.36c.12.06.24.18.24.24a.36828.36828,0,0,1-.06.36,2.4671,2.4671,0,0,1-1.62,1.02,15.336,15.336,0,0,1-3.72.3,10.40726,10.40726,0,0,1-3-.3c-.54-.18-.66-.54-.48-.9a1.61114,1.61114,0,0,1,1.08-.9,2.21768,2.21768,0,0,0,.66-.3,3.88192,3.88192,0,0,0,.48-.54,12.44557,12.44557,0,0,0,1.14-1.92c.18-.36.18-.6.12-.66a2.40665,2.40665,0,0,0-1.14-.18,22.97441,22.97441,0,0,0-2.82.18c-.24.12-.42.24-.48.42a9.70908,9.70908,0,0,0-.6,1.08,2.32792,2.32792,0,0,0-.36,1.5,1.61715,1.61715,0,0,0,.48.42c.24.12.3.36.12.72a2.39424,2.39424,0,0,1-1.62.96,13.896,13.896,0,0,1-3.54.3,10.60987,10.60987,0,0,1-3.06-.3,1.18533,1.18533,0,0,1-.66-.36.45.45,0,0,1,0-.54.83237.83237,0,0,1,.42-.48,5.27943,5.27943,0,0,1,.9-.3,1.8023,1.8023,0,0,0,.66-.36,6.37533,6.37533,0,0,0,.54-.66,24.55321,24.55321,0,0,0,1.5-2.76l.36-.78,1.26-2.58a2.44482,2.44482,0,0,0,.3-1.08c0-.18-.3-.36-.72-.54s-.36-.3-.24-.54c.3-.66,1.32-1.08,3-1.32A15.4328,15.4328,0,0,1,186.66,55.2Z" fill="#752f8a"/><path d="M216.36,57.78l-.96,1.92a.69763.69763,0,0,0-.12.6c0,.12.18.18.42.18a2.20478,2.20478,0,0,0,1.5-.42,3.12226,3.12226,0,0,0,1.08-1.26,1.83838,1.83838,0,0,0,.18-1.38c-.12-.3-.48-.42-.96-.42a1.03276,1.03276,0,0,0-.72.12A1.55353,1.55353,0,0,0,216.36,57.78Zm-2.58,5.28-.42.84a3.98661,3.98661,0,0,0-.54,1.62c0,.24.3.42.78.42a2.68164,2.68164,0,0,0,2.58-1.62c.66-1.38.3-2.04-1.08-2.04a2.35536,2.35536,0,0,0-.84.18A1.63377,1.63377,0,0,0,213.78,63.06Zm-3.36,4.74h-5.16a1.61315,1.61315,0,0,1-1.08-.24.64758.64758,0,0,1,0-.66,1.30125,1.30125,0,0,1,.36-.42,7.161,7.161,0,0,1,.96-.48,1.82719,1.82719,0,0,0,.78-.54,9.99186,9.99186,0,0,0,1.08-1.68A50.03385,50.03385,0,0,0,210,58.86a3.71592,3.71592,0,0,0,.48-1.44c0-.24-.24-.42-.6-.54s-.6-.42-.42-.72a1.21788,1.21788,0,0,1,.78-.66,3.55893,3.55893,0,0,1,1.38-.3h8.52a17.79875,17.79875,0,0,1,2.52.18,4.17818,4.17818,0,0,1,1.38.66,1.644,1.644,0,0,1,.24,2.04,5.00415,5.00415,0,0,1-.96,1.26,6.02914,6.02914,0,0,1-1.44.96.95338.95338,0,0,0-.6.48c0,.12,0,.24.3.36a2.48681,2.48681,0,0,1,1.32,1.02,1.73667,1.73667,0,0,1,0,1.86,6.15284,6.15284,0,0,1-2.4,2.4,10.77977,10.77977,0,0,1-5.64,1.38h-4.44Z" fill="#752f8a"/><path d="M232.5,62.52h2.4c.42,0,.66,0,.78-.24a2.45464,2.45464,0,0,0-.24-1.44,3.38292,3.38292,0,0,0-.24-.72.54471.54471,0,0,0-.42-.18,1.79363,1.79363,0,0,0-1.02.6l-.66.66a8.68777,8.68777,0,0,0-1.02,1.08C232.08,62.46,232.2,62.52,232.5,62.52Zm9.06-.96.48,3.66a.90232.90232,0,0,0,.24.66.65149.65149,0,0,0,.54.24c.54,0,.72.24.54.66a2.08007,2.08007,0,0,1-1.5.96,18.83733,18.83733,0,0,1-3.66.3q-1.98,0-3.96-.18a1.5075,1.5075,0,0,1-.84-.36.545.545,0,0,1,0-.6,1.40161,1.40161,0,0,1,.42-.42,3.46923,3.46923,0,0,1,.84-.3.93633.93633,0,0,0,.78-.48c.24-.42,0-.66-.66-.72a23.0585,23.0585,0,0,0-2.88,0,7.60715,7.60715,0,0,0-2.04.18,1.30636,1.30636,0,0,0-.48.3.9331.9331,0,0,0-.36.48v.24l.54.18c.48.12.6.36.48.66-.36.72-1.68,1.14-4.02,1.14a14.29962,14.29962,0,0,1-2.76-.24c-.48-.12-.66-.36-.48-.78a1.11165,1.11165,0,0,1,.42-.48,3.44006,3.44006,0,0,1,.84-.24,6.08613,6.08613,0,0,0,1.44-.6q1.08-.81,1.98-1.62l3-3.06a30.96713,30.96713,0,0,0,2.4-2.34,7.21767,7.21767,0,0,0,1.08-1.56,5.22747,5.22747,0,0,1,.66-1.08,3.85261,3.85261,0,0,1,.78-.6,5.52088,5.52088,0,0,1,2.4-.66,2.98246,2.98246,0,0,1,1.98.72,11.55038,11.55038,0,0,1,1.74,5.76Z" fill="#752f8a"/><path d="M253.98,55.2a17.51717,17.51717,0,0,1,3.54.18,1.10691,1.10691,0,0,1,.72.3.40084.40084,0,0,1,0,.6,1.22814,1.22814,0,0,1-.48.48,1.87515,1.87515,0,0,0-.66.54,1.25432,1.25432,0,0,0,.24,1.02.58426.58426,0,0,0,.6.48,1.75215,1.75215,0,0,0,.54-.12c.36-.18.6-.36.9-.54a3.15737,3.15737,0,0,0,.84-.72v-.24a1.25487,1.25487,0,0,0-.24-.36.5449.5449,0,0,1,0-.6c.36-.66,1.74-1.02,4.2-1.02a13.62368,13.62368,0,0,1,2.7.18.61179.61179,0,0,1,.48.3.54487.54487,0,0,1,0,.6,1.07313,1.07313,0,0,1-.6.54,4.01248,4.01248,0,0,1-1.14.3,4.36972,4.36972,0,0,0-1.44.42c-.42.18-1.26.66-2.52,1.38a25.93313,25.93313,0,0,0-3,1.98,6.09263,6.09263,0,0,0-1.32,1.92,15.10724,15.10724,0,0,0-.84,1.98,1.03276,1.03276,0,0,0-.12.72c0,.18.18.3.48.42.3.18.66.54.48.9-.42.78-2.22,1.2-5.46,1.2a18.46645,18.46645,0,0,1-3.66-.24c-.9-.18-1.26-.48-1.02-1.02a1.77921,1.77921,0,0,1,1.32-.84,2.50067,2.50067,0,0,0,1.08-.48,11.93779,11.93779,0,0,0,1.86-3,3.62,3.62,0,0,0,.36-1.14,2.95445,2.95445,0,0,0-.36-1.02,11.4569,11.4569,0,0,0-1.68-2.4,1.84331,1.84331,0,0,0-.9-.6,2.54048,2.54048,0,0,1-.84-.36.545.545,0,0,1,0-.6c.18-.42.78-.72,1.68-.84a24.73348,24.73348,0,0,1,4.2-.3Z" fill="#752f8a"/><path d="M85.86,99.96H73.5L89.04,78.72ZM82.98,113.1c-.36,2.22-2.52,3.66-5.16,4.38l-2.76.72L77.4,114c.6-1.2-.72-1.86-2.16,0-9.48,11.52-12.66,17.04-27.48,17.04H43.68c-1.26,0-2.52-.48-1.74-1.68l5.28-10.02H67.14c2.7,0,2.04-2.1.42-2.16a3.77287,3.77287,0,0,1-3-1.98,2.8697,2.8697,0,0,1,0-2.94l7.62-10.62H84.9Zm29.52,3.96a2.10683,2.10683,0,0,1-1.98-1.5,6.33663,6.33663,0,0,1,0-3.66l18.3-33.06c.24-.66,1.02-1.92,1.92-1.92,1.56,0,2.34-2.16-.42-2.16H115.8c-2.76,0-2.76,2.16-.18,2.16a1.1507,1.1507,0,0,1,1.08.54,1.11249,1.11249,0,0,1,.12,1.14l-2.94,5.52-2.76,5.1-4.74,8.76-8.76,16.38c-1.02,1.38-2.88,1.68-2.82-.96l4.74-36.72c.24-1.14,0-1.98-1.26-1.98H91.14a2.17086,2.17086,0,0,0-1.8,1.02l-1.92,2.4-2.1,2.7-6.9,8.94-1.26,1.62-6.48,8.4-1.5,1.86-9.24,11.94C58.2,115.92,49.86,117,48.24,117L79.56,57.12a3.32864,3.32864,0,0,1,2.64-1.74h6.66c3.12,0,3-2.1.3-2.1H55.74c-2.7,0-2.82,2.1.3,2.1h6.18c1.74,0,2.34,1.14,1.86,1.98l-.9,1.68L26.4,129.96a2.71489,2.71489,0,0,1-2.4,1.62H15.48c-3.06,0-3,2.1-.3,2.1H64.92c1.44,0,1.5-.18,2.16-1.26l7.38-13.2h37.62C114.78,119.22,114.12,117.12,112.5,117.06Z" fill="#752f8a"/><path d="M148.02,95.7l-1.14,2.16-9,17.64a2.02565,2.02565,0,0,1-3.84,0l-4.5-23.7L145.2,79.32a13.64165,13.64165,0,0,1,6.06-3.6h3.42c2.04,0,2.82.96,2.34,2.34l-.54,1.2-1.2,2.28-7.2,14.28Zm23.88,9.48c-7.32,9.12-11.46,12.24-19.02,12.24-2.52,0-3.84-.54-3.12-1.8l8.82-18.3h3.36c3.72,0,3.24,3.3,2.22,7.68-.24.6.24.66.72,0l8.4-15.18c.36-.96-.66-1.14-1.2-.42a11.25645,11.25645,0,0,1-10.5,5.46h-1.5l9.48-18.54h3.84c4.74.36,7.02,4.5,5.64,14.58h1.98l6.96-14.04c.54-1.2-.66-2.4-1.92-2.4H139.02c-2.7,0-2.82,2.16-.24,2.16,2.16,0,2.04,3.12,0,4.68L118.92,97.8l4.02,19.26a2.35762,2.35762,0,0,0,.9,1.68,2.32841,2.32841,0,0,0,1.86.48h38.88a3.12624,3.12624,0,0,0,2.82-1.38l7.14-12.48c.96-1.86-1.32-1.74-2.52-.18Z" fill="#752f8a"/><path d="M208.68,92.82c-1.32,1.14-3.48,2.4-3.9,2.04a18.69642,18.69642,0,0,0-3.36-2.34l8.1-15.3a1.57573,1.57573,0,0,1,1.62-.78c3.18,0,4.2,3.48,2.7,7.86a19.47568,19.47568,0,0,1-5.1,8.46ZM274.2,106.5c-.24-1.02-.6-.42-1.26.9,0,0-8.4,15.9-19.98,24.66a25.37549,25.37549,0,0,1-15.9,4.74,17.20323,17.20323,0,0,1-15.3-14.64c-.18-.78-.78-2.4-.96-3.36-.36-1.98,5.04-2.52,6.54-1.5a24.64653,24.64653,0,0,0,11.64,3.12c3.84,0,11.7-2.88,13.98-9.54s-3.54-14.64-6.12-17.28c-3.3-3.42-6.42-8.82-5.1-12.78a5.56179,5.56179,0,0,1,6.18-4.32,7.31718,7.31718,0,0,1,7.86,6.42v.42a20.2725,20.2725,0,0,1,0,2.7,9.01761,9.01761,0,0,1-.12,1.2c-.18,1.02-.3,1.92-.54,3.12a.82952.82952,0,0,0,1.44.78l7.14-13.2c.48-1.02-.66-1.26-1.5-.96-1.98.72-5.22,1.2-6.36.36a13.71558,13.71558,0,0,0-8.88-3.24c-5.94,0-10.2,1.38-13.08,5.88v.36l-.54.9a12.67012,12.67012,0,0,0-1.08,1.98v.24c-.12.42-.3.84-.42,1.26a13.75994,13.75994,0,0,0,.18,7.32,16.21967,16.21967,0,0,0,1.74,3.72c.9,1.14,1.8,2.16,2.94,3.6l1.5,1.86a19.82768,19.82768,0,0,1,4.5,8.52v.3a8.92314,8.92314,0,0,1-.9,4.5c-.18.24-.3.54-.48.78-1.14,1.92-3.18,3.18-7.68,3.18-6.48,0-7.86-6.66-5.94-13.5.36-1.38,0-1.98-.6-.9l-4.56,7.02-1.32,2.1-1.68,2.7a86.014,86.014,0,0,0-9.78-17.28v-.18c6.06-.36,15-6.18,16.44-11.4,2.52-9-6-12.36-10.68-12.36h-20.4c-2.7,0-2.88,2.1-.3,2.1,1.38,0,2.64,1.26,2.04,2.58l-2.4,4.56-3.48,6.42-.6,1.14-6.12,11.16-7.14,13.26a4.38914,4.38914,0,0,1-3.6,1.14c-2.64,0-2.58,2.1.12,2.1h17.52c2.7,0,2.04-2.16.42-2.16-.9,0-1.98-1.8-1.32-2.88l9-17.28h.9c3.96,0,4.92,6.72,5.7,14.04l.18,1.92c.24,2.16.42,4.14.72,6a14.00139,14.00139,0,0,0,.36,2.1v.48l.48,2.04a12.77385,12.77385,0,0,0,.66,1.98,26.83643,26.83643,0,0,0,25.08,15.9,38.97492,38.97492,0,0,0,22.32-9.36,75.2713,75.2713,0,0,0,17.16-21.42c.66-1.26,1.62-2.94,1.38-4.08Z" fill="#752f8a"/><path d="M114.12,134.22c2.58,0,5.34.12,8.22.18,2.82.06,5.76,0,8.76,0h26.94c5.7,0,10.98-.24,15.54-.42,9.12-.3,15.18-.78,15.18-.78s-6.06-.48-15.18-.78c-4.56-.18-9.84-.36-15.54-.42h-35.7c-2.88,0-5.64,0-8.22.18-2.64.18-5.1.12-7.38.24-9.12.36-15.18.78-15.18.78s6.06.48,15.18.78C109.14,133.98,111.54,134.16,114.12,134.22Z" fill="#fab521"/><path d="M153.3,139.68H127.26c-2.04,0-4.08,0-6,.18-1.86.18-3.72.12-5.34.24-6.66.3-11.1.72-11.1.72s4.44.42,11.1.66l5.34.24c1.92,0,3.9.12,6,.18H153.3c4.2,0,8.04-.24,11.4-.42,6.66-.3,11.1-.72,11.1-.72s-4.44-.42-11.1-.72C161.34,139.86,157.56,139.74,153.3,139.68Z" fill="#fab521"/><path d="M148.2,147.72H132.18c-2.58,0-4.98.18-7.02.36-4.08.24-6.84.66-6.84.66s2.76.36,6.84.66c2.04.12,4.44.24,7.02.36H148.2c2.58,0,4.98-.24,7.02-.36,4.08-.3,6.84-.66,6.84-.66s-2.76-.42-6.84-.66C153.18,147.9,150.78,147.78,148.2,147.72Z" fill="#fab521"/><path d="M143.16,154.62h-6a15.27,15.27,0,0,0-2.58.3,17.87255,17.87255,0,0,0-2.58.54c.84.18,1.68.36,2.58.48.72,0,1.62.24,2.58.3s1.98,0,3,0h3a16.85165,16.85165,0,0,0,2.64-.3c.84-.12,1.68-.3,2.52-.48a18.88941,18.88941,0,0,0-2.52-.54C145.02,154.92,144.12,154.68,143.16,154.62Z" fill="#fab521"/><path d="M98.34,24.48c1.68.24,3.48.6,5.28.96,1.8.42,3.66.96,5.52,1.5a37.55138,37.55138,0,0,1,5.46,2.04,30.37886,30.37886,0,0,1,4.98,2.64,29.17384,29.17384,0,0,1,4.26,3.36l.3.3-.36.18c-1.74.84-3.48,1.8-5.1,2.7-1.68.9-3.24,1.98-4.8,2.94-1.5.96-3,2.1-4.5,3.12-1.44,1.08-2.76,2.16-4.14,3.24a89.55063,89.55063,0,0,0-7.14,6.42,75.93389,75.93389,0,0,0-5.4,6c-1.56,1.8-2.82,3.66-3.84,5.04a36.3387,36.3387,0,0,0-2.16,3.36,9.91342,9.91342,0,0,0-.72,1.26l.84-1.14c.6-.72,1.44-1.74,2.58-3,1.08-1.32,2.52-2.82,4.2-4.5s3.6-3.48,5.82-5.4c2.16-1.98,4.74-3.9,7.26-5.88a99.42317,99.42317,0,0,1,8.7-5.76c1.56-.9,3.18-1.86,4.8-2.76l5.04-2.52,1.2-.54.66.96a13.01722,13.01722,0,0,1,1.14,1.98,9.0272,9.0272,0,0,1,.96,2.04l.42.96.3.9c.18.66.42,1.26.6,1.8.24,1.14.54,2.1.66,2.94.24,1.74.42,2.7.42,2.7a22.05165,22.05165,0,0,1,.24-2.7V46.44c0-.6-.18-1.2-.24-1.92l-.18-1.02-.3-1.08a22.18046,22.18046,0,0,0-1.8-4.68l-.42-.78,1.56-.72,5.4-2.04.72-.24h.66l1.38-.48c.9-.3,1.86-.6,2.76-.84l1.86-.48,1.86,2.82c.9,1.56,1.8,3.06,2.64,4.5.42.66.78,1.38,1.14,2.04l1.08,1.98c.66,1.32,1.32,2.4,1.8,3.54.48,1.08,1.02,1.98,1.38,2.7.78,1.56,1.26,2.4,1.26,2.4s-.24-.96-.6-2.58c-.24-.84-.48-1.86-.78-3q-.54-1.89-1.26-3.78a40.49678,40.49678,0,0,0-1.68-4.38,51.11817,51.11817,0,0,0-2.4-4.8l-1.26-2.22h.36c3.72-.78,7.38-1.44,10.98-1.86l3-.36a19.849,19.849,0,0,0,1.74,2.82,47.28854,47.28854,0,0,0,4.2,4.98c.78.78,1.62,1.44,2.4,2.16s1.68,1.38,2.52,2.04,1.74,1.2,2.58,1.8c.9.6,1.74,1.14,2.64,1.68,1.74,1.08,3.48,1.98,5.1,2.82,1.68.9,3.3,1.56,4.8,2.22s2.88,1.14,4.08,1.62c1.26.48,2.4.84,3.24,1.08,1.8.6,2.82.9,2.82.9s-.9-.54-2.52-1.5c-.84-.42-1.86-.96-2.94-1.62L187.62,48c-1.32-.84-2.82-1.68-4.32-2.64-1.56-.96-3.12-1.98-4.8-3.12-1.62-1.14-3.18-2.4-4.74-3.54-.78-.66-1.62-1.26-2.4-1.98-.78-.66-1.38-1.74-2.1-2.46a34.90649,34.90649,0,0,1-4.02-4.44c-.36-.48-.66-.9-.96-1.32l3.9-.3c3.3-.12,6.48-.24,9.36-.24h7.98c2.4,0,4.44.18,6.18.24l5.16.36-1.14-.24c-.9-.18-2.22-.48-3.9-.72-1.68-.3-3.78-.66-6.12-.9-2.4-.3-5.1-.6-8.04-.78s-6.12-.3-9.54-.3c-1.74,0-3.54,0-5.4.12l-.42-.84a20.57277,20.57277,0,0,1-1.62-4.92,18.30891,18.30891,0,0,1-.3-4.8,18.20806,18.20806,0,0,1,.66-3.96c.24-.84.54-1.62.84-2.4l-.78-.24a17.70736,17.70736,0,0,0-2.7,6.48,17.17685,17.17685,0,0,0-.3,5.28,18.40187,18.40187,0,0,0,1.32,5.64l-1.98.18a102.26465,102.26465,0,0,0-11.28,1.68l-1.44.36c-1.02-1.56-2.1-3.06-3.12-4.56a43.995,43.995,0,0,0-3.78-4.62c-1.38-1.44-2.64-2.88-4.02-4.14-.66-.6-1.32-1.32-1.98-1.86l-2.04-1.86c-1.32-1.08-2.64-2.04-3.84-2.88l-1.44-.96-2.04.48,2.22,1.98c.54.42,1.02,1.02,1.62,1.56.54.54,1.14,1.08,1.74,1.68,1.14,1.2,2.4,2.4,3.54,3.78,1.2,1.38,2.4,2.76,3.66,4.2.6.72,1.2,1.44,1.74,2.22l1.74,2.4,2.4,3.48-.84.18c-.96.3-1.92.54-2.82.84l-1.44.42h-.36l-.36.18-.72.24-5.52,2.16-2.22.96-.84-.96a27.00412,27.00412,0,0,0-4.56-4.08,32.55661,32.55661,0,0,0-5.46-3.06,50.00508,50.00508,0,0,0-5.94-2.16c-1.02-.24-1.98-.54-3-.72-.96-.12-1.92-.36-2.88-.48-1.86-.3-3.72-.48-5.58-.6a47.01644,47.01644,0,0,0-5.04,0h-2.4l-1.8,1.38,4.08.42c1.5.18,3.12.42,4.74.66Z" fill="#fff"/></svg>