<?xml version="1.0" encoding="UTF-8" standalone="no"?>
<!-- Created with Inkscape (http://www.inkscape.org/) -->

<svg
   xmlns:dc="http://purl.org/dc/elements/1.1/"
   xmlns:cc="http://creativecommons.org/ns#"
   xmlns:rdf="http://www.w3.org/1999/02/22-rdf-syntax-ns#"
   xmlns:svg="http://www.w3.org/2000/svg"
   xmlns="http://www.w3.org/2000/svg"
   version="1.1"
   width="372.575863916"
   height="268.401712739" viewBox="0 0 538.58264 387.99213"
   id="svg14840">
  <defs
     id="defs14842">
    <clipPath
       id="clipPath14496">
      <path
         d="M 0,0 396,0 396,612 0,612 0,0 z"
         id="path14498" />
    </clipPath>
  </defs>
  <metadata
     id="metadata14845">
    <rdf:RDF>
      <cc:Work
         rdf:about="">
        <dc:format>image/svg+xml</dc:format>
        <dc:type
           rdf:resource="http://purl.org/dc/dcmitype/StillImage" />
        <dc:title></dc:title>
      </cc:Work>
    </rdf:RDF>
  </metadata>
  <g
     transform="translate(-112.69387,-351.11876)"
     id="layer1">
    <g
       transform="matrix(4.5098456,0,0,4.5098456,-1933.8127,-2456.3492)"
       id="g15073">
      <g
         transform="matrix(1.25,0,0,-1.25,420.82179,1034.707)"
         id="g14492">
        <g
           clip-path="url(#clipPath14496)"
           id="g14494">
          <g
             transform="translate(94.9976,283.7173)"
             id="g14500">
            <path
               d="m 0,0 c 5.015,0.842 9.491,3.313 12.847,7.033 0.23,0.3 0.686,0.97 1.158,2.076 C 10.787,8.142 6.878,6.911 2.784,5.523 0.398,3.123 -2.488,1.34 -6.827,-0.093 -4.589,-0.408 -2.293,-0.385 0,0"
               id="path14502"
               style="fill:#fbbf16;fill-opacity:1;fill-rule:nonzero;stroke:none" />
          </g>
          <g
             transform="translate(109.0632,318.517)"
             id="g14504">
            <path
               d="M 0,0 0.74,-0.304 C -0.343,1.299 -1.636,2.764 -3.124,4.052 -3.042,3.758 -2.906,3.335 -2.682,2.727 -1.92,0.671 -0.044,0.015 0,0"
               id="path14506"
               style="fill:#fbbf16;fill-opacity:1;fill-rule:nonzero;stroke:none" />
          </g>
          <g
             transform="translate(84.4432,285.7388)"
             id="g14508">
            <path
               d="M 0,0 C -0.592,-0.175 -1.208,-0.364 -1.841,-0.563 -1.418,-0.744 -0.99,-0.912 -0.559,-1.064 -0.372,-0.71 -0.186,-0.355 0,0"
               id="path14510"
               style="fill:#fbbf16;fill-opacity:1;fill-rule:nonzero;stroke:none" />
          </g>
          <g
             transform="translate(87.3609,284.2237)"
             id="g14512">
            <path
               d="M 0,0 C 3.678,1.157 6.307,2.553 8.462,4.345 4.712,3.044 0.882,1.629 -2.647,0.177 -2.06,-0.006 -1.468,-0.165 -0.868,-0.298 -0.527,-0.18 -0.142,-0.045 0,0"
               id="path14514"
               style="fill:#fbbf16;fill-opacity:1;fill-rule:nonzero;stroke:none" />
          </g>
          <g
             transform="translate(98.3081,318.7068)"
             id="g14516">
            <path
               d="M 0,0 C 1.739,-0.211 3.715,-0.035 4.13,0.71 4.406,1.207 3.929,1.975 3.481,2.532 0.517,6.217 -5.385,7.108 -5.444,7.117 L -5.47,7.12 -5.496,7.127 c -3.857,1.072 -9.734,0.345 -11.664,-0.234 -3.156,-1.609 -5.902,-3.96 -8.016,-6.927 -0.594,-0.832 -1.12,-1.697 -1.588,-2.586 1.485,0.514 4.37,1.427 7.58,2.001 C -19.082,-0.601 -8.906,1.086 0,0"
               id="path14518"
               style="fill:#fbbf16;fill-opacity:1;fill-rule:nonzero;stroke:none" />
          </g>
          <g
             transform="translate(70.605,311.0986)"
             id="g14520">
            <path
               d="M 0,0 C 0.011,0.002 0.021,-0.004 0.032,-0.005 1.8,0.26 3.584,0.506 5.204,0.758 5.074,-0.457 4.94,-1.685 4.807,-2.911 c 2.291,0.389 4.575,0.745 6.852,1.073 0,0.002 10e-4,0.003 10e-4,0.005 0.127,0.019 0.255,0.033 0.382,0.052 0.135,0.019 0.27,0.041 0.405,0.06 0,-0.002 0,-0.004 -10e-4,-0.006 2.567,0.362 5.126,0.683 7.678,0.965 0,0.002 0.001,0.004 0.001,0.005 0.23,0.027 0.459,0.049 0.689,0.075 0.147,0.016 0.294,0.036 0.44,0.051 0,-0.001 0,-0.002 0,-0.003 1.3,0.141 2.598,0.275 3.894,0.395 0.872,0.08 1.66,-0.142 2.225,-0.613 0.039,-0.033 0.073,-0.068 0.109,-0.102 0.018,0.307 0.038,0.617 0.056,0.923 2.314,0.19 4.625,0.34 6.931,0.458 0,0.003 0,0.005 0,0.007 0.213,0.011 0.425,0.019 0.638,0.029 0.054,0.003 0.108,0.007 0.162,0.01 l 0,-0.002 c 1.404,0.067 2.807,0.125 4.209,0.166 0.845,0.023 1.618,-0.2 2.193,-0.611 0.002,0.053 0.002,0.086 0.002,0.085 0.004,0.462 0.113,0.862 0.315,1.198 -0.505,1.621 -1.19,3.165 -2.038,4.611 -0.552,0.226 -1.795,0.736 -1.776,0.73 -0.092,0.03 -2.265,0.775 -3.166,3.211 -0.583,1.577 -0.659,2.13 -0.608,2.374 -0.248,0.191 -0.496,0.38 -0.752,0.563 -4.855,3.458 -10.764,4.82 -16.644,3.832 -1.005,-0.169 -1.986,-0.407 -2.942,-0.703 2.604,0.259 5.856,0.284 8.325,-0.393 0.327,-0.047 6.287,-0.965 9.436,-4.88 C 32.43,9.898 32.735,9.227 32.735,8.647 32.735,8.387 32.673,8.143 32.55,7.92 31.694,6.38 28.28,6.713 27.605,6.794 18.819,7.866 8.757,6.199 8.66,6.182 4.739,5.481 1.315,4.264 0.416,3.932 -0.194,2.61 -0.669,1.24 -1.006,-0.163 c 0.152,0.024 0.303,0.048 0.457,0.071 L 0,0 z m 16.592,0.583 0.13,0.662 c 0.036,0.182 0.186,0.32 0.371,0.339 0,0 0.17,0.02 0.187,0.021 0.14,0.286 0.763,1.554 1.098,2.235 -0.022,0.015 -0.048,0.027 -0.068,0.047 -0.074,0.08 -0.115,0.183 -0.115,0.289 0,0.023 0.003,0.047 0.006,0.071 l 0.113,0.662 c 0.032,0.188 0.184,0.332 0.374,0.35 l 2.48,0.243 C 21.299,5.514 21.425,5.466 21.515,5.371 21.59,5.292 21.63,5.187 21.63,5.081 21.63,5.059 21.628,5.036 21.626,5.015 L 21.524,4.357 C 21.498,4.19 21.368,4.072 21.209,4.029 21.268,3.531 21.39,2.519 21.45,2.022 c 0.008,0.001 0.04,0.004 0.04,0.004 0.067,0.006 0.131,-0.004 0.191,-0.027 0.046,0.025 0.096,0.044 0.151,0.05 0,0 0.025,0.002 0.031,0.003 0.056,0.248 0.109,0.488 0.193,0.864 -0.087,0.018 -0.169,0.054 -0.23,0.123 -0.071,0.078 -0.108,0.18 -0.108,0.283 0,0.03 0.002,0.061 0.008,0.09 l 0.138,0.635 c 0.039,0.179 0.186,0.313 0.369,0.332 l 1.365,0.144 c 0.101,0.01 0.198,-0.024 0.28,-0.081 0.199,0.109 0.399,0.185 0.659,0.211 0.358,0.035 0.686,-0.084 0.904,-0.325 0.073,-0.08 0.128,-0.174 0.171,-0.274 0.315,0.541 0.82,0.933 1.407,1.005 0.184,0.022 0.41,0.004 0.641,-0.093 0.068,0.087 0.157,0.156 0.274,0.169 l 1.223,0.136 c 0.128,0.015 0.256,-0.03 0.347,-0.121 0.066,-0.067 0.099,-0.153 0.112,-0.243 0.301,0.209 0.651,0.348 1.036,0.373 0.546,0.035 1.057,-0.156 1.403,-0.523 0.083,-0.087 0.164,-0.206 0.238,-0.341 0.014,0.2 0.026,0.382 0.036,0.525 -0.097,0.011 -0.192,0.04 -0.261,0.109 -0.079,0.08 -0.122,0.187 -0.122,0.298 0,0.01 0,0.019 10e-4,0.027 l 0.037,0.626 C 31.998,6.217 32.17,6.39 32.385,6.4 l 1.307,0.065 c 0.12,0.006 0.236,-0.038 0.32,-0.124 0.08,-0.079 0.123,-0.186 0.123,-0.296 0,-0.009 0,-0.018 -10e-4,-0.025 0,0 -0.032,-0.548 -0.071,-1.197 0.02,0.025 0.034,0.055 0.055,0.078 0.359,0.406 0.858,0.641 1.406,0.661 0.538,0.021 1.047,-0.181 1.399,-0.551 0.019,-0.02 0.037,-0.048 0.056,-0.07 0.052,0.125 0.121,0.244 0.214,0.348 0.277,0.315 0.703,0.494 1.2,0.504 0.219,0.004 0.397,-0.025 0.567,-0.082 0.051,0.023 0.096,0.061 0.155,0.062 l 0.63,0.009 c 0.12,0.002 0.235,-0.048 0.317,-0.136 0.072,-0.078 0.113,-0.182 0.113,-0.287 0,-0.014 -0.002,-0.026 -0.002,-0.039 L 40.087,4.392 C 40.071,4.213 39.935,4.092 39.769,4.046 39.987,3.818 40.114,3.573 40.152,3.254 40.16,3.197 40.163,3.142 40.163,3.086 40.163,2.774 40.055,2.48 39.852,2.246 39.559,1.909 39.096,1.717 38.547,1.706 38.285,1.701 38.064,1.736 37.857,1.798 37.798,1.763 37.741,1.722 37.669,1.72 L 37.021,1.703 C 36.898,1.7 36.779,1.75 36.696,1.841 36.661,1.88 36.633,1.926 36.614,1.974 36.315,1.768 35.945,1.651 35.509,1.635 35.031,1.617 34.617,1.743 34.293,1.971 L 34.283,1.816 C 34.271,1.6 34.096,1.431 33.88,1.42 L 32.235,1.335 c -0.122,-0.006 -0.242,0.04 -0.326,0.127 -0.078,0.08 -0.122,0.186 -0.122,0.298 0,0.009 0,0.02 0,0.029 l 0.002,0.02 C 31.467,1.538 31.05,1.379 30.556,1.347 30.004,1.312 29.529,1.456 29.182,1.762 29.107,1.829 29.04,1.903 28.981,1.982 L 28.978,1.958 C 28.826,0.772 28.088,0.041 26.902,-0.104 26.31,-0.177 25.764,-0.128 25.323,0.036 25.109,0.115 24.996,0.347 25.067,0.564 L 25.18,0.914 23.955,0.797 C 23.857,0.788 23.765,0.821 23.684,0.875 23.616,0.806 23.531,0.755 23.431,0.745 L 21.783,0.569 C 21.732,0.564 21.684,0.576 21.635,0.589 21.58,0.555 21.521,0.53 21.455,0.524 L 19.627,0.351 c -0.132,-0.012 -0.262,0.039 -0.353,0.136 -0.072,0.078 -0.112,0.182 -0.112,0.287 0,0.026 0.002,0.05 0.007,0.075 L 19.28,1.463 C 19.262,1.459 19.243,1.458 19.225,1.456 19.236,1.42 19.247,1.383 19.247,1.344 19.247,1.318 19.243,1.293 19.24,1.266 L 19.116,0.606 C 19.081,0.421 18.929,0.281 18.743,0.261 L 17.055,0.08 c -0.134,-0.015 -0.267,0.035 -0.36,0.134 -0.071,0.079 -0.11,0.183 -0.11,0.288 0,0.027 0.002,0.054 0.007,0.081 M 5.32,-1.024 5.459,-0.281 c 0.033,0.175 0.171,0.311 0.347,0.34 0,0 0.053,0.009 0.1,0.016 0.06,0.4 0.212,1.404 0.212,1.404 0,0 0.085,0.571 0.156,1.053 C 6.161,2.533 6.053,2.578 5.973,2.66 5.895,2.741 5.853,2.847 5.853,2.956 c 0,0.025 0.002,0.052 0.007,0.078 l 0.139,0.745 c 0.034,0.182 0.166,0.318 0.35,0.34 L 7.397,4.243 8.296,4.346 C 8.429,4.361 8.568,4.314 8.661,4.216 8.736,4.136 8.781,4.029 8.781,3.92 8.781,3.898 8.78,3.876 8.775,3.853 L 8.644,3.11 C 8.613,2.931 8.469,2.793 8.288,2.766 8.288,2.766 8.234,2.757 8.206,2.754 8.152,2.363 8.031,1.506 8.031,1.506 c 0,0 -0.09,-0.62 -0.163,-1.126 C 8.033,0.404 8.073,0.411 8.199,0.43 8.265,0.808 8.4,1.588 8.4,1.588 8.432,1.769 8.575,1.909 8.756,1.936 l 0.815,0.115 c 0.03,0.005 0.058,-0.006 0.087,-0.008 0.37,0.765 1.018,1.333 1.783,1.469 0.563,0.102 0.935,-0.092 1.15,-0.272 0.088,-0.075 0.166,-0.162 0.235,-0.259 0.228,0.488 0.732,0.834 1.369,0.878 0.217,0.015 0.391,10e-4 0.558,-0.049 0.048,0.023 0.09,0.058 0.144,0.062 l 0.615,0.039 c 0.127,0.008 0.25,-0.039 0.336,-0.132 0.075,-0.079 0.116,-0.183 0.116,-0.29 0,-0.017 0,-0.035 -0.002,-0.052 L 15.84,2.466 C 15.819,2.281 15.67,2.148 15.491,2.114 c 0.223,-0.237 0.342,-0.496 0.368,-0.837 0.004,-0.038 0.005,-0.076 0.005,-0.114 0,-0.343 -0.121,-0.672 -0.346,-0.932 -0.293,-0.339 -0.742,-0.545 -1.262,-0.581 -0.254,-0.018 -0.473,0 -0.673,0.053 -0.056,-0.035 -0.111,-0.074 -0.179,-0.08 l -0.633,-0.048 c -0.129,-0.01 -0.254,0.039 -0.343,0.133 -0.039,0.043 -0.068,0.093 -0.087,0.147 -0.357,-0.372 -0.805,-0.641 -1.31,-0.731 -0.466,-0.084 -0.895,0.017 -1.205,0.284 -0.048,0.04 -0.084,0.091 -0.125,0.139 L 9.669,-0.64 C 9.637,-0.82 9.49,-0.959 9.311,-0.987 L 5.804,-1.521 c -0.136,-0.021 -0.276,0.026 -0.371,0.125 -0.078,0.08 -0.121,0.186 -0.121,0.295 0,0.026 0.002,0.051 0.008,0.077"
               id="path14522"
               style="fill:#fbbf16;fill-opacity:1;fill-rule:nonzero;stroke:none" />
          </g>
          <g
             transform="translate(55.3761,305.6565)"
             id="g14524">
            <path
               d="m 0,0 c 0,0 -2.406,-0.36 -2.406,-0.36 0,0 -0.374,-0.057 -0.595,-0.091 -0.565,-3.613 -1.087,-7.21 -1.59,-10.688 -0.803,-5.54 -1.637,-11.272 -2.7,-17.478 0.534,0.224 1.521,0.637 1.521,0.637 l 1.228,0.512 c 0.706,0.302 1.094,0.8 1.222,1.57 1.478,9.12 2.615,16.637 3.868,25.115 0.017,0.127 0.026,0.238 0.026,0.333 0,0.186 -0.033,0.314 -0.099,0.38 C 0.375,0.029 0.162,0.023 0,0"
               id="path14526"
               style="fill:#5c268a;fill-opacity:1;fill-rule:nonzero;stroke:none" />
          </g>
          <g
             transform="translate(93.9921,290.1736)"
             id="g14528">
            <path
               d="M 0,0 C -0.484,-0.144 -0.947,-0.283 -1.386,-0.417 -0.947,-0.283 -0.484,-0.144 0,0"
               id="path14530"
               style="fill:#ffffff;fill-opacity:1;fill-rule:nonzero;stroke:none" />
          </g>
          <g
             transform="translate(111.4001,294.4956)"
             id="g14532">
            <path
               d="M 0,0 C 0.245,0.047 0.489,0.094 0.734,0.139 0.713,0.135 0.692,0.132 0.671,0.128 0.447,0.086 0.224,0.043 0,0"
               id="path14534"
               style="fill:#ffffff;fill-opacity:1;fill-rule:nonzero;stroke:none" />
          </g>
          <g
             transform="translate(95.4501,308.8544)"
             id="g14536">
            <path
               d="m 0,0 c 0,0 -0.743,-0.084 -0.919,-0.104 -0.204,-2.686 -0.51,-5.387 -0.834,-8.246 -0.282,-2.473 -0.571,-5.029 -0.787,-7.563 0.205,0.056 1.269,0.347 1.269,0.347 0.428,0.106 0.503,0.342 0.52,0.535 0.384,4.844 0.756,9.799 1.107,14.728 0.002,0.021 0.002,0.04 0.002,0.058 0,0.098 -0.018,0.163 -0.054,0.197 C 0.254,0 0.149,0.016 0,0"
               id="path14538"
               style="fill:#5c268a;fill-opacity:1;fill-rule:nonzero;stroke:none" />
          </g>
          <g
             transform="translate(110.2204,309.7534)"
             id="g14540">
            <path
               d="m 0,0 c 0,0.118 -0.03,0.161 -0.053,0.184 -0.052,0.05 -0.165,0.074 -0.327,0.066 0,0 -0.711,-0.035 -0.897,-0.045 -0.01,-0.242 -0.234,-5.269 -0.248,-5.579 0.295,0.033 0.876,0.099 0.876,0.099 0.367,0.044 0.426,0.206 0.433,0.359 l 0.215,4.898 C 0,-0.012 0,-0.006 0,0"
               id="path14542"
               style="fill:#5c268a;fill-opacity:1;fill-rule:nonzero;stroke:none" />
          </g>
          <g
             transform="translate(78.3543,290.0353)"
             id="g14544">
            <path
               d="m 0,0 c -0.007,-0.057 -0.048,-0.104 -0.103,-0.119 l -1.505,-0.43 c -0.047,-0.013 -0.096,-0.002 -0.134,0.029 -0.031,0.028 -0.05,0.068 -0.05,0.109 0,0.006 0.001,0.012 0.001,0.018 L -0.68,8.36 c 0.008,0.06 0.051,0.11 0.11,0.123 0,0 1.685,0.383 1.865,0.424 C 1.302,8.969 1.354,9.43 1.38,9.66 1.063,9.59 -0.381,9.271 -0.381,9.271 -0.428,9.261 -0.475,9.274 -0.509,9.305 -0.544,9.336 -0.561,9.383 -0.556,9.428 l 0.874,7.327 c 0.008,0.064 0.055,0.114 0.119,0.125 l 1.432,0.241 c 0.044,0.008 0.089,-0.006 0.122,-0.037 0.029,-0.027 0.044,-0.065 0.044,-0.105 0,-0.005 0,-0.01 0,-0.015 0,0 -0.556,-4.757 -0.599,-5.122 0.28,0.056 1.179,0.238 1.337,0.269 0.022,0.194 0.632,5.633 0.671,5.98 -1.851,-0.284 -3.73,-0.589 -5.594,-0.913 -0.016,-0.14 -0.064,-0.548 -0.091,-0.772 0.24,0.037 0.747,0.118 0.747,0.118 0.044,0.007 0.09,-0.007 0.122,-0.039 0.029,-0.027 0.044,-0.064 0.044,-0.103 0,-0.006 0,-0.011 -10e-4,-0.017 -0.837,-6.854 -1.514,-12.214 -2.197,-17.382 -0.007,-0.057 -0.047,-0.103 -0.101,-0.12 0,0 -0.764,-0.225 -0.909,-0.267 -0.018,-0.146 -0.099,-0.773 -0.104,-0.808 0.39,0.114 5.76,1.695 5.931,1.746 0.022,0.178 0.76,6.455 0.805,6.835 C 1.808,6.3 0.908,6.082 0.76,6.047 0.736,5.855 0,0 0,0"
               id="path14546"
               style="fill:#ffffff;fill-opacity:1;fill-rule:nonzero;stroke:none" />
          </g>
          <g
             transform="translate(80.5839,296.7318)"
             id="g14548">
            <path
               d="m 0,0 -1.634,-0.394 c -0.059,-0.014 -0.101,-0.062 -0.108,-0.122 0,0 -0.738,-5.868 -0.761,-6.05 -0.138,-0.039 -0.916,-0.261 -1.204,-0.344 0.05,0.407 1.045,8.248 1.069,8.439 0.176,0.039 1.866,0.424 1.866,0.424 0.06,0.014 0.105,0.064 0.112,0.125 l 0.118,1.052 c 0.001,0.006 0.001,0.011 0.001,0.017 0,0.04 -0.017,0.079 -0.048,0.106 -0.033,0.031 -0.081,0.045 -0.126,0.034 0,0 -1.441,-0.318 -1.762,-0.389 0.045,0.376 0.814,6.819 0.838,7.02 0.155,0.027 0.877,0.148 1.137,0.192 C -0.544,9.757 -1.101,4.982 -1.101,4.982 -1.102,4.976 -1.103,4.971 -1.103,4.966 c 0,-0.04 0.017,-0.079 0.047,-0.106 0.033,-0.031 0.081,-0.044 0.126,-0.036 l 1.632,0.33 C 0.763,5.166 0.81,5.217 0.817,5.278 L 1.52,11.549 C 1.525,11.594 1.509,11.637 1.477,11.668 1.445,11.699 1.4,11.713 1.356,11.707 -0.59,11.411 -2.572,11.088 -4.533,10.746 -4.596,10.735 -4.644,10.684 -4.651,10.621 L -4.778,9.554 c -0.005,-0.045 0.011,-0.09 0.043,-0.121 0.033,-0.03 0.077,-0.045 0.122,-0.038 0,0 0.506,0.08 0.746,0.118 -0.82,-6.719 -1.488,-12.007 -2.16,-17.096 -0.006,-0.002 -0.91,-0.269 -0.91,-0.269 -0.054,-0.016 -0.094,-0.063 -0.101,-0.119 L -7.183,-9.09 c 0,-0.006 0,-0.012 0,-0.018 0,-0.041 0.018,-0.082 0.05,-0.109 0.037,-0.032 0.088,-0.042 0.135,-0.028 l 6.232,1.833 c 0.055,0.016 0.096,0.065 0.103,0.121 l 0.839,7.134 C 0.182,-0.11 0.164,-0.064 0.129,-0.033 0.094,-0.001 0.046,0.011 0,0 m -0.938,-7.163 c -0.172,-0.05 -5.541,-1.631 -5.932,-1.746 0.005,0.035 0.086,0.663 0.104,0.809 0.145,0.042 0.909,0.267 0.909,0.267 0.055,0.016 0.095,0.063 0.102,0.119 0.682,5.168 1.36,10.528 2.196,17.382 0.001,0.006 0.002,0.012 0.002,0.018 0,0.038 -0.016,0.076 -0.044,0.103 -0.033,0.032 -0.079,0.046 -0.122,0.039 0,0 -0.508,-0.081 -0.747,-0.119 0.027,0.224 0.075,0.633 0.091,0.773 1.863,0.323 3.742,0.629 5.593,0.912 C 1.175,11.048 0.565,5.609 0.543,5.415 0.385,5.383 -0.513,5.202 -0.793,5.145 c 0.042,0.365 0.598,5.122 0.598,5.122 0.001,0.006 0.001,0.011 0.001,0.016 0,0.039 -0.016,0.078 -0.044,0.104 -0.033,0.032 -0.079,0.046 -0.123,0.038 l -1.432,-0.242 c -0.064,-0.01 -0.111,-0.061 -0.118,-0.124 L -2.785,2.732 C -2.79,2.686 -2.774,2.64 -2.739,2.608 c 0.035,-0.03 0.082,-0.043 0.128,-0.033 0,0 1.445,0.319 1.761,0.389 C -0.875,2.733 -0.928,2.272 -0.934,2.211 -1.115,2.17 -2.8,1.787 -2.8,1.787 -2.859,1.773 -2.902,1.724 -2.91,1.664 L -4.02,-7.09 c 0,-0.006 -0.001,-0.012 -0.001,-0.017 0,-0.042 0.018,-0.082 0.05,-0.109 0.037,-0.032 0.087,-0.043 0.133,-0.029 l 1.505,0.429 c 0.055,0.015 0.096,0.063 0.103,0.119 0,0 0.736,5.856 0.76,6.048 0.148,0.034 1.049,0.252 1.337,0.321 -0.045,-0.379 -0.784,-6.657 -0.805,-6.835"
               id="path14550"
               style="fill:#fbbc09;fill-opacity:1;fill-rule:nonzero;stroke:none" />
          </g>
          <g
             transform="translate(87.7125,308.2954)"
             id="g14552">
            <path
               d="M 0,0 C 0.238,0.033 0.785,0.107 0.785,0.107 0.829,0.113 0.872,0.099 0.904,0.069 0.936,0.037 0.952,-0.005 0.948,-0.049 l -1.187,-11.623 c -0.007,-0.075 -0.072,-0.13 -0.147,-0.128 -0.076,0.002 -0.136,0.063 -0.138,0.139 0,0 -0.432,11.891 -0.443,12.2 -0.278,-0.038 -3.26,-0.457 -3.459,-0.485 -0.014,-0.14 -0.05,-0.5 -0.072,-0.713 0.238,0.036 0.758,0.117 0.758,0.117 0.044,0.007 0.089,-0.007 0.121,-0.038 0.029,-0.027 0.045,-0.064 0.045,-0.103 0,-0.006 -0.001,-0.011 -0.001,-0.016 -0.588,-5.478 -1.208,-11.018 -1.846,-16.466 -0.006,-0.058 -0.048,-0.106 -0.104,-0.121 0,0 -0.778,-0.213 -0.895,-0.245 -0.016,-0.143 -0.075,-0.664 -0.085,-0.752 0.351,0.097 2.88,0.798 3.049,0.844 0.005,0.05 0.052,0.495 0.077,0.73 -0.259,-0.068 -0.811,-0.216 -0.811,-0.216 -0.046,-0.012 -0.095,-10e-4 -0.131,0.03 -0.036,0.03 -0.055,0.078 -0.049,0.125 0.552,4.865 1.088,9.758 1.59,14.541 0.009,0.075 0.073,0.131 0.148,0.128 0.076,-0.002 0.137,-0.064 0.139,-0.139 0.076,-2.415 0.217,-4.867 0.351,-7.239 0.14,-2.451 0.283,-4.982 0.36,-7.507 0.29,0.077 2.149,0.571 2.316,0.615 0.331,3.174 0.572,6.31 0.804,9.343 0.18,2.361 0.368,4.802 0.592,7.173 0.006,0.068 0.058,0.121 0.124,0.129 0,0 0.654,0.085 0.823,0.106 C 2.889,0.52 2.916,0.835 2.933,1.033 2.633,0.995 0.262,0.701 0.063,0.676 0.048,0.51 0.002,0.01 0,0"
               id="path14554"
               style="fill:#ffffff;fill-opacity:1;fill-rule:nonzero;stroke:none" />
          </g>
          <g
             transform="translate(90.8651,308.5352)"
             id="g14556">
            <path
               d="m 0,0 0.081,0.945 c 0.001,0.004 0.001,0.009 0.001,0.013 0,0.038 -0.015,0.076 -0.044,0.103 -0.03,0.03 -0.073,0.044 -0.117,0.039 L -3.241,0.707 C -3.308,0.699 -3.359,0.645 -3.366,0.577 l -0.089,-0.97 c -0.004,-0.043 0.012,-0.087 0.044,-0.117 0.032,-0.031 0.075,-0.044 0.119,-0.038 0,0 0.544,0.074 0.782,0.106 C -2.539,-0.729 -3.186,-7.071 -3.466,-9.813 -3.569,-6.937 -3.839,0.469 -3.839,0.469 -3.84,0.51 -3.858,0.549 -3.888,0.574 -3.92,0.601 -3.961,0.612 -4,0.606 L -7.731,0.083 C -7.796,0.074 -7.846,0.021 -7.852,-0.045 l -0.103,-1.009 c -0.005,-0.044 0.011,-0.088 0.044,-0.118 0.031,-0.031 0.076,-0.045 0.12,-0.038 0,0 0.519,0.08 0.757,0.116 -0.578,-5.385 -1.187,-10.826 -1.813,-16.18 -0.128,-0.035 -0.896,-0.245 -0.896,-0.245 -0.057,-0.016 -0.098,-0.065 -0.105,-0.123 l -0.119,-1.06 c 0,-0.006 -10e-4,-0.011 -10e-4,-0.017 0,-0.041 0.019,-0.081 0.051,-0.109 0.036,-0.03 0.085,-0.041 0.132,-0.029 l 3.346,0.928 c 0.057,0.015 0.099,0.064 0.105,0.123 l 0.11,1.035 c 0.005,0.048 -0.014,0.094 -0.05,0.124 -0.036,0.031 -0.084,0.042 -0.13,0.03 0,0 -0.551,-0.147 -0.811,-0.216 0.472,4.155 0.928,8.316 1.363,12.423 0.078,-1.788 0.172,-3.578 0.272,-5.326 0.142,-2.506 0.29,-5.099 0.366,-7.679 0.002,-0.043 0.023,-0.085 0.058,-0.11 0.035,-0.027 0.081,-0.036 0.123,-0.024 l 2.584,0.686 c 0.058,0.016 0.101,0.066 0.107,0.125 0.336,3.211 0.578,6.382 0.814,9.449 0.177,2.322 0.361,4.72 0.582,7.054 0.01,0.002 0.821,0.105 0.821,0.105 C -0.058,-0.122 -0.006,-0.067 0,0 M -0.276,0.14 C -0.445,0.119 -1.099,0.034 -1.099,0.034 -1.165,0.026 -1.216,-0.027 -1.223,-0.094 c -0.224,-2.372 -0.411,-4.813 -0.591,-7.174 -0.233,-3.033 -0.474,-6.169 -0.805,-9.343 -0.167,-0.044 -2.026,-0.538 -2.316,-0.615 -0.077,2.525 -0.22,5.057 -0.359,7.507 -0.135,2.372 -0.275,4.824 -0.352,7.239 -0.002,0.075 -0.063,0.137 -0.138,0.139 -0.076,0.003 -0.14,-0.053 -0.148,-0.128 -0.503,-4.783 -1.038,-9.676 -1.591,-14.541 -0.005,-0.046 0.013,-0.095 0.049,-0.125 0.036,-0.031 0.085,-0.042 0.131,-0.03 0,0 0.552,0.148 0.811,0.217 -0.024,-0.235 -0.072,-0.681 -0.077,-0.731 -0.168,-0.046 -2.697,-0.747 -3.049,-0.844 0.011,0.088 0.069,0.609 0.085,0.752 0.118,0.033 0.895,0.245 0.895,0.245 0.057,0.015 0.098,0.063 0.105,0.121 0.638,5.448 1.258,10.988 1.845,16.466 10e-4,0.005 0.002,0.01 0.002,0.016 0,0.039 -0.017,0.076 -0.045,0.103 -0.032,0.031 -0.077,0.045 -0.121,0.038 0,0 -0.52,-0.081 -0.759,-0.117 0.022,0.213 0.058,0.573 0.073,0.714 0.198,0.027 3.18,0.446 3.459,0.484 0.011,-0.309 0.442,-12.2 0.442,-12.2 0.002,-0.076 0.063,-0.137 0.139,-0.139 0.075,-0.002 0.139,0.053 0.147,0.128 l 1.186,11.623 c 0.004,0.044 -0.012,0.087 -0.043,0.118 -0.032,0.031 -0.076,0.045 -0.12,0.038 0,0 -0.547,-0.074 -0.785,-0.107 0.002,0.011 0.048,0.511 0.063,0.677 0.2,0.024 2.57,0.318 2.87,0.356 C -0.237,0.595 -0.264,0.28 -0.276,0.14"
               id="path14558"
               style="fill:#fbbc09;fill-opacity:1;fill-rule:nonzero;stroke:none" />
          </g>
          <g
             transform="translate(97.3552,309.5499)"
             id="g14560">
            <path
               d="m 0,0 c -0.368,0.352 -0.966,0.352 -1.289,0.32 0,0 -4.067,-0.44 -4.29,-0.464 -0.012,-0.151 -0.039,-0.517 -0.052,-0.713 0.204,0.013 0.61,0.039 0.61,0.039 0.04,0.002 0.081,-0.013 0.11,-0.042 0.027,-0.027 0.042,-0.064 0.042,-0.101 l 0,-0.01 c -0.375,-5.541 -1.545,-16.796 -1.556,-16.909 -0.002,-0.016 -0.006,-0.03 -0.012,-0.044 0,0 -0.153,-0.349 -0.269,-0.612 0.807,0.226 3.095,0.863 4.343,1.178 0.761,0.194 1.579,1.014 1.695,2.412 0.001,0.019 0.998,13.878 0.998,13.878 0.003,0.044 0.003,0.087 0.003,0.129 C 0.333,-0.527 0.221,-0.212 0,0 m -1.262,-1.017 c -0.351,-4.932 -0.724,-9.888 -1.108,-14.734 -0.036,-0.412 -0.284,-0.678 -0.738,-0.79 l -1.465,-0.401 c -0.046,-0.012 -0.092,-0.001 -0.128,0.029 -0.036,0.03 -0.054,0.076 -0.05,0.123 0.218,2.606 0.517,5.235 0.806,7.777 0.33,2.898 0.641,5.635 0.846,8.354 0.005,0.069 0.058,0.124 0.127,0.132 0,0 1.036,0.117 1.036,0.117 0.242,0.026 0.417,-0.015 0.532,-0.125 0.145,-0.138 0.151,-0.341 0.142,-0.482"
               id="path14562"
               style="fill:#ffffff;fill-opacity:1;fill-rule:nonzero;stroke:none" />
          </g>
          <g
             transform="translate(97.554,309.7574)"
             id="g14564">
            <path
               d="m 0,0 c -0.451,0.432 -1.144,0.435 -1.516,0.398 -10e-4,0 -4.414,-0.477 -4.414,-0.477 -0.069,-0.008 -0.121,-0.063 -0.126,-0.132 l -0.073,-0.997 c -0.003,-0.041 0.012,-0.081 0.041,-0.111 0.029,-0.03 0.07,-0.045 0.112,-0.043 0,0 0.406,0.027 0.61,0.039 -0.382,-5.534 -1.509,-16.398 -1.542,-16.713 -0.017,-0.039 -0.381,-0.871 -0.381,-0.871 -0.009,-0.018 -0.012,-0.037 -0.012,-0.057 0,-0.034 0.012,-0.068 0.035,-0.095 0.037,-0.041 0.093,-0.058 0.148,-0.043 0.03,0.009 3.106,0.875 4.626,1.258 0.86,0.219 1.785,1.128 1.911,2.667 0,0 0.998,13.884 0.998,13.884 C 0.447,-0.728 0.307,-0.294 0,0 m -0.867,-15.154 c -0.115,-1.397 -0.934,-2.218 -1.695,-2.412 -1.248,-0.314 -3.536,-0.952 -4.343,-1.178 0.117,0.263 0.27,0.613 0.27,0.613 0.005,0.013 0.01,0.028 0.012,0.043 0.01,0.113 1.18,11.369 1.555,16.909 l 0,0.01 c 0,0.038 -0.015,0.074 -0.042,0.101 -0.029,0.029 -0.07,0.044 -0.11,0.042 0,0 -0.406,-0.026 -0.61,-0.039 0.013,0.196 0.04,0.563 0.052,0.713 0.223,0.025 4.29,0.465 4.29,0.465 0.323,0.031 0.921,0.032 1.289,-0.321 0.222,-0.212 0.333,-0.526 0.333,-0.938 0,-0.042 0,-0.085 -0.003,-0.129 0,0 -0.997,-13.86 -0.998,-13.879"
               id="path14566"
               style="fill:#fbbc09;fill-opacity:1;fill-rule:nonzero;stroke:none" />
          </g>
          <g
             transform="translate(95.4187,309.14)"
             id="g14568">
            <path
               d="m 0,0 c 0,0 -1.036,-0.117 -1.036,-0.117 -0.069,-0.008 -0.122,-0.063 -0.127,-0.132 -0.204,-2.719 -0.515,-5.456 -0.845,-8.354 -0.289,-2.542 -0.589,-5.171 -0.806,-7.777 -0.004,-0.047 0.013,-0.093 0.049,-0.123 0.036,-0.03 0.083,-0.041 0.128,-0.029 l 1.465,0.401 c 0.455,0.112 0.703,0.378 0.738,0.79 0.384,4.845 0.757,9.802 1.108,14.733 0.009,0.142 0.004,0.345 -0.141,0.483 C 0.417,-0.015 0.243,0.026 0,0 m 0.388,-0.589 c -0.352,-4.928 -0.723,-9.884 -1.108,-14.728 -0.017,-0.193 -0.091,-0.429 -0.52,-0.534 0,0 -1.063,-0.292 -1.269,-0.348 0.217,2.534 0.505,5.09 0.787,7.563 0.325,2.859 0.63,5.561 0.835,8.246 0.175,0.021 0.918,0.104 0.918,0.104 0.149,0.017 0.254,0 0.304,-0.047 0.036,-0.035 0.055,-0.1 0.055,-0.197 0,-0.019 -0.001,-0.038 -0.002,-0.059"
               id="path14570"
               style="fill:#fbbc09;fill-opacity:1;fill-rule:nonzero;stroke:none" />
          </g>
          <g
             transform="translate(99.166,309.5036)"
             id="g14572">
            <path
               d="m 0,0 c 0.033,-0.002 0.586,-0.022 0.586,-0.022 0.038,-0.002 0.075,-0.019 0.1,-0.048 0.024,-0.026 0.038,-0.061 0.038,-0.097 0,-0.003 -0.346,-6.516 -0.346,-6.516 -0.133,-2.771 -0.27,-5.636 -0.479,-8.557 -0.005,-0.064 -0.05,-0.117 -0.112,-0.13 0,0 -0.701,-0.164 -0.866,-0.202 -0.009,-0.143 -0.04,-0.583 -0.047,-0.684 1.925,0.464 3.865,0.915 5.773,1.338 0.011,0.202 0.318,5.568 0.337,5.9 -0.258,-0.042 -1.138,-0.19 -1.306,-0.219 -0.016,-0.217 -0.347,-5.232 -0.347,-5.232 -0.004,-0.063 -0.05,-0.116 -0.112,-0.13 l -1.466,-0.324 c -0.045,-0.009 -0.091,0.002 -0.126,0.031 -0.031,0.028 -0.049,0.068 -0.049,0.11 0,0.003 0.512,7.639 0.512,7.639 0.006,0.068 0.055,0.123 0.122,0.133 0,0 1.601,0.241 1.806,0.272 0.007,0.139 0.023,0.429 0.032,0.621 C 3.765,-6.158 2.307,-6.366 2.307,-6.366 2.264,-6.372 2.221,-6.359 2.188,-6.329 2.157,-6.3 2.14,-6.258 2.143,-6.215 l 0.38,6.337 c 0.004,0.072 0.06,0.13 0.132,0.136 L 4.063,0.37 C 4.103,0.374 4.145,0.36 4.174,0.33 4.202,0.303 4.217,0.266 4.217,0.228 c 0,-0.003 -0.236,-4.1 -0.255,-4.418 0.251,0.03 1.131,0.137 1.312,0.159 0.013,0.223 0.253,4.797 0.269,5.094 C 3.751,0.952 1.901,0.815 0.038,0.657 0.029,0.495 0.007,0.126 0,0"
               id="path14574"
               style="fill:#ffffff;fill-opacity:1;fill-rule:nonzero;stroke:none" />
          </g>
          <g
             transform="translate(104.8515,310.8637)"
             id="g14576">
            <path
               d="m 0,0 c -1.883,-0.115 -3.833,-0.259 -5.795,-0.428 -0.072,-0.006 -0.127,-0.063 -0.132,-0.134 0,0 -0.054,-0.933 -0.054,-0.936 0,-0.036 0.013,-0.07 0.037,-0.097 0.026,-0.029 0.062,-0.046 0.1,-0.047 0,0 0.439,-0.016 0.588,-0.022 -0.015,-0.281 -0.338,-6.365 -0.338,-6.365 -0.131,-2.736 -0.268,-5.564 -0.473,-8.446 -0.166,-0.039 -0.867,-0.202 -0.867,-0.202 -0.061,-0.014 -0.106,-0.067 -0.11,-0.129 0,0 -0.067,-0.993 -0.067,-0.995 0,-0.043 0.018,-0.083 0.05,-0.11 0.036,-0.03 0.082,-0.041 0.127,-0.03 2.021,0.49 4.061,0.963 6.063,1.407 0.063,0.014 0.109,0.067 0.113,0.131 l 0.354,6.188 c 0.001,0.044 -0.016,0.086 -0.048,0.115 -0.032,0.03 -0.076,0.042 -0.119,0.035 l -1.597,-0.268 c -0.066,-0.01 -0.115,-0.064 -0.119,-0.132 0,0 -0.334,-5.031 -0.347,-5.237 -0.157,-0.035 -0.913,-0.202 -1.174,-0.26 0.024,0.359 0.478,7.107 0.492,7.325 0.201,0.03 1.807,0.272 1.807,0.272 0.068,0.011 0.119,0.067 0.123,0.135 0,0 0.047,0.917 0.047,0.92 0,0.04 -0.016,0.078 -0.047,0.105 -0.031,0.029 -0.074,0.043 -0.116,0.037 0,0 -1.455,-0.207 -1.744,-0.249 0.02,0.326 0.349,5.805 0.362,6.038 0.112,0.009 0.881,0.071 1.119,0.09 -0.018,-0.306 -0.254,-4.421 -0.254,-4.424 0,-0.039 0.016,-0.077 0.046,-0.105 0.03,-0.029 0.072,-0.043 0.114,-0.038 l 1.602,0.194 c 0.07,0.008 0.123,0.065 0.127,0.135 l 0.282,5.376 C 0.155,-0.11 0.14,-0.07 0.111,-0.041 0.081,-0.013 0.042,0.002 0,0 m -0.411,-5.391 c -0.182,-0.023 -1.062,-0.129 -1.312,-0.159 0.018,0.318 0.255,4.415 0.255,4.418 0,0.038 -0.016,0.075 -0.044,0.102 -0.029,0.03 -0.07,0.044 -0.11,0.04 l -1.409,-0.112 c -0.071,-0.006 -0.127,-0.064 -0.132,-0.136 l -0.38,-6.337 c -0.002,-0.043 0.014,-0.085 0.046,-0.114 0.032,-0.03 0.076,-0.043 0.119,-0.037 0,0 1.458,0.208 1.743,0.249 -0.01,-0.192 -0.025,-0.482 -0.032,-0.621 -0.206,-0.031 -1.806,-0.272 -1.806,-0.272 -0.067,-0.01 -0.117,-0.065 -0.122,-0.133 0,0 -0.513,-7.636 -0.513,-7.639 0,-0.042 0.019,-0.082 0.05,-0.11 0.035,-0.029 0.08,-0.041 0.125,-0.031 l 1.466,0.324 c 0.062,0.013 0.109,0.066 0.113,0.13 0,0 0.331,5.015 0.346,5.232 0.169,0.029 1.049,0.176 1.307,0.219 -0.02,-0.332 -0.327,-5.698 -0.338,-5.9 -1.907,-0.423 -3.847,-0.874 -5.772,-1.338 0.006,0.101 0.037,0.541 0.046,0.683 0.165,0.039 0.866,0.203 0.866,0.203 0.062,0.013 0.108,0.066 0.113,0.13 0.209,2.921 0.346,5.786 0.478,8.557 0,0 0.347,6.513 0.347,6.516 0,0.035 -0.014,0.071 -0.039,0.097 -0.025,0.029 -0.061,0.046 -0.099,0.048 0,0 -0.554,0.02 -0.587,0.022 0.007,0.126 0.03,0.495 0.039,0.657 1.863,0.158 3.713,0.295 5.504,0.406 -0.015,-0.297 -0.255,-4.871 -0.268,-5.094"
               id="path14578"
               style="fill:#fbbc09;fill-opacity:1;fill-rule:nonzero;stroke:none" />
          </g>
          <g
             transform="translate(111.7414,296.9836)"
             id="g14580">
            <path
               d="m 0,0 c -0.131,0.115 -0.139,0.289 -0.133,0.407 l 0.106,2.765 c 0,0 0.1,2.727 0.1,2.728 0.013,0.292 -0.059,0.51 -0.223,0.665 -0.26,0.247 -0.751,0.34 -1.457,0.274 -0.078,-0.007 -0.148,0.059 -0.158,0.136 -0.009,0.077 0.045,0.158 0.122,0.169 1.195,0.168 1.809,0.633 1.821,1.385 0,10e-4 0.173,4.076 0.173,4.076 0.007,0.366 -0.096,0.656 -0.306,0.863 -0.379,0.374 -1.022,0.41 -1.372,0.397 0,0 -4.019,-0.187 -4.264,-0.198 -0.007,-0.153 -0.019,-0.436 -0.025,-0.594 0.08,-0.008 0.649,-0.062 0.649,-0.062 0.073,-0.007 0.129,-0.069 0.129,-0.144 0,-0.001 -0.234,-5.996 -0.234,-5.996 -0.089,-2.586 -0.181,-5.26 -0.335,-8.003 -0.003,-0.065 -0.051,-0.12 -0.115,-0.133 0,0 -0.685,-0.141 -0.855,-0.177 -0.007,-0.131 -0.022,-0.422 -0.033,-0.623 0.325,0.068 3.425,0.72 3.623,0.763 0.005,0.129 0.017,0.397 0.025,0.591 -0.24,-0.047 -0.809,-0.16 -0.809,-0.16 -0.043,-0.008 -0.088,0.004 -0.121,0.033 -0.035,0.029 -0.053,0.072 -0.051,0.116 l 0.368,7.099 c 0.004,0.07 0.056,0.128 0.125,0.136 0,0 1.045,0.131 1.046,0.131 0.235,0.028 0.414,-0.015 0.533,-0.129 0.103,-0.099 0.153,-0.246 0.141,-0.411 L -1.669,2.859 -1.783,0.315 c -0.014,-0.406 0.09,-0.705 0.308,-0.891 0.381,-0.324 1.04,-0.254 1.4,-0.184 0,0 0.673,0.129 0.848,0.164 0.005,0.129 0.014,0.373 0.02,0.558 C 0.736,-0.048 0.554,-0.081 0.554,-0.081 0.298,-0.129 0.116,-0.102 0,0 M -2.138,7.21 -3.18,7.091 C -3.221,7.086 -3.263,7.099 -3.295,7.129 -3.325,7.157 -3.342,7.198 -3.34,7.24 l 0.262,5.877 c 0.003,0.075 0.062,0.135 0.136,0.138 0,0 1.027,0.052 1.027,0.052 0.251,0.012 0.428,-0.037 0.542,-0.148 0.097,-0.095 0.143,-0.23 0.139,-0.416 0,0 -0.216,-4.902 -0.216,-4.903 C -1.464,7.588 -1.593,7.273 -2.138,7.21"
               id="path14582"
               style="fill:#ffffff;fill-opacity:1;fill-rule:nonzero;stroke:none" />
          </g>
          <g
             transform="translate(112.6583,297.2618)"
             id="g14584">
            <path
               d="m 0,0 -0.415,-0.077 c -0.221,-0.041 -0.292,-0.003 -0.313,0.015 -0.024,0.021 -0.036,0.067 -0.036,0.139 0,0.011 0.001,0.025 0.001,0.039 0,0.002 0.107,2.767 0.107,2.767 l 0.099,2.728 c 0.001,0.026 0.002,0.051 0.002,0.075 0,0.338 -0.106,0.61 -0.314,0.809 -0.169,0.161 -0.413,0.265 -0.714,0.322 0.73,0.286 1.121,0.769 1.132,1.428 l 0,-0.003 0.173,4.076 c 0.008,0.451 -0.124,0.812 -0.392,1.077 -0.456,0.448 -1.188,0.493 -1.583,0.48 -10e-4,0 -4.401,-0.205 -4.401,-0.205 -0.074,-0.003 -0.132,-0.063 -0.135,-0.136 0,0 -0.038,-0.868 -0.038,-0.87 0,-0.074 0.057,-0.135 0.131,-0.142 0,0 0.508,-0.049 0.65,-0.062 -0.011,-0.262 -0.23,-5.857 -0.23,-5.857 -0.088,-2.55 -0.179,-5.186 -0.33,-7.887 -0.171,-0.036 -0.855,-0.177 -0.855,-0.177 -0.064,-0.014 -0.111,-0.068 -0.114,-0.134 0,0 -0.047,-0.925 -0.047,-0.927 0,-0.043 0.018,-0.082 0.05,-0.11 0.034,-0.029 0.08,-0.04 0.124,-0.031 l 3.911,0.824 c 0.064,0.014 0.112,0.069 0.115,0.135 l 0.038,0.885 c 10e-4,0.044 -0.017,0.086 -0.05,0.115 -0.033,0.028 -0.078,0.041 -0.121,0.032 0,0 -0.566,-0.112 -0.808,-0.16 0.018,0.344 0.34,6.571 0.351,6.797 0.176,0.022 0.927,0.116 0.927,0.116 0.142,0.017 0.246,-0.001 0.3,-0.052 0.049,-0.049 0.055,-0.128 0.051,-0.187 0,-0.004 -0.139,-3.249 -0.139,-3.249 L -2.987,0.049 c -0.017,-0.5 0.12,-0.877 0.409,-1.122 0.449,-0.382 1.14,-0.345 1.64,-0.246 l 0.961,0.183 c 0.065,0.013 0.114,0.07 0.116,0.137 l 0.03,0.852 C 0.17,-0.104 0.152,-0.061 0.119,-0.033 0.086,-0.005 0.042,0.008 0,0 m -0.144,-0.875 c -0.175,-0.034 -0.848,-0.163 -0.848,-0.163 -0.359,-0.071 -1.019,-0.14 -1.4,0.184 -0.218,0.185 -0.321,0.485 -0.308,0.891 l 0.114,2.544 0.139,3.245 C -2.435,5.991 -2.484,6.138 -2.588,6.237 -2.707,6.351 -2.886,6.394 -3.12,6.366 -3.121,6.366 -4.167,6.235 -4.167,6.235 -4.236,6.226 -4.288,6.169 -4.291,6.099 l -0.369,-7.1 c -0.002,-0.043 0.017,-0.086 0.051,-0.115 0.033,-0.029 0.079,-0.041 0.121,-0.033 0,0 0.569,0.112 0.809,0.16 -0.008,-0.194 -0.02,-0.462 -0.025,-0.592 -0.198,-0.042 -3.298,-0.694 -3.622,-0.763 0.01,0.201 0.025,0.493 0.032,0.624 0.171,0.036 0.855,0.177 0.855,0.177 0.064,0.013 0.112,0.068 0.115,0.133 0.154,2.743 0.246,5.417 0.335,8.003 0,0 0.234,5.994 0.234,5.996 0,0.074 -0.056,0.137 -0.129,0.144 0,0 -0.568,0.054 -0.649,0.062 0.006,0.157 0.019,0.441 0.025,0.594 0.245,0.011 4.265,0.198 4.265,0.198 0.349,0.013 0.992,-0.023 1.371,-0.397 0.21,-0.207 0.313,-0.498 0.306,-0.863 0,0 -0.173,-4.075 -0.173,-4.076 C -0.751,7.499 -1.365,7.033 -2.56,6.866 -2.637,6.855 -2.691,6.774 -2.682,6.697 c 0.01,-0.078 0.08,-0.144 0.158,-0.136 0.706,0.066 1.197,-0.027 1.457,-0.275 0.164,-0.155 0.236,-0.372 0.223,-0.664 0,-10e-4 -0.1,-2.728 -0.1,-2.728 L -1.05,0.129 c -0.006,-0.118 0.002,-0.292 0.133,-0.407 0.117,-0.102 0.298,-0.129 0.554,-0.081 0,0 0.182,0.033 0.239,0.043 -0.006,-0.185 -0.015,-0.429 -0.02,-0.559"
               id="path14586"
               style="fill:#fbbc09;fill-opacity:1;fill-rule:nonzero;stroke:none" />
          </g>
          <g
             transform="translate(110.2917,304.8238)"
             id="g14588">
            <path
               d="M 0,0 C 0,0.001 0.215,4.903 0.215,4.903 0.22,5.089 0.174,5.224 0.077,5.318 -0.037,5.43 -0.214,5.479 -0.465,5.467 c 0,0 -1.027,-0.052 -1.027,-0.052 C -1.566,5.412 -1.625,5.352 -1.629,5.277 L -1.89,-0.6 c -0.002,-0.042 0.014,-0.083 0.045,-0.111 0.031,-0.03 0.074,-0.043 0.115,-0.039 l 1.042,0.12 C -0.144,-0.567 -0.014,-0.253 0,0 m -0.72,-0.345 c 0,0 -0.581,-0.066 -0.876,-0.099 0.014,0.31 0.238,5.337 0.248,5.579 0.186,0.009 0.897,0.045 0.897,0.045 0.161,0.008 0.275,-0.016 0.327,-0.066 0.023,-0.023 0.053,-0.066 0.053,-0.184 0,-0.007 0,-0.012 -0.001,-0.018 L -0.287,0.014 C -0.294,-0.139 -0.353,-0.302 -0.72,-0.345"
               id="path14590"
               style="fill:#fbbc09;fill-opacity:1;fill-rule:nonzero;stroke:none" />
          </g>
          <g
             transform="translate(119.2809,304.693)"
             id="g14592">
            <path
               d="m 0,0 c 0,0 -2.168,2.665 -2.171,2.667 -0.491,0.65 -0.678,1.258 -0.689,2.241 0,0 -0.006,2.234 -0.006,2.239 0.011,0.358 0.165,0.959 1.066,0.958 0.6,-0.002 0.958,-0.339 0.96,-0.901 0,0 0.027,-3.386 0.03,-3.664 0.229,0.012 1.236,0.065 1.448,0.077 C 0.635,3.869 0.596,8.263 0.593,8.52 0.509,8.522 -0.034,8.532 -0.187,8.534 -0.231,8.406 -0.331,8.118 -0.331,8.118 -0.35,8.062 -0.401,8.023 -0.46,8.021 -0.519,8.018 -0.573,8.052 -0.597,8.106 -0.72,8.379 -1.205,8.676 -2.199,8.687 -3.119,8.698 -3.792,8.498 -4.202,8.096 -4.498,7.804 -4.649,7.41 -4.651,6.922 l -0.004,-1.78 c -0.006,-1.447 0.38,-2.249 1.002,-3.075 l 2.133,-2.72 c 0.615,-0.742 0.718,-1.339 0.7,-2.242 0,0 0.006,-2.867 0.006,-2.87 -0.016,-0.693 -0.42,-1.101 -1.236,-1.249 -0.388,-0.071 -0.691,-0.018 -0.905,0.16 -0.2,0.168 -0.306,0.44 -0.306,0.787 0,0.004 0.039,3.51 0.042,3.814 -0.249,-0.034 -1.307,-0.175 -1.5,-0.2 -0.002,-0.232 -0.054,-5.286 -0.058,-5.613 0.223,0.045 0.71,0.142 0.833,0.167 0.027,0.1 0.143,0.536 0.143,0.536 0.015,0.056 0.061,0.096 0.118,0.104 0.058,0.009 0.113,-0.018 0.143,-0.067 0.176,-0.292 0.816,-0.498 1.845,-0.301 1.248,0.239 2.733,0.845 2.729,2.366 L 1.022,-2.995 C 1.018,-1.584 0.817,-0.995 0,0"
               id="path14594"
               style="fill:#ffffff;fill-opacity:1;fill-rule:nonzero;stroke:none" />
          </g>
          <g
             transform="translate(119.5028,304.8758)"
             id="g14596">
            <path
               d="m 0,0 c -0.001,0.001 -2.166,2.661 -2.166,2.661 -0.454,0.6 -0.619,1.141 -0.629,2.066 L -2.801,6.96 c 0.014,0.453 0.269,0.676 0.776,0.676 l 0.002,0 c 0.555,-0.002 0.673,-0.337 0.674,-0.617 0,0 0.031,-3.814 0.031,-3.814 0,-0.039 0.017,-0.076 0.045,-0.104 0.029,-0.026 0.067,-0.04 0.106,-0.038 L 0.567,3.154 C 0.644,3.158 0.704,3.222 0.704,3.299 L 0.657,8.479 C 0.656,8.557 0.593,8.619 0.516,8.622 L -0.508,8.64 c -0.063,0.002 -0.117,-0.037 -0.138,-0.096 0,0 -0.044,-0.131 -0.09,-0.262 C -0.961,8.507 -1.432,8.781 -2.418,8.791 -3.417,8.803 -4.159,8.576 -4.625,8.118 -4.977,7.771 -5.158,7.307 -5.16,6.741 -5.16,6.74 -5.165,4.96 -5.165,4.96 -5.17,3.432 -4.762,2.585 -4.102,1.711 c 0,0 2.138,-2.728 2.138,-2.728 0.506,-0.611 0.655,-1.092 0.635,-2.059 -0.001,-0.003 0.006,-2.868 0.006,-2.868 -0.013,-0.547 -0.321,-0.847 -1.001,-0.97 -0.299,-0.056 -0.525,-0.023 -0.668,0.097 -0.17,0.142 -0.204,0.391 -0.203,0.573 l 0.044,3.971 c 0,0.042 -0.017,0.081 -0.049,0.109 -0.031,0.028 -0.072,0.04 -0.114,0.034 l -1.788,-0.238 c -0.071,-0.009 -0.123,-0.07 -0.124,-0.141 l -0.062,-5.913 c 0,-0.044 0.019,-0.085 0.053,-0.112 0.033,-0.027 0.077,-0.039 0.12,-0.031 l 1.092,0.219 c 0.054,0.011 0.097,0.05 0.111,0.104 l 0.099,0.371 c 0.381,-0.299 1.09,-0.385 1.95,-0.221 2.453,0.471 2.964,1.701 2.962,2.65 L 1.087,-3.177 C 1.082,-1.701 0.858,-1.047 0,0 m -1.917,-7.81 c -1.029,-0.197 -1.668,0.01 -1.845,0.301 -0.03,0.049 -0.085,0.076 -0.143,0.068 -0.057,-0.009 -0.103,-0.049 -0.118,-0.105 0,0 -0.116,-0.436 -0.143,-0.536 -0.123,-0.025 -0.61,-0.122 -0.833,-0.167 0.004,0.327 0.056,5.381 0.059,5.613 0.192,0.026 1.25,0.167 1.499,0.2 -0.003,-0.304 -0.042,-3.81 -0.042,-3.813 0,-0.348 0.106,-0.62 0.306,-0.788 0.214,-0.178 0.517,-0.231 0.905,-0.159 0.816,0.147 1.22,0.556 1.236,1.249 0,0.003 -0.006,2.869 -0.006,2.869 0.018,0.903 -0.085,1.5 -0.7,2.242 l -2.133,2.72 C -4.497,2.71 -4.883,3.513 -4.877,4.959 l 0.004,1.781 c 0.002,0.488 0.153,0.882 0.45,1.173 0.409,0.402 1.082,0.602 2.002,0.591 0.994,-0.01 1.479,-0.307 1.602,-0.581 0.024,-0.053 0.078,-0.087 0.137,-0.085 0.059,0.003 0.11,0.042 0.129,0.097 0,0 0.101,0.288 0.144,0.417 C -0.256,8.349 0.287,8.339 0.371,8.337 0.374,8.081 0.413,3.686 0.416,3.434 0.204,3.423 -0.803,3.37 -1.032,3.357 c -0.003,0.278 -0.03,3.664 -0.03,3.664 -0.002,0.562 -0.36,0.899 -0.96,0.901 -0.901,0.001 -1.055,-0.6 -1.066,-0.958 0,-0.005 0.006,-2.239 0.006,-2.239 0.011,-0.983 0.198,-1.59 0.689,-2.241 0.003,-0.002 2.171,-2.667 2.171,-2.667 C 0.595,-1.178 0.796,-1.767 0.8,-3.178 L 0.812,-5.444 C 0.816,-6.965 -0.669,-7.57 -1.917,-7.81"
               id="path14598"
               style="fill:#fbbc09;fill-opacity:1;fill-rule:nonzero;stroke:none" />
          </g>
          <g
             transform="translate(121.2671,301.5795)"
             id="g14600">
            <path
               d="M 0,0 C -0.003,0.604 -0.044,1.08 -0.148,1.504 -0.311,2.171 -0.629,2.705 -1.2,3.395 -1.203,3.392 -2.181,4.573 -2.822,5.361 c 0.516,0.036 0.946,0.065 1.005,0.068 0.003,-0.002 0.005,-0.004 0.008,-0.007 0.404,0.176 0.873,0.38 1.413,0.614 -0.002,0.002 -0.001,0.005 -0.003,0.008 l 0.006,0 c -0.018,2.136 -0.04,4.226 -0.067,6.273 -0.837,0.029 -1.672,0.053 -2.507,0.071 0,-10e-4 -0.019,-0.053 -0.036,-0.102 -0.427,0.157 -0.918,0.246 -1.476,0.257 -0.78,0.014 -1.427,-0.113 -1.926,-0.361 -0.35,-0.109 -0.734,-0.249 -1.087,-0.418 -0.103,-0.039 -0.2,-0.083 -0.293,-0.131 -1.559,4.647 -4.526,8.675 -8.594,11.573 -5.092,3.629 -11.293,5.056 -17.46,4.021 -6.165,-1.034 -11.558,-4.408 -15.186,-9.5 -1.862,-2.612 -3.14,-5.517 -3.808,-8.558 -0.504,-0.084 -0.998,-0.17 -1.481,-0.26 l -5.637,-0.941 c -0.079,-0.013 -0.135,-0.086 -0.128,-0.166 0.008,-0.081 0.077,-0.142 0.157,-0.141 l 3.543,0.058 c -0.141,-1.148 -0.289,-2.495 -0.433,-3.634 0,0 0.856,-0.404 0.99,-0.375 -0.056,-0.487 -0.226,-1.76 -0.458,-3.459 l -2.517,-0.672 c -0.101,-0.026 -0.163,-0.126 -0.143,-0.229 0.019,-0.102 0.115,-0.173 0.219,-0.16 l 2.334,0.273 c -0.13,-0.953 -0.276,-2.007 -0.429,-3.114 -1.33,-0.307 -2.657,-0.616 -3.985,-0.926 0.386,2.719 0.762,5.401 1.126,8.042 0.217,1.707 -0.094,3.022 -0.907,3.986 -0.797,0.942 -1.964,1.401 -3.39,1.272 -2.945,-0.255 -9.183,-1.462 -12.159,-1.873 -0.83,-0.642 -1.664,-1.288 -2.498,-1.934 -3.679,-0.893 -7.375,-1.807 -11.01,-2.723 -0.08,-0.02 -0.13,-0.101 -0.113,-0.182 0.016,-0.081 0.094,-0.134 0.175,-0.121 3.311,0.536 6.636,1.055 9.919,1.549 -0.268,-1.528 -0.539,-3.065 -0.814,-4.611 l -4.893,-1.259 c -0.08,-0.021 -0.13,-0.1 -0.112,-0.182 0.017,-0.081 0.096,-0.134 0.177,-0.119 1.743,0.299 3.506,0.596 5.278,0.89 0.445,-0.276 1.02,-0.632 1.031,-0.63 -0.101,-0.615 -0.317,-1.878 -0.6,-3.525 L -90.13,-9.239 c -0.08,-0.025 -0.125,-0.107 -0.104,-0.187 0.021,-0.079 0.102,-0.13 0.183,-0.111 l 10.233,2.221 c -0.181,-1.048 -0.381,-2.201 -0.591,-3.411 l -5.743,-1.828 c -0.079,-0.025 -0.123,-0.106 -0.102,-0.186 0.02,-0.079 0.099,-0.129 0.18,-0.113 l 5.486,1.098 c -0.257,-1.482 -0.526,-3.024 -0.791,-4.543 l -9.26,-3.537 c -0.077,-0.03 -0.117,-0.115 -0.09,-0.193 0.026,-0.079 0.109,-0.123 0.19,-0.1 l 8.938,2.558 c -0.306,-1.751 -0.601,-3.435 -0.862,-4.922 l -7.037,-3.249 c -0.075,-0.034 -0.109,-0.12 -0.079,-0.198 0.029,-0.075 0.113,-0.115 0.191,-0.09 l 6.679,2.142 c -0.432,-2.453 -0.725,-4.095 -0.736,-4.099 -0.473,-0.487 -0.951,-0.976 -1.427,-1.465 -0.006,-0.002 -0.012,0 -0.017,-0.003 l -7.504,-3.95 c -0.073,-0.037 -0.104,-0.125 -0.07,-0.2 0.033,-0.074 0.119,-0.11 0.196,-0.081 l 5.819,2.19 c -0.309,-1.539 -0.621,-3.08 -0.935,-4.622 -2.255,-1.209 -4.521,-2.42 -6.802,-3.632 -0.073,-0.039 -0.103,-0.129 -0.066,-0.205 0.036,-0.074 0.125,-0.106 0.201,-0.073 l 18.062,8.052 c 0.026,0.012 0.046,0.033 0.062,0.055 1.418,0.64 2.662,1.206 3.507,1.595 0.69,0.326 1.397,0.732 2.068,1.239 2.07,1.353 3.454,2.65 4.189,3.419 1.467,1.334 2.722,3.239 3.104,5.696 0.524,3.468 1.027,6.873 1.513,10.222 1.343,0.386 2.687,0.77 4.042,1.153 -0.233,-1.67 -0.46,-3.294 -0.66,-4.719 l -3.211,-1.191 c -0.1,-0.037 -0.153,-0.146 -0.12,-0.248 0.032,-0.101 0.139,-0.158 0.242,-0.13 l 2.984,0.819 c -0.344,-2.457 -0.584,-4.157 -0.584,-4.157 l -1.323,-1.422 c 0,0 -0.191,-1.319 -0.378,-2.619 -0.092,-0.537 -0.184,-1.076 -0.276,-1.614 l -3.684,-1.779 c -0.075,-0.036 -0.109,-0.125 -0.075,-0.202 0.033,-0.075 0.121,-0.112 0.198,-0.082 l 12.748,4.992 c 0.012,0.004 0.022,0.014 0.033,0.021 3.329,1.237 7.564,2.772 11.4,4.027 4.353,-2.131 9.247,-2.857 14.121,-2.038 6.166,1.035 11.56,4.409 15.189,9.502 0.314,0.442 0.606,0.895 0.888,1.353 1.369,0.4 2.548,0.733 3.478,0.986 -10.32,-1.686 -17.416,-4.139 -29.07,-8.626 l -0.388,-0.149 c 0,0 1.099,2.23 1.139,2.31 -4.705,-1.295 -11.359,-3.574 -16.179,-5.284 l -0.25,-0.089 0.347,2.642 0.098,0.032 c 10.061,3.271 18.419,5.293 18.454,5.298 l 0.288,0.038 c 0,0 -0.736,-1.635 -0.865,-1.921 0.078,0.026 0.145,0.048 0.145,0.048 3.531,1.169 16.26,5.005 28.096,6.768 0.01,0.002 0.018,0.004 0.027,0.006 0.148,0.035 0.314,0.074 0.49,0.118 0.011,0.002 0.021,0.005 0.032,0.008 -0.001,0 -0.002,-0.001 -0.004,-0.001 0.013,0.003 0.025,0.006 0.039,0.009 0.061,0.016 0.122,0.032 0.185,0.048 0.025,0.006 0.049,0.013 0.074,0.019 0.059,0.016 0.118,0.032 0.177,0.048 0.028,0.008 0.056,0.016 0.084,0.024 0.056,0.015 0.111,0.031 0.166,0.048 0.027,0.008 0.053,0.015 0.079,0.023 0.078,0.024 0.154,0.048 0.224,0.071 0.016,0.008 0.031,0.015 0.047,0.021 0.854,0.358 1.633,0.833 2.169,1.374 0.621,0.518 0.948,1.183 0.944,1.97 C 0.015,-2.24 0,0.005 0,0 m -12.264,-8.753 c -0.472,-1.106 -0.929,-1.776 -1.159,-2.076 -3.355,-3.721 -7.831,-6.191 -12.846,-7.033 -2.293,-0.385 -4.59,-0.408 -6.828,-0.093 4.339,1.433 7.225,3.216 9.612,5.616 4.093,1.388 8.003,2.618 11.221,3.586 m -13.18,-4.258 c -2.155,-1.792 -4.785,-3.188 -8.462,-4.345 -0.142,-0.045 -0.527,-0.18 -0.868,-0.297 -0.6,0.132 -1.192,0.291 -1.779,0.474 3.529,1.452 7.359,2.867 11.109,4.168 m -11.38,-2.83 c -0.186,-0.354 -0.372,-0.71 -0.559,-1.064 -0.431,0.153 -0.859,0.32 -1.282,0.501 0.633,0.199 1.249,0.388 1.841,0.563 m 25.36,32.475 -0.74,0.304 c -0.044,0.015 -1.92,0.671 -2.681,2.727 -0.225,0.607 -0.361,1.031 -0.443,1.325 1.488,-1.288 2.781,-2.753 3.864,-4.356 m -36.671,0.459 c 2.114,2.967 4.86,5.319 8.016,6.927 1.93,0.579 7.807,1.306 11.664,0.235 l 0.026,-0.007 0.026,-0.004 c 0.059,-0.008 5.961,-0.899 8.925,-4.585 0.448,-0.557 0.925,-1.325 0.649,-1.821 -0.415,-0.746 -2.391,-0.922 -4.13,-0.711 -8.906,1.086 -19.082,-0.601 -19.184,-0.619 -3.21,-0.574 -6.095,-1.487 -7.58,-2.001 0.468,0.889 0.995,1.754 1.588,2.586 m -2.111,-3.642 c 0.899,0.332 4.323,1.549 8.244,2.25 0.097,0.017 10.159,1.684 18.945,0.612 0.675,-0.081 4.089,-0.414 4.944,1.126 0.124,0.223 0.186,0.467 0.186,0.727 0,0.58 -0.305,1.252 -0.912,2.007 -3.149,3.915 -9.11,4.833 -9.436,4.88 -2.469,0.677 -5.721,0.652 -8.326,0.393 0.957,0.296 1.938,0.535 2.943,0.703 5.88,0.988 11.789,-0.374 16.644,-3.832 0.256,-0.183 0.504,-0.372 0.752,-0.563 -0.051,-0.244 0.025,-0.797 0.608,-2.374 0.901,-2.436 3.074,-3.181 3.166,-3.211 -0.019,0.006 1.224,-0.504 1.776,-0.73 0.848,-1.446 1.533,-2.99 2.038,-4.611 -0.202,-0.336 -0.311,-0.736 -0.315,-1.198 0,10e-4 0,-0.031 -0.002,-0.085 -0.575,0.411 -1.348,0.635 -2.193,0.611 -1.402,-0.041 -2.805,-0.099 -4.209,-0.166 l 0,0.002 c -0.054,-0.003 -0.108,-0.007 -0.162,-0.01 -0.213,-0.01 -0.425,-0.018 -0.638,-0.029 0,-0.002 0,-0.004 0,-0.007 -2.306,-0.118 -4.617,-0.267 -6.931,-0.458 -0.018,-0.306 -0.038,-0.616 -0.056,-0.923 -0.036,0.034 -0.071,0.069 -0.109,0.102 -0.565,0.471 -1.353,0.693 -2.225,0.613 -1.296,-0.119 -2.594,-0.254 -3.894,-0.395 0,10e-4 0,0.002 0,0.003 -0.146,-0.015 -0.293,-0.035 -0.44,-0.051 -0.23,-0.026 -0.459,-0.048 -0.689,-0.074 0,-0.002 -0.001,-0.004 -0.001,-0.006 -2.552,-0.282 -5.111,-0.603 -7.678,-0.965 10e-4,0.002 10e-4,0.004 10e-4,0.006 -0.135,-0.019 -0.27,-0.041 -0.405,-0.06 -0.127,-0.019 -0.255,-0.033 -0.382,-0.052 0,-0.002 -10e-4,-0.003 -10e-4,-0.005 -2.277,-0.328 -4.561,-0.684 -6.852,-1.073 0.133,1.226 0.267,2.454 0.397,3.669 -1.62,-0.252 -3.404,-0.498 -5.172,-0.762 -0.011,0 -0.021,0.007 -0.032,0.004 l -0.549,-0.091 c -0.154,-0.024 -0.305,-0.048 -0.457,-0.072 0.337,1.403 0.812,2.774 1.422,4.095 m -13.758,-33.4 0,-10e-4 c -0.652,-4.139 -3.815,-5.848 -4.771,-6.274 l -3.403,-1.466 c -3.608,-1.546 -8.548,-3.665 -10.88,-4.802 -0.09,-0.044 -0.197,-0.033 -0.277,0.028 -0.066,0.05 -0.104,0.128 -0.104,0.21 0,0.017 10e-4,0.033 0.005,0.05 0.149,0.781 0.519,2.195 0.672,2.767 l 0.007,0.031 c 0.013,0.048 0.04,0.094 0.076,0.128 0,0 3.621,3.394 3.741,3.507 0.233,1.244 3.201,18.207 4.774,27.785 -0.218,0.128 -0.471,0.254 -0.729,0.376 -0.338,0.158 -0.688,0.323 -0.962,0.509 -0.074,0.05 -0.117,0.133 -0.117,0.219 0,0.015 10e-4,0.03 0.004,0.044 l 0.418,2.52 c 0.018,0.113 0.109,0.202 0.221,0.219 l 2.422,0.378 c 2.972,0.467 7.043,1.108 9.118,1.326 0.749,0.076 1.795,0.011 2.525,-0.737 0.655,-0.67 0.895,-1.739 0.712,-3.18 -1.095,-7.869 -2.256,-15.821 -3.452,-23.637 m 4.733,12.668 -1.938,-0.589 c -0.046,-0.011 -0.096,0.001 -0.132,0.033 -0.035,0.031 -0.053,0.079 -0.048,0.127 l 0.143,0.932 0.118,0.884 c 0.007,0.058 0.049,0.103 0.105,0.117 l 1.804,0.475 2.102,0.549 c 0.048,0.013 0.099,-10e-4 0.135,-0.034 0.036,-0.034 0.051,-0.084 0.042,-0.133 l -0.28,-1.71 c -0.011,-0.055 -0.049,-0.098 -0.103,-0.11 l -1.948,-0.541 z m 10.359,4.925 -0.163,-1.444 c -0.006,-0.06 -0.049,-0.109 -0.107,-0.124 0,0 -2.091,-0.547 -2.263,-0.591 -0.461,-3.68 -1.555,-11.138 -1.72,-12.253 0.232,-0.023 1.083,-0.103 1.083,-0.103 0.039,-0.002 0.075,-0.023 0.099,-0.054 0.02,-0.025 0.03,-0.057 0.03,-0.089 0,-0.007 0,-0.015 -10e-4,-0.022 l -0.345,-2.278 c -0.009,-0.053 -0.046,-0.101 -0.097,-0.118 l -5.511,-1.883 c -0.048,-0.016 -0.101,-0.008 -0.14,0.024 -0.032,0.027 -0.052,0.067 -0.052,0.109 0,0.007 10e-4,0.014 0.002,0.021 l 0.376,2.33 c 0.005,0.032 0.021,0.06 0.046,0.083 0,0 1.099,0.974 1.173,1.039 0.135,0.967 2.269,16.221 3.2,23.748 -0.164,0.067 -0.89,0.36 -0.89,0.36 -0.054,0.021 -0.089,0.075 -0.089,0.133 0,0.005 0,0.011 10e-4,0.017 l 0.175,1.468 c 0.007,0.062 0.054,0.112 0.115,0.124 1.433,0.278 3.061,0.516 4.634,0.746 l 2.899,0.44 c 0.044,0.007 0.09,-0.006 0.122,-0.037 0.032,-0.032 0.049,-0.075 0.044,-0.119 l -0.954,-8.583 c -0.007,-0.06 -0.052,-0.11 -0.111,-0.124 L -49.31,0.016 c -0.046,-0.01 -0.094,0.002 -0.129,0.033 -0.03,0.027 -0.047,0.066 -0.047,0.107 0,0.006 0,0.011 0,0.017 0,0 0.784,6.731 0.827,7.097 -0.281,-0.052 -1.25,-0.233 -1.409,-0.263 -0.024,-0.201 -1.12,-9.355 -1.167,-9.749 0.339,0.085 2.146,0.541 2.146,0.541 0.046,0.012 0.094,0 0.129,-0.031 0.032,-0.028 0.049,-0.067 0.049,-0.108 0,-0.005 0,-0.01 -10e-4,-0.016 m 7.566,-9.783 c -0.007,-0.056 -0.048,-0.105 -0.103,-0.12 l -6.232,-1.834 c -0.047,-0.014 -0.098,-0.004 -0.135,0.028 -0.032,0.027 -0.051,0.068 -0.051,0.109 0,0.006 0,0.012 10e-4,0.018 l 0.145,1.119 c 0.007,0.056 0.047,0.103 0.101,0.119 0,0 0.904,0.268 0.909,0.269 0.673,5.089 1.341,10.378 2.161,17.097 -0.24,-0.038 -0.746,-0.118 -0.746,-0.118 -0.045,-0.007 -0.089,0.007 -0.122,0.037 -0.032,0.032 -0.048,0.077 -0.043,0.122 l 0.127,1.066 c 0.007,0.064 0.055,0.115 0.118,0.125 1.961,0.342 3.943,0.666 5.889,0.961 0.044,0.006 0.089,-0.007 0.121,-0.038 0.032,-0.031 0.048,-0.075 0.043,-0.119 L -39.867,0.43 C -39.873,0.369 -39.92,0.318 -39.981,0.306 l -1.632,-0.329 c -0.045,-0.009 -0.093,0.004 -0.126,0.035 -0.03,0.027 -0.047,0.066 -0.047,0.106 0,0.005 0.001,0.011 0.001,0.016 0,0 0.558,4.776 0.6,5.129 -0.26,-0.045 -0.982,-0.166 -1.137,-0.192 -0.024,-0.202 -0.793,-6.645 -0.838,-7.02 0.321,0.07 1.762,0.388 1.762,0.388 0.045,0.011 0.092,-0.002 0.126,-0.034 0.031,-0.026 0.048,-0.066 0.048,-0.106 0,-0.006 0,-0.01 -0.001,-0.016 l -0.118,-1.053 c -0.007,-0.061 -0.052,-0.111 -0.112,-0.124 0,0 -1.691,-0.385 -1.866,-0.425 -0.024,-0.191 -1.019,-8.032 -1.07,-8.439 0.289,0.083 1.067,0.305 1.205,0.344 0.023,0.183 0.761,6.051 0.761,6.051 0.007,0.059 0.049,0.107 0.108,0.122 l 1.634,0.393 c 0.046,0.012 0.094,-0.001 0.129,-0.032 0.035,-0.031 0.053,-0.077 0.047,-0.124 l -0.839,-7.135 z m 9.416,11.806 c -0.236,-3.067 -0.478,-6.238 -0.814,-9.45 -0.006,-0.059 -0.049,-0.108 -0.107,-0.124 l -2.584,-0.687 c -0.042,-0.011 -0.088,-0.002 -0.123,0.025 -0.035,0.025 -0.056,0.066 -0.058,0.11 -0.076,2.58 -0.224,5.173 -0.366,7.679 -0.1,1.748 -0.194,3.537 -0.272,5.326 -0.435,-4.107 -0.891,-8.269 -1.363,-12.423 0.26,0.069 0.811,0.215 0.811,0.215 0.046,0.013 0.094,0.001 0.13,-0.029 0.036,-0.031 0.055,-0.076 0.05,-0.125 l -0.11,-1.034 c -0.006,-0.059 -0.048,-0.109 -0.105,-0.124 l -3.346,-0.927 c -0.047,-0.013 -0.096,-10e-4 -0.132,0.029 -0.032,0.027 -0.051,0.067 -0.051,0.109 0,0.005 10e-4,0.011 10e-4,0.016 l 0.119,1.061 c 0.007,0.058 0.048,0.107 0.105,0.123 0,0 0.768,0.209 0.896,0.244 0.626,5.355 1.235,10.796 1.814,16.181 -0.239,-0.037 -0.758,-0.117 -0.758,-0.117 -0.044,-0.007 -0.088,0.007 -0.12,0.038 -0.033,0.031 -0.049,0.074 -0.044,0.119 l 0.103,1.009 c 0.006,0.065 0.056,0.119 0.121,0.127 l 3.731,0.524 c 0.039,0.006 0.08,-0.006 0.112,-0.032 0.03,-0.025 0.048,-0.064 0.05,-0.105 0,0 0.269,-7.407 0.372,-10.282 0.28,2.742 0.927,9.084 0.956,9.371 -0.238,-0.032 -0.782,-0.107 -0.782,-0.107 -0.044,-0.005 -0.087,0.008 -0.119,0.039 -0.032,0.03 -0.048,0.073 -0.044,0.117 l 0.089,0.97 c 0.007,0.067 0.058,0.121 0.125,0.13 l 3.162,0.393 c 0.044,0.005 0.087,-0.009 0.117,-0.04 0.029,-0.027 0.044,-0.064 0.044,-0.102 0,-0.004 0,-0.009 0,-0.013 l -0.082,-0.945 c -0.006,-0.067 -0.058,-0.122 -0.125,-0.131 0,0 -0.811,-0.103 -0.821,-0.104 -0.221,-2.334 -0.405,-4.733 -0.582,-7.054 m 5.725,-9.334 c -1.52,-0.382 -4.596,-1.248 -4.627,-1.257 -0.054,-0.015 -0.11,0.002 -0.147,0.043 -0.023,0.027 -0.035,0.061 -0.035,0.095 0,0.02 0.003,0.039 0.012,0.057 0,0 0.364,0.832 0.381,0.87 0.033,0.316 1.16,11.18 1.541,16.714 -0.203,-0.013 -0.609,-0.039 -0.609,-0.039 -0.042,-0.002 -0.083,0.013 -0.112,0.043 -0.029,0.03 -0.044,0.07 -0.041,0.111 l 0.073,0.997 c 0.005,0.069 0.057,0.124 0.126,0.132 0,0 4.413,0.477 4.414,0.477 0.372,0.037 1.065,0.034 1.516,-0.398 0.307,-0.294 0.447,-0.728 0.417,-1.293 0,0 -0.998,-13.884 -0.998,-13.884 -0.126,-1.539 -1.051,-2.448 -1.911,-2.668 m 9.66,13.424 C -16.549,3.688 -16.603,3.63 -16.673,3.622 l -1.601,-0.194 c -0.042,-0.005 -0.085,0.009 -0.115,0.038 -0.03,0.028 -0.046,0.066 -0.046,0.105 0,0.003 0.237,4.119 0.255,4.424 -0.239,-0.019 -1.008,-0.081 -1.119,-0.09 -0.014,-0.232 -0.342,-5.712 -0.362,-6.038 0.288,0.042 1.743,0.249 1.743,0.249 0.042,0.006 0.086,-0.008 0.117,-0.036 0.03,-0.027 0.046,-0.066 0.046,-0.106 0,-0.003 -0.047,-0.92 -0.047,-0.92 -0.003,-0.068 -0.055,-0.124 -0.123,-0.134 0,0 -1.605,-0.243 -1.806,-0.273 -0.015,-0.218 -0.469,-6.966 -0.493,-7.324 0.262,0.058 1.017,0.225 1.174,0.26 0.014,0.205 0.347,5.237 0.347,5.237 0.004,0.067 0.053,0.121 0.12,0.132 l 1.597,0.268 c 0.042,0.007 0.086,-0.006 0.119,-0.035 0.032,-0.03 0.049,-0.072 0.047,-0.115 l -0.354,-6.188 c -0.004,-0.065 -0.049,-0.118 -0.113,-0.132 -2.001,-0.444 -4.042,-0.917 -6.062,-1.406 -0.045,-0.012 -0.092,0 -0.128,0.029 -0.032,0.027 -0.05,0.067 -0.05,0.11 0,0.002 0.068,0.995 0.068,0.995 0.004,0.063 0.048,0.115 0.11,0.129 0,0 0.7,0.163 0.866,0.202 0.205,2.882 0.342,5.71 0.473,8.446 0,0 0.323,6.084 0.338,6.366 -0.148,0.005 -0.587,0.021 -0.587,0.021 -0.038,0.002 -0.074,0.019 -0.101,0.048 -0.024,0.026 -0.037,0.06 -0.037,0.096 0,0.003 0.055,0.936 0.055,0.936 0.004,0.071 0.06,0.129 0.131,0.135 1.963,0.168 3.912,0.312 5.795,0.427 0.042,0.002 0.081,-0.012 0.111,-0.041 0.029,-0.029 0.044,-0.069 0.042,-0.109 l -0.282,-5.377 z m 8.075,-9.074 c -0.002,-0.067 -0.051,-0.124 -0.116,-0.137 l -0.96,-0.183 c -0.501,-0.099 -1.192,-0.136 -1.641,0.246 -0.289,0.246 -0.426,0.622 -0.408,1.122 l 0.114,2.545 c 0,0 0.138,3.244 0.138,3.248 0.004,0.059 -10e-4,0.139 -0.051,0.187 -0.054,0.052 -0.158,0.069 -0.3,0.052 0,0 -0.751,-0.093 -0.926,-0.116 -0.012,-0.226 -0.334,-6.453 -0.352,-6.796 0.242,0.048 0.808,0.159 0.808,0.159 0.043,0.009 0.088,-0.003 0.121,-0.032 0.034,-0.029 0.052,-0.071 0.05,-0.115 l -0.038,-0.885 c -0.003,-0.066 -0.051,-0.121 -0.115,-0.134 l -3.911,-0.824 c -0.044,-0.01 -0.09,0.001 -0.123,0.031 -0.033,0.028 -0.051,0.067 -0.051,0.109 0,0.002 0.047,0.928 0.047,0.928 0.004,0.065 0.05,0.119 0.114,0.133 0,0 0.684,0.142 0.855,0.178 0.151,2.7 0.242,5.337 0.33,7.886 0,0 0.219,5.595 0.23,5.858 -0.142,0.013 -0.65,0.061 -0.65,0.061 -0.073,0.007 -0.13,0.069 -0.13,0.142 0,0.002 0.037,0.87 0.037,0.87 0.004,0.074 0.061,0.133 0.136,0.137 0,0 4.399,0.204 4.4,0.204 0.396,0.014 1.127,-0.032 1.583,-0.48 C -9.011,8.812 -8.878,8.451 -8.887,8 l -0.173,-4.076 0,0.004 c -0.011,-0.66 -0.402,-1.143 -1.132,-1.429 0.301,-0.057 0.545,-0.161 0.714,-0.322 0.208,-0.199 0.315,-0.471 0.315,-0.808 0,-0.025 -0.002,-0.05 -0.002,-0.075 l -0.1,-2.729 c 0,0 -0.107,-2.765 -0.107,-2.766 0,-0.015 -10e-4,-0.028 -10e-4,-0.04 0,-0.072 0.012,-0.118 0.037,-0.139 0.02,-0.018 0.091,-0.056 0.312,-0.015 l 0.415,0.077 c 0.042,0.008 0.087,-0.005 0.119,-0.033 0.034,-0.028 0.051,-0.07 0.05,-0.113 l -0.03,-0.853 z m 4.843,0.521 c -0.861,-0.164 -1.569,-0.078 -1.95,0.222 L -5.676,-4.946 C -5.69,-4.999 -5.734,-5.039 -5.787,-5.05 L -6.88,-5.268 c -0.042,-0.009 -0.086,0.003 -0.12,0.03 -0.033,0.027 -0.052,0.068 -0.052,0.112 l 0.061,5.913 c 10e-4,0.071 0.054,0.132 0.125,0.142 l 1.788,0.238 c 0.041,0.006 0.083,-0.007 0.114,-0.035 0.031,-0.027 0.049,-0.067 0.049,-0.109 l -0.045,-3.97 c -0.001,-0.183 0.034,-0.432 0.203,-0.573 0.144,-0.121 0.369,-0.154 0.669,-0.098 0.68,0.123 0.988,0.423 1,0.97 0,0 -0.006,2.865 -0.006,2.868 0.02,0.967 -0.128,1.448 -0.635,2.059 0,0 -2.137,2.728 -2.137,2.728 -0.66,0.874 -1.068,1.722 -1.063,3.249 0,0 0.004,1.781 0.004,1.781 0.003,0.567 0.183,1.03 0.536,1.378 0.465,0.458 1.208,0.684 2.207,0.673 0.986,-0.011 1.456,-0.285 1.682,-0.509 0.045,0.13 0.09,0.261 0.09,0.261 0.021,0.059 0.075,0.098 0.138,0.097 l 1.023,-0.019 c 0.078,-0.002 0.141,-0.065 0.142,-0.143 L -1.06,6.595 C -1.06,6.518 -1.12,6.454 -1.197,6.45 L -2.931,6.359 c -0.039,-0.002 -0.078,0.013 -0.107,0.039 -0.028,0.027 -0.045,0.065 -0.045,0.104 0,0 -0.03,3.813 -0.03,3.814 -0.002,0.28 -0.119,0.614 -0.674,0.616 l -0.002,0 c -0.507,0 -0.762,-0.223 -0.776,-0.676 l 0.006,-2.233 c 0.01,-0.924 0.175,-1.466 0.629,-2.065 0,0 2.164,-2.661 2.166,-2.662 0.858,-1.047 1.082,-1.7 1.086,-3.177 l 0.012,-2.264 c 0.003,-0.949 -0.508,-2.18 -2.961,-2.651"
               id="path14602"
               style="fill:#5c268a;fill-opacity:1;fill-rule:nonzero;stroke:none" />
          </g>
          <g
             transform="translate(60.4099,295.5494)"
             id="g14604">
            <path
               d="m 0,0 c -0.019,-0.148 -0.189,-1.275 -0.22,-1.511 0.331,0.084 3.437,1.016 3.593,1.056 0.028,0.14 0.154,1.073 0.217,1.396 C 3.238,0.849 0.17,0.044 0,0"
               id="path14606"
               style="fill:#ffffff;fill-opacity:1;fill-rule:nonzero;stroke:none" />
          </g>
          <g
             transform="translate(64.0467,294.9491)"
             id="g14608">
            <path
               d="M 0,0 0.28,1.71 C 0.289,1.759 0.274,1.809 0.238,1.843 0.202,1.877 0.151,1.89 0.104,1.878 L -1.999,1.329 -3.802,0.854 C -3.859,0.839 -3.901,0.794 -3.908,0.737 L -4.025,-0.148 -4.168,-1.08 c -0.006,-0.047 0.012,-0.095 0.048,-0.127 0.035,-0.031 0.086,-0.044 0.132,-0.032 l 1.937,0.588 1.948,0.541 C -0.049,-0.098 -0.01,-0.055 0,0 m -3.857,-0.911 c 0.031,0.236 0.201,1.364 0.22,1.511 0.17,0.045 3.238,0.85 3.591,0.942 C -0.11,1.219 -0.236,0.286 -0.264,0.145 -0.42,0.106 -3.526,-0.827 -3.857,-0.911"
               id="path14610"
               style="fill:#fbbc09;fill-opacity:1;fill-rule:nonzero;stroke:none" />
          </g>
          <g
             transform="translate(69.7701,298.5397)"
             id="g14612">
            <path
               d="m 0,0 c -0.036,0.032 -0.054,0.078 -0.048,0.125 l 1.204,10.06 c 0.007,0.062 0.054,0.113 0.116,0.124 l 1.705,0.32 c 0.045,0.008 0.091,-0.005 0.124,-0.037 0.029,-0.027 0.046,-0.065 0.046,-0.105 0,-0.005 -10e-4,-0.011 -0.002,-0.016 0,0 -0.78,-6.708 -0.825,-7.09 0.303,0.07 1.498,0.343 1.657,0.38 0.022,0.194 0.884,7.944 0.923,8.295 -0.327,-0.05 -2.718,-0.414 -2.718,-0.414 -1.533,-0.223 -3.115,-0.455 -4.518,-0.724 -0.017,-0.146 -0.129,-1.09 -0.149,-1.254 0.164,-0.067 0.89,-0.361 0.89,-0.361 0.055,-0.022 0.09,-0.075 0.09,-0.133 0,-0.006 -0.001,-0.011 -0.002,-0.017 -0.95,-7.697 -3.199,-23.753 -3.221,-23.914 -0.005,-0.033 -0.021,-0.065 -0.047,-0.088 0,0 -1.102,-0.976 -1.174,-1.04 -0.014,-0.086 -0.269,-1.671 -0.329,-2.038 0.412,0.141 5.05,1.725 5.204,1.779 0.023,0.154 0.272,1.793 0.31,2.046 -0.233,0.021 -1.081,0.101 -1.081,0.101 -0.039,0.004 -0.075,0.023 -0.1,0.055 -0.02,0.025 -0.031,0.056 -0.031,0.088 0,0.007 10e-4,0.014 0.002,0.021 0.013,0.085 1.265,8.573 1.753,12.493 0.007,0.058 0.048,0.107 0.105,0.121 0,0 2.088,0.546 2.264,0.592 C 2.163,-0.496 2.249,0.271 2.277,0.51 1.941,0.425 0.13,-0.032 0.13,-0.032 0.084,-0.043 0.036,-0.031 0,0"
               id="path14614"
               style="fill:#ffffff;fill-opacity:1;fill-rule:nonzero;stroke:none" />
          </g>
          <g
             transform="translate(72.1783,299.3787)"
             id="g14616">
            <path
               d="m 0,0 c 0,0 -1.808,-0.456 -2.147,-0.541 0.048,0.394 1.143,9.548 1.167,9.749 0.16,0.03 1.129,0.211 1.41,0.263 C 0.387,9.105 -0.397,2.374 -0.397,2.374 -0.398,2.368 -0.398,2.362 -0.398,2.357 c 0,-0.041 0.017,-0.08 0.048,-0.107 0.035,-0.032 0.083,-0.043 0.128,-0.033 l 1.955,0.448 c 0.058,0.014 0.104,0.064 0.111,0.124 l 0.954,8.583 C 2.803,11.416 2.786,11.459 2.754,11.49 2.722,11.522 2.676,11.535 2.632,11.528 L -0.267,11.087 C -1.841,10.858 -3.468,10.62 -4.901,10.342 -4.963,10.33 -5.009,10.28 -5.016,10.218 L -5.191,8.749 C -5.192,8.744 -5.193,8.738 -5.193,8.733 c 0,-0.058 0.036,-0.112 0.09,-0.133 0,0 0.725,-0.294 0.89,-0.36 -0.931,-7.528 -3.065,-22.781 -3.201,-23.748 -0.073,-0.066 -1.172,-1.039 -1.172,-1.039 -0.025,-0.023 -0.042,-0.051 -0.046,-0.084 l -0.376,-2.329 c -0.001,-0.007 -0.002,-0.015 -0.002,-0.021 0,-0.042 0.019,-0.082 0.052,-0.109 0.039,-0.033 0.092,-0.041 0.14,-0.025 l 5.511,1.883 c 0.05,0.018 0.088,0.066 0.096,0.119 l 0.346,2.278 c 0.001,0.007 0.001,0.015 0.001,0.021 0,0.033 -0.01,0.064 -0.03,0.089 -0.024,0.031 -0.061,0.052 -0.1,0.055 0,0 -0.85,0.08 -1.082,0.102 0.165,1.116 1.258,8.574 1.719,12.253 0.173,0.045 2.264,0.592 2.264,0.592 0.058,0.015 0.101,0.064 0.107,0.123 l 0.163,1.445 c 0.001,0.005 0.001,0.011 0.001,0.016 0,0.041 -0.017,0.08 -0.049,0.108 C 0.094,0 0.046,0.012 0,0 m -0.26,-1.47 c -0.177,-0.046 -2.264,-0.592 -2.264,-0.592 -0.057,-0.014 -0.098,-0.063 -0.105,-0.121 -0.488,-3.92 -1.74,-12.408 -1.753,-12.493 -0.002,-0.007 -0.002,-0.014 -0.002,-0.021 0,-0.032 0.011,-0.063 0.031,-0.088 0.025,-0.032 0.061,-0.051 0.1,-0.055 0,0 0.848,-0.08 1.081,-0.101 -0.038,-0.253 -0.287,-1.892 -0.31,-2.046 -0.154,-0.054 -4.793,-1.638 -5.204,-1.779 0.06,0.367 0.315,1.952 0.328,2.038 0.072,0.064 1.175,1.04 1.175,1.04 0.025,0.023 0.042,0.054 0.047,0.088 0.022,0.161 2.271,16.217 3.221,23.914 10e-4,0.005 0.002,0.011 0.002,0.017 0,0.058 -0.036,0.111 -0.09,0.133 0,0 -0.726,0.294 -0.89,0.361 0.02,0.164 0.132,1.108 0.149,1.254 1.403,0.269 2.984,0.501 4.518,0.724 0,0 2.391,0.364 2.718,0.414 C 2.453,10.866 1.591,3.116 1.569,2.922 1.409,2.885 0.215,2.612 -0.088,2.542 c 0.044,0.382 0.825,7.09 0.825,7.09 0.001,0.005 0.002,0.011 0.002,0.016 0,0.04 -0.017,0.078 -0.046,0.105 C 0.659,9.785 0.613,9.798 0.569,9.79 L -1.136,9.47 C -1.199,9.459 -1.245,9.408 -1.253,9.346 l -1.203,-10.06 c -0.006,-0.047 0.012,-0.093 0.048,-0.125 0.035,-0.031 0.083,-0.043 0.129,-0.032 0,0 1.812,0.457 2.147,0.542 -0.027,-0.239 -0.113,-1.006 -0.128,-1.141"
               id="path14618"
               style="fill:#fbbc09;fill-opacity:1;fill-rule:nonzero;stroke:none" />
          </g>
          <g
             transform="translate(39.0332,272.1115)"
             id="g14620">
            <path
               d="m 0,0 c 0,-0.003 -0.001,-0.006 -0.001,-0.009 0,0.003 0.002,0.003 0.002,0.006 C 0.001,-0.002 0,-0.002 0,0"
               id="path14622"
               style="fill:#ffffff;fill-opacity:1;fill-rule:nonzero;stroke:none" />
          </g>
          <g
             transform="translate(57.5332,308.6566)"
             id="g14624">
            <path
               d="m 0,0 c -2.062,-0.216 -6.124,-0.855 -9.091,-1.322 0,0 -1.911,-0.298 -2.233,-0.348 -0.05,-0.299 -0.31,-1.865 -0.357,-2.151 0.222,-0.133 0.483,-0.263 0.747,-0.387 0.331,-0.155 0.673,-0.317 0.943,-0.497 0.074,-0.049 0.118,-0.132 0.118,-0.22 0,-0.014 -0.001,-0.028 -0.004,-0.043 -0.92,-5.611 -2.286,-13.539 -3.017,-17.764 l -1.274,-7.311 c -0.465,-2.647 -0.536,-3.046 -0.627,-3.144 0.005,0.004 0.012,0.006 0.016,0.01 0,0 -3.64,-3.412 -3.748,-3.513 -0.125,-0.469 -0.374,-1.422 -0.542,-2.171 2.485,1.179 7.025,3.127 10.416,4.581 l 3.398,1.464 c 0.892,0.397 3.851,1.996 4.461,5.871 1.195,7.813 2.356,15.763 3.45,23.626 0.037,0.291 0.056,0.564 0.056,0.818 0,0.854 -0.208,1.499 -0.621,1.922 C 1.508,0.017 0.631,0.065 0,0 m -1.084,-3.858 c -1.253,-8.483 -2.391,-16.002 -3.87,-25.126 -0.159,-0.953 -0.661,-1.598 -1.537,-1.973 l -1.234,-0.513 -1.957,-0.82 c -0.089,-0.036 -0.194,-0.023 -0.269,0.037 -0.065,0.051 -0.102,0.128 -0.102,0.208 0,0.014 0.001,0.03 0.003,0.044 1.102,6.384 1.953,12.258 2.776,17.938 0.513,3.542 1.044,7.206 1.621,10.886 0.018,0.114 0.109,0.204 0.223,0.222 l 0.788,0.119 2.411,0.361 c 0.409,0.057 0.72,-0.017 0.923,-0.22 0.304,-0.303 0.273,-0.808 0.224,-1.163"
               id="path14626"
               style="fill:#ffffff;fill-opacity:1;fill-rule:nonzero;stroke:none" />
          </g>
          <g
             transform="translate(60.0033,308.4478)"
             id="g14628">
            <path
               d="M 0,0 C -0.73,0.748 -1.776,0.813 -2.525,0.736 -4.6,0.519 -8.671,-0.122 -11.644,-0.589 l -2.421,-0.378 c -0.113,-0.018 -0.203,-0.106 -0.222,-0.219 l -0.417,-2.52 c -0.003,-0.014 -0.004,-0.03 -0.004,-0.044 0,-0.087 0.043,-0.169 0.116,-0.22 0.275,-0.186 0.625,-0.35 0.963,-0.509 0.258,-0.122 0.511,-0.247 0.729,-0.375 -1.573,-9.578 -4.541,-26.541 -4.774,-27.785 -0.12,-0.113 -3.741,-3.507 -3.741,-3.507 -0.036,-0.035 -0.063,-0.08 -0.076,-0.129 l -0.008,-0.031 c -0.152,-0.571 -0.522,-1.986 -0.672,-2.766 -0.003,-0.018 -0.004,-0.034 -0.004,-0.05 0,-0.082 0.037,-0.16 0.104,-0.21 0.08,-0.062 0.187,-0.072 0.277,-0.028 2.332,1.137 7.272,3.255 10.88,4.802 l 3.403,1.466 c 0.956,0.425 4.119,2.135 4.771,6.273 l 0,0.002 c 1.195,7.815 2.357,15.767 3.452,23.637 C 0.895,-1.74 0.655,-0.671 0,0 m -20.97,-36.336 c 0,-0.002 10e-4,-0.002 10e-4,-0.003 0,-0.003 -0.002,-0.004 -0.002,-0.006 0,0.003 0.001,0.005 0.001,0.009 M 0.186,-3.11 c -1.094,-7.863 -2.255,-15.813 -3.45,-23.627 -0.61,-3.874 -3.569,-5.473 -4.461,-5.87 l -3.398,-1.464 c -3.391,-1.454 -7.931,-3.402 -10.416,-4.581 0.168,0.749 0.417,1.702 0.542,2.171 0.108,0.101 3.748,3.513 3.748,3.513 -0.004,-0.004 -0.011,-0.007 -0.016,-0.01 0.091,0.098 0.162,0.496 0.627,3.144 l 1.274,7.311 c 0.731,4.225 2.097,12.152 3.017,17.764 0.003,0.014 0.003,0.029 0.003,0.043 0,0.088 -0.043,0.17 -0.117,0.22 -0.27,0.18 -0.612,0.341 -0.943,0.497 -0.264,0.124 -0.525,0.254 -0.747,0.386 0.047,0.287 0.307,1.853 0.357,2.152 0.322,0.05 2.233,0.348 2.233,0.348 2.967,0.466 7.029,1.106 9.091,1.322 0.631,0.065 1.508,0.016 2.091,-0.579 0.413,-0.424 0.621,-1.069 0.621,-1.923 0,-0.253 -0.019,-0.526 -0.056,-0.817"
               id="path14630"
               style="fill:#fbbc09;fill-opacity:1;fill-rule:nonzero;stroke:none" />
          </g>
          <g
             transform="translate(55.3026,306.1819)"
             id="g14632">
            <path
               d="M 0,0 -2.411,-0.362 -3.199,-0.481 C -3.314,-0.498 -3.404,-0.588 -3.422,-0.702 -4,-4.383 -4.53,-8.046 -5.044,-11.588 c -0.822,-5.681 -1.673,-11.554 -2.775,-17.938 -0.003,-0.014 -0.004,-0.03 -0.004,-0.044 0,-0.08 0.038,-0.157 0.102,-0.209 0.076,-0.059 0.181,-0.072 0.27,-0.036 l 1.957,0.82 1.234,0.513 c 0.875,0.375 1.378,1.02 1.537,1.972 1.479,9.125 2.617,16.643 3.869,25.127 0.049,0.355 0.08,0.859 -0.224,1.163 C 0.719,-0.017 0.409,0.057 0,0 m 0.621,-1.308 c -1.252,-8.478 -2.389,-15.996 -3.867,-25.116 -0.128,-0.769 -0.517,-1.268 -1.223,-1.57 l -1.228,-0.511 c 0,0 -0.986,-0.413 -1.52,-0.637 1.062,6.206 1.896,11.938 2.699,17.478 0.504,3.478 1.026,7.075 1.591,10.688 0.221,0.034 0.595,0.091 0.595,0.091 0,0 2.405,0.36 2.406,0.36 0.161,0.023 0.374,0.029 0.474,-0.07 0.066,-0.067 0.1,-0.194 0.1,-0.38 0,-0.095 -0.009,-0.207 -0.027,-0.333"
               id="path14634"
               style="fill:#fbbc09;fill-opacity:1;fill-rule:nonzero;stroke:none" />
          </g>
          <g
             transform="translate(76.4093,309.5773)"
             id="g14636">
            <path
               d="M 0,0 3.507,0.535 C 3.686,0.562 3.833,0.702 3.864,0.882 L 3.897,1.068 C 3.937,1.021 3.974,0.97 4.021,0.929 4.332,0.663 4.761,0.562 5.226,0.645 5.732,0.735 6.18,1.004 6.537,1.376 6.556,1.322 6.585,1.272 6.624,1.229 6.712,1.135 6.838,1.086 6.966,1.096 L 7.6,1.145 c 0.068,0.005 0.123,0.044 0.179,0.079 0.2,-0.053 0.419,-0.07 0.673,-0.052 0.52,0.035 0.969,0.241 1.262,0.581 0.225,0.26 0.346,0.588 0.346,0.931 0,0.038 -0.001,0.076 -0.006,0.114 -0.025,0.341 -0.145,0.6 -0.368,0.837 0.18,0.034 0.328,0.167 0.35,0.352 l 0.121,0.971 c 0.002,0.017 0.003,0.035 0.003,0.052 0,0.107 -0.041,0.211 -0.116,0.29 C 9.958,5.393 9.835,5.44 9.708,5.432 L 9.093,5.393 C 9.038,5.389 8.997,5.354 8.948,5.332 8.782,5.381 8.608,5.395 8.391,5.381 7.754,5.336 7.25,4.99 7.022,4.503 6.953,4.6 6.874,4.686 6.786,4.761 6.572,4.941 6.2,5.135 5.636,5.033 4.872,4.897 4.224,4.329 3.854,3.565 3.824,3.567 3.796,3.578 3.767,3.573 L 2.952,3.457 C 2.77,3.43 2.627,3.29 2.596,3.109 2.596,3.109 2.461,2.33 2.394,1.951 2.269,1.932 2.229,1.926 2.064,1.902 c 0.072,0.505 0.162,1.125 0.162,1.125 0,0 0.121,0.857 0.176,1.248 0.027,0.004 0.082,0.012 0.082,0.012 0.181,0.027 0.325,0.166 0.356,0.345 L 2.971,5.374 C 2.975,5.397 2.977,5.42 2.977,5.441 2.977,5.55 2.932,5.657 2.856,5.737 2.764,5.835 2.625,5.882 2.492,5.867 L 1.593,5.765 0.544,5.64 C 0.36,5.618 0.229,5.482 0.195,5.3 L 0.056,4.556 C 0.051,4.529 0.049,4.503 0.049,4.478 0.049,4.368 0.09,4.262 0.169,4.181 0.248,4.099 0.357,4.054 0.469,4.054 0.399,3.572 0.314,3.001 0.314,3.001 0.314,3.001 0.162,1.996 0.102,1.596 0.054,1.589 0.001,1.581 0.001,1.581 -0.174,1.551 -0.312,1.416 -0.345,1.241 L -0.485,0.498 C -0.49,0.471 -0.492,0.446 -0.492,0.42 -0.492,0.311 -0.449,0.205 -0.371,0.125 -0.276,0.026 -0.136,-0.021 0,0 M 7.099,2.666 C 7.289,2.682 7.477,2.695 7.667,2.709 7.709,2.531 7.791,2.399 7.913,2.316 8.029,2.228 8.187,2.19 8.383,2.203 8.731,2.228 8.936,2.373 8.921,2.596 8.886,3.074 8.04,2.815 7.576,3.274 7.425,3.423 7.327,3.624 7.314,3.846 7.276,4.442 7.738,4.91 8.419,4.957 8.703,4.977 8.869,4.94 9.098,4.794 9.106,4.854 9.113,4.912 9.122,4.97 9.327,4.984 9.531,4.996 9.736,5.009 9.697,4.686 9.657,4.363 9.616,4.04 9.419,4.028 9.224,4.016 9.027,4.003 8.982,4.125 8.921,4.225 8.832,4.275 8.742,4.332 8.626,4.359 8.475,4.348 8.207,4.33 8.041,4.192 8.053,3.998 8.078,3.617 8.905,3.829 9.354,3.383 9.538,3.199 9.613,3.016 9.633,2.766 9.681,2.135 9.18,1.646 8.423,1.594 8.073,1.57 7.823,1.621 7.592,1.758 7.584,1.694 7.575,1.63 7.567,1.567 7.356,1.551 7.145,1.535 6.934,1.519 6.989,1.901 7.045,2.284 7.099,2.666 M 5.711,4.616 C 6.572,4.77 6.923,4.044 6.92,3.394 6.916,2.291 6.184,1.248 5.151,1.063 4.416,0.931 3.928,1.391 3.947,2.203 3.975,3.383 4.746,4.444 5.711,4.616 M 0.072,1.162 C 0.206,1.184 0.34,1.205 0.475,1.227 0.681,2.319 0.775,3.468 0.973,4.557 0.806,4.531 0.64,4.505 0.473,4.478 0.518,4.726 0.566,4.974 0.612,5.221 1.262,5.326 1.904,5.351 2.554,5.448 2.51,5.201 2.467,4.954 2.423,4.706 2.291,4.687 2.159,4.667 2.027,4.647 1.838,3.559 1.76,2.488 1.563,1.398 1.962,1.459 2.361,1.519 2.76,1.577 2.845,2.064 2.93,2.551 3.014,3.037 3.284,3.076 3.555,3.115 3.825,3.153 3.702,2.42 3.575,1.688 3.447,0.954 2.275,0.788 1.104,0.61 -0.069,0.418 -0.022,0.667 0.025,0.914 0.072,1.162"
               id="path14638"
               style="fill:#ffffff;fill-opacity:1;fill-rule:nonzero;stroke:none" />
          </g>
          <g
             transform="translate(81.6386,311.3878)"
             id="g14640">
            <path
               d="M 0,0 C 0.547,0.098 0.812,1.002 0.817,1.529 0.82,1.89 0.663,2.104 0.397,2.056 -0.178,1.954 -0.397,0.979 -0.404,0.522 -0.41,0.161 -0.257,-0.047 0,0"
               id="path14642"
               style="fill:#ffffff;fill-opacity:1;fill-rule:nonzero;stroke:none" />
          </g>
          <g
             transform="translate(87.66,311.1788)"
             id="g14644">
            <path
               d="m 0,0 1.688,0.181 c 0.186,0.02 0.338,0.16 0.373,0.344 L 2.185,1.186 C 2.188,1.212 2.192,1.238 2.192,1.264 2.192,1.302 2.18,1.339 2.17,1.376 2.188,1.378 2.207,1.379 2.225,1.383 L 2.114,0.769 C 2.109,0.744 2.107,0.719 2.107,0.694 2.107,0.588 2.147,0.485 2.219,0.407 2.309,0.31 2.44,0.258 2.572,0.271 L 4.4,0.443 C 4.466,0.45 4.525,0.475 4.58,0.509 4.629,0.496 4.677,0.484 4.727,0.489 l 1.649,0.175 c 0.1,0.011 0.185,0.062 0.253,0.13 C 6.71,0.741 6.802,0.707 6.9,0.716 L 8.125,0.834 8.012,0.483 C 7.941,0.267 8.054,0.034 8.268,-0.044 c 0.441,-0.164 0.987,-0.213 1.578,-0.14 1.187,0.144 1.925,0.876 2.077,2.062 l 0.003,0.024 c 0.059,-0.079 0.126,-0.154 0.201,-0.22 0.347,-0.307 0.822,-0.45 1.374,-0.415 0.494,0.032 0.911,0.191 1.233,0.462 l -0.002,-0.02 c 0,-0.009 0,-0.021 0,-0.03 0,-0.111 0.044,-0.217 0.122,-0.297 0.084,-0.087 0.204,-0.133 0.326,-0.127 l 1.645,0.084 c 0.216,0.011 0.391,0.181 0.403,0.396 l 0.01,0.156 C 17.562,1.663 17.976,1.537 18.454,1.555 18.89,1.57 19.26,1.688 19.559,1.893 19.578,1.845 19.606,1.8 19.641,1.761 19.724,1.67 19.843,1.619 19.966,1.623 l 0.648,0.017 c 0.072,0.002 0.129,0.043 0.188,0.078 0.207,-0.062 0.428,-0.098 0.69,-0.092 0.549,0.011 1.012,0.203 1.305,0.54 0.203,0.234 0.311,0.528 0.311,0.84 0,0.056 -0.003,0.111 -0.011,0.168 -0.038,0.318 -0.165,0.563 -0.383,0.792 0.166,0.046 0.302,0.167 0.318,0.346 l 0.085,0.928 c 10e-4,0.012 0.002,0.025 0.002,0.038 0,0.106 -0.04,0.21 -0.112,0.288 C 22.925,5.654 22.81,5.703 22.69,5.701 L 22.06,5.692 C 22.001,5.691 21.956,5.654 21.905,5.631 21.735,5.687 21.557,5.717 21.338,5.713 20.841,5.702 20.415,5.523 20.138,5.209 20.045,5.105 19.976,4.986 19.924,4.861 19.905,4.883 19.887,4.911 19.868,4.931 19.516,5.301 19.007,5.502 18.469,5.482 17.921,5.462 17.422,5.227 17.063,4.821 17.042,4.797 17.028,4.768 17.008,4.743 c 0.039,0.649 0.071,1.196 0.071,1.196 10e-4,0.008 10e-4,0.017 10e-4,0.025 0,0.111 -0.043,0.218 -0.123,0.297 -0.084,0.086 -0.2,0.13 -0.32,0.124 L 15.33,6.319 C 15.115,6.309 14.943,6.137 14.929,5.921 L 14.892,5.295 C 14.891,5.286 14.891,5.278 14.891,5.268 14.891,5.157 14.934,5.05 15.013,4.97 15.082,4.901 15.177,4.872 15.274,4.861 15.264,4.717 15.252,4.535 15.238,4.336 15.164,4.471 15.083,4.59 15,4.677 14.654,5.044 14.143,5.235 13.597,5.2 13.212,5.175 12.862,5.036 12.561,4.827 12.548,4.917 12.515,5.003 12.449,5.069 12.358,5.16 12.23,5.206 12.102,5.191 L 10.879,5.054 C 10.762,5.042 10.673,4.973 10.605,4.886 10.374,4.983 10.148,5 9.964,4.978 9.377,4.906 8.872,4.515 8.557,3.974 8.514,4.074 8.459,4.167 8.386,4.248 8.168,4.489 7.84,4.608 7.482,4.573 7.222,4.547 7.022,4.471 6.823,4.362 6.741,4.419 6.644,4.453 6.543,4.443 L 5.178,4.299 C 4.995,4.279 4.848,4.146 4.809,3.967 L 4.671,3.332 C 4.665,3.302 4.663,3.272 4.663,3.242 4.663,3.139 4.7,3.037 4.771,2.958 4.832,2.89 4.914,2.853 5.001,2.836 4.917,2.46 4.864,2.22 4.808,1.971 4.802,1.971 4.777,1.969 4.777,1.969 4.722,1.963 4.672,1.944 4.626,1.919 4.566,1.942 4.501,1.952 4.435,1.946 c 0,0 -0.032,-0.003 -0.04,-0.004 -0.06,0.497 -0.182,1.509 -0.241,2.007 0.159,0.043 0.289,0.16 0.315,0.328 L 4.571,4.934 C 4.573,4.956 4.575,4.978 4.575,5 4.575,5.107 4.535,5.212 4.46,5.291 4.37,5.386 4.243,5.434 4.113,5.421 L 1.633,5.179 C 1.443,5.16 1.291,5.017 1.259,4.829 L 1.146,4.167 C 1.143,4.143 1.14,4.119 1.14,4.096 1.14,3.99 1.181,3.887 1.255,3.807 1.275,3.786 1.301,3.775 1.323,3.76 0.988,3.078 0.365,1.81 0.225,1.525 0.208,1.523 0.038,1.504 0.038,1.504 -0.147,1.484 -0.297,1.346 -0.333,1.165 L -0.464,0.503 C -0.468,0.476 -0.47,0.449 -0.47,0.422 -0.47,0.317 -0.431,0.213 -0.36,0.134 -0.267,0.035 -0.134,-0.016 0,0 m 20.078,3.144 c 0.195,0.005 0.388,0.011 0.583,0.015 0.049,-0.173 0.14,-0.307 0.269,-0.389 0.123,-0.091 0.285,-0.135 0.486,-0.13 0.358,0.007 0.562,0.136 0.537,0.351 -0.053,0.463 -0.913,0.252 -1.407,0.716 -0.161,0.151 -0.27,0.348 -0.292,0.563 -0.061,0.575 0.395,1.005 1.093,1.019 0.29,0.005 0.462,-0.038 0.703,-0.188 0.004,0.056 0.011,0.112 0.017,0.167 0.21,0.004 0.419,0.007 0.628,0.01 C 22.668,4.969 22.639,4.659 22.61,4.35 22.409,4.347 22.209,4.345 22.009,4.341 21.957,4.461 21.889,4.561 21.796,4.613 21.702,4.671 21.581,4.703 21.426,4.7 21.153,4.694 20.987,4.571 21.008,4.383 21.049,4.014 21.89,4.18 22.367,3.73 22.564,3.544 22.648,3.364 22.677,3.123 22.75,2.513 22.258,2.065 21.483,2.05 21.124,2.043 20.864,2.104 20.621,2.246 20.616,2.185 20.609,2.125 20.603,2.064 20.387,2.058 20.17,2.054 19.953,2.046 c 0.043,0.366 0.084,0.731 0.125,1.098 M 18.484,5.059 C 19.251,5.087 20.034,4.54 19.931,3.39 19.23,3.37 18.528,3.345 17.825,3.317 17.789,2.786 18.091,2.545 18.438,2.558 18.703,2.567 18.88,2.69 19.009,2.955 19.245,2.864 19.479,2.773 19.713,2.68 19.467,2.234 19.028,1.999 18.438,1.978 17.602,1.947 17.025,2.415 16.955,3.183 c -0.084,0.94 0.532,1.839 1.529,1.876 M 15.201,2.307 c 0.109,0.006 0.218,0.011 0.327,0.018 0.071,0.988 0.138,1.978 0.2,2.966 -0.138,-0.008 -0.275,-0.015 -0.414,-0.022 0.013,0.21 0.027,0.418 0.039,0.628 0.436,0.023 0.868,0.045 1.303,0.064 -0.065,-1.196 -0.137,-2.392 -0.214,-3.59 0.134,0.007 0.268,0.013 0.402,0.02 C 16.832,2.182 16.819,1.972 16.806,1.763 16.256,1.738 15.707,1.71 15.156,1.678 c 0.015,0.21 0.03,0.42 0.045,0.629 m -1.576,2.469 c 0.771,0.05 1.54,-0.475 1.398,-1.631 -0.706,-0.039 -1.413,-0.083 -2.121,-0.13 -0.055,-0.533 0.241,-0.767 0.59,-0.744 0.266,0.017 0.45,0.145 0.588,0.413 0.233,-0.085 0.466,-0.17 0.7,-0.256 -0.265,-0.452 -0.715,-0.7 -1.306,-0.737 -0.844,-0.054 -1.408,0.398 -1.451,1.165 -0.052,0.939 0.598,1.857 1.602,1.92 M 8.638,1.045 C 9.091,0.907 9.323,0.872 9.629,0.91 c 0.545,0.067 0.879,0.352 0.942,0.82 0.017,0.111 -0.003,0.095 0.014,0.207 C 10.58,1.941 10.577,1.944 10.571,1.948 10.311,1.646 10.113,1.528 9.813,1.491 9.171,1.413 8.708,1.846 8.65,2.582 8.575,3.531 9.21,4.46 10.015,4.557 c 0.342,0.041 0.626,-0.102 0.849,-0.424 0.022,0.167 0.043,0.334 0.063,0.5 0.407,0.046 0.813,0.092 1.22,0.137 C 12.122,4.555 12.098,4.34 12.073,4.125 11.967,4.113 11.861,4.101 11.754,4.09 11.66,3.328 11.601,2.693 11.502,1.931 11.374,0.939 10.802,0.359 9.795,0.237 9.298,0.176 8.805,0.208 8.415,0.353 8.49,0.584 8.564,0.814 8.638,1.045 M 4.823,1.548 C 4.933,1.56 5.045,1.571 5.156,1.583 5.284,2.153 5.411,2.721 5.536,3.29 5.386,3.274 5.236,3.258 5.085,3.241 5.132,3.454 5.179,3.665 5.224,3.877 5.679,3.927 6.132,3.974 6.586,4.021 6.559,3.897 6.533,3.774 6.506,3.65 6.942,3.953 7.152,4.114 7.523,4.152 7.976,4.195 8.326,3.876 8.207,3.274 8.112,2.804 8.014,2.333 7.917,1.863 8.055,1.876 8.191,1.889 8.327,1.901 8.285,1.689 8.242,1.478 8.2,1.267 7.753,1.226 7.307,1.183 6.858,1.139 6.993,1.765 7.125,2.391 7.255,3.017 7.318,3.306 7.207,3.419 7.049,3.403 6.859,3.384 6.653,3.24 6.372,3.015 6.277,2.571 6.181,2.126 6.084,1.682 6.212,1.695 6.34,1.708 6.467,1.721 6.423,1.509 6.377,1.298 6.332,1.086 5.782,1.03 5.232,0.972 4.681,0.911 4.728,1.123 4.776,1.335 4.823,1.548 M 0.084,1.083 C 0.223,1.098 0.363,1.114 0.503,1.13 1.007,2.135 1.499,3.139 1.982,4.14 1.843,4.126 1.704,4.112 1.564,4.096 1.601,4.317 1.639,4.537 1.677,4.757 2.503,4.843 3.327,4.924 4.151,4.999 4.118,4.78 4.084,4.56 4.05,4.342 3.927,4.33 3.807,4.319 3.683,4.308 3.796,3.365 3.908,2.424 4.023,1.482 4.173,1.497 4.324,1.51 4.474,1.524 4.436,1.304 4.4,1.085 4.362,0.866 3.751,0.812 3.142,0.753 2.53,0.693 2.571,0.913 2.611,1.132 2.65,1.353 2.785,1.366 2.92,1.379 3.056,1.392 3.041,1.623 3.024,1.853 3.008,2.084 2.567,2.042 2.128,1.997 1.687,1.952 1.579,1.709 1.47,1.464 1.361,1.221 1.496,1.236 1.632,1.249 1.768,1.263 1.726,1.044 1.685,0.823 1.644,0.603 1.081,0.545 0.517,0.484 -0.047,0.421 -0.003,0.642 0.041,0.862 0.084,1.083"
               id="path14646"
               style="fill:#ffffff;fill-opacity:1;fill-rule:nonzero;stroke:none" />
          </g>
          <g
             transform="translate(90.4433,315.436)"
             id="g14648">
            <path
               d="m 0,0 c -0.016,-0.002 -0.03,-0.003 -0.044,-0.005 -0.251,-0.558 -0.505,-1.117 -0.762,-1.677 0.322,0.033 0.644,0.065 0.965,0.096 C 0.106,-1.057 0.053,-0.528 0,0"
               id="path14650"
               style="fill:#ffffff;fill-opacity:1;fill-rule:nonzero;stroke:none" />
          </g>
          <g
             transform="translate(98.4033,314.5663)"
             id="g14652">
            <path
               d="M 0,0 C -0.026,0.268 -0.199,0.519 -0.518,0.481 -1.02,0.421 -1.22,-0.285 -1.185,-0.684 -1.16,-0.978 -0.983,-1.202 -0.649,-1.162 -0.115,-1.098 0.041,-0.437 0,0"
               id="path14654"
               style="fill:#ffffff;fill-opacity:1;fill-rule:nonzero;stroke:none" />
          </g>
          <g
             transform="translate(101.2934,315.3701)"
             id="g14656">
            <path
               d="m 0,0 c -0.319,-0.02 -0.525,-0.243 -0.649,-0.695 0.394,0.025 0.786,0.05 1.177,0.075 C 0.568,-0.193 0.288,0.018 0,0"
               id="path14658"
               style="fill:#ffffff;fill-opacity:1;fill-rule:nonzero;stroke:none" />
          </g>
          <g
             transform="translate(106.1718,315.6518)"
             id="g14660">
            <path
               d="m 0,0 c -0.316,-0.012 -0.513,-0.229 -0.62,-0.677 0.391,0.015 0.78,0.029 1.169,0.042 C 0.573,-0.208 0.288,0.01 0,0"
               id="path14662"
               style="fill:#ffffff;fill-opacity:1;fill-rule:nonzero;stroke:none" />
          </g>
          <g
             transform="translate(80.2347,312.7303)"
             id="g14664">
            <path
               d="m 0,0 c -0.271,-0.038 -0.541,-0.077 -0.812,-0.116 -0.084,-0.486 -0.168,-0.973 -0.253,-1.46 -0.4,-0.058 -0.798,-0.118 -1.198,-0.179 0.198,1.09 0.275,2.161 0.464,3.249 0.132,0.02 0.265,0.04 0.397,0.059 0.043,0.248 0.087,0.495 0.131,0.742 C -1.921,2.198 -2.563,2.173 -3.213,2.068 -3.26,1.821 -3.307,1.573 -3.352,1.325 c 0.166,0.027 0.333,0.053 0.499,0.079 -0.198,-1.089 -0.292,-2.238 -0.498,-3.33 -0.134,-0.022 -0.268,-0.043 -0.403,-0.065 -0.047,-0.248 -0.093,-0.495 -0.14,-0.744 1.172,0.192 2.344,0.37 3.515,0.536 C -0.251,-1.466 -0.124,-0.733 0,0"
               id="path14666"
               style="fill:#5c268a;fill-opacity:1;fill-rule:nonzero;stroke:none" />
          </g>
          <g
             transform="translate(81.5606,310.6407)"
             id="g14668">
            <path
               d="M 0,0 C 1.033,0.185 1.765,1.227 1.768,2.33 1.772,2.981 1.421,3.707 0.56,3.553 -0.406,3.381 -1.176,2.32 -1.205,1.139 -1.224,0.328 -0.735,-0.133 0,0 M 0.475,2.803 C 0.741,2.851 0.898,2.637 0.895,2.276 0.89,1.749 0.625,0.845 0.078,0.747 -0.179,0.7 -0.332,0.908 -0.326,1.269 -0.319,1.726 -0.1,2.701 0.475,2.803"
               id="path14670"
               style="fill:#5c268a;fill-opacity:1;fill-rule:nonzero;stroke:none" />
          </g>
          <g
             transform="translate(84.0013,311.335)"
             id="g14672">
            <path
               d="M 0,0 C 0.231,-0.137 0.481,-0.188 0.831,-0.164 1.588,-0.112 2.089,0.377 2.041,1.009 2.021,1.258 1.946,1.442 1.762,1.625 1.313,2.072 0.486,1.859 0.461,2.24 0.449,2.434 0.615,2.572 0.883,2.591 1.034,2.601 1.15,2.574 1.24,2.517 1.329,2.468 1.39,2.367 1.435,2.245 1.632,2.258 1.827,2.27 2.024,2.283 2.065,2.606 2.105,2.928 2.144,3.251 1.939,3.238 1.735,3.226 1.53,3.212 1.521,3.154 1.514,3.096 1.506,3.037 1.277,3.182 1.111,3.219 0.827,3.199 0.146,3.152 -0.316,2.684 -0.278,2.088 -0.265,1.866 -0.167,1.666 -0.016,1.516 0.448,1.057 1.294,1.316 1.329,0.838 1.344,0.616 1.139,0.47 0.791,0.445 0.595,0.432 0.437,0.47 0.321,0.559 0.199,0.641 0.117,0.774 0.075,0.951 -0.115,0.938 -0.303,0.924 -0.493,0.908 -0.547,0.526 -0.603,0.144 -0.658,-0.239 c 0.211,0.016 0.422,0.032 0.633,0.048 C -0.017,-0.128 -0.008,-0.064 0,0"
               id="path14674"
               style="fill:#5c268a;fill-opacity:1;fill-rule:nonzero;stroke:none" />
          </g>
          <g
             transform="translate(89.4276,312.4421)"
             id="g14676">
            <path
               d="m 0,0 c -0.135,-0.014 -0.271,-0.028 -0.407,-0.042 0.11,0.243 0.218,0.488 0.327,0.731 0.44,0.045 0.879,0.09 1.321,0.132 C 1.256,0.589 1.273,0.36 1.289,0.129 1.153,0.115 1.018,0.102 0.883,0.089 c -0.04,-0.22 -0.08,-0.439 -0.12,-0.66 0.611,0.061 1.221,0.12 1.832,0.173 0.037,0.22 0.074,0.439 0.111,0.659 C 2.556,0.247 2.406,0.234 2.255,0.219 2.14,1.161 2.028,2.101 1.916,3.044 2.039,3.056 2.159,3.067 2.283,3.079 2.317,3.297 2.35,3.517 2.384,3.736 1.56,3.661 0.735,3.58 -0.091,3.494 -0.129,3.274 -0.166,3.054 -0.203,2.833 c 0.14,0.016 0.278,0.029 0.418,0.044 -0.483,-1.001 -0.976,-2.005 -1.479,-3.011 -0.141,-0.015 -0.28,-0.031 -0.42,-0.047 -0.043,-0.22 -0.086,-0.44 -0.13,-0.661 0.563,0.062 1.127,0.124 1.69,0.181 C -0.082,-0.44 -0.041,-0.219 0,0 M 0.972,2.989 C 0.986,2.991 1,2.992 1.016,2.994 1.069,2.466 1.121,1.937 1.175,1.408 0.853,1.377 0.531,1.345 0.21,1.312 0.467,1.872 0.721,2.431 0.972,2.989"
               id="path14678"
               style="fill:#5c268a;fill-opacity:1;fill-rule:nonzero;stroke:none" />
          </g>
          <g
             transform="translate(94.1275,312.8999)"
             id="g14680">
            <path
               d="m 0,0 c -0.128,-0.013 -0.256,-0.026 -0.383,-0.04 0.097,0.445 0.192,0.89 0.288,1.334 C 0.186,1.519 0.392,1.663 0.582,1.682 0.739,1.698 0.851,1.585 0.787,1.296 0.657,0.67 0.526,0.044 0.391,-0.582 0.84,-0.538 1.286,-0.495 1.733,-0.454 1.775,-0.243 1.817,-0.032 1.86,0.18 1.723,0.168 1.588,0.155 1.45,0.142 1.547,0.612 1.644,1.083 1.739,1.553 1.859,2.155 1.508,2.474 1.056,2.431 0.685,2.393 0.475,2.232 0.039,1.928 0.065,2.053 0.091,2.176 0.119,2.299 -0.335,2.253 -0.788,2.206 -1.243,2.156 -1.288,1.944 -1.335,1.733 -1.382,1.52 c 0.151,0.017 0.3,0.033 0.451,0.049 C -1.057,1 -1.183,0.432 -1.312,-0.138 -1.422,-0.15 -1.534,-0.161 -1.644,-0.173 -1.692,-0.386 -1.739,-0.598 -1.787,-0.81 c 0.551,0.061 1.102,0.119 1.651,0.175 C -0.09,-0.423 -0.044,-0.212 0,0"
               id="path14682"
               style="fill:#5c268a;fill-opacity:1;fill-rule:nonzero;stroke:none" />
          </g>
          <g
             transform="translate(97.4547,311.4155)"
             id="g14684">
            <path
               d="M 0,0 C 1.007,0.123 1.579,0.702 1.707,1.694 1.806,2.457 1.865,3.091 1.96,3.853 2.066,3.864 2.172,3.876 2.278,3.888 2.303,4.103 2.328,4.318 2.353,4.533 1.945,4.488 1.54,4.443 1.132,4.397 1.112,4.23 1.091,4.064 1.069,3.896 0.846,4.219 0.562,4.361 0.221,4.32 -0.585,4.223 -1.22,3.295 -1.145,2.346 -1.087,1.609 -0.623,1.177 0.019,1.254 0.318,1.291 0.516,1.409 0.777,1.711 0.783,1.708 0.786,1.704 0.791,1.7 0.774,1.589 0.794,1.605 0.777,1.493 0.714,1.025 0.38,0.741 -0.166,0.673 -0.472,0.636 -0.703,0.67 -1.156,0.808 -1.231,0.577 -1.305,0.347 -1.38,0.116 -0.99,-0.028 -0.496,-0.061 0,0 M 0.299,1.988 C -0.035,1.949 -0.211,2.173 -0.237,2.467 -0.271,2.866 -0.071,3.572 0.43,3.632 0.749,3.67 0.923,3.419 0.949,3.151 0.99,2.714 0.834,2.053 0.299,1.988"
               id="path14686"
               style="fill:#5c268a;fill-opacity:1;fill-rule:nonzero;stroke:none" />
          </g>
          <g
             transform="translate(101.1341,312.8694)"
             id="g14688">
            <path
               d="M 0,0 C 0.591,0.037 1.041,0.286 1.306,0.738 1.072,0.824 0.839,0.908 0.606,0.993 0.468,0.725 0.284,0.598 0.018,0.58 -0.331,0.558 -0.627,0.792 -0.572,1.325 0.136,1.372 0.843,1.416 1.548,1.455 1.691,2.611 0.922,3.135 0.151,3.086 -0.853,3.022 -1.503,2.105 -1.451,1.166 -1.408,0.399 -0.844,-0.054 0,0 M 0.159,2.501 C 0.447,2.519 0.727,2.308 0.687,1.881 0.296,1.856 -0.095,1.831 -0.489,1.805 c 0.124,0.452 0.33,0.676 0.648,0.696"
               id="path14690"
               style="fill:#5c268a;fill-opacity:1;fill-rule:nonzero;stroke:none" />
          </g>
          <g
             transform="translate(104.504,313.5694)"
             id="g14692">
            <path
               d="m 0,0 c -0.134,-0.006 -0.268,-0.012 -0.402,-0.019 0.077,1.197 0.149,2.394 0.214,3.59 C -0.623,3.551 -1.055,3.529 -1.491,3.506 -1.503,3.296 -1.517,3.089 -1.53,2.879 c 0.139,0.007 0.276,0.014 0.414,0.021 -0.062,-0.987 -0.129,-1.977 -0.2,-2.966 -0.109,-0.006 -0.218,-0.012 -0.326,-0.018 -0.016,-0.209 -0.031,-0.419 -0.046,-0.628 0.551,0.031 1.1,0.059 1.65,0.084 C -0.025,-0.418 -0.012,-0.209 0,0"
               id="path14694"
               style="fill:#5c268a;fill-opacity:1;fill-rule:nonzero;stroke:none" />
          </g>
          <g
             transform="translate(106.0983,313.1566)"
             id="g14696">
            <path
               d="M 0,0 C 0.59,0.021 1.029,0.256 1.275,0.702 1.04,0.795 0.806,0.887 0.571,0.977 0.441,0.712 0.264,0.589 -0.001,0.58 -0.347,0.568 -0.649,0.809 -0.614,1.34 0.09,1.367 0.791,1.392 1.493,1.412 1.596,2.562 0.813,3.109 0.045,3.081 -0.951,3.044 -1.567,2.145 -1.483,1.205 -1.413,0.437 -0.836,-0.031 0,0 M 0.074,2.495 C 0.361,2.505 0.646,2.287 0.623,1.86 0.234,1.847 -0.156,1.834 -0.547,1.818 -0.44,2.266 -0.242,2.484 0.074,2.495"
               id="path14698"
               style="fill:#5c268a;fill-opacity:1;fill-rule:nonzero;stroke:none" />
          </g>
          <g
             transform="translate(108.2813,313.4248)"
             id="g14700">
            <path
               d="M 0,0 C 0.242,-0.142 0.503,-0.203 0.862,-0.196 1.637,-0.181 2.129,0.267 2.056,0.877 2.027,1.118 1.942,1.298 1.746,1.484 1.269,1.934 0.428,1.768 0.387,2.137 0.365,2.325 0.532,2.448 0.804,2.454 0.96,2.457 1.081,2.425 1.175,2.367 1.268,2.315 1.336,2.215 1.387,2.095 1.588,2.099 1.788,2.102 1.989,2.104 2.018,2.413 2.047,2.723 2.074,3.032 1.865,3.029 1.655,3.026 1.445,3.022 1.44,2.967 1.433,2.911 1.428,2.855 1.188,3.005 1.015,3.048 0.725,3.043 0.027,3.029 -0.429,2.599 -0.367,2.024 -0.345,1.809 -0.236,1.612 -0.076,1.461 0.419,0.997 1.279,1.208 1.332,0.745 1.356,0.531 1.153,0.401 0.795,0.394 0.594,0.389 0.432,0.433 0.308,0.524 0.18,0.606 0.089,0.74 0.04,0.913 -0.155,0.909 -0.348,0.903 -0.543,0.898 -0.584,0.531 -0.625,0.166 -0.668,-0.2 c 0.217,0.008 0.434,0.012 0.649,0.018 C -0.012,-0.121 -0.005,-0.061 0,0"
               id="path14702"
               style="fill:#5c268a;fill-opacity:1;fill-rule:nonzero;stroke:none" />
          </g>
          <g
             transform="translate(117.8186,295.8755)"
             id="g14704">
            <path
               d="M 0,0 C -0.054,-0.017 -0.109,-0.033 -0.165,-0.049 -0.193,-0.056 -0.221,-0.064 -0.25,-0.072 -0.309,-0.088 -0.368,-0.104 -0.426,-0.12 -0.451,-0.126 -0.476,-0.133 -0.5,-0.139 -0.563,-0.155 -0.625,-0.171 -0.686,-0.187 -0.699,-0.19 -0.712,-0.193 -0.724,-0.196 -0.734,-0.199 -0.742,-0.201 -0.752,-0.203 -0.928,-0.247 -1.04,-0.286 -1.242,-0.321 -1.25,-0.323 -1.26,-0.325 -1.267,-0.327 c 0.049,0.008 0.224,0.041 0.273,0.048 -0.112,-0.044 -0.72,-0.226 -1.077,-0.323 -0.11,-0.03 -0.196,-0.052 -0.242,-0.059 -0.518,-0.081 -1.035,-0.167 -1.553,-0.256 -0.102,-0.017 -0.203,-0.034 -0.305,-0.052 -0.504,-0.088 -1.01,-0.178 -1.513,-0.272 -0.246,-0.045 -0.49,-0.092 -0.734,-0.139 -0.089,-0.017 -0.177,-0.033 -0.265,-0.05 -0.346,-0.067 -0.691,-0.136 -1.035,-0.205 -0.048,-0.01 -0.096,-0.02 -0.144,-0.03 -0.295,-0.06 -0.59,-0.121 -0.884,-0.182 -0.105,-0.022 -0.209,-0.044 -0.314,-0.066 -0.236,-0.05 -0.472,-0.101 -0.707,-0.151 -0.119,-0.026 -0.237,-0.052 -0.354,-0.078 -0.223,-0.049 -0.444,-0.097 -0.665,-0.146 -0.122,-0.028 -0.244,-0.056 -0.366,-0.083 -0.213,-0.048 -0.426,-0.097 -0.638,-0.145 -0.123,-0.029 -0.247,-0.057 -0.369,-0.085 -0.217,-0.051 -0.431,-0.101 -0.646,-0.152 -0.111,-0.026 -0.222,-0.052 -0.333,-0.079 -0.228,-0.054 -0.456,-0.109 -0.683,-0.164 -0.096,-0.023 -0.193,-0.046 -0.29,-0.07 -0.24,-0.059 -0.479,-0.118 -0.716,-0.177 -0.082,-0.02 -0.166,-0.041 -0.248,-0.061 -0.282,-0.071 -0.561,-0.141 -0.838,-0.212 -0.034,-0.008 -0.068,-0.017 -0.101,-0.025 -0.638,-0.163 -1.264,-0.326 -1.876,-0.489 -0.046,-0.013 -0.09,-0.024 -0.137,-0.036 -0.251,-0.068 -0.501,-0.135 -0.748,-0.201 -0.075,-0.021 -0.149,-0.041 -0.224,-0.061 -0.217,-0.06 -0.433,-0.118 -0.647,-0.177 -0.082,-0.022 -0.163,-0.045 -0.244,-0.068 -0.203,-0.056 -0.405,-0.112 -0.604,-0.168 -0.082,-0.023 -0.164,-0.046 -0.246,-0.069 -0.194,-0.054 -0.386,-0.108 -0.576,-0.162 -0.083,-0.024 -0.167,-0.048 -0.25,-0.071 -0.185,-0.053 -0.368,-0.106 -0.548,-0.158 -0.08,-0.023 -0.161,-0.046 -0.24,-0.069 -0.192,-0.056 -0.381,-0.111 -0.568,-0.165 -0.06,-0.018 -0.121,-0.036 -0.18,-0.053 -0.22,-0.064 -0.435,-0.128 -0.647,-0.191 -0.025,-0.007 -0.052,-0.015 -0.077,-0.023 -0.485,-0.144 -0.947,-0.283 -1.387,-0.417 -0.026,-0.008 -0.05,-0.016 -0.075,-0.023 -0.189,-0.059 -0.374,-0.115 -0.554,-0.17 -0.045,-0.014 -0.089,-0.028 -0.135,-0.042 -0.152,-0.047 -0.303,-0.093 -0.448,-0.139 -0.062,-0.02 -0.122,-0.039 -0.182,-0.057 -0.125,-0.039 -0.246,-0.078 -0.365,-0.115 -0.066,-0.02 -0.131,-0.041 -0.194,-0.061 -0.111,-0.035 -0.218,-0.069 -0.323,-0.102 -0.062,-0.02 -0.124,-0.04 -0.183,-0.059 -0.105,-0.033 -0.206,-0.066 -0.306,-0.097 -0.05,-0.017 -0.102,-0.033 -0.151,-0.049 -0.102,-0.033 -0.199,-0.065 -0.294,-0.095 -0.044,-0.014 -0.089,-0.029 -0.132,-0.043 -0.094,-0.031 -0.183,-0.06 -0.27,-0.089 -0.035,-0.011 -0.073,-0.024 -0.107,-0.034 -0.118,-0.039 -0.228,-0.076 -0.332,-0.11 l -0.483,-0.159 -0.365,-0.124 c 0,0 0.78,1.731 0.914,2.029 -1.562,-0.384 -8.933,-2.237 -17.992,-5.178 -0.024,-0.181 -0.233,-1.777 -0.251,-1.913 4.921,1.744 11.649,4.043 16.301,5.302 l 0.347,0.093 c 0,0 -0.863,-1.752 -1.091,-2.215 10.724,4.119 17.82,6.467 27.298,8.114 0.318,0.056 1.125,0.11 1.805,0.163 0.229,0.064 0.465,0.135 0.706,0.214 0.017,0.006 0.032,0.011 0.048,0.016 0.231,0.078 0.464,0.162 0.695,0.256 0.023,0.01 0.046,0.019 0.069,0.029 0.228,0.094 0.454,0.196 0.671,0.307 0.018,0.009 0.036,0.019 0.054,0.029 0.223,0.116 0.612,0.318 0.814,0.454 0.002,0.001 -0.17,-0.075 -0.167,-0.074 0.062,0.026 0.112,0.051 0.167,0.076 L 0.303,0.094 C 0.233,0.071 0.158,0.047 0.08,0.023 0.054,0.015 0.027,0.008 0,0"
               id="path14706"
               style="fill:#ffffff;fill-opacity:1;fill-rule:nonzero;stroke:none" />
          </g>
          <g
             transform="translate(85.9349,286.3063)"
             id="g14708">
            <path
               d="M 0,0 C 0.228,0.463 1.09,2.216 1.09,2.216 L 0.744,2.122 c -4.653,-1.258 -11.38,-3.558 -16.302,-5.301 0.018,0.135 0.228,1.731 0.252,1.912 C -6.248,1.674 1.123,3.527 2.686,3.911 2.552,3.613 1.771,1.883 1.771,1.883 l 0.366,0.123 0.483,0.16 c 0.103,0.033 0.214,0.07 0.332,0.109 0.034,0.011 0.071,0.024 0.106,0.035 0.087,0.029 0.176,0.057 0.271,0.088 0.042,0.014 0.088,0.029 0.131,0.043 0.096,0.031 0.192,0.062 0.295,0.095 0.049,0.016 0.1,0.032 0.151,0.049 0.099,0.032 0.2,0.064 0.305,0.098 0.06,0.019 0.122,0.038 0.183,0.058 C 4.5,2.774 4.607,2.808 4.717,2.843 4.781,2.864 4.846,2.884 4.911,2.905 5.03,2.941 5.152,2.98 5.277,3.02 5.337,3.038 5.396,3.057 5.458,3.076 5.604,3.122 5.754,3.168 5.907,3.215 5.952,3.229 5.996,3.243 6.042,3.257 6.222,3.312 6.406,3.369 6.596,3.427 6.621,3.434 6.645,3.442 6.671,3.45 7.11,3.584 7.573,3.724 8.057,3.867 8.083,3.875 8.109,3.883 8.135,3.89 8.346,3.953 8.562,4.017 8.782,4.081 8.841,4.099 8.902,4.117 8.962,4.134 9.149,4.188 9.337,4.243 9.53,4.3 c 0.079,0.022 0.159,0.045 0.239,0.069 0.181,0.051 0.363,0.104 0.549,0.157 0.082,0.023 0.167,0.047 0.25,0.071 0.19,0.054 0.382,0.108 0.576,0.163 0.081,0.023 0.163,0.046 0.246,0.068 0.199,0.057 0.4,0.112 0.604,0.168 0.081,0.023 0.162,0.046 0.244,0.068 0.214,0.059 0.43,0.117 0.647,0.177 0.075,0.02 0.149,0.041 0.223,0.061 0.248,0.067 0.498,0.134 0.749,0.201 0.046,0.012 0.091,0.024 0.137,0.036 0.612,0.163 1.238,0.326 1.876,0.489 0.033,0.008 0.067,0.017 0.1,0.025 0.278,0.071 0.557,0.141 0.839,0.212 0.082,0.02 0.166,0.041 0.248,0.062 0.237,0.059 0.476,0.117 0.716,0.176 0.096,0.024 0.194,0.047 0.29,0.07 0.227,0.055 0.454,0.11 0.682,0.165 0.112,0.026 0.223,0.052 0.334,0.079 0.214,0.05 0.429,0.1 0.645,0.151 0.123,0.028 0.247,0.057 0.37,0.086 0.212,0.048 0.425,0.096 0.638,0.144 0.122,0.028 0.243,0.055 0.366,0.083 0.221,0.049 0.442,0.097 0.664,0.146 0.118,0.026 0.236,0.052 0.354,0.078 0.236,0.051 0.472,0.101 0.708,0.151 0.104,0.022 0.209,0.044 0.314,0.066 0.294,0.062 0.589,0.123 0.884,0.183 0.048,0.009 0.095,0.019 0.144,0.029 0.343,0.069 0.689,0.138 1.035,0.205 0.088,0.017 0.176,0.033 0.264,0.05 0.224,0.043 0.447,0.086 0.671,0.128 0.021,0.004 0.042,0.008 0.063,0.012 0.504,0.093 1.009,0.183 1.514,0.271 0.102,0.018 0.203,0.035 0.304,0.052 0.518,0.089 1.036,0.175 1.554,0.256 0.037,0.006 0.127,0.028 0.242,0.06 0.357,0.096 0.964,0.278 1.076,0.322 -0.048,-0.007 -0.223,-0.04 -0.272,-0.048 -0.001,0 -0.002,0 -0.003,0 C 18.779,7.479 6.049,3.643 2.518,2.475 c 0,0 -0.067,-0.023 -0.145,-0.049 0.129,0.286 0.865,1.922 0.865,1.922 L 2.95,4.309 C 2.916,4.304 -5.443,2.282 -15.504,-0.989 l -0.097,-0.032 -0.347,-2.641 0.25,0.088 C -10.879,-1.864 -4.225,0.415 0.48,1.71 0.44,1.63 -0.658,-0.599 -0.658,-0.599 l 0.387,0.148 c 11.655,4.487 18.75,6.941 29.071,8.626 0,0 0.302,0.103 0.383,0.109 -0.076,-0.006 0,0 -0.081,-0.006 C 28.423,8.224 27.616,8.17 27.298,8.114 17.819,6.467 10.723,4.119 0,0"
               id="path14710"
               style="fill:#fbbf16;fill-opacity:1;fill-rule:nonzero;stroke:none" />
          </g>
        </g>
      </g>
    </g>
  </g>
</svg>
