<?xml version="1.0" encoding="UTF-8" standalone="no"?>
<svg xmlns:rdf="http://www.w3.org/1999/02/22-rdf-syntax-ns#" xmlns="http://www.w3.org/2000/svg" height="258.70113" width="278.31368" version="1.1" xmlns:cc="http://creativecommons.org/ns#" xmlns:dc="http://purl.org/dc/elements/1.1/" viewBox="0 0 278.31368 258.70113"><path d="M138.70376,258.70113l1.4074-1.68887c10.60249-11.91609,21.48648-17.73339,33.12106-24.01981a136.35093,136.35093,0,0,0,33.96551-23.45685l1.3136,6.94321,3.37777-2.06419a110.47485,110.47485,0,0,0,49.07173-59.86187l4.4099,4.40987,1.87654-2.62715a68.2766,68.2766,0,0,0,10.03953-37.43714c0-15.38771-4.4099-34.81-18.8593-56.95322l-2.721-3.65928a39.1269,39.1269,0,0,0,5.8173-19.51607A38.94217,38.94217,0,0,0,243.97807,7.0561a37.29592,37.29592,0,0,0-52.168,8.53828,100.90129,100.90129,0,0,0-53.10629,6.66176,100.90134,100.90134,0,0,0-53.1063-6.66176,37.29594,37.29594,0,0,0-52.168-8.53828A39.03429,39.03429,0,0,0,15.78987,38.76976a38.10249,38.10249,0,0,0,5.72348,19.51607l-2.62717,3.75311C4.34294,84.08836.02688,103.51062.02688,118.89833a68.27677,68.27677,0,0,0,10.03953,37.43714l1.87654,2.62715,4.50372-4.40987a110.31054,110.31054,0,0,0,48.9779,59.86187l3.4716,2.06419,1.21977-6.94321a136.85711,136.85711,0,0,0,34.05934,23.45685c11.54075,6.28642,22.51856,12.10372,33.02723,24.01981Z" fill="#717271"/><path d="M138.70376,250.53815a120.39335,120.39335,0,0,0-31.99515-22.33092,124.36741,124.36741,0,0,1-36.3112-25.99018l-3.75309-4.03458-1.87655,9.28892a104.11118,104.11118,0,0,1-44.28653-58.82977l-1.03209-4.97286-6.75558,6.75558A64.62444,64.62444,0,0,1,5.2812,119.27365c0-14.44942,4.12842-32.93343,18.20253-54.23224l4.50371-6.56791-.93828-1.59508a33.80759,33.80759,0,0,1-5.8173-18.29631,33.17357,33.17357,0,0,1,15.2-27.02228C49.94305,2.45856,68.99,1.52028,82.032,20.09811l1.0321,1.4074L84.753,21.224a94.884,94.884,0,0,1,52.731,6.38024l1.21978.563,1.1259-.563a94.924,94.924,0,0,1,52.731-6.47407l1.68889.28147.93829-1.4074C208.32366,1.33263,227.55828,2.45856,240.88178,11.466a33.5441,33.5441,0,0,1,15.2,27.02229,33.66053,33.66053,0,0,1-5.91113,18.29631l-.93828,1.59507L253.83,64.75994c13.98028,21.39263,18.20251,39.87664,18.20251,54.23222a64.12271,64.12271,0,0,1-7.41237,31.15069l-6.75556-6.47409-1.03211,4.97286a103.61142,103.61142,0,0,1-44.47419,58.82977l-1.68889-9.47657-3.75309,4.03459a126.432,126.432,0,0,1-36.3112,26.084A116.70565,116.70565,0,0,0,138.70376,250.53815Z" fill="#fff"/><path d="M239.00523,58.47347c3.75309-6.38024,14.44941-30.77537-6.28644-41.37786C211.8891,6.58694,197.06438,32.20182,197.06438,32.20182c-23.45685-6.19259-54.13839,3.47162-58.36062,4.879-4.31608-1.4074-34.99762-11.16543-58.45447-4.879,0,0-14.91856-25.61488-35.56057-15.10621C23.95286,27.6981,34.743,52.09323,38.30846,58.47347c0,0-34.43466,35.09145-21.48648,78.53353l7.03705-8.72593s9.85188,47.38281,35.46675,62.20753L60.827,178.94785s26.55316,32.1828,57.98531,45.88159c2.721,1.21975,16.60746,8.25681,19.60993,12.57286.09383.09385.18765.28149.2815.37532a.71139.71139,0,0,1,.18765-.37532c2.90865-4.316,16.88893-11.16546,19.60991-12.57286,31.43218-13.69879,58.07915-45.88159,58.07915-45.88159l1.50125,11.6346c25.61488-14.91857,35.46674-62.20755,35.46674-62.20755l6.94323,8.726C273.43987,93.56492,239.00523,58.47347,239.00523,58.47347Z" fill="#e2231a"/><path d="M110.93084,104.44888V126.123c0,4.59755-1.21978,15.38771-12.85436,15.38771-3.65927,0-12.76053-1.50125-12.76053-15.48153V104.44888H78.37272v21.39266c0,8.9136,1.78273,13.41732,7.03706,17.921a19.95571,19.95571,0,0,0,25.42721,0c5.25433-4.50372,7.037-9.00744,7.037-18.01486V104.44888Z" fill="#fff"/><path d="M87.84931,104.44888v21.58031c0,10.69634,5.62964,12.85435,10.22717,12.85435,4.69137,0,10.22718-2.158,10.22718-12.76053V104.44888h-6.94321v21.58031c0,4.50372-.84445,6.005-3.284,6.005s-3.19012-1.50125-3.19012-6.0988V104.44888Z" fill="#fff"/><path d="M57.07392,96.09825V82.39946H61.39v1.97037a5.696,5.696,0,0,1,.65678-.93826,2.16319,2.16319,0,0,1,1.87656-1.03211h1.59506a2.037,2.037,0,0,1,2.0642,1.59507v.09383a2.72732,2.72732,0,0,1,2.43952-1.6889h1.31358c1.59507,0,2.34568.75061,2.34568,2.53333V96.09825H69.45914V86.52787c0-.75062-.46915-1.12593-1.12593-.93826a.77315.77315,0,0,0-.65679.93826v9.57038H63.26653V86.52787c0-.563-.28148-.93826-.75062-.93826a1.0654,1.0654,0,0,0-.75062.28147.70831.70831,0,0,0-.37531.65679v9.57038Z" fill="#fff"/><path d="M81.56287,88.31061V86.52789c0-.65679-.37532-1.03211-.93829-.93828a1.12979,1.12979,0,0,0-.65679.93828v1.78272Zm-5.91113,5.06666V84.65135c0-1.6889.65679-2.25186,2.43951-2.25186h5.34816c1.03211,0,1.40741,0,1.87654.65678a2.38643,2.38643,0,0,1,.37532,1.59508v6.19259H79.96779v1.12593c0,.46914.18766.65679.93828.65679h4.7852v3.47162H76.8715C75.46408,96.09828,75.65174,93.37727,75.65174,93.37727Z" fill="#fff"/><path d="M87.474,96.09825V82.39946h4.40989v1.97037a2.49974,2.49974,0,0,1,.563-.93826,2.16319,2.16319,0,0,1,1.87655-1.03211h1.6889a2.00813,2.00813,0,0,1,1.97037,1.59507c.09383.09383.09383.18765,0,.3753v-.28147a2.72732,2.72732,0,0,1,2.43952-1.6889h1.59506c1.59507,0,2.25186.75061,2.25186,2.53333V96.09825H99.8592V86.52787c0-.75062-.46914-1.12593-1.12593-.93826a.77316.77316,0,0,0-.65679.93826v9.57038H93.6666V86.52787c0-.563-.28149-.93826-.75063-.93826a1.06539,1.06539,0,0,0-.75061.28147c-.18766.18764-.37532.37532-.28148.65679v9.57038Z" fill="#fff"/><path d="M110.64937,92.34517a.77146.77146,0,0,0,.56294.37531.79167.79167,0,0,0,.65681-.18767c.28147-.28147.28147-.37529.37529-.93826v-5.442a.8956.8956,0,0,0-1.0321-.563c-.46912,0-.65679.37529-.65679.84443v5.16051A.928.928,0,0,0,110.64937,92.34517Zm-4.69137,8.44445V82.39946h4.50369v1.6889c.84446-1.6889.84446-1.6889,3.284-1.6889h.28147a1.95429,1.95429,0,0,1,2.06422,1.12593,3.18857,3.18857,0,0,1,.28147,1.87655v7.97533c0,1.87655-.93826,2.721-2.34569,2.721h-.84443a2.5743,2.5743,0,0,1-2.158-.75061c-.28147-.37529-.75061-1.50123-.75061-1.03211v6.47409Z" fill="#fff"/><path d="M118.34321,96.09825V78.55255h4.31605v6.1926c.18765-.37532.28147-.75062.46914-1.12593a1.94005,1.94005,0,0,1,1.87654-1.21976h1.6889c1.4074,0,2.158.84446,2.158,2.53333V96.09825h-4.50369V86.52787a.85335.85335,0,0,0-.37532-.75062,1.05883,1.05883,0,0,0-.75061-.09382,1.09769,1.09769,0,0,0-.75062,1.03208v9.38274Z" fill="#fff"/><path d="M134.95065,96.09825V82.39946h-4.40988V96.09825ZM130.54077,81.555V78.55253h4.40988V81.555Z" fill="#fff"/><path d="M136.73337,96.09825V92.62666h4.59752V91.21924h-3.00247a1.40326,1.40326,0,0,1-1.595-1.21976V84.36983A1.7274,1.7274,0,0,1,137.484,82.681a1.24766,1.24766,0,0,1,.75061-.2815h7.5062v3.37779h-4.69137v1.31358h3.00247a1.61227,1.61227,0,0,1,1.59507,1.40743V94.5032a1.54687,1.54687,0,0,1-1.59507,1.4074Z" fill="#fff"/><path d="M191.15326,88.40441h6.94323v59.01741h-6.94323Zm-9.57039,0h6.94321v59.01741h-6.94321Z" fill="#fff" fill-rule="evenodd"/><path d="M160.65936,126.21686V113.92549H149.68155c-7.88152,0-12.76053,2.158-13.22968,12.38522-.37529,9.66421-6.00494,14.91854-15.85682,15.2v6.47409h1.87654a19.17563,19.17563,0,0,0,14.63707-5.25433,19.59481,19.59481,0,0,0,6.19262-14.168c.28147-6.47409,1.12593-7.69384,6.28644-7.97531h4.12841v5.62963c0,7.69387,1.03208,11.447,4.03458,15.38771a18.656,18.656,0,0,0,15.66915,6.75556,14.56852,14.56852,0,0,0,2.90865-.28147v-6.56792C165.25688,141.51074,160.65936,136.9132,160.65936,126.21686Z" fill="#fff"/><path d="M133.82472,126.21686c.56294-13.042,8.25681-14.82472,15.85683-14.82472h10.97778V88.40443H153.7161v16.04448h-6.00494c-11.54076,0-19.42227,6.47409-20.5482,17.73339l-.46914,3.75309c-.46912,4.1284-1.78272,5.34816-6.09877,5.34816v7.50619C129.0395,138.78974,133.54322,134.47369,133.82472,126.21686Z" fill="#fff"/><polygon points="40.56 126.967 40.56 88.404 33.617 88.404 33.617 147.516 40.56 147.516 40.56 126.967" fill="#fff"/><path d="M53.32083,113.17486c-4.59755,0-10.13337,2.25186-10.13337,12.76053v21.67413h6.8494v-21.9556c0-4.22223.84445-5.53583,3.47161-5.53583,2.53335,0,3.00248,1.3136,3.09631,3.75311v23.73832H63.548V126.02921C63.548,115.23907,58.0122,113.17486,53.32083,113.17486Z" fill="#fff"/><path d="M57.35541,103.79212a15.44834,15.44834,0,0,0-7.41238,1.78274V88.40443H43.18746v27.11611a11.05976,11.05976,0,0,1,10.13337-5.16049c3.75309,0,12.85435,1.50123,12.85435,15.48151v21.58031H73.1184V119.36748a15.53932,15.53932,0,0,0-15.763-15.57536Z" fill="#fff"/><path d="M239.75587,138.13293A27.19654,27.19654,0,0,1,225.025,141.886a15.70481,15.70481,0,0,1-14.35558-23.55067,15.84144,15.84144,0,0,1,14.16793-7.69384,11.837,11.837,0,0,1,8.9136,2.90865l-7.41235,9.10124-.37532,1.03211,4.03458,3.37779-5.25433-.37532-1.97037,4.879-1.21978-5.06667L216.299,126.123l4.40988-2.81482-1.31358-5.06667,4.03458,3.37777.93826-.563,5.72348-6.94321a12.71157,12.71157,0,0,0-5.25434-.93828,13.04285,13.04285,0,0,0,.2815,26.084,22.87,22.87,0,0,0,13.88643-3.75309l-2.25186-6.94323a9.95219,9.95219,0,0,1-8.163,3.75311l15.10621-17.82721a18.73011,18.73011,0,0,0-5.72347-6.38027A22.35432,22.35432,0,0,0,202.22492,126.123c0,12.94818,10.22717,22.33092,24.3951,22.33092a28.59893,28.59893,0,0,0,15.2-3.75308Z" fill="#fff"/><polygon points="176.422 111.298 176.422 104.449 170.23 104.449 170.23 88.404 163.287 88.404 163.287 111.298 176.422 111.298" fill="#fff"/><path d="M176.42238,120.86868v-6.94321H163.28654v12.29139c0,9.38274,3.37779,12.66668,13.13584,12.66668v-7.13088a7.60377,7.60377,0,0,1-2.06421,0c-3.284,0-4.1284-1.12593-4.1284-5.25433v-5.62965Z" fill="#fff"/></svg>