<?xml version="1.0" encoding="UTF-8" standalone="no"?>
<!-- Created with Inkscape (http://www.inkscape.org/) -->

<svg
   xmlns:dc="http://purl.org/dc/elements/1.1/"
   xmlns:cc="http://creativecommons.org/ns#"
   xmlns:rdf="http://www.w3.org/1999/02/22-rdf-syntax-ns#"
   xmlns:svg="http://www.w3.org/2000/svg"
   xmlns="http://www.w3.org/2000/svg"
   xmlns:sodipodi="http://sodipodi.sourceforge.net/DTD/sodipodi-0.dtd"
   xmlns:inkscape="http://www.inkscape.org/namespaces/inkscape"
   version="1.1"
   width="187"
   height="105"
   id="svg2"
   xml:space="preserve"
   inkscape:version="0.48.3.1 r9886"
   sodipodi:docname="Sioux Falls Skyforce logo.svg"><sodipodi:namedview
     pagecolor="#ffffff"
     bordercolor="#666666"
     borderopacity="1"
     objecttolerance="10"
     gridtolerance="10"
     guidetolerance="10"
     inkscape:pageopacity="0"
     inkscape:pageshadow="2"
     inkscape:window-width="1375"
     inkscape:window-height="876"
     id="namedview199"
     showgrid="false"
     showguides="true"
     inkscape:guide-bbox="true"
     inkscape:zoom="8"
     inkscape:cx="158.13627"
     inkscape:cy="35.63333"
     inkscape:window-x="65"
     inkscape:window-y="24"
     inkscape:window-maximized="1"
     inkscape:current-layer="svg2" /><metadata
     id="metadata8"><rdf:RDF><cc:Work
         rdf:about=""><dc:format>image/svg+xml</dc:format><dc:type
           rdf:resource="http://purl.org/dc/dcmitype/StillImage" /><dc:title /></cc:Work></rdf:RDF></metadata><defs
     id="defs6"><clipPath
       id="clipPath1526"><path
         d="m 516.01,33.956 60.088,-0.073 0.099,81.623 -60.088,0.073 -0.099,-81.623 z"
         id="path1528" /></clipPath><clipPath
       id="clipPath1898"><path
         d="M 0,792 612,792 612,0 0,0 0,792 z"
         id="path1900" /></clipPath><clipPath
       id="clipPath2120"><path
         d="M 0,792 612,792 612,0 0,0 0,792 z"
         id="path2122" /></clipPath><clipPath
       id="clipPath2136"><path
         d="M 0,792 612,792 612,0 0,0 0,792 z"
         id="path2138" /></clipPath><clipPath
       id="clipPath2150"><path
         d="M 0,792 612,792 612,0 0,0 0,792 z"
         id="path2152" /></clipPath><clipPath
       id="clipPath2164"><path
         d="M 0,792 612,792 612,0 0,0 0,792 z"
         id="path2166" /></clipPath><clipPath
       id="clipPath2178"><path
         d="M 0,792 612,792 612,0 0,0 0,792 z"
         id="path2180" /></clipPath><clipPath
       id="clipPath2208"><path
         d="M 0,792 612,792 612,0 0,0 0,792 z"
         id="path2210" /></clipPath><linearGradient
       x1="0"
       y1="0"
       x2="1"
       y2="0"
       id="linearGradient2470"
       gradientUnits="userSpaceOnUse"
       gradientTransform="matrix(5.1331482,-6.7693481,6.7693481,5.1331482,150.25,23.75)"
       spreadMethod="pad"><stop
         id="stop2472"
         style="stop-color:#3957a4;stop-opacity:1"
         offset="0" /><stop
         id="stop2474"
         style="stop-color:#516abc;stop-opacity:1"
         offset="1" /></linearGradient><clipPath
       id="clipPath2482"><path
         d="M 0,792 612,792 612,0 0,0 0,792 z"
         id="path2484" /></clipPath><linearGradient
       x1="0"
       y1="0"
       x2="1"
       y2="0"
       id="linearGradient2506"
       gradientUnits="userSpaceOnUse"
       gradientTransform="matrix(5.1868134,-6.8401337,6.8401337,5.1868134,152.25,25.25)"
       spreadMethod="pad"><stop
         id="stop2508"
         style="stop-color:#5f76bb;stop-opacity:1"
         offset="0" /><stop
         id="stop2510"
         style="stop-color:#6f84cb;stop-opacity:1"
         offset="1" /></linearGradient><clipPath
       id="clipPath2518"><path
         d="M 0,792 612,792 612,0 0,0 0,792 z"
         id="path2520" /></clipPath><clipPath
       id="clipPath2534"><path
         d="m 365.974,27.582 c -0.785,0 -1.483,-0.366 -1.939,-0.937 l 0,0 c 0.456,0.553 1.146,0.906 1.914,0.906 l 0,0 7.305,0 c 1.006,0 1.875,-0.601 2.265,-1.464 l 0,0 0,0.084 c -0.402,0.834 -1.255,1.411 -2.24,1.411 l 0,0 -7.305,0 z m -2.483,-9.788 c 0,-0.985 0.577,-1.837 1.411,-2.237 l 0,0 9.449,0 c 0.509,0.244 0.923,0.657 1.168,1.166 l 0,0 0,6.588 c -0.065,-0.021 -0.13,-0.042 -0.196,-0.063 l 0,0 0,-5.454 c 0,-1.128 -0.915,-2.045 -2.044,-2.045 l 0,0 -7.305,0 c -1.126,0 -2.045,0.917 -2.045,2.045 l 0,0 0,5.438 c -0.148,0.047 -0.295,0.095 -0.438,0.146 l 0,0 0,-5.584 z m 10.244,5.043 0,-0.116 c 0,-0.541 -0.524,-0.979 -1.167,-0.979 l 0,0 -5.832,0 c -0.644,0 -1.166,0.438 -1.166,0.979 l 0,0 0,0.098 c -0.43,0.085 -0.847,0.183 -1.238,0.292 l 0,0 0,-5.17 c 0,-0.99 0.798,-1.79 1.787,-1.79 l 0,0 7.014,0 c 0.991,0 1.79,0.8 1.79,1.79 l 0,0 0,5.186 c -0.377,-0.107 -0.773,-0.204 -1.188,-0.29"
         id="path2536" /></clipPath><clipPath
       id="clipPath2544"><path
         d="m -1.00407,-0.999939 2.00407,0 0,1.99939 -2.00407,0 0,-1.99939 z"
         id="path2546" /></clipPath><radialGradient
       cx="0"
       cy="0"
       r="1"
       fx="0"
       fy="0"
       id="radialGradient2548"
       gradientUnits="userSpaceOnUse"
       gradientTransform="matrix(6.1312256,0,0,-6.1312256,369.38762,21.684494)"
       spreadMethod="pad"><stop
         id="stop2550"
         style="stop-color:#ed1c24;stop-opacity:1"
         offset="0" /><stop
         id="stop2552"
         style="stop-color:#981015;stop-opacity:1"
         offset="1" /></radialGradient><clipPath
       id="clipPath2560"><path
         d="m 374.923,23.127 0,-5.186 c 0,-0.99 -0.799,-1.79 -1.79,-1.79 l 0,0 -7.014,0 c -0.989,0 -1.787,0.8 -1.787,1.79 l 0,0 0,5.17 c -0.137,0.039 -0.269,0.078 -0.403,0.121 l 0,0 0,-5.438 c 0,-1.128 0.919,-2.045 2.045,-2.045 l 0,0 7.305,0 c 1.129,0 2.044,0.917 2.044,2.045 l 0,0 0,5.454 c -0.131,-0.041 -0.263,-0.083 -0.4,-0.121"
         id="path2562" /></clipPath><clipPath
       id="clipPath2570"><path
         d="m -0.11319,-0.565491 1.12654,0 0,1.131226 -1.12654,0 0,-1.131226 z"
         id="path2572" /></clipPath><linearGradient
       x1="0"
       y1="0"
       x2="1"
       y2="0"
       id="linearGradient2574"
       gradientUnits="userSpaceOnUse"
       gradientTransform="matrix(0,10.88649,10.88649,0,369.38762,16.784958)"
       spreadMethod="pad"><stop
         id="stop2576"
         style="stop-color:#ed1c24;stop-opacity:1"
         offset="0" /><stop
         id="stop2578"
         style="stop-color:#981015;stop-opacity:1"
         offset="1" /></linearGradient><clipPath
       id="clipPath2586"><path
         d="M 0,792 612,792 612,0 0,0 0,792 z"
         id="path2588" /></clipPath><clipPath
       id="clipPath2598"><path
         d="m 367.262,22.199 0.659,0 0,0.302 c -0.222,0.02 -0.443,0.038 -0.659,0.061 l 0,0 0,-0.363 z"
         id="path2600" /></clipPath><clipPath
       id="clipPath2608"><path
         d="m -0.541977,-2.35008 3.514287,0 0,3.5289 -3.514287,0 0,-3.5289 z"
         id="path2610" /></clipPath><linearGradient
       x1="0"
       y1="0"
       x2="1"
       y2="0"
       id="linearGradient2612"
       gradientUnits="userSpaceOnUse"
       gradientTransform="matrix(0,-3.4897766,-3.4897766,0,367.34532,25.925369)"
       spreadMethod="pad"><stop
         id="stop2614"
         style="stop-color:#454546;stop-opacity:1"
         offset="0" /><stop
         id="stop2616"
         style="stop-color:#110f0d;stop-opacity:1"
         offset="1" /></linearGradient><clipPath
       id="clipPath2624"><path
         d="m 368.893,22.327 c 0.154,-0.128 0.357,-0.193 0.615,-0.193 l 0,0 c 0.268,0 0.477,0.064 0.628,0.187 l 0,0 c 0.047,0.038 0.088,0.08 0.119,0.129 l 0,0 c -0.217,-0.008 -0.433,-0.01 -0.653,-0.01 l 0,0 c -0.279,0 -0.553,0.005 -0.827,0.014 l 0,0 c 0.031,-0.047 0.069,-0.089 0.118,-0.127"
         id="path2626" /></clipPath><clipPath
       id="clipPath2634"><path
         d="m -1.01378,-2.31946 4.53473,0 0,4.55361 -4.53473,0 0,-4.55361 z"
         id="path2636" /></clipPath><linearGradient
       x1="0"
       y1="0"
       x2="1"
       y2="0"
       id="linearGradient2638"
       gradientUnits="userSpaceOnUse"
       gradientTransform="matrix(0,-2.7044525,-2.7044525,0,369.27361,25.075012)"
       spreadMethod="pad"><stop
         id="stop2640"
         style="stop-color:#454546;stop-opacity:1"
         offset="0" /><stop
         id="stop2642"
         style="stop-color:#110f0d;stop-opacity:1"
         offset="1" /></linearGradient><clipPath
       id="clipPath2650"><path
         d="m 370.875,22.475 c 0.016,-0.083 0.046,-0.149 0.091,-0.198 l 0,0 c 0.067,-0.078 0.171,-0.117 0.306,-0.117 l 0,0 c 0.108,0 0.225,0.029 0.342,0.083 l 0,0 c 0.116,0.055 0.228,0.134 0.335,0.239 l 0,0 0,-0.283 0.587,0 0,0.437 c -0.533,-0.075 -1.09,-0.129 -1.661,-0.161"
         id="path2652" /></clipPath><clipPath
       id="clipPath2660"><path
         d="m -1.07475,-1.56516 4.6961,0 0,4.71569 -4.6961,0 0,-4.71569 z"
         id="path2662" /></clipPath><linearGradient
       x1="0"
       y1="0"
       x2="1"
       y2="0"
       id="linearGradient2664"
       gradientUnits="userSpaceOnUse"
       gradientTransform="matrix(0,-2.6115112,-2.6115112,0,371.45911,25.009949)"
       spreadMethod="pad"><stop
         id="stop2666"
         style="stop-color:#454546;stop-opacity:1"
         offset="0" /><stop
         id="stop2668"
         style="stop-color:#110f0d;stop-opacity:1"
         offset="1" /></linearGradient><clipPath
       id="clipPath2676"><path
         d="M 0,792 612,792 612,0 0,0 0,792 z"
         id="path2678" /></clipPath><clipPath
       id="clipPath2696"><path
         d="m 365.949,27.551 c -0.768,0 -1.458,-0.353 -1.914,-0.906 l 0,0 c -0.34,-0.424 -0.544,-0.963 -0.544,-1.547 l 0,0 0,-1.72 c 0.143,-0.051 0.29,-0.099 0.438,-0.146 l 0,0 0,1.866 c 0,1.128 0.919,2.046 2.045,2.046 l 0,0 7.305,0 c 1.129,0 2.044,-0.918 2.044,-2.046 l 0,0 0,-1.85 c 0.075,0.024 0.15,0.048 0.224,0.072 l 0,0 0,2.703 c -0.376,0.896 -1.261,1.528 -2.293,1.528 l 0,0 -7.305,0 z m 0.17,-0.807 c -0.989,0 -1.787,-0.801 -1.787,-1.789 l 0,0 0,-1.844 c 0.391,-0.109 0.808,-0.207 1.238,-0.292 l 0,0 0,2.353 c 0,0.541 0.522,0.98 1.166,0.98 l 0,0 5.832,0 c 0.643,0 1.167,-0.439 1.167,-0.98 l 0,0 0,-2.335 c 0.415,0.086 0.811,0.183 1.188,0.29 l 0,0 0,1.828 c 0,0.988 -0.799,1.789 -1.79,1.789 l 0,0 -7.014,0 z"
         id="path2698" /></clipPath><clipPath
       id="clipPath2706"><path
         d="m -1.00407,-1.00024 2.00859,0 0,2.00024 -2.00859,0 0,-2.00024 z"
         id="path2708" /></clipPath><radialGradient
       cx="0"
       cy="0"
       r="1"
       fx="0"
       fy="0"
       id="radialGradient2710"
       gradientUnits="userSpaceOnUse"
       gradientTransform="matrix(6.1312256,0,0,-6.1312256,369.38762,21.68396)"
       spreadMethod="pad"><stop
         id="stop2712"
         style="stop-color:#f14d3f;stop-opacity:1"
         offset="0" /><stop
         id="stop2714"
         style="stop-color:#b0372c;stop-opacity:1"
         offset="1" /></radialGradient><clipPath
       id="clipPath2722"><path
         d="m 365.974,27.144 c -1.126,0 -2.045,-0.918 -2.045,-2.046 l 0,0 0,-1.866 c 0.134,-0.043 0.266,-0.082 0.403,-0.121 l 0,0 0,1.844 c 0,0.988 0.798,1.789 1.787,1.789 l 0,0 7.014,0 c 0.991,0 1.79,-0.801 1.79,-1.789 l 0,0 0,-1.828 c 0.137,0.038 0.269,0.08 0.4,0.121 l 0,0 0,1.85 c 0,1.128 -0.915,2.046 -2.044,2.046 l 0,0 -7.305,0 z"
         id="path2724" /></clipPath><clipPath
       id="clipPath2732"><path
         d="m -0.11319,-0.565491 1.12654,0 0,1.131226 -1.12654,0 0,-1.131226 z"
         id="path2734" /></clipPath><linearGradient
       x1="0"
       y1="0"
       x2="1"
       y2="0"
       id="linearGradient2736"
       gradientUnits="userSpaceOnUse"
       gradientTransform="matrix(0,10.88649,10.88649,0,369.38762,16.784958)"
       spreadMethod="pad"><stop
         id="stop2738"
         style="stop-color:#f14d3f;stop-opacity:1"
         offset="0" /><stop
         id="stop2740"
         style="stop-color:#b0372c;stop-opacity:1"
         offset="1" /></linearGradient><clipPath
       id="clipPath2748"><path
         d="M 0,792 612,792 612,0 0,0 0,792 z"
         id="path2750" /></clipPath><clipPath
       id="clipPath2760"><path
         d="m 368.022,25.691 -0.41,-1.397 -0.043,0 -0.428,1.397 -0.666,0 0.787,-2.11 0,-1.019 c 0.216,-0.023 0.437,-0.041 0.659,-0.061 l 0,0 0,1.146 0.769,2.044 -0.668,0 z"
         id="path2762" /></clipPath><clipPath
       id="clipPath2770"><path
         d="m -0.541977,-2.35008 3.514287,0 0,3.5289 -3.514287,0 0,-3.5289 z"
         id="path2772" /></clipPath><linearGradient
       x1="0"
       y1="0"
       x2="1"
       y2="0"
       id="linearGradient2774"
       gradientUnits="userSpaceOnUse"
       gradientTransform="matrix(0,-3.4897766,-3.4897766,0,367.34532,25.925369)"
       spreadMethod="pad"><stop
         id="stop2776"
         style="stop-color:#666263;stop-opacity:1"
         offset="0" /><stop
         id="stop2778"
         style="stop-color:#322e2d;stop-opacity:1"
         offset="1" /></linearGradient><clipPath
       id="clipPath2786"><path
         d="m 368.897,24.66 c -0.157,-0.115 -0.236,-0.275 -0.236,-0.475 l 0,0 0,-1.334 c 0,-0.156 0.038,-0.285 0.114,-0.397 l 0,0 c 0.274,-0.009 0.548,-0.014 0.827,-0.014 l 0,0 c 0.22,0 0.436,0.002 0.653,0.01 l 0,0 c 0.072,0.106 0.11,0.236 0.11,0.39 l 0,0 0,1.329 c 0,0.199 -0.077,0.359 -0.232,0.482 l 0,0 c -0.156,0.125 -0.354,0.186 -0.597,0.186 l 0,0 c -0.268,0 -0.481,-0.056 -0.639,-0.177 m 0.43,-2.024 c -0.042,0.04 -0.062,0.094 -0.062,0.165 l 0,0 0,1.405 c 0,0.055 0.022,0.101 0.067,0.134 l 0,0 c 0.044,0.035 0.104,0.054 0.176,0.054 l 0,0 c 0.076,0 0.137,-0.019 0.188,-0.054 l 0,0 c 0.046,-0.033 0.071,-0.079 0.071,-0.134 l 0,0 0,-1.405 c 0,-0.069 -0.023,-0.122 -0.07,-0.162 l 0,0 c -0.047,-0.04 -0.111,-0.059 -0.189,-0.059 l 0,0 c -0.08,0 -0.139,0.019 -0.181,0.056"
         id="path2788" /></clipPath><clipPath
       id="clipPath2796"><path
         d="m -1.01378,-2.31946 4.53473,0 0,4.55361 -4.53473,0 0,-4.55361 z"
         id="path2798" /></clipPath><linearGradient
       x1="0"
       y1="0"
       x2="1"
       y2="0"
       id="linearGradient2800"
       gradientUnits="userSpaceOnUse"
       gradientTransform="matrix(0,-2.7044525,-2.7044525,0,369.27361,25.075012)"
       spreadMethod="pad"><stop
         id="stop2802"
         style="stop-color:#666263;stop-opacity:1"
         offset="0" /><stop
         id="stop2804"
         style="stop-color:#322e2d;stop-opacity:1"
         offset="1" /></linearGradient><clipPath
       id="clipPath2812"><path
         d="m 371.949,24.773 0,-1.954 c -0.054,-0.056 -0.115,-0.102 -0.181,-0.138 l 0,0 c -0.064,-0.037 -0.118,-0.055 -0.163,-0.055 l 0,0 c -0.053,0 -0.095,0.013 -0.117,0.041 l 0,0 c -0.027,0.028 -0.04,0.072 -0.04,0.132 l 0,0 0,1.974 -0.585,0 0,-2.151 c 0,-0.054 0.002,-0.101 0.012,-0.147 l 0,0 c 0.571,0.032 1.128,0.086 1.661,0.161 l 0,0 0,2.137 -0.587,0 z"
         id="path2814" /></clipPath><clipPath
       id="clipPath2822"><path
         d="m -1.07475,-1.56516 4.6961,0 0,4.71569 -4.6961,0 0,-4.71569 z"
         id="path2824" /></clipPath><linearGradient
       x1="0"
       y1="0"
       x2="1"
       y2="0"
       id="linearGradient2826"
       gradientUnits="userSpaceOnUse"
       gradientTransform="matrix(0,-2.6115112,-2.6115112,0,371.45911,25.009949)"
       spreadMethod="pad"><stop
         id="stop2828"
         style="stop-color:#666263;stop-opacity:1"
         offset="0" /><stop
         id="stop2830"
         style="stop-color:#322e2d;stop-opacity:1"
         offset="1" /></linearGradient><clipPath
       id="clipPath2838"><path
         d="M 0,792 612,792 612,0 0,0 0,792 z"
         id="path2840" /></clipPath><clipPath
       id="clipPath2862"><path
         d="m 267.757,24.129 c -0.305,0.32 -0.668,0.543 -1.15,0.543 l 0,0 c -0.924,0 -1.569,-0.721 -1.569,-1.631 l 0,0 c 0,-0.13 -0.029,-0.424 0,-0.544 l 0,0 c -1.391,0.069 -2.71,0.907 -3.535,1.904 l 0,0 c -0.143,-0.244 -0.272,-0.514 -0.272,-0.816 l 0,0 c 0,-0.572 0.367,-1.064 0.816,-1.36 l 0,0 c -0.275,0.009 -0.534,0.029 -0.76,0.153 l 0,0 0,-0.021 c 0,-0.798 0.538,-1.612 1.303,-1.763 l 0,0 c -0.14,-0.038 -0.39,0 -0.543,0 l 0,0 c -0.108,0 -0.17,-0.019 -0.272,0 l 0,0 c 0.213,-0.655 0.899,-1.075 1.632,-1.087 l 0,0 c -0.574,-0.442 -1.264,-0.644 -2.049,-0.644 l 0,0 c -0.135,0 -0.268,0.085 -0.399,0.1 l 0,0 c 0.741,-0.468 1.62,-0.816 2.566,-0.816 l 0,0 c 3.078,0 4.762,2.51 4.762,4.687 l 0,0 c 0,0.071 -0.002,0.142 -0.005,0.213 l 0,0 c 0.327,0.232 0.61,0.479 0.835,0.809 l 0,0 c -0.301,-0.13 -0.75,-0.232 -1.088,-0.271 l 0,0 c 0.346,0.203 0.69,0.702 0.816,1.087 l 0,0 c -0.324,-0.188 -0.706,-0.469 -1.088,-0.543"
         id="path2864" /></clipPath></defs><g
     transform="matrix(1.25,0,0,-1.25,-36.687749,996.85887)"
     id="g10"><path
       d="m 44.802827,726.50855 c -0.997412,0.44891 -2.212783,0.78378 -3.396398,0.78378 -0.472003,0 -1.714799,-0.0476 -1.889454,-0.74048 -0.359415,-1.429 4.810963,-3.14235 3.921808,-6.67155 -0.578817,-2.28639 -2.651587,-4.79075 -7.642979,-4.79075 -1.274551,0 -3.231847,0.31322 -4.845605,0.47922 l 0.476333,4.78787 c 1.185059,-0.54706 2.550546,-0.95123 3.944903,-0.95123 0.521079,0 1.750884,0 1.913992,0.64233 0.343537,1.35827 -4.734461,3.45558 -3.819324,7.08004 0.627893,2.47549 3.070182,4.47897 6.856308,4.47897 2.007815,0 3.545072,-0.19342 5.027478,-0.50231 l -0.547062,-4.59589 z"
       id="path2214"
       style="fill:#231f20;fill-opacity:1;fill-rule:nonzero;stroke:none" /><path
       d="m 59.96234,731.29064 6.953018,0 -6.902498,-7.47698 c 1.095566,-2.69056 2.283512,-5.4836 3.553733,-8.41233 l -7.332641,0 -2.595293,8.36614 6.323681,7.52317 z m -10.902251,0.003 6.198102,-0.003 -4.014187,-15.88931 -6.196659,10e-4 4.012744,15.89076 z"
       id="path2218"
       style="fill:#231f20;fill-opacity:1;fill-rule:nonzero;stroke:none" /><path
       d="m 70.299631,721.47703 -3.506099,9.8139 6.763928,0 1.047933,-5.02603 3.682198,5.02603 6.670105,0 -8.462849,-9.8139 -1.53437,-6.07541 -6.195215,0 1.534369,6.07541 z"
       id="path2222"
       style="fill:#231f20;fill-opacity:1;fill-rule:nonzero;stroke:none" /><path
       d="m 96.032004,725.4316 -1.052263,-4.17152 -5.626503,0 -1.482406,-5.86467 -6.196658,0 4.012744,15.89509 13.102043,0 -1.052263,-4.16864 -6.999207,0 -0.427256,-1.69026 5.721769,0 z"
       id="path2226"
       style="fill:#231f20;fill-opacity:1;fill-rule:nonzero;stroke:none" /><path
       d="m 104.53469,723.33126 c -0.58892,-2.33547 0.7578,-3.92902 2.67324,-3.92902 1.91399,0 4.06759,1.59355 4.65796,3.92902 0.58892,2.33981 -0.75059,3.95501 -2.66747,3.95501 -1.91543,0 -4.07336,-1.6152 -4.66373,-3.95501 m 13.52641,0 c -1.47952,-5.86034 -6.92703,-8.24344 -11.94296,-8.24344 -5.01449,0 -9.259626,2.38455 -7.780107,8.24633 1.486736,5.88776 6.935697,8.26943 11.950187,8.26943 5.01304,0 9.25962,-2.386 7.77288,-8.27232"
       id="path2230"
       style="fill:#231f20;fill-opacity:1;fill-rule:nonzero;stroke:none" /><path
       d="m 122.38592,731.28718 9.88463,0 c 3.83087,0 5.34215,-1.87791 4.5728,-4.92933 -0.43303,-1.71624 -1.76532,-3.2405 -3.90738,-4.14554 0.23095,-2.26474 0.57593,-4.55258 1.04505,-6.81733 l -6.45792,0 -0.46768,9.00702 c 0.29591,-0.0476 0.63945,-0.0938 0.99453,-0.0938 1.08835,0 2.54044,0.33343 2.78005,1.55025 0.21219,1.11866 -0.4821,1.38281 -1.52282,1.38281 l -2.05545,0 -2.98935,-11.84626 -5.89065,0 4.01419,15.8922 z"
       id="path2234"
       style="fill:#231f20;fill-opacity:1;fill-rule:nonzero;stroke:none" /><path
       d="m 149.79845,715.39455 c -1.46653,-0.0924 -3.74283,-0.30746 -4.40392,-0.30746 -5.01448,0 -9.26251,2.38311 -7.7801,8.2449 1.48529,5.88632 6.93714,8.26654 11.94874,8.26654 1.20526,0 2.66458,-0.21507 4.07192,-0.45035 l -0.63511,-4.48186 c -1.11577,0.3623 -2.25608,0.62067 -3.48445,0.62067 -3.54651,0 -5.32482,-2.45528 -5.70589,-3.955 -0.58892,-2.33692 0.75925,-3.92903 2.6718,-3.92903 2.03379,0 3.4729,0.25982 4.93654,0.61635 l -1.61953,-4.62476 z"
       id="path2238"
       style="fill:#231f20;fill-opacity:1;fill-rule:nonzero;stroke:none" /><path
       d="m 168.73643,731.28011 c 5.52114,0 1.71047,3.83231 4.53239,4.34329 1.91687,0.35652 3.11059,0.70584 3.33,2.12617 0.7015,-0.99452 1.47951,-2.92439 -1.8245,-4.41979 -3.85253,-1.75233 -1.35539,-6.20532 -6.63114,-6.20532"
       id="path2242"
       style="fill:#231f20;fill-opacity:1;fill-rule:nonzero;stroke:none" /><path
       d="m 168.15655,727.1246 -6.17697,-0.004 -0.42581,-1.69315 6.36121,0 -1.05227,-4.16863 -6.36121,0 -0.42581,-1.69604 7.75268,0 -1.05082,-4.16863 -13.95222,0 4.0113,15.8922 14.49672,5.4e-4"
       id="path2246"
       style="fill:#231f20;fill-opacity:1;fill-rule:nonzero;stroke:none"
       inkscape:connector-curvature="0"
       sodipodi:nodetypes="cccccccccccc" /><path
       d="m 76.263031,750.72055 c 0,0 -8.607192,-1.67149 -8.140963,-1.35682 0,0 51.187032,33.13256 52.015562,33.70272 0.5153,0.91658 1.14031,1.87213 1.86636,2.83346 5.47783,7.87681 15.54722,11.80006 25.30194,9.02723 12.2764,-3.49311 19.4084,-16.27615 15.91385,-28.56266 -3.30691,-11.60376 -16.04809,-20.33942 -29.69431,-15.41586 -2.74397,-0.50088 -87.792494,-17.18985 -87.792494,-17.18985 l 30.530055,16.96178 z"
       id="path2250"
       style="fill:#231f20;fill-opacity:1;fill-rule:nonzero;stroke:none" /><path
       d="m 154.04344,772.64269 c 1.33518,-5.9455 0.0534,-12.10174 -3.4296,-16.80011 l -0.33343,-0.18765 c -2.87388,-1.60077 -5.96282,-2.42208 -9.02146,-2.52168 3.59992,2.10597 5.71167,5.52835 7.34563,9.00125 0.98731,2.09442 1.79996,4.21627 2.6718,6.09706 0.81554,1.77543 1.6816,3.31701 2.76706,4.41113"
       id="path2254"
       style="fill:#960a2c;fill-opacity:1;fill-rule:nonzero;stroke:none" /><path
       d="m 155.72648,773.87409 c 0.12269,0.0606 0.26126,0.11259 0.40272,0.16455 1.71047,0.22229 3.03843,-0.0765 4.36927,-1.05082 0.0101,-5.18048 -2.04245,-10.26714 -5.8127,-14.02873 1.96162,4.58002 2.37878,9.84277 1.04071,14.915"
       id="path2258"
       style="fill:#f7960f;fill-opacity:1;fill-rule:evenodd;stroke:none" /><path
       d="m 153.41901,774.91567 c -1.72346,-1.45643 -2.54333,-2.83779 -3.51909,-4.81818 -1.10423,-2.2431 -1.96884,-4.56991 -2.99224,-6.84332 -1.83604,-4.10512 -4.18307,-7.19407 -8.1987,-9.23364 -0.006,-0.004 -0.34065,-0.16166 -0.69429,-0.31034 -0.17321,-0.0794 -0.34642,-0.15445 -0.49365,-0.20785 -0.0606,-0.0332 -0.11981,-0.0462 -0.16744,-0.0606 -0.87616,0.11548 -2.81903,0.90359 -3.6158,1.38281 l -0.12702,0.0722 c 0,0 -57.605979,-12.34424 -67.939517,-14.32174 0.177542,-0.026 46.533397,16.2646 56.777447,20.40437 3.31701,1.34095 6.78125,2.62705 10.20074,4.01563 3.43826,1.38859 6.82167,2.88398 9.95247,4.62476 3.59992,2.0006 7.00354,4.44578 9.99578,7.28068 0.11836,-0.2757 0.27569,-0.63078 0.42292,-0.98154 0.12991,-0.31178 0.25116,-0.61201 0.34065,-0.83719 l 0.0577,-0.16599 z"
       id="path2262"
       style="fill:#960a2c;fill-opacity:1;fill-rule:nonzero;stroke:none" /><path
       d="m 123.09638,781.41747 c 1.37126,2.59818 3.52342,5.36668 7.09736,7.65886 7.01364,1.24279 14.41701,-1.45065 19.24818,-7.18686 -1.58633,-0.88194 -3.69663,-1.01473 -6.13171,-0.88771 -2.49569,0.12125 -5.33059,0.26992 -8.17416,0.58026 -5.43452,0.59036 -8.9796,-1.23269 -11.16784,-3.19865 -1.08257,-0.98153 -1.8245,-1.9876 -2.29217,-2.74396 -0.24394,-0.38684 -0.40705,-0.69863 -0.51531,-0.9137 l -0.10104,-0.21507 c -1.12876,-0.66398 -31.938844,-16.94013 -35.460821,-18.75597 0,0 37.145311,24.79241 37.497511,25.6628 m 28.56843,-2.69056 c -2.75696,-2.53611 -6.10573,-4.96397 -9.79658,-7.02952 -3.48734,-1.9342 -21.63418,-8.83381 -38.96115,-15.26575 -11.719238,-4.34906 -22.784597,-8.46862 -28.870111,-10.67852 l 48.645141,26.26183 0.0534,0.11836 c 2.82768,6.75382 7.99373,7.46688 13.38928,7.2749 2.9244,-0.0996 5.7824,-0.51386 8.30696,-0.57449 2.46539,-0.0563 4.64786,0.20208 6.27172,1.40735 0.33776,-0.48932 0.65099,-0.99741 0.96133,-1.51416"
       id="path2266"
       style="fill:#960a2c;fill-opacity:1;fill-rule:evenodd;stroke:none" /><path
       d="m 113.03666,754.38774 23.50631,5.93251 -2.67757,1.59355 -20.82874,-7.52606 z"
       id="path2270"
       style="fill:#231f20;fill-opacity:1;fill-rule:nonzero;stroke:none" /><path
       d="m 152.0707,781.54363 c 1.10423,1.56179 1.71335,4.00552 0.90936,6.56184 1.40446,-1.08113 2.6718,-2.3629 3.76159,-3.8352 -0.9902,-1.40735 -2.21856,-2.85078 -3.64323,-4.29277 -0.32621,0.54273 -0.66253,1.05515 -1.02772,1.56613 m -17.12634,9.66522 c 5.30318,1.70759 10.96432,1.06814 15.62661,-1.5156 1.19661,-2.86666 1.25579,-4.70848 0.2526,-6.54308 -4.12677,4.83405 -9.91205,7.67329 -15.87921,8.05868"
       id="path2274"
       style="fill:#f7960f;fill-opacity:1;fill-rule:evenodd;stroke:none" /><path
       d="m 153.95467,778.35234 c 1.43044,1.46364 2.69344,2.95182 3.75581,4.41113 0.0837,-0.1429 0.16888,-0.2858 0.24683,-0.42726 1.25723,-2.26763 2.01936,-4.68249 2.30949,-7.11468 -1.82883,0.92957 -3.79767,1.0234 -5.22811,0.56727 -0.30457,0.86029 -0.66831,1.71624 -1.08402,2.56354"
       id="path2278"
       style="fill:#f7960f;fill-opacity:1;fill-rule:nonzero;stroke:none" /><path
       d="m 102.49007,739.26965 c -0.43592,0.19631 -0.96566,0.3421 -1.48385,0.3421 -0.20497,0 -0.74626,-0.0188 -0.8242,-0.32045 -0.15734,-0.62645 2.10164,-1.37559 1.71191,-2.91573 -0.2526,-0.99886 -1.15908,-2.09154 -3.337217,-2.09154 -0.557165,0 -1.411678,0.13569 -2.116073,0.2093 l 0.209298,2.09154 c 0.516749,-0.23817 1.111443,-0.41571 1.720572,-0.41571 0.228062,0 0.76502,0 0.835748,0.28002 0.150117,0.59614 -2.066997,1.50984 -1.667166,3.09184 0.272809,1.08113 1.342393,1.95585 2.993678,1.95585 0.87761,0 1.54881,-0.0823 2.19691,-0.21796 l -0.23961,-2.00926 z"
       id="path2282"
       style="fill:#231f20;fill-opacity:1;fill-rule:nonzero;stroke:none" /><path
       d="m 104.34935,741.36018 2.705,0 -1.75089,-6.94003 -2.70643,0 1.75232,6.94003 z"
       id="path2286"
       style="fill:#231f20;fill-opacity:1;fill-rule:nonzero;stroke:none" /><path
       d="m 109.89546,737.8854 c -0.25693,-1.02051 0.33054,-1.71624 1.16629,-1.71624 0.83575,0 1.77831,0.69573 2.03524,1.71624 0.25693,1.02051 -0.3291,1.72635 -1.16485,1.72635 -0.83575,0 -1.77975,-0.70584 -2.03668,-1.72635 m 5.90653,0 c -0.64522,-2.56065 -3.02544,-3.60137 -5.21513,-3.60137 -2.18969,0 -4.0445,1.04216 -3.39784,3.60137 0.64955,2.56931 3.02977,3.61003 5.21801,3.61003 2.18969,0 4.0445,-1.04072 3.39496,-3.61003"
       id="path2290"
       style="fill:#231f20;fill-opacity:1;fill-rule:nonzero;stroke:none" /><path
       d="m 120.33422,741.35946 -0.96998,-3.83809 c -0.18909,-0.75059 -0.16311,-1.26156 0.60191,-1.26156 0.76357,0 1.04793,0.51097 1.23702,1.26156 l 0.96854,3.83809 2.70644,0 -1.24568,-4.93222 c -0.27281,-1.08257 -1.63541,-2.14205 -4.16575,-2.14205 -2.53034,0 -3.35743,1.05948 -3.08317,2.14205 l 1.24424,4.93222 2.70643,0 z"
       id="path2294"
       style="fill:#231f20;fill-opacity:1;fill-rule:nonzero;stroke:none" /><path
       d="m 126.91844,738.15475 -1.29764,3.20442 3.05574,0 0.41283,-1.51994 1.10567,1.51994 2.85078,0 -3.02544,-3.39207 1.48962,-3.54796 -3.0875,0 -0.52974,1.87213 -1.49395,-1.87213 -2.92296,0 3.44259,3.73561 z"
       id="path2298"
       style="fill:#231f20;fill-opacity:1;fill-rule:nonzero;stroke:none" /><path
       d="m 141.93073,738.79823 -0.46046,-1.82017 -2.45817,0 -0.64521,-2.56065 -2.70644,10e-4 1.75233,6.94003 5.72033,-10e-4 -0.45902,-1.81872 -3.05719,0 -0.1862,-0.74048 2.50003,0 z"
       id="path2302"
       style="fill:#231f20;fill-opacity:1;fill-rule:nonzero;stroke:none" /><path
       d="m 152.14966,741.35801 2.70499,0 -1.29187,-5.11841 3.06729,0 -0.46045,-1.82161 -5.77374,0 1.75378,6.94002 z"
       id="path2306"
       style="fill:#231f20;fill-opacity:1;fill-rule:nonzero;stroke:none" /><path
       d="m 158.73676,741.35729 2.70644,0 -1.29332,-5.11841 3.0673,0 -0.46046,-1.82162 -5.77229,0 1.75233,6.94003 z"
       id="path2310"
       style="fill:#231f20;fill-opacity:1;fill-rule:nonzero;stroke:none" /><path
       d="m 169.7747,739.26547 c -0.43448,0.1963 -0.9671,0.34353 -1.48385,0.34353 -0.20641,0 -0.7477,-0.0202 -0.82565,-0.32188 -0.15589,-0.62356 2.10309,-1.37559 1.71336,-2.91285 -0.2526,-1.0003 -1.15763,-2.09298 -3.33722,-2.09298 -0.55716,0 -1.41023,0.13713 -2.11463,0.2093 l 0.20641,2.09153 c 0.51819,-0.24105 1.11289,-0.41715 1.72346,-0.41715 0.22662,0 0.76358,0 0.83575,0.28147 0.14867,0.59325 -2.06844,1.50839 -1.66717,3.09039 0.27281,1.08113 1.33951,1.95585 2.99224,1.95585 0.87761,0 1.5488,-0.0823 2.19691,-0.21795 l -0.23961,-2.00926 z"
       id="path2314"
       style="fill:#231f20;fill-opacity:1;fill-rule:nonzero;stroke:none" /><path
       d="m 146.94752,739.65029 0.16744,-2.82769 -1.46075,0 1.47807,-2.39466 2.55488,0 -0.39839,6.92704 -4.21482,0 c 0,0 -3.45125,-6.92704 -3.43393,-6.92704 l 2.69922,0 2.59385,5.22235 0.0144,0 z"
       id="path2318"
       style="fill:#231f20;fill-opacity:1;fill-rule:nonzero;stroke:none" /><g
       id="g2530"><g
         clip-path="url(#clipPath2534)"
         id="g2532"><g
           id="g2538"><g
             id="g2540"><g
               clip-path="url(#clipPath2544)"
               id="g2542"><path
                 d="m 365.974,27.582 c -0.785,0 -1.483,-0.366 -1.939,-0.937 l 0,0 c 0.456,0.553 1.146,0.906 1.914,0.906 l 0,0 7.305,0 c 1.006,0 1.875,-0.601 2.265,-1.464 l 0,0 0,0.084 c -0.402,0.834 -1.255,1.411 -2.24,1.411 l 0,0 -7.305,0 z m -2.483,-9.788 c 0,-0.985 0.577,-1.837 1.411,-2.237 l 0,0 9.449,0 c 0.509,0.244 0.923,0.657 1.168,1.166 l 0,0 0,6.588 c -0.065,-0.021 -0.13,-0.042 -0.196,-0.063 l 0,0 0,-5.454 c 0,-1.128 -0.915,-2.045 -2.044,-2.045 l 0,0 -7.305,0 c -1.126,0 -2.045,0.917 -2.045,2.045 l 0,0 0,5.438 c -0.148,0.047 -0.295,0.095 -0.438,0.146 l 0,0 0,-5.584 z m 10.244,5.043 0,-0.116 c 0,-0.541 -0.524,-0.979 -1.167,-0.979 l 0,0 -5.832,0 c -0.644,0 -1.166,0.438 -1.166,0.979 l 0,0 0,0.098 c -0.43,0.085 -0.847,0.183 -1.238,0.292 l 0,0 0,-5.17 c 0,-0.99 0.798,-1.79 1.787,-1.79 l 0,0 7.014,0 c 0.991,0 1.79,0.8 1.79,1.79 l 0,0 0,5.186 c -0.377,-0.107 -0.773,-0.204 -1.188,-0.29"
                 id="path2554"
                 style="fill:url(#radialGradient2548);stroke:none" /></g></g></g></g></g><g
       id="g2556"><g
         clip-path="url(#clipPath2560)"
         id="g2558"><g
           id="g2564"><g
             id="g2566"><g
               clip-path="url(#clipPath2570)"
               id="g2568"><path
                 d="m 374.923,23.127 0,-5.186 c 0,-0.99 -0.799,-1.79 -1.79,-1.79 l 0,0 -7.014,0 c -0.989,0 -1.787,0.8 -1.787,1.79 l 0,0 0,5.17 c -0.137,0.039 -0.269,0.078 -0.403,0.121 l 0,0 0,-5.438 c 0,-1.128 0.919,-2.045 2.045,-2.045 l 0,0 7.305,0 c 1.129,0 2.044,0.917 2.044,2.045 l 0,0 0,5.454 c -0.131,-0.041 -0.263,-0.083 -0.4,-0.121"
                 id="path2580"
                 style="fill:url(#linearGradient2574);stroke:none" /></g></g></g></g></g><g
       id="g2594"><g
         clip-path="url(#clipPath2598)"
         id="g2596"><g
           id="g2602"><g
             id="g2604"><g
               clip-path="url(#clipPath2608)"
               id="g2606"><path
                 d="m 367.262,22.199 0.659,0 0,0.302 c -0.222,0.02 -0.443,0.038 -0.659,0.061 l 0,0 0,-0.363 z"
                 id="path2618"
                 style="fill:url(#linearGradient2612);stroke:none" /></g></g></g></g></g><g
       id="g2620"><g
         clip-path="url(#clipPath2624)"
         id="g2622"><g
           id="g2628"><g
             id="g2630"><g
               clip-path="url(#clipPath2634)"
               id="g2632"><path
                 d="m 368.893,22.327 c 0.154,-0.128 0.357,-0.193 0.615,-0.193 l 0,0 c 0.268,0 0.477,0.064 0.628,0.187 l 0,0 c 0.047,0.038 0.088,0.08 0.119,0.129 l 0,0 c -0.217,-0.008 -0.433,-0.01 -0.653,-0.01 l 0,0 c -0.279,0 -0.553,0.005 -0.827,0.014 l 0,0 c 0.031,-0.047 0.069,-0.089 0.118,-0.127"
                 id="path2644"
                 style="fill:url(#linearGradient2638);stroke:none" /></g></g></g></g></g><g
       id="g2646"><g
         clip-path="url(#clipPath2650)"
         id="g2648"><g
           id="g2654"><g
             id="g2656"><g
               clip-path="url(#clipPath2660)"
               id="g2658"><path
                 d="m 370.875,22.475 c 0.016,-0.083 0.046,-0.149 0.091,-0.198 l 0,0 c 0.067,-0.078 0.171,-0.117 0.306,-0.117 l 0,0 c 0.108,0 0.225,0.029 0.342,0.083 l 0,0 c 0.116,0.055 0.228,0.134 0.335,0.239 l 0,0 0,-0.283 0.587,0 0,0.437 c -0.533,-0.075 -1.09,-0.129 -1.661,-0.161"
                 id="path2670"
                 style="fill:url(#linearGradient2664);stroke:none" /></g></g></g></g></g><g
       id="g2692"><g
         clip-path="url(#clipPath2696)"
         id="g2694"><g
           id="g2700"><g
             id="g2702"><g
               clip-path="url(#clipPath2706)"
               id="g2704"><path
                 d="m 365.949,27.551 c -0.768,0 -1.458,-0.353 -1.914,-0.906 l 0,0 c -0.34,-0.424 -0.544,-0.963 -0.544,-1.547 l 0,0 0,-1.72 c 0.143,-0.051 0.29,-0.099 0.438,-0.146 l 0,0 0,1.866 c 0,1.128 0.919,2.046 2.045,2.046 l 0,0 7.305,0 c 1.129,0 2.044,-0.918 2.044,-2.046 l 0,0 0,-1.85 c 0.075,0.024 0.15,0.048 0.224,0.072 l 0,0 0,2.703 c -0.376,0.896 -1.261,1.528 -2.293,1.528 l 0,0 -7.305,0 z m 0.17,-0.807 c -0.989,0 -1.787,-0.801 -1.787,-1.789 l 0,0 0,-1.844 c 0.391,-0.109 0.808,-0.207 1.238,-0.292 l 0,0 0,2.353 c 0,0.541 0.522,0.98 1.166,0.98 l 0,0 5.832,0 c 0.643,0 1.167,-0.439 1.167,-0.98 l 0,0 0,-2.335 c 0.415,0.086 0.811,0.183 1.188,0.29 l 0,0 0,1.828 c 0,0.988 -0.799,1.789 -1.79,1.789 l 0,0 -7.014,0 z"
                 id="path2716"
                 style="fill:url(#radialGradient2710);stroke:none" /></g></g></g></g></g><g
       id="g2718"><g
         clip-path="url(#clipPath2722)"
         id="g2720"><g
           id="g2726"><g
             id="g2728"><g
               clip-path="url(#clipPath2732)"
               id="g2730"><path
                 d="m 365.974,27.144 c -1.126,0 -2.045,-0.918 -2.045,-2.046 l 0,0 0,-1.866 c 0.134,-0.043 0.266,-0.082 0.403,-0.121 l 0,0 0,1.844 c 0,0.988 0.798,1.789 1.787,1.789 l 0,0 7.014,0 c 0.991,0 1.79,-0.801 1.79,-1.789 l 0,0 0,-1.828 c 0.137,0.038 0.269,0.08 0.4,0.121 l 0,0 0,1.85 c 0,1.128 -0.915,2.046 -2.044,2.046 l 0,0 -7.305,0 z"
                 id="path2742"
                 style="fill:url(#linearGradient2736);stroke:none" /></g></g></g></g></g><g
       id="g2756"><g
         clip-path="url(#clipPath2760)"
         id="g2758"><g
           id="g2764"><g
             id="g2766"><g
               clip-path="url(#clipPath2770)"
               id="g2768"><path
                 d="m 368.022,25.691 -0.41,-1.397 -0.043,0 -0.428,1.397 -0.666,0 0.787,-2.11 0,-1.019 c 0.216,-0.023 0.437,-0.041 0.659,-0.061 l 0,0 0,1.146 0.769,2.044 -0.668,0 z"
                 id="path2780"
                 style="fill:url(#linearGradient2774);stroke:none" /></g></g></g></g></g><g
       id="g2782"><g
         clip-path="url(#clipPath2786)"
         id="g2784"><g
           id="g2790"><g
             id="g2792"><g
               clip-path="url(#clipPath2796)"
               id="g2794"><path
                 d="m 368.897,24.66 c -0.157,-0.115 -0.236,-0.275 -0.236,-0.475 l 0,0 0,-1.334 c 0,-0.156 0.038,-0.285 0.114,-0.397 l 0,0 c 0.274,-0.009 0.548,-0.014 0.827,-0.014 l 0,0 c 0.22,0 0.436,0.002 0.653,0.01 l 0,0 c 0.072,0.106 0.11,0.236 0.11,0.39 l 0,0 0,1.329 c 0,0.199 -0.077,0.359 -0.232,0.482 l 0,0 c -0.156,0.125 -0.354,0.186 -0.597,0.186 l 0,0 c -0.268,0 -0.481,-0.056 -0.639,-0.177 m 0.43,-2.024 c -0.042,0.04 -0.062,0.094 -0.062,0.165 l 0,0 0,1.405 c 0,0.055 0.022,0.101 0.067,0.134 l 0,0 c 0.044,0.035 0.104,0.054 0.176,0.054 l 0,0 c 0.076,0 0.137,-0.019 0.188,-0.054 l 0,0 c 0.046,-0.033 0.071,-0.079 0.071,-0.134 l 0,0 0,-1.405 c 0,-0.069 -0.023,-0.122 -0.07,-0.162 l 0,0 c -0.047,-0.04 -0.111,-0.059 -0.189,-0.059 l 0,0 c -0.08,0 -0.139,0.019 -0.181,0.056"
                 id="path2806"
                 style="fill:url(#linearGradient2800);stroke:none" /></g></g></g></g></g><g
       id="g2808"><g
         clip-path="url(#clipPath2812)"
         id="g2810"><g
           id="g2816"><g
             id="g2818"><g
               clip-path="url(#clipPath2822)"
               id="g2820"><path
                 d="m 371.949,24.773 0,-1.954 c -0.054,-0.056 -0.115,-0.102 -0.181,-0.138 l 0,0 c -0.064,-0.037 -0.118,-0.055 -0.163,-0.055 l 0,0 c -0.053,0 -0.095,0.013 -0.117,0.041 l 0,0 c -0.027,0.028 -0.04,0.072 -0.04,0.132 l 0,0 0,1.974 -0.585,0 0,-2.151 c 0,-0.054 0.002,-0.101 0.012,-0.147 l 0,0 c 0.571,0.032 1.128,0.086 1.661,0.161 l 0,0 0,2.137 -0.587,0 z"
                 id="path2832"
                 style="fill:url(#linearGradient2826);stroke:none" /></g></g></g></g></g></g></svg>