<?xml version="1.0" encoding="UTF-8" standalone="no"?>
<svg xmlns:rdf="http://www.w3.org/1999/02/22-rdf-syntax-ns#" xmlns="http://www.w3.org/2000/svg" height="77.82301" width="69.65305" version="1.1" xmlns:cc="http://creativecommons.org/ns#" xmlns:dc="http://purl.org/dc/elements/1.1/" viewBox="0 0 69.65305 77.82301"><defs><clipPath id="clip-path" transform="translate(-0.00811 0.04386)"><rect width="69.64873" height="77.78614" fill="none"/></clipPath></defs><g clip-path="url(#clip-path)"><path d="M50.78062,11.98843a34.81688,34.81688,0,1,1-31.892,0,11.00463,11.00463,0,0,1-.07189-1.27383A12.64625,12.64625,0,0,1,24.97946.13355a1.05557,1.05557,0,0,1,1.17091,1.75666,10.53965,10.53965,0,0,0-2.537,3.2154,9.09247,9.09247,0,0,0-.85251,2.22922,11.53576,11.53576,0,0,1,2.05423-2.35249,1.05359,1.05359,0,1,1,1.53041,1.44847h0a8.86612,8.86612,0,0,0-1.42769,3.08186h0a8.28086,8.28086,0,0,0,2.05423,7.33483,3.91332,3.91332,0,0,0,.93468.74992l.52382.28764a10.47969,10.47969,0,0,0,1.62285-7.12937,1.068,1.068,0,1,1,2.05423-.58555,11.46607,11.46607,0,0,1,.9244,4.46869,11.37393,11.37393,0,0,1-.84223,4.48925,13.80234,13.80234,0,0,0,5.28965,0,11.37375,11.37375,0,0,1-.84224-4.48924,11.46617,11.46617,0,0,1,.85251-4.44816,1.068,1.068,0,1,1,2.05423.58556,10.40779,10.40779,0,0,0,1.62285,7.13964l.52383-.28764a3.91352,3.91352,0,0,0,.93468-.74992,8.28088,8.28088,0,0,0,2.05423-7.33483,8.91757,8.91757,0,0,0-1.42769-3.08186,1.05359,1.05359,0,1,1,1.5304-1.44847A11.54637,11.54637,0,0,1,46.8365,7.36565a9.09234,9.09234,0,0,0-.77034-2.21894,10.53965,10.53965,0,0,0-2.537-3.22568A1.05557,1.05557,0,0,1,44.7001.16437h0a12.64629,12.64629,0,0,1,6.1627,10.58105,11.04716,11.04716,0,0,1-.0719,1.27383" transform="translate(-0.00811 0.04386)" fill="#dfcaa3"/></g><path d="M60.32253,24.63433s-.0719.39037-.18489.80129a6.77392,6.77392,0,0,1-.226.68828,30.06193,30.06193,0,0,1,5.13558,16.81668,30.47319,30.47319,0,0,1-.27732,4.10914l-9.244-2.19839-2.68078-4.4276L50.9655,41.903l2.60887-3.71878.38-4.95152,1.4585-.08218a5.669,5.669,0,0,0,2.18776-.40064c1.29416-.65747,1.64338-2.84559,1.69474-3.277l.10271-.78073c0-.24655-.12326-.452-.34922-.35955l-4.37551,2.13676c.68816-.40065,4.735-2.69149,4.735-7.25265a8.46509,8.46509,0,0,0-4.04684-7.00609,8.34124,8.34124,0,0,1,2.05423,2.599,7.19214,7.19214,0,0,1,.26706,5.80417,6.46206,6.46206,0,0,0-2.41372-5.00289,7.19183,7.19183,0,0,1,1.18118,2.56822,6.73973,6.73973,0,0,1-1.705,5.99935,3.60526,3.60526,0,0,1-.86277.69856,8.13369,8.13369,0,0,1-1.02712.50337,8.3631,8.3631,0,0,1-1.68446-6.25617,7.55156,7.55156,0,0,0-.54438,2.91749,7.34611,7.34611,0,0,0,.95522,3.81123,11.17341,11.17341,0,0,1-6.06,0,10.96875,10.96875,0,0,1-2.65-1.17111L42.574,31.7637l-3.3792,3.21541,2.60887-3.616.47248-6.82118,2.05423-.12328a7.80488,7.80488,0,0,0,3.01972-.55473c1.78718-.91429,2.25965-3.92424,2.34183-4.52006l.14379-1.07865c.06163-.339-.16434-.62665-.48274-.50337l-6.04972,2.95858c.95522-.54446,6.53246-3.71878,6.53246-9.9955,0-6.53354-5.57724-9.65649-5.57724-9.65649a11.49513,11.49513,0,0,1,2.83484,3.58523,9.91484,9.91484,0,0,1,.31841,8.03338A8.90712,8.90712,0,0,0,44.08382,5.7939a9.8524,9.8524,0,0,1,1.62285,3.53386,9.24665,9.24665,0,0,1-2.3521,8.27993,4.97143,4.97143,0,0,1-1.19146.95538,11.18487,11.18487,0,0,1-1.39688.69856,11.53788,11.53788,0,0,1-2.311-8.62921,10.408,10.408,0,0,0-.76006,3.99614A10.13041,10.13041,0,0,0,39.00987,19.878a15.40438,15.40438,0,0,1-8.36073,0,10.13036,10.13036,0,0,0,1.3558-5.25971,10.40812,10.40812,0,0,0-.80115-3.98587,11.52759,11.52759,0,0,1-2.2802,8.60866,11.19517,11.19517,0,0,1-1.39688-.69856,4.97119,4.97119,0,0,1-1.19146-.95538,9.24661,9.24661,0,0,1-2.35209-8.27993A9.85245,9.85245,0,0,1,25.606,5.77335,8.90714,8.90714,0,0,0,22.23706,12.687a9.91481,9.91481,0,0,1,.38-8.02311,11.495,11.495,0,0,1,2.83483-3.58523,11.57285,11.57285,0,0,0-5.57724,9.6565c0,6.287,5.57724,9.451,6.53246,9.99549l-6.03944-2.94831c-.31841-.12328-.54437.16437-.48275.50337l.1438,1.07865c.0719.59583.54437,3.60578,2.34182,4.52006a7.80511,7.80511,0,0,0,3.01972.55474l2.05423.12327.46221,6.83146,2.60887,3.616L27.15694,31.7637l-.29786-3.08186a10.96892,10.96892,0,0,1-2.65,1.17111,11.17341,11.17341,0,0,1-6.06,0,7.3461,7.3461,0,0,0,.88333-3.81123,7.55166,7.55166,0,0,0-.55464-2.897,8.36314,8.36314,0,0,1-1.68447,6.25617,8.14317,8.14317,0,0,1-1.02712-.50337,3.60532,3.60532,0,0,1-.86278-.69855,6.73978,6.73978,0,0,1-1.705-5.99936,7.19162,7.19162,0,0,1,1.18118-2.56821,6.462,6.462,0,0,0-2.41372,5.00288,7.1921,7.1921,0,0,1,.27733-5.82472,8.34124,8.34124,0,0,1,2.05423-2.599,8.46511,8.46511,0,0,0-4.04684,7.00609c0,4.56115,4.04684,6.852,4.735,7.25265l-4.37552-2.16757c-.23624-.09246-.39031.113-.34922.35955l.10271.78073c.05135.43146.40057,2.61958,1.69474,3.277a5.66881,5.66881,0,0,0,2.18776.40065l1.4585.08218.339,4.95152,2.60888,3.73933-1.83854-1.469L14.1742,44.88215l-9.244,2.19839a30.46493,30.46493,0,0,1-.27733-4.10914A30.062,30.062,0,0,1,9.78841,26.15472a6.77392,6.77392,0,0,1-.226-.68828c-.113-.41092-.18488-.80129-.18488-.80129a31.38016,31.38016,0,1,0,50.986,0Z" transform="translate(-0.00811 0.04386)" fill="#2b5134"/><path d="M60.04521,20.50464a5.41458,5.41458,0,0,1,.26705,1.02729,9.46485,9.46485,0,0,1,.1438,1.31493,32.56164,32.56164,0,1,1-51.26337,0,9.44344,9.44344,0,0,1,.1438-1.31493,5.39434,5.39434,0,0,1,.26705-1.02729,33.75351,33.75351,0,1,0,50.44167,0Z" transform="translate(-0.00811 0.04386)" fill="#2b5134"/><path d="M11.18529,29.52422s.20543,1.808,1.02712,2.23948a11.88193,11.88193,0,0,0,3.08135.39037A15.66312,15.66312,0,0,1,11.18529,29.52422Z" transform="translate(-0.00811 0.04386)" fill="#fff"/><path d="M19.01192,34.26l-1.79746-.83211a.23626.23626,0,0,0-.32867.17464,1.11982,1.11982,0,0,0,.38,1.10947,1.294,1.294,0,0,0,1.82826-.08218.2363.2363,0,0,0-.07189-.3801Z" transform="translate(-0.00811 0.04386)" fill="#fff"/><path d="M23.21282,34.26l1.79745-.83211a.23626.23626,0,0,1,.32868.17464,1.11984,1.11984,0,0,1-.38,1.10947,1.294,1.294,0,0,1-1.82827-.08218.23629.23629,0,0,1,.0719-.3801Z" transform="translate(-0.00811 0.04386)" fill="#fff"/><polygon points="20.072 41.423 20.565 42.091 21.633 42.091 22.126 41.423 20.072 41.423 20.072 41.423" fill="#fff"/><path d="M22.29869,37.71169H19.91578l-.66763.84238-.28759,1.27383.70871.96565h.76007l-.69844-1.02729.113-.63691a1.73563,1.73563,0,0,0,2.45341.08359q.04319-.04037.08357-.08359l.113.63691-.69844,1.02729h.76007l.70871-.96565-.28759-1.27383-.66763-.84238Z" transform="translate(-0.00811 0.04386)" fill="#fff"/><path d="M58.47371,29.52422s-.20542,1.808-1.02711,2.23948a11.88193,11.88193,0,0,1-3.08135.39037A15.67327,15.67327,0,0,0,58.47371,29.52422Z" transform="translate(-0.00811 0.04386)" fill="#fff"/><path d="M50.64709,34.26l1.79746-.83211a.23626.23626,0,0,1,.32867.17464,1.11984,1.11984,0,0,1-.38,1.10947,1.294,1.294,0,0,1-1.82827-.08218.2363.2363,0,0,1,.0719-.3801Z" transform="translate(-0.00811 0.04386)" fill="#fff"/><path d="M46.44619,34.26l-1.79746-.83211a.23626.23626,0,0,0-.32867.17464,1.11984,1.11984,0,0,0,.38,1.10947,1.294,1.294,0,0,0,1.82827-.08218.2363.2363,0,0,0-.0719-.3801Z" transform="translate(-0.00811 0.04386)" fill="#fff"/><polygon points="49.571 41.423 49.078 42.091 48.01 42.091 47.517 41.423 49.571 41.423 49.571 41.423" fill="#fff"/><path d="M47.36032,37.71169h2.38291l.66762.84238.28759,1.27383-.70871.96565h-.76006l.69844-1.02729-.113-.63691a1.73562,1.73562,0,0,1-2.4534.08359q-.0432-.04037-.08357-.08359l-.113.63691.69844,1.02729h-.76006l-.719-.96565.28759-1.27384.66763-.84237Z" transform="translate(-0.00811 0.04386)" fill="#fff"/><path d="M33.71,42.93031,31.60436,53.77845l3.22515-4.85906,3.19433,4.85906L35.9696,42.96113,43.07725,49.885v.08218a53.5171,53.5171,0,0,0-4.03657,11.53643h-.95522L34.85,55.54539l-3.25595,5.948H30.68a53.61006,53.61006,0,0,0-4.04684-11.63916L33.751,42.9714Z" transform="translate(-0.00811 0.04386)" fill="#fff"/><polygon points="14.392 51.295 6.699 52.59 6.411 51.573 9.524 50.001 6.052 50.278 5.764 49.261 13.016 46.374 13.314 47.433 9.4 48.963 12.934 48.696 13.118 49.354 9.955 50.956 14.094 50.237 14.392 51.295 14.392 51.295" fill="#fff"/><polygon points="14.885 52.076 7.921 55.497 8.414 56.504 15.378 53.083 14.885 52.076 14.885 52.076" fill="#fff"/><polygon points="13.93 57.038 15.573 55.836 16.508 57.12 15.676 57.726 16.333 58.63 18.162 57.295 15.922 54.202 12.266 56.863 13.848 59.051 12.235 60.222 11.3 58.938 12.132 58.332 11.475 57.428 9.637 58.753 11.876 61.856 15.512 59.226 13.93 57.038 13.93 57.038" fill="#fff"/><polygon points="16.631 64.804 15.429 63.746 18.922 59.791 20.123 60.849 19.445 61.609 20.277 62.349 21.777 60.654 18.911 58.116 13.776 63.941 16.641 66.468 18.141 64.773 17.309 64.034 16.631 64.804 16.631 64.804" fill="#fff"/><path d="M21.88784,68.23238,20.491,67.47219l2.537-4.62279,1.39688.77046-2.537,4.62279Zm.7498-7.01637-3.72843,6.80064,3.35867,1.83884,3.7387-6.83146-3.35867-1.83884Z" transform="translate(-0.00811 0.04386)" fill="#fff"/><polygon points="28.443 68.595 28.032 63.797 27.005 63.51 24.899 70.978 25.978 71.286 27.2 66.941 27.611 71.738 28.638 72.026 30.733 64.557 29.665 64.26 28.443 68.595 28.443 68.595" fill="#fff"/><polygon points="31.586 69.242 34.277 69.375 34.185 71.379 32.603 71.296 32.654 70.269 31.535 70.218 31.422 72.478 35.232 72.673 35.458 68.194 32.757 68.061 32.86 66.026 34.441 66.109 34.39 67.126 35.51 67.187 35.623 64.917 31.802 64.732 31.586 69.242 31.586 69.242" fill="#fff"/><polygon points="36.886 64.763 37.79 72.478 38.899 72.344 37.995 64.629 36.886 64.763 36.886 64.763" fill="#fff"/><polygon points="41.888 63.715 43.172 68.04 40.265 64.198 39.248 64.496 41.457 71.933 42.525 71.615 41.241 67.29 44.148 71.132 45.175 70.834 42.956 63.397 41.888 63.715 41.888 63.715" fill="#fff"/><polygon points="49.406 59.329 51.502 61.856 50.269 62.873 48.174 60.346 47.311 61.065 52.262 67.043 53.114 66.324 51.06 63.828 52.293 62.811 54.357 65.307 55.22 64.599 50.269 58.609 49.406 59.329 49.406 59.329" fill="#fff"/><polygon points="56.843 60.952 55.282 59.709 56.627 58.014 55.651 57.243 54.306 58.938 52.714 57.675 54.059 55.98 53.084 55.199 51.04 57.777 57.12 62.595 59.164 60.027 58.188 59.257 56.843 60.952 56.843 60.952" fill="#fff"/><path d="M57.09738,54.7441l-1.82826-.904.719-1.4382,1.82827.904-.70871,1.4382Zm4.75555.51364.53409-1.08892-3.30731-.61637.34921-.69856-4.0571-2.05457-1.705,3.49278,6.95357,3.45168.493-1.02729-2.90674-1.4382.32868-.65746,3.31759.61637Z" transform="translate(-0.00811 0.04386)" fill="#fff"/><path d="M62.19188,48.73448l-4.10847-1.02729-.606.36982-.23624,1.02729,5.13558,1.25329L62.613,49.3303l-.36977-.60609Zm.8525-.94511.80115,1.38684-.57518,2.54767L55.71078,49.885l.61626-2.5374,1.3558-.86292,5.33073,1.29438Z" transform="translate(-0.00811 0.04386)" fill="#fff"/><path d="M31.933,26.04172l-2.48562-1.14029a.3287.3287,0,0,0-.45193.24654,1.54108,1.54108,0,0,0,.52383,1.53066,1.787,1.787,0,0,0,2.48562-.13354.31848.31848,0,0,0-.09244-.52392Z" transform="translate(-0.00811 0.04386)" fill="#fff"/><path d="M37.726,26.04172l2.49589-1.16084a.3287.3287,0,0,1,.45194.24655A1.5411,1.5411,0,0,1,40.15,26.65809a1.787,1.787,0,0,1-2.51643-.113.31847.31847,0,0,1,.09243-.52392Z" transform="translate(-0.00811 0.04386)" fill="#fff"/><polygon points="33.404 35.835 34.082 36.749 35.561 36.749 36.239 35.835 33.404 35.835 33.404 35.835" fill="#fff"/><path d="M36.47289,30.73641H33.18612L32.26171,31.887l-.40057,1.75666,1.02711,1.3252h1.02712l-.96549-1.41765L33.104,32.678a2.39291,2.39291,0,0,0,3.38234.12015q.06218-.05793.12013-.12015l.15406.87319L35.795,34.96883h1.02711l1.02712-1.3252L37.44865,31.887l-.9244-1.15056Z" transform="translate(-0.00811 0.04386)" fill="#fff"/><path d="M48.50042,19.44654s-.27732,2.4963-1.40715,3.08185c-.76007.40065-2.61915.39037-4.25226.53419a21.56881,21.56881,0,0,0,5.65941-3.62632Z" transform="translate(-0.00811 0.04386)" fill="#fff"/><path d="M21.15859,19.44654s.27732,2.4963,1.40715,3.08185c.76006.40065,2.61914.39037,4.25226.53419a21.5688,21.5688,0,0,1-5.64914-3.62632Z" transform="translate(-0.00811 0.04386)" fill="#fff"/><polygon points="28.607 35.506 29.141 38.053 20.719 49.23 30.127 38.053 28.607 35.506 28.607 35.506" fill="#1c5fab"/><polygon points="41.097 35.475 40.542 38.023 48.852 49.271 39.556 38.012 41.097 35.475 41.097 35.475" fill="#1c5fab"/><polygon points="16.775 41.844 17.176 43.745 14.608 47.669 17.915 43.745 16.775 41.844 16.775 41.844" fill="#1c5fab"/><polygon points="52.868 41.844 52.467 43.745 55.025 47.669 51.728 43.745 52.868 41.844 52.868 41.844" fill="#1c5fab"/></svg>