<?xml version="1.0" encoding="UTF-8" standalone="no"?>
<svg xmlns:rdf="http://www.w3.org/1999/02/22-rdf-syntax-ns#" xmlns="http://www.w3.org/2000/svg" height="264.28844" width="264.33402" version="1.1" xmlns:cc="http://creativecommons.org/ns#" xmlns:dc="http://purl.org/dc/elements/1.1/" viewBox="0 0 264.33402 264.28844"><path d="M132.61611.00343A131.651,131.651,0,1,1,.00321,130.688,131.62129,131.62129,0,0,1,132.61611.00343Z" fill="#999ea0"/><path d="M4.67581,130.68793A126.99228,126.99228,0,1,0,132.54193,4.60186,127.063,127.063,0,0,0,4.67581,130.68793Z" fill="#002b5c"/><path d="M115.63156,68.90575l-5.8593,8.4552a51.93741,51.93741,0,0,1,8.01017,7.12015c-6.37847-1.26086-13.27611-2.44755-13.27611-2.44755L93.45524,87.89284,98.647,79.36349a70.93873,70.93873,0,0,0-7.56516-5.5626c4.37592,0,12.75695.81585,12.75695.81585Z" fill="#7bc043"/><path d="M23.81122,153.53176a4.26227,4.26227,0,0,0-3.41174,2.96672,4.30532,4.30532,0,0,0,1.03836,4.37594,4.37591,4.37591,0,0,0,4.37593,1.11252,4.40475,4.40475,0,0,0,2.37338-7.41683A4.38094,4.38094,0,0,0,23.81122,153.53176Zm3.11507,12.8311A8.81833,8.81833,0,0,1,16.8394,153.45759a8.86218,8.86218,0,0,1,16.24285,2.29922,8.5804,8.5804,0,0,1-.89,6.601A8.21658,8.21658,0,0,1,26.92629,166.36286Z" fill="#fff"/><path d="M30.11553,128.31455c.2225,0,.14833.22251,0,.29668L12.98266,134.248l.29667-4.59843,7.936-2.52171-7.7135-4.07926v-.2225l8.30685-3.11507-7.56517-3.48592.37085-4.45009L30.783,119.7852c.14834,0,.14834.22252,0,.29668l-9.19686,3.4859Z" fill="#fff"/><path d="M62.52706,57.113c0,.14836,0,.29669-.29668.22253L46.06169,49.25117l3.48592-2.89256,7.41683,3.78258-2.5959-8.381h0l8.08435,3.63425-2.89256-7.78769L62.82373,34.64l5.93346,17.05873c0,.2225,0,.29666-.2225.2225l-8.826-3.93091Z" fill="#fff"/><path d="M93.0844,28.18736a4.46688,4.46688,0,0,0-3.48591-3.33759,4.315,4.315,0,0,0-4.37593,1.92838,4.2564,4.2564,0,0,0,0,4.7468,4.26162,4.26162,0,0,0,3.48591,2.89256,4.399,4.399,0,0,0,4.15342-1.78,4.203,4.203,0,0,0,.37085-4.45011ZM80.9208,33.305a8.94507,8.94507,0,0,1,4.74677-11.6444,8.892,8.892,0,0,1,6.89765,16.39121A8.94509,8.94509,0,0,1,80.9208,33.305Z" fill="#fff"/><polygon points="112.516 14.392 116.892 13.873 118.45 26.556 125.422 25.666 125.867 29.374 114.519 30.783 112.516 14.392" fill="#fff"/><path d="M144.7797,30.33823a.14834.14834,0,1,1-.29668,0l-5.71095-17.57785,4.6726.59332,2.37339,8.01019,4.15342-7.19433,4.45009.51919Z" fill="#fff"/><polygon points="171.999 19.51 182.68 23.886 181.345 27.372 174.67 24.627 173.631 27.149 179.194 29.448 177.859 32.637 172.296 30.412 171.258 33.082 178.23 35.901 176.82 39.313 165.769 34.788 171.999 19.51" fill="#fff"/><path d="M190.24484,43.68851h3.93091a4.32008,4.32008,0,0,0,1.70588,3.48591c1.03835.81586,1.92837.96419,2.44755.2225.59334-.74165.22249-1.18668-.445-2.15087l-1.11252-1.70587a5.03655,5.03655,0,0,1,.07417-7.12013,5.10466,5.10466,0,0,1,7.12014.07416A7.0991,7.0991,0,0,1,207.1552,41.686l-3.63425.59336a3.69823,3.69823,0,0,0-1.55752-2.67006c-.89-.66753-1.55755-.59336-2.00256,0-.37083.59336-.29666.96418.22251,1.63171l1.26087,1.92837c2.00254,2.96672,1.92837,4.82093.51918,6.67514-1.78,2.3734-4.59844,2.89256-8.15852.37086a8.28925,8.28925,0,0,1-3.56007-6.601Z" fill="#fff"/><polygon points="26.407 185.572 40.944 177.785 43.021 181.716 28.484 189.503 26.407 185.572" fill="#fff"/><path d="M141.96131,222.28575A90.81341,90.81341,0,1,1,199.44173,71.57582c1.11252-1.11252,2.225-2.15091,3.26339-3.26343a74.00333,74.00333,0,0,0-5.93345-5.85928,94.9395,94.9395,0,1,0-54.662,163.98607A36.18185,36.18185,0,0,0,141.96131,222.28575Z" fill="#999ea0"/><path d="M218.57714,99.38891c-.81585-2.59588-1.8542-5.19178-2.96674-7.78766,0,0-1.78,2.96672-4.59843,7.046l-12.08943-3.11507a109.44146,109.44146,0,0,0,20.39628-27.21977A117.7703,117.7703,0,0,1,218.57714,99.38891Z" fill="#999ea0"/><path d="M152.34486,132.83882a52.95725,52.95725,0,0,1,16.68787-2.89256,24.16014,24.16014,0,0,1,7.63932-10.16106S156.12744,123.71613,152.34486,132.83882Z" fill="#7bc043"/><path d="M95.45779,165.992a40.30447,40.30447,0,0,1,7.41683,5.8593,37.14647,37.14647,0,0,1,6.601-6.156,28.33537,28.33537,0,0,1-14.092.29666Z" fill="#7bc043"/><path d="M129.7977,132.39379s-4.82095-2.225-7.491-.96419a24.33151,24.33151,0,0,0-1.11251-8.60351A16.81207,16.81207,0,0,1,129.7977,132.39379Z" fill="#7bc043"/><path d="M231.1116,146.63409c-9.93856-13.12778-34.33993-19.35791-51.17613-14.90783a9.90339,9.90339,0,0,1,6.45265,5.711c-40.49588-2.22505-73.72328,23.88218-73.72328,23.88218a4.19015,4.19015,0,0,1,3.11507,4.6726,7.31935,7.31935,0,0,1-4.07926,6.82349,66.94727,66.94727,0,0,0-7.34265,5.41429l-3.78259-1.85421a14.50955,14.50955,0,0,0,4.59845,8.45519,8.21324,8.21324,0,0,1-.22252-4.821c7.78767,5.93346,17.28122,6.52682,27.44225,2.59589,10.16108-4.00509,21.50882-14.537,35.00744-14.092,11.42193.37082,15.427,7.78765,15.427,7.78765-12.23776-2.44755-22.10213,8.60353-29.074,15.35285a29.7725,29.7725,0,0,1-20.6188,8.52935,38.02,38.02,0,0,1-9.64188-.96419c0,2.96673,3.56009,4.0051,5.19178,4.59844a39.2715,39.2715,0,0,0,22.54717-3.41176c8.08435-4.22759,12.97945-8.826,22.39883-8.08433a19.27965,19.27965,0,0,1,14.092,9.79021,39.87941,39.87941,0,0,0-18.6904-1.03835,13.32119,13.32119,0,0,1,5.85928,5.04344c-11.79275-4.15342-18.76457.29668-18.76457.29668a20.121,20.121,0,0,0-1.03835,12.68277,29.53567,29.53567,0,0,1,4.82093-9.19687,64.16554,64.16554,0,0,0,16.09452,32.189c21.73131-13.57279,26.47808-44.35262,26.47808-44.35262,5.85928,5.85928,7.63932,16.39118,7.63932,16.39118a60.66482,60.66482,0,0,0,12.46028-43.68511,16.61423,16.61423,0,0,1,4.96928,5.19177c2.29922-16.317-8.826-30.11232-11.79277-33.44989a46.38335,46.38335,0,0,1,15.27867,4.45009Z" fill="#999ea0"/><path d="M162.06091,179.194a95.27116,95.27116,0,0,0-9.716,7.34266,29.57524,29.57524,0,0,1-12.08945,7.78767s-2.15086-5.8593,10.01273-13.27613a12.05882,12.05882,0,0,1-.37084,2.22506,28.4444,28.4444,0,0,1,12.16361-4.00508Z" fill="#005082"/><path d="M133.58028,189.65172a15.03538,15.03538,0,0,0,3.78258,6.23014,11.28659,11.28659,0,0,1-4.15343.59334A9.43671,9.43671,0,0,1,133.58028,189.65172Z" fill="#fff"/><path d="M123.27089,190.09671a13.25154,13.25154,0,0,0,3.11505,6.08181,17.59094,17.59094,0,0,1-3.41173-.22251,6.75647,6.75647,0,0,1,.2225-5.8593Z" fill="#fff"/><path d="M83.59087,96.71884c.37083-.81583,2.89256-5.48844,2.89256-5.48844-19.20959-2.225-36.565,22.918-36.565,22.918a84.82915,84.82915,0,0,0,23.28885,77.72837C54.51689,135.50886,83.51669,96.71884,83.51669,96.71884Z" fill="#005082"/><path d="M89.45015,86.26111l3.33757-5.93345c-9.271-7.56516-22.54716-5.85928-22.54716-5.85928-8.826,7.86182-16.68786,26.77473-16.68786,26.77473,20.0996-20.248,35.89745-15.2045,35.89745-15.2045Z" fill="#005082"/><path d="M102.87462,69.49908l9.7902-4.22758a15.71012,15.71012,0,0,1-4.30175-14.3145A84.42784,84.42784,0,0,0,75.80319,69.05408C85.3709,68.60909,102.87462,69.49908,102.87462,69.49908Z" fill="#005082"/><path d="M134.91533,62.97227c-4.74679,1.92841-7.71351,3.41175-7.71351,3.41175a53.97621,53.97621,0,0,0,6.82349,1.70588Q134.4703,65.30859,134.91533,62.97227Z" fill="#005082"/><path d="M154.05074,75.87755A54.76521,54.76521,0,0,0,163.17343,86.187a153.41907,153.41907,0,0,1,18.4679,0l1.85421-1.26087h-.2225a99.54338,99.54338,0,0,0-29.37065-8.826Z" fill="#005082"/><path d="M133.13528,73.50415a41.08461,41.08461,0,0,1-10.60606-2.96672,48.728,48.728,0,0,0-4.45011,5.8593s7.046,7.63932,8.826,9.41937c0,0,1.70587.96418,4.6726,2.96672.445-5.48844,1.11253-10.53188,1.70588-15.05614Z" fill="#005082"/><path d="M106.28636,86.5578c-.9642.37085-7.34266,3.70842-7.34266,3.70842a51.0576,51.0576,0,0,1,15.72368,21.36048A46.10327,46.10327,0,0,1,129.13019,93.678c-3.70841-2.44755-5.8593-3.70841-5.8593-3.70841A132.40459,132.40459,0,0,0,106.28636,86.5578Z" fill="#005082"/><path d="M168.29106,55.85214A88.00735,88.00735,0,0,0,143.148,60.07975q3.44883,5.34012,6.23015,9.3452a136.18569,136.18569,0,0,1,21.80547,4.82093,82.83672,82.83672,0,0,1,17.207,6.97182c2.29922-1.78,4.52427-3.63425,6.52681-5.48846a83.16217,83.16217,0,0,0-26.6264-20.02543Z" fill="#005082"/><path d="M138.17873,214.12723c-5.34012-1.63169-14.092-2.67-18.0229-8.826a19.06444,19.06444,0,0,1-1.92839-13.79529c-4.45008,0-12.16359,0-16.83618-4.52427a23.66717,23.66717,0,0,1-5.48846-12.16359,18.92777,18.92777,0,0,1-3.93092-7.046c-.59334-4.07925,1.78-5.63679,6.97182-10.90273,5.26595-5.266,16.09452-14.46281,16.09452-14.46281-2.52173-36.7133-21.138-48.87692-21.138-48.87692a40.7527,40.7527,0,0,0-3.48591,2.96675,105.00238,105.00238,0,0,0-18.09707,55.4037c-1.18669,30.6315,9.271,47.39353,9.271,47.39353a94.974,94.974,0,0,0,31.744,14.83365h.6675A64.519,64.519,0,0,0,133.5803,216.204a82.39508,82.39508,0,0,0,8.52934-.59334c.14833-4.52427.51918-7.19434.51918-7.19434-8.30685,1.63171-4.37592,5.93347-4.37592,5.93347Z" fill="#005082"/><path d="M118.59829,62.97227c6.601-2.89256,12.6086-4.8951,17.652-6.601.74167-3.26339,1.26085-5.1176,1.26085-5.1176l2.44756,4.00508A108.999,108.999,0,0,1,156.795,51.2537a83.20889,83.20889,0,0,0-42.42427-1.8542c-2.96672,9.93856,4.22761,13.4986,4.22761,13.4986Z" fill="#005082"/><path d="M20.91866,89.45036a.07263.07263,0,0,1-.07417-.07416c0-.07417,0-.14833.07417-.14833l18.4679-1.335-1.70587,4.37594-8.381.37082,6.0818,5.8593-1.6317,4.22759Z" fill="#fff"/></svg>