<?xml version="1.0" encoding="UTF-8" standalone="no"?>
<svg xmlns:rdf="http://www.w3.org/1999/02/22-rdf-syntax-ns#" xmlns="http://www.w3.org/2000/svg" height="381.38779" width="168" version="1.1" xmlns:cc="http://creativecommons.org/ns#" xmlns:dc="http://purl.org/dc/elements/1.1/" viewBox="0 0 168 381.38779"><path d="M128.65307,0H39.34694A39.35643,39.35643,0,0,0,0,39.29253V342.04085a39.44954,39.44954,0,0,0,39.40136,39.34694h89.25171A39.368,39.368,0,0,0,168,342.04085V39.347A39.40295,39.40295,0,0,0,128.65307,0Z" fill="#fff"/><path d="M155.53742,222.80272c.2721-.16326.48979-.27209.54421-.59863.05442-.21769-.38095-.87075-.59864-1.2517a14.84935,14.84935,0,0,1-1.25169-5.11565s-.54423-8.54421-1.85035-15.78231a40.67961,40.67961,0,0,0-.65306-4.62585c-.32653-1.57824-2.34014-8.381-3.102-11.42858,0,0-2.01361-9.30612-3.53741-15.45578-2.17688-8.87074-6.966-14.53061-9.57823-19.102-1.85035-8.43539-5.76871-20.02723-9.7415-24.54422-1.19729-5.00682-1.85034-10.449-4.7347-14.36734-3.04762-4.13609-5.38776-5.33337-10.17687-6.47621-.54422-.10884-.9796-.32652-1.415-.43538a2.87374,2.87374,0,0,0-.65306-1.14287s-3.31973-1.7959-4.62584-1.415c-3.31973-1.36055-3.70068-6.14966-2.17688-7.12924,1.25171-.81632,4.29933-1.57822,5.00681-2.72109a3.13014,3.13014,0,0,0,.38095-3.10205,13.723,13.723,0,0,1-.70748-1.7959c-.10884-.87075.32653-.97961.27211-1.74151a1.44824,1.44824,0,0,0-1.30613-1.36055.46745.46745,0,0,1-.38095-.65306c0-.16326.43537-1.14284.48979-1.68706.10884-.48981.10884-.81632-.65306-1.415-.97959-.7619-.87074-.70748-1.36054-1.034v-.10884a4.01469,4.01469,0,0,0,1.2517-1.85035,2.00687,2.00687,0,0,0-.65306-2.12245c-1.14285-.81632-5.17007-2.12244-5.65987-2.449-.92516-.81632.16327-1.90477-1.034-3.97279a20.452,20.452,0,0,0-5.82313-5.4966c-.27211-1.30612-4.84354-2.39457-8.27211-2.34015a21.49977,21.49977,0,0,0-9.68708,2.55783c-3.04761,1.63267-6.69387,4.46257-8.21769,8.48978-2.34013,7.18369-.32653,12.40819,6.91158,18.50343,2.55782,2.17686,3.42857,3.102,5.33332,7.29252a2.87172,2.87172,0,0,1-.65306.16326,21.29126,21.29126,0,0,0-6.36735-2.28573c-5.44216-.65306-8.97957-.05442-9.30611-.54422-.70748-.97958-5.44218-4.57141-7.45578-5.7687a64.856,64.856,0,0,0-14.74831-6.5306,66.97878,66.97878,0,0,0,.9796-13.9864A71.97418,71.97418,0,0,1,43.04761,46.966a21.02041,21.02041,0,0,0,15.89117,4.517,21.66063,21.66063,0,0,0,3.2653-42.28574h66.39455a29.88032,29.88032,0,0,1,29.932,29.932V341.98641a29.915,29.915,0,0,1-29.932,29.932H57.95918c.10885-.21769,1.57824,0,2.50341-1.68708,1.5238-2.66667,1.25169-8.59863,1.85034-14.04081.48979-1.57824,3.86394-11.42858,4.46258-13.22449a69.29739,69.29739,0,0,1,4.898-7.29253c1.46939-1.68707.381-2.88436.381-2.88436s21.9864-33.63265,33.79591-44.517c0,0,2.34014-2.2313,4.7347-4.19048,4.95238-4.78911,4.73469-11.483,4.73469-13.44217,3.04762-15.40136,4.19049-22.42177,4.19049-22.42177a12.2196,12.2196,0,0,0,3.53741-2.66667c-.21769-5.38775,1.63265-16.381,3.80952-28.29932,4.08163-22.2585.70748-36.78912.70748-36.78912.59864-1.08843.65306-1.90477.27211-4.02721-.59864-3.70068-.87074-9.19728-1.36054-11.91837a39.03734,39.03734,0,0,0,6.47619,12.62585,56.54369,56.54369,0,0,1,9.36055,17.95919s.54421,1.19728,0,1.90476c0,0-3.102,3.64625-3.26531,7.78232A10.53092,10.53092,0,0,1,137.415,209.415c-.27211.38095-.48979,1.14285-1.08843,2.2313a21.853,21.853,0,0,1-1.36054,2.01361c-.05442,1.30611,1.57823,1.85033,3.15645.59863a14.69306,14.69306,0,0,0,2.77551-3.2653c.54423-.87076,1.79593-3.15647,2.9932-3.15647,1.14287-.05442,1.415.27211,1.57824.43538.70748.65306.87074,2.068,1.74149,5.06123.27212.97959.65307,2.23128,1.034,3.483,1.14285,3.26529,2.61225,6.91156,2.88436,7.34693a11.22791,11.22791,0,0,0,.97958,2.55783,3.2405,3.2405,0,0,0,1.90477,1.74149,1.14161,1.14161,0,0,0,1.034-.70748c0-.10884-.54422-1.63265-.54422-1.74149a1.3454,1.3454,0,0,0,2.23129-.32654c.16328-.32653-.43537-1.2517-.59864-1.415A8.40009,8.40009,0,0,1,155.53742,222.80272Z"/><path d="M79.02041,252.78915a1.76764,1.76764,0,0,0,1.46938-1.85034l-1.034-12.19048a8.46356,8.46356,0,0,1-2.82994-1.57822c.4898-4.517.65306-9.14286,1.19728-18.39457-.05442-22.42176,1.7415-31.61905,11.864-47.89115a.64076.64076,0,0,0-.16327-.7619,17.06726,17.06726,0,0,1-2.2857-6.04082c-.43539-2.93878-3.2109-8.05443-18.17688-28.84353-14.20408-15.12925-12.19048-20.84355-18.34014-24.43538A80.95914,80.95914,0,0,1,34.39455,97.68709C29.98639,92.9524,25.95918,90.34018,24,88.10886c-2.88435-3.15644-1.79591-2.12244-1.25169-12.84351.48979-10.6667,4.898-19.80952,8.59863-27.80953,2.55783-5.65988,3.15647-6.20408,2.77552-12.29935,0-.21767-.21769-2.61225-.38095-5.27889-.2177-2.34015,1.08843-5.2245,2.50339-7.56462a23.27136,23.27136,0,0,1,1.034-2.34015A24.68018,24.68018,0,0,1,48.87074,9.25171H38.85714a29.86867,29.86867,0,0,0-29.87755,29.932v253.932c2.23129-9.08843,6.20408-11.102,7.67347-17.415C17.85033,270.4218,20.68026,266.449,24,265.36058a5.75856,5.75856,0,0,1,3.70069.38095,44.28389,44.28389,0,0,0,9.57823,3.80952,2.3826,2.3826,0,0,1,1.08844.9796c1.90476.32653,14.04081-2.82994,21.71428-9.68708C64.43537,256.87078,67.75509,253.6599,79.02041,252.78915Z"/><path d="M91.80952,270.31294c-15.18368,5.4966-27.64627,6.31293-52.13606,14.47619.38095,2.72109-2.50341,2.5034-9.08844,5.932,0,0-10.5034,10.01361-11.483,12.7347-3.21089,8.27211-5.82313,11.102-8.65307,10.12245a2.867,2.867,0,0,1-1.415-1.46939v29.87755a29.94987,29.94987,0,0,0,29.932,29.932H55.29251c-4.02722-1.7415-5.27892-4.46258-7.02041-10.068a32.46918,32.46918,0,0,1-.70749-10.55782,24.74318,24.74318,0,0,0-.65305-10.2313c-1.46939-5.76871-2.34014-10.01361-.4898-14.2585.21768-.4898,1.68707-2.82994,3.80952-2.82994a30.31324,30.31324,0,0,0,10.55782-1.74149,1.785,1.785,0,0,1,1.14286.27211A4.36261,4.36261,0,0,0,63.7823,321.034c3.26531-4.40816,7.45578-13.4966,9.7415-18.12245a19.03515,19.03515,0,0,0,1.90475-5.22449C78.25849,285.87757,79.67346,280.65307,91.80952,270.31294Z"/><path d="M127.89115,326.63948l-8.381,8.54422h9.415v6.53061a11.20119,11.20119,0,0,1-4.7347.97959,12.76255,12.76255,0,0,1-7.83673-2.55782,13.31038,13.31038,0,0,1-1.25171-1.08844,10.82548,10.82548,0,0,1-.92517-1.034,15.47517,15.47517,0,0,1-2.77551-8.87075c0-7.23809,4.898-12.57143,11.64625-12.57143a14.54844,14.54844,0,0,1,4.68028.76191l1.95919.7619-.70748,2.61225h3.80952l.54422-.16327h6.585V305.14288h-7.18367v2.28572a26.14564,26.14564,0,0,0-9.63267-1.68708c-14.42176,0-24.81633,10.068-24.81633,24.10884,0,13.65987,10.01362,23.18368,24.27212,23.18368a31.13631,31.13631,0,0,0,18.12245-5.4966V326.53063H127.89115Z" fill="#fff"/><polygon points="121.578 320.871 132.626 317.17 128.599 321.959 132.952 320.544 115.211 338.721 120.272 326.095 117.442 327.129 121.578 320.871" fill="#f9a350"/><polygon points="118.531 325.442 117.442 327.129 120.272 326.095 120.871 324.571 118.531 325.442" fill="#ef3e42"/><polygon points="130.449 317.878 126.476 322.776 128.599 321.959 132.626 317.17 130.449 317.878" fill="#ef3e42"/><polygon points="130.395 321.361 116.354 335.891 115.211 338.721 132.952 320.544 130.395 321.361" fill="#ef3e42"/><path d="M112.59863,343.347c.76192-1.95918,6.2041-15.67347,6.2041-15.67347l-3.59185,1.415,5.82313-8.87075,14.85715-4.898-3.97279,4.73469,4.95238-1.68707Zm4.84355-16.21769,2.82993-1.08843-5.06123,12.68027L132.898,320.4354l-4.35375,1.52381,4.02722-4.78911-11.04762,3.64625Z"/></svg>