<?xml version="1.0" encoding="UTF-8" standalone="no"?>
<!-- Generator: Adobe Illustrator 26.5.0, SVG Export Plug-In . SVG Version: 6.00 Build 0)  -->

<svg
   version="1.1"
   id="LOGOS"
   x="0px"
   y="0px"
   viewBox="0 0 300 300"
   xml:space="preserve"
   sodipodi:docname="Ignite.svg"
   width="300"
   height="300"
   inkscape:version="1.1 (c68e22c387, 2021-05-23)"
   xmlns:inkscape="http://www.inkscape.org/namespaces/inkscape"
   xmlns:sodipodi="http://sodipodi.sourceforge.net/DTD/sodipodi-0.dtd"
   xmlns="http://www.w3.org/2000/svg"
   xmlns:svg="http://www.w3.org/2000/svg"><defs
   id="defs81" /><sodipodi:namedview
   id="namedview79"
   pagecolor="#ffffff"
   bordercolor="#666666"
   borderopacity="1.0"
   inkscape:pageshadow="2"
   inkscape:pageopacity="0.0"
   inkscape:pagecheckerboard="0"
   showgrid="false"
   fit-margin-top="0"
   fit-margin-left="0"
   fit-margin-right="0"
   fit-margin-bottom="0"
   inkscape:zoom="1.3240741"
   inkscape:cx="267.73427"
   inkscape:cy="287.74825"
   inkscape:window-width="1271"
   inkscape:window-height="1040"
   inkscape:window-x="445"
   inkscape:window-y="151"
   inkscape:window-maximized="0"
   inkscape:current-layer="LOGOS" />
<style
   type="text/css"
   id="style2">
	.st0{fill:#061922;}
	.st1{fill:#FFFFFF;}
	.st2{fill:#9D1D96;}
</style>
<g
   id="g76"
   transform="matrix(0.52083333,0,0,0.52083333,-18.75,-18.75)">
	<path
   class="st0"
   d="M 324,40.6 C 167.7,40.6 40.6,167.7 40.6,324 40.6,480.3 167.7,607.4 324,607.4 480.3,607.4 607.4,480.3 607.4,324 607.4,167.7 480.3,40.6 324,40.6 Z"
   id="path4" />
	<g
   id="g8">
		<path
   class="st1"
   d="M 324,612 C 165.2,612 36,482.8 36,324 36,165.2 165.2,36 324,36 482.8,36 612,165.2 612,324 612,482.8 482.8,612 324,612 Z m 0,-566.7 c -153.7,0 -278.7,125 -278.7,278.7 0,153.7 125,278.7 278.7,278.7 153.7,0 278.7,-125 278.7,-278.7 C 602.7,170.3 477.7,45.3 324,45.3 Z"
   id="path6" />
	</g>
	<g
   id="g28">
		<g
   id="g26">
			<path
   class="st2"
   d="m 301.3,488.6 c -0.5,-0.1 -1.1,-0.2 -1.6,-0.3 -5.3,-0.9 -7.9,-1.6 -7.9,-1.6 12.3,-14.8 20.3,-38.7 20.3,-38.7 0,0 -11.1,18 -31.9,36.2 -3.7,3.3 -7.8,6.6 -12.1,9.7 14.2,4.7 29.3,7.6 44.8,8.6 l 1.6,-12.6 5.2,-41.1 -15.5,40.2 c -1,-0.1 -1.9,-0.2 -2.9,-0.4 z"
   id="path10" />
			<path
   class="st2"
   d="m 500.7,294.7 c -2.8,3.9 -7.7,10.3 -14.9,18.5 -21.9,24.9 -65.4,66.3 -137.2,102.3 0,0 74.8,-14.9 134.6,-73.4 -0.8,25.8 -13.4,51.9 -13.4,51.9 -27,9.6 -78,26.8 -117.1,32 0,0 49.7,-0.1 109.2,-12.5 6.4,-1.3 12.9,-2.8 19.5,-4.4 13.8,-25.4 21.6,-54.5 21.6,-85.4 0.1,-9.8 -0.7,-19.5 -2.3,-29 z"
   id="path12" />
			<path
   class="st2"
   d="m 295.2,426.1 c -39.1,-5.2 -90.1,-22.4 -117.1,-32 0,0 -12.6,-26.1 -13.4,-51.9 59.9,58.5 134.6,73.4 134.6,73.4 C 227.5,379.5 184,338.2 162.1,313.3 c -7.2,-8.2 -12.1,-14.6 -14.9,-18.5 -1.5,9.5 -2.4,19.2 -2.4,29 0,30.9 7.8,60 21.6,85.4 6.6,1.6 13.1,3.1 19.5,4.4 59.7,12.4 109.3,12.5 109.3,12.5 z"
   id="path14" />
			<path
   class="st2"
   d="m 337.3,380.6 53.2,-156.1 -30.6,11.1 15.1,-61.3 c 39.8,14.1 75.8,46.8 94.1,85.1 0,0 -40.6,69 -125.2,145.7 0,0 83.3,-45.5 135.4,-125.4 4.2,-6.5 8.2,-13.1 12,-20 -0.2,-0.6 -0.5,-1.2 -0.7,-1.8 0,0 0,0 0,0 -2.3,-5.7 -4.8,-11.2 -7.6,-16.6 -0.2,-0.3 -0.3,-0.6 -0.5,-0.9 -0.9,-1.6 -1.7,-3.2 -2.6,-4.8 -0.1,-0.2 -0.2,-0.4 -0.3,-0.6 -0.3,-0.5 -0.6,-1 -0.9,-1.5 -0.4,-0.7 -0.8,-1.3 -1.2,-2 -0.1,-0.2 -0.3,-0.4 -0.4,-0.6 C 451.2,188.4 408.2,157.6 357.7,148 l -4.1,20 -19.7,97 23.2,-8.4 z"
   id="path16" />
			<path
   class="st2"
   d="m 244.4,468.1 c -9.7,-5.2 -27.4,-21.3 -27.4,-21.3 37,2 86,-10.3 86,-10.3 -42.6,2.8 -80.1,-0.6 -102.8,-3.6 -10.1,-1.3 -17.3,-2.6 -20.6,-3.2 17.2,23.4 39.9,42.5 66.3,55.3 2.4,-1.1 7.8,-3.6 14.9,-7.5 12.6,-7.1 30.6,-18.9 47.3,-36 -29.9,17.2 -63.7,26.6 -63.7,26.6 z"
   id="path18" />
			<path
   class="st2"
   d="M 295.9,303.9 281,171 278.7,150.5 c -56.1,14.6 -101.5,55.7 -122,109.2 3.7,6.9 7.7,13.6 12,20 52.1,79.9 135.4,125.4 135.4,125.4 -84.6,-76.7 -125.2,-145.7 -125.2,-145.7 16.7,-36.7 46.4,-65.9 83,-81.5 l 18.8,157.8 21.7,-14.4 19.1,107 -2.4,-139.8 z"
   id="path20" />
			<path
   class="st2"
   d="m 335.9,448 c 0,0 8,23.9 20.3,38.7 0,0 -2.6,0.8 -7.9,1.6 -0.5,0.1 -1.1,0.2 -1.6,0.3 -1,0.1 -1.9,0.3 -2.9,0.4 l -15.5,-40.2 5.2,41.1 1.6,12.6 c 15.6,-1 30.6,-3.9 44.8,-8.6 -4.3,-3.2 -8.4,-6.5 -12.1,-9.7 C 347.1,466 335.9,448 335.9,448 Z"
   id="path22" />
			<path
   class="st2"
   d="m 345,436.5 c 0,0 49,12.2 86,10.3 0,0 -17.7,16.1 -27.4,21.3 0,0 -33.8,-9.4 -63.6,-26.6 16.7,17.1 34.7,28.9 47.3,36 7.1,4 12.5,6.5 14.9,7.5 26.4,-12.8 49.1,-31.9 66.3,-55.3 -3.3,0.6 -10.5,1.9 -20.6,3.2 -22.8,3 -60.3,6.4 -102.9,3.6 z"
   id="path24" />
		</g>
	</g>
	<g
   id="g34">
		<path
   class="st1"
   d="m 98.6,308.3 -9.1,-2.7 c -0.5,6.1 -0.7,12.2 -0.7,18.4 0,56.6 20.1,108.6 53.6,149.2 l 6.1,-7.2 C 117,427.2 98.1,377.8 98.1,324 c 0,-5.3 0.2,-10.5 0.5,-15.7 z"
   id="path30" />
		<path
   class="st1"
   d="m 558.4,305.6 -9.1,2.7 c 0.4,5.2 0.6,10.4 0.6,15.6 0,53.8 -18.9,103.2 -50.4,142.1 l 6.1,7.2 c 33.4,-40.6 53.6,-92.6 53.6,-149.2 0,-6.2 -0.3,-12.3 -0.8,-18.4 z"
   id="path32" />
	</g>
	<g
   id="g74">
		<g
   id="g56">
			<path
   class="st1"
   d="m 80.4,251.8 2.5,-9.1 48.6,13.2 -2.6,9.7 -32.1,2.2 29.3,8 -2.5,9.2 -48.6,-13.4 2.6,-9.7 32,-2.2 z"
   id="path36" />
			<path
   class="st1"
   d="m 108.7,189.4 7.1,-4.2 16.2,9.5 -0.2,5.1 4.3,-2.6 16.2,9.6 -0.3,8.2 -10.6,18 -43.3,-25.5 z m 17.6,13.6 -13.8,-8.1 c -1.3,2.3 -2.6,4.6 -4,7 l 13.8,8.1 z m 5.2,3.1 -4.1,6.9 13.8,8.1 c 1.4,-2.4 2.8,-4.6 4.1,-6.9 z"
   id="path38" />
			<path
   class="st1"
   d="m 158.9,136 32.5,32.9 -7.1,7 -15.5,-15.7 -6.1,6 15.5,15.7 -7.1,7 -32.5,-32.9 2.4,-7.8 10.1,-9.9 z m 5.6,20 -11.3,-11.4 -0.4,0.4 v 0 c -0.9,0.9 -1.8,1.7 -2.7,2.6 -0.9,0.9 -1.7,1.8 -2.6,2.7 v 0 l -0.4,0.4 11.3,11.4 z"
   id="path40" />
			<path
   class="st1"
   d="m 244,82.7 8.2,1.3 4,10.9 -9.5,3.4 -3.2,-8.9 -7.6,2.7 13,36 7.6,-2.7 -5.4,-15 -2.9,1.1 -2.1,-5.7 12.4,-4.5 9.6,26.5 -19.7,7.1 -8.2,-1.3 -15.8,-43.7 z"
   id="path42" />
			<path
   class="st1"
   d="m 326.5,120.1 3.1,-50.2 9.7,0.6 -2.6,44.2 12.9,0.8 -0.4,6 z"
   id="path44" />
			<path
   class="st1"
   d="m 372.8,126 14.5,-48 c 7.2,2.2 14.5,4.3 21.8,6.6 l -1.7,5.7 -12.5,-3.8 -4.5,15.4 12.4,3.7 -1.7,5.8 -12.4,-3.7 -4.6,15.3 12.3,3.7 -1.7,5.8 z"
   id="path46" />
			<path
   class="st1"
   d="m 465.6,117.7 -24,39.5 -8.5,-5.2 11.4,-18.8 -7.3,-4.4 -11.4,18.8 -8.6,-5.2 24,-39.5 8.2,0.4 12.1,7.3 z m -18,10.4 8.3,-13.7 -0.5,-0.3 v 0 c -1.1,-0.7 -2.1,-1.4 -3.1,-2 -1.1,-0.7 -2.2,-1.3 -3.3,-1.9 v -0.1 l -0.4,-0.3 -8.3,13.7 z"
   id="path48" />
			<path
   class="st1"
   d="m 512,153 2.2,8 -8.4,8.1 -7,-7.3 6.9,-6.6 -5.6,-5.8 -27.6,26.5 5.6,5.8 11.5,-11.1 -2.1,-2.2 4.4,-4.2 9.1,9.5 -20.3,19.5 -14.5,-15.1 -2.2,-8 33.5,-32.2 z"
   id="path50" />
			<path
   class="st1"
   d="m 553.4,214.1 -40.6,22.5 -6.9,-4.4 -7,-12.7 -0.1,-8.2 40.6,-22.5 4.8,8.8 -38.6,21.4 c 0.7,1.3 1.5,2.9 2.3,4.3 0.6,1.1 1.3,2.3 2,3.5 l 38.7,-21.4 z"
   id="path52" />
			<path
   class="st1"
   d="m 518.6,263.3 48.5,-12.5 c 1.9,7.3 3.8,14.7 5.7,22.1 l -5.8,1.5 -3.3,-12.7 -15.5,4.1 3.2,12.6 -5.9,1.5 -3.2,-12.6 -15.5,4 3.2,12.5 -5.9,1.5 z"
   id="path54" />
		</g>
		<g
   id="g72">
			<g
   id="g70">
				<path
   class="st1"
   d="m 150.3,508.7 33.8,-37.3 7.4,6.7 -33.8,37.3 z"
   id="path58" />
				<path
   class="st1"
   d="m 240.2,509.2 4.7,6.8 -5.2,10.4 -9,-4.5 4.2,-8.5 -7.2,-3.6 -17,34.3 7.2,3.6 7.1,-14.3 -2.8,-1.4 2.7,-5.5 11.8,5.8 -12.5,25.3 -18.8,-9.3 -4.7,-6.8 20.7,-41.7 z"
   id="path60" />
				<path
   class="st1"
   d="m 304.1,526.4 9.4,1.2 -6.3,50 -9.9,-1.3 -6.6,-31.5 -3.8,30.2 -9.4,-1.2 6.3,-50 9.9,1.3 6.7,31.4 z"
   id="path62" />
				<path
   class="st1"
   d="m 357.8,575.4 -7.7,-49.8 9.9,-1.5 7.7,49.8 z"
   id="path64" />
				<path
   class="st1"
   d="m 394.9,521.4 -2.4,-5.5 24.5,-10.6 2.4,5.5 -7.7,3.4 17.6,40.7 -9,3.9 -17.6,-40.7 z"
   id="path66" />
				<path
   class="st1"
   d="M 479.3,524.6 447,486.3 c 5.8,-4.9 11.6,-9.8 17.4,-14.7 l 3.9,4.6 -10,8.4 10.4,12.2 9.9,-8.3 3.9,4.6 -9.9,8.3 10.3,12.2 9.9,-8.3 3.9,4.6 z"
   id="path68" />
			</g>
		</g>
	</g>
</g>
</svg>
