<svg version="1.2" baseProfile="tiny-ps" xmlns="http://www.w3.org/2000/svg" viewBox="0 0 200 148" width="200" height="148">
	<title>E7PrcK7XMAQvygX?format=jpg&amp;name=4096x4096</title>
	<style>
		tspan { white-space:pre }
		.shp0 { fill: #85714d } 
		.shp1 { fill: #0b233f } 
		.shp2 { fill: #fffefe } 
		.shp3 { fill: #c7102e } 
	</style>
	<g >
		<path class="shp0" d="M99.58 1.28C99.38 1.87 98.15 5.61 96.83 9.59C95.52 13.56 93.21 20.57 91.69 25.15C90.18 29.74 87.85 36.8 86.51 40.84L84.09 48.2C83.58 47.85 82.84 47.34 82.12 46.82L80.82 45.89C13.82 45.89 0.29 45.92 0.25 45.99C0.22 46.04 0.78 46.48 1.49 46.97C2.19 47.46 5.44 49.73 8.71 52.01C11.98 54.29 15.92 57.05 17.47 58.14C19.02 59.22 20.81 60.47 21.45 60.91C22.09 61.35 23.47 62.32 24.52 63.05C25.57 63.79 29.09 66.25 32.33 68.51C35.57 70.78 38.87 73.09 39.68 73.65C40.48 74.21 41.93 75.22 42.9 75.91C43.87 76.59 44.96 77.35 45.32 77.6C45.68 77.85 47.49 79.12 49.35 80.41C51.2 81.71 53.38 83.23 54.18 83.79C54.98 84.35 56.93 85.71 58.51 86.81C60.09 87.92 61.52 88.91 61.68 89.01C61.87 89.14 62.13 89.2 62.39 89.18C62.61 89.17 62.84 89.19 62.9 89.24C62.96 89.28 63.08 89.7 63.18 90.17C63.28 90.63 63.52 91.61 63.71 92.32C63.91 93.04 64.29 94.22 64.55 94.93C64.82 95.65 65.31 96.85 65.64 97.6C66.22 98.92 66.23 98.96 66.1 99.35C66.03 99.57 65.66 100.75 65.27 101.96C64.88 103.18 64.14 105.53 63.61 107.18C63.08 108.84 62.36 111.12 62 112.26C61.64 113.39 60.11 118.18 58.61 122.9C57.1 127.62 55.61 132.32 55.29 133.34C54.96 134.36 54.21 136.71 53.62 138.56C53.03 140.41 52.44 142.26 52.32 142.68C52.19 143.09 51.78 144.38 51.41 145.54C51.03 146.7 50.71 147.71 50.69 147.77C50.67 147.84 50.7 147.9 50.76 147.9C50.81 147.9 51.84 147.22 53.05 146.4C54.25 145.58 55.52 144.71 55.86 144.47C56.21 144.23 57.93 143.05 59.69 141.85C61.45 140.64 66.7 137.05 71.35 133.86C76.01 130.68 82.15 126.47 85 124.52C87.85 122.57 91.88 119.81 93.96 118.39C96.03 116.97 98.24 115.46 98.87 115.04L100 114.26C101.52 115.33 102.76 116.2 103.73 116.88C104.7 117.56 106.08 118.53 106.8 119.03C107.52 119.54 109.35 120.83 110.88 121.91C112.4 122.98 113.94 124.06 114.29 124.31C114.65 124.55 115.17 124.92 115.45 125.11C115.73 125.31 118.68 127.38 122 129.72C125.33 132.06 128.88 134.56 129.91 135.28C130.93 136 132.07 136.8 132.43 137.05C132.79 137.31 133.53 137.84 134.09 138.23C134.64 138.62 136.66 140.03 138.57 141.37C140.48 142.71 142.38 144.05 142.8 144.34C143.22 144.64 144.55 145.58 145.77 146.43C146.99 147.29 148 147.98 148.02 147.97C148.03 147.96 147.66 146.66 147.19 145.09C146.73 143.51 144.48 136.04 142.19 128.47C139.91 120.91 137.92 114.29 137.76 113.76C137.61 113.24 136.98 111.14 136.36 109.09C135.75 107.05 135.11 104.95 134.95 104.42C134.79 103.9 134.39 102.61 134.08 101.56L133.5 99.65C134.87 96.54 135.51 94.91 135.8 94.03C136.1 93.15 136.44 92 136.56 91.47C136.68 90.95 136.86 90.23 136.95 89.88L137.11 89.24C138.09 89.2 138.27 89.09 141.29 86.98C143.03 85.77 145.93 83.74 147.73 82.48C149.53 81.22 151.53 79.83 152.17 79.39C152.8 78.95 154.59 77.7 156.14 76.61C157.69 75.52 161.41 72.93 164.4 70.84C167.39 68.75 170.75 66.41 171.85 65.63C172.96 64.86 174.23 63.97 174.67 63.66C175.12 63.35 176.41 62.44 177.54 61.65C178.68 60.86 180.26 59.75 181.07 59.19C181.87 58.63 183.77 57.3 185.3 56.23C186.82 55.17 188.25 54.17 188.47 54.02C188.69 53.86 191.33 52.02 194.33 49.93C197.33 47.85 199.79 46.08 199.79 46.01C199.8 45.91 191.68 45.89 159.54 45.89L119.28 45.88C117.65 47.03 116.9 47.55 116.57 47.78L115.96 48.21C115.01 45.28 113.68 41.24 112.39 37.35C111.11 33.46 109.36 28.17 108.51 25.6C107.66 23.04 105.87 17.64 104.54 13.61C103.21 9.57 101.68 4.92 101.14 3.27C100.59 1.62 100.11 0.25 100.05 0.24C99.99 0.22 99.79 0.69 99.58 1.28Z" />
		<path class="shp1" d="M99.32 5.75C98.99 6.76 98.08 9.5 97.3 11.85C96.53 14.2 94.93 19.03 93.76 22.59C92.58 26.15 91.34 29.93 90.99 30.98C90.64 32.02 89.31 36.05 88.04 39.91C86.76 43.78 85.48 47.65 85.2 48.52C84.92 49.39 84.65 50.1 84.59 50.1C84.54 50.1 83.61 49.47 82.53 48.7L80.56 47.29C21.61 47.29 4.47 47.32 4.44 47.35C4.41 47.39 4.45 47.45 4.53 47.48C4.61 47.51 4.73 47.58 4.79 47.64C4.85 47.7 4.97 47.79 5.06 47.84C5.15 47.9 6.41 48.78 7.87 49.81C9.33 50.83 11.2 52.15 12.03 52.73C12.87 53.31 14.68 54.57 16.06 55.54C17.45 56.51 19.4 57.87 20.39 58.56C21.39 59.26 22.45 60 22.76 60.22C23.06 60.43 24.83 61.67 26.69 62.96C28.54 64.26 30.16 65.38 30.28 65.47C30.4 65.55 31.14 66.07 31.94 66.63C32.73 67.19 35.92 69.42 39.02 71.59C42.12 73.76 44.96 75.74 45.32 75.99C45.68 76.24 47.08 77.22 48.44 78.17C49.8 79.11 52.9 81.28 55.34 82.99C57.77 84.69 60.3 86.46 60.95 86.92L62.13 87.76C63.77 87.76 64.25 87.77 64.25 87.78C64.25 87.79 64.34 88.28 64.44 88.86C64.55 89.44 64.78 90.48 64.95 91.17C65.12 91.86 65.47 93.03 65.73 93.78C65.98 94.53 66.5 95.84 66.88 96.69C67.26 97.55 67.57 98.32 67.57 98.4C67.57 98.48 67.18 99.77 66.71 101.26C66.23 102.75 65.73 104.31 65.61 104.72C65.48 105.14 64.89 106.99 64.3 108.84C63.71 110.69 63.08 112.68 62.89 113.26C62.71 113.84 62.25 115.26 61.89 116.42C61.52 117.58 61.02 119.14 60.78 119.89C60.53 120.63 60.19 121.69 60.02 122.25C59.85 122.8 59.55 123.72 59.37 124.3C59.18 124.88 58.59 126.74 58.06 128.42C57.52 130.1 56.97 131.82 56.84 132.24C56.71 132.65 56.08 134.64 55.44 136.65C54.79 138.67 54.16 140.66 54.03 141.07C53.9 141.49 53.69 142.14 53.57 142.53C53.45 142.91 53.22 143.64 53.06 144.13C52.9 144.63 52.79 145.06 52.82 145.09C52.85 145.12 53.31 144.84 53.85 144.47C54.39 144.1 55.77 143.15 56.92 142.36C58.07 141.57 59.51 140.58 60.12 140.17C60.74 139.75 61.53 139.21 61.88 138.96C62.24 138.71 62.89 138.26 63.34 137.96C63.79 137.66 64.58 137.11 65.1 136.75C65.63 136.4 67.28 135.27 68.78 134.24C70.27 133.22 72.08 131.98 72.8 131.48C73.52 130.99 74.84 130.08 75.73 129.47C76.63 128.87 77.71 128.12 78.15 127.82C78.59 127.51 79.3 127.03 79.73 126.73C80.16 126.44 82.39 124.91 84.69 123.33C86.99 121.76 89.44 120.08 90.13 119.61C90.82 119.13 91.82 118.45 92.35 118.1C92.87 117.74 93.94 117.01 94.71 116.48C95.49 115.94 97 114.91 98.06 114.18L100 112.86C101.21 113.68 103.19 115.07 105.19 116.47C107.18 117.88 109.1 119.23 109.45 119.48C109.8 119.73 110.19 120 110.31 120.09C110.43 120.17 111.09 120.63 111.78 121.12C112.47 121.61 113.29 122.18 113.6 122.4C113.9 122.62 115.74 123.91 117.67 125.27C119.61 126.63 121.4 127.89 121.65 128.07C121.9 128.24 122.48 128.65 122.95 128.98C123.41 129.31 123.98 129.71 124.21 129.86C124.44 130.02 125.2 130.57 125.92 131.07C126.63 131.57 127.31 132.05 127.43 132.14C127.55 132.22 130.63 134.39 134.29 136.96C137.95 139.52 141.04 141.69 141.16 141.77C141.28 141.86 142.39 142.64 143.62 143.51C144.86 144.39 145.89 145.06 145.9 145.02C145.92 144.97 145.71 144.19 145.43 143.28C145.16 142.37 144.89 141.47 144.83 141.27C144.78 141.08 144.24 139.27 143.63 137.26C143.02 135.24 142.2 132.53 141.81 131.23C141.42 129.93 140.87 128.1 140.58 127.17C140.29 126.23 140.02 125.32 139.98 125.16C139.94 124.99 139.67 124.11 139.4 123.2C139.12 122.29 138.85 121.38 138.79 121.19C138.74 121 137.55 117.07 136.15 112.46C134.76 107.84 133.58 103.94 133.54 103.77C133.5 103.61 133.22 102.7 132.93 101.76C132.64 100.82 132.34 99.82 132.26 99.53L132.12 99C132.84 97.48 133.27 96.5 133.54 95.84C133.8 95.18 134.18 94.14 134.37 93.53C134.57 92.92 134.82 92.09 134.95 91.67C135.07 91.26 135.31 90.22 135.49 89.36L135.8 87.81L138.02 87.71C140.31 86.07 141.46 85.26 142.05 84.84C142.65 84.43 143.43 83.89 143.8 83.64C144.16 83.39 145.93 82.15 147.73 80.88C149.53 79.62 151.3 78.38 151.66 78.13C152.02 77.88 152.84 77.32 153.47 76.88C154.11 76.44 155.4 75.53 156.34 74.87C157.29 74.21 158.49 73.37 159.01 73C159.54 72.63 160.58 71.9 161.33 71.38C162.08 70.87 163.6 69.8 164.7 69.03C165.81 68.25 167.24 67.25 167.88 66.81C168.51 66.36 169.89 65.4 170.95 64.66C172 63.92 173.35 62.98 173.95 62.56C174.55 62.14 175.43 61.53 175.91 61.2C176.39 60.87 177.49 60.1 178.35 59.49C179.21 58.88 180.17 58.2 180.49 57.98C180.81 57.76 181.49 57.29 182.01 56.93C182.52 56.57 184.01 55.54 185.3 54.63C186.6 53.72 187.89 52.82 188.17 52.62C188.44 52.43 190.25 51.17 192.17 49.83C194.09 48.49 195.67 47.36 195.67 47.32C195.67 47.28 178.53 47.25 157.58 47.27L119.49 47.3C118.71 47.85 118.14 48.25 117.72 48.55C117.31 48.84 116.65 49.31 116.26 49.59C115.88 49.86 115.51 50.06 115.45 50.02C115.39 49.98 114.53 47.51 113.55 44.53C112.56 41.55 110.97 36.71 110 33.79C109.03 30.86 107.91 27.45 107.5 26.21C107.09 24.96 106.3 22.59 105.76 20.93C105.21 19.28 103.81 15.03 102.64 11.5C101.47 7.96 100.43 4.81 100.33 4.49C100.23 4.17 100.1 3.91 100.04 3.91C99.98 3.92 99.65 4.74 99.32 5.75Z" />
		<path class="shp2" d="M99.71 14.68C99.58 15.09 97.3 21.96 94.65 29.97C91.99 37.98 88.93 47.2 87.85 50.45C86.76 53.71 85.84 56.42 85.8 56.48C85.75 56.54 85.4 56.35 84.88 55.98C84.42 55.65 83.01 54.64 81.75 53.75L79.46 52.11C32.99 52.11 19.48 52.13 19.44 52.16C19.41 52.19 19.45 52.23 19.54 52.25C19.62 52.28 22.27 53.05 25.43 53.96L31.17 55.63L78.3 55.63C80.02 56.76 81.53 57.74 82.78 58.55C84.03 59.35 85.1 60.04 85.17 60.08C85.24 60.11 85.81 59.86 86.43 59.5C87.05 59.15 87.77 58.76 88.02 58.63C88.43 58.41 88.49 58.32 88.69 57.73C88.81 57.38 89.74 54.48 90.77 51.31C91.8 48.13 94.28 40.45 96.28 34.24C98.29 28.03 99.95 22.92 99.97 22.89C99.98 22.87 100.02 22.87 100.05 22.89C100.08 22.92 101.3 26.67 102.76 31.23C104.22 35.78 106.76 43.71 108.41 48.85C110.05 53.98 111.45 58.25 111.52 58.32C111.58 58.4 112.02 58.65 112.49 58.89C112.96 59.12 113.65 59.5 114.02 59.73C114.4 59.96 114.73 60.14 114.75 60.14C114.78 60.14 116.37 59.13 118.28 57.88L121.75 55.63L168.83 55.63C170.24 55.23 171.17 54.96 171.8 54.77C172.44 54.59 173.69 54.22 174.57 53.96C175.46 53.71 177.1 53.23 178.22 52.9C179.34 52.58 180.33 52.31 180.41 52.31C180.5 52.31 180.56 52.26 180.56 52.19C180.56 52.09 174.52 52.07 150.58 52.09L120.59 52.12C115.79 55.54 114.36 56.53 114.3 56.53C114.24 56.53 113.89 55.57 113.51 54.4C113.13 53.22 110.79 46.16 108.31 38.71C105.84 31.25 103 22.69 102 19.68C101 16.67 100.13 14.15 100.06 14.08C99.98 13.99 99.89 14.13 99.71 14.68Z" />
		<path class="shp1" d="M96.83 32.56C95.12 37.87 93.46 43.01 93.14 43.98C92.82 44.94 91.66 48.56 90.54 52.01C89.43 55.46 88.53 58.3 88.55 58.31C88.56 58.32 89.09 58.12 89.73 57.87C90.37 57.62 91.02 57.36 91.19 57.29C91.47 57.17 91.53 57.04 92.01 55.51C92.3 54.61 92.7 53.33 92.9 52.66C93.1 52 93.29 51.39 93.31 51.31C93.33 51.21 93.59 51.11 94.03 51.03C94.41 50.96 94.98 50.86 95.32 50.81C95.65 50.75 96.34 50.67 96.85 50.61C97.37 50.55 98.79 50.5 100.03 50.5C101.51 50.49 102.73 50.55 103.63 50.65C104.37 50.74 105.36 50.89 105.83 50.99L106.67 51.16C107.27 53.02 107.63 54.18 107.86 54.92C108.09 55.67 108.34 56.48 108.42 56.73L108.57 57.18C110.67 58 111.3 58.22 111.33 58.21C111.36 58.2 110.03 53.94 108.37 48.75C106.71 43.56 104.3 36.03 103.02 32.03C101.74 28.03 100.56 24.33 100.4 23.82C100.23 23.31 100.07 22.89 100.02 22.89C99.98 22.89 98.54 27.24 96.83 32.56Z" />
		<path class="shp0" d="M98.74 50.52C97.63 50.56 96.27 50.66 95.72 50.74C95.17 50.83 94.41 50.96 94.03 51.03C93.59 51.11 93.33 51.21 93.31 51.31C93.29 51.39 93.1 52 92.9 52.66C92.7 53.33 92.32 54.61 92.05 55.51C91.58 57.14 91.57 57.16 91.23 57.29C91.04 57.36 90.5 57.56 90.03 57.74C89.56 57.92 88.74 58.28 88.22 58.54C87.69 58.8 86.82 59.27 86.28 59.58C85.74 59.89 85.24 60.11 85.17 60.08C85.1 60.04 84.03 59.35 82.78 58.55C81.53 57.74 80.02 56.76 79.41 56.36L78.3 55.63L31.17 55.63C22.66 53.15 20.01 52.38 19.79 52.33L19.39 52.22C19.78 52.53 20.57 53.1 21.4 53.69C22.23 54.28 23.63 55.26 24.51 55.87C25.39 56.48 26.32 57.13 26.57 57.31C26.83 57.49 27.15 57.71 27.29 57.81C27.43 57.91 27.99 58.29 28.53 58.66L29.51 59.34C76.6 59.33 76.69 59.33 76.89 59.54L77.09 59.74C76.48 60.4 76.27 60.62 76.24 60.65C76.21 60.67 75.86 61.06 75.47 61.5C75.08 61.94 74.39 62.78 73.95 63.36C73.51 63.94 73.13 64.46 73.11 64.51C73.08 64.57 72.84 64.95 72.56 65.36C72.29 65.78 71.9 66.41 71.7 66.77L71.34 67.42L48.19 67.42C39.45 64.88 36.87 64.18 36.83 64.23C36.79 64.27 37.78 65.03 39.04 65.92C40.29 66.8 41.87 67.91 42.54 68.38C43.22 68.85 44.03 69.41 44.34 69.63C44.66 69.85 45.29 70.3 45.75 70.62L46.58 71.2L73.21 71.19L74.62 73.3C74.22 74.43 73.95 75.39 73.76 76.16C73.57 76.93 73.36 77.94 73.29 78.39L73.16 79.22L64.75 79.22C59.41 77.65 57.63 77.13 57.35 77.06C57.07 76.98 56.09 76.69 55.16 76.41C54.15 76.11 53.45 75.95 53.42 76.01C53.4 76.06 53.38 76.12 53.4 76.13C53.41 76.15 53.56 76.25 53.73 76.37C53.89 76.48 54.73 77.07 55.59 77.67C56.45 78.26 57.81 79.21 58.61 79.77C59.41 80.34 60.78 81.3 61.66 81.92L63.24 83.04L67.42 83.03C67.54 83.62 67.57 84.06 67.57 84.39C67.57 84.72 67.64 85.56 67.72 86.25C67.8 86.94 67.96 87.96 68.08 88.51C68.19 89.06 68.42 90.03 68.59 90.67C68.76 91.3 68.96 92 69.03 92.22C69.11 92.44 69.3 92.99 69.47 93.43C69.63 93.87 69.93 94.59 70.13 95.04L70.5 95.84C71.86 95.96 72.26 96 72.27 96.01C72.28 96.03 71.71 97.89 71 100.16C70.29 102.42 68.84 107.05 67.78 110.45C66.72 113.84 65.58 117.46 65.26 118.48C64.93 119.5 64.12 122.1 63.45 124.25C62.77 126.41 61.78 129.59 61.23 131.33C60.68 133.07 60.18 134.69 60.1 134.92C60.03 135.15 60 135.38 60.04 135.42C60.09 135.46 60.49 135.24 60.95 134.93C61.41 134.62 62.12 134.13 62.54 133.84C62.95 133.55 64.18 132.7 65.26 131.96C66.34 131.22 67.36 130.51 67.52 130.4C67.69 130.28 68.64 129.62 69.64 128.93C70.63 128.25 72.47 126.97 73.72 126.11C74.96 125.24 76.53 124.16 77.19 123.71C77.85 123.26 78.9 122.55 79.51 122.13C80.12 121.71 80.89 121.18 81.22 120.94C81.55 120.71 83.43 119.42 85.4 118.06C87.36 116.71 89.45 115.27 90.03 114.87C90.61 114.46 92.33 113.27 93.86 112.22C95.38 111.17 97.01 110.04 97.48 109.72L98.34 109.13L101.66 109.12C102.65 109.8 103.13 110.13 103.37 110.3C103.62 110.46 104.49 111.08 105.31 111.66C106.13 112.25 107.15 112.97 107.57 113.27C107.99 113.57 109.07 114.33 109.97 114.97C110.87 115.6 112.49 116.75 113.58 117.53C114.67 118.3 116.26 119.43 117.12 120.03C117.98 120.63 118.91 121.29 119.18 121.49C119.46 121.7 120.48 122.42 121.45 123.1C122.42 123.78 123.48 124.53 123.82 124.77C124.15 125.01 125.08 125.67 125.88 126.23C126.68 126.8 127.45 127.35 127.59 127.44C127.73 127.54 128.01 127.73 128.22 127.87C128.43 128.01 128.68 128.19 128.78 128.27C128.87 128.35 129.95 129.12 131.17 129.98C132.39 130.84 133.72 131.78 134.14 132.07C134.55 132.36 135.78 133.23 136.86 133.99C137.94 134.75 138.88 135.39 138.95 135.41C139.02 135.43 139.07 135.36 139.07 135.25C139.07 135.14 139.01 134.86 138.93 134.62C138.85 134.39 138.65 133.72 138.48 133.14C138.32 132.56 137.66 130.26 137.01 128.02C136.37 125.78 135.59 123.12 135.3 122.09C135 121.07 134.32 118.75 133.8 116.92C133.27 115.1 132.59 112.73 132.27 111.65C131.96 110.58 131.44 108.77 131.11 107.64C130.79 106.5 130.37 105.04 130.17 104.37C129.98 103.71 129.36 101.56 128.8 99.6C128.24 97.64 127.8 96.03 127.81 96.01C127.83 96 128.22 95.95 128.69 95.91L129.53 95.84C129.88 95.14 130.15 94.55 130.34 94.08C130.53 93.61 130.85 92.73 131.05 92.12C131.24 91.52 131.52 90.54 131.66 89.96C131.8 89.38 132.01 88.39 132.12 87.76C132.22 87.12 132.36 86.08 132.42 85.45C132.48 84.81 132.53 84.01 132.53 83.66L132.53 83.04L136.76 83.04C139.68 80.99 141.55 79.69 142.78 78.83C144.02 77.97 145.35 77.04 145.75 76.76C146.14 76.49 146.48 76.2 146.49 76.13C146.51 76.06 146.47 76.01 146.4 76.01C146.33 76.01 145.98 76.09 145.62 76.2C145.26 76.31 144.56 76.51 144.06 76.66C143.56 76.8 142.63 77.08 141.99 77.26C141.36 77.45 140.43 77.72 139.93 77.87C139.43 78.01 138.55 78.27 137.97 78.43C137.38 78.6 136.56 78.84 136.13 78.98C135.36 79.22 135.3 79.22 131.14 79.23L126.94 79.23C126.83 78.72 126.68 77.98 126.54 77.26C126.4 76.55 126.11 75.35 125.88 74.6L125.46 73.25C126.14 72.23 126.47 71.77 126.64 71.56L126.94 71.18L153.47 71.19C155.78 69.59 156.69 68.95 157 68.73C157.3 68.52 158.37 67.77 159.37 67.07C160.36 66.37 161.43 65.63 161.73 65.41C162.04 65.2 162.56 64.85 162.89 64.63C163.26 64.39 163.46 64.21 163.39 64.15C163.33 64.1 162.9 64.19 162.34 64.36C161.81 64.51 159.97 65.05 158.26 65.55C156.54 66.05 154.41 66.68 153.52 66.94L151.91 67.42L128.75 67.48C127.89 65.96 127.31 65.04 126.9 64.46C126.5 63.88 125.82 62.98 125.4 62.45C124.98 61.93 124.61 61.48 124.58 61.45C124.55 61.42 124.17 61.03 123.73 60.59L122.94 59.79L123.41 59.34L170.54 59.34C171.51 58.68 172.28 58.14 172.88 57.73C173.48 57.31 174.49 56.6 175.13 56.16C175.76 55.72 177.08 54.79 178.05 54.11C179.03 53.42 179.96 52.77 180.12 52.65C180.28 52.53 180.39 52.4 180.36 52.37C180.33 52.34 179.38 52.58 178.25 52.9C177.11 53.23 175.46 53.71 174.57 53.96C173.69 54.22 172.44 54.59 171.8 54.77C171.17 54.96 170.24 55.23 169.74 55.37L168.83 55.63L121.75 55.63C116.37 59.13 114.78 60.14 114.75 60.14C114.73 60.14 114.4 59.96 114.02 59.73C113.65 59.5 112.96 59.11 112.49 58.87C112.02 58.63 111.56 58.39 111.48 58.34C111.4 58.29 110.71 58.01 109.95 57.71L108.57 57.18C108.34 56.48 108.09 55.67 107.86 54.92C107.63 54.18 107.27 53.02 107.06 52.36L106.67 51.16C105.36 50.89 104.37 50.75 103.63 50.67C102.88 50.58 101.93 50.5 101.51 50.48C101.1 50.47 99.85 50.48 98.74 50.52Z" />
		<path class="shp1" d="M96.93 52.72C96.49 52.77 95.87 52.86 95.57 52.92C95.26 52.97 95.01 53.03 95 53.04C94.99 53.06 94.85 53.52 94.68 54.07C94.52 54.62 94.22 55.59 94.02 56.23C93.82 56.86 93.56 57.71 93.43 58.12L93.2 58.86C91.49 59.44 90.74 59.72 90.43 59.84C90.13 59.96 89.34 60.33 88.67 60.67C88.01 61 87.04 61.54 86.53 61.86C86.02 62.19 85.55 62.45 85.5 62.45C85.44 62.45 84.48 62.1 83.36 61.66C82.24 61.22 80.93 60.72 80.46 60.55L79.61 60.23C77.72 62.15 76.7 63.29 76.13 64.01C75.56 64.73 74.86 65.68 74.57 66.12C74.29 66.56 73.93 67.15 73.77 67.42L73.49 67.93C74.02 68.7 74.81 69.83 75.57 70.94C76.59 72.4 76.95 73 76.91 73.15C76.88 73.26 76.69 73.82 76.49 74.4C76.28 74.98 76.01 75.89 75.87 76.41C75.74 76.93 75.54 77.97 75.43 78.72C75.32 79.46 75.2 80.32 75.17 80.63L75.12 81.18C73.76 81.94 73.11 82.31 72.81 82.49C72.51 82.67 72.03 82.94 71.75 83.09C71.48 83.24 70.91 83.55 70.5 83.78C70.09 84.01 69.74 84.24 69.72 84.29C69.69 84.35 69.73 84.91 69.79 85.55C69.85 86.18 70 87.18 70.11 87.76C70.22 88.34 70.44 89.33 70.6 89.96C70.76 90.6 71.04 91.55 71.23 92.07C71.42 92.6 71.65 93.2 71.74 93.4C71.84 93.64 71.99 93.8 72.13 93.82C72.25 93.85 73.56 93.94 75.03 94.03C76.49 94.12 77.81 94.21 77.95 94.24C78.13 94.28 78.31 94.49 78.65 95.06C78.9 95.49 79.35 96.18 79.64 96.59C79.94 97.01 80.53 97.75 80.95 98.24C81.38 98.74 82.12 99.53 82.6 100L83.48 100.86C82.78 105.29 82.58 106.67 82.58 106.78C82.58 106.93 82.85 107.16 83.61 107.63C84.18 107.99 85.12 108.53 85.7 108.83C86.28 109.13 87.17 109.56 87.66 109.77C88.16 109.99 88.98 110.32 89.48 110.5C89.97 110.68 90.64 110.92 90.96 111.02C91.53 111.2 91.53 111.2 91.71 110.99C91.81 110.87 92.42 110.22 93.07 109.53C93.71 108.85 94.39 108.13 94.58 107.93C94.76 107.73 95.11 107.36 95.34 107.1L95.77 106.63C96.82 106.8 97.79 106.88 98.59 106.93C99.49 106.99 100.61 106.99 101.51 106.93C102.31 106.87 103.27 106.78 103.63 106.73L104.28 106.63C104.9 107.29 105.58 108.03 106.2 108.69C106.82 109.35 107.6 110.19 107.93 110.55L108.53 111.2C110.39 110.59 111.33 110.24 111.83 110.02C112.33 109.81 113.1 109.45 113.54 109.24C113.99 109.03 114.74 108.64 115.21 108.38C115.68 108.12 116.37 107.71 116.74 107.47C117.12 107.23 117.44 107 117.47 106.96C117.49 106.92 117.3 105.53 117.04 103.87L116.58 100.86C117.8 99.69 118.52 98.92 118.98 98.4C119.43 97.87 119.96 97.22 120.16 96.94C120.35 96.67 120.72 96.14 120.98 95.76C121.24 95.39 121.45 95.06 121.45 95.04C121.45 95.01 121.56 94.82 121.69 94.61L121.92 94.23C124.01 94.1 124.69 94.05 124.77 94.03C124.86 94.02 125.54 93.98 126.28 93.94C127.03 93.9 127.77 93.85 127.92 93.83C128.15 93.79 128.23 93.69 128.41 93.2C128.53 92.89 128.75 92.26 128.91 91.82C129.07 91.38 129.33 90.48 129.5 89.81C129.67 89.15 129.9 88.07 130.01 87.4C130.13 86.74 130.25 85.75 130.29 85.2C130.34 84.27 130.33 84.18 130.15 84.11C130.05 84.06 129.19 83.59 128.25 83.06C127.31 82.53 126.17 81.89 125.73 81.63L124.92 81.16C124.67 78.84 124.49 77.72 124.37 77.16C124.25 76.61 123.93 75.5 123.65 74.7C123.37 73.9 123.14 73.16 123.13 73.05C123.13 72.94 123.61 72.14 124.22 71.29C124.82 70.43 125.6 69.34 125.95 68.85L126.59 67.98C126.33 67.47 125.93 66.83 125.53 66.22C125.13 65.61 124.52 64.75 124.17 64.31C123.83 63.87 123.12 63.03 122.61 62.45C122.09 61.87 121.37 61.14 121.01 60.82L120.34 60.24C118.9 60.81 117.62 61.3 116.57 61.71C115.51 62.12 114.58 62.45 114.5 62.45C114.42 62.45 114.21 62.34 114.05 62.22C113.88 62.09 113.38 61.77 112.94 61.5C112.5 61.23 111.73 60.81 111.23 60.57C110.73 60.32 109.82 59.92 109.21 59.69C108.61 59.45 107.83 59.18 107.5 59.09L106.9 58.92C106.56 57.89 106.23 56.84 105.94 55.93C105.65 55.02 105.35 54.02 105.27 53.72C105.19 53.41 105.08 53.12 105.02 53.07C104.97 53.01 104.55 52.91 104.1 52.84C103.63 52.76 102.06 52.69 100.5 52.67C98.98 52.64 97.37 52.67 96.93 52.72Z" />
		<path class="shp2" d="M97.48 61.4C96.96 61.47 96.14 61.61 95.67 61.7C95.2 61.8 94.2 62.07 93.45 62.31C92.71 62.55 91.46 63.06 90.68 63.44C89.91 63.83 89.2 64.22 89.11 64.33C89.02 64.43 88.71 64.92 88.43 65.42C88.14 65.91 87.77 66.68 87.6 67.12C87.43 67.56 87.21 68.31 87.1 68.78C87 69.25 86.89 70.11 86.85 70.69C86.81 71.41 86.84 72.11 86.95 72.9C87.04 73.53 87.14 74.09 87.19 74.13C87.23 74.18 87.51 73.99 87.81 73.73C88.12 73.46 88.57 73.08 88.82 72.88C89.07 72.68 89.66 72.27 90.13 71.96C90.6 71.66 91.51 71.15 92.15 70.85C92.78 70.54 93.78 70.14 94.36 69.95C94.94 69.75 95.94 69.51 96.58 69.39C97.21 69.28 97.9 69.16 98.11 69.13L98.49 69.08C98.49 63.01 98.48 61.25 98.46 61.26C98.45 61.26 98.01 61.33 97.48 61.4ZM101.73 65.2L101.71 69.08C102.45 69.17 103.14 69.29 103.73 69.4C104.31 69.51 105.26 69.76 105.84 69.95C106.42 70.14 107.42 70.54 108.06 70.85C108.69 71.15 109.71 71.73 110.32 72.14C110.93 72.55 111.77 73.18 112.19 73.54C112.6 73.91 112.97 74.21 113.02 74.2C113.06 74.2 113.15 73.83 113.22 73.37C113.29 72.92 113.34 71.91 113.34 71.14C113.33 70.37 113.27 69.46 113.21 69.13C113.14 68.8 112.97 68.17 112.82 67.72C112.68 67.28 112.32 66.45 112.03 65.87C111.73 65.29 111.36 64.65 111.2 64.46C111 64.23 110.52 63.92 109.76 63.54C109.13 63.22 108.2 62.81 107.7 62.62C107.21 62.43 106.46 62.18 106.04 62.07C105.63 61.95 104.86 61.77 104.33 61.66C103.8 61.55 103.01 61.43 102.56 61.39L101.74 61.32L101.73 65.2ZM83.31 69.39C83.05 69.73 82.57 70.4 82.24 70.87C81.92 71.35 81.32 72.42 80.91 73.25C80.51 74.08 80.02 75.23 79.82 75.81C79.63 76.39 79.39 77.25 79.29 77.73L79.1 78.6C79.6 80.21 79.95 81.15 80.2 81.73C80.45 82.31 80.89 83.23 81.19 83.77C81.48 84.31 81.77 84.73 81.82 84.71C81.88 84.69 81.94 84.55 81.96 84.38C81.97 84.22 82.12 83.57 82.27 82.94C82.43 82.3 82.72 81.35 82.93 80.83C83.13 80.3 83.54 79.4 83.85 78.82C84.15 78.24 84.48 77.7 84.57 77.61C84.67 77.53 84.74 77.37 84.73 77.26C84.72 77.15 84.59 76.63 84.45 76.11C84.3 75.58 84.1 74.61 83.99 73.95C83.87 73.24 83.78 72.21 83.77 71.44C83.77 70.72 83.79 69.83 83.83 69.46C83.87 69.08 83.87 68.78 83.84 68.78C83.81 68.78 83.57 69.05 83.31 69.39ZM116.4 68.93C116.37 68.98 116.39 69.48 116.44 70.03C116.49 70.59 116.5 71.44 116.47 71.94C116.44 72.44 116.34 73.27 116.26 73.8C116.17 74.32 115.99 75.2 115.85 75.76C115.7 76.31 115.56 76.93 115.52 77.13C115.48 77.39 115.5 77.52 115.58 77.56C115.65 77.59 115.9 77.96 116.14 78.39C116.38 78.82 116.76 79.6 116.99 80.12C117.22 80.65 117.52 81.46 117.66 81.93C117.8 82.4 117.99 83.09 118.07 83.46C118.16 83.84 118.23 84.25 118.23 84.39C118.23 84.55 118.28 84.64 118.38 84.64C118.46 84.64 118.74 84.26 119.02 83.76C119.29 83.28 119.68 82.5 119.89 82.03C120.1 81.56 120.46 80.59 120.7 79.87C121.07 78.71 121.11 78.52 121.02 78.12C120.97 77.87 120.79 77.19 120.63 76.61C120.46 76.03 120.14 75.1 119.91 74.55C119.68 74 119.3 73.16 119.05 72.69C118.81 72.23 118.28 71.34 117.87 70.74C117.46 70.13 116.97 69.45 116.79 69.23C116.6 69.01 116.42 68.87 116.4 68.93Z" />
		<path class="shp3" d="M97.33 69.24C96.83 69.32 96.04 69.48 95.57 69.59C95.1 69.71 94.28 69.96 93.76 70.16C93.23 70.35 92.39 70.71 91.89 70.96C91.39 71.21 90.6 71.66 90.13 71.97C89.66 72.28 89.07 72.69 88.82 72.89C88.57 73.08 88.1 73.47 87.79 73.75C87.47 74.03 87.21 74.32 87.21 74.4C87.21 74.48 87.35 75.03 87.52 75.61C87.69 76.19 88.07 77.29 88.37 78.07C88.66 78.84 89.15 80.04 89.46 80.73C89.76 81.42 90.33 82.73 90.73 83.64C91.13 84.55 91.59 85.66 91.76 86.1C91.93 86.54 92.2 87.29 92.36 87.76C92.52 88.23 92.8 89.15 92.96 89.81C93.13 90.48 93.33 91.4 93.41 91.87C93.48 92.34 93.56 92.97 93.58 93.26C93.59 93.56 93.65 93.84 93.71 93.88C93.76 93.93 94.26 94.08 94.81 94.22C95.37 94.35 96.27 94.54 96.83 94.62C97.38 94.71 97.98 94.78 98.16 94.78C98.36 94.78 98.51 94.73 98.54 94.63C98.57 94.55 98.59 88.86 98.59 81.98C98.59 73.85 98.55 69.41 98.49 69.28C98.43 69.17 98.35 69.08 98.31 69.09C98.27 69.1 97.83 69.16 97.33 69.24ZM101.71 69.2C101.59 69.3 101.57 71.4 101.59 81.83C101.6 88.7 101.65 94.44 101.69 94.57C101.76 94.8 101.78 94.81 102.47 94.74C102.85 94.7 103.63 94.58 104.18 94.47C104.73 94.36 105.44 94.2 105.74 94.11C106.04 94.02 106.38 93.85 106.47 93.74C106.59 93.61 106.65 93.37 106.65 93.13C106.65 92.91 106.72 92.32 106.8 91.82C106.89 91.33 107.07 90.47 107.21 89.91C107.35 89.36 107.6 88.48 107.78 87.96C107.95 87.43 108.37 86.3 108.72 85.45C109.06 84.59 109.65 83.21 110.02 82.38C110.39 81.56 110.91 80.36 111.18 79.72C111.44 79.09 111.87 77.98 112.13 77.26C112.4 76.55 112.7 75.62 112.81 75.2C112.91 74.79 112.99 74.4 112.97 74.33C112.95 74.27 112.6 73.91 112.19 73.55C111.77 73.18 110.93 72.55 110.32 72.14C109.71 71.73 108.69 71.15 108.06 70.85C107.42 70.54 106.42 70.14 105.84 69.95C105.26 69.76 104.31 69.51 103.73 69.4C103.14 69.29 102.48 69.17 102.26 69.14C102 69.11 101.79 69.13 101.71 69.2ZM84.51 77.64C84.46 77.71 84.16 78.24 83.85 78.82C83.54 79.4 83.13 80.3 82.93 80.83C82.72 81.35 82.43 82.31 82.27 82.96C82.11 83.61 81.97 84.24 81.98 84.37C81.98 84.49 81.93 84.64 81.87 84.69C81.8 84.76 81.89 84.98 82.17 85.4C82.39 85.73 82.87 86.38 83.25 86.85C83.62 87.32 84.3 88.07 84.74 88.51C85.19 88.95 85.71 89.45 85.9 89.62C86.1 89.79 86.55 90.16 86.91 90.44C87.27 90.72 87.95 91.19 88.42 91.49C88.89 91.8 89.47 92.14 89.7 92.26C89.94 92.38 90.18 92.45 90.23 92.42C90.29 92.4 90.31 92.23 90.27 92.05C90.24 91.87 90.1 91.25 89.96 90.67C89.82 90.09 89.46 88.96 89.17 88.16C88.88 87.36 88.43 86.2 88.17 85.6C87.91 84.99 87.32 83.63 86.86 82.58C86.4 81.54 85.84 80.2 85.62 79.62C85.39 79.04 85.13 78.33 85.03 78.04C84.93 77.75 84.79 77.51 84.73 77.51C84.67 77.51 84.57 77.57 84.51 77.64ZM115.23 77.97C115.12 78.22 115.02 78.46 115.02 78.5C115.01 78.54 114.76 79.18 114.46 79.92C114.16 80.67 113.69 81.8 113.42 82.43C113.14 83.07 112.61 84.29 112.24 85.15C111.86 86 111.34 87.31 111.06 88.06C110.79 88.8 110.43 89.93 110.27 90.57C110.11 91.2 109.97 91.87 109.97 92.05C109.97 92.23 110 92.37 110.05 92.38C110.09 92.38 110.55 92.13 111.08 91.83C111.6 91.53 112.48 90.95 113.03 90.55C113.58 90.15 114.6 89.25 115.3 88.56C116 87.87 116.71 87.12 116.87 86.9C117.03 86.68 117.21 86.46 117.27 86.4C117.33 86.35 117.62 85.94 117.91 85.5C118.21 85.05 118.4 84.68 118.34 84.67C118.28 84.65 118.23 84.53 118.23 84.39C118.23 84.25 118.16 83.84 118.07 83.46C117.99 83.09 117.8 82.4 117.66 81.93C117.52 81.46 117.22 80.65 116.99 80.12C116.76 79.6 116.37 78.81 116.12 78.37C115.87 77.94 115.61 77.56 115.54 77.54C115.48 77.52 115.34 77.71 115.23 77.97Z" />
		<path class="shp2" d="M79.23 86.84C79.19 86.9 79.31 87.51 79.5 88.18C79.69 88.86 79.98 89.77 80.16 90.22C80.34 90.66 80.73 91.52 81.03 92.12C81.34 92.73 81.84 93.61 82.15 94.08C82.45 94.55 83.01 95.31 83.37 95.76C83.74 96.22 84.06 96.57 84.09 96.54C84.12 96.51 83.88 95.96 83.57 95.31C83.26 94.66 82.85 93.7 82.68 93.18C82.5 92.65 82.25 91.75 82.13 91.17L81.91 90.12C80.75 88.71 80.19 87.99 79.92 87.61C79.64 87.22 79.39 86.86 79.36 86.82C79.33 86.77 79.27 86.78 79.23 86.84ZM120.29 87.63C119.96 88.11 119.37 88.86 118.99 89.3C118.3 90.1 118.29 90.13 118.1 91.07C118 91.59 117.75 92.5 117.56 93.08C117.37 93.66 116.94 94.7 116.61 95.39C116.28 96.08 116.03 96.65 116.06 96.67C116.09 96.68 116.41 96.32 116.77 95.86C117.13 95.41 117.69 94.65 118 94.18C118.32 93.71 118.87 92.74 119.24 92.02C119.6 91.31 120.09 90.15 120.32 89.46C120.55 88.77 120.81 87.91 120.89 87.55C120.97 87.2 121.01 86.87 120.96 86.84C120.92 86.8 120.62 87.16 120.29 87.63Z" />
		<path class="shp3" d="M82.04 90.67C82.07 90.92 82.2 91.53 82.33 92.02C82.46 92.52 82.72 93.33 82.91 93.83C83.1 94.33 83.46 95.14 83.7 95.64C83.95 96.13 84.28 96.74 84.45 96.99C84.62 97.24 85.17 97.81 85.66 98.25C86.15 98.69 86.84 99.27 87.19 99.53C87.53 99.79 87.85 100.01 87.89 100.01C87.93 100.01 88.22 99.78 88.53 99.48C88.84 99.19 89.23 98.77 89.4 98.55C89.57 98.33 89.85 97.85 90.01 97.5C90.18 97.14 90.34 96.65 90.37 96.42C90.41 96.16 90.39 95.99 90.33 95.99C90.28 95.99 89.7 95.73 89.05 95.41C88.4 95.08 87.46 94.57 86.96 94.26C86.46 93.95 85.6 93.35 85.05 92.93C84.49 92.51 83.57 91.73 83.01 91.2L81.98 90.23L82.04 90.67ZM117.17 91.23C116.67 91.7 115.71 92.5 115.04 93.01C114.37 93.52 113.44 94.16 112.98 94.43C112.51 94.7 111.66 95.17 111.08 95.46C110.5 95.75 109.96 95.99 109.89 95.99C109.8 95.99 109.79 96.11 109.83 96.42C109.86 96.65 110.02 97.14 110.19 97.5C110.36 97.85 110.63 98.33 110.8 98.55C110.97 98.77 111.36 99.19 111.67 99.48C111.98 99.77 112.28 100 112.34 100C112.39 100 112.84 99.67 113.34 99.28C113.84 98.88 114.61 98.19 115.06 97.75C115.77 97.04 115.94 96.8 116.43 95.79C116.74 95.15 117.16 94.18 117.37 93.63C117.57 93.08 117.85 92.16 117.99 91.6C118.12 91.03 118.23 90.52 118.23 90.47C118.23 90.41 118.19 90.37 118.15 90.37C118.11 90.37 117.67 90.76 117.17 91.23Z" />
		<path class="shp1" d="M75.45 96.43C75.39 96.58 75.34 96.74 75.34 96.77C75.33 96.81 75.1 97.54 74.82 98.4C74.54 99.25 73.99 100.95 73.6 102.16C73.21 103.38 72.5 105.62 72.01 107.13C71.52 108.65 70.72 111.12 70.24 112.61C69.76 114.1 69.18 115.93 68.94 116.67C68.7 117.42 68.16 119.11 67.73 120.44C67.3 121.76 66.57 124.02 66.11 125.46C65.64 126.89 65.26 128.1 65.26 128.14C65.26 128.19 65.32 128.21 65.39 128.19C65.46 128.18 66.8 127.29 68.36 126.21C69.92 125.13 71.87 123.8 72.69 123.24C73.5 122.69 74.78 121.81 75.53 121.29C76.28 120.78 77.23 120.12 77.64 119.83C78.06 119.55 79.35 118.66 80.51 117.87C81.68 117.07 82.89 116.24 83.21 116.02C83.53 115.8 84.37 115.22 85.07 114.73C85.78 114.24 86.8 113.54 87.34 113.18C87.88 112.81 88.31 112.47 88.3 112.43C88.28 112.39 87.77 112.14 87.16 111.87C86.55 111.61 85.46 111.08 84.74 110.71C84.02 110.33 83.24 109.91 83 109.76C82.76 109.61 82.05 109.13 81.41 108.69C80.77 108.25 80.25 107.84 80.25 107.79C80.26 107.73 80.47 106.32 80.74 104.65L81.22 101.61C79.95 100.33 79.22 99.5 78.79 98.95C78.35 98.4 77.74 97.57 77.44 97.12C76.95 96.39 76.85 96.29 76.59 96.29C76.42 96.29 76.12 96.26 75.92 96.23C75.59 96.17 75.54 96.19 75.45 96.43ZM123.49 96.26C123.25 96.28 123.06 96.34 123.06 96.39C123.06 96.45 122.85 96.8 122.59 97.17C122.33 97.54 121.79 98.28 121.38 98.8C120.97 99.33 120.24 100.18 119.75 100.71L118.87 101.66C119.06 102.91 119.28 104.31 119.47 105.58C119.67 106.85 119.82 107.89 119.81 107.9C119.8 107.9 119.34 108.22 118.78 108.61C118.23 109 117.48 109.49 117.12 109.71C116.76 109.93 115.94 110.39 115.31 110.72C114.67 111.06 113.67 111.53 113.09 111.78C112.51 112.02 111.94 112.25 111.83 112.29L111.63 112.36C111.94 112.65 113.48 113.77 115.26 115.04C117.03 116.3 119.1 117.79 119.86 118.33C120.62 118.88 121.82 119.74 122.52 120.24C123.22 120.73 124.25 121.47 124.81 121.88C125.37 122.28 126.5 123.09 127.32 123.68C128.14 124.27 129.17 125 129.6 125.31C130.03 125.61 131.09 126.37 131.96 126.99C132.83 127.61 133.6 128.14 133.69 128.17C133.77 128.2 133.84 128.2 133.84 128.17C133.84 128.14 133.67 127.57 133.48 126.89C133.28 126.21 132.92 124.98 132.68 124.15C132.44 123.32 131.88 121.4 131.44 119.89C131 118.37 130.24 115.77 129.76 114.11C129.28 112.46 128.73 110.56 128.53 109.9C128.34 109.23 127.86 107.61 127.48 106.28C127.09 104.96 126.58 103.19 126.34 102.36C126.1 101.54 125.68 100.14 125.42 99.25C125.16 98.37 124.88 97.4 124.8 97.09C124.72 96.79 124.61 96.46 124.56 96.37C124.5 96.25 124.37 96.2 124.19 96.21C124.04 96.22 123.72 96.24 123.49 96.26Z" />
		<path class="shp3" d="M93.45 97.17C93.37 97.19 93.32 97.31 93.33 97.43C93.34 97.55 93.2 98.01 93.02 98.45C92.84 98.89 92.5 99.52 92.28 99.85C92.06 100.19 91.64 100.73 91.35 101.06C91.06 101.39 90.83 101.68 90.83 101.71C90.83 101.74 91.15 101.91 91.54 102.09C91.93 102.27 92.85 102.61 93.58 102.86C94.44 103.14 95.51 103.4 96.58 103.58C97.49 103.73 98.32 103.83 98.41 103.79C98.58 103.73 98.59 103.51 98.59 101.24C98.6 99.87 98.57 98.57 98.54 98.35L98.47 97.95C97.28 97.82 96.41 97.7 95.77 97.59C95.13 97.48 94.38 97.33 94.1 97.26C93.82 97.19 93.52 97.15 93.45 97.17ZM105.89 97.3C105.73 97.35 105.07 97.48 104.43 97.59C103.79 97.7 102.93 97.82 102.5 97.87L101.73 97.95C101.63 98.57 101.61 99.87 101.61 101.24C101.61 103.12 101.64 103.73 101.74 103.78C101.81 103.81 102.27 103.78 102.77 103.72C103.27 103.65 104.08 103.52 104.58 103.42C105.08 103.32 106.04 103.05 106.72 102.83C107.4 102.6 108.27 102.27 108.66 102.09C109.05 101.91 109.37 101.72 109.36 101.66C109.36 101.61 109.17 101.38 108.95 101.16C108.73 100.94 108.31 100.4 108.01 99.96C107.71 99.51 107.35 98.84 107.2 98.45C107.05 98.06 106.88 97.62 106.81 97.47C106.73 97.26 106.63 97.19 106.45 97.2C106.31 97.21 106.06 97.25 105.89 97.3Z" />
	</g>
</svg>