<svg height="340.777101" viewBox="0 0 30.66746 35.50373" width="293.446948" xmlns="http://www.w3.org/2000/svg"><path d="m25.92073 10.33825-1.772-1.0805a.07788.07788 0 0 1 -.03811-.04941.07591.07591 0 0 1 .01629-.06045l1.22009-1.67872a.69022.69022 0 0 0 -.47126-1.13491l-2.05035-.32013a.07618.07618 0 0 1 -.05414-.031.07406.07406 0 0 1 -.00815-.062l.48492-2.018a.73841.73841 0 0 0 -.11906-.64289.67159.67159 0 0 0 -.54117-.251.89926.89926 0 0 0 -.20974.02576l-2.01675.4888a.0999.0999 0 0 1 -.02392.00315.06955.06955 0 0 1 -.06965-.06518l-.32407-2.04983a.6916.6916 0 0 0 -.67312-.63054.7885.7885 0 0 0 -.46254.16138l-1.67639 1.22349a.08157.08157 0 0 1 -.04784.01761.07149.07149 0 0 1 -.062-.03942l-1.08394-1.76966a.6906.6906 0 0 0 -1.229.00131l-1.0805 1.77176a.07115.07115 0 0 1 -.06177.03942.08157.08157 0 0 1 -.04784-.01761l-1.67872-1.22006a.78745.78745 0 0 0 -.46153-.16062.69149.69149 0 0 0 -.67338.63185l-.32009 2.05064a.06937.06937 0 0 1 -.06965.06518.0934.0934 0 0 1 -.02339-.00289l-2.018-.48493a.89809.89809 0 0 0 -.20816-.02549.67156.67156 0 0 0 -.5417.25153.73779.73779 0 0 0 -.11827.64394l.48887 2.01671a.076.076 0 0 1 -.00788.062.07447.07447 0 0 1 -.05414.031l-2.04983.32433a.69053.69053 0 0 0 -.46916 1.136l1.2234 1.67613a.07023.07023 0 0 1 -.02208.10986l-1.76965 1.08414a.69039.69039 0 0 0 .00132 1.22874l1.772 1.0805a.077.077 0 0 1 .03811.04941.0759.0759 0 0 1 -.01629.06045l-1.22006 1.67874a.69022.69022 0 0 0 .47126 1.13491l2.05036.32013a.07675.07675 0 0 1 .0544.031.07486.07486 0 0 1 .00789.062l-.48493 2.018a.73835.73835 0 0 0 .11906.64263.67141.67141 0 0 0 .54117.25127.88613.88613 0 0 0 .20974-.026l2.01671-.48887a.11388.11388 0 0 1 .02392-.00289.06937.06937 0 0 1 .06965.06518l.32407 2.04983a.69155.69155 0 0 0 .67311.63027.78815.78815 0 0 0 .46259-.16111l1.67635-1.22349a.08157.08157 0 0 1 .04784-.01761.07172.07172 0 0 1 .06229.03916l1.08366 1.76991a.69071.69071 0 0 0 1.229-.00105l1.0805-1.772a.07143.07143 0 0 1 .06177-.03942.07985.07985 0 0 1 .04784.01761l1.679 1.22007a.78863.78863 0 0 0 .46153.16059.69146.69146 0 0 0 .67311-.63211l.32013-2.05036a.06961.06961 0 0 1 .06965-.06544.09262.09262 0 0 1 .02339.00315l2.018.48493a.8981.8981 0 0 0 .20816.02549.6712.6712 0 0 0 .5417-.25153.73761.73761 0 0 0 .11827-.64394l-.48887-2.01671a.07585.07585 0 0 1 .00788-.062.07753.07753 0 0 1 .05441-.03128l2.04957-.32407a.69037.69037 0 0 0 .46915-1.1357l-1.22345-1.67639a.07811.07811 0 0 1 -.01629-.06019.07506.07506 0 0 1 .03837-.04968l1.7696-1.08413a.69039.69039 0 0 0 -.00131-1.22874" fill="#e56020"/><path d="m16.67838 2.3554a.47234.47234 0 0 0 .69072.13667l1.67635-1.22349a.29192.29192 0 0 1 .50043.20685l.32434 2.04983a.472.472 0 0 0 .58585.39057l2.017-.48887c.27755-.06728.45.10513.38321.38268l-.48493 2.01777a.47285.47285 0 0 0 .39188.58533l2.05036.32013a.292.292 0 0 1 .2079.50017l-1.22034 1.67872a.47223.47223 0 0 0 .138.69046l1.772 1.08024a.29215.29215 0 0 1 .00053.5417l-1.76968 1.08419a.47163.47163 0 0 0 -.13667.69046l1.22349 1.67661a.292.292 0 0 1 -.20685.50043l-2.05009.32407a.4725.4725 0 0 0 -.39057.58612l.48913 2.01671c.067.27755-.10513.45023-.38268.38321l-2.018-.48467a.47211.47211 0 0 0 -.58506.39162l-.32013 2.05062a.292.292 0 0 1 -.50017.20764l-1.67871-1.22007a.47223.47223 0 0 0 -.69046.138l-1.0805 1.77176a.29209.29209 0 0 1 -.5417.00079l-1.08392-1.76991a.47215.47215 0 0 0 -.69072-.13667l-1.67608 1.22349a.29231.29231 0 0 1 -.501-.20685l-.32407-2.04983a.47236.47236 0 0 0 -.58585-.39057l-2.01671.48887c-.27755.067-.45023-.10487-.38347-.38269l.48466-2.018a.47182.47182 0 0 0 -.39162-.5848l-2.05062-.32013a.292.292 0 0 1 -.20764-.50017l1.22033-1.67871a.47258.47258 0 0 0 -.138-.69046l-1.772-1.08077a.292.292 0 0 1 -.00053-.5417l1.76991-1.08375a.47238.47238 0 0 0 .13667-.69072l-1.22348-1.67628a.292.292 0 0 1 .20685-.5007l2.04957-.32433a.47217.47217 0 0 0 .39083-.58559l-.48887-2.017c-.06729-.27781.10487-.45.38268-.38347l2.0175.48493a.47252.47252 0 0 0 .58533-.39188l.32013-2.05036a.29216.29216 0 0 1 .50043-.20764l1.67846 1.22032a.47244.47244 0 0 0 .69046-.13825l1.0805-1.77175a.292.292 0 0 1 .5417-.00053z" fill="#1d1160"/><path d="m8.56876 10.963a6.765 6.765 0 1 1 6.765 6.76479 6.765 6.765 0 0 1 -6.765-6.76479" fill="#1d1160"/><path d="m10.61087 8.20792a10.03879 10.03879 0 0 1 4.72313-1.07262 10.03811 10.03811 0 0 1 4.72258 1.07262 4.93953 4.93953 0 0 1 1.29655.98273 6.28027 6.28027 0 0 0 -8.16313-4.12542 6.23807 6.23807 0 0 0 -1.82511 1.039 6.30144 6.30144 0 0 0 -2.05058 3.08642 4.93953 4.93953 0 0 1 1.29655-.98273m.31645 5.03981a9.56352 9.56352 0 0 0 4.40639.97274 9.56508 9.56508 0 0 0 4.40639-.97274 2.81542 2.81542 0 0 0 1.79436-2.28481 2.81512 2.81512 0 0 0 -1.79436-2.28428 9.56837 9.56837 0 0 0 -4.40639-.97274 9.56681 9.56681 0 0 0 -4.40639.97274 2.81524 2.81524 0 0 0 -1.7941 2.28428 2.81555 2.81555 0 0 0 1.7941 2.28481m9.12923.47073a10.04 10.04 0 0 1 -4.72284 1.07236 10.03852 10.03852 0 0 1 -4.72284-1.07236 4.94826 4.94826 0 0 1 -1.29655-.98273 6.27987 6.27987 0 0 0 8.16332 4.12489 6.24152 6.24152 0 0 0 1.82511-1.039 6.305 6.305 0 0 0 2.05062-3.08645 4.958 4.958 0 0 1 -1.29682.98326" fill="#e56020"/><path d="m19.191 12.152-1.2-.003 1.906-2.462-.289-.379h-2.056l-.155.615.078.055.3-.202h1.043l-1.908 2.468.286.376h.161 2.057l.155-.616-.078-.055z" fill="#1d1160"/><path d="m17.2666 9.68712-.2886-.37927h-2.26718l-.06728.06255.21105.28438-.75359 2.9645.83265.00026.27466-1.07867.80768-.23681-.33275 1.31547h.84185l.43289-1.71-.00053.00026zm-1.085.9617-.80952.23813.2807-1.11126.7496-.00026zm-2.5836-1.34202-.32539 1.3068-.98142-1.3068-.91072.00105-.06728.06255.2.26967-.7425 2.97921v.00026h.84658l.50411-2.02328.86761 1.15489-.21658.8684h.85159l.82556-3.31274z" fill="#1d1160"/><path d="m15.17267 2.22154a.1703.1703 0 0 1 .32223 0l.6166 1.06846c.08857.15349.01629.27887-.16085.27887h-1.23374c-.17715 0-.24969-.12537-.16112-.27887z" fill="#e56020"/><g fill="#1d1160"><path d="m4.199 25.262-.437-.598-.281 1.048h-.45l.46-1.715h.371l.495.676.181-.676h.453l-.46 1.715h-.453z"/><path d="m6.08731 25.74219h-.803a.274.274 0 0 1 -.2694-.36849l.27809-1.03846a.51782.51782 0 0 1 .46705-.36823h.80269a.27277.27277 0 0 1 .26967.36823l-.27831 1.03846a.5145.5145 0 0 1 -.46679.36849m.26862-1.30733a.03594.03594 0 0 0 -.03811-.0481h-.537a.07057.07057 0 0 0 -.06466.0481l-.225.83922a.0375.0375 0 0 0 .03864.04863h.537a.06708.06708 0 0 0 .06413-.04863z"/><path d="m8.40683 24.758a.52277.52277 0 0 1 -.34063.3472l.26888.60688h-.51908l-.25363-.58559h-.09937l-.15691.58559h-.44971l.45943-1.715h.92649a.27287.27287 0 0 1 .26967.36823zm-.37716-.27177a.07428.07428 0 0 0 -.07859-.09961h-.28964l-.10382.38636h.28964a.13971.13971 0 0 0 .13247-.09988z"/><path d="m9.72 24.387-.356 1.325h-.449l.355-1.325h-.549l.104-.39h1.548l-.104.39z"/><path d="m11.152 25.712.177-.662h-.546l-.177.662h-.45l.459-1.715h.45l-.169.631h.546l.169-.631h.453l-.459 1.715z"/><path d="m12.027 25.712.46-1.715h1.258l-.104.389h-.806l-.072.269h.604l-.098.366h-.604l-.072.271h.826l-.112.42z"/><path d="m15.19 24.758a.52277.52277 0 0 1 -.34063.3472l.26888.60688h-.51909l-.25363-.58559h-.09935l-.15691.58559h-.44971l.45943-1.715h.92649a.27287.27287 0 0 1 .26967.36823zm-.37716-.27177a.07428.07428 0 0 0 -.07859-.09961h-.28964l-.10382.38636h.28964a.13971.13971 0 0 0 .13247-.09988z"/><path d="m16.558 25.262-.437-.598-.281 1.048h-.449l.459-1.715h.371l.495.676.181-.676h.453l-.46 1.715h-.453z"/><path d="m4.199 25.262-.437-.598-.281 1.048h-.45l.46-1.715h.371l.495.676.181-.676h.453l-.46 1.715h-.453z"/><path d="m6.08731 25.74219h-.803a.274.274 0 0 1 -.2694-.36849l.27809-1.03846a.51782.51782 0 0 1 .46705-.36823h.80269a.27277.27277 0 0 1 .26967.36823l-.27831 1.03846a.5145.5145 0 0 1 -.46679.36849m.26862-1.30733a.03594.03594 0 0 0 -.03811-.0481h-.537a.07057.07057 0 0 0 -.06466.0481l-.225.83922a.0375.0375 0 0 0 .03864.04863h.537a.06708.06708 0 0 0 .06413-.04863z"/><path d="m8.40683 24.758a.52277.52277 0 0 1 -.34063.3472l.26888.60688h-.51908l-.25363-.58559h-.09937l-.15691.58559h-.44971l.45943-1.715h.92649a.27287.27287 0 0 1 .26967.36823zm-.37716-.27177a.07428.07428 0 0 0 -.07859-.09961h-.28964l-.10382.38636h.28964a.13971.13971 0 0 0 .13247-.09988z"/><path d="m9.72 24.387-.356 1.325h-.449l.355-1.325h-.549l.104-.39h1.548l-.104.39z"/><path d="m11.152 25.712.177-.662h-.546l-.177.662h-.45l.459-1.715h.45l-.169.631h.546l.169-.631h.453l-.459 1.715z"/><path d="m12.027 25.712.46-1.715h1.258l-.104.389h-.806l-.072.269h.604l-.098.366h-.604l-.072.271h.826l-.112.42z"/><path d="m15.19 24.758a.52277.52277 0 0 1 -.34063.3472l.26888.60688h-.51909l-.25363-.58559h-.09935l-.15691.58559h-.44971l.45943-1.715h.92649a.27287.27287 0 0 1 .26967.36823zm-.37716-.27177a.07428.07428 0 0 0 -.07859-.09961h-.28964l-.10382.38636h.28964a.13971.13971 0 0 0 .13247-.09988z"/><path d="m16.558 25.262-.437-.598-.281 1.048h-.449l.459-1.715h.371l.495.676.181-.676h.453l-.46 1.715h-.453z"/><path d="m18.90618 25.33156h-.51883l-.235.38032h-.47675l1.11152-1.715h.43446l.19239 1.715h-.477zm-.30042-.36534h.27781l-.0297-.40765z"/><path d="m21.20628 24.758a.52277.52277 0 0 1 -.34063.3472l.26914.60688h-.51936l-.25337-.58559h-.09961l-.15691.58559h-.44944l.45943-1.715h.92622a.27268.27268 0 0 1 .26967.36823zm-.3769-.27177a.07436.07436 0 0 0 -.07859-.09961h-.2899l-.10382.38636h.28964a.13979.13979 0 0 0 .13273-.09988z"/><path d="m21.422 25.712.459-1.715h.465l-.459 1.715z"/><path d="m22.218 25.546 1.044-1.159h-.733l.104-.39h1.397l-.045.169-1.017 1.126h.715l-.112.42h-1.398z"/><path d="m24.97577 25.74219h-.80269a.27379.27379 0 0 1 -.2694-.36849l.27781-1.03845a.51787.51787 0 0 1 .46732-.36823h.80243a.27263.27263 0 0 1 .26941.36823l-.27835 1.03845a.51418.51418 0 0 1 -.46653.36849m.26862-1.30733a.036.036 0 0 0 -.03811-.0481h-.53728a.0705.0705 0 0 0 -.06439.0481l-.225.83922a.0375.0375 0 0 0 .03864.04863h.537a.06708.06708 0 0 0 .06413-.04863z"/><path d="m26.912 25.262-.437-.598-.281 1.048h-.449l.459-1.715h.371l.495.676.182-.676h.452l-.459 1.715h-.453z"/><path d="m28.7174 25.33156h-.51883l-.235.38032h-.477l1.11152-1.715h.43446l.19239 1.715h-.47678zm-.30042-.36534h.27781l-.03-.40765z"/><path d="m18.90618 25.33156h-.51883l-.235.38032h-.47675l1.11152-1.715h.43446l.19239 1.715h-.477zm-.30042-.36534h.27781l-.0297-.40765z"/><path d="m21.20628 24.758a.52277.52277 0 0 1 -.34063.3472l.26914.60688h-.51936l-.25337-.58559h-.09961l-.15691.58559h-.44944l.45943-1.715h.92622a.27268.27268 0 0 1 .26967.36823zm-.3769-.27177a.07436.07436 0 0 0 -.07859-.09961h-.2899l-.10382.38636h.28964a.13979.13979 0 0 0 .13273-.09988z"/><path d="m21.422 25.712.459-1.715h.465l-.459 1.715z"/><path d="m22.218 25.546 1.044-1.159h-.733l.104-.39h1.397l-.045.169-1.017 1.126h.715l-.112.42h-1.398z"/><path d="m24.97577 25.74219h-.80269a.27379.27379 0 0 1 -.2694-.36849l.27781-1.03845a.51787.51787 0 0 1 .46732-.36823h.80243a.27263.27263 0 0 1 .26941.36823l-.27835 1.03845a.51418.51418 0 0 1 -.46653.36849m.26862-1.30733a.036.036 0 0 0 -.03811-.0481h-.53728a.0705.0705 0 0 0 -.06439.0481l-.225.83922a.0375.0375 0 0 0 .03864.04863h.537a.06708.06708 0 0 0 .06413-.04863z"/><path d="m26.912 25.262-.437-.598-.281 1.048h-.449l.459-1.715h.371l.495.676.182-.676h.452l-.459 1.715h-.453z"/><path d="m28.7174 25.33156h-.51883l-.235.38032h-.477l1.11152-1.715h.43446l.19239 1.715h-.47678zm-.30042-.36534h.27781l-.03-.40765z"/><path d="m29.737 31.402-3.674-1.541.431-1.701h1.57l-.221.871 2.237 1.015.587-2.326-.796-1.102h-4.497l-1.278 1.04-.774 3.061 3.671 1.542-.429 1.7h-1.57l.215-.851-2.234-1.022-.585 2.313.797 1.103h4.497l1.278-1.042z"/><path d="m7.347 31.402-3.674-1.541.431-1.701h1.57l-.222.871 2.237 1.015.588-2.326-.796-1.102h-4.497l-1.278 1.04-.775 3.061 3.673 1.542-.43 1.7h-1.57l.215-.851-2.234-1.022-.585 2.313.797 1.103h4.497l1.278-1.042z"/><path d="m16.038 26.618h-2.525l-1.869 7.343h-1.578l1.868-7.343h-3.02l-.339.301.589.792-1.703 6.69.797 1.103h5.522z"/><path d="m21.532 34.409 1.69-6.69-.797-1.101h-5.521l-2.245 8.885h2.525l1.855-7.342h1.579l-1.855 7.342h3.02l.34-.301z"/><path d="m29.737 31.402-3.674-1.541.431-1.701h1.57l-.221.871 2.237 1.015.587-2.326-.796-1.102h-4.497l-1.278 1.04-.774 3.061 3.671 1.542-.429 1.7h-1.57l.215-.851-2.234-1.022-.585 2.313.797 1.103h4.497l1.278-1.042z"/><path d="m7.347 31.402-3.674-1.541.431-1.701h1.57l-.222.871 2.237 1.015.588-2.326-.796-1.102h-4.497l-1.278 1.04-.775 3.061 3.673 1.542-.43 1.7h-1.57l.215-.851-2.234-1.022-.585 2.313.797 1.103h4.497l1.278-1.042z"/><path d="m16.038 26.618h-2.525l-1.869 7.343h-1.578l1.868-7.343h-3.02l-.339.301.589.792-1.703 6.69.797 1.103h5.522z"/><path d="m21.532 34.409 1.69-6.69-.797-1.101h-5.521l-2.245 8.885h2.525l1.855-7.342h1.579l-1.855 7.342h3.02l.34-.301z"/></g></svg>