<?xml version="1.0" encoding="UTF-8" standalone="no"?>
<svg xmlns:rdf="http://www.w3.org/1999/02/22-rdf-syntax-ns#" xmlns="http://www.w3.org/2000/svg" height="86.28826" width="103.03845" version="1.1" xmlns:cc="http://creativecommons.org/ns#" xmlns:dc="http://purl.org/dc/elements/1.1/" viewBox="0 0 103.03845 86.28826"><path d="M81.31952,5.27638l6.40742,14.35276h15.31151l-9.678,12.48526L98.635,43.68611,85.73,56.96908a48.18822,48.18822,0,0,0-7.9745-4.73467L73.8664,57.24649A22.47576,22.47576,0,0,1,58.117,77.557l-6.76829,8.73128-6.832-8.86878A22.3271,22.3271,0,0,1,29.22234,57.56429L24.9855,52.06775a56.164,56.164,0,0,0-8.0601,4.48616L4.22,43.80222,9.5734,32.06437,0,19.62674H14.81581L20.33028,5.27638S31.80435,0,51.64722,0c19.84555,0,29.6723,5.27638,29.6723,5.27638" fill="#fff"/><polygon points="51.359 80.144 95.378 23.386 7.632 23.386 51.359 80.144" fill="#ff671b"/><path d="M4.01641,21.60606,51.35511,83.049,99.00652,21.60874Zm91.36134,1.78028L51.35912,80.14355,7.63208,23.38634Z" fill="#003da6"/><path d="M24.61931,16.90844l-.05431-.1268-.12948.05324L17.3786,19.6622l-.0527.02114-.02274.05591L6.54762,43.32353,17.23574,54.028l.49864-.28276c.31994-.184.77658-.45262,1.29341-.75705,1.2894-.76161,3.06273-1.80356,3.90914-2.211l.17067-.08187c1.09519-.5318,1.64519-.79745,6.83945-3.02073l.43256-.16238c.00669,0,.58478-.22606,1.65429-.58077a60.01414,60.01414,0,0,1,17.44651-3.15261h.08293c.286,0,.57248.00374.85818.01337a85.2366,85.2366,0,0,1,14.505,2.01569c3.77591.81137,6.615,1.59571,7.42288,1.82282l.54252.16693a71.09772,71.09772,0,0,1,11.98769,6.25172l.51629.33064L96.21214,43.23766l-6.5797-14.26287-.01417-.03532-.03746-.02005-3.37973-2.22409,2.68688.75894.03076-.061-.02648-.06608-3.388-7.56681-.02809-.05457-.057-.02007c-4.56373-1.8945-8.925-3.33211-11.95345-4.25047l-2.21633,1.04918-.53984-1.85011c-.88091-.24343-1.37929-.36757-1.37929-.36757a81.54016,81.54016,0,0,0-10.69481-1.72437c-.64791-.0666-2.379-.20919-5.14289-.42613l-.26992-.02114-.27794-.01979-.0634-.00536-.04575.04629-2.06705,2.05528.00375-2.11066s-5.85982.33037-9.69513.85176a59.60475,59.60475,0,0,0-7.608,1.47183c-4.11057,1.07781-8.33029,2.18344-8.33029,2.18344l-.05056.14257" fill="#003da6"/><path d="M88.60759,30.02365,77.802,22.54808l-.64524-1.902,3.781,1.37769.8777,1.98172,4.56025,1.43813-2.04993-4.73387-9.92786-3.60658-1.81185,1.21529,1.72224,5.52276,9.88639,6.9855L86.72859,37.141l-4.11164-1.85277L81.20449,31.358l-5.04392-1.4863,2.69651,8.88324c.832.30363,1.65883.62143,2.47447.95288q3.36621,1.36108,6.59093,3.0127,2.23626,1.14242,4.39333,2.42285l2.14891-2.20589Z" fill="#fff"/><path d="M26.59753,17.19222l-2.39636,7.47293L20.28026,27.253l3.15128-8.7837-4.86147,2.02854L8.3236,42.97972l1.936,1.94239q1.71982-1.00275,3.49262-1.9266L17.614,33.21985l3.4862-2.22915.767,1.04488L18.56632,40.681q2.80445-1.23471,5.70627-2.26341l2.334-7.86374-2.162-2.05342,3.483-2.17031,2.97713-10.14294Z" fill="#fff"/><path d="M49.05444,13.61565l-3.79438.19849L43.475,34.18027q2.422-.22992,4.87458-.31192Z" fill="#fff"/><path d="M60.31517,29.95207l-4.40778-.26322-.70622-12.47055,3.73311.17949-.43764-3.433-5.019-.35953-2.24816,2.24336L51.223,31.44533l2.35945,2.414q3.65192.10835,7.219.54305Z" fill="#fff"/><path d="M35.34424,21.65372l1.59088,7.742L35.90762,35.262c1.53792-.29481,3.09322-.55189,4.6603-.75652h.00963L43.028,14.08157l-3.52205.516L38.34919,21.2819l-1.31107-6.2932-4.1416,1.03794L27.13166,37.46655q2.49387-.77927,5.04552-1.39506Z" fill="#fff"/><path d="M65.97236,28.82681l1.23911-1.67568,1.81185,1.49351,1.665,7.592q2.62468.65887,5.18569,1.48762L72.76338,26.58669l-3.20585-2.62134,1.82656-2.43622-1.51812-5.652-3.87088-.86085,1.52321,5.69236-2.41054,3.2227-1.78-9.36368L59.7423,14.1148s1.79847,13.72945,2.64622,20.49293q2.43608.34547,4.82616.83649Z" fill="#fff"/><path d="M44.03152,38.04724a12.22156,12.22156,0,0,1,4.48187-1.2062l-.09684-2.35221q-2.45736.08023-4.87967.31031c.14125.91782.35071,2.292.49464,3.24811" fill="#bdc0c2"/><path d="M53.52551,36.69834a24.51909,24.51909,0,0,1,3.6566.86353,18.48375,18.48375,0,0,1,3.05337,1.09359l.50024-3.62077c-2.399-.29639-4.671-.47644-7.12835-.55241-.03559.70275-.03559,1.69335-.08186,2.21606" fill="#bdc0c2"/><path d="M37.80665,42.44057c1.39105-1.03445,2.22729-2.09727,3.69111-2.98915-.27794-1.31669-.64951-3.02021-.91783-4.319-1.59249.21053-3.17133.47216-4.73574.77471.6019,1.94935,1.36484,4.56427,1.96246,6.53341" fill="#bdc0c2"/><path d="M61.44837,39.38674a17.84869,17.84869,0,0,1,3.62477,2.85247l.23916.18031,1.91136-6.32182c-1.6476-.34107-3.24571-.6372-4.92621-.87235Z" fill="#bdc0c2"/><path d="M67.47621,44.879l4.553,1.073,3.82995-7.57671c-1.764-.57917-3.46881-1.05132-5.28173-1.508Z" fill="#bdc0c2"/><path d="M30.83489,45.95013c1.19015-.43631,2.84711-1.03687,4.39948-1.44936l-2.95573-7.81827c-1.78777.431-3.34549.886-5.08859,1.43841,1.10268,2.61732,2.3367,5.31918,3.64483,7.82923" fill="#bdc0c2"/><path d="M23.967,48.76578c.2643-.22578,2.84765-1.34235,4.61937-2.09032-1.34584-2.43516-2.96348-5.11828-4.31254-7.597-1.92661.68777-3.68415,1.402-5.54764,2.23157Z" fill="#bdc0c2"/><path d="M17.51845,52.186c.82153-.496,1.69441-.99888,2.65451-1.55691l-6.04334-7.12783q-1.72424.894-3.40166,1.86991Z" fill="#bdc0c2"/><path d="M74.44158,46.88909a69.44929,69.44929,0,0,1,10.71728,5.60462c.93094-.88867,5.97726-6.18752,6.67172-6.91354a81.59269,81.59269,0,0,0-13.19149-6.24263Z" fill="#bdc0c2"/><polygon points="52.829 36.579 51.098 36.518 51.067 32.312 52.866 34.18 52.829 36.579" fill="#bdc0c2"/><path d="M51.49148,35.74605A20.38419,20.38419,0,1,0,71.87473,56.13171,20.38716,20.38716,0,0,0,51.49148,35.74605" fill="#003da6"/><path d="M52.744,37.27263c-1.562.54573-3.0705,1.34023-4.56266,2.03363-1.01922-.61127-1.6-.76322-2.28909-1.20755a18.24239,18.24239,0,0,1,6.85175-.82608" fill="#ff671b"/><path d="M67.34687,45.92621c-4.80209-4.83738-12.007-4.488-18.11957-6.20036a43.1654,43.1654,0,0,1,5.454-2.18636,18.80387,18.80387,0,0,1,12.66557,8.38672" fill="#ff671b"/><path d="M40.34849,46.65339a23.70155,23.70155,0,0,0-1.56468,23.4425C34.035,66.10864,31.20524,58.38561,33.33837,50.887c1.7439-2.44024,3.987-4.59611,7.01012-4.23364" fill="#ff671b"/><path d="M45.28532,51.695c2.48892,7.39213,3.03892,15.57849,9.47817,23.02465a19.17956,19.17956,0,0,1-13.959-2.99959c-4.91284-7.16555-4.44844-17.85875.46306-24.80841,2.391.68884,3.69352,3.81792,4.01775,4.78335" fill="#ff671b"/><path d="M41.83614,46.13a21.7974,21.7974,0,0,1,2.5352-2.97524c10.44228,2.949,20.40144,13.77466,22.10628,24.41516A20.15564,20.15564,0,0,1,63.9863,70.294a18.38769,18.38769,0,0,1-8.20054,4.19778c-4.87725-5.06051-6.48125-11.62736-8.20349-18.09952-1.32364-4.96687-2.24013-8.71629-5.74212-10.23575Z" fill="#ff671b"/><path d="M66.2343,46.08259c-5.04232-4.44923-12.069-3.88051-17.96281-5.95237a22.5295,22.5295,0,0,0-3.20585,2.37336c10.442,3.27461,19.91885,13.48521,22.17638,24.0377a18.4045,18.4045,0,0,0,3.02474-8.02371c.25414-4.47385.21134-8.54429-4.03245-12.435" fill="#ff671b"/><path d="M43.51062,42.82782a20.10075,20.10075,0,0,0-2.547,3.03492l-.02541-.00669c-2.76392-.61847-4.946.80977-6.69392,2.59084A17.878,17.878,0,0,1,38.685,42.19838a16.361,16.361,0,0,1,4.82563.62944" fill="#ff671b"/><path d="M44.25112,42.18127a20.04618,20.04618,0,0,1,3.13308-2.35971L44.70589,38.4931a17.231,17.231,0,0,0-5.00138,2.8787,25.249,25.249,0,0,1,4.54661.80947" fill="#ff671b"/><path d="M26.11349,12.28316c.63079-2.60823,1.2367-5.0324,1.81586-7.295.03558-.02114.06848-.042.10459-.06368q.71386-.20384,1.4253-.39377c.02087.00776.0412.01311.06073.01981-.66129,2.74652-1.35789,5.74077-2.09167,9.0151-.30844.32289-.62036.64659-.93388.97616-.05939.02888-.119.061-.17843.09254q-1.25636.40891-2.52343.85952c-.12172-.0963-.2421-.19314-.36248-.28864-.04494.01525-.08721.03236-.13188.04789-.20144.21213-.40127.42427-.6019.64148q-1.2997.47832-2.616,1.0112c-.04467.00268-.08988.00562-.13482.00669-.19314-.14928-.38361-.29695-.57515-.4438C20.3818,12.94819,21.3419,9.73727,22.2509,6.8c.03531-.02622.07383-.05031.10968-.07411.47617-.16933.94806-.33063,1.42022-.48659a.515.515,0,0,1,.04628.02916c-.69044,2.34312-1.41379,4.8612-2.16764,7.57215.42989-.16372.86085-.321,1.29315-.47724.726-2.68608,1.42449-5.18008,2.08979-7.501.03585-.02381.07142-.04629.10861-.07143.52352-.16639,1.04329-.32689,1.5628-.48259.02943.00268.057.00536.08587.01071q-.91649,3.4236-1.91377,7.36884c.41036-.14043.82046-.27231,1.22761-.40474" fill="#ff671b"/><path d="M30.98408,9.13308c-.02354.02382-.049.04735-.07276.07117-.14018.67973-.28169,1.37581-.42588,2.0815.031.00909.06073.01283.09122.02005q1.341-.3551,2.67-.6653c.02782.02087.05431.04467.08346.06876Q33.154,11.71282,32.972,12.756c-.03879.04013-.07812.07945-.11744.119q-2.21579.53408-4.46368,1.20486c-.03183-.00642-.06207-.01176-.09523-.01845.74555-3.52954,1.45232-6.7378,2.116-9.6657.03665-.04493.07276-.09416.10968-.14043q2.08859-.53129,4.15123-.94914c-.09657.52085-.19609,1.05132-.29506,1.58955q-1.34063.27969-2.692.60832c-.138.645-.27554,1.30653-.41705,1.97825.016.01311.03424.02407.05056.03584q1.01159-.252,2.01649-.4775-.14887.78167-.29908,1.58981-1.02323.238-2.05234.50264" fill="#ff671b"/><path d="M38.90968,7.50091q-.21829,1.70259-.44434,3.52821-.39846.39245-.80012.794c-.04762.02354-.09523.04707-.14178.07089-.89108.1605-1.78242.33465-2.67618.52939-.24076-.187-.48018-.36889-.71934-.55053.0749-.46039.15167-.91462.22551-1.36216.06661-.39645.13135-.78514.19475-1.17064q.88238-.18858,1.76-.35578c-.05.33867-.099.68537-.14954,1.03447.22926-.04467.45664-.08882.6851-.12922.05832-.40742.1153-.81109.17335-1.20888q-1.002-1.03327-1.98333-1.99054c-.00963-.03426-.019-.06742-.02675-.10166q.24-1.41246.47617-2.74814c.02488-.03424.049-.069.07383-.103.2528-.233.504-.46574.75572-.69418.06715-.03078.13322-.05994.20063-.08908q1.17451-.21187,2.34072-.38843c.19876.19689.39966.39913.59922.6003q-.06179.47187-.12439.95206c-.02488.18244-.04922.37024-.07276.55537-.52914.077-1.06095.1629-1.592.25118.0329-.222.06581-.44674.1-.66664-.20491.03478-.40956.06929-.61233.10326-.06072.39191-.12279.791-.18511,1.1931" fill="#ff671b"/><path d="M40.18439,3.89161q.09309-.76359.18377-1.50313c.03852-.01873.07678-.03986.11664-.05966q1.93009-.252,3.84574-.41142c.01578.01309.03451.02648.05163.03958q-.05779.73031-.114,1.48094c-.38869.03478-.77632.069-1.16635.10755-.21962,2.32733-.44942,4.8331-.6891,7.53951-.03558.03264-.07009.06849-.10673.10193q-.762.08866-1.52615.19126c-.03852-.01043-.07677-.02594-.11664-.038-.00535-.07036-.01177-.13617-.01444-.20519.267-2.65316.5286-5.1156.77471-7.40309-.41224.05029-.825.10273-1.23911.1597" fill="#ff671b"/><path d="M46.75978,3.27559c-.06742.02782-.13483.05564-.20492.08347-.03076.05564-.06474.11371-.09684.16907q-.11837,2.3133-.24451,4.86708c.08747.07893.17335.1581.26056.23943q1.22186-.06461,2.4413-.08347c.02648.02622.05431.05511.07945.08213-.0107.62009-.02407,1.25329-.03585,1.89852-.02889.03024-.05671.06126-.08694.0915q-1.69456.04533-3.3923.17147-.37278-.32221-.74449-.63588c-.02808-.05377-.057-.10727-.08614-.1597.172-2.70079.33466-5.19907.49061-7.51331.03452-.04975.06581-.10006.09925-.14767.23809-.18244.47751-.36113.71667-.5385q1.59142-.10112,3.18338-.13616-.014.74593-.03076,1.5208-1.17371.02768-2.34847.09121" fill="#ff671b"/><path d="M52.71487,1.666c.447.00937.89508.02382,1.3437.03987.02514.02381.053.04869.07678.07142.10432,2.68716.214,5.62442.32743,8.842-.026.03022-.05377.06044-.08026.08907-.49436-.02594-.989-.04172-1.48254-.05511q-.04133-2.09178-.08186-4.02282c-.03692-.01847-.07677-.03666-.11664-.05271-.386-.01069-.77364-.01579-1.161-.01845-.0305.01577-.06233.03316-.0939.04869q.012,1.93249.02381,4.02176c-.50239-.00268-1.00343-.00268-1.50475.00534-.04253-.03959-.08774-.08239-.13135-.12171.04788-3.2.09148-6.12012.12974-8.79148.03852-.02542.07678-.04789.11236-.07143.44728-.004.894-.00668,1.34237-.00268q.008,1.59826.01872,3.315c.0313.02274.0634.04521.09229.06768.38228.00268.76214.008,1.14281.01847.03692-.02248.0741-.04361.111-.06608q-.0341-1.71824-.06875-3.31688" fill="#ff671b"/><path d="M79.29641,7.22952Q79.93724,9.343,80.611,11.64264c-.21294.10993-.42721.22068-.64149.33465.01739.06768.03666.13108.05537.20009q1.2339,2.18208,2.52611,4.56213c.05056.17173.09924.348.14954.52217-.02648.019-.05163.04147-.07811.06126-.43925-.18163-1.10937-.48793-1.54461-.6602-1.03045-1.89372-1.7974-3.57074-2.76767-5.282-.1589-.05512-.31646-.10809-.4751-.16239q.60472,2.25553,1.24179,4.71675c-.53154-.19528-1.0631-.38869-1.59356-.5722-.04762-.0329-.09658-.065-.14526-.09658-.02274-.042-.04495-.08613-.06769-.12814-.886-3.61727-1.726-6.89936-2.51781-9.89066l.15729-.02408q1.62875.48272,3.28129,1.03554m.25387,3.58837c.07516-.04306.15167-.08077.22872-.12438q-.25-.86714-.48981-1.70912c-.11584-.10461-.23086-.21-.34589-.3146q-.516-.17053-1.028-.33573.28812,1.03929.58344,2.12377c.348.118.70088.23835,1.05159.36006" fill="#ff671b"/><path d="M56.81685,6.77373c-.01927.01311-.03692.02864-.05537.04361.03852.63855.08078,1.28646.12037,1.948.03291.01579.06635.03292.09925.05.85175.069,1.70645.149,2.56061.24744.03532.03292.06849.06474.10379.09632q.08588.96383.175,1.96272c-.03157.02728-.06073.05271-.09122.08079q-2.12873-.2528-4.24807-.37934c-.03317-.01657-.06581-.035-.099-.05189-.1573-3.24651-.3055-6.20651-.447-8.91372.02354-.03558.04789-.07249.07276-.10969q1.98386.10313,3.97949.30149.069.75438.14419,1.52909-1.2977-.13482-2.59245-.22472.0598.90807.12065,1.85386c.0198.01819.04093.03558.05938.05269q.96665.07183,1.93464.16693c.04253.4997.08747,1.0077.12975,1.52106-.6562-.06794-1.31321-.12572-1.96674-.17469" fill="#ff671b"/><path d="M64.59732,7.76548q.24757,1.71983.50773,3.55763c-.20732.17817-.41652.35981-.6257.54172-.042.008-.08587.01579-.12948.02247q-1.335-.23994-2.658-.42935c-.298-.27634-.59681-.55349-.89161-.82286-.04361-.44462-.08561-.88332-.13082-1.31856-.03826-.382-.07677-.76026-.11262-1.13318.57835.07383,1.15591.15194,1.73775.23809.04253.33867.08346.67681.12813,1.02055.22659.03638.451.06928.67734.10619q-.07543-.60511-.15034-1.19737-1.32377-1.41366-2.60956-2.72273c-.01846-.03692-.03826-.07383-.05671-.111-.0955-.91488-.18646-1.80248-.27928-2.666.01444-.02888.03317-.05564.04655-.08453.18484-.16426.36756-.32262.55133-.48419.06207-.01043.12306-.01953.18405-.0289q1.15845.14286,2.322.31994c.27661.26967.554.54493.833.8226.04922.31594.09523.6348.14285.95715q.04013.27807.08346.55964-.79932-.13644-1.59249-.25254c-.02915-.2223-.05671-.44272-.0856-.66262-.20117-.02756-.405-.05672-.60859-.08587q.07384.581.14687,1.1757" fill="#ff671b"/><path d="M64.88813,4.38522c-.08053-.51575-.16265-1.02242-.24211-1.5208.02809-.00828.05939-.01871.09015-.02674q1.96942.33786,3.95809.77765c.02381.01847.04333.03853.06875.05832.103.51042.206,1.03153.31459,1.55905-.40341-.09362-.80547-.18111-1.20755-.26563.44729,2.42391.91409,5.03855,1.406,7.8699-.02889.02353-.057.04627-.08454.07036q-.78768-.1902-1.574-.36517c-.04387-.02834-.08961-.05858-.13456-.08721-.02247-.07437-.04788-.14793-.07009-.221-.44166-2.73343-.86379-5.26461-1.26586-7.61736-.41919-.08079-.84106-.1573-1.2589-.23141" fill="#ff671b"/><path d="M72.28737,9.49523c-.015.01339-.03184.02354-.049.03692q.22591,1.03206.45744,2.104c.03478.02487.07276.05083.10861.07569q1.43252.4081,2.88029.87263c.042.04333.08454.08721.12841.12948q.2536,1.05974.51575,2.16147c-.02781.02221-.0543.04415-.08212.06688q-2.28722-.76359-4.53217-1.38195c-.03826-.02488-.07383-.04977-.11209-.07677-.70115-3.487-1.36511-6.65567-1.99188-9.54666.01846-.03424.03558-.06742.05537-.10219q2.08939.48875,4.20848,1.08877c.14125.546.28115,1.10268.42561,1.66766q-1.45218-.42453-2.88858-.79238c.14446.65193.29533,1.31723.44594,1.99857.02274.02087.04762.04467.07036.06608q1.09465.29372,2.19627.61581c.13215.54519.26456,1.0976.40073,1.66151-.74984-.22524-1.49538-.4422-2.23746-.64551" fill="#ff671b"/></svg>