<svg height="237.508434" viewBox="0 0 38.77547 22.44936" width="421.037679" xmlns="http://www.w3.org/2000/svg"><path d="m12.13118 15.03563c-.18311.09274-1.05413.68394-1.05413.68394a83.88273 83.88273 0 0 0 -9.08173 6.7292c0 .01562.51078-.27847 1.48615-.80489 3.56583-1.88327 6.1533-3.27171 10.06674-5.09716-.0236-.02294-.04819-.04521-.07145-.06848-.01163-.0113-.85241-.90391-1.34558-1.44262" fill="#007dc2"/><path d="m38.77168 6.65326c-2.55657.2662-5.266.59254-7.96247 1.14486-.33864.85673-.75005 1.71646-.8102 1.84009l-.01828.0402c2.86629-1.03752 6.01139-2.17274 8.79095-3.02515" fill="#007dc2"/><path d="m31.6704 5.20641c-.06348.208-.12662.41808-.18211.60816-.01562.05152-.03058.09969-.04586.14821 2.37844-.43368 5.03137-.83545 7.333-1.16045a39.49451 39.49451 0 0 0 -4.92869-.115c-.36589.005-1.07474-.00765-2.02185.01994-.02792.0884-.05649.18079-.08607.27581-.02359.07777-.0462.15156-.06846.22332" fill="#ee3b32"/><path d="m8.68954 9.91932a61.35007 61.35007 0 0 0 -8.49917 4.41858q-.09521.05982-.18876.119c-.02692.01694.29211-.09073.27051-.08308 1.80585-.61913 3.63229-1.17644 5.55179-1.79555.93449-.30141 3.03777-.9458 3.67782-1.13157 0 0-.03822-.06513-.10368-.18178-.11764-.20969-.32468-.58654-.56229-1.05413q-.07128-.14056-.14622-.29145" fill="#ee3b32"/><path d="m31.48845 5.81465c.0555-.19008.11864-.40011.18211-.60814.0226-.07511.04553-.14987.06846-.22367.02924-.095.05815-.18709.08574-.27581.01894-.06016.03755-.11931.0555-.1748q.15653-.55781.29976-1.13256a26.06836 26.06836 0 0 0 -25.74409 0l.28813 1.15981a25.76635 25.76635 0 0 0 1.9072 5.23876c.05649.10933.12562.2519.20471.41273.23761.46725.44465.84411.56229 1.0538l.00665.01164c.13725.22928.25257.446.46924.76233 0 0 .39978.6168.78495 1.16281.57824.81884 1.1402 1.46122 1.1402 1.46122.0452.05683.16982.19576.332.37287.49284.53871 1.33361 1.43132 1.34558 1.44262.02326.02327.04786.04554.07145.06846a30.58852 30.58852 0 0 0 5.75916 4.40495 25.81042 25.81042 0 0 0 10.68386-11.298l.00764-.01527c.06015-.124.4719-.98368.8102-1.84042.02426-.0618.04852-.12363.07178-.18511.09637-.25257.2293-.5809.56163-1.65032l.04586-.14789" fill="#002d62"/><path d="m17.94092 18.21408-.04254-.03223c-.32036-.24127-.60882-.46857-.86072-.67428-.773-.63108-1.207-1.05812-1.207-1.05812h.002c-.03357-.03189-.06946-.06645-.10668-.103-.13127-.1286-.28381-.28646-.452-.46757-.29311-.31571-.63407-.70219-.99464-1.13155-.20571-.24527-.41773-.50414-.63075-.77166a25.52145 25.52145 0 0 1 -2.195-3.14977s-1.05679.01763-1.3386.01763a27.19373 27.19373 0 0 0 9.36122 9.1339c.15054-.0987.43269-.29577.58024-.39547l-.00166-.00132-2.10959-1.36386z" fill="#fcba30"/><path d="m17.52084 1.82638c.21335-.04452.4277-.08805.64471-.12927a39.75539 39.75539 0 0 1 4.496-.57958 24.8398 24.8398 0 0 0 -3.7599-.15718 22.09844 22.09844 0 0 0 -6.5368 1.192 27.67672 27.67672 0 0 0 -4.64224 1.95344 22.93253 22.93253 0 0 0 2.32194 6.28457 3.67742 3.67742 0 0 0 .40245-2.16708 32.69177 32.69177 0 0 1 -1.29141-3.52694c.20471-.097.40909-.19109.61347-.28447q.31355-.14358.62743-.28048a35.48112 35.48112 0 0 1 7.12435-2.305" fill="#ee3b32"/><path d="m29.27056 3.51585c-.31072-.1316-.63673-.30109-.99032-.4493-.1532-.06446-.35359-.14856-.559-.22831.00864.02759.07976.17115.12562.30806a3.03654 3.03654 0 0 1 .07976.31007l.01429.07643c.015.08541.03224.17048.04653.2559a11.87431 11.87431 0 0 1 -.42006 5.57074 9.53387 9.53387 0 0 1 -4.73162 3.50236 9.68318 9.68318 0 0 1 .41241-1.51075 54.94164 54.94164 0 0 1 2.5197-5.98615 9.30514 9.30514 0 0 0 .66863-1.90023l.006-.002a10.1521 10.1521 0 0 0 .19507-1.11494l-.75271-.25091a7.91077 7.91077 0 0 1 -.31271 1.61641 50.29221 50.29221 0 0 1 -1.96536 4.80441c-.70419 1.83011-1.15649 3.12052-1.15649 3.12052a8.54915 8.54915 0 0 0 -.31105 1.46588c-.69888.22863-1.48515.445-2.37811.657-.003-.36356-.03589-.82482-.05882-1.21565-.213-3.61235-.86736-7.65739-.86736-7.65739-.15652-.94446-.5038-2.39738-.6693-3.19064-.217.04087-.43135.08442-.64471.12894.15819.78462.47423 2.2156.63574 3.20095a43.3155 43.3155 0 0 1 .70151 5.03175c.07876.83846.14822 1.745.20172 2.845.013.35094.02027.68925.02027 1.01293a20.7227 20.7227 0 0 1 -2.69747.22565s-.07976-1.36885-3.09127-5.57806c-.42371-.59219-.85906-1.31767-1.37947-2.04345a18.55483 18.55483 0 0 1 -1.43431-2.2259l-.08109-.16385q-.314.1381-.62776.2805l.08474.16284a17.58006 17.58006 0 0 0 1.44162 2.27874 26.27331 26.27331 0 0 0 2.28672 3.44751 13.18345 13.18345 0 0 1 2.13916 3.8759 6.28923 6.28923 0 0 1 -2.0727-.201c.21335.26752.42537.5264.63108.77132l.35924.04253c.36722.03057.71848.04819 1.04815.05517a1.50381 1.50381 0 0 1 -.41274 1.03419c.16815.18111.32069.339.452.46757a1.94957 1.94957 0 0 0 .65335-1.49811 15.15562 15.15562 0 0 0 2.68883-.27216 4.21355 4.21355 0 0 1 -.63009 2.59311.09141.09141 0 0 0 -.02792.03223c-.06846.0688-.12927.125-.18676.17515l-.63939.08407-.54634.04685c.2519.20571.54.433.86072.67428l.04686.03489 2.10959 1.36386.42006-.30007a24.07982 24.07982 0 0 0 10.40567-14.95996 13.84825 13.84825 0 0 0 -1.61011-.80489m-9.98333 13.63823a7.52268 7.52268 0 0 0 .46559-2.72936c.87434-.20405 1.656-.4121 2.35883-.63276a1.92006 1.92006 0 0 0 .87935 1.68155 11.72106 11.72106 0 0 1 -3.70374 1.68056m5.09851-2.7995q-.333.31107-.68326.59122c-.32834-.01929-.94878-.20971-.93782-1.37051a10.75961 10.75961 0 0 0 3.97824-2.28008 11.80062 11.80062 0 0 1 -2.35717 3.05937" fill="#007dc2"/><path d="m29.8812 6.823-2.644-.001h-.002a3.159 3.159 0 0 0 -1.69784.42072l.13991-.3692-.8461-.00034h-.74706l-.40377-.00032-.1429.37751-.61779 1.63006c-.15951.42072-.20737.54767-1.26249.54767a4.77271 4.77271 0 0 1 -.61314-.02992c.00964-.02957.0216-.06446.03689-.105l.61779-1.63006.29976-.79093-.84576-.00032-.7474-.00032h-.40344l-.14323.37717-.61779 1.63006a3.122 3.122 0 0 0 -.14921.49749h-.04287l-2.38276-.001c-.04885 0-.09239-.00067-.13027-.002l.6487-1.7118.29976-.79093-.84609-.00032-.74706-.00032-.40377-.00034-.1429.37751-.07776.20539-.00931-.01462a1.71628 1.71628 0 0 0 -1.51872-.56895l-3.057-.00132h-.40344l-.14323.37751-1.19373 3.1494-.29975.79128.84609.00032 3.13015.001a2.409 2.409 0 0 0 1.991-.75736 1.1141 1.1141 0 0 0 .07843.1346 2.046 2.046 0 0 0 1.7344.62442l2.38276.001h.40344l.14323-.37719.04852-.1286a2.78785 2.78785 0 0 0 2.01022.55264 3.365 3.365 0 0 0 2.83073-1.01391 1.17026 1.17026 0 0 0 .14124.28048 1.87219 1.87219 0 0 0 1.66162.63706l2.406.00864.38682.00134.1522-.35559.27383-.63872.12861-.30009h.01928l.15354-.34762.25855-.58422.13525-.30573h.00864l.15652-.33965.28912-.62641.3825-.82882z" fill="#002d62"/><path d="m13.91646 8.996c.44432.12462.55564.39646.41939.7557-.18843.49715-.73045.85142-1.71811.85107l-3.13015-.00132 1.1937-3.14945 3.057.00134c1.29074.00032 1.14751.59885 1.05845.83379a1.16674 1.16674 0 0 1 -.88032.70886m-.60742-.28581c.40743.00034.64438-.11464.72646-.33133.07677-.20237-.03622-.34528-.41773-.34528l-2.43493-.001-.25655.67661zm-2.59578.561-.28081.74142 2.48711.001c.439 0 .64637-.1748.71283-.34993.06613-.1748.007-.39147-.4842-.39147z" fill="#fff"/><path d="m16.638 7.45436-.69954 1.8464c-.19574.51577-.02492.65866.72746.659l2.38276.001-.24426.64436-2.38276-.00067c-1.18108-.00065-1.58851-.35989-1.23059-1.304l.69954-1.8464z" fill="#fff"/><path d="m20.4051 7.4559.74739.00034-.61779 1.63c-.28613.755-.05284.92553 1.1176.9262 1.17044.00032 1.52769-.16983 1.81382-.92519l.61779-1.63006.74706.00032-.61745 1.63006c-.431 1.13753-1.19969 1.56525-2.80381 1.56491-1.60412-.00067-2.05343-.42936-1.6224-1.56657z" fill="#fff"/><path d="m26.99983 8.03241a1.14688 1.14688 0 0 0 -1.20932.65335l3.49737.00166-.25855.58422-3.46214.00367c-.10668.41906.01529.64935.71549.64968l2.44224.00067-.27383.63872-2.40768-.00864c-1.28011-.00067-1.52-.53936-1.12757-1.57553a2.18544 2.18544 0 0 1 2.32126-1.57389l2.644.001-.28912.62611z" fill="#fff"/><path d="m19.97368 4.68808a.47322.47322 0 0 0 -.0874-.2047.47829.47829 0 0 0 -.17247-.14024.52707.52707 0 0 0 -.2323-.05085.65813.65813 0 0 0 -.23263.0432.82342.82342 0 0 0 -.18976.10235l.03788-.12562h-.62344l-.06048.09105-.18112.27251-.0103-.17215-.012-.19141h-.5829l-.04353.14488-.02127.07111c-.009-.01495-.01562-.03089-.02592-.04485a.4783.4783 0 0 0 -.17248-.14024.52706.52706 0 0 0 -.23229-.05085.65813.65813 0 0 0 -.23263.0432.83247.83247 0 0 0 -.19009.10235l.03788-.12562h-1.2086l-.04387.14488-.02127.07111a.46254.46254 0 0 0 -.02592-.04485.47275.47275 0 0 0 -.17247-.14024.52458.52458 0 0 0 -.232-.05085.65992.65992 0 0 0 -.233.0432.8193.8193 0 0 0 -.35625.26253.64464.64464 0 0 0 -.10934.21l-.49516 1.642h-.29444l.56528-1.8753.07942-.26253h-1.0886l-.04354.06381.01928-.06381h-.67163l-.04387.14456-.00465.01529a.48078.48078 0 0 0 -.16151-.12894.52707.52707 0 0 0 -.2323-.05085.65813.65813 0 0 0 -.23263.0432.81769.81769 0 0 0 -.35658.26253.6481.6481 0 0 0 -.10934.21l-.50744 1.68334a.50843.50843 0 0 0 -.01728.2376.46292.46292 0 0 0 .26021.345.52208.52208 0 0 0 .23163.05085.65992.65992 0 0 0 .233-.0432.82733.82733 0 0 0 .116-.0555l-.02393.07876h.67827l.04354-.1449.009-.02957.01329.17448h3.59474l.04387-.1449.02127-.07111c.009.01495.01562.03091.02592.04487a.47189.47189 0 0 0 .17281.14024.5221.5221 0 0 0 .23163.05085.65992.65992 0 0 0 .233-.0432.82292.82292 0 0 0 .18976-.10237l-.03788.12564h.68658l.04387-.1449.25954-.86071h.09671l-.224.74306-.07909.26255h1.73074l.04387-.1449.61333-2.03422a.51288.51288 0 0 0 .01728-.23762m-7.06353 1.6204-.05085-.55962.38417-.54568z" fill="#002d62"/><path d="m23.80185 4.31242h-2.32162l-.04353.14488-.002.007a.48165.48165 0 0 0 -.1542-.12132.52513.52513 0 0 0 -.23229-.05051.65865.65865 0 0 0 -.23263.04288.83919.83919 0 0 0 -.1964.10667.82911.82911 0 0 0 -.16018.15618.64217.64217 0 0 0 -.109.20971l-.50779 1.68354a.51143.51143 0 0 0 -.01728.23728.46947.46947 0 0 0 .0874.20472.47543.47543 0 0 0 .17281.14056.523.523 0 0 0 .23163.05051.65275.65275 0 0 0 .233-.04318.85138.85138 0 0 0 .11133-.05251l-.02293.07576h1.37117l.04387-.14488.60079-1.99295h.0668l-.10966.9202-.28813.95511-.07909.26253h.73576l.04387-.14488.28846-.95677.67329-1.39874.14057-.29178zm-2.92611 1.02853h.29444l-.22166.73511h-.29444z" fill="#002d62"/><g fill="#fff"><path d="m11.46863 4.8669a.42984.42984 0 0 1 .0751-.14389.60671.60671 0 0 1 .12-.117.62113.62113 0 0 1 .14755-.0801.45457.45457 0 0 1 .16084-.0299.32152.32152 0 0 1 .14257.0299.27653.27653 0 0 1 .09936.0801.26624.26624 0 0 1 .04952.117.31062.31062 0 0 1 -.01163.14389l-.50779 1.68322a.43765.43765 0 0 1 -.0751.14357.58816.58816 0 0 1 -.12.117.5982.5982 0 0 1 -.14755.0801.44793.44793 0 0 1 -.16084.03024.31716.31716 0 0 1 -.14257-.03024.267.267 0 0 1 -.09936-.0801.26285.26285 0 0 1 -.04952-.117.31342.31342 0 0 1 .01163-.14357zm.55332-.10369h-.26088l-.57027 1.8906h.26088z"/><path d="m12.565 4.516h.247l-.322 1.066.728-1.066h.26l-.828 1.177.109 1.208h-.261l-.082-1.072-.324 1.072h-.252z"/><path d="m13.663 4.516h.262l-.645 2.138h.511l-.074.247h-.773z"/><path d="m14.5388 4.86674a.43151.43151 0 0 1 .0751-.14357.6109.6109 0 0 1 .26752-.19707.44794.44794 0 0 1 .16084-.03024.31715.31715 0 0 1 .14257.03024.27294.27294 0 0 1 .09936.0801.266.266 0 0 1 .04952.117.309.309 0 0 1 -.01163.14357l-.61347 2.03414h-.26121l.32235-1.06875h-.26088l-.32267 1.06872h-.26087zm.04453.71813h.26087l.24791-.8215h-.26088z"/><path d="m15.689 4.516h.261l-.322 1.069h.261l.322-1.069h.261l-.719 2.385h-.261l.322-1.069h-.261l-.322 1.069h-.261z"/><path d="m16.628 4.8669a.42984.42984 0 0 1 .0751-.14389.60671.60671 0 0 1 .12-.117.62113.62113 0 0 1 .14755-.0801.45457.45457 0 0 1 .16084-.0299.32152.32152 0 0 1 .14257.0299.27653.27653 0 0 1 .09936.0801.27015.27015 0 0 1 .04952.117.31511.31511 0 0 1 -.01163.14389l-.50779 1.68322a.43765.43765 0 0 1 -.0751.14357.58816.58816 0 0 1 -.12.117.60421.60421 0 0 1 -.14755.0801.44793.44793 0 0 1 -.16087.03021.31716.31716 0 0 1 -.14257-.03024.267.267 0 0 1 -.09936-.0801.26285.26285 0 0 1 -.04952-.117.309.309 0 0 1 .01163-.14357zm.55332-.10369h-.26121l-.56994 1.8906h.26083z"/><path d="m17.77822 4.516h.23993l.02625.42772c.003.05982.006.12063.00864.18178.00266.06148.00432.122.00532.1821h.007c.03689-.06014.0751-.12063.11465-.1821.03988-.06115.07909-.122.11864-.18178l.28414-.42772h.23994l-.71915 2.38509h-.26121l.32834-1.089c.01628-.05351.03456-.11233.05516-.17714q.03091-.09669.06547-.19373c.02293-.06448.04486-.127.06514-.18711q.0309-.08972.05915-.16018h-.007q-.13359.22034-.2622.41242-.12861.19241-.25855.38914h-.007c-.00764-.13125-.01529-.26086-.02393-.38914q-.01246-.19192-.013-.41242h-.00731c-.01163.04685-.02492.10036-.03955.16018-.01429.06016-.02991.12263-.04553.18711q-.02393.09718-.05151.19373c-.01828.06481-.03556.12363-.05151.17714l-.32834 1.089h-.2612z"/><path d="m18.97814 4.86674a.43151.43151 0 0 1 .0751-.14357.6109.6109 0 0 1 .26752-.19707.44794.44794 0 0 1 .16084-.03024.31715.31715 0 0 1 .14257.03024.27294.27294 0 0 1 .09936.0801.266.266 0 0 1 .04952.117.309.309 0 0 1 -.01163.14357l-.61342 2.03411h-.26121l.32235-1.06875h-.26088l-.32269 1.06875h-.26087zm.04453.71813h.26087l.24791-.8215h-.26088z"/><path d="m20.54481 4.8668a.44394.44394 0 0 1 .0751-.14355.59739.59739 0 0 1 .12-.117.60973.60973 0 0 1 .14755-.08008.44883.44883 0 0 1 .16084-.03024.31687.31687 0 0 1 .14256.03024.27037.27037 0 0 1 .09937.08008.26464.26464 0 0 1 .04952.117.30891.30891 0 0 1 -.01163.14355l-.08142.27052h-.26121l.113-.37419h-.2612l-.57029 1.89058h.26121l.11266-.37386h.26121l-.08144.27015a.44241.44241 0 0 1 -.0751.14391.60912.60912 0 0 1 -.26785.19705.45324.45324 0 0 1 -.16084.02992.32354.32354 0 0 1 -.14257-.02992.2731.2731 0 0 1 -.09936-.08008.2658.2658 0 0 1 -.04918-.117.31036.31036 0 0 1 .01126-.14388z"/><path d="m22.242 4.763h-.262l.075-.247h.784l-.075.247h-.261l-.645 2.138h-.261z"/><path d="m23.548 4.516h.254l-.68 1.413-.293.972h-.311l.293-.972.169-1.413h.257l-.153 1.022z"/><path d="m21.632 4.516h.261l-.719 2.385h-.262z"/></g></svg>