<?xml version="1.0" encoding="UTF-8" standalone="no"?>
<svg xmlns:rdf="http://www.w3.org/1999/02/22-rdf-syntax-ns#" xmlns="http://www.w3.org/2000/svg" height="157.70322" width="303.23894" version="1.1" xmlns:cc="http://creativecommons.org/ns#" xmlns:dc="http://purl.org/dc/elements/1.1/" viewBox="0 0 303.23894 157.70322"><path d="M1.1234,115.52285A18.839,18.839,0,0,0,0,121.95118a19.27277,19.27277,0,0,0,10.04818,16.53893,16.88873,16.88873,0,0,0,2.30921,1.31063L8.92478,149.91133a5.46877,5.46877,0,0,0,.62411,4.80565,5.657,5.657,0,0,0,4.30636,2.30921H39.00691a41.02262,41.02262,0,0,0,17.84956-3.61984,5.31137,5.31137,0,0,0,4.93047,3.61984H75.01808a5.37455,5.37455,0,0,0,4.93047-3.61984v-.12482a20.36342,20.36342,0,0,0,13.04391,3.74466H110.842a4.75136,4.75136,0,0,0,1.31065-.18723,4.02409,4.02409,0,0,0,1.24821.18723H126.632a5.79064,5.79064,0,0,0,3.43261-1.12339,5.15635,5.15635,0,0,0,3.12055,1.12339h13.23114a5.31139,5.31139,0,0,0,4.93047-3.61984v-.31206a20.5163,20.5163,0,0,0,14.417,4.556,31.84573,31.84573,0,0,0,15.10346-3.55742,6.81032,6.81032,0,0,0,.37448.68651,5.27237,5.27237,0,0,0,4.36877,2.2468H198.8416a5.47433,5.47433,0,0,0,4.244-2.05956,5.26163,5.26163,0,0,0,4.18153,2.05956h13.41838a5.56607,5.56607,0,0,0,1.37305-.18723,4.75117,4.75117,0,0,0,1.31063.18723H234.728a5.2859,5.2859,0,0,0,3.9943-1.7475,5.28593,5.28593,0,0,0,3.99431,1.7475h13.29356a5.79857,5.79857,0,0,0,1.80991-.31205h19.84673a20.1558,20.1558,0,0,0,19.285-19.53465,10.33843,10.33843,0,0,0-.68656-3.86949,5.34136,5.34136,0,0,0,2.49644-2.87092l3.183-8.98719a5.26817,5.26817,0,0,0-.68653-4.80564,5.44434,5.44434,0,0,0-4.30634-2.37162H278.60292a19.32749,19.32749,0,0,0-8.55031,1.99715,5.11628,5.11628,0,0,0-3.37022-1.24822H255.57323a5.53171,5.53171,0,0,0-3.93189,1.6851,5.39068,5.39068,0,0,0-3.86949-1.6851H234.35348a5.36,5.36,0,0,0-4.93046,3.37019c-2.80851-2.24679-7.05245-3.37019-13.04392-3.37019H196.53239a5.37456,5.37456,0,0,0-4.93048,3.61984,20.89484,20.89484,0,0,0-14.54177-4.24395,32.22175,32.22175,0,0,0-15.2283,3.61983c-.12481-.18722-.24965-.43687-.43687-.68651a5.35424,5.35424,0,0,0-4.11914-2.18439h-13.356a5.4141,5.4141,0,0,0-3.183,1.061,5.09512,5.09512,0,0,0-3.12055-1.061H124.38522a5.63047,5.63047,0,0,0-2.49644.56169,5.63056,5.63056,0,0,0-2.49644-.56169H105.91155a34.26961,34.26961,0,0,0-15.16589,3.12055c-.18724-.31206-.312-.62411-.49929-.87375a3.85286,3.85286,0,0,0-1.12339-1.1234L94.3655,95.61372l-8.36307,6.8028L84.31732,89.123l-4.93047,11.17158L75.82942,93.2421,73.333,102.91582l-.81135-.56171a3.86985,3.86985,0,0,1-1.373-1.061c-3.183-4.18155-14.85382-10.23543-26.52469-10.23543-19.59707,0-38.69485,10.73471-43.43809,24.46514Z" fill="#5a2d81"/><path d="M170.63181,0c-.24965,0-26.96157,1.7475-31.6424,21.59423-.18723.62409-1.31064,5.24251-2.49644,10.23541-.37448-.06241-.74893-.12482-1.18582-.18722a7.09675,7.09675,0,0,0-7.23967,4.36875c-.81135,1.99717-7.55174,19.84671-1.24822,34.26367A25.39551,25.39551,0,0,0,141.67309,84.1301h.18722a22.58807,22.58807,0,0,0,11.35881.12481h.56171a18.92221,18.92221,0,0,0,10.85952-6.86522,250.30827,250.30827,0,0,0-4.18154,37.94593,60.45345,60.45345,0,0,0,.6241,8.86236v-.312c1.061,17.35026,20.09637,30.89345,43.4381,30.89345,23.96585,0,43.50049-14.47935,43.50049-32.39132a26.56906,26.56906,0,0,0-7.42691-18.16161c-4.18153-5.11772-7.30208-10.42266-5.36734-8.61274l.12482.12484c5.18011,4.93046,13.48079,3.9943,13.79283,3.93189h-.24963a17.11319,17.11319,0,0,0,5.80421-1.12342c11.546-3.9943,23.529-28.14738,24.2779-37.88348v-.87377a14.646,14.646,0,0,0-.87376-4.93048,10.1159,10.1159,0,0,0-5.67939-5.86662,11.9208,11.9208,0,0,0-8.67513.43687c-.56171-17.35028-7.739-27.27364-13.79286-32.641a36.16693,36.16693,0,0,0-15.85239-8.051c-13.41837-2.55884-25.08924,3.9319-30.89348,8.17586-4.30635-4.556-16.66374-17.53752-32.57856-16.851Z" fill="#5a2d81"/><path d="M275.48237,56.16993a7.0473,7.0473,0,0,0-3.80708-3.99432,10.76339,10.76339,0,0,0-9.112,1.74752s-.87375.87375-1.62268,1.49786V51.926c0-33.88921-25.02683-39.56858-27.21122-39.88065C219.37484,8.98717,207.14226,17.53749,203.148,20.658h-.62412c-1.80991-1.373-14.60418-18.224-31.892-17.53749-.24966,0-24.902,1.87232-28.83392,19.47222v-.12482c0,.43689-1.93474,7.61416-3.183,13.98008a6.89292,6.89292,0,0,0-3.68224-1.68509,4.1129,4.1129,0,0,0-4.11914,2.49643c-.74892,1.87235-7.11485,18.66091-1.31062,31.89205a22.24356,22.24356,0,0,0,13.23114,12.10774,17.66222,17.66222,0,0,0,9.86094,0c3.99432-1.1234,11.42122-2.68367,16.4141-20.346a6.17912,6.17912,0,0,1,1.56028,1.56028c-1.43546,6.86521-6.99,34.70054-6.99,52.73733a53.27907,53.27907,0,0,0,.49929,8.36308c.93615,15.66518,18.6609,28.085,40.44234,28.085,22.28075,0,40.44235-13.16876,40.44235-29.39561a23.88176,23.88176,0,0,0-6.678-16.102,134.21547,134.21547,0,0,0-10.11059-11.48364,74.34788,74.34788,0,0,1-4.43118-21.78146,9.98268,9.98268,0,0,0,1.7475-2.49647,14.635,14.635,0,0,0,1.6227-7.05241v-.81136a3.16268,3.16268,0,0,1,1.49785-1.061c.24965,0,.12483,1.74751.12483,1.74751v.18725a75.62455,75.62455,0,0,0,.43686,13.54318,70.053,70.053,0,0,0,2.37164,9.29925,24.77088,24.77088,0,0,0,6.05386,7.42693c4.18155,3.93186,11.35883,3.12055,11.35883,3.12055a13.31028,13.31028,0,0,0,4.93046-.93619c10.04818-3.43259,21.59423-26.15021,22.28073-35.19983A12.10447,12.10447,0,0,0,275.48237,56.16993Z" fill="#061922"/><path d="M225.49111,51.55151c-.31207-.62412-1.373-1.49787-1.87235-2.24679a19.02175,19.02175,0,0,1-1.31063-2.49647,77.56233,77.56233,0,0,1-2.49643-7.61414c-1.49787-4.30636-5.86666-6.8652-9.73613-9.36164a20.92009,20.92009,0,0,0-13.5432-2.24683,6.82369,6.82369,0,0,0-4.80564,2.7461c.18722.87375-1.62269,2.87092-1.6851,2.93333a6.986,6.986,0,0,1-4.556,1.68509c-.74893-2.37162-8.55031-3.61982-12.23256-1.43546-3.30779,3.05815-2.68368,8.9248-1.061,11.85811a5.54034,5.54034,0,0,0,1.68509,2.122,9.61256,9.61256,0,0,0,7.739.99858c1.74752-.93616,2.93333-2.80849,4.61842-3.61983,1.24824,3.55742-5.24253,6.30351-6.49073,8.92478a10.88464,10.88464,0,0,0-.4993,7.3021c.43689,1.7475,1.68509,3.93187.81134,5.617-.87375,1.74751-2.122,1.87234-2.2468,3.74467a38.5154,38.5154,0,0,0,.93616,5.24252c.749,7.23969,10.60989,2.99572,14.04248-.31205,2.93333-2.87092,4.4312-10.60988,8.30068-12.10775-.87376-2.434.12482-5.55459-2.122-7.17726l2.68365.99858c3.24538,3.55741,1.87235,6.92762,8.30068,5.6794,5.86664-1.18581,4.556-4.30636,5.617-8.36309-1.68511-.68653-3.24539-2.80849-4.4936-3.55741s-1.81-1.99717-3.43261-1.74752a11.5,11.5,0,0,0-3.24539.6241c-2.18439.87375-5.6794,7.05245-8.051,6.55316-.81135-.18722-2.49646-.81134-1.18581-1.80991a24.12749,24.12749,0,0,1,3.55742-3.05814l3.99431-2.30921A10.19075,10.19075,0,0,0,205.95644,47.37a4.30352,4.30352,0,0,1,1.87233-.87375h.12483c0-2.30921,2.3092-4.93048.37447-6.36592a14.44738,14.44738,0,0,1-5.18013,0c-1.93474-.68653-1.80992-3.12055-.81136-4.4936,3.05816-3.99431,5.18013.4993,7.42693,2.2468,0,0,4.30637-3.4326,5.80425-3.12055,2.18436.43686,2.37159,3.30777,1.061,4.68082-1.80995,2.05958-4.30637,0-5.86664,1.56028s-.31206,4.24394-1.49789,5.617a5.45442,5.45442,0,0,1,2.24681,1.12342,24.35374,24.35374,0,0,1,2.49646,3.18294,20.76706,20.76706,0,0,0,2.434,2.2468c5.92905,0-1.24823,8.86237-5.11772,11.92052.31206.68652.49928,1.43546.74893,2.122.99857,3.61983,1.43546,7.9886,3.61986,10.98432a9.08818,9.08818,0,0,1,.99856-3.80707c1.43546-2.18437,3.80707-3.24534,4.93047-5.617a12.93043,12.93043,0,0,0,.99857-7.80138c-.37446-2.68367.31207-2.68367,1.74753-4.68083A5.23681,5.23681,0,0,0,225.49111,51.55151ZM179.74382,42.065a7.18673,7.18673,0,0,1-2.99574-1.061c-.62412-.62412-.12482-1.68509-1.56028-1.56028l-1.68509.24964c.93616-1.7475,1.93473-4.30638,5.36734-3.80708a6.746,6.746,0,0,1,3.183,1.62272,26.40989,26.40989,0,0,0,2.93331,1.56027c-2.12195.62409-2.24678,3.12054-5.2425,2.93331Z" fill="#fff"/><polygon points="215.568 54.36 215.256 54.235 215.443 54.672 215.443 54.36 215.568 54.36" fill="#fff"/><path d="M209.57629,46.309l-.312.312h.37445l-.18723-.37446Z" fill="#fff"/><path d="M212.63445,102.16689c1.373-3.55746,4.43118-8.30068,3.37017-12.2326a17.14568,17.14568,0,0,0-1.43544-3.495c-5.929-.99858-2.49642-12.607-4.18153-17.28787a10.26437,10.26437,0,0,1-.62414-3.05813c-2.49642.93616-6.11627.99857-7.86377-1.1234l-.24965-.18722c0,3.24537-2.49645,5.99144-4.05673,8.61272a72.69532,72.69532,0,0,1-5.36733,8.98717h1.87233a29.39313,29.39313,0,0,1,8.73752,1.37305l.4993.12482a48.46627,48.46627,0,0,1,5.617,18.53607c.24962,5.86666.5617,16.97582,5.42975,21.09495-.37447-11.1716,3.86947-17.72474,7.86377-27.27363-3.05811.312-7.42689,3.68226-9.61127,5.99146Z" fill="#fff"/><path d="M225.49111,51.55152c-.31207-.62411-1.373-1.49788-1.87235-2.2468a19.02278,19.02278,0,0,1-1.31063-2.49645,77.56721,77.56721,0,0,1-2.49645-7.61416c-1.49785-4.30636-5.86664-6.8652-9.73611-9.36164a20.92008,20.92008,0,0,0-13.5432-2.2468,7.25925,7.25925,0,0,0-4.30634,2.122c5.42973-.4369,11.60844-.18723,15.85239,4.05671a8.80631,8.80631,0,0,1,1.7475,4.24394s4.30635-3.4326,5.80423-3.12056c2.18438.43689,2.3092,3.30778,1.061,4.68085-1.8099,2.05956-4.30636,0-5.86664,1.56027S210.45,45.248,209.26421,46.621a5.45466,5.45466,0,0,1,2.24681,1.12342,24.35259,24.35259,0,0,1,2.49646,3.183,20.76776,20.76776,0,0,0,2.434,2.24678c5.92905,0-1.24823,8.86237-5.11772,11.92052.24963.68652.49928,1.43546.74893,2.122.99857,3.61983,1.43546,7.9886,3.61982,10.98432a9.08871,9.08871,0,0,1,.99859-3.807c1.43547-2.1844,3.80708-3.24537,4.93048-5.617a12.93043,12.93043,0,0,0,.99857-7.80138c-.37446-2.68366.312-2.68366,1.74753-4.68083A5.23679,5.23679,0,0,0,225.49111,51.55152Z" fill="#63727a"/><path d="M265.9959,58.72879a3.48486,3.48486,0,0,0,3.68223,2.122c-1.12339,2.18439-3.86949.56171-4.93047-.49928-.5617,1.49788,1.87232,3.183,3.80708,3.05816-2.2468,2.49643-5.55461-.12484-6.61559-1.18583.18723,1.87233,3.30778,3.86949,5.05532,3.74467a5.04969,5.04969,0,0,1-3.80708.31206,12.12764,12.12764,0,0,1-3.24537-2.122c-.31206,2.122,3.183,3.3078,4.556,3.9319a5.41692,5.41692,0,0,1-5.80425-1.87234c0,2.1844,3.30778,3.74467,5.36736,4.11914a7.40989,7.40989,0,0,1-6.36592-.93618c.18722,2.68368,3.12055,3.24537,5.18013,3.55743a5.66193,5.66193,0,0,1-6.30355-.37445,7.19129,7.19129,0,0,0,4.4936,3.37017c-2.122.18726-5.11768.93619-6.42834-.93614a7.24128,7.24128,0,0,0,2.62127,3.18294c-1.31061-.12481-2.55885-.312-3.86947-.56169-.12484,1.24822,1.1858,1.87235,1.93472,2.434-1.93472.31206-3.05813,0-3.61983-.87376-1.18583,2.93332-1.62269,5.80423.43689,6.99,4.93046,2.9333,10.485-7.42693,12.04532-9.861,2.68369-4.68082,6.61555-11.234,6.99-14.66658.81135-6.30352-1.56027-5.49219-5.11768-2.87092Z" fill="#fff"/><path d="M253.01439,40.1927c-1.56028-6.1787-2.62129-10.11059-7.80138-14.35456-4.11915-3.37019-10.48508-6.80278-16.35173-5.617a12.14391,12.14391,0,0,0-5.99144,2.99571l-3.37022,3.61985a17.7639,17.7639,0,0,1,2.6837,6.55315c4.30637,1.43545,6.55314,1.12341,7.42693,6.36593.18722,1.373-.4993,3.37021,0,4.61841a3.16475,3.16475,0,0,0,.56167.9986c3.43263-3.93191,4.61842-10.23544,4.80565-15.22831a18.8238,18.8238,0,0,1,.24965,10.98435c-.6241,1.80991-2.2468,3.68225-2.8709,5.80423,4.11912-.31207,5.80422-9.23684,6.61558-12.66943a39.35344,39.35344,0,0,1-1.43549,11.10916c-.37445.99856-1.2482,1.87232-1.2482,3.05814a10.63233,10.63233,0,0,0,4.80565-7.23969c0,2.8709-.24964,8.92477-2.49644,10.98433,2.74607-.37445,3.183-3.495,4.4936-5.11769a13.31493,13.31493,0,0,1-2.80851,8.42548,5.67171,5.67171,0,0,0,3.495-3.37018,12.08309,12.08309,0,0,1-2.434,8.051c1.31064,0,2.434-1.93474,3.24538-2.93331a17.34693,17.34693,0,0,1-2.80849,5.30494,3.16033,3.16033,0,0,0,2.2468-.87376,14.48042,14.48042,0,0,1-2.49643,3.93191,27.29147,27.29147,0,0,0,1.373,5.929c9.67371-7.05245,13.10634-20.09635,10.2354-31.45516Z" fill="#fff"/><path d="M155.9028,52.987a14.30181,14.30181,0,0,1-6.05388-3.24539c2.18438.37447,5.67939,1.18581,7.23967-.37447-2.49643-.24963-5.18011-.18722-6.99-2.74608a13.34128,13.34128,0,0,0,7.80138.4993,13.343,13.343,0,0,1-6.86522-2.80851,28.36083,28.36083,0,0,0,7.9262.62412,12.70128,12.70128,0,0,1-7.86379-3.9319,27.35818,27.35818,0,0,0,12.04533,1.93474l2.49645-2.49643c-6.55318,1.12338-14.54178-7.23969-16.53894-12.35741a43.16271,43.16271,0,0,0-3.99431,11.35882c-1.061,4.556-3.68225,7.98861-2.18437,12.607,2.87089,9.23684,8.79995,6.55316,13.23113,1.061h-.24963Z" fill="#fff"/><path d="M139.92557,71.08618a5.81324,5.81324,0,0,0,2.49643-.74895,6.59022,6.59022,0,0,1-3.61983-.99858c2.05956,0,2.434-.24964,3.183-.81135l-.24965-.68649a4.61272,4.61272,0,0,1-3.495-.81136,3.67008,3.67008,0,0,0,2.74607-1.1234v-.24963a5.09111,5.09111,0,0,1-3.183-.4993,4.14319,4.14319,0,0,0,2.68368-.81135v-.24963a4.87693,4.87693,0,0,1-3.24537-.37447,6.75015,6.75015,0,0,0,2.68368-.62411V62.7855c-.74894,0-2.434.37448-3.3078-.56169a11.45154,11.45154,0,0,0,2.87091-.74894l-.12482-.49928c-.99857,0-2.49644.37445-3.12055-.74894a5.18936,5.18936,0,0,0,2.74608-.5617v-.49929c-.87375,0-2.30919.18724-3.183-.81134a6.25975,6.25975,0,0,0,2.99574-.56169v-.62412a4.13428,4.13428,0,0,1-3.183-.93616,6.76351,6.76351,0,0,0,3.12055-.56171v-.43687c-1.061,0-2.99574-.24964-3.43261-1.18581.87375,0,2.93333,0,3.37019-.4993v-.68651a4.81946,4.81946,0,0,1-3.61984-1.18581c1.18581,0,3.3702,0,3.61984-.99857a3.95411,3.95411,0,0,1-3.68225-1.061c.99858,0,2.80849,0,3.55743-.62412V48.6182c-1.18581,0-2.99574-.31206-3.12055-1.6851a3.96134,3.96134,0,0,0,2.80851.18723V46.9331c-.93618-.37446-2.30923-.87375-2.49646-1.87233a3.26762,3.26762,0,0,0,2.122.6241,5.96337,5.96337,0,0,0-2.8709-3.05814c-2.68368,3.80707-3.74467,12.3574-3.12055,17.10062A18.82645,18.82645,0,0,0,144.856,75.70458a26.13785,26.13785,0,0,1-1.373-3.68224,4.63182,4.63182,0,0,1-3.12056-.93616Z" fill="#fff"/><path d="M178.74523,9.6737c-4.74323-.9986-8.17585-2.87092-19.2226.9986,0,0-8.86237,3.86945-9.73614,7.9262a26.1383,26.1383,0,0,1,19.03539-3.30778,4.72369,4.72369,0,0,0-2.434,2.80848c2.93333-2.122,3.55743-2.05958,4.93048-2.122l1.31062.49927a5.12049,5.12049,0,0,0-3.55742,2.93333,33.95685,33.95685,0,0,1,4.93048-1.99714,13.71017,13.71017,0,0,1,1.43544,1.24824,5.09908,5.09908,0,0,0-3.24537,3.05814,11.65086,11.65086,0,0,1,4.99289-1.31064l.6241.62411a10.3246,10.3246,0,0,0-3.80706,6.92763,13.56956,13.56956,0,0,1,6.61557-4.43119,6.4344,6.4344,0,0,0,2.62125.81134c3.43261.18723,6.80281-2.49643,10.6723-2.18439-1.68509-4.80565-10.48506-11.48361-15.16589-12.4198Z" fill="#fff"/><path d="M173.4403,80.63506c0,4.18153,7.61416,8.8,10.11059,12.35739,3.43261,4.68083,3.43261,9.48648,3.43261,15.54033-.99858-5.30492-4.93047-6.86519-8.55031-9.92335a16.06034,16.06034,0,0,1-5.18011-12.48221l.24963-5.36736Z" fill="#fff"/><path d="M169.63322,111.65336c-.56169-4.05673-.56169-11.29642,1.43546-14.729a26.91421,26.91421,0,0,0,3.183,6.92763c1.62269,2.12195,4.43118,2.74607,5.99146,4.74324,3.43261,4.4936,3.24539,12.79425,4.05671,18.1616a5.73557,5.73557,0,0,0-1.93474-2.122S170.44457,117.20794,169.63322,111.65336Z" fill="#fff"/><path d="M225.36628,107.22218c-3.24537,4.24392-1.62269,10.42264-2.99574,15.29069,3.05814-1.99715,3.99432-5.74181,7.80138-6.42833,0,2.49645,0,5.30493.18724,7.92621,1.99716-2.49646,5.55458-7.11485,4.43118-9.92336-.37448-.93618-3.24537-3.05815-3.9943-4.05673-1.43546-1.87233-2.122-3.74465-3.61985-5.55458l-1.80991,2.62127Z" fill="#fff"/><path d="M222.24572,36.57285c2.87094.43689,3.37022,3.55744,2.87094,5.99148,2.74608-2.68367.87375-5.617-2.18441-6.99Z" fill="#63727a"/><path d="M152.5326,35.19983a17.22826,17.22826,0,0,1-3.183-5.36736s-5.30494,12.73185-4.93047,20.40841c0,0,4.30636-18.224,7.98862-15.041Z" fill="#63727a"/><path d="M155.65315,13.668S174.18924.18723,192.78772,21.407l-4.93046.62411S174.25164,4.24394,155.65315,13.668Z" fill="#63727a"/><path d="M226.61451,22.96725S249.8314,16.91337,253.01439,51.177c0,0-3.183-32.32891-31.33036-24.58994Z" fill="#63727a"/><path d="M196.782,80.82229s6.3659-11.79572,6.05384-13.48081a8.64,8.64,0,0,0,5.86666.37448L206.7678,88.93571l-1.62271-17.5375Z" fill="#63727a"/><path d="M170.88144,100.41938s-2.99573,13.23113,5.55458,17.53749c0,0,5.74182,2.87089,6.30352,4.93047a16.55672,16.55672,0,0,0-7.17727-9.112s-4.4936-3.05815-4.68083-13.4184Z" fill="#63727a"/><path d="M174.37646,84.25491s-1.061,10.67229,6.1787,14.22972c0,0,4.80564,2.49643,5.30493,4.24395a14.22476,14.22476,0,0,0-6.05387-7.67655S174.62611,92.99245,174.37646,84.25491Z" fill="#63727a"/><path d="M219.18761,99.67042s-6.80281,12.79427-5.617,21.03252c0,0-3.61985-9.36165-2.49643-14.85382l2.80849.312Z" fill="#63727a"/><path d="M224.24289,117.95687s-.18726-9.73614,2.99572-11.73329a4.74637,4.74637,0,0,0,3.68225,4.61841s-3.37019,1.99715-4.24394.5617a41.63861,41.63861,0,0,0-2.49647,6.55318Z" fill="#63727a"/><path d="M106.97253,108.78244l.24965,3.55745h-6.11627l-.18725-3.80708c0-.68653-.312-.93618-1.1234-.93618H98.8591l-1.62269,4.74326H91.245l4.93047-14.22975h8.98719c4.99288,0,5.99145,1.68511,4.99288,4.99289a6.407,6.407,0,0,1-4.18154,3.93191,1.81651,1.81651,0,0,1,1.1234,1.80991Zm-5.30493-4.24394c1.43546,0,2.18437-.37448,2.49644-1.49786.24964-1.18581-.12482-1.56028-1.24822-1.56028h-2.05956l-.99859,2.99572Z" fill="#061922"/><polygon points="113.338 98.11 126.195 98.11 124.822 102.167 117.957 102.167 117.52 103.54 123.262 103.54 122.138 106.848 116.334 106.848 115.835 108.283 123.012 108.283 121.639 112.34 108.47 112.34 113.338 98.11" fill="#061922"/><path d="M128.12988,98.11014h6.11629l.93616,5.24251a9.5259,9.5259,0,0,1,.18723,1.87235l2.49645-7.05245h4.93046l-4.93046,14.1673H131.937l-.99857-5.24252a9.525,9.525,0,0,1-.18724-1.87233l-2.49644,7.11485h-4.93047l4.93047-14.1673Z" fill="#061922"/><path d="M142.11,105.225a10.38437,10.38437,0,0,1,10.60986-7.42693c5.24254,0,7.23969,2.49645,5.5546,7.42693a10.50647,10.50647,0,0,1-10.67229,7.4269c-5.18013,0-7.17728-2.49644-5.55458-7.4269Zm9.98578,0c.93616-2.7461.74891-3.495-.749-3.495-1.56028,0-2.24681.74894-3.183,3.495s-.74892,3.4326.81135,3.4326,2.24679-.74894,3.183-3.4326Z" fill="#061922"/><path d="M298.38721,117.70724a2.71909,2.71909,0,0,0-2.18439-1.1234h-18.0992a16.04756,16.04756,0,0,0-9.36165,2.80848,2.62192,2.62192,0,0,0-2.62129-2.122H255.07393a2.77335,2.77335,0,0,0-2.49643,1.80991L250.83,124.26039l-.87375-4.80565a2.72786,2.72786,0,0,0-2.62125-2.18439H233.91659a2.684,2.684,0,0,0-2.49643,1.80991l-1.62269,4.68083a6.47194,6.47194,0,0,0-1.061-2.18436c-2.05957-2.93333-6.17871-4.30638-12.79428-4.30638h-19.8467a2.54668,2.54668,0,0,0-2.434,1.80991l-1.68508,4.93049A12.00475,12.00475,0,0,0,190.853,122.076c-2.49643-3.61982-7.42691-5.42976-14.10489-5.42976a26.523,26.523,0,0,0-18.0992,6.17871l.6241-1.93474a2.47782,2.47782,0,0,0-.312-2.37163,2.76091,2.76091,0,0,0-2.122-1.18581H143.42059a2.75927,2.75927,0,0,0-2.434,1.80994l-.12483.43686h-1.061a2.62528,2.62528,0,0,0-2.62127-2.2468H123.88593a2.77945,2.77945,0,0,0-2.49645,1.56027,1.5646,1.5646,0,0,0-.24963-.43686,2.71916,2.71916,0,0,0-2.1844-1.12341h-13.668a28.31749,28.31749,0,0,0-18.1616,5.49218l.81132-1.93474a2.74779,2.74779,0,0,0-.312-2.49647c-.49927-.68649-.68652-.56169-.6241-.49926l4.244-16.78859-6.92763,5.67943L83.0067,96.36264l-3.8695,8.67513-3.24538-6.30349L73.645,106.91011a18.9849,18.9849,0,0,0-4.68083-3.37017C64.34579,97.04917,54.98413,93.3045,44.187,93.3045c-18.59849,0-36.57288,9.92336-40.87923,22.65521a15.92359,15.92359,0,0,0-.99858,5.617,16.6592,16.6592,0,0,0,8.73754,14.1673,17.7965,17.7965,0,0,0,4.244,2.05954l-4.30635,12.4198a2.67336,2.67336,0,0,0,.37445,2.37165,2.60408,2.60408,0,0,0,2.122,1.12336H38.44519c9.17443,0,16.47654-2.18436,21.28217-6.24111l-.99858,2.6837a2.83659,2.83659,0,0,0,.37448,2.43405,2.60408,2.60408,0,0,0,2.122,1.12336H74.45637a2.68405,2.68405,0,0,0,2.49645-1.80988l1.56028-4.68083a10.99213,10.99213,0,0,0,.87375,1.43543c2.49645,3.37022,6.8028,4.9929,13.16873,4.9929h17.84956a3.3543,3.3543,0,0,0,1.31063-.31207,2.84106,2.84106,0,0,0,1.24823.31207h13.23113a2.69869,2.69869,0,0,0,2.434-1.4979h1.56027l.18724.37448a2.90913,2.90913,0,0,0,2.18439,1.12342h13.23113a2.7734,2.7734,0,0,0,2.49647-1.80994l1.7475-5.1801a11.62575,11.62575,0,0,0,1.18581,2.122c2.49643,3.61982,7.3021,5.42976,14.04248,5.42976a26.77592,26.77592,0,0,0,17.97437-5.99147l-.62409,1.87232a2.47787,2.47787,0,0,0,.312,2.37165,2.69351,2.69351,0,0,0,2.122,1.12338h13.23113a2.684,2.684,0,0,0,2.49642-1.80994l2.80851-8.17583c0,1.37305.43687,7.42693.43687,7.42693a2.6191,2.6191,0,0,0,2.68368,2.434h13.356a2.8452,2.8452,0,0,0,1.37305-.37448,2.45635,2.45635,0,0,0,1.31063.37448h11.48362a2.68412,2.68412,0,0,0,2.49647-1.80994l1.87232-5.36735.93618,4.93049a2.62527,2.62527,0,0,0,2.62125,2.2468h13.29357a2.7311,2.7311,0,0,0,1.56027-.49929,2.53279,2.53279,0,0,0,1.18579.24963H277.105a17.49283,17.49283,0,0,0,16.60137-16.78856,7.77889,7.77889,0,0,0-1.373-4.68082,7.01,7.01,0,0,0-1.12339-1.24824h1.87232a2.60715,2.60715,0,0,0,2.434-1.74752l3.183-8.98719a2.595,2.595,0,0,0-.37449-2.49643Z" fill="#061922"/><path d="M43.56291,95.36407c-17.35027,0-34.38848,9.36166-38.38279,20.90769-2.49644,6.86524.49928,12.91909,6.8028,16.72617a19.7458,19.7458,0,0,0,4.4936,2.122,19.226,19.226,0,0,0,17.03821-3.495,1.01525,1.01525,0,0,1-.37446,1.061,20.49038,20.49038,0,0,1-15.91482,5.55458L12.9815,150.59782H38.00832c11.85811,0,21.09494-3.807,23.90344-11.85806,2.18438-6.30354.312-9.36165-4.93047-10.67231,5.49216-1.31063,8.55031-3.43261,10.54746-9.17442a15.84817,15.84817,0,0,0,.62411-2.30921C71.83512,105.10018,60.726,95.36407,43.56291,95.36407ZM15.72758,121.82634c1.93475-5.49215,10.67229-9.86094,19.65948-9.86094,8.92478,0,14.60418,4.4312,12.73186,9.86094a7.10731,7.10731,0,0,1-.99858,1.93475,6.48665,6.48665,0,0,1-3.74466.81136H38.69485l2.2468-6.17872c.74893-2.434-2.2468-4.61839-6.80281-4.61839-4.61841,0-9.0496,2.122-9.92335,4.74323l-4.05672,11.3588a17.88858,17.88858,0,0,1-2.99573-1.7475,6.06617,6.06617,0,0,1-1.43546-6.2411ZM44.74872,136.7426c-.93617,2.80847-2.122,3.93189-6.678,3.93189H33.14027l2.80849-7.80138h4.99289c4.24395,0,4.74323,1.12339,3.80707,3.80708Z" fill="#fff"/><path d="M15.85241,127.81783h.18723a6.71131,6.71131,0,0,1-1.1234-6.55318c2.05956-5.929,11.04675-10.54746,20.47082-10.54746a17.03077,17.03077,0,0,1,11.48363,3.55742,15.939,15.939,0,0,0-12.295-4.30634c-9.42407,0-18.41126,4.61839-20.40841,10.54745a6.66034,6.66034,0,0,0,1.56027,7.11485Z" fill="#63727a"/><path d="M37.82109,124.51a.53313.53313,0,0,1,0-.43689l2.122-6.30351a1.74921,1.74921,0,0,0-.24964-1.56028,3.27069,3.27069,0,0,0-.68653-.6241,2.04276,2.04276,0,0,1,.24965,1.49785l-2.122,6.30353a.8031.8031,0,0,0,.06241.74892A.82771.82771,0,0,0,37.82109,124.51Z" fill="#63727a"/><path d="M61.35006,131.62491a3.81163,3.81163,0,0,0-1.1234-1.31066,3.76611,3.76611,0,0,1,.49929.4993,5.56021,5.56021,0,0,1,.5617,2.434,14.29005,14.29005,0,0,1-.87376,4.244C57.91745,144.66879,49.55437,148.788,37.38422,148.788H14.47936l-.24964.74893h23.7786c12.17016,0,20.59565-4.11915,23.02968-11.29642a12.22255,12.22255,0,0,0,.87375-4.18152,5.63049,5.63049,0,0,0-.56169-2.49647Z" fill="#63727a"/><path d="M64.78267,104.0392a11.70615,11.70615,0,0,1,2.49644,7.23968,12.87341,12.87341,0,0,1-.68652,4.05671v.12482a12.45406,12.45406,0,0,1-.5617,2.18439c-1.93475,5.6794-4.93047,7.42693-9.92336,8.61272a.936.936,0,0,0-.68652.87375,1.001,1.001,0,0,0,.68652.87375v-.18722a.86388.86388,0,0,1,.68652-.81134c4.93047-1.18581,7.98862-2.93331,9.92335-8.61273a14.04767,14.04767,0,0,0,.56171-2.18439v-.12482a13.25817,13.25817,0,0,0,.68651-4.11913,12.33541,12.33541,0,0,0-2.49643-7.17725,17.12623,17.12623,0,0,0-1.99715-2.2468,13.71459,13.71459,0,0,1,1.24821,1.43544Z" fill="#63727a"/><path d="M233.35491,119.45474h13.48078l2.122,11.48361a21.632,21.632,0,0,1,.37445,3.99434l5.36735-15.41554h11.04675L255.074,150.59782H241.718L239.5336,138.9894c-.18723-1.31064-.37447-2.68369-.43688-3.99434l-5.30493,15.60276H222.68262l10.7347-31.14308Z" fill="#fff"/><path d="M247.335,130.127a19.21192,19.21192,0,0,1,.37445,3.80707.8751.8751,0,0,0,.74891.87375c-.06239-1.31064-.18722-2.55886-.37445-3.86949l-1.99713-10.67228h-.56171Z" fill="#63727a"/><polygon points="263.499 120.141 253.576 148.726 242.342 148.726 242.467 149.537 254.45 149.537 264.56 120.141 263.499 120.141" fill="#63727a"/><path d="M238.535,133.24758a.89544.89544,0,0,0-.9986.6241l-5.11769,14.97864h-8.30066l-.24965.81135h9.17443l5.1801-15.04106a.88413.88413,0,0,1,.93619-.56171.81187.81187,0,0,0-.68653-.81132Z" fill="#63727a"/><path d="M260.94059,141.48583h13.91766a2.36558,2.36558,0,0,0,2.30921-1.49786c.312-.87376,0-1.68513-1.24823-1.68513h-5.11772c-7.05245,0-8.30065-4.43116-6.36592-9.73611a13.63286,13.63286,0,0,1,13.23114-9.92336h18.22405l-3.183,8.92478H279.1646a2.36556,2.36556,0,0,0-2.30921,1.49788c-.312.87375,0,1.6851,1.24823,1.6851h5.42977c6.86519,0,8.23824,3.93189,6.17866,9.79854a13.12712,13.12712,0,0,1-13.04392,9.73611H257.75761l3.183-8.92476Z" fill="#fff"/><path d="M270.05258,136.43055a7.93454,7.93454,0,0,1-4.74324-1.18582,6.43893,6.43893,0,0,0,5.49217,1.93476h5.11772a2.84107,2.84107,0,0,1,1.24823.312v-.18723a2.09106,2.09106,0,0,0-1.87238-.87375Z" fill="#63727a"/><path d="M288.21422,132.68588a4.76,4.76,0,0,1,.7489,2.62126,14.05292,14.05292,0,0,1-13.04389,13.23114H259.25546l-.24963.74893h17.6623A13.95522,13.95522,0,0,0,289.712,136.05607a4.91252,4.91252,0,0,0-.74893-2.62127A2.15131,2.15131,0,0,0,288.21422,132.68588Z" fill="#63727a"/><path d="M293.45672,119.45474l-2.18439,6.36591H278.35326a3.09158,3.09158,0,0,0-3.12055,2.122,1.99313,1.99313,0,0,0-.18723.87378,2.33592,2.33592,0,0,0,.312,1.12338,6.63161,6.63161,0,0,0,.68653.5617,1.761,1.761,0,0,1-.24964-.93615,1.99293,1.99293,0,0,1,.18723-.87375,3.11783,3.11783,0,0,1,3.183-2.122h12.85666l2.49647-7.17728Z" fill="#63727a"/><path d="M219.37481,142.79644l.5617,7.80138h-13.356l-.49928-8.36305c0-1.43546-.68653-2.05955-2.49645-2.05955h-1.99715l-3.495,10.4226H184.86152l10.73469-31.14308H215.3805c10.67229,0,13.16874,3.55743,10.73471,10.60986a13.8868,13.8868,0,0,1-9.04961,8.73757,3.953,3.953,0,0,1,2.434,3.9319Zm-11.60843-9.29921c3.12055,0,4.80561-.81135,5.617-3.24537.87375-2.49647-.24965-3.30781-2.62125-3.30781h-4.556l-2.2468,6.55318Z" fill="#fff"/><path d="M210.01318,125.07173h-4.4936a.83306.83306,0,0,0-.87375.56168L202.399,132.249a1.04346,1.04346,0,0,0,.0624.74892.951.951,0,0,0,.62413.37448v-.37448l2.30919-6.61556a.80571.80571,0,0,1,.81136-.56169h4.556a4.41853,4.41853,0,0,1,2.62125.6241,3.893,3.893,0,0,0-3.30778-1.31063Z" fill="#63727a"/><path d="M217.128,139.67589a4.01546,4.01546,0,0,1,.62408,2.18439l.43689,6.92763H207.32947v.74894h11.60846l-.49928-6.92763a3.41314,3.41314,0,0,0-1.37305-2.93333Z" fill="#63727a"/><path d="M225.99041,125.571a4.19549,4.19549,0,0,0-.749-2.68369,5.38879,5.38879,0,0,0-.81133-.87377,5.12627,5.12627,0,0,1,.74892,2.68368,12.65172,12.65172,0,0,1-.81134,3.99433,13.00028,13.00028,0,0,1-8.55032,8.17583.88864.88864,0,0,0-.56169.81135.80568.80568,0,0,0,.56169.81134h.18723v-.18726a.86171.86171,0,0,1,.62413-.81131,12.77756,12.77756,0,0,0,8.48789-8.17586,12.30862,12.30862,0,0,0,.81134-3.99431Z" fill="#63727a"/><path d="M202.96072,138.36528h-2.05958a.86174.86174,0,0,0-.81136.62412l-3.37017,9.86092H186.35937l-.24963.74894h11.35879l3.37022-9.92337a.88858.88858,0,0,1,.81131-.56168h2.05958a3.83968,3.83968,0,0,1,2.05956.43686A2.91508,2.91508,0,0,0,202.96072,138.36528Z" fill="#63727a"/><path d="M81.19677,135.0575c3.55743-10.29783,11.234-15.54035,23.7162-15.54035h13.60561l-2.99573,8.8H103.103c-4.93046,0-6.678,1.68509-8.42548,6.80281-1.74752,5.05531-1.74752,7.23967,2.74608,7.23967h3.61984l1.061-3.12055h-4.244l2.49644-7.11485h16.16447l-6.30352,18.47364H92.43076c-11.10917,0-14.6666-5.36732-11.17158-15.60276Z" fill="#fff"/><path d="M117.27036,120.14127h-.99858l-2.122,6.2411H102.2917c-5.18011,0-7.4269,1.68508-9.29923,7.4269a15.007,15.007,0,0,0-1.18581,4.93049,3.71262,3.71262,0,0,0,.56169,1.99714,2.66117,2.66117,0,0,0,.74894.68653,3.504,3.504,0,0,1-.5617-1.93476,16.75274,16.75274,0,0,1,1.18581-4.93047c1.93474-5.67939,4.11912-7.42689,9.29924-7.42689h11.8581l2.434-6.99Z" fill="#63727a"/><path d="M114.27462,132.68588l-5.55459,16.102H91.557a14.31412,14.31412,0,0,1-9.23683-2.49646c1.74751,2.122,5.1177,3.183,9.92335,3.183h17.163l5.80423-16.78856Z" fill="#63727a"/><polygon points="123.387 119.455 136.618 119.455 132.873 130.377 139.177 130.377 142.921 119.455 156.152 119.455 145.48 150.66 132.249 150.66 136.118 139.426 129.753 139.426 125.883 150.66 112.652 150.66 123.387 119.455" fill="#fff"/><path d="M131.25044,129.06605a.92573.92573,0,0,0,0,.81132.75967.75967,0,0,0,.6241.37449v-.37449l3.3702-9.7361h-.99857Z" fill="#63727a"/><polygon points="153.906 120.141 143.982 148.726 133.747 148.726 133.497 149.537 144.918 149.537 154.967 120.141 153.906 120.141" fill="#63727a"/><path d="M136.24331,138.24046c-.06241-.18725-.06241-.31207-.18723-.43689a.9512.9512,0,0,0-.68652-.37445h-6.36594a.8617.8617,0,0,0-.81133.62409L124.51,148.6631H114.21222l-.24965.81134H125.259l3.68226-10.6723a.83308.83308,0,0,1,.87375-.56168Z" fill="#63727a"/><path d="M176.18639,118.76822c-11.42124,0-19.65949,5.617-23.34175,16.28925-3.61984,10.6723.81136,16.22691,12.17016,16.22691s19.7843-5.617,23.34174-16.22691C191.97638,124.3852,187.67,118.76822,176.18639,118.76822Z" fill="#fff"/><path d="M187.358,123.38664a7.00991,7.00991,0,0,0-1.1234-1.24822l.312.43687c1.80993,2.49644,1.87234,6.30352.18724,11.17159-3.495,10.23539-11.29641,15.60277-22.53039,15.60277a14.90026,14.90026,0,0,1-9.98577-2.68369c1.93476,2.2468,5.55459,3.4326,10.73471,3.4326,11.234,0,19.03537-5.36736,22.53039-15.60277,1.68509-4.99287,1.62268-8.67513-.18723-11.17156Z" fill="#63727a"/><path d="M164.70275,137.80357c-.4993-.24963-1.37305.12482-2.18438.93616a5.58985,5.58985,0,0,0,2.18438,2.62129C165.63892,137.9908,164.9524,137.92839,164.70275,137.80357Z" fill="#061922"/><path d="M171.63038,126.81925c-1.56028,1.56027-2.68368,3.30777-2.18438,4.43118.43686,1.061,1.62268,1.80992,8.73754-.37449a6.42092,6.42092,0,0,0-6.24111-4.11912h-.312Z" fill="#061922"/><path d="M164.70275,132.62348a2.64384,2.64384,0,0,0,0-2.37162,9.62035,9.62035,0,0,0-2.122,3.80708,2.84449,2.84449,0,0,0,2.18437-1.43546Z" fill="#061922"/><path d="M168.9467,135.744c1.12338-1.62269,6.61557-.12482,8.92477.56168a16.11258,16.11258,0,0,0,.4993-1.62269,7.39669,7.39669,0,0,0,0-3.30778c-6.1787,1.87234-9.48648,2.122-10.1106.62412-.62411-1.43546,1.18583-3.55744,2.68368-5.11772a10.341,10.341,0,0,0-5.86664,2.93333,3.39673,3.39673,0,0,1,.24964,3.183,3.97924,3.97924,0,0,1-2.93331,1.68509,6.28439,6.28439,0,0,0,.0624,3.55744c.81135-.81134,2.122-1.80994,2.93332-1.49786.74895.37445.74895,1.93472,0,4.9929a6.9,6.9,0,0,0,3.37021.81131,9.00715,9.00715,0,0,0,4.05672-.93616c-4.30638-3.80708-4.244-5.18013-3.80708-5.86662Z" fill="#061922"/><path d="M170.25734,136.36811c-.24965.31208-1.18581,1.18583,3.05815,4.93047a10.18036,10.18036,0,0,0,4.30634-4.43117c-3.24537-.99856-6.678-1.43546-7.4269-.43689Z" fill="#061922"/><polygon points="71.585 119.455 84.817 119.455 74.144 150.66 60.913 150.66 71.585 119.455" fill="#fff"/><polygon points="82.57 120.141 72.646 148.726 62.411 148.726 62.161 149.537 73.52 149.537 83.568 120.141 82.57 120.141" fill="#63727a"/><polygon points="71.96 116.646 70.337 105.912 74.956 109.656 76.641 103.228 79.449 108.782 82.258 102.292 83.194 109.594 88.624 105.225 85.69 116.646 71.96 116.646" fill="#fff"/></svg>