<svg height="311.24749" viewBox="0 0 576.00097 558.2932" width="321.287732" xmlns="http://www.w3.org/2000/svg"><path d="m287.999 18.24c114.974 0 208.51 93.536 208.51 208.51v211.925h8.468v-211.925c0-119.641-97.337-216.977-216.977-216.977s-216.977 97.336-216.977 216.977v211.925h8.469v-211.925c0-114.974 93.536-208.51 208.507-208.51z" fill="#efdbb2"/><path d="m486.736 226.75c0-109.583-89.154-198.737-198.737-198.737-109.58 0-198.734 89.154-198.734 198.737v211.868h397.471z" fill="#862633"/><path d="m288 0c-125.031 0-226.75 101.719-226.75 226.75v221.698h453.5v-221.698c0-125.031-101.718-226.75-226.75-226.75zm-198.735 438.618v-211.868c0-109.583 89.154-198.737 198.734-198.737 109.583 0 198.737 89.154 198.737 198.737v211.868zm415.712.057h-8.468v-211.925c0-114.974-93.536-208.51-208.51-208.51-114.971 0-208.507 93.536-208.507 208.51v211.925h-8.469v-211.925c0-119.641 97.337-216.977 216.977-216.977 119.641 0 216.977 97.336 216.977 216.977z" fill="#061922"/><path d="m430.977 104.952q-3.4395-4.077-7.103-7.947-3.651-3.876-7.531-7.531-3.87148-3.669-7.947-7.103a186.16268 186.16268 0 0 0 -120.396-44.02c-103.107 0-186.995 83.891-186.995 186.998a186.11671 186.11671 0 0 0 44.027 120.396q3.426 4.0725 7.103 7.947 3.642 3.876 7.522 7.528 3.876 3.66449 7.956 7.103a186.13426 186.13426 0 0 0 120.387 44.01994c103.116 0 186.998-83.888 186.998-186.995a186.16311 186.16311 0 0 0 -44.021-120.39594" fill="#061922"/><path d="m160.133 330.627a164.944 164.944 0 0 1 -37.841-105.278c0-91.371 74.333-165.71 165.71-165.71a164.97556 164.97556 0 0 1 105.284 37.841l7.553-7.55a175.53 175.53 0 0 0 -112.837-40.935c-97.248 0-176.354 79.115-176.354 176.354a175.57182 175.57182 0 0 0 40.926 112.837q3.417 4.09649 7.076 7.984 3.651 3.885 7.531 7.522l67.78-67.774a80.51277 80.51277 0 0 1 97.552-127.67l7.657-7.657a91.14767 91.14767 0 0 0 -126.924 126.923 91.79689 91.79689 0 0 0 6.651 8.409l-7.538 7.537a102.42454 102.42454 0 0 1 -6.743-8.311 101.79071 101.79071 0 0 1 142.183-142.189l7.614-7.608a112.43542 112.43542 0 0 0 -157.411 157.405q3.216 4.2795 6.819 8.241l-7.528 7.528c-2.407-2.617-4.706-5.351-6.877-8.176a123.066 123.066 0 0 1 172.583-172.59l7.586-7.587a133.147 133.147 0 0 0 -82.583-28.6c-73.764 0-133.774 60.01-133.774 133.774a133.14905 133.14905 0 0 0 28.6 82.583q3.312 4.206 6.932 8.125l-7.528 7.531q-3.6285-3.91649-6.975-8.085a143.68967 143.68967 0 0 1 -31.673-90.154c0-79.632 64.786-144.418 144.418-144.418a143.69387 143.69387 0 0 1 90.154 31.673l7.565-7.559a154.30026 154.30026 0 0 0 -97.719-34.758c-85.503 0-155.062 69.559-155.062 155.062a154.33514 154.33514 0 0 0 34.752 97.719q3.3705 4.14148 7.018 8.042l-7.528 7.528q-3.65256-3.88188-7.049-8.00891" fill="#e03a3e"/><path d="m423.426 112.51q-3.417-4.101-7.076-7.984-3.651-3.885-7.528-7.522l-67.78 67.774a80.51126 80.51126 0 0 1 -97.551 127.667l-7.66 7.66a91.14511 91.14511 0 0 0 120.276-135.333l7.534-7.537a101.788 101.788 0 0 1 -135.44 150.5l-7.614 7.605a112.43339 112.43339 0 0 0 157.411-157.402q-3.21-4.27948-6.819-8.241l7.531-7.528c2.403 2.618 4.703 5.351 6.874 8.173a123.06765 123.06765 0 0 1 -172.583 172.593l-7.586 7.587a133.14914 133.14914 0 0 0 82.586 28.6c73.761 0 133.771-60.01 133.771-133.774a133.12444 133.12444 0 0 0 -28.6-82.583q-3.30747-4.206-6.932-8.128l7.528-7.528q3.633 3.9165 6.978 8.082a143.71769 143.71769 0 0 1 31.673 90.157c0 79.632-64.786 144.418-144.418 144.418a143.70224 143.70224 0 0 1 -90.157-31.673l-7.565 7.559a154.30858 154.30858 0 0 0 97.722 34.758c85.5 0 155.062-69.563 155.062-155.062a154.36681 154.36681 0 0 0 -34.752-97.722q-3.37651-4.137-7.021-8.039l7.531-7.531q3.651 3.885 7.045 8.015a164.921 164.921 0 0 1 37.841 105.278c0 91.371-74.33 165.707-165.707 165.707a164.98129 164.98129 0 0 1 -105.287-37.838l-7.55 7.55a175.51792 175.51792 0 0 0 112.837 40.935c97.245 0 176.351-79.115 176.351-176.354a175.54385 175.54385 0 0 0 -40.925-112.839" fill="#efdbb2"/><path d="m357.696 220.024h-45.552a75.937 75.937 0 0 1 21.347-47.711 69.76863 69.76863 0 0 1 24.205 47.711m-32.857-54.056a86.53231 86.53231 0 0 0 -23.362 54.056h-8.155v-64.373a69.23007 69.23007 0 0 1 31.517 10.317m-42.161-10.317v64.373h-8.146a86.54114 86.54114 0 0 0 -23.371-54.062 69.32617 69.32617 0 0 1 31.517-10.311m-40.168 16.662a75.896 75.896 0 0 1 21.353 47.711h-45.559a69.78157 69.78157 0 0 1 24.206-47.711m-24.205 58.356h45.559a75.89369 75.89369 0 0 1 -21.353 47.711 69.77562 69.77562 0 0 1 -24.206-47.711m32.856 54.062a86.54115 86.54115 0 0 0 23.371-54.062h8.146v64.373a69.33758 69.33758 0 0 1 -31.517-10.311m42.161 10.311v-64.373h8.155a86.52675 86.52675 0 0 0 23.362 54.056 69.24137 69.24137 0 0 1 -31.517 10.317m40.168-16.662a75.93445 75.93445 0 0 1 -21.347-47.711h45.552a69.7625 69.7625 0 0 1 -24.205 47.711" fill="#efdbb2"/><path d="m189.035 197.154h-176.063l8.054 28.193-8.054 28.193h176.063l-8.054-28.193z" fill="#efdbb2"/><path d="m202.007 187.369h-202.007l10.849 37.978-10.849 37.975h202.006l-10.849-37.975zm-189.035 66.171 8.054-28.193-8.054-28.193h176.063l-8.054 28.193 8.054 28.193z" fill="#061922"/><path d="m55.046 208.926h22.288l4.633 4.587v10.048l-4.036 3.987 4.724 13.026h-9.036l-3.99-11.742h-5.917v11.742h-8.666zm16.968 13.943 1.238-1.284v-5.504l-1.238-1.238h-8.302v8.027h8.302z" fill="#061922"/><path d="m89.4 234.566h5.228v-19.677h-5.228v-5.963h19.218v5.963h-5.275v19.677h5.275v6.009h-19.218z" fill="#061922"/><path d="m117.194 208.927h21.925l4.862 4.862v11.696l-4.862 4.905h-13.256v10.186h-8.669zm16.787 15.411 1.284-1.284v-6.788l-1.284-1.287h-8.119v9.36h8.119z" fill="#061922"/><path d="m563.029 197.154h-176.063l8.054 28.193-8.054 28.193h176.063l-8.054-28.193z" fill="#efdbb2"/><path d="m576 187.369h-202.005l10.849 37.978-10.849 37.975h202.006l-10.849-37.975zm-189.034 66.171 8.054-28.193-8.054-28.193h176.064l-8.054 28.193 8.054 28.193z" fill="#061922"/><path d="m414.132 235.713v-21.925l4.862-4.862h17.017l4.908 4.862v6.651h-8.715v-3.715l-1.422-1.422h-6.376l-1.559 1.559v15.962l1.559 1.514h6.376l1.422-1.376v-3.991h8.715v6.743l-4.908 4.862h-17.017z" fill="#061922"/><path d="m448.486 234.566h5.229v-19.677h-5.229v-5.963h19.219v5.963h-5.275v19.677h5.275v6.009h-19.219z" fill="#061922"/><path d="m482.933 215.9h-8.44v-6.972h25.64v6.972h-8.485v24.673h-8.715z" fill="#061922"/><path d="m515.727 231.263-9.907-22.337h9.448l5.138 13.855 5.458-13.855h8.485l-9.953 22.337v9.311h-8.669z" fill="#061922"/><path d="m541.582 429.758c-2.428-2.923-4.779-5.758-7.024-8.547.771-.856 1.587-1.761 2.431-2.697 10.284-11.415 18.384-20.487 21.166-24.622 5.238-7.568 4.266-13.219 2.52-16.632a12.54219 12.54219 0 0 0 -2.85-3.651l-7.755-7.749c-1.994-2.296-5.51-4.657-11.586-4.761h-45.706a11.33582 11.33582 0 0 0 -8.238 3.342c-4.015-2.241-9.124-3.342-15.558-3.342h-28.545l-.076-5.856a24.20448 24.20448 0 0 0 -7.534-17.638l-7.547-7.507c-5.434-6.064-14.142-9.651-24.894-9.651h-.418c-18.313 0-30.734 10.409-30.905 25.903l-.003.113.003.113a24.27929 24.27929 0 0 0 4.749 14.503h-1.333a12.03206 12.03206 0 0 0 -6.119 1.651l-.144.089a10.47292 10.47292 0 0 0 -2.841 2.63c-5.446-4.208-12.384-6.412-20.292-6.412h-.728a38.04257 38.04257 0 0 0 -23.94 7.999c-5.691-5.143-13.308-7.996-22.025-7.996l-.581-.003a37.40115 37.40115 0 0 0 -23.983 8.446c-4.437-3.682-10.99-6.397-20.665-6.397h-18.237l-.003-.003-7.29-.006a11.252 11.252 0 0 0 -8.635 3.807 10.74507 10.74507 0 0 0 -2.168 4.098c-9.134-6.59-21.365-9.959-33.498-9.959l-2.043-.003c-16.145-.003-30.771 5.431-41.482 15.335a34.15861 34.15861 0 0 0 -9.932-19.072l-7.528-7.519a29.49675 29.49675 0 0 0 -5.672-4.746c-8.696-5.801-21.096-8.62-37.893-8.62h-63.382c-6.4 0-11.225 4.685-11.225 10.895v2.036a11.26233 11.26233 0 0 0 1.611 5.902 10.43826 10.43826 0 0 0 2.092 2.44l5.935 5.938c.021.37.037.792.046 1.281v87.833l.003.085c.089 5.036 1.761 8.975 4.712 11.549l7.791 7.797c2.535 2.871 6.314 4.486 11.109 4.541h34.541a15.88282 15.88282 0 0 0 8.696-2.409 15.55006 15.55006 0 0 0 8.868 2.409h50.986c6.342 0 11.14-4.599 11.225-10.727a53.76539 53.76539 0 0 0 9.562 6.146 62.33946 62.33946 0 0 0 28.377 6.617c15.882 0 30.233-5.467 40.342-14.996l64.392 69.107 4.208.107 23.979.618.856.003c3.605 0 37.226.55 107.281 19.656a191.10266 191.10266 0 0 0 50.072 7.067c37.911 0 70.74-13.971 85.677-36.461l.083-.125c23.252-36.202-2.413-67.113-23.035-91.949m-86.267-17.005c-.975 1.085-2.024 2.247-3.119 3.462-2.336 2.59-4.532 5.027-6.617 7.357-.177-.171-.339-.361-.526-.523a10.59423 10.59423 0 0 0 -1.116-1.116 10.85823 10.85823 0 0 0 -1.113-1.116 12.18106 12.18106 0 0 0 -1.134-1.138c-.147-.168-.29-.336-.447-.495-.003-7.947-.006-17.353-.006-24.343zm42.18 66.169c-.248.942-.902 3.443-6.428 5.648l-.196.076c-6.495 2.26-15.818 3.452-27.016 3.452a225.54209 225.54209 0 0 1 -50.335-6.256q-18.97052-4.632-36.718-8.342a11.18758 11.18758 0 0 0 4.654-3.287 14.04329 14.04329 0 0 0 3.391-8.241c.073.067.15.131.223.202l4.461 4.461c6.201 6.501 15.194 10.069 26.453 10.1h.452c8.859 0 16.427-2.125 22.377-6.054 2.082 2.043 5.473 3.938 10.904 4.03h47.877a10.8074 10.8074 0 0 1 -.09906 4.21094" fill="#061922"/><g fill="#efdbb2"><path d="m366.245 396.27c.251-15.252-6.559-27.456-23.163-27.456h-.725c-10.501 0-20.026 5.012-24.686 14.362-3.336-9.299-11.238-14.359-21.282-14.359l-.581-.003a27.67158 27.67158 0 0 0 -24.949 15.176c-2.303-9.608-9.718-13.127-19.695-13.127h-25.496c.012-.006-.003-.009-.034-.009-.19 0-1.04.119-1.119.294a.95855.95855 0 0 0 -.309.78c-.024.08.021.251 0 .639v1.44c.138.96-.092.743 1.303 1.648 6.837 4.174 8.235 7.489 8.369 15.515v59.997c.058 3.752 1.361 4.804 5.192 4.85h28.884c3.841-.058 5.122-1.098 5.192-4.85v-61.517a3.71452 3.71452 0 0 1 3.361-1.767 3.438 3.438 0 0 1 2.963 1.434 5.7195 5.7195 0 0 1 .96 3.397v58.453c.055 3.74 1.361 4.804 5.189 4.85h28.884c3.853-.058 5.122-1.098 5.192-4.85.012-.113-.07-61.621.092-61.667a3.70829 3.70829 0 0 1 3.394-1.633.03816.03816 0 0 1 .018-.003c2.584 0 3.835 2.364 3.801 4.828v58.45l.024.024c-.07 3.556 1.303 4.767 4.938 4.825h29.089c.052.003.104.003.159.003 1.113 0 3.452-.324 3.856-1.034a4.93526 4.93526 0 0 0 1.177-3.624c.06909-.28207-.08991-53.77307.00207-55.06607"/><path d="m129.689 451.156c-6.782-3.911-8.155-5.957-8.29-13.766v-10.706c.055-21.041-12.39-27.737-32.208-27.737h-.153l5.66-.893a30.94857 30.94857 0 0 0 17.849-9.011c11.207-10.452 8.553-30.404-3.214-37.834-6.938-4.666-17.894-7.033-32.554-7.033h-63.38c-1.269 0-1.452.526-1.452 1.119v2.037a1.53106 1.53106 0 0 0 .171.801c.034.055.229.33 1.223.89 6.825 3.957 8.131 5.935 8.29 13.77v87.851c.07 3.908 1.098 5.314 5.03 5.36h34.315c3.902-.046 4.975-1.462 5.033-5.36v-48.347c.56-.018 1.113-.037 1.654-.037 3.254 0 5.963.608 5.984 4.886v43.497c0 1.988.376 3.394 1.119 4.183h-.021c.719.789 2.033 1.177 3.911 1.177h50.986c1.269 0 1.452-.526 1.452-1.119v-2.037a1.54142 1.54142 0 0 0 -.171-.798 3.89658 3.89658 0 0 0 -1.234-.8931m-56.053-60.1689c0 3.168-1.682 4.85-4.847 4.85h-2.78v-42.926a4.40045 4.40045 0 0 1 3.672-1.761 3.4495 3.4495 0 0 1 2.994 1.44 5.7813 5.7813 0 0 1 .96 3.397v35z"/><path d="m400.386 330.223h-.416c-11.085 0-21.01 4.981-21.136 16.237.138 11.314 10.128 16.054 21.218 16.054l.379.003c10.913 0 21.065-4.972 21.224-16.057h.012c-.158-11.231-10.221-16.237-21.281-16.237"/><path d="m223.678 416.566c-.141-.462-.856-.547-1.599-.547-.437 0-.884.031-1.235.031-.104 0-.202-.003-.284-.009a1.82185 1.82185 0 0 0 -.963.171 8.22362 8.22362 0 0 0 -1.324 1.189c-6.987 7.317-16.044 11.045-26.93 11.045-.153.003-.312.006-.471.006-7.516 0-20.98-3.675-21.527-11.131a3.22123 3.22123 0 0 1 3.153-3.315c.079 0 .162.003.242.009a26.413 26.413 0 0 0 19.732 8.232c13.879 0 27.835-9.378 27.505-24.982-.135-19.641-20.784-28.468-38.642-28.468l-2.046-.003c-26.465-.003-48.531 17.384-48.228 44.629a42.87612 42.87612 0 0 0 23.796 39.058 52.72778 52.72778 0 0 0 23.949 5.559c15.604 0 31.306-6.434 39.639-19.53v-.012c3.942-6.254 6.572-14.728 5.233-21.932m-49.259-39.369a4.03807 4.03807 0 0 1 3.345-1.767 3.52366 3.52366 0 0 1 3.608 3.996v24.126a3.5381 3.5381 0 0 1 -3.624 4 3.99461 3.99461 0 0 1 -3.33-1.767v-28.588z"/><path d="m433.773 425.739a.21971.21971 0 0 0 -.064.009s-.064.003-.171.003c-.419 0-1.523-.012-2.195-.012-.3 0-.517.003-.55.009a.52534.52534 0 0 0 -.07-.003 1.05708 1.05708 0 0 0 -.752.266 9.85014 9.85014 0 0 0 -.605 3.122 25.40048 25.40048 0 0 1 -1.315 5.715 2.84451 2.84451 0 0 1 -2.712 1.584 2.31278 2.31278 0 0 1 -2.159-1.229 9.01158 9.01158 0 0 1 -.63-4.046c.012-.367-.021-54.087 0-55.435.104-.333-.275-3.281-1.018-3.669-.706-.768-2.021-1.156-3.954-1.19-.067-.006-2.067-.009-5.195-.009-8.544 0-25.487.015-34.294.015-3.223 0-5.354-.003-5.587-.006.021-.006.012-.009-.021-.009a2.66833 2.66833 0 0 0 -1.055.236.90148.90148 0 0 0 -.388.835c-.012.07.025.263 0 .642v1.44c.113.96-.046.767 1.303 1.645 6.84 4.174 8.235 7.492 8.372 15.518v38.911l.021.012c.113 17.277 8.715 27.9 26.355 27.946.144 0 .284.003.425.003 17.527 0 27.42-9.852 27.453-27.355a15.06783 15.06783 0 0 0 -.364-4.046c-.099-.455-.546-.902-.82995-.902"/><path d="m512.926 411.878c5.155-6.002 24.573-26.918 28.233-32.416 2.709-3.89 4.036-8.473-2.838-8.59h-45.543c-1.269 0-1.452.55-1.452 1.122.079 1.829-.41 1.703 1.086 3.923l17.656 22.741c1.339 1.933 1.703 4.312.012 5.889a3.91706 3.91706 0 0 1 -2.721 1.003c-.083 0-.168-.003-.251-.009l-.183-.226-17.677-22.778c-3.568-4.779-6.678-7.972-9.262-9.446-2.55-1.477-6.266-2.22-11.002-2.22h-33.136c-1.272 0-1.452.55-1.452 1.122v1.874c0 .676.581 1.361 1.749 2.037a22.69186 22.69186 0 0 1 6.62 5.064l25.282 32.165c-5.33 6.223-26.071 28.53-29.924 34.294-2.722 3.899-4.027 8.473 2.835 8.586h47.751c1.349 0 1.453-.572 1.453-1.119-.092-1.832.422-1.703-1.086-3.923l-18.674-24.105c-1.336-1.933-1.715-4.299-.012-5.886a3.943 3.943 0 0 1 2.758-1c.07 0 .144 0 .217.003l.18.229 18.696 24.126c8.644 10.715 28.221 39.027 2.449 49.307l.009.009c-8.189 2.984-19.069 4.217-30.844 4.217a234.40612 234.40612 0 0 1 -52.65-6.538c-64.147-15.665-117.579-23.417-163.26-23.667l40.054 44.592 23.976.618h.605c4.883 0 39.278.755 109.852 20.001a181.04721 181.04721 0 0 0 47.503 6.724c38.324 0 65.829-14.476 77.534-32.098 23.443-36.496-12.771-66.57-34.543-95.625"/></g></svg>