<?xml version="1.0" encoding="UTF-8" standalone="no"?>
<svg xmlns:rdf="http://www.w3.org/1999/02/22-rdf-syntax-ns#" xmlns="http://www.w3.org/2000/svg" height="180.76517" width="269.97822" version="1.1" xmlns:cc="http://creativecommons.org/ns#" xmlns:dc="http://purl.org/dc/elements/1.1/" viewBox="0 0 269.97822 180.76517"><path d="M236.351,125.83745h2.8371L269.97822,5.41628,232.918,35.75281,213.61863,8.28007l-32.5155,26.32545L160.46966,6.50132,127.23377,33.38708,105.15063,4.63364,71.81691,31.40378,53.91382,0,14.96816,148.56985H0l48.9778,32.19532,2.16118-.12453c56.03053-3.21953,163.12-9.32064,167.20222-9.40068,13.71415-.29348,22.1632-6.32343,25.107-17.84974l5.105-19.19268H236.99136A12.3,12.3,0,0,0,236.351,125.83745Z" fill="#fff"/><polygon points="207.615 64.915 194.924 64.889 226.995 38.679 212.293 17.77 179.885 43.997 159.251 15.884 98.863 64.729 85.051 64.693 120.804 35.744 104.039 13.91 69.967 41.294 56.208 17.2 39.052 83.459 242.772 83.797 258.585 23.186 207.615 64.915" fill="#592c82"/><polygon points="44.691 123.792 49.778 123.801 56.048 148.41 72.386 148.436 65.547 121.604 91.49 91.348 73.631 91.312 53.887 114.329 47.226 114.32 53.389 91.276 37.06 91.25 21.79 148.348 38.11 148.374 44.691 123.792" fill="#5b6670"/><polygon points="101.584 110.994 88.261 110.967 78.203 148.445 91.57 148.463 101.584 110.994" fill="#5b6670"/><path d="M228.489,140.67221s2.12562-7.91542,2.17008-8.09331a5.55864,5.55864,0,0,0-.47137-4.34014,4.96262,4.96262,0,0,0-1.77875-1.71649,4.02,4.02,0,0,0-1.89437-.42689c-.77375,0-18.27661-.16008-19.42391-.16008h0l1.77874-6.67919,25.24043.04447,2.09-8.00436-38.48319-.06227-4.33125,16.12435c-.97831,3.63753,1.18287,6.58136,4.80261,6.59026h18.79246l-1.77875,6.6703H190.575l-2.15229,8.00436,43.52593.07115c-1.62754,6.81261-8.29784,6.75035-12.04212,6.74146l-39.80836-.06227,12.17553-44.23744-32.15086-.05336a9.2139,9.2139,0,0,0-8.369,6.608l-6.11887,22.83911H139.685l5.94991-22.8569c.97832-3.64644-1.174-6.61694-4.8204-6.62583l-32.15086-.05336L98.63152,148.472h13.3406l7.871-29.40269h12.09549L125.873,141.89066c-.97831,3.64644,1.174,6.61694,4.81152,6.62583l38.12743.06226-1.8321,6.75925-145.05683-.24014,28.86906,18.97033S212.93382,164.8098,218.19,164.6764c11.09049-.24012,16.7647-4.5447,18.92587-12.99374L240.04191,140.69Zm-57.52467-.10672H158.94l5.75424-21.40722h12.08659Z" fill="#5b6670"/><path d="M134.17089,91.29419a3.36184,3.36184,0,0,0-2.94383,2.259l-2.44577,7.871c-.40912,1.26291.20455,2.259,1.44078,2.259h10.67248a3.344,3.344,0,0,0,2.93494-2.27679l2.45466-7.8087c.39133-1.254-.19566-2.30347-1.4141-2.31238m-6.22561,9.63192h-4.44687l2.06335-6.83928h4.52691Z" fill="#5b6670"/><polygon points="204.013 91.312 189.348 91.303 188.601 94.06 193.252 94.078 190.664 103.701 195.849 103.701 198.419 94.096 203.249 94.113 204.013 91.312" fill="#5b6670"/><polygon points="127.527 91.312 112.853 91.312 112.106 94.06 116.757 94.078 114.151 103.701 119.354 103.701 121.924 94.096 126.745 94.113 127.527 91.312" fill="#5b6670"/><path d="M150.81107,91.312l-3.15728,10.08549a1.60978,1.60978,0,0,0,1.50305,2.29459h13.10937l.74707-2.74817h-9.83647L155.0356,94.069h4.61585l-.39133,1.2807h5.22952l1.1384-4.07333Z" fill="#5b6670"/><path d="M220.88479,91.32977H210.5236a3.15725,3.15725,0,0,0-2.81043,2.259l-2.259,7.85317a1.63644,1.63644,0,0,0,1.51194,2.30348h10.42346a3.13059,3.13059,0,0,0,2.79265-2.26791l2.20565-7.82649a1.62754,1.62754,0,0,0-1.503-2.27679m-5.70979,9.61412h-4.44687l1.96551-6.87485h4.44687Z" fill="#5b6670"/><path d="M93.322,91.30309,91.96121,96.586A1.71651,1.71651,0,0,0,93.74,98.87167h7.52411l-.56031,2.04556H90.805l-.78266,2.79263H105.3285l1.45857-5.29177c.34685-1.20066,0-2.2857-1.37853-2.2857h-7.702l.54252-2.06335h4.39351l-.32018,1.28959h5.51411l1.10283-4.03775Z" fill="#5b6670"/><path d="M226.68353,91.37423l-3.33516,12.45123h5.105l2.57918-9.64971h4.3846l-2.49913,9.623h4.98937l2.73926-10.0855a1.66312,1.66312,0,0,0-1.52082-2.30347" fill="#5b6670"/><polygon points="176.665 103.692 181.752 103.701 179.725 97.546 185.488 91.312 180.401 91.312 175.82 96.159 173.588 96.15 174.922 91.312 169.897 91.312 166.428 103.701 171.578 103.701 172.885 98.898 174.993 98.907 176.665 103.692" fill="#5b6670"/></svg>