<?xml version="1.0" encoding="UTF-8" standalone="no"?>
<svg xmlns:rdf="http://www.w3.org/1999/02/22-rdf-syntax-ns#" xmlns="http://www.w3.org/2000/svg" height="234.54087" width="259.33413" version="1.1" xmlns:cc="http://creativecommons.org/ns#" xmlns:dc="http://purl.org/dc/elements/1.1/" viewBox="0 0 259.33413 234.54087"><path d="M256.06345,94.49979,254.07152,83.677H241.32327a117.216,117.216,0,0,0-224.62175,0H3.95325L2.02775,94.49979A130.20918,130.20918,0,0,0,1.43018,136.662l1.7927,11.22112H15.90477a109.39422,109.39422,0,0,0,5.24535,15.07218,117.3753,117.3753,0,0,0,25.09816,37.24882A124.04282,124.04282,0,0,0,63.64435,214.546,117.37852,117.37852,0,0,0,237.273,162.95533a112.54563,112.54563,0,0,0,5.24539-15.07218h12.68184l1.72636-11.22112a131.68664,131.68664,0,0,0-.59759-42.09582Z" fill="#fff"/><path d="M251.88043,95.29655l-1.328-7.30369H238.1362a111.68044,111.68044,0,0,0-15.40415-33.86258A113.0879,113.0879,0,0,0,19.955,87.99286H7.53871L6.27715,95.29655A125.40074,125.40074,0,0,0,5.746,136.06444l1.12874,7.56928H19.15822a112.98569,112.98569,0,0,0,219.77474,0h12.34989l1.12874-7.50288a125.37675,125.37675,0,0,0-.53116-40.76788Z" fill="#061922"/><path d="M246.70146,96.22612l-.53119-2.92148H234.086a105.74577,105.74577,0,0,0-5.77656-17.86084A107.69274,107.69274,0,0,0,24.07163,93.30464H11.98734l-.53119,2.92148a118.96754,118.96754,0,0,0-.53117,39.108l.46478,3.05426H23.40764a107.64706,107.64706,0,0,0,181.72915,55.04329,111.78463,111.78463,0,0,0,13.14665-15.93534A107.78539,107.78539,0,0,0,234.75,138.38835h11.9515l.53117-3.05426a122.255,122.255,0,0,0-.53117-39.04156Z" fill="#c4ced3"/><path d="M244.97512,117.34043a117.83185,117.83185,0,0,0-1.79274-20.51673H230.03575a103.00613,103.00613,0,0,0-201.84752,0H15.04158a117.57553,117.57553,0,0,0-.53116,37.97921h13.213a102.91528,102.91528,0,0,0,202.77707,0h13.14664A109.876,109.876,0,0,0,244.97512,117.34043Z" fill="#061922"/><polygon points="41.8 109.041 36.953 97.554 35.027 109.638 23.54 110.236 32.902 116.477 26.595 125.839 36.753 122.519 41.667 133.276 44.124 121.59 55.477 124.578 47.111 115.548 53.751 105.854 41.8 109.041" fill="#c4ced3"/><path d="M42.39724,115.6805a2.93544,2.93544,0,0,1-5.04619,2.05832,2.9366,2.9366,0,0,1-.59757-3.18706,2.82335,2.82335,0,0,1,2.72228-1.79273A2.94742,2.94742,0,0,1,42.39724,115.6805Z" fill="#061922"/><polygon points="221.603 109.174 216.756 97.753 214.831 109.838 203.41 110.435 212.706 116.61 206.398 126.038 216.557 122.719 221.404 133.409 223.927 121.789 235.215 124.711 226.915 115.681 233.555 105.987 221.603 109.174" fill="#c4ced3"/><path d="M222.20087,115.81331a2.95487,2.95487,0,1,1-2.98789-2.92148,2.94743,2.94743,0,0,1,2.92148,2.92148Z" fill="#061922"/><polygon points="173.997 35.738 177.117 37.797 169.083 50.08 165.896 47.955 163.904 51.076 174.395 57.981 176.453 54.861 173.333 52.802 181.3 40.585 184.487 42.644 186.678 39.257 176.188 32.352 173.997 35.738" fill="#fff"/><polygon points="109.857 31.356 109.126 31.489 108.13 26.111 109.06 25.978 114.372 24.916 115.301 24.716 115.434 25.646 115.833 27.638 120.746 26.642 120.082 23.123 117.758 20.533 116.497 20.733 106.006 22.791 104.279 23.123 103.084 26.509 104.479 33.746 107.666 35.805 116.43 34.078 117.16 33.946 117.293 34.676 118.024 38.527 118.223 39.523 110.919 40.917 110.322 37.996 105.408 38.992 106.139 42.511 108.396 45.167 109.724 44.901 120.812 42.71 122.074 42.444 123.203 39.058 121.808 31.754 118.688 29.63 109.857 31.356" fill="#fff"/><path d="M58.53177,72.5223l-7.63568-8.10043,10.49076,3.58544Zm-11.8851-6.63972L62.05082,83.21226l2.65589-3.98383-3.519-3.78463,3.91742-6.17495,4.9134,1.65993L72.80717,66.613,50.6305,59.70766Z" fill="#fff"/><polygon points="198.696 74.514 206.199 59.442 203.145 55.193 184.952 68.273 187.542 71.858 199.759 63.094 192.123 78.232 195.244 82.548 213.37 69.468 210.781 65.816 198.696 74.514" fill="#fff"/><polygon points="140.134 24.849 146.043 26.177 141.927 44.104 146.774 45.233 150.957 27.306 156.866 28.7 157.796 24.783 141.063 20.865 140.134 24.849" fill="#fff"/><polygon points="88.411 48.022 89.141 49.084 88.012 49.815 84.028 52.404 82.966 53.134 72.874 37.597 68.691 40.253 79.048 56.321 82.435 58.048 84.028 56.985 92.66 51.408 93.855 50.678 93.656 46.827 83.298 30.825 79.048 33.547 88.411 48.022" fill="#fff"/><polygon points="131.768 208.836 131.768 210.164 124.398 210.164 124.398 191.572 119.352 191.572 119.352 210.695 121.277 214.015 123.203 214.015 134.889 214.015 136.814 210.695 136.814 191.572 131.768 191.572 131.768 208.836" fill="#fff"/><polygon points="59.661 163.221 59.262 162.69 63.512 159.303 64.109 160.034 67.495 164.283 68.093 165.014 67.296 165.611 65.769 166.806 68.823 170.79 71.678 168.533 73.006 165.279 72.143 164.217 65.503 155.851 64.441 154.456 60.856 154.988 55.146 159.569 54.681 163.287 60.258 170.392 60.723 170.923 56.274 174.442 51.626 168.533 53.95 166.674 50.83 162.756 48.041 165.014 46.713 168.267 47.51 169.329 54.548 178.16 55.411 179.223 58.93 178.691 64.839 174.044 65.238 170.259 59.661 163.221" fill="#fff"/><polygon points="204.207 160.366 200.423 160.764 194.779 167.802 194.314 168.333 193.783 167.935 190.795 165.545 190.065 164.947 190.662 164.15 194.048 159.967 194.646 159.237 196.97 161.096 200.091 157.179 197.302 154.921 193.849 154.39 192.986 155.452 186.28 163.752 185.218 165.146 186.479 168.533 192.189 173.048 195.974 172.649 201.618 165.678 202.083 165.08 206.465 168.599 201.817 174.442 199.427 172.583 196.306 176.5 199.161 178.758 202.614 179.289 203.41 178.293 210.515 169.462 211.378 168.4 210.05 165.08 204.207 160.366" fill="#fff"/><path d="M93.58949,194.826l-.53118,1.06234-.996-.53117-5.71017-3.05426,3.45266-6.50694,6.70612,3.58546-.53118.996Zm7.3701-7.23731-1.52715-.86316L87.08257,180.2186,76.59181,200.07136l4.38221,2.3239,3.65185-6.9053,7.90127,4.183,1.59353.79677,3.18707-1.99192,3.78463-7.1045Z" fill="#fff"/><path d="M168.35273,191.77168l-5.90934,2.85508-2.92148-5.90935,5.97574-2.92147.996-.46478.46478.99595,2.4567,4.9134Zm4.71422-.39839,1.12874-1.65993-.13279-.332-.13279-.332-3.12068-6.30773-4.31581-1.39435L153.347,187.78786l9.89318,20.18474,4.515-2.2575-3.851-7.90127,3.45266-1.72632,3.45265-1.65993,3.851,7.90126,4.515-2.25751-3.851-7.90127-.39838-.664Z" fill="#fff"/><path d="M185.616,155.78442a67.94592,67.94592,0,1,1,10.95554-51.325A68.49428,68.49428,0,0,1,185.616,155.78442Z" fill="#c4ced3"/><path d="M128.97921,180.88256A63.73754,63.73754,0,0,1,117.29328,54.46229a64.91924,64.91924,0,0,1,11.88511-1.12874,63.788,63.788,0,0,1,52.5202,99.795l-.1992.26558a63.41207,63.41207,0,0,1-40.6351,26.3597,64.85314,64.85314,0,0,1-11.88508,1.06234Z" fill="#fff"/><polygon points="156.401 66.281 148.832 79.76 147.703 88.657 137.876 106.186 131.104 106.186 139.603 91.246 139.603 66.281 122.738 66.281 115.434 79.693 114.438 88.657 98.038 117.872 98.37 118.735 97.308 117.54 98.768 137.26 77.521 138.189 94.718 150.273 83.431 167.072 84.227 167.67 102.553 161.627 110.654 181.015 116.696 160.366 139.072 166.142 124.464 149.344 141.86 134.936 127.319 135.865 134.025 128.296 151.953 128.296 172.735 91.512 172.735 66.281 156.401 66.281" fill="#c4ced3"/><polygon points="157.862 67.941 157.397 68.738 151.023 80.158 149.894 89.055 139.271 107.912 128.249 107.912 138.076 90.516 138.076 67.941 124.199 67.941 117.625 80.092 116.563 89.055 100.428 117.872 103.748 126.238 112.446 126.238 109.724 133.209 99.897 122.586 101.092 138.92 83.431 139.65 97.64 149.609 87.68 164.482 104.014 159.171 110.654 175.172 115.7 157.909 134.025 162.623 122.14 148.879 136.482 136.994 123.203 137.857 133.561 126.238 151.222 126.238 171.141 90.782 171.141 67.941 157.862 67.941" fill="#fff"/><polygon points="158.792 69.534 152.484 80.689 151.355 89.52 140.2 109.439 125.527 109.439 136.482 90.118 136.482 69.534 125.128 69.534 119.152 80.556 118.09 89.52 102.155 117.938 104.877 124.644 114.77 124.644 110.255 136.064 101.756 126.968 102.752 140.38 88.145 140.978 99.764 149.211 91.465 161.561 104.877 157.179 110.388 170.525 114.637 155.984 129.577 159.901 119.883 148.68 131.834 138.92 119.551 139.65 132.83 124.644 150.293 124.644 169.614 90.383 169.614 69.534 158.792 69.534" fill="#061922"/><polygon points="156.401 79.428 161.713 79.428 165.431 72.522 160.319 72.522 156.401 79.428" fill="#c4ced3" fill-rule="evenodd"/><polygon points="123.07 79.428 128.846 79.428 132.432 72.522 126.921 72.522 123.07 79.428" fill="#c4ced3" fill-rule="evenodd"/><polygon points="121.742 88.192 126.921 88.192 127.386 82.216 122.406 82.216 121.742 88.192" fill="#c4ced3" fill-rule="evenodd"/><polygon points="154.941 88.192 160.119 88.192 160.584 82.216 155.604 82.216 154.941 88.192" fill="#c4ced3" fill-rule="evenodd"/><path d="M108.32967,150.20705a2.32351,2.32351,0,0,1-2.3239-2.39031,2.35253,2.35253,0,0,1,2.3239-2.32389,2.30943,2.30943,0,0,1,2.32389,2.32389,2.65462,2.65462,0,0,1-.664,1.72634A2.6198,2.6198,0,0,1,108.32967,150.20705ZM153.87816,91.7775l-11.61951,20.25115H114.4382l11.55312-20.38394h-5.44457l-14.00981,24.69977h15.537l-11.7523,26.35968-4.9134-5.44457.332,6.37413-7.90126.4648,6.30773,4.4486-4.515,6.70613,7.30369-2.3903,2.98788,7.17089,2.25749-7.90127,8.10047,2.12471-5.24538-6.04215,6.44052-5.24537-9.95958.39838,18.45843-27.02366H145.4457l13.74422-24.69977Z" fill="#c4ced3" fill-rule="evenodd"/></svg>