<?xml version="1.0" encoding="UTF-8" standalone="no"?>
<svg xmlns:rdf="http://www.w3.org/1999/02/22-rdf-syntax-ns#" xmlns="http://www.w3.org/2000/svg" height="116.68097" width="116.68" version="1.1" xmlns:cc="http://creativecommons.org/ns#" xmlns:dc="http://purl.org/dc/elements/1.1/" viewBox="0 0 116.68 116.68097"><path d="M116.68,58.34A58.34,58.34,0,1,1,58.338,0,58.33974,58.33974,0,0,1,116.68,58.34" fill="#cd1141"/><path d="M58.3297,112.56476a54.22256,54.22256,0,0,1-38.752-92.14,53.88038,53.88038,0,0,1,38.162-16.303c.205-.001.408-.005.612-.005a54.22544,54.22544,0,0,1,38.752,92.142,53.85719,53.85719,0,0,1-38.166,16.302c-.201.004-.406.004-.608.004" fill="#061922"/><path d="M19.73181,52.52457l-.001.129c.006-.043.012-.086.02-.129Z" fill="#fff"/><path d="M58.34021,6.59143a51.749,51.749,0,1,0,51.749,51.749,51.80821,51.80821,0,0,0-51.749-51.749m29.027,89.53995a21.39968,21.39968,0,0,1-2.338-3.024q-1.62,1.269-3.34,2.374a25.93188,25.93188,0,0,0,2.316,3.02,47.3619,47.3619,0,0,1-23.131,7.445V83.8194h-4.136v22.165a47.37309,47.37309,0,0,1-24.706-7.907,26.73985,26.73985,0,0,0,2.066-2.779q-1.7115-1.11749-3.325-2.401a22.86079,22.86079,0,0,1-2.054,2.77,47.60993,47.60993,0,0,1-18.053-37.327c0-.355.006-.71.013-1.064h4.005v-4.136h-3.733a47.65315,47.65315,0,0,1,17.822-32.157l1.826.572,1.772,2.173v1.63l2.055,1.086.969,1.903,1.676,1.901.911,1.901,1.276.544v-1.358l.625-2.717-1.82-2.717.272-2.988-1.901-2.444-.544-3.261-.468-.655a47.30491,47.30491,0,0,1,16.427-5.441l.884,2.022-.543,2.988,1.358,2.173,1.902,2.174.271,2.444-.3,1.086,1.057,2.718v2.987l1.659,3.533.573-2.717.543-2.717,1.358-1.086-.815-2.989,1.087-3.531-.272-1.902.816-2.717,1.086-1.902-.543-1.629.542-1.192a47.30673,47.30673,0,0,1,19.275,5.992l-.258.361-.543,3.261-1.902,2.444.272,2.988-1.9,2.717.546,2.717v1.358l1.356-.544.951-1.901,1.697-1.901.898-1.903,1.986-1.086v-1.63l1.851-2.173,1.357-.421a47.65339,47.65339,0,0,1,17.631,32.006h-4.179v4.136h4.451c.007.354.013.709.013,1.064a47.621,47.621,0,0,1-18.647,37.791" fill="#a0a0a3"/><path d="M23.66591,36.36737h5.929l1.482,1.5v3.89l-1.263,1.264,1.448,4.968h-2.391l-1.28-4.665h-1.583v4.665h-2.342Zm4.548,5.222.539-.539v-2.426l-.522-.522h-2.223v3.487Z" fill="#fff"/><path d="M35.9446,36.36749h3.436l2.341,11.622h-2.307l-.472-2.662h-2.695l-.471,2.662h-2.173Zm.623,7.108h2.055l-1.028-5.811Z" fill="#fff"/><path d="M44.5351,36.36768h5.776l1.516,1.533v4.396l-1.516,1.532h-3.435v4.16h-2.341Zm4.446,5.71.505-.522v-2.914l-.505-.522h-2.105v3.958Z" fill="#fff"/><polygon points="56.948 38.389 54.489 38.389 54.489 36.368 61.731 36.368 61.731 38.389 59.289 38.389 59.289 47.989 56.948 47.989 56.948 38.389" fill="#fff"/><path d="M64.44311,46.45618v-8.555l1.533-1.533h4.328l1.532,1.533v8.555l-1.532,1.533h-4.328Zm4.497-.32.556-.556v-6.804l-.556-.556h-1.618l-.556.556v6.804l.556.556Z" fill="#fff"/><path d="M75.2733,36.36737h5.928l1.482,1.5v3.89l-1.264,1.264,1.449,4.968h-2.391l-1.28-4.665h-1.584v4.665h-2.34Zm4.547,5.222.539-.539v-2.426l-.522-.522h-2.224v3.487Z" fill="#fff"/><polygon points="85.665 46.506 85.665 44.519 88.006 44.519 88.006 45.664 88.494 46.153 90.112 46.153 90.6 45.664 90.6 43.509 90.229 43.121 86.996 43.121 85.716 41.858 85.716 37.867 87.215 36.367 91.425 36.367 92.907 37.85 92.907 39.837 90.566 39.837 90.566 38.692 90.078 38.203 88.546 38.203 88.057 38.692 88.057 40.764 88.427 41.134 91.661 41.134 92.924 42.414 92.924 46.49 91.425 47.989 87.147 47.989 85.665 46.506" fill="#fff"/><path d="M64.2056,79.28928H51.7876a2.37968,2.37968,0,0,1-2.001-1.995l-.212-3.024c-.024-.127.301-.427.301-.556v-15.485c0-.154-.319-.308-.285-.458l.49-2.839a1.84588,1.84588,0,0,1,1.817-1.567h12.308a2.02615,2.02615,0,0,1,1.945,1.418l1.075,2.846c.061.197.278.394.278.6v15.485c0,.205-.217.409-.278.606l-.983,3.195a2.50218,2.50218,0,0,1-2.037,1.774m-10.735-4.148h9.235l-.387-1.737v-14.865l.387-1.026h-9.188l.506.948v15.059Z" fill="#fff"/><path d="M36.3658,90.22479l-3.724-1.654c.459-1.033,1.382-3.375,1.841-4.626l.09-.245c.419-1.144.852-2.325,1.205-3.501.358-1.19.768-2.597,1.108-4.007.38-1.573.682-2.693.925-3.984a4.78346,4.78346,0,0,1,.268-1.214h-15.399l-.45-1.693c-3.215-10.182-3.184-13.409-3.145-13.928l.141-2.007h24.428v2.011a12.78147,12.78147,0,0,1-.078,1.74c-.017.173-.051.386-.08,1.016-.075,1.659-.196,3.352-.349,5.029-.143,1.575-.335,3.21-.562,4.86-.206,1.49-.466,3.06-.767,4.669-.256,1.36-.574,2.817-.969,4.456-.363,1.507-.795,2.98-1.167,4.223-.389,1.294-.843,2.534-1.283,3.733l-.09.244c-.432,1.178-1.403,3.664-1.943,4.878m-10.693-24.416h13.016a18.44344,18.44344,0,0,0,.393-3.301c.147-1.617.258-3.054.33-4.653a1.89764,1.89764,0,0,1,.028-.342h-16.06c.281,2.074.905,3.111,2.293,8.296" fill="#fff"/><path d="M97.7582,53.18945H72.5942v1.916a9.12822,9.12822,0,0,0,.157,1.633,7.35284,7.35284,0,0,1,.178,1.124c.075,1.68.19,3.373.341,5.031.147,1.622.334,3.258.555,4.861l.244,1.76,15.833-.007.133.008c-.872,6.968-5.814,12.48-8.643,15.118-.135-.338-.257-.654-.368-.956-.247-.677-.462-1.282-.656-1.851-.126-.369-.242-.72-.35-1.061h-4.263c.033.112.066.223.1.338.194.644.409,1.31.656,2.037.204.599.429,1.233.688,1.938.215.589.464,1.219.761,1.927.273.648.548,1.273.781,1.797l1.023,2.306,2.038-1.484c.502-.365,12.294-9.098,12.44-21.992l.022-1.937-4.239-.252-12.39.017c-.116-.968-.219-1.921-.308-2.89-.144-1.597-.255-3.181-.328-4.8-.01-.21-.018-.445-.027-.445h20.786Z" fill="#fff"/></svg>