<svg height="332.882578" viewBox="0 0 37.15457 40.9233" width="300.406229" xmlns="http://www.w3.org/2000/svg"><path d="m32.40635 11.18935.6808-.64736-.93173-.1245-7.76463-1.0349a8.32419 8.32419 0 0 0 -2.03414-1.49185l-3.37346-7.04339-.40568-.84735-.40632.84735-3.35019 6.99565a8.32586 8.32586 0 0 0 -2.13763 1.55045l-7.68437 1.02404-.93141.1245.68049.64736 5.61681 5.34743a8.21827 8.21827 0 0 0 .81932 2.49363l-1.40464 7.64459-.16972.92377.82665-.44708 6.88576-3.7247a8.30549 8.30549 0 0 0 2.49491-.00828l6.901 3.733.82665.44708-.17-.92377-1.42275-7.74616a8.21159 8.21159 0 0 0 .75437-2.3131z" fill="#ffa400"/><path d="m18.57738 3.125 1.95167 4.075a8.25152 8.25152 0 0 1 1.18456.39l-3.13623-6.54822-3.119 6.51257a8.19827 8.19827 0 0 1 1.1766-.3732z" fill="#0d2240"/><path d="m24.87914 20.55968.82856 4.51059-4.0202-2.17456a8.18311 8.18311 0 0 1 -1.17947.38465l6.424 3.47536-1.32372-7.20737a8.31811 8.31811 0 0 1 -.72921 1.01133" fill="#0d2240"/><path d="m30.11479 11.50765-3.313 3.15376q.02006.28515.02038.576c0 .22673-.00987.45121-.0277.67381l5.30188-5.04746-7.23-.96357a8.35331 8.35331 0 0 1 .72857 1.005z" fill="#0d2240"/><path d="m11.447 25.07031.81614-4.44306a8.39856 8.39856 0 0 1 -.733-.99224l-1.3078 7.12076 6.40238-3.46358a8.207 8.207 0 0 1 -1.18775-.3802z" fill="#0d2240"/><path d="m10.26276 15.23764q0-.32241.02484-.63877l-3.24736-3.091 4.44307-.59261a8.36147 8.36147 0 0 1 .726-1.00433l-7.1507.95275 5.22609 4.97516q-.02149-.29757-.022-.6012" fill="#0d2240"/><path d="m12.803 11.96339a12.20355 12.20355 0 0 1 5.73939-1.30139 12.20314 12.20314 0 0 1 5.73909 1.30142 5.408 5.408 0 0 1 1.91281 1.62658 7.82762 7.82762 0 0 0 -15.30381-.00031 5.40933 5.40933 0 0 1 1.9125-1.62625" fill="#0d2240"/><path d="m18.5422 11.115c-4.266 0-7.736 1.84946-7.736 4.12243 0 2.27361 3.46995 4.123 7.736 4.123s7.73629-1.84944 7.73629-4.123c0-2.273-3.47027-4.12243-7.73629-4.12243" fill="#0d2240"/><path d="m24.28151 18.51207a12.20242 12.20242 0 0 1 -5.73941 1.30144 12.20292 12.20292 0 0 1 -5.7391-1.30144 5.406 5.406 0 0 1 -1.9125-1.62623 7.82767 7.82767 0 0 0 15.30381-.00062 5.40859 5.40859 0 0 1 -1.91282 1.62685" fill="#0d2240"/><path d="m12.119 15.416-.457-.435.625-.084.273-.569.272.569.626.084-.457.435.114.62-.555-.3-.555.3z" fill="#ffa400"/><path d="m24.153 15.416-.456-.435.625-.084.272-.569.273.569.626.084-.457.435.114.62-.556-.3-.554.3z" fill="#ffa400"/><path d="m15.94806 14.86259c-.34422-.0936-.68749-.17863-1.02885-.2506-.12132-.02356-.15412-.05222-.15444-.15061v-.40027c0-.09234.0277-.12069.10508-.13088.264-.03631.52923-.06719.7948-.09584.0777-.00766.106.01656.10572.11718v.42478q.4552-.02912.91294-.04744v-.59611c-.00032-.6687-.25124-.95879-.76806-.87473q-.65581.10414-1.304.26081a.8986.8986 0 0 0 -.75436.95592v.63115c.00064.51648.27672.65914.78716.81678.3404.10221.683.21334 1.0263.32926.11718.03852.15539.07547.15539.18277v.49324c0 .09457-.028.12515-.1054.11782q-.438-.04539-.87314-.10414c-.07674-.0105-.10381-.04521-.10413-.13086q-.00048-.21783 0-.43627-.45138-.0363-.897-.08023v.50344a.90228.90228 0 0 0 .754.95561q.6859.16574 1.381.27354c.51681.08184.76933-.21812.76869-.88047v-.876c.00064-.67667-.285-.8636-.80181-1.00785" fill="#fff"/><path d="m23.35331 14.74458v-.66742a.89252.89252 0 0 0 -.74863-.95467q-.68638-.1662-1.38135-.27416-.77522-.12373-.77411.87983v3.01808c-.00032.66234.25188.96231.76869.88047q.695-.10746 1.38135-.27354a.90213.90213 0 0 0 .754-.95561v-.67316q-.45186.033-.90785.06019v.60279c0 .08565-.0277.12036-.10476.13055q-.42941.05732-.862.10062c-.07738.00766-.10508-.02229-.10508-.11718v-2.528c0-.10062.0277-.12577.10508-.11718q.43227.04347.862.10031c.07706.00987.10476.03885.10476.13057v.59673q.45615.0277.90785.06081" fill="#fff"/><path d="m19.00223 16.74494c-.23341.00319-.46746.00352-.70055.00159v-4.09916q-.46571.0086-.93014.042v5.09563a17.01237 17.01237 0 0 0 2.56051-.008v-1.825q-.46427.01-.92982.01306z" fill="#fff"/><path d="m.681 37.497-.681-.648.932-.123.406-.848.406.848.931.123-.68.648.169.925-.826-.447-.827.447z" fill="#ffa400"/><path d="m35.16 37.497-.681-.648.932-.123.406-.848.406.848.932.123-.681.648.169.925-.826-.447-.827.447z" fill="#ffa400"/><g fill="#0d2240"><path d="m7.7653 35.18663c0-.14806-.04777-.20124-.19106-.21206q-.82155-.06306-1.64183-.13533c-.143-.01275-.19074.036-.19074.19583v.80881c0 .234.07611.30218.32416.37415q.887.24171 1.77589.45345c.841.20316 1.37722.534 1.37722 1.37881v1.09348a1.32359 1.32359 0 0 1 -1.339 1.468q-1.09907.12991-2.19558.28691c-.90562.13723-1.33359-.29806-1.33359-1.37277v-.98968q.66632-.03679 1.33359-.07007v.83238c0 .16017.04776.2092.19074.19616q.887-.07883 1.77557-.14617c.14329-.01114.19106-.06464.19106-.21144v-.82856c0-.21748-.07642-.27354-.3248-.32607q-.88842-.17434-1.77526-.371a1.47011 1.47011 0 0 1 -1.3718-1.59311v-1.21351c0-1.07406.428-1.50841 1.33391-1.37213q1.02933.14714 2.06153.27068a1.32743 1.32743 0 0 1 1.33869 1.47434v.75659q-.67014-.02627-1.33869-.05572z"/><path d="m13.25528 35.29641v4.83985q-.69068.04061-1.38136.09139v-4.98887q-.91087-.042-1.82047-.09617v-1.19476q2.50908.23643 5.02548.33309v1.07121q-.91183-.02245-1.82366-.05574"/><path d="m16.80206 38.76728q-.20682.61761-.413 1.23934-.73033.01767-1.46.0468c.68208-1.95325 1.36384-3.84442 2.0456-5.719q1.00879.01767 2.01758.013c.6824 1.87492 1.36416 3.74826 2.04624 5.6665q-.75851-.021-1.518-.02867-.20635-.61473-.413-1.22724-1.15256-.00335-2.30544.00923m1.15272-3.43874q-.39884 1.18219-.79735 2.36913.79719-.00286 1.59471-.00222-.39836-1.18266-.79735-2.36691"/><path d="m25.60383 40.252q-.55646-1.13252-1.11228-2.20195-.55646-.01149-1.11323-.01975v2.0768q-.69116-.0363-1.38231-.06241v-5.76039q1.77159-.06685 3.54064-.20283c.91071-.07356 1.34123.29423 1.34123 1.16578v1.54275c0 .72349-.29646 1.12883-.92886 1.21991q.56983 1.14733 1.13967 2.36946-.74179-.06976-1.48485-.12738m-.29741-3.3066c.14393-.00062.192-.0449.19169-.177v-1.36385c.00032-.13214-.04777-.17418-.19169-.16685q-.96389.0449-1.9281.07706v1.63925q.96485-.00335 1.9281-.00861"/><path d="m31.35585 35.03964c0-.15953-.04777-.20825-.19074-.1955q-.82012.07213-1.64183.13469c-.14361.01083-.19106.06338-.19106.21177v.7499c0 .21653.07643.27354.3248.32576q.88842.17148 1.77525.36523a1.46537 1.46537 0 0 1 1.37149 1.58961v1.30461c0 1.075-.428 1.50936-1.33359 1.37339q-1.09668-.1576-2.19558-.28753a1.32311 1.32311 0 0 1 -1.33869-1.46765v-.82951q.66966.02388 1.33869.05189v.76805c0 .14713.04808.20061.19106.21113q.8889.06734 1.77589.14584c.143.01273.19042-.036.19074-.19616v-.8951c0-.23437-.07642-.30156-.32448-.37256q-.88651-.23979-1.77557-.44867c-.84129-.20159-1.37721-.53084-1.37721-1.3766v-1.01865a1.324 1.324 0 0 1 1.339-1.46892q1.03219-.1223 2.06185-.26844c.90593-.13566 1.33391.29709 1.33391 1.36735v.89543q-.66632.03915-1.33391.07419z"/><path d="m7.93455 30.51492c0-.04775-.01592-.06336-.06337-.06336h-.54611c-.04777 0-.06369.01561-.06369.06336v.24108c0 .07007.02548.08917.10795.10828l.59069.127c.27958.06019.45727.17132.45727.45726v.36811a.38887.38887 0 0 1 -.44453.44453h-.73048a.38875.38875 0 0 1 -.44453-.44453v-.27925h.44453v.24773c0 .04744.01592.06338.06337.06338h.59069c.04777 0 .06369-.01594.06369-.06338v-.26683c0-.06973-.02547-.08884-.10795-.10794l-.59069-.127c-.27926-.0605-.45695-.17164-.45695-.45726v-.343a.38865.38865 0 0 1 .44421-.44453h.6859a.38875.38875 0 0 1 .44453.44453v.25412h-.44453z"/><path d="m9.27342 31.77868-.13629.48274h-.48274l.67635-2.22265h.6668l.67635 2.22265h-.50153l-.13661-.48274zm.38117-1.35268-.26334.93364h.52669z"/><path d="m11.445 30.039v1.803h.959v.419h-1.416v-2.222z"/><path d="m13.398 30.451v1.81h-.458v-1.81h-.603v-.412h1.664v.412z"/><path d="m15.55 30.039v1.803h.959v.419h-1.416v-2.222z"/><path d="m17.36629 31.77868-.13629.48274h-.48274l.67635-2.22265h.6668l.676 2.22265h-.50121l-.13661-.48274zm.38116-1.35271-.26334.93364h.52669z"/><path d="m19.855 31.299-.324.41v.552h-.45v-2.223h.45v1.042l.791-1.042h.537l-.696.877.731 1.346h-.515z"/><path d="m22.692 30.039v.419h-1.038v.46h.842v.413h-.842v.511h1.038v.419h-1.495v-2.222z"/><path d="m24.24775 32.26134a.38887.38887 0 0 1 -.44453-.44453v-1.33359a.38887.38887 0 0 1 .44453-.44453h.73685a.38888.38888 0 0 1 .44453.44453v.36178h-.45727v-.32383c0-.04744-.01592-.06336-.06369-.06336h-.58432c-.04777 0-.06337.01592-.06337.06336v1.25743c0 .04777.0156.06369.06337.06369h.58432c.04777 0 .06369-.01592.06369-.06369v-.32383h.45727v.362a.38887.38887 0 0 1 -.44453.44453z"/><path d="m25.7924 30.03846h.45727v2.22265h-.45727z"/><path d="m27.633 30.451v1.81h-.458v-1.81h-.603v-.412h1.664v.412z"/><path d="m29.176 32.261v-.758l-.725-1.464h.496l.46.99.461-.99h.489l-.724 1.464v.758z"/></g></svg>