<?xml version="1.0" encoding="UTF-8" standalone="no"?>
<svg xmlns:rdf="http://www.w3.org/1999/02/22-rdf-syntax-ns#" xmlns="http://www.w3.org/2000/svg" height="53.86916" width="113.58007" version="1.1" xmlns:cc="http://creativecommons.org/ns#" xmlns:dc="http://purl.org/dc/elements/1.1/" viewBox="0 0 113.58007 53.86916"><path d="M101.99578.57725a2.07607,2.07607,0,0,0-1.59855-.57091H30.26865a2.2525,2.2525,0,0,0-2.2006,1.8892l-3.01026,19.3383H20.73963a2.076,2.076,0,0,0-2.076,2.076V39.285a2.076,2.076,0,0,0,2.076,2.076h0l73.84469-.11418a2.24211,2.24211,0,0,0,2.23174-1.8373l5.5534-37.23375a2.00332,2.00332,0,0,0-.38407-1.62969" fill="#0d2240"/><path d="M52.92861,53.86916c-.48787,0-1.51551-.06228-1.80616-.09342h-.19722L48.652,53.4851h-.82c-1.775-.2595-2.26288-.33217-2.53276-.39444s-1.27677-.28027-1.72312-.40483a3.82845,3.82845,0,0,1-.44634-.15571,4.49463,4.49463,0,0,1-2.86494-2.78189l-.07266-.32178c-.2076-.9446-.32178-1.40133-.37368-1.61931l-.59168-1.038-.62281-1.13144c-.44634-.62281-.49824-1.038-2.32516-13.733h0a23.678,23.678,0,0,1-.31141-4.46349,2.96872,2.96872,0,0,1-1.52588-2.99987L35.68711,15.203A3.0414,3.0414,0,0,1,38.5728,12.421h2.74037l25.037,3.44622.24912.09343,2.19022.69547a3.04139,3.04139,0,0,1,2.076,3.31128l-1.34943,9.21761a2.97914,2.97914,0,0,1-1.23524,2.00338,2.93769,2.93769,0,0,1-1.038.46711A23.78107,23.78107,0,0,1,65.717,35.80762v.06229c-5.1901,11.67771-5.41847,12.06178-6.02052,12.53927l-.85117.86156h0l-.86156.87193c-.11418.19723-.35293.61243-.80966,1.46361l-.1557.28026A4.48425,4.48425,0,0,1,53.375,53.84841h-.436Z" fill="#0d2240"/><path d="M52.92861,52.75848c-.42559,0-1.42209-.06228-1.68159-.083l-1.58817-.19723h0l-.8408-.1038h-.77851c-1.72312-.2595-2.23175-.33216-2.47049-.38407s-1.22486-.26989-1.64007-.38407l-.34255-.12456a3.17637,3.17637,0,0,1-2.00338-1.80615l-.06228-.301c-.28027-1.256-.39445-1.692-.436-1.84767l-.66433-1.21448c-.2076-.38407-.58129-1.038-.67471-1.22487-.24913-.34255-.34255-.76813-2.076-13.19322h0a18.68416,18.68416,0,0,1-.26988-4.941,3.33029,3.33029,0,0,1,.083-.39445H37.213a1.57779,1.57779,0,0,1-1.45257-1.69378q.00352-.04593.00972-.09161l1.24563-9.23837a1.64007,1.64007,0,0,1,1.5674-1.41171h.29065l2.076-.0519h.218l24.82942,3.48775h.13494l2.22136.69547a1.64007,1.64007,0,0,1,1.12107,1.78539l-1.34943,9.21762a1.58812,1.58812,0,0,1-.65395,1.038,2.05452,2.05452,0,0,1-1.22486.29065h-.24913a3.29007,3.29007,0,0,1,0,.40483A18.83986,18.83986,0,0,1,64.461,35.56888v.06228c-5.12781,11.41822-5.33542,11.81266-5.678,12.08255l-.92384.93422h0l-.97574.97574c-.083.13494-.32179.52939-.93422,1.66083l-.14532.2595a3.18669,3.18669,0,0,1-2.429,1.18334h-.34255Z" fill="#0d2240"/><path d="M41.282,51.39868a12.67426,12.67426,0,0,1-7.837-2.34593l-.63319.25951c-4.47386,1.80615-11.87494,1.96185-14.034,1.96185h-.09342C6.83017,51.27411,0,45.046,0,34.24022,0,27.51385,1.91,21.784,5.58454,17.76685,9.84042,13.075,16.162,10.67718,24.37269,10.65642h.09343A51.90052,51.90052,0,0,1,36.694,11.902c.34255.09342.65395.19723.9446.301l.61243.218L39.8807,14.03,38.75964,21.6698c-.13494,1.038-.2595,1.91-.41521,2.82342a17.02326,17.02326,0,0,1,6.3423-1.16258H44.749c10.46324,0,12.041,7.12081,12.05141,11.41821,0,4.97211-1.41171,9.16571-4.15208,12.11368a14.9579,14.9579,0,0,1-11.31441,4.53615H41.282Zm-8.81278-7.26614,1.775,1.9411c1.557,1.692,3.986,2.58467,7.03777,2.58467h0c7.99275,0,12.74687-5.1901,12.72612-13.90946,0-5.79215-3.05178-8.60518-9.27989-8.60518h-.0519A11.92685,11.92685,0,0,0,35.81167,29.455l-.41521.42559H28.70124c-3.11406,0-7.16234,0-8.66747.06228h-.13494v.12456a21.67374,21.67374,0,0,0-.85117,5.79215v.18684h4.82679L23.07517,40.842l-1.1003.07266H20.84343c-4.97211,0-7.19347-2.4082-7.21424-7.8059a15.46648,15.46648,0,0,1,1.692-7.34918,8.36641,8.36641,0,0,1,7.81628-4.30778h1.35981l1.48436.07266-.34254,2.813h.18684c1.62969.16608,3.41509.2076,4.63995.2076h.07266a47.09038,47.09038,0,0,0,4.89945-.23874h.13495v-.13494c.14532-.92384.28026-1.81654.41521-2.87532l.91345-6.22811-.13494-.24912h0l-.74738-.23875a50.00167,50.00167,0,0,0-11.41821-1.14182h-.1557c-7.40108,0-13.02715,2.076-16.74325,6.22812-3.25939,3.49812-4.95136,8.54289-4.9306,14.553,0,9.34217,5.53265,14.26238,15.92322,14.26238h.083c2.076,0,8.98925-.14532,12.996-1.76463h.083ZM22.83643,24.19219a5.543,5.543,0,0,0-5.12782,2.89607,12.6845,12.6845,0,0,0-1.339,5.979v.60206a21.37258,21.37258,0,0,1,.84079-4.46348l.61243-2.076,2.1487-.0519h4.93059l-2.38744-.24913Zm22.49388,8.30415h0Z" fill="#0d2240"/><path d="M98.06169,51.39868a12.67424,12.67424,0,0,1-7.83705-2.34593l-.63319.25951c-4.47386,1.80615-11.87494,1.96185-14.034,1.96185H75.464c-11.85418,0-18.68435-6.22811-18.68435-17.03389,0-6.72637,1.91-12.45623,5.58454-16.47337,4.25588-4.69185,10.57742-7.08967,18.78815-7.11043h.16608A51.90118,51.90118,0,0,1,93.47364,11.902c.34255.09342.65395.19723.9446.301l.61243.218,1.62969,1.61931L95.5393,21.68019c-.13494,1.038-.25951,1.89957-.41521,2.82341a17.02341,17.02341,0,0,1,6.34229-1.16258h.06228c10.46324,0,12.041,7.12081,12.05141,11.41821,0,4.97211-1.41171,9.16571-4.15208,12.11368a14.95783,14.95783,0,0,1-11.33517,4.57767h0Zm-8.81278-7.26614,1.775,1.9411c1.557,1.692,3.986,2.58467,7.03777,2.58467h0a12.27975,12.27975,0,0,0,9.34217-3.67459c2.23175-2.429,3.41509-5.96861,3.39432-10.22449,0-5.79215-3.05178-8.60518-9.27989-8.60518h-.05191a11.92685,11.92685,0,0,0-8.86468,3.31128l-.41521.42559H85.49126c-3.11406,0-7.16234,0-8.66746.06228h-.13494v.12456a21.69471,21.69471,0,0,0-.85118,5.79215v.18685h4.8268L79.8652,40.8524l-1.10029.07266H77.63347c-4.97211,0-7.19347-2.4082-7.21423-7.8059a15.46655,15.46655,0,0,1,1.64006-7.3907,8.36643,8.36643,0,0,1,7.81629-4.30778h1.3598l1.48437.07266-.28026,2.83379h.18684a46.26436,46.26436,0,0,0,4.63995.20761h.083a46.95634,46.95634,0,0,0,4.89945-.23875h.13494v-.13494c.15571-.93422.28027-1.82691.41521-2.87531l.91346-6.22812-.19723-.19722h0l-.74737-.23875a50.63468,50.63468,0,0,0-11.522-1.16258h-.09342c-7.40107,0-13.02714,2.076-16.74324,6.22812C61.212,23.22683,59.52,28.27161,59.5408,34.29212c0,9.34217,5.53264,14.26238,15.92321,14.26238h.09342c2.076,0,8.98924-.14532,12.996-1.76463l.11418-.11418ZM79.61608,24.19219a5.543,5.543,0,0,0-5.12782,2.89607,12.67417,12.67417,0,0,0-1.339,5.979v.60206A21.36186,21.36186,0,0,1,73.99,29.20583l.61243-2.076,2.1487-.0519h4.93059l-2.35629-.28027ZM102.11,32.49634h0Z" fill="#0d2240"/><path d="M100.95776,2.04086a.5813.5813,0,0,0-.59167-.69548l-70.10783.10381a.84079.84079,0,0,0-.80965.69547L26.38645,21.99159a.84079.84079,0,0,1-.80965.69547H12.41471a.69547.69547,0,0,0-.69547.69547V39.35765a.70585.70585,0,0,0,.70585.69547l82.16962-.19722a.8408.8408,0,0,0,.79927-.69547Z" fill="#fff"/><path d="M37.24413,5.98533c0-.65395-.46711-1.038-1.28714-1.038-1.038,0-1.75425.70585-1.95148,1.98262s.24913,1.98261,1.32866,1.98261a1.66082,1.66082,0,0,0,1.64008-1.05877h1.32866a2.95834,2.95834,0,0,1-3.114,2.12793c-1.92034,0-2.87532-1.08991-2.57429-3.01025a3.332,3.332,0,0,1,3.51888-3.02064c1.72312,0,2.57429.72662,2.46011,2.076Z" fill="#cf0a2c"/><path d="M43.29579,4.1169l1.62969,5.71948H43.493L43.20237,8.653H40.39971l-.654,1.18334H38.29254L41.70762,4.1169ZM40.91872,7.6773h2.076l-.66433-2.52238Z" fill="#cf0a2c"/><path d="M49.472,4.1169c1.39095,0,2.01376.654,1.82692,1.84767a2.076,2.076,0,0,1-2.28964,1.83778l-.00438-.00048H47.3233l-.32179,2.076h-1.3598l.8927-5.761ZM47.479,6.81575h1.31828c.69548,0,1.038-.25951,1.13145-.86156s-.16609-.84079-.79928-.84079H47.74889Z" fill="#cf0a2c"/><polygon points="53.884 4.065 52.991 9.795 51.621 9.795 52.524 4.075 53.884 4.065" fill="#cf0a2c"/><polygon points="60.008 4.065 59.863 5.051 57.838 5.051 57.091 9.784 55.731 9.795 56.468 5.051 54.444 5.061 54.6 4.065 60.008 4.065" fill="#cf0a2c"/><path d="M63.57869,4.05462,65.20838,9.7741H63.75515L63.4645,8.59076H60.64109l-.654,1.18334H58.56505l3.4047-5.72986ZM61.212,7.64616h2.076L62.66523,5.103Z" fill="#cf0a2c"/><polygon points="68.229 4.044 67.492 8.788 70.938 8.778 70.783 9.774 65.966 9.774 66.869 4.055 68.229 4.044" fill="#cf0a2c"/><path d="M78.931,5.92305c0-.65395-.4671-1.038-1.28714-1.038-1.038,0-1.75425.70585-1.95147,1.98262S75.9415,8.85026,77.021,8.85026a1.66082,1.66082,0,0,0,1.64007-1.08992h1.32867a2.95835,2.95835,0,0,1-3.11406,2.12794c-1.92033,0-2.87531-1.08992-2.57429-3.01025a3.332,3.332,0,0,1,3.51888-3.02064c1.72312,0,2.57429.72662,2.46011,2.076Z" fill="#cf0a2c"/><polygon points="82.938 4.023 82.045 9.753 80.675 9.753 81.578 4.023 82.938 4.023" fill="#cf0a2c"/><polygon points="89.062 4.013 88.906 5.01 86.893 5.01 86.145 9.743 84.785 9.753 85.522 5.01 83.498 5.01 83.654 4.023 89.062 4.013" fill="#cf0a2c"/><polygon points="91.148 4.013 92.363 6.577 94.231 4.013 95.82 4.003 92.882 7.615 92.55 9.733 91.18 9.743 91.512 7.625 89.446 4.013 91.148 4.013" fill="#cf0a2c"/><path d="M101.32107,24.7112h0a13.33854,13.33854,0,0,0-9.86118,3.71611H85.33557c-3.11406,0-7.17271,0-8.6986.0519H75.49515l-.32179,1.08992a23.11657,23.11657,0,0,0-.91345,6.11393l-.12457,1.65045h4.63995l-.35292,2.076h-1.038c-3.49813,0-5.82329-1.08992-5.83367-6.42534a14.07547,14.07547,0,0,1,1.54664-6.62256,6.97552,6.97552,0,0,1,6.62256-3.56041H81.007l-.33216,2.73,1.58817.16608c1.692.17646,3.53965.218,4.78527.218h.09341a50.581,50.581,0,0,0,5.06554-.23874l1.173-.14532.18684-1.16258c.1557-.9446.29064-1.84768.42559-2.91684l1.038-6.94435-.91345-.90308-.34254-.14532c-.25951-.09342-.53977-.18684-.8408-.26989a50.967,50.967,0,0,0-11.8438-1.18334h-.1038c-7.8059,0-13.7849,2.24212-17.7709,6.633-3.44622,3.78877-5.25238,9.16571-5.242,15.57029,0,10.09993,6.16583,15.66371,17.32454,15.66371h0c2.076,0,9.27989-.14532,13.49425-1.84767l.75776-.301.17646-.737c1.80615,1.97224,4.57766,3.04139,8.07579,3.04139h0c8.709,0,14.11706-5.86481,14.0963-15.27964,0-4.55691-1.86844-9.99613-10.68122-9.99613m-.78889,7.81629Z" fill="#fff"/><path d="M101.28993,26.27861c-4.99287,0-8.491,2.076-10.45285,5.543.083-.66433.1557-1.28715.218-1.83729H76.64735a21.60082,21.60082,0,0,0-.85117,5.75062h4.84755L79.79255,40.842a17.4811,17.4811,0,0,1-2.36668.16608c-4.51538,0-7.41146-1.86843-7.42184-7.99275,0-4.07942,1.38057-11.81266,9.70548-11.83342a16.79577,16.79577,0,0,1,3.031.2076l-.301,3.031a46.85485,46.85485,0,0,0,4.71261.2076,47.95644,47.95644,0,0,0,4.87868-.22837c.17646-1.038.31141-2.294.42559-3.16595l.90308-6.16584-.1038-.1038c-2.63657-.96536-8.00312-1.38056-12.24863-1.38056C65.31218,13.594,59.52,23.00885,59.54079,34.21946c0,10.52551,6.94435,14.11706,15.809,14.0963,4.15208,0,9.71586-.44635,12.9441-1.73349.19723-.85118.519-2.47049.88232-4.41158.7889,4.27664,4.0898,6.31116,8.72974,6.30078,8.76088,0,12.53927-6.22812,12.52889-13.71224,0-5.75063-3.11406-8.4391-9.145-8.42871M98.80906,42.52361c-1.37019,0-1.92034-.86156-1.92034-3.11406,0-3.69535,1.038-6.94434,3.64345-6.94434,1.46361,0,1.82692.72661,1.82692,2.68847,0,2.83379-.80965,7.34917-3.55,7.34917" fill="#0d2240"/><rect x="49.63401" y="8.13155" width="5.86393" height="27.11937" transform="translate(23.72809 70.70213) rotate(-81.95094)" fill="#fff"/><path d="M49.67961,24.87728l-.18685,4.92021a1.35981,1.35981,0,0,0,1.1522,1.38057H50.728l.69547.083.8927.12456v-.06228a1.3598,1.3598,0,0,0,1.173-1.038l1.1003-4.79565Z" fill="#fff"/><path d="M51.92173,26.82876a25.01634,25.01634,0,0,0,11.41821-1.13144l-.06228-1.65045V20.746A25.02666,25.02666,0,0,1,42.64184,18.0056l-.90308,3.17634-.52939,1.6193a25.00584,25.00584,0,0,0,10.71236,4.02752Z" fill="#fff"/><path d="M63.288,30.22308l.06228-2.39782a25.38994,25.38994,0,0,1-22.72224-3.02064l-.56053,2.32517a9.25868,9.25868,0,0,0-.06228,2.429,24.64254,24.64254,0,0,0,10.98224,4.30778h0a24.64259,24.64259,0,0,0,11.72962-1.28715,9.269,9.269,0,0,0,.57091-2.3563" fill="#fff"/><path d="M65.6132,19.04362c.301-3.50851-5.68835-5.79215-11.78152-6.62257h0c-6.09317-.83041-12.45623-.14532-13.08942,3.26976,0,.19723-.15571,1.20411-.15571,1.20411a3.32164,3.32164,0,0,0,.6851,2.53276c1.339,1.85806,4.505,3.48775,8.38719,4.4012h0v-.71623a1.32874,1.32874,0,0,1,.46711-.955,1.308,1.308,0,0,1,.48787-.2595h0c-5.33541-1.16258-9.23837-3.77839-8.83354-6.0309.44635-2.512,5.63645-3.49812,11.8957-2.60542h0c6.28.75775,11.03414,3.11405,10.80578,5.61568-.19723,2.28365-4.65033,3.77839-10.11031,3.51889h0a1.3078,1.3078,0,0,1,.40483.37368,1.32869,1.32869,0,0,1,.19722,1.038l-.16608.70586h0c3.986.13494,7.47374-.61243,9.24875-2.076a3.32171,3.32171,0,0,0,1.31828-2.27326S65.59244,19.24084,65.6132,19.04362Z" fill="none" stroke="#fff" stroke-miterlimit="10" stroke-width="0.82"/><path d="M49.75227,43.1568a25.38963,25.38963,0,0,1-8.07579-2.49124c.22836,1.3598.39445,2.33554.42559,2.37706s1.256,2.22136,1.339,2.32517a11.688,11.688,0,0,1,.37369,1.3079,24.65272,24.65272,0,0,0,5.2939,1.3079h0a24.64275,24.64275,0,0,0,5.4496.11419,11.69589,11.69589,0,0,1,.69547-1.18334c.11418-.08305,1.775-1.79578,1.89958-1.89958a19.97721,19.97721,0,0,0,1.038-2.17984,25.39012,25.39012,0,0,1-8.43909.301" fill="#fff"/><path d="M65.6132,19.04362c.301-3.50851-5.68835-5.79215-11.78152-6.62257h0c-6.09317-.83041-12.45623-.14532-13.08942,3.26976,0,.19723-.15571,1.20411-.15571,1.20411a3.32164,3.32164,0,0,0,.6851,2.53276c1.339,1.85806,4.505,3.48775,8.38719,4.4012h0v-.71623a1.32874,1.32874,0,0,1,.46711-.955,1.308,1.308,0,0,1,.48787-.2595h0c-5.33541-1.16258-9.23837-3.77839-8.83354-6.0309.44635-2.512,5.63645-3.49812,11.8957-2.60542h0c6.28.75775,11.03414,3.11405,10.80578,5.61568-.19723,2.28365-4.65033,3.77839-10.11031,3.51889h0a1.3078,1.3078,0,0,1,.40483.37368,1.32869,1.32869,0,0,1,.19722,1.038l-.16608.70586h0c3.986.13494,7.47374-.61243,9.24875-2.076a3.32171,3.32171,0,0,0,1.31828-2.27326s.14532-1.038.1557-1.2041" fill="#cf0a2c"/><rect x="49.63401" y="8.13155" width="5.86393" height="27.11937" transform="translate(23.72809 70.70213) rotate(-81.95094)" fill="#fff"/><path d="M52.92861,52.47821c-.42559,0-1.42209-.06228-1.68159-.083l-1.58817-.19723h0l-.8408-.1038h-.77851c-1.72312-.2595-2.23175-.33216-2.47049-.38407s-1.22486-.26988-1.64007-.38407l-.34255-.12456a3.17637,3.17637,0,0,1-2.00338-1.80615l-.06228-.301c-.28027-1.256-.39445-1.692-.436-1.84767l-.66433-1.21448c-.2076-.38407-.58129-1.038-.67471-1.22487-.24913-.34255-.34255-.76813-2.076-13.19322h0a18.68426,18.68426,0,0,1-.218-4.82679,3.3319,3.3319,0,0,1,.08305-.39445H37.2649A1.57779,1.57779,0,0,1,35.81233,24.699q.00352-.04595.00972-.09162L37.06767,15.369a1.64007,1.64007,0,0,1,1.56741-1.4117h.29064l2.076-.0519h.218l24.82942,3.48774h.13494l2.22136.69547a1.64007,1.64007,0,0,1,1.12106,1.7854l-1.34942,9.21761a1.58824,1.58824,0,0,1-.65395,1.038,2.05459,2.05459,0,0,1-1.22487.29064h-.24912a3.29007,3.29007,0,0,1,0,.40483,18.8402,18.8402,0,0,1-1.60892,4.43236v.06228c-5.12782,11.41821-5.33542,11.81266-5.678,12.08254l-.92384.93422h0l-.97574.97574c-.083.13494-.32178.52939-.93421,1.66083l-.14533.2595a3.18667,3.18667,0,0,1-2.429,1.18334h-.34255Z" fill="#fff"/><path d="M41.02252,15.1199l-2.38744.06228a.23873.23873,0,0,0-.218.19722l-1.24563,9.23838a.18685.18685,0,0,0,.16379.20735l.0023.00025,1.038.07266a.37367.37367,0,0,0,.301-.14532s.18685-1.256.301-1.24562.46711.39445.53977.47749l-.48787,2.076-.14532.57091a1.97141,1.97141,0,0,0-.06229.29065,16.97182,16.97182,0,0,0,.218,4.33892v.06228c.2595,1.79577,1.79577,12.45623,1.88919,12.60156s1.35981,2.49124,1.45323,2.6158.52939,2.211.61243,2.41859a2.07611,2.07611,0,0,0,1.038.83042h0l.22837.09341c.45672.12457,1.48437.35293,1.5155.35293s1.64008.2595,2.46011.37368h.56053c.82.11419,2.41858.32179,2.47049.31141s1.038.07266,1.54665.07266h.33216a2.076,2.076,0,0,0,1.22487-.47748c.083-.14533,1.12106-2.076,1.24562-2.16946s1.97224-2.00338,2.076-2.076S62.23964,36.337,62.987,34.68657v-.06229a16.98193,16.98193,0,0,0,1.4117-4.15207,2.014,2.014,0,0,0,0-.29065v-.58129l.1038-2.076c.08305-.06228.64358-.3114.64358-.3114a5.19007,5.19007,0,0,1-.06228,1.27676.37366.37366,0,0,0,.24912.22836l.97574.19723a.18684.18684,0,0,0,.21713-.15059l.00086-.00512,1.34942-9.21761a.23875.23875,0,0,0-.1557-.24913l-2.27326-.71623Zm-1.78539,6.04127.37369-2.73a9.92313,9.92313,0,0,1,.80965-.96536.301.301,0,0,1,.31141-.083l.49824.18684-.63319,2.23174-.63319,2.076a4.62889,4.62889,0,0,1-.72661-.70585M65.717,24.87728a4.639,4.639,0,0,1-.89269.47749V20.89129h.52939a.301.301,0,0,1,.28026.16608,9.89187,9.89187,0,0,1,.50863,1.1522Z" fill="#cf0a2c"/><path d="M62.2604,14.49709A27.58035,27.58035,0,0,0,53.95624,12.037H53.894a27.58,27.58,0,0,0-8.66746.07267c-2.71961.52939-4.39082,1.557-4.84755,2.96873l-.32178,2.53277a4.84753,4.84753,0,0,0,.86155,2.076c1.57779,2.595,6.10356,3.99637,8.65708,4.588h.25951l.28027-.16608v-.9446a.903.903,0,0,1,.3114-.65395.872.872,0,0,1,.33217-.17647l.218-.06228.083-.28026v-.41521l-.35292-.07266c-5.04478-1.10031-8.85431-3.59155-8.51176-5.543.38406-2.16946,5.29389-3.11406,11.41821-2.2525h0c6.14508.8408,10.59818,3.11406,10.38019,5.31466-.2076,1.97224-4.55691,3.31128-9.70548,2.97911H53.9251l-.09342.40483v.29065l.19722.12456a.8719.8719,0,0,1,.26989.2595.9031.9031,0,0,1,.12456.71623l-.22837.92384.218.23874.17646.07267h.07266c2.62619.12456,7.34918,0,9.58091-2.076a4.84766,4.84766,0,0,0,1.37019-1.73349L66.018,18.6803c0-1.48437-1.37019-2.9376-3.84067-4.15208" fill="#fff"/><path d="M49.67961,24.87728l-.18685,4.92021a1.35981,1.35981,0,0,0,1.1522,1.38057H50.728l.69547.083.8927.12456v-.06228a1.3598,1.3598,0,0,0,1.173-1.038l1.1003-4.79565Z" fill="#fff"/><path d="M51.92173,26.82876a25.01634,25.01634,0,0,0,11.41821-1.13144l-.06228-1.65045V20.746A25.02666,25.02666,0,0,1,42.64184,18.0056l-.90308,3.17634-.52939,1.6193a25.00584,25.00584,0,0,0,10.71236,4.02752Z" fill="#fff"/><path d="M64.53366,18.89829c.22837-2.54315-4.52576-4.84755-10.80578-5.61568s-11.41821.083-11.8957,2.59505,4.45311,5.46,10.71236,6.37343h0c6.22812.75776,11.77114-.82,11.99951-3.3528" fill="#fff"/><path d="M63.288,30.22308l.06228-2.39782a25.38994,25.38994,0,0,1-22.72224-3.02064l-.56053,2.32517a9.25868,9.25868,0,0,0-.06228,2.429,24.64254,24.64254,0,0,0,10.98224,4.30778h0a24.64259,24.64259,0,0,0,11.72962-1.28715,9.269,9.269,0,0,0,.57091-2.3563" fill="#fff"/><path d="M49.75227,43.1568a25.38963,25.38963,0,0,1-8.07579-2.49124c.22836,1.3598.39445,2.33554.42559,2.37706s1.256,2.22136,1.339,2.32517a11.688,11.688,0,0,1,.37369,1.3079,24.65272,24.65272,0,0,0,5.2939,1.3079h0a24.64275,24.64275,0,0,0,5.4496.11419,11.69589,11.69589,0,0,1,.69547-1.18334c.11418-.08305,1.775-1.79578,1.89958-1.89958a19.97721,19.97721,0,0,0,1.038-2.17984,25.39012,25.39012,0,0,1-8.43909.301" fill="#fff"/><path d="M65.6132,19.04362c.301-3.50851-5.68835-5.79215-11.78152-6.62257h0c-6.09317-.83041-12.45623-.14532-13.08942,3.26976,0,.19723-.15571,1.20411-.15571,1.20411a3.32164,3.32164,0,0,0,.6851,2.53276c1.339,1.85806,4.505,3.48775,8.38719,4.4012h0v-.71623a1.32874,1.32874,0,0,1,.46711-.955,1.308,1.308,0,0,1,.48787-.2595h0c-5.33541-1.16258-9.23837-3.77839-8.83354-6.0309.44635-2.512,5.63645-3.49812,11.8957-2.60542h0c6.28.75775,11.03414,3.11405,10.80578,5.61568-.19723,2.28365-4.65033,3.77839-10.11031,3.51889h0a1.3078,1.3078,0,0,1,.40483.37368,1.32869,1.32869,0,0,1,.19722,1.038l-.16608.70586h0c3.986.13494,7.47374-.61243,9.24875-2.076a3.32171,3.32171,0,0,0,1.31828-2.27326s.14532-1.038.1557-1.2041" fill="#cf0a2c"/><path d="M53.8213,23.26835l-1.3598-.19722h0l-1.35981-.16608a.29072.29072,0,0,0-.33217.28026L50.5204,29.839a.36331.36331,0,0,0,.301.3633l.67472.09342h0l.67471.08305a.3633.3633,0,0,0,.38407-.26989l1.49475-6.48762a.29066.29066,0,0,0-.21744-.34881l-.02131-.00411" fill="#cf0a2c"/><path d="M46.88733,13.61477c-.083.12457,0,.29065.40483.44635a29.41773,29.41773,0,0,0,5.58455,1.474l.96535.13494a24.69467,24.69467,0,0,0,6.2904.13495,3.03064,3.03064,0,0,1,.77852,0,21.62178,21.62178,0,0,0-7.17272-2.17985,22.71223,22.71223,0,0,0-6.85092,0" fill="#0d2240"/><path d="M46.88733,13.61477c-.083.12457,0,.29065.40483.44635a29.41773,29.41773,0,0,0,5.58455,1.474l.96535.13494a24.69467,24.69467,0,0,0,6.2904.13495,3.03064,3.03064,0,0,1,.77852,0,21.62178,21.62178,0,0,0-7.17272-2.17985A22.71232,22.71232,0,0,0,46.88733,13.61477Z" fill="none" stroke="#fff" stroke-miterlimit="10" stroke-width="0.07"/><path d="M60.85907,16.08526a20.07533,20.07533,0,0,1-6.90283.07266l-.97573-.13494a23.812,23.812,0,0,1-4.87869-1.29753,12.59061,12.59061,0,0,1-1.692-.737.60211.60211,0,0,1-.301-.218,5.03438,5.03438,0,0,0-2.813,1.4117.3632.3632,0,0,0,0,.20761c.07266.18684.33216.32178.72661.38406l18.69473,2.61581a1.61923,1.61923,0,0,1,.74737.25951c0-.87194-.74737-1.7854-2.076-2.60543h-.26989Z" fill="#0d2240"/><path d="M45.33031,18.17168a26.4178,26.4178,0,0,1,7.33879.1557l.97574.13495a23.69786,23.69786,0,0,1,6.2904,2.076c.2595.13494.24912.47748.2595.48787a8.88559,8.88559,0,0,0,2.31479-.8927,2.24209,2.24209,0,0,0,.79927-.90308,3.18662,3.18662,0,0,0-1.038-.33216h0L43.65909,16.2721a1.20414,1.20414,0,0,1-.66433-.2595,2.07607,2.07607,0,0,0,.64357,1.59855,4.27562,4.27562,0,0,0,.37369.32178,2.71951,2.71951,0,0,0,1.31829.25951" fill="#0d2240"/><path d="M58.82456,20.72521A18.92317,18.92317,0,0,0,53.541,19.02285l-.96536-.13494a21.47677,21.47677,0,0,0-6.28,0,2.65737,2.65737,0,0,1-1.14182-.083h0l.42559.24912.42559.218.2595.12456.218.1038.52939.22836h.11418l.71623.26989h.06228A25.29709,25.29709,0,0,0,52.68986,21.13a23.802,23.802,0,0,0,6.1347.11418c.53977-.14532.37368-.436,0-.602" fill="#0d2240"/><polygon points="53.344 13.459 54.143 13.573 53.489 22.303 51.652 22.043 53.344 13.459" fill="#fff"/><rect x="39.89108" y="23.91192" width="1.52589" height="2.77151" fill="#cf0a2c"/><path d="M44.72825,24.7112h0a13.33854,13.33854,0,0,0-9.86118,3.71611H28.74275c-3.11405,0-7.17271,0-8.6986.0519H18.90233l-.32179,1.08992a23.12705,23.12705,0,0,0-.91345,6.11393l-.1038,1.65045h4.67109l-.35293,2.076h-1.038c-3.51889,0-5.87519-1.038-5.87519-6.38382a14.07553,14.07553,0,0,1,1.52589-6.66408,6.9755,6.9755,0,0,1,6.63294-3.56041h1.28715l-.33217,2.73,1.58817.16608c1.692.17646,3.53965.218,4.78527.218h.083a50.58115,50.58115,0,0,0,5.06554-.23874l.89269-.14532.18685-1.16258c.1557-.9446.29064-1.84768.42558-2.91684l1.038-6.94435-.63319-.90308-.33216-.14532c-.25951-.09342-.53977-.18684-.8408-.26989a50.95716,50.95716,0,0,0-11.8438-1.18334h-.09342c-7.81629.01038-13.79528,2.24212-17.73975,6.64333-3.47737,3.77839-5.2939,9.15533-5.28352,15.57029,0,10.09992,6.16583,15.6637,17.32454,15.6637h0c2.076,0,9.27989-.14532,13.49425-1.84767l.75775-.301.17646-.737c1.80616,1.97224,4.57767,3.0414,8.07579,3.0414h0c8.709,0,14.11707-5.86481,14.0963-15.27965,0-4.5569-1.86843-9.99612-10.68122-9.99612m-.78889,7.81628Z" fill="#fff"/><path d="M44.69711,26.27861c-4.99287,0-8.491,2.076-10.45285,5.543.083-.66433.1557-1.28715.218-1.83729H20.05453a21.60082,21.60082,0,0,0-.85117,5.75062h4.84755L23.19973,40.842a17.48122,17.48122,0,0,1-2.36668.16608c-4.51539,0-7.41146-1.86843-7.42184-7.99275,0-4.07942,1.38057-11.81266,9.70548-11.83342a16.79588,16.79588,0,0,1,3.031.2076l-.33217,2.99988a46.85485,46.85485,0,0,0,4.71261.2076,45.73436,45.73436,0,0,0,4.69185,0c.17646-1.038.3114-2.294.42558-3.166l.91346-6.16583.07266-.29064c-2.63657-.96536-8.00313-1.38057-12.24862-1.38057-15.643,0-21.45586,9.41484-21.4351,20.62545,0,10.52551,6.94435,14.11706,15.809,14.0963,4.15208,0,9.71586-.44635,12.9441-1.73349.19722-.85118.519-2.47049.88232-4.41158.78889,4.27664,4.08979,6.31116,8.72974,6.30078,8.76088,0,12.53927-6.22812,12.52889-13.71224,0-5.75063-3.11406-8.4391-9.14495-8.42871M42.21625,42.52361c-1.37019,0-1.92034-.86156-1.92034-3.11406,0-3.69535,1.038-6.94434,3.64345-6.94434,1.46361,0,1.82691.72661,1.82691,2.68847,0,2.83379-.80965,7.34917-3.55,7.34917" fill="#0d2240"/></svg>